G04 #@! TF.GenerationSoftware,KiCad,Pcbnew,10.0.3*
G04 #@! TF.CreationDate,2026-07-15T20:26:45+08:00*
G04 #@! TF.ProjectId,blackmacro_base,626c6163-6b6d-4616-9372-6f5f62617365,6-2-FAB1*
G04 #@! TF.SameCoordinates,Original*
G04 #@! TF.FileFunction,Paste,Bot*
G04 #@! TF.FilePolarity,Positive*
%FSLAX46Y46*%
G04 Gerber Fmt 4.6, Leading zero omitted, Abs format (unit mm)*
G04 Created by KiCad (PCBNEW 10.0.3) date 2026-07-15 20:26:45*
%MOMM*%
%LPD*%
G01*
G04 APERTURE LIST*
G04 Aperture macros list*
%AMRoundRect*
0 Rectangle with rounded corners*
0 $1 Rounding radius*
0 $2 $3 $4 $5 $6 $7 $8 $9 X,Y pos of 4 corners*
0 Add a 4 corners polygon primitive as box body*
4,1,4,$2,$3,$4,$5,$6,$7,$8,$9,$2,$3,0*
0 Add four circle primitives for the rounded corners*
1,1,$1+$1,$2,$3*
1,1,$1+$1,$4,$5*
1,1,$1+$1,$6,$7*
1,1,$1+$1,$8,$9*
0 Add four rect primitives between the rounded corners*
20,1,$1+$1,$2,$3,$4,$5,0*
20,1,$1+$1,$4,$5,$6,$7,0*
20,1,$1+$1,$6,$7,$8,$9,0*
20,1,$1+$1,$8,$9,$2,$3,0*%
%AMFreePoly0*
4,1,18,-0.410000,0.593000,-0.403758,0.624380,-0.385983,0.650983,-0.359380,0.668758,-0.328000,0.675000,0.328000,0.675000,0.359380,0.668758,0.385983,0.650983,0.403758,0.624380,0.410000,0.593000,0.410000,-0.593000,0.403758,-0.624380,0.385983,-0.650983,0.359380,-0.668758,0.328000,-0.675000,0.000000,-0.675000,-0.410000,-0.265000,-0.410000,0.593000,-0.410000,0.593000,$1*%
G04 Aperture macros list end*
%ADD10RoundRect,0.250000X-1.025000X-1.000000X1.025000X-1.000000X1.025000X1.000000X-1.025000X1.000000X0*%
%ADD11RoundRect,0.082000X0.593000X-0.328000X0.593000X0.328000X-0.593000X0.328000X-0.593000X-0.328000X0*%
%ADD12FreePoly0,90.000000*%
%ADD13RoundRect,0.250000X-0.350000X-0.450000X0.350000X-0.450000X0.350000X0.450000X-0.350000X0.450000X0*%
%ADD14RoundRect,0.237500X0.300000X0.237500X-0.300000X0.237500X-0.300000X-0.237500X0.300000X-0.237500X0*%
G04 APERTURE END LIST*
D10*
G04 #@! TO.C,SW_LE1*
X53621000Y-157214000D03*
X66548000Y-154674000D03*
G04 #@! TD*
G04 #@! TO.C,SW_LD4*
X110771000Y-138164000D03*
X123698000Y-135624000D03*
G04 #@! TD*
G04 #@! TO.C,SW_LD3*
X91721000Y-138164000D03*
X104648000Y-135624000D03*
G04 #@! TD*
G04 #@! TO.C,SW_LC4*
X110771000Y-119114000D03*
X123698000Y-116574000D03*
G04 #@! TD*
G04 #@! TO.C,SW_LE2*
X91721000Y-157214000D03*
X104648000Y-154674000D03*
G04 #@! TD*
G04 #@! TO.C,SW_LB4*
X110771000Y-100064000D03*
X123698000Y-97524000D03*
G04 #@! TD*
G04 #@! TO.C,SW_LD1*
X53621000Y-138164000D03*
X66548000Y-135624000D03*
G04 #@! TD*
G04 #@! TO.C,SW_LD2*
X72671000Y-138164000D03*
X85598000Y-135624000D03*
G04 #@! TD*
G04 #@! TO.C,SW_LA2*
X101246000Y-81014000D03*
X114173000Y-78474000D03*
G04 #@! TD*
G04 #@! TO.C,SW_LC3*
X91721000Y-119114000D03*
X104648000Y-116574000D03*
G04 #@! TD*
G04 #@! TO.C,SW_RA1*
X178970000Y-52324000D03*
X191897000Y-49784000D03*
G04 #@! TD*
G04 #@! TO.C,SW_RB3*
X212320200Y-79484000D03*
X225247200Y-76944000D03*
G04 #@! TD*
G04 #@! TO.C,SW_RB2*
X193270200Y-79484000D03*
X206197200Y-76944000D03*
G04 #@! TD*
G04 #@! TO.C,SW_LC1*
X53621000Y-119114000D03*
X66548000Y-116574000D03*
G04 #@! TD*
G04 #@! TO.C,SW_LA1*
X63146000Y-81014000D03*
X76073000Y-78474000D03*
G04 #@! TD*
G04 #@! TO.C,SW_LB2*
X72671000Y-100064000D03*
X85598000Y-97524000D03*
G04 #@! TD*
G04 #@! TO.C,SW_LB1*
X53621000Y-100064000D03*
X66548000Y-97524000D03*
G04 #@! TD*
G04 #@! TO.C,SW_LB3*
X91721000Y-100064000D03*
X104648000Y-97524000D03*
G04 #@! TD*
G04 #@! TO.C,SW_RB1*
X174220200Y-79484000D03*
X187147200Y-76944000D03*
G04 #@! TD*
G04 #@! TO.C,SW_RA2*
X207545000Y-52324000D03*
X220472000Y-49784000D03*
G04 #@! TD*
G04 #@! TO.C,SW_LC2*
X72671000Y-119114000D03*
X85598000Y-116574000D03*
G04 #@! TD*
D11*
G04 #@! TO.C,LED17*
X216680200Y-86346600D03*
X216680200Y-87846600D03*
X222130200Y-86346600D03*
D12*
X222130200Y-87846600D03*
G04 #@! TD*
D11*
G04 #@! TO.C,LED2*
X67506000Y-87884000D03*
X67506000Y-89384000D03*
X72956000Y-87884000D03*
D12*
X72956000Y-89384000D03*
G04 #@! TD*
D13*
G04 #@! TO.C,R5*
X143800000Y-121600000D03*
X145800000Y-121600000D03*
G04 #@! TD*
G04 #@! TO.C,R6*
X143800000Y-124250000D03*
X145800000Y-124250000D03*
G04 #@! TD*
D11*
G04 #@! TO.C,LED5*
X77031000Y-106934000D03*
X77031000Y-108434000D03*
X82481000Y-106934000D03*
D12*
X82481000Y-108434000D03*
G04 #@! TD*
D11*
G04 #@! TO.C,LED15*
X96081000Y-164084000D03*
X96081000Y-165584000D03*
X101531000Y-164084000D03*
D12*
X101531000Y-165584000D03*
G04 #@! TD*
D14*
G04 #@! TO.C,C25*
X155612500Y-124250000D03*
X153887500Y-124250000D03*
G04 #@! TD*
D11*
G04 #@! TO.C,LED19*
X178580200Y-86346600D03*
X178580200Y-87846600D03*
X184030200Y-86346600D03*
D12*
X184030200Y-87846600D03*
G04 #@! TD*
D11*
G04 #@! TO.C,LED10*
X57981000Y-125984000D03*
X57981000Y-127484000D03*
X63431000Y-125984000D03*
D12*
X63431000Y-127484000D03*
G04 #@! TD*
D11*
G04 #@! TO.C,LED6*
X57981000Y-106934000D03*
X57981000Y-108434000D03*
X63431000Y-106934000D03*
D12*
X63431000Y-108434000D03*
G04 #@! TD*
D11*
G04 #@! TO.C,LED1*
X105606000Y-87884000D03*
X105606000Y-89384000D03*
X111056000Y-87884000D03*
D12*
X111056000Y-89384000D03*
G04 #@! TD*
D13*
G04 #@! TO.C,R7*
X143800000Y-129200000D03*
X145800000Y-129200000D03*
G04 #@! TD*
D11*
G04 #@! TO.C,LED3*
X115131000Y-106934000D03*
X115131000Y-108434000D03*
X120581000Y-106934000D03*
D12*
X120581000Y-108434000D03*
G04 #@! TD*
D11*
G04 #@! TO.C,LED12*
X96081000Y-145034000D03*
X96081000Y-146534000D03*
X101531000Y-145034000D03*
D12*
X101531000Y-146534000D03*
G04 #@! TD*
D13*
G04 #@! TO.C,R8*
X143800000Y-131800000D03*
X145800000Y-131800000D03*
G04 #@! TD*
D11*
G04 #@! TO.C,LED9*
X77031000Y-125984000D03*
X77031000Y-127484000D03*
X82481000Y-125984000D03*
D12*
X82481000Y-127484000D03*
G04 #@! TD*
D11*
G04 #@! TO.C,LED8*
X96081000Y-125984000D03*
X96081000Y-127484000D03*
X101531000Y-125984000D03*
D12*
X101531000Y-127484000D03*
G04 #@! TD*
D11*
G04 #@! TO.C,LED18*
X197630200Y-86346600D03*
X197630200Y-87846600D03*
X203080200Y-86346600D03*
D12*
X203080200Y-87846600D03*
G04 #@! TD*
D11*
G04 #@! TO.C,LED13*
X77031000Y-145034000D03*
X77031000Y-146534000D03*
X82481000Y-145034000D03*
D12*
X82481000Y-146534000D03*
G04 #@! TD*
D11*
G04 #@! TO.C,LED16*
X57981000Y-164084000D03*
X57981000Y-165584000D03*
X63431000Y-164084000D03*
D12*
X63431000Y-165584000D03*
G04 #@! TD*
D11*
G04 #@! TO.C,LED20*
X211905000Y-59194000D03*
X211905000Y-60694000D03*
X217355000Y-59194000D03*
D12*
X217355000Y-60694000D03*
G04 #@! TD*
D11*
G04 #@! TO.C,LED11*
X115131000Y-145034000D03*
X115131000Y-146534000D03*
X120581000Y-145034000D03*
D12*
X120581000Y-146534000D03*
G04 #@! TD*
D11*
G04 #@! TO.C,LED4*
X96081000Y-106934000D03*
X96081000Y-108434000D03*
X101531000Y-106934000D03*
D12*
X101531000Y-108434000D03*
G04 #@! TD*
D11*
G04 #@! TO.C,LED7*
X115131000Y-125984000D03*
X115131000Y-127484000D03*
X120581000Y-125984000D03*
D12*
X120581000Y-127484000D03*
G04 #@! TD*
D11*
G04 #@! TO.C,LED21*
X183330000Y-59194000D03*
X183330000Y-60694000D03*
X188780000Y-59194000D03*
D12*
X188780000Y-60694000D03*
G04 #@! TD*
D11*
G04 #@! TO.C,LED14*
X57981000Y-145034000D03*
X57981000Y-146534000D03*
X63431000Y-145034000D03*
D12*
X63431000Y-146534000D03*
G04 #@! TD*
M02*
