%TF.GenerationSoftware,KiCad,Pcbnew,10.0.3*%
%TF.CreationDate,2026-07-15T20:26:45+08:00*%
%TF.ProjectId,blackmacro_base,626c6163-6b6d-4616-9372-6f5f62617365,6-2-FAB1*%
%TF.SameCoordinates,Original*%
%TF.FileFunction,Drillmap*%
%TF.FilePolarity,Positive*%
%FSLAX45Y45*%
G04 Gerber Fmt 4.5, Leading zero omitted, Abs format (unit mm)*
G04 Created by KiCad (PCBNEW 10.0.3) date 2026-07-15 20:26:45*
%MOMM*%
%LPD*%
G01*
G04 APERTURE LIST*
%ADD10C,0.200000*%
%ADD11C,0.100000*%
%ADD12C,0.150000*%
%ADD13C,0.175000*%
%ADD14C,0.304800*%
%ADD15C,0.398780*%
%ADD16C,0.400000*%
G04 APERTURE END LIST*
D10*
X4864100Y-16508800D02*
X4891171Y-5091375D01*
X4891171Y-5091375D02*
G75*
G02*
X5535871Y-4446661I644719J-5D01*
G01*
X5508813Y-17153500D02*
G75*
G02*
X4864100Y-16508800I5J644717D01*
G01*
X13764994Y-4445000D02*
X5535871Y-4446662D01*
X13944600Y-4089403D02*
X13944604Y-4265395D01*
X13944600Y-4089403D02*
X15951200Y-4089403D01*
X13944604Y-4265395D02*
G75*
G02*
X13764994Y-4445004I-179614J5D01*
G01*
X14248788Y-17179595D02*
X5508813Y-17153500D01*
X14248788Y-17179595D02*
X14250000Y-16279600D01*
X14250000Y-16279600D02*
X15670000Y-16279600D01*
X15670000Y-16279600D02*
X15670000Y-17170400D01*
X15670000Y-17170400D02*
X16616982Y-17170400D01*
X15951200Y-4089403D02*
X15951200Y-4265398D01*
X16130805Y-4445000D02*
G75*
G02*
X15951200Y-4265398I5J179610D01*
G01*
X16700000Y-12192000D02*
X16700000Y-13970000D01*
X16700000Y-12192000D02*
G75*
G02*
X17018000Y-11874000I318000J0D01*
G01*
X17018000Y-10998200D02*
X17018000Y-11874000D01*
X17018000Y-10998200D02*
G75*
G02*
X17662336Y-10351446I644340J2410D01*
G01*
X17018000Y-14288000D02*
G75*
G02*
X16700000Y-13970000I0J318000D01*
G01*
X17018000Y-16772503D02*
G75*
G02*
X16616982Y-17170405I-400120J2223D01*
G01*
X17018000Y-16772503D02*
X17018000Y-14288000D01*
X22479000Y-4445000D02*
X16130805Y-4445000D01*
X22479000Y-4445000D02*
G75*
G02*
X23126119Y-5092276I2410J-644710D01*
G01*
X22479476Y-10349692D02*
X17662336Y-10351450D01*
X23124171Y-9702565D02*
G75*
G02*
X22479476Y-10349696I-644711J-2416D01*
G01*
X23124171Y-9702565D02*
X23126123Y-5092276D01*
D11*
X21770520Y-8779944D02*
X21770520Y-8639376D01*
X21861075Y-8559660D02*
X22019965Y-8559660D01*
X22019965Y-8859660D02*
X21861075Y-8859660D01*
X22110520Y-8639376D02*
X22110520Y-8779944D01*
X21765572Y-8617688D02*
G75*
G02*
X21770518Y-8639376I-45052J-21682D01*
G01*
X21765572Y-8617688D02*
G75*
G02*
X21835849Y-8552830I45051J21688D01*
G01*
X21770520Y-8779944D02*
G75*
G02*
X21765572Y-8801632I-50036J8D01*
G01*
X21835849Y-8866490D02*
G75*
G02*
X21765572Y-8801632I-25226J43170D01*
G01*
X21835849Y-8866490D02*
G75*
G02*
X21861075Y-8859660I25226J-43171D01*
G01*
X21861075Y-8559660D02*
G75*
G02*
X21835849Y-8552830I0J50001D01*
G01*
X22019965Y-8859660D02*
G75*
G02*
X22045191Y-8866490I0J-50001D01*
G01*
X22045191Y-8552830D02*
G75*
G02*
X22019965Y-8559660I-25226J43171D01*
G01*
X22045191Y-8552830D02*
G75*
G02*
X22115468Y-8617688I25226J-43170D01*
G01*
X22110520Y-8639376D02*
G75*
G02*
X22115468Y-8617688I49999J0D01*
G01*
X22115468Y-8801632D02*
G75*
G02*
X22045191Y-8866490I-45051J-21688D01*
G01*
X22115468Y-8801632D02*
G75*
G02*
X22110520Y-8779944I45051J21688D01*
G01*
X6853100Y-8933684D02*
X6853100Y-8793116D01*
X6943655Y-8713400D02*
X7102545Y-8713400D01*
X7102545Y-9013400D02*
X6943655Y-9013400D01*
X7193100Y-8793116D02*
X7193100Y-8933684D01*
X6848152Y-8771428D02*
G75*
G02*
X6853098Y-8793116I-45052J-21682D01*
G01*
X6848152Y-8771428D02*
G75*
G02*
X6918429Y-8706570I45051J21688D01*
G01*
X6853100Y-8933684D02*
G75*
G02*
X6848152Y-8955372I-50036J8D01*
G01*
X6918429Y-9020230D02*
G75*
G02*
X6848152Y-8955372I-25226J43170D01*
G01*
X6918429Y-9020230D02*
G75*
G02*
X6943655Y-9013400I25226J-43171D01*
G01*
X6943655Y-8713400D02*
G75*
G02*
X6918429Y-8706570I0J50001D01*
G01*
X7102545Y-9013400D02*
G75*
G02*
X7127771Y-9020230I0J-50001D01*
G01*
X7127771Y-8706570D02*
G75*
G02*
X7102545Y-8713400I-25226J43171D01*
G01*
X7127771Y-8706570D02*
G75*
G02*
X7198048Y-8771428I25226J-43170D01*
G01*
X7193100Y-8793116D02*
G75*
G02*
X7198048Y-8771428I49999J0D01*
G01*
X7198048Y-8955372D02*
G75*
G02*
X7127771Y-9020230I-45051J-21688D01*
G01*
X7198048Y-8955372D02*
G75*
G02*
X7193100Y-8933684I45051J21688D01*
G01*
X7805600Y-10838684D02*
X7805600Y-10698116D01*
X7896155Y-10618400D02*
X8055045Y-10618400D01*
X8055045Y-10918400D02*
X7896155Y-10918400D01*
X8145600Y-10698116D02*
X8145600Y-10838684D01*
X7800652Y-10676428D02*
G75*
G02*
X7805598Y-10698116I-45052J-21682D01*
G01*
X7800652Y-10676428D02*
G75*
G02*
X7870929Y-10611570I45051J21688D01*
G01*
X7805600Y-10838684D02*
G75*
G02*
X7800652Y-10860372I-50036J8D01*
G01*
X7870929Y-10925230D02*
G75*
G02*
X7800652Y-10860372I-25226J43170D01*
G01*
X7870929Y-10925230D02*
G75*
G02*
X7896155Y-10918400I25226J-43171D01*
G01*
X7896155Y-10618400D02*
G75*
G02*
X7870929Y-10611570I0J50001D01*
G01*
X8055045Y-10918400D02*
G75*
G02*
X8080271Y-10925230I0J-50001D01*
G01*
X8080271Y-10611570D02*
G75*
G02*
X8055045Y-10618400I-25226J43171D01*
G01*
X8080271Y-10611570D02*
G75*
G02*
X8150548Y-10676428I25226J-43170D01*
G01*
X8145600Y-10698116D02*
G75*
G02*
X8150548Y-10676428I49999J0D01*
G01*
X8150548Y-10860372D02*
G75*
G02*
X8080271Y-10925230I-45051J-21688D01*
G01*
X8150548Y-10860372D02*
G75*
G02*
X8145600Y-10838684I45051J21688D01*
G01*
X9710600Y-16553684D02*
X9710600Y-16413116D01*
X9801155Y-16333400D02*
X9960045Y-16333400D01*
X9960045Y-16633400D02*
X9801155Y-16633400D01*
X10050600Y-16413116D02*
X10050600Y-16553684D01*
X9705652Y-16391428D02*
G75*
G02*
X9710598Y-16413116I-45052J-21682D01*
G01*
X9705652Y-16391428D02*
G75*
G02*
X9775929Y-16326570I45051J21688D01*
G01*
X9710600Y-16553684D02*
G75*
G02*
X9705652Y-16575372I-50036J8D01*
G01*
X9775929Y-16640230D02*
G75*
G02*
X9705652Y-16575372I-25226J43170D01*
G01*
X9775929Y-16640230D02*
G75*
G02*
X9801155Y-16633400I25226J-43171D01*
G01*
X9801155Y-16333400D02*
G75*
G02*
X9775929Y-16326570I0J50001D01*
G01*
X9960045Y-16633400D02*
G75*
G02*
X9985271Y-16640230I0J-50001D01*
G01*
X9985271Y-16326570D02*
G75*
G02*
X9960045Y-16333400I-25226J43171D01*
G01*
X9985271Y-16326570D02*
G75*
G02*
X10055548Y-16391428I25226J-43170D01*
G01*
X10050600Y-16413116D02*
G75*
G02*
X10055548Y-16391428I49999J0D01*
G01*
X10055548Y-16575372D02*
G75*
G02*
X9985271Y-16640230I-45051J-21688D01*
G01*
X10055548Y-16575372D02*
G75*
G02*
X10050600Y-16553684I45051J21688D01*
G01*
X17960520Y-8779944D02*
X17960520Y-8639376D01*
X18051075Y-8559660D02*
X18209965Y-8559660D01*
X18209965Y-8859660D02*
X18051075Y-8859660D01*
X18300520Y-8639376D02*
X18300520Y-8779944D01*
X17955572Y-8617688D02*
G75*
G02*
X17960518Y-8639376I-45052J-21682D01*
G01*
X17955572Y-8617688D02*
G75*
G02*
X18025849Y-8552830I45051J21688D01*
G01*
X17960520Y-8779944D02*
G75*
G02*
X17955572Y-8801632I-50036J8D01*
G01*
X18025849Y-8866490D02*
G75*
G02*
X17955572Y-8801632I-25226J43170D01*
G01*
X18025849Y-8866490D02*
G75*
G02*
X18051075Y-8859660I25226J-43171D01*
G01*
X18051075Y-8559660D02*
G75*
G02*
X18025849Y-8552830I0J50001D01*
G01*
X18209965Y-8859660D02*
G75*
G02*
X18235191Y-8866490I0J-50001D01*
G01*
X18235191Y-8552830D02*
G75*
G02*
X18209965Y-8559660I-25226J43171D01*
G01*
X18235191Y-8552830D02*
G75*
G02*
X18305468Y-8617688I25226J-43170D01*
G01*
X18300520Y-8639376D02*
G75*
G02*
X18305468Y-8617688I49999J0D01*
G01*
X18305468Y-8801632D02*
G75*
G02*
X18235191Y-8866490I-45051J-21688D01*
G01*
X18305468Y-8801632D02*
G75*
G02*
X18300520Y-8779944I45051J21688D01*
G01*
X5900600Y-12743684D02*
X5900600Y-12603116D01*
X5991155Y-12523400D02*
X6150045Y-12523400D01*
X6150045Y-12823400D02*
X5991155Y-12823400D01*
X6240600Y-12603116D02*
X6240600Y-12743684D01*
X5895652Y-12581428D02*
G75*
G02*
X5900598Y-12603116I-45052J-21682D01*
G01*
X5895652Y-12581428D02*
G75*
G02*
X5965929Y-12516570I45051J21688D01*
G01*
X5900600Y-12743684D02*
G75*
G02*
X5895652Y-12765372I-50036J8D01*
G01*
X5965929Y-12830230D02*
G75*
G02*
X5895652Y-12765372I-25226J43170D01*
G01*
X5965929Y-12830230D02*
G75*
G02*
X5991155Y-12823400I25226J-43171D01*
G01*
X5991155Y-12523400D02*
G75*
G02*
X5965929Y-12516570I0J50001D01*
G01*
X6150045Y-12823400D02*
G75*
G02*
X6175271Y-12830230I0J-50001D01*
G01*
X6175271Y-12516570D02*
G75*
G02*
X6150045Y-12523400I-25226J43171D01*
G01*
X6175271Y-12516570D02*
G75*
G02*
X6245548Y-12581428I25226J-43170D01*
G01*
X6240600Y-12603116D02*
G75*
G02*
X6245548Y-12581428I49999J0D01*
G01*
X6245548Y-12765372D02*
G75*
G02*
X6175271Y-12830230I-45051J-21688D01*
G01*
X6245548Y-12765372D02*
G75*
G02*
X6240600Y-12743684I45051J21688D01*
G01*
X5900600Y-10838684D02*
X5900600Y-10698116D01*
X5991155Y-10618400D02*
X6150045Y-10618400D01*
X6150045Y-10918400D02*
X5991155Y-10918400D01*
X6240600Y-10698116D02*
X6240600Y-10838684D01*
X5895652Y-10676428D02*
G75*
G02*
X5900598Y-10698116I-45052J-21682D01*
G01*
X5895652Y-10676428D02*
G75*
G02*
X5965929Y-10611570I45051J21688D01*
G01*
X5900600Y-10838684D02*
G75*
G02*
X5895652Y-10860372I-50036J8D01*
G01*
X5965929Y-10925230D02*
G75*
G02*
X5895652Y-10860372I-25226J43170D01*
G01*
X5965929Y-10925230D02*
G75*
G02*
X5991155Y-10918400I25226J-43171D01*
G01*
X5991155Y-10618400D02*
G75*
G02*
X5965929Y-10611570I0J50001D01*
G01*
X6150045Y-10918400D02*
G75*
G02*
X6175271Y-10925230I0J-50001D01*
G01*
X6175271Y-10611570D02*
G75*
G02*
X6150045Y-10618400I-25226J43171D01*
G01*
X6175271Y-10611570D02*
G75*
G02*
X6245548Y-10676428I25226J-43170D01*
G01*
X6240600Y-10698116D02*
G75*
G02*
X6245548Y-10676428I49999J0D01*
G01*
X6245548Y-10860372D02*
G75*
G02*
X6175271Y-10925230I-45051J-21688D01*
G01*
X6245548Y-10860372D02*
G75*
G02*
X6240600Y-10838684I45051J21688D01*
G01*
X10663100Y-8933684D02*
X10663100Y-8793116D01*
X10753655Y-8713400D02*
X10912545Y-8713400D01*
X10912545Y-9013400D02*
X10753655Y-9013400D01*
X11003100Y-8793116D02*
X11003100Y-8933684D01*
X10658152Y-8771428D02*
G75*
G02*
X10663098Y-8793116I-45052J-21682D01*
G01*
X10658152Y-8771428D02*
G75*
G02*
X10728429Y-8706570I45051J21688D01*
G01*
X10663100Y-8933684D02*
G75*
G02*
X10658152Y-8955372I-50036J8D01*
G01*
X10728429Y-9020230D02*
G75*
G02*
X10658152Y-8955372I-25226J43170D01*
G01*
X10728429Y-9020230D02*
G75*
G02*
X10753655Y-9013400I25226J-43171D01*
G01*
X10753655Y-8713400D02*
G75*
G02*
X10728429Y-8706570I0J50001D01*
G01*
X10912545Y-9013400D02*
G75*
G02*
X10937771Y-9020230I0J-50001D01*
G01*
X10937771Y-8706570D02*
G75*
G02*
X10912545Y-8713400I-25226J43171D01*
G01*
X10937771Y-8706570D02*
G75*
G02*
X11008048Y-8771428I25226J-43170D01*
G01*
X11003100Y-8793116D02*
G75*
G02*
X11008048Y-8771428I49999J0D01*
G01*
X11008048Y-8955372D02*
G75*
G02*
X10937771Y-9020230I-45051J-21688D01*
G01*
X11008048Y-8955372D02*
G75*
G02*
X11003100Y-8933684I45051J21688D01*
G01*
X11615600Y-10838684D02*
X11615600Y-10698116D01*
X11706155Y-10618400D02*
X11865045Y-10618400D01*
X11865045Y-10918400D02*
X11706155Y-10918400D01*
X11955600Y-10698116D02*
X11955600Y-10838684D01*
X11610652Y-10676428D02*
G75*
G02*
X11615598Y-10698116I-45052J-21682D01*
G01*
X11610652Y-10676428D02*
G75*
G02*
X11680929Y-10611570I45051J21688D01*
G01*
X11615600Y-10838684D02*
G75*
G02*
X11610652Y-10860372I-50036J8D01*
G01*
X11680929Y-10925230D02*
G75*
G02*
X11610652Y-10860372I-25226J43170D01*
G01*
X11680929Y-10925230D02*
G75*
G02*
X11706155Y-10918400I25226J-43171D01*
G01*
X11706155Y-10618400D02*
G75*
G02*
X11680929Y-10611570I0J50001D01*
G01*
X11865045Y-10918400D02*
G75*
G02*
X11890271Y-10925230I0J-50001D01*
G01*
X11890271Y-10611570D02*
G75*
G02*
X11865045Y-10618400I-25226J43171D01*
G01*
X11890271Y-10611570D02*
G75*
G02*
X11960548Y-10676428I25226J-43170D01*
G01*
X11955600Y-10698116D02*
G75*
G02*
X11960548Y-10676428I49999J0D01*
G01*
X11960548Y-10860372D02*
G75*
G02*
X11890271Y-10925230I-45051J-21688D01*
G01*
X11960548Y-10860372D02*
G75*
G02*
X11955600Y-10838684I45051J21688D01*
G01*
X9710600Y-14648684D02*
X9710600Y-14508116D01*
X9801155Y-14428400D02*
X9960045Y-14428400D01*
X9960045Y-14728400D02*
X9801155Y-14728400D01*
X10050600Y-14508116D02*
X10050600Y-14648684D01*
X9705652Y-14486428D02*
G75*
G02*
X9710598Y-14508116I-45052J-21682D01*
G01*
X9705652Y-14486428D02*
G75*
G02*
X9775929Y-14421570I45051J21688D01*
G01*
X9710600Y-14648684D02*
G75*
G02*
X9705652Y-14670372I-50036J8D01*
G01*
X9775929Y-14735230D02*
G75*
G02*
X9705652Y-14670372I-25226J43170D01*
G01*
X9775929Y-14735230D02*
G75*
G02*
X9801155Y-14728400I25226J-43171D01*
G01*
X9801155Y-14428400D02*
G75*
G02*
X9775929Y-14421570I0J50001D01*
G01*
X9960045Y-14728400D02*
G75*
G02*
X9985271Y-14735230I0J-50001D01*
G01*
X9985271Y-14421570D02*
G75*
G02*
X9960045Y-14428400I-25226J43171D01*
G01*
X9985271Y-14421570D02*
G75*
G02*
X10055548Y-14486428I25226J-43170D01*
G01*
X10050600Y-14508116D02*
G75*
G02*
X10055548Y-14486428I49999J0D01*
G01*
X10055548Y-14670372D02*
G75*
G02*
X9985271Y-14735230I-45051J-21688D01*
G01*
X10055548Y-14670372D02*
G75*
G02*
X10050600Y-14648684I45051J21688D01*
G01*
X7805600Y-12743684D02*
X7805600Y-12603116D01*
X7896155Y-12523400D02*
X8055045Y-12523400D01*
X8055045Y-12823400D02*
X7896155Y-12823400D01*
X8145600Y-12603116D02*
X8145600Y-12743684D01*
X7800652Y-12581428D02*
G75*
G02*
X7805598Y-12603116I-45052J-21682D01*
G01*
X7800652Y-12581428D02*
G75*
G02*
X7870929Y-12516570I45051J21688D01*
G01*
X7805600Y-12743684D02*
G75*
G02*
X7800652Y-12765372I-50036J8D01*
G01*
X7870929Y-12830230D02*
G75*
G02*
X7800652Y-12765372I-25226J43170D01*
G01*
X7870929Y-12830230D02*
G75*
G02*
X7896155Y-12823400I25226J-43171D01*
G01*
X7896155Y-12523400D02*
G75*
G02*
X7870929Y-12516570I0J50001D01*
G01*
X8055045Y-12823400D02*
G75*
G02*
X8080271Y-12830230I0J-50001D01*
G01*
X8080271Y-12516570D02*
G75*
G02*
X8055045Y-12523400I-25226J43171D01*
G01*
X8080271Y-12516570D02*
G75*
G02*
X8150548Y-12581428I25226J-43170D01*
G01*
X8145600Y-12603116D02*
G75*
G02*
X8150548Y-12581428I49999J0D01*
G01*
X8150548Y-12765372D02*
G75*
G02*
X8080271Y-12830230I-45051J-21688D01*
G01*
X8150548Y-12765372D02*
G75*
G02*
X8145600Y-12743684I45051J21688D01*
G01*
X9710600Y-12743684D02*
X9710600Y-12603116D01*
X9801155Y-12523400D02*
X9960045Y-12523400D01*
X9960045Y-12823400D02*
X9801155Y-12823400D01*
X10050600Y-12603116D02*
X10050600Y-12743684D01*
X9705652Y-12581428D02*
G75*
G02*
X9710598Y-12603116I-45052J-21682D01*
G01*
X9705652Y-12581428D02*
G75*
G02*
X9775929Y-12516570I45051J21688D01*
G01*
X9710600Y-12743684D02*
G75*
G02*
X9705652Y-12765372I-50036J8D01*
G01*
X9775929Y-12830230D02*
G75*
G02*
X9705652Y-12765372I-25226J43170D01*
G01*
X9775929Y-12830230D02*
G75*
G02*
X9801155Y-12823400I25226J-43171D01*
G01*
X9801155Y-12523400D02*
G75*
G02*
X9775929Y-12516570I0J50001D01*
G01*
X9960045Y-12823400D02*
G75*
G02*
X9985271Y-12830230I0J-50001D01*
G01*
X9985271Y-12516570D02*
G75*
G02*
X9960045Y-12523400I-25226J43171D01*
G01*
X9985271Y-12516570D02*
G75*
G02*
X10055548Y-12581428I25226J-43170D01*
G01*
X10050600Y-12603116D02*
G75*
G02*
X10055548Y-12581428I49999J0D01*
G01*
X10055548Y-12765372D02*
G75*
G02*
X9985271Y-12830230I-45051J-21688D01*
G01*
X10055548Y-12765372D02*
G75*
G02*
X10050600Y-12743684I45051J21688D01*
G01*
X19865520Y-8779944D02*
X19865520Y-8639376D01*
X19956075Y-8559660D02*
X20114965Y-8559660D01*
X20114965Y-8859660D02*
X19956075Y-8859660D01*
X20205520Y-8639376D02*
X20205520Y-8779944D01*
X19860572Y-8617688D02*
G75*
G02*
X19865518Y-8639376I-45052J-21682D01*
G01*
X19860572Y-8617688D02*
G75*
G02*
X19930849Y-8552830I45051J21688D01*
G01*
X19865520Y-8779944D02*
G75*
G02*
X19860572Y-8801632I-50036J8D01*
G01*
X19930849Y-8866490D02*
G75*
G02*
X19860572Y-8801632I-25226J43170D01*
G01*
X19930849Y-8866490D02*
G75*
G02*
X19956075Y-8859660I25226J-43171D01*
G01*
X19956075Y-8559660D02*
G75*
G02*
X19930849Y-8552830I0J50001D01*
G01*
X20114965Y-8859660D02*
G75*
G02*
X20140191Y-8866490I0J-50001D01*
G01*
X20140191Y-8552830D02*
G75*
G02*
X20114965Y-8559660I-25226J43171D01*
G01*
X20140191Y-8552830D02*
G75*
G02*
X20210468Y-8617688I25226J-43170D01*
G01*
X20205520Y-8639376D02*
G75*
G02*
X20210468Y-8617688I49999J0D01*
G01*
X20210468Y-8801632D02*
G75*
G02*
X20140191Y-8866490I-45051J-21688D01*
G01*
X20210468Y-8801632D02*
G75*
G02*
X20205520Y-8779944I45051J21688D01*
G01*
X7805600Y-14648684D02*
X7805600Y-14508116D01*
X7896155Y-14428400D02*
X8055045Y-14428400D01*
X8055045Y-14728400D02*
X7896155Y-14728400D01*
X8145600Y-14508116D02*
X8145600Y-14648684D01*
X7800652Y-14486428D02*
G75*
G02*
X7805598Y-14508116I-45052J-21682D01*
G01*
X7800652Y-14486428D02*
G75*
G02*
X7870929Y-14421570I45051J21688D01*
G01*
X7805600Y-14648684D02*
G75*
G02*
X7800652Y-14670372I-50036J8D01*
G01*
X7870929Y-14735230D02*
G75*
G02*
X7800652Y-14670372I-25226J43170D01*
G01*
X7870929Y-14735230D02*
G75*
G02*
X7896155Y-14728400I25226J-43171D01*
G01*
X7896155Y-14428400D02*
G75*
G02*
X7870929Y-14421570I0J50001D01*
G01*
X8055045Y-14728400D02*
G75*
G02*
X8080271Y-14735230I0J-50001D01*
G01*
X8080271Y-14421570D02*
G75*
G02*
X8055045Y-14428400I-25226J43171D01*
G01*
X8080271Y-14421570D02*
G75*
G02*
X8150548Y-14486428I25226J-43170D01*
G01*
X8145600Y-14508116D02*
G75*
G02*
X8150548Y-14486428I49999J0D01*
G01*
X8150548Y-14670372D02*
G75*
G02*
X8080271Y-14735230I-45051J-21688D01*
G01*
X8150548Y-14670372D02*
G75*
G02*
X8145600Y-14648684I45051J21688D01*
G01*
X5900600Y-16553684D02*
X5900600Y-16413116D01*
X5991155Y-16333400D02*
X6150045Y-16333400D01*
X6150045Y-16633400D02*
X5991155Y-16633400D01*
X6240600Y-16413116D02*
X6240600Y-16553684D01*
X5895652Y-16391428D02*
G75*
G02*
X5900598Y-16413116I-45052J-21682D01*
G01*
X5895652Y-16391428D02*
G75*
G02*
X5965929Y-16326570I45051J21688D01*
G01*
X5900600Y-16553684D02*
G75*
G02*
X5895652Y-16575372I-50036J8D01*
G01*
X5965929Y-16640230D02*
G75*
G02*
X5895652Y-16575372I-25226J43170D01*
G01*
X5965929Y-16640230D02*
G75*
G02*
X5991155Y-16633400I25226J-43171D01*
G01*
X5991155Y-16333400D02*
G75*
G02*
X5965929Y-16326570I0J50001D01*
G01*
X6150045Y-16633400D02*
G75*
G02*
X6175271Y-16640230I0J-50001D01*
G01*
X6175271Y-16326570D02*
G75*
G02*
X6150045Y-16333400I-25226J43171D01*
G01*
X6175271Y-16326570D02*
G75*
G02*
X6245548Y-16391428I25226J-43170D01*
G01*
X6240600Y-16413116D02*
G75*
G02*
X6245548Y-16391428I49999J0D01*
G01*
X6245548Y-16575372D02*
G75*
G02*
X6175271Y-16640230I-45051J-21688D01*
G01*
X6245548Y-16575372D02*
G75*
G02*
X6240600Y-16553684I45051J21688D01*
G01*
X21293000Y-6064684D02*
X21293000Y-5924116D01*
X21383555Y-5844400D02*
X21542445Y-5844400D01*
X21542445Y-6144400D02*
X21383555Y-6144400D01*
X21633000Y-5924116D02*
X21633000Y-6064684D01*
X21288052Y-5902428D02*
G75*
G02*
X21292998Y-5924116I-45052J-21682D01*
G01*
X21288052Y-5902428D02*
G75*
G02*
X21358329Y-5837570I45051J21688D01*
G01*
X21293000Y-6064684D02*
G75*
G02*
X21288052Y-6086372I-50036J8D01*
G01*
X21358329Y-6151230D02*
G75*
G02*
X21288052Y-6086372I-25226J43170D01*
G01*
X21358329Y-6151230D02*
G75*
G02*
X21383555Y-6144400I25226J-43171D01*
G01*
X21383555Y-5844400D02*
G75*
G02*
X21358329Y-5837570I0J50001D01*
G01*
X21542445Y-6144400D02*
G75*
G02*
X21567671Y-6151230I0J-50001D01*
G01*
X21567671Y-5837570D02*
G75*
G02*
X21542445Y-5844400I-25226J43171D01*
G01*
X21567671Y-5837570D02*
G75*
G02*
X21637948Y-5902428I25226J-43170D01*
G01*
X21633000Y-5924116D02*
G75*
G02*
X21637948Y-5902428I49999J0D01*
G01*
X21637948Y-6086372D02*
G75*
G02*
X21567671Y-6151230I-45051J-21688D01*
G01*
X21637948Y-6086372D02*
G75*
G02*
X21633000Y-6064684I45051J21688D01*
G01*
X11615600Y-14648684D02*
X11615600Y-14508116D01*
X11706155Y-14428400D02*
X11865045Y-14428400D01*
X11865045Y-14728400D02*
X11706155Y-14728400D01*
X11955600Y-14508116D02*
X11955600Y-14648684D01*
X11610652Y-14486428D02*
G75*
G02*
X11615598Y-14508116I-45052J-21682D01*
G01*
X11610652Y-14486428D02*
G75*
G02*
X11680929Y-14421570I45051J21688D01*
G01*
X11615600Y-14648684D02*
G75*
G02*
X11610652Y-14670372I-50036J8D01*
G01*
X11680929Y-14735230D02*
G75*
G02*
X11610652Y-14670372I-25226J43170D01*
G01*
X11680929Y-14735230D02*
G75*
G02*
X11706155Y-14728400I25226J-43171D01*
G01*
X11706155Y-14428400D02*
G75*
G02*
X11680929Y-14421570I0J50001D01*
G01*
X11865045Y-14728400D02*
G75*
G02*
X11890271Y-14735230I0J-50001D01*
G01*
X11890271Y-14421570D02*
G75*
G02*
X11865045Y-14428400I-25226J43171D01*
G01*
X11890271Y-14421570D02*
G75*
G02*
X11960548Y-14486428I25226J-43170D01*
G01*
X11955600Y-14508116D02*
G75*
G02*
X11960548Y-14486428I49999J0D01*
G01*
X11960548Y-14670372D02*
G75*
G02*
X11890271Y-14735230I-45051J-21688D01*
G01*
X11960548Y-14670372D02*
G75*
G02*
X11955600Y-14648684I45051J21688D01*
G01*
X9710600Y-10838684D02*
X9710600Y-10698116D01*
X9801155Y-10618400D02*
X9960045Y-10618400D01*
X9960045Y-10918400D02*
X9801155Y-10918400D01*
X10050600Y-10698116D02*
X10050600Y-10838684D01*
X9705652Y-10676428D02*
G75*
G02*
X9710598Y-10698116I-45052J-21682D01*
G01*
X9705652Y-10676428D02*
G75*
G02*
X9775929Y-10611570I45051J21688D01*
G01*
X9710600Y-10838684D02*
G75*
G02*
X9705652Y-10860372I-50036J8D01*
G01*
X9775929Y-10925230D02*
G75*
G02*
X9705652Y-10860372I-25226J43170D01*
G01*
X9775929Y-10925230D02*
G75*
G02*
X9801155Y-10918400I25226J-43171D01*
G01*
X9801155Y-10618400D02*
G75*
G02*
X9775929Y-10611570I0J50001D01*
G01*
X9960045Y-10918400D02*
G75*
G02*
X9985271Y-10925230I0J-50001D01*
G01*
X9985271Y-10611570D02*
G75*
G02*
X9960045Y-10618400I-25226J43171D01*
G01*
X9985271Y-10611570D02*
G75*
G02*
X10055548Y-10676428I25226J-43170D01*
G01*
X10050600Y-10698116D02*
G75*
G02*
X10055548Y-10676428I49999J0D01*
G01*
X10055548Y-10860372D02*
G75*
G02*
X9985271Y-10925230I-45051J-21688D01*
G01*
X10055548Y-10860372D02*
G75*
G02*
X10050600Y-10838684I45051J21688D01*
G01*
X11615600Y-12743684D02*
X11615600Y-12603116D01*
X11706155Y-12523400D02*
X11865045Y-12523400D01*
X11865045Y-12823400D02*
X11706155Y-12823400D01*
X11955600Y-12603116D02*
X11955600Y-12743684D01*
X11610652Y-12581428D02*
G75*
G02*
X11615598Y-12603116I-45052J-21682D01*
G01*
X11610652Y-12581428D02*
G75*
G02*
X11680929Y-12516570I45051J21688D01*
G01*
X11615600Y-12743684D02*
G75*
G02*
X11610652Y-12765372I-50036J8D01*
G01*
X11680929Y-12830230D02*
G75*
G02*
X11610652Y-12765372I-25226J43170D01*
G01*
X11680929Y-12830230D02*
G75*
G02*
X11706155Y-12823400I25226J-43171D01*
G01*
X11706155Y-12523400D02*
G75*
G02*
X11680929Y-12516570I0J50001D01*
G01*
X11865045Y-12823400D02*
G75*
G02*
X11890271Y-12830230I0J-50001D01*
G01*
X11890271Y-12516570D02*
G75*
G02*
X11865045Y-12523400I-25226J43171D01*
G01*
X11890271Y-12516570D02*
G75*
G02*
X11960548Y-12581428I25226J-43170D01*
G01*
X11955600Y-12603116D02*
G75*
G02*
X11960548Y-12581428I49999J0D01*
G01*
X11960548Y-12765372D02*
G75*
G02*
X11890271Y-12830230I-45051J-21688D01*
G01*
X11960548Y-12765372D02*
G75*
G02*
X11955600Y-12743684I45051J21688D01*
G01*
X18435500Y-6064684D02*
X18435500Y-5924116D01*
X18526055Y-5844400D02*
X18684945Y-5844400D01*
X18684945Y-6144400D02*
X18526055Y-6144400D01*
X18775500Y-5924116D02*
X18775500Y-6064684D01*
X18430552Y-5902428D02*
G75*
G02*
X18435498Y-5924116I-45052J-21682D01*
G01*
X18430552Y-5902428D02*
G75*
G02*
X18500829Y-5837570I45051J21688D01*
G01*
X18435500Y-6064684D02*
G75*
G02*
X18430552Y-6086372I-50036J8D01*
G01*
X18500829Y-6151230D02*
G75*
G02*
X18430552Y-6086372I-25226J43170D01*
G01*
X18500829Y-6151230D02*
G75*
G02*
X18526055Y-6144400I25226J-43171D01*
G01*
X18526055Y-5844400D02*
G75*
G02*
X18500829Y-5837570I0J50001D01*
G01*
X18684945Y-6144400D02*
G75*
G02*
X18710171Y-6151230I0J-50001D01*
G01*
X18710171Y-5837570D02*
G75*
G02*
X18684945Y-5844400I-25226J43171D01*
G01*
X18710171Y-5837570D02*
G75*
G02*
X18780448Y-5902428I25226J-43170D01*
G01*
X18775500Y-5924116D02*
G75*
G02*
X18780448Y-5902428I49999J0D01*
G01*
X18780448Y-6086372D02*
G75*
G02*
X18710171Y-6151230I-45051J-21688D01*
G01*
X18780448Y-6086372D02*
G75*
G02*
X18775500Y-6064684I45051J21688D01*
G01*
X5900600Y-14648684D02*
X5900600Y-14508116D01*
X5991155Y-14428400D02*
X6150045Y-14428400D01*
X6150045Y-14728400D02*
X5991155Y-14728400D01*
X6240600Y-14508116D02*
X6240600Y-14648684D01*
X5895652Y-14486428D02*
G75*
G02*
X5900598Y-14508116I-45052J-21682D01*
G01*
X5895652Y-14486428D02*
G75*
G02*
X5965929Y-14421570I45051J21688D01*
G01*
X5900600Y-14648684D02*
G75*
G02*
X5895652Y-14670372I-50036J8D01*
G01*
X5965929Y-14735230D02*
G75*
G02*
X5895652Y-14670372I-25226J43170D01*
G01*
X5965929Y-14735230D02*
G75*
G02*
X5991155Y-14728400I25226J-43171D01*
G01*
X5991155Y-14428400D02*
G75*
G02*
X5965929Y-14421570I0J50001D01*
G01*
X6150045Y-14728400D02*
G75*
G02*
X6175271Y-14735230I0J-50001D01*
G01*
X6175271Y-14421570D02*
G75*
G02*
X6150045Y-14428400I-25226J43171D01*
G01*
X6175271Y-14421570D02*
G75*
G02*
X6245548Y-14486428I25226J-43170D01*
G01*
X6240600Y-14508116D02*
G75*
G02*
X6245548Y-14486428I49999J0D01*
G01*
X6245548Y-14670372D02*
G75*
G02*
X6175271Y-14735230I-45051J-21688D01*
G01*
X6245548Y-14670372D02*
G75*
G02*
X6240600Y-14648684I45051J21688D01*
G01*
D10*
D11*
X15070900Y-4560800D02*
X15135900Y-4625800D01*
X15135900Y-4560800D02*
X15070900Y-4625800D01*
X15648900Y-4560800D02*
X15713900Y-4625800D01*
X15713900Y-4560800D02*
X15648900Y-4625800D01*
X14294300Y-4267200D02*
G75*
G02*
X14209300Y-4267200I-42500J0D01*
G01*
X14209300Y-4267200D02*
G75*
G02*
X14294300Y-4267200I42500J0D01*
G01*
X14594300Y-4267200D02*
G75*
G02*
X14509300Y-4267200I-42500J0D01*
G01*
X14509300Y-4267200D02*
G75*
G02*
X14594300Y-4267200I42500J0D01*
G01*
D12*
X12905000Y-6540000D02*
X12905000Y-6690000D01*
X12830000Y-6615000D02*
X12980000Y-6615000D01*
X12905000Y-6910000D02*
X12905000Y-7060000D01*
X12830000Y-6985000D02*
X12980000Y-6985000D01*
D13*
X5624472Y-10322272D02*
X5624472Y-10198528D01*
X5500728Y-10198528D01*
X5500728Y-10322272D01*
X5624472Y-10322272D01*
X5624472Y-12227272D02*
X5624472Y-12103528D01*
X5500728Y-12103528D01*
X5500728Y-12227272D01*
X5624472Y-12227272D01*
X5624472Y-14132272D02*
X5624472Y-14008528D01*
X5500728Y-14008528D01*
X5500728Y-14132272D01*
X5624472Y-14132272D01*
X5624472Y-16037272D02*
X5624472Y-15913528D01*
X5500728Y-15913528D01*
X5500728Y-16037272D01*
X5624472Y-16037272D01*
X6576972Y-8417272D02*
X6576972Y-8293528D01*
X6453228Y-8293528D01*
X6453228Y-8417272D01*
X6576972Y-8417272D01*
X6640472Y-10322272D02*
X6640472Y-10198528D01*
X6516728Y-10198528D01*
X6516728Y-10322272D01*
X6640472Y-10322272D01*
X6640472Y-12227272D02*
X6640472Y-12103528D01*
X6516728Y-12103528D01*
X6516728Y-12227272D01*
X6640472Y-12227272D01*
X6640472Y-14132272D02*
X6640472Y-14008528D01*
X6516728Y-14008528D01*
X6516728Y-14132272D01*
X6640472Y-14132272D01*
X6640472Y-16037272D02*
X6640472Y-15913528D01*
X6516728Y-15913528D01*
X6516728Y-16037272D01*
X6640472Y-16037272D01*
X7529472Y-10322272D02*
X7529472Y-10198528D01*
X7405728Y-10198528D01*
X7405728Y-10322272D01*
X7529472Y-10322272D01*
X7529472Y-12227272D02*
X7529472Y-12103528D01*
X7405728Y-12103528D01*
X7405728Y-12227272D01*
X7529472Y-12227272D01*
X7529472Y-14132272D02*
X7529472Y-14008528D01*
X7405728Y-14008528D01*
X7405728Y-14132272D01*
X7529472Y-14132272D01*
X7592972Y-8417272D02*
X7592972Y-8293528D01*
X7469228Y-8293528D01*
X7469228Y-8417272D01*
X7592972Y-8417272D01*
X8545472Y-10322272D02*
X8545472Y-10198528D01*
X8421728Y-10198528D01*
X8421728Y-10322272D01*
X8545472Y-10322272D01*
X8545472Y-12227272D02*
X8545472Y-12103528D01*
X8421728Y-12103528D01*
X8421728Y-12227272D01*
X8545472Y-12227272D01*
X8545472Y-14132272D02*
X8545472Y-14008528D01*
X8421728Y-14008528D01*
X8421728Y-14132272D01*
X8545472Y-14132272D01*
X9434472Y-10322272D02*
X9434472Y-10198528D01*
X9310728Y-10198528D01*
X9310728Y-10322272D01*
X9434472Y-10322272D01*
X9434472Y-12227272D02*
X9434472Y-12103528D01*
X9310728Y-12103528D01*
X9310728Y-12227272D01*
X9434472Y-12227272D01*
X9434472Y-14132272D02*
X9434472Y-14008528D01*
X9310728Y-14008528D01*
X9310728Y-14132272D01*
X9434472Y-14132272D01*
X9434472Y-16037272D02*
X9434472Y-15913528D01*
X9310728Y-15913528D01*
X9310728Y-16037272D01*
X9434472Y-16037272D01*
X10386972Y-8417272D02*
X10386972Y-8293528D01*
X10263228Y-8293528D01*
X10263228Y-8417272D01*
X10386972Y-8417272D01*
X10450472Y-10322272D02*
X10450472Y-10198528D01*
X10326728Y-10198528D01*
X10326728Y-10322272D01*
X10450472Y-10322272D01*
X10450472Y-12227272D02*
X10450472Y-12103528D01*
X10326728Y-12103528D01*
X10326728Y-12227272D01*
X10450472Y-12227272D01*
X10450472Y-14132272D02*
X10450472Y-14008528D01*
X10326728Y-14008528D01*
X10326728Y-14132272D01*
X10450472Y-14132272D01*
X10450472Y-16037272D02*
X10450472Y-15913528D01*
X10326728Y-15913528D01*
X10326728Y-16037272D01*
X10450472Y-16037272D01*
X11339472Y-10322272D02*
X11339472Y-10198528D01*
X11215728Y-10198528D01*
X11215728Y-10322272D01*
X11339472Y-10322272D01*
X11339472Y-12227272D02*
X11339472Y-12103528D01*
X11215728Y-12103528D01*
X11215728Y-12227272D01*
X11339472Y-12227272D01*
X11339472Y-14132272D02*
X11339472Y-14008528D01*
X11215728Y-14008528D01*
X11215728Y-14132272D01*
X11339472Y-14132272D01*
X11402972Y-8417272D02*
X11402972Y-8293528D01*
X11279228Y-8293528D01*
X11279228Y-8417272D01*
X11402972Y-8417272D01*
X12355472Y-10322272D02*
X12355472Y-10198528D01*
X12231728Y-10198528D01*
X12231728Y-10322272D01*
X12355472Y-10322272D01*
X12355472Y-12227272D02*
X12355472Y-12103528D01*
X12231728Y-12103528D01*
X12231728Y-12227272D01*
X12355472Y-12227272D01*
X12355472Y-14132272D02*
X12355472Y-14008528D01*
X12231728Y-14008528D01*
X12231728Y-14132272D01*
X12355472Y-14132272D01*
X17684392Y-8264272D02*
X17684392Y-8140528D01*
X17560648Y-8140528D01*
X17560648Y-8264272D01*
X17684392Y-8264272D01*
X18159372Y-5548272D02*
X18159372Y-5424528D01*
X18035628Y-5424528D01*
X18035628Y-5548272D01*
X18159372Y-5548272D01*
X18700392Y-8264272D02*
X18700392Y-8140528D01*
X18576648Y-8140528D01*
X18576648Y-8264272D01*
X18700392Y-8264272D01*
X19175372Y-5548272D02*
X19175372Y-5424528D01*
X19051628Y-5424528D01*
X19051628Y-5548272D01*
X19175372Y-5548272D01*
X19589392Y-8264272D02*
X19589392Y-8140528D01*
X19465648Y-8140528D01*
X19465648Y-8264272D01*
X19589392Y-8264272D01*
X20605392Y-8264272D02*
X20605392Y-8140528D01*
X20481648Y-8140528D01*
X20481648Y-8264272D01*
X20605392Y-8264272D01*
X21016872Y-5548272D02*
X21016872Y-5424528D01*
X20893128Y-5424528D01*
X20893128Y-5548272D01*
X21016872Y-5548272D01*
X21494392Y-8264272D02*
X21494392Y-8140528D01*
X21370648Y-8140528D01*
X21370648Y-8264272D01*
X21494392Y-8264272D01*
X22032872Y-5548272D02*
X22032872Y-5424528D01*
X21909128Y-5424528D01*
X21909128Y-5548272D01*
X22032872Y-5548272D01*
X22510392Y-8264272D02*
X22510392Y-8140528D01*
X22386648Y-8140528D01*
X22386648Y-8264272D01*
X22510392Y-8264272D01*
D14*
X5832475Y-7809300D02*
X5984875Y-7656900D01*
X5832475Y-7504500D01*
X5680075Y-7656900D01*
X5832475Y-7809300D01*
X7975600Y-15429300D02*
X8128000Y-15276900D01*
X7975600Y-15124500D01*
X7823200Y-15276900D01*
X7975600Y-15429300D01*
X8213725Y-7809300D02*
X8366125Y-7656900D01*
X8213725Y-7504500D01*
X8061325Y-7656900D01*
X8213725Y-7809300D01*
X9642475Y-7809300D02*
X9794875Y-7656900D01*
X9642475Y-7504500D01*
X9490075Y-7656900D01*
X9642475Y-7809300D01*
X11785600Y-15429300D02*
X11938000Y-15276900D01*
X11785600Y-15124500D01*
X11633200Y-15276900D01*
X11785600Y-15429300D01*
X12023725Y-7809300D02*
X12176125Y-7656900D01*
X12023725Y-7504500D01*
X11871325Y-7656900D01*
X12023725Y-7809300D01*
D15*
X5633085Y-8981510D02*
X6031865Y-9380290D01*
X6031865Y-8981510D02*
X5633085Y-9380290D01*
X6031865Y-9180900D02*
G75*
G02*
X5633085Y-9180900I-199390J0D01*
G01*
X5633085Y-9180900D02*
G75*
G02*
X6031865Y-9180900I199390J0D01*
G01*
X7776210Y-16601510D02*
X8174990Y-17000290D01*
X8174990Y-16601510D02*
X7776210Y-17000290D01*
X8174990Y-16800900D02*
G75*
G02*
X7776210Y-16800900I-199390J0D01*
G01*
X7776210Y-16800900D02*
G75*
G02*
X8174990Y-16800900I199390J0D01*
G01*
X8014335Y-8981510D02*
X8413115Y-9380290D01*
X8413115Y-8981510D02*
X8014335Y-9380290D01*
X8413115Y-9180900D02*
G75*
G02*
X8014335Y-9180900I-199390J0D01*
G01*
X8014335Y-9180900D02*
G75*
G02*
X8413115Y-9180900I199390J0D01*
G01*
X9443085Y-8981510D02*
X9841865Y-9380290D01*
X9841865Y-8981510D02*
X9443085Y-9380290D01*
X9841865Y-9180900D02*
G75*
G02*
X9443085Y-9180900I-199390J0D01*
G01*
X9443085Y-9180900D02*
G75*
G02*
X9841865Y-9180900I199390J0D01*
G01*
X11586210Y-16601510D02*
X11984990Y-17000290D01*
X11984990Y-16601510D02*
X11586210Y-17000290D01*
X11984990Y-16800900D02*
G75*
G02*
X11586210Y-16800900I-199390J0D01*
G01*
X11586210Y-16800900D02*
G75*
G02*
X11984990Y-16800900I199390J0D01*
G01*
X11824335Y-8981510D02*
X12223115Y-9380290D01*
X12223115Y-8981510D02*
X11824335Y-9380290D01*
X12223115Y-9180900D02*
G75*
G02*
X11824335Y-9180900I-199390J0D01*
G01*
X11824335Y-9180900D02*
G75*
G02*
X12223115Y-9180900I199390J0D01*
G01*
D16*
X5870600Y-10060400D02*
X6270600Y-10460400D01*
X6270600Y-10060400D02*
X5870600Y-10460400D01*
X6070600Y-10060400D02*
X6070600Y-10460400D01*
X5870600Y-10260400D02*
X6270600Y-10260400D01*
X5870600Y-11965400D02*
X6270600Y-12365400D01*
X6270600Y-11965400D02*
X5870600Y-12365400D01*
X6070600Y-11965400D02*
X6070600Y-12365400D01*
X5870600Y-12165400D02*
X6270600Y-12165400D01*
X5870600Y-13870400D02*
X6270600Y-14270400D01*
X6270600Y-13870400D02*
X5870600Y-14270400D01*
X6070600Y-13870400D02*
X6070600Y-14270400D01*
X5870600Y-14070400D02*
X6270600Y-14070400D01*
X5870600Y-15775400D02*
X6270600Y-16175400D01*
X6270600Y-15775400D02*
X5870600Y-16175400D01*
X6070600Y-15775400D02*
X6070600Y-16175400D01*
X5870600Y-15975400D02*
X6270600Y-15975400D01*
X6823100Y-8155400D02*
X7223100Y-8555400D01*
X7223100Y-8155400D02*
X6823100Y-8555400D01*
X7023100Y-8155400D02*
X7023100Y-8555400D01*
X6823100Y-8355400D02*
X7223100Y-8355400D01*
X7775600Y-10060400D02*
X8175600Y-10460400D01*
X8175600Y-10060400D02*
X7775600Y-10460400D01*
X7975600Y-10060400D02*
X7975600Y-10460400D01*
X7775600Y-10260400D02*
X8175600Y-10260400D01*
X7775600Y-11965400D02*
X8175600Y-12365400D01*
X8175600Y-11965400D02*
X7775600Y-12365400D01*
X7975600Y-11965400D02*
X7975600Y-12365400D01*
X7775600Y-12165400D02*
X8175600Y-12165400D01*
X7775600Y-13870400D02*
X8175600Y-14270400D01*
X8175600Y-13870400D02*
X7775600Y-14270400D01*
X7975600Y-13870400D02*
X7975600Y-14270400D01*
X7775600Y-14070400D02*
X8175600Y-14070400D01*
X9680600Y-10060400D02*
X10080600Y-10460400D01*
X10080600Y-10060400D02*
X9680600Y-10460400D01*
X9880600Y-10060400D02*
X9880600Y-10460400D01*
X9680600Y-10260400D02*
X10080600Y-10260400D01*
X9680600Y-11965400D02*
X10080600Y-12365400D01*
X10080600Y-11965400D02*
X9680600Y-12365400D01*
X9880600Y-11965400D02*
X9880600Y-12365400D01*
X9680600Y-12165400D02*
X10080600Y-12165400D01*
X9680600Y-13870400D02*
X10080600Y-14270400D01*
X10080600Y-13870400D02*
X9680600Y-14270400D01*
X9880600Y-13870400D02*
X9880600Y-14270400D01*
X9680600Y-14070400D02*
X10080600Y-14070400D01*
X9680600Y-15775400D02*
X10080600Y-16175400D01*
X10080600Y-15775400D02*
X9680600Y-16175400D01*
X9880600Y-15775400D02*
X9880600Y-16175400D01*
X9680600Y-15975400D02*
X10080600Y-15975400D01*
X10633100Y-8155400D02*
X11033100Y-8555400D01*
X11033100Y-8155400D02*
X10633100Y-8555400D01*
X10833100Y-8155400D02*
X10833100Y-8555400D01*
X10633100Y-8355400D02*
X11033100Y-8355400D01*
X11585600Y-10060400D02*
X11985600Y-10460400D01*
X11985600Y-10060400D02*
X11585600Y-10460400D01*
X11785600Y-10060400D02*
X11785600Y-10460400D01*
X11585600Y-10260400D02*
X11985600Y-10260400D01*
X11585600Y-11965400D02*
X11985600Y-12365400D01*
X11985600Y-11965400D02*
X11585600Y-12365400D01*
X11785600Y-11965400D02*
X11785600Y-12365400D01*
X11585600Y-12165400D02*
X11985600Y-12165400D01*
X11585600Y-13870400D02*
X11985600Y-14270400D01*
X11985600Y-13870400D02*
X11585600Y-14270400D01*
X11785600Y-13870400D02*
X11785600Y-14270400D01*
X11585600Y-14070400D02*
X11985600Y-14070400D01*
X17930520Y-8002400D02*
X18330520Y-8402400D01*
X18330520Y-8002400D02*
X17930520Y-8402400D01*
X18130520Y-8002400D02*
X18130520Y-8402400D01*
X17930520Y-8202400D02*
X18330520Y-8202400D01*
X18405500Y-5286400D02*
X18805500Y-5686400D01*
X18805500Y-5286400D02*
X18405500Y-5686400D01*
X18605500Y-5286400D02*
X18605500Y-5686400D01*
X18405500Y-5486400D02*
X18805500Y-5486400D01*
X19835520Y-8002400D02*
X20235520Y-8402400D01*
X20235520Y-8002400D02*
X19835520Y-8402400D01*
X20035520Y-8002400D02*
X20035520Y-8402400D01*
X19835520Y-8202400D02*
X20235520Y-8202400D01*
X21263000Y-5286400D02*
X21663000Y-5686400D01*
X21663000Y-5286400D02*
X21263000Y-5686400D01*
X21463000Y-5286400D02*
X21463000Y-5686400D01*
X21263000Y-5486400D02*
X21663000Y-5486400D01*
X21740520Y-8002400D02*
X22140520Y-8402400D01*
X22140520Y-8002400D02*
X21740520Y-8402400D01*
X21940520Y-8002400D02*
X21940520Y-8402400D01*
X21740520Y-8202400D02*
X22140520Y-8202400D01*
D10*
X5114877Y-17501078D02*
X5114877Y-17301078D01*
X5114877Y-17301078D02*
X5162496Y-17301078D01*
X5162496Y-17301078D02*
X5191067Y-17310602D01*
X5191067Y-17310602D02*
X5210115Y-17329650D01*
X5210115Y-17329650D02*
X5219639Y-17348697D01*
X5219639Y-17348697D02*
X5229163Y-17386793D01*
X5229163Y-17386793D02*
X5229163Y-17415364D01*
X5229163Y-17415364D02*
X5219639Y-17453459D01*
X5219639Y-17453459D02*
X5210115Y-17472507D01*
X5210115Y-17472507D02*
X5191067Y-17491555D01*
X5191067Y-17491555D02*
X5162496Y-17501078D01*
X5162496Y-17501078D02*
X5114877Y-17501078D01*
X5314877Y-17501078D02*
X5314877Y-17367745D01*
X5314877Y-17405840D02*
X5324401Y-17386793D01*
X5324401Y-17386793D02*
X5333924Y-17377269D01*
X5333924Y-17377269D02*
X5352972Y-17367745D01*
X5352972Y-17367745D02*
X5372020Y-17367745D01*
X5438686Y-17501078D02*
X5438686Y-17367745D01*
X5438686Y-17301078D02*
X5429163Y-17310602D01*
X5429163Y-17310602D02*
X5438686Y-17320126D01*
X5438686Y-17320126D02*
X5448210Y-17310602D01*
X5448210Y-17310602D02*
X5438686Y-17301078D01*
X5438686Y-17301078D02*
X5438686Y-17320126D01*
X5562496Y-17501078D02*
X5543448Y-17491555D01*
X5543448Y-17491555D02*
X5533924Y-17472507D01*
X5533924Y-17472507D02*
X5533924Y-17301078D01*
X5667258Y-17501078D02*
X5648210Y-17491555D01*
X5648210Y-17491555D02*
X5638686Y-17472507D01*
X5638686Y-17472507D02*
X5638686Y-17301078D01*
X5895829Y-17501078D02*
X5895829Y-17301078D01*
X5895829Y-17301078D02*
X5962496Y-17443936D01*
X5962496Y-17443936D02*
X6029162Y-17301078D01*
X6029162Y-17301078D02*
X6029162Y-17501078D01*
X6210115Y-17501078D02*
X6210115Y-17396317D01*
X6210115Y-17396317D02*
X6200591Y-17377269D01*
X6200591Y-17377269D02*
X6181543Y-17367745D01*
X6181543Y-17367745D02*
X6143448Y-17367745D01*
X6143448Y-17367745D02*
X6124401Y-17377269D01*
X6210115Y-17491555D02*
X6191067Y-17501078D01*
X6191067Y-17501078D02*
X6143448Y-17501078D01*
X6143448Y-17501078D02*
X6124401Y-17491555D01*
X6124401Y-17491555D02*
X6114877Y-17472507D01*
X6114877Y-17472507D02*
X6114877Y-17453459D01*
X6114877Y-17453459D02*
X6124401Y-17434412D01*
X6124401Y-17434412D02*
X6143448Y-17424888D01*
X6143448Y-17424888D02*
X6191067Y-17424888D01*
X6191067Y-17424888D02*
X6210115Y-17415364D01*
X6305353Y-17367745D02*
X6305353Y-17567745D01*
X6305353Y-17377269D02*
X6324401Y-17367745D01*
X6324401Y-17367745D02*
X6362496Y-17367745D01*
X6362496Y-17367745D02*
X6381543Y-17377269D01*
X6381543Y-17377269D02*
X6391067Y-17386793D01*
X6391067Y-17386793D02*
X6400591Y-17405840D01*
X6400591Y-17405840D02*
X6400591Y-17462983D01*
X6400591Y-17462983D02*
X6391067Y-17482031D01*
X6391067Y-17482031D02*
X6381543Y-17491555D01*
X6381543Y-17491555D02*
X6362496Y-17501078D01*
X6362496Y-17501078D02*
X6324401Y-17501078D01*
X6324401Y-17501078D02*
X6305353Y-17491555D01*
X6486305Y-17482031D02*
X6495829Y-17491555D01*
X6495829Y-17491555D02*
X6486305Y-17501078D01*
X6486305Y-17501078D02*
X6476782Y-17491555D01*
X6476782Y-17491555D02*
X6486305Y-17482031D01*
X6486305Y-17482031D02*
X6486305Y-17501078D01*
X6486305Y-17377269D02*
X6495829Y-17386793D01*
X6495829Y-17386793D02*
X6486305Y-17396317D01*
X6486305Y-17396317D02*
X6476782Y-17386793D01*
X6476782Y-17386793D02*
X6486305Y-17377269D01*
X6486305Y-17377269D02*
X6486305Y-17396317D01*
D11*
X4789100Y-17797095D02*
X4854100Y-17862095D01*
X4854100Y-17797095D02*
X4789100Y-17862095D01*
D10*
X5152972Y-17721078D02*
X5172020Y-17721078D01*
X5172020Y-17721078D02*
X5191067Y-17730602D01*
X5191067Y-17730602D02*
X5200591Y-17740126D01*
X5200591Y-17740126D02*
X5210115Y-17759174D01*
X5210115Y-17759174D02*
X5219639Y-17797269D01*
X5219639Y-17797269D02*
X5219639Y-17844888D01*
X5219639Y-17844888D02*
X5210115Y-17882983D01*
X5210115Y-17882983D02*
X5200591Y-17902031D01*
X5200591Y-17902031D02*
X5191067Y-17911555D01*
X5191067Y-17911555D02*
X5172020Y-17921078D01*
X5172020Y-17921078D02*
X5152972Y-17921078D01*
X5152972Y-17921078D02*
X5133924Y-17911555D01*
X5133924Y-17911555D02*
X5124401Y-17902031D01*
X5124401Y-17902031D02*
X5114877Y-17882983D01*
X5114877Y-17882983D02*
X5105353Y-17844888D01*
X5105353Y-17844888D02*
X5105353Y-17797269D01*
X5105353Y-17797269D02*
X5114877Y-17759174D01*
X5114877Y-17759174D02*
X5124401Y-17740126D01*
X5124401Y-17740126D02*
X5133924Y-17730602D01*
X5133924Y-17730602D02*
X5152972Y-17721078D01*
X5305353Y-17902031D02*
X5314877Y-17911555D01*
X5314877Y-17911555D02*
X5305353Y-17921078D01*
X5305353Y-17921078D02*
X5295829Y-17911555D01*
X5295829Y-17911555D02*
X5305353Y-17902031D01*
X5305353Y-17902031D02*
X5305353Y-17921078D01*
X5486305Y-17721078D02*
X5448210Y-17721078D01*
X5448210Y-17721078D02*
X5429163Y-17730602D01*
X5429163Y-17730602D02*
X5419639Y-17740126D01*
X5419639Y-17740126D02*
X5400591Y-17768697D01*
X5400591Y-17768697D02*
X5391067Y-17806793D01*
X5391067Y-17806793D02*
X5391067Y-17882983D01*
X5391067Y-17882983D02*
X5400591Y-17902031D01*
X5400591Y-17902031D02*
X5410115Y-17911555D01*
X5410115Y-17911555D02*
X5429163Y-17921078D01*
X5429163Y-17921078D02*
X5467258Y-17921078D01*
X5467258Y-17921078D02*
X5486305Y-17911555D01*
X5486305Y-17911555D02*
X5495829Y-17902031D01*
X5495829Y-17902031D02*
X5505353Y-17882983D01*
X5505353Y-17882983D02*
X5505353Y-17835364D01*
X5505353Y-17835364D02*
X5495829Y-17816317D01*
X5495829Y-17816317D02*
X5486305Y-17806793D01*
X5486305Y-17806793D02*
X5467258Y-17797269D01*
X5467258Y-17797269D02*
X5429163Y-17797269D01*
X5429163Y-17797269D02*
X5410115Y-17806793D01*
X5410115Y-17806793D02*
X5400591Y-17816317D01*
X5400591Y-17816317D02*
X5391067Y-17835364D01*
X5686305Y-17721078D02*
X5591067Y-17721078D01*
X5591067Y-17721078D02*
X5581544Y-17816317D01*
X5581544Y-17816317D02*
X5591067Y-17806793D01*
X5591067Y-17806793D02*
X5610115Y-17797269D01*
X5610115Y-17797269D02*
X5657734Y-17797269D01*
X5657734Y-17797269D02*
X5676782Y-17806793D01*
X5676782Y-17806793D02*
X5686305Y-17816317D01*
X5686305Y-17816317D02*
X5695829Y-17835364D01*
X5695829Y-17835364D02*
X5695829Y-17882983D01*
X5695829Y-17882983D02*
X5686305Y-17902031D01*
X5686305Y-17902031D02*
X5676782Y-17911555D01*
X5676782Y-17911555D02*
X5657734Y-17921078D01*
X5657734Y-17921078D02*
X5610115Y-17921078D01*
X5610115Y-17921078D02*
X5591067Y-17911555D01*
X5591067Y-17911555D02*
X5581544Y-17902031D01*
X5819639Y-17721078D02*
X5838686Y-17721078D01*
X5838686Y-17721078D02*
X5857734Y-17730602D01*
X5857734Y-17730602D02*
X5867258Y-17740126D01*
X5867258Y-17740126D02*
X5876782Y-17759174D01*
X5876782Y-17759174D02*
X5886305Y-17797269D01*
X5886305Y-17797269D02*
X5886305Y-17844888D01*
X5886305Y-17844888D02*
X5876782Y-17882983D01*
X5876782Y-17882983D02*
X5867258Y-17902031D01*
X5867258Y-17902031D02*
X5857734Y-17911555D01*
X5857734Y-17911555D02*
X5838686Y-17921078D01*
X5838686Y-17921078D02*
X5819639Y-17921078D01*
X5819639Y-17921078D02*
X5800591Y-17911555D01*
X5800591Y-17911555D02*
X5791067Y-17902031D01*
X5791067Y-17902031D02*
X5781543Y-17882983D01*
X5781543Y-17882983D02*
X5772020Y-17844888D01*
X5772020Y-17844888D02*
X5772020Y-17797269D01*
X5772020Y-17797269D02*
X5781543Y-17759174D01*
X5781543Y-17759174D02*
X5791067Y-17740126D01*
X5791067Y-17740126D02*
X5800591Y-17730602D01*
X5800591Y-17730602D02*
X5819639Y-17721078D01*
X5972020Y-17921078D02*
X5972020Y-17787745D01*
X5972020Y-17806793D02*
X5981543Y-17797269D01*
X5981543Y-17797269D02*
X6000591Y-17787745D01*
X6000591Y-17787745D02*
X6029163Y-17787745D01*
X6029163Y-17787745D02*
X6048210Y-17797269D01*
X6048210Y-17797269D02*
X6057734Y-17816317D01*
X6057734Y-17816317D02*
X6057734Y-17921078D01*
X6057734Y-17816317D02*
X6067258Y-17797269D01*
X6067258Y-17797269D02*
X6086305Y-17787745D01*
X6086305Y-17787745D02*
X6114877Y-17787745D01*
X6114877Y-17787745D02*
X6133924Y-17797269D01*
X6133924Y-17797269D02*
X6143448Y-17816317D01*
X6143448Y-17816317D02*
X6143448Y-17921078D01*
X6238686Y-17921078D02*
X6238686Y-17787745D01*
X6238686Y-17806793D02*
X6248210Y-17797269D01*
X6248210Y-17797269D02*
X6267258Y-17787745D01*
X6267258Y-17787745D02*
X6295829Y-17787745D01*
X6295829Y-17787745D02*
X6314877Y-17797269D01*
X6314877Y-17797269D02*
X6324401Y-17816317D01*
X6324401Y-17816317D02*
X6324401Y-17921078D01*
X6324401Y-17816317D02*
X6333924Y-17797269D01*
X6333924Y-17797269D02*
X6352972Y-17787745D01*
X6352972Y-17787745D02*
X6381543Y-17787745D01*
X6381543Y-17787745D02*
X6400591Y-17797269D01*
X6400591Y-17797269D02*
X6410115Y-17816317D01*
X6410115Y-17816317D02*
X6410115Y-17921078D01*
X6800591Y-17711555D02*
X6629163Y-17968697D01*
X7057734Y-17721078D02*
X7076782Y-17721078D01*
X7076782Y-17721078D02*
X7095829Y-17730602D01*
X7095829Y-17730602D02*
X7105353Y-17740126D01*
X7105353Y-17740126D02*
X7114877Y-17759174D01*
X7114877Y-17759174D02*
X7124401Y-17797269D01*
X7124401Y-17797269D02*
X7124401Y-17844888D01*
X7124401Y-17844888D02*
X7114877Y-17882983D01*
X7114877Y-17882983D02*
X7105353Y-17902031D01*
X7105353Y-17902031D02*
X7095829Y-17911555D01*
X7095829Y-17911555D02*
X7076782Y-17921078D01*
X7076782Y-17921078D02*
X7057734Y-17921078D01*
X7057734Y-17921078D02*
X7038686Y-17911555D01*
X7038686Y-17911555D02*
X7029163Y-17902031D01*
X7029163Y-17902031D02*
X7019639Y-17882983D01*
X7019639Y-17882983D02*
X7010115Y-17844888D01*
X7010115Y-17844888D02*
X7010115Y-17797269D01*
X7010115Y-17797269D02*
X7019639Y-17759174D01*
X7019639Y-17759174D02*
X7029163Y-17740126D01*
X7029163Y-17740126D02*
X7038686Y-17730602D01*
X7038686Y-17730602D02*
X7057734Y-17721078D01*
X7210115Y-17902031D02*
X7219639Y-17911555D01*
X7219639Y-17911555D02*
X7210115Y-17921078D01*
X7210115Y-17921078D02*
X7200591Y-17911555D01*
X7200591Y-17911555D02*
X7210115Y-17902031D01*
X7210115Y-17902031D02*
X7210115Y-17921078D01*
X7343448Y-17721078D02*
X7362496Y-17721078D01*
X7362496Y-17721078D02*
X7381544Y-17730602D01*
X7381544Y-17730602D02*
X7391067Y-17740126D01*
X7391067Y-17740126D02*
X7400591Y-17759174D01*
X7400591Y-17759174D02*
X7410115Y-17797269D01*
X7410115Y-17797269D02*
X7410115Y-17844888D01*
X7410115Y-17844888D02*
X7400591Y-17882983D01*
X7400591Y-17882983D02*
X7391067Y-17902031D01*
X7391067Y-17902031D02*
X7381544Y-17911555D01*
X7381544Y-17911555D02*
X7362496Y-17921078D01*
X7362496Y-17921078D02*
X7343448Y-17921078D01*
X7343448Y-17921078D02*
X7324401Y-17911555D01*
X7324401Y-17911555D02*
X7314877Y-17902031D01*
X7314877Y-17902031D02*
X7305353Y-17882983D01*
X7305353Y-17882983D02*
X7295829Y-17844888D01*
X7295829Y-17844888D02*
X7295829Y-17797269D01*
X7295829Y-17797269D02*
X7305353Y-17759174D01*
X7305353Y-17759174D02*
X7314877Y-17740126D01*
X7314877Y-17740126D02*
X7324401Y-17730602D01*
X7324401Y-17730602D02*
X7343448Y-17721078D01*
X7486306Y-17740126D02*
X7495829Y-17730602D01*
X7495829Y-17730602D02*
X7514877Y-17721078D01*
X7514877Y-17721078D02*
X7562496Y-17721078D01*
X7562496Y-17721078D02*
X7581544Y-17730602D01*
X7581544Y-17730602D02*
X7591067Y-17740126D01*
X7591067Y-17740126D02*
X7600591Y-17759174D01*
X7600591Y-17759174D02*
X7600591Y-17778221D01*
X7600591Y-17778221D02*
X7591067Y-17806793D01*
X7591067Y-17806793D02*
X7476782Y-17921078D01*
X7476782Y-17921078D02*
X7600591Y-17921078D01*
X7781544Y-17721078D02*
X7686306Y-17721078D01*
X7686306Y-17721078D02*
X7676782Y-17816317D01*
X7676782Y-17816317D02*
X7686306Y-17806793D01*
X7686306Y-17806793D02*
X7705353Y-17797269D01*
X7705353Y-17797269D02*
X7752972Y-17797269D01*
X7752972Y-17797269D02*
X7772020Y-17806793D01*
X7772020Y-17806793D02*
X7781544Y-17816317D01*
X7781544Y-17816317D02*
X7791067Y-17835364D01*
X7791067Y-17835364D02*
X7791067Y-17882983D01*
X7791067Y-17882983D02*
X7781544Y-17902031D01*
X7781544Y-17902031D02*
X7772020Y-17911555D01*
X7772020Y-17911555D02*
X7752972Y-17921078D01*
X7752972Y-17921078D02*
X7705353Y-17921078D01*
X7705353Y-17921078D02*
X7686306Y-17911555D01*
X7686306Y-17911555D02*
X7676782Y-17902031D01*
X7962496Y-17721078D02*
X7924401Y-17721078D01*
X7924401Y-17721078D02*
X7905353Y-17730602D01*
X7905353Y-17730602D02*
X7895829Y-17740126D01*
X7895829Y-17740126D02*
X7876782Y-17768697D01*
X7876782Y-17768697D02*
X7867258Y-17806793D01*
X7867258Y-17806793D02*
X7867258Y-17882983D01*
X7867258Y-17882983D02*
X7876782Y-17902031D01*
X7876782Y-17902031D02*
X7886306Y-17911555D01*
X7886306Y-17911555D02*
X7905353Y-17921078D01*
X7905353Y-17921078D02*
X7943448Y-17921078D01*
X7943448Y-17921078D02*
X7962496Y-17911555D01*
X7962496Y-17911555D02*
X7972020Y-17902031D01*
X7972020Y-17902031D02*
X7981544Y-17882983D01*
X7981544Y-17882983D02*
X7981544Y-17835364D01*
X7981544Y-17835364D02*
X7972020Y-17816317D01*
X7972020Y-17816317D02*
X7962496Y-17806793D01*
X7962496Y-17806793D02*
X7943448Y-17797269D01*
X7943448Y-17797269D02*
X7905353Y-17797269D01*
X7905353Y-17797269D02*
X7886306Y-17806793D01*
X7886306Y-17806793D02*
X7876782Y-17816317D01*
X7876782Y-17816317D02*
X7867258Y-17835364D01*
X8057734Y-17721078D02*
X8057734Y-17759174D01*
X8133925Y-17721078D02*
X8133925Y-17759174D01*
X8429163Y-17997269D02*
X8419639Y-17987745D01*
X8419639Y-17987745D02*
X8400591Y-17959174D01*
X8400591Y-17959174D02*
X8391068Y-17940126D01*
X8391068Y-17940126D02*
X8381544Y-17911555D01*
X8381544Y-17911555D02*
X8372020Y-17863936D01*
X8372020Y-17863936D02*
X8372020Y-17825840D01*
X8372020Y-17825840D02*
X8381544Y-17778221D01*
X8381544Y-17778221D02*
X8391068Y-17749650D01*
X8391068Y-17749650D02*
X8400591Y-17730602D01*
X8400591Y-17730602D02*
X8419639Y-17702031D01*
X8419639Y-17702031D02*
X8429163Y-17692507D01*
X8495830Y-17740126D02*
X8505353Y-17730602D01*
X8505353Y-17730602D02*
X8524401Y-17721078D01*
X8524401Y-17721078D02*
X8572020Y-17721078D01*
X8572020Y-17721078D02*
X8591068Y-17730602D01*
X8591068Y-17730602D02*
X8600591Y-17740126D01*
X8600591Y-17740126D02*
X8610115Y-17759174D01*
X8610115Y-17759174D02*
X8610115Y-17778221D01*
X8610115Y-17778221D02*
X8600591Y-17806793D01*
X8600591Y-17806793D02*
X8486306Y-17921078D01*
X8486306Y-17921078D02*
X8610115Y-17921078D01*
X8848211Y-17921078D02*
X8848211Y-17721078D01*
X8933925Y-17921078D02*
X8933925Y-17816317D01*
X8933925Y-17816317D02*
X8924401Y-17797269D01*
X8924401Y-17797269D02*
X8905353Y-17787745D01*
X8905353Y-17787745D02*
X8876782Y-17787745D01*
X8876782Y-17787745D02*
X8857734Y-17797269D01*
X8857734Y-17797269D02*
X8848211Y-17806793D01*
X9057734Y-17921078D02*
X9038687Y-17911555D01*
X9038687Y-17911555D02*
X9029163Y-17902031D01*
X9029163Y-17902031D02*
X9019639Y-17882983D01*
X9019639Y-17882983D02*
X9019639Y-17825840D01*
X9019639Y-17825840D02*
X9029163Y-17806793D01*
X9029163Y-17806793D02*
X9038687Y-17797269D01*
X9038687Y-17797269D02*
X9057734Y-17787745D01*
X9057734Y-17787745D02*
X9086306Y-17787745D01*
X9086306Y-17787745D02*
X9105353Y-17797269D01*
X9105353Y-17797269D02*
X9114877Y-17806793D01*
X9114877Y-17806793D02*
X9124401Y-17825840D01*
X9124401Y-17825840D02*
X9124401Y-17882983D01*
X9124401Y-17882983D02*
X9114877Y-17902031D01*
X9114877Y-17902031D02*
X9105353Y-17911555D01*
X9105353Y-17911555D02*
X9086306Y-17921078D01*
X9086306Y-17921078D02*
X9057734Y-17921078D01*
X9238687Y-17921078D02*
X9219639Y-17911555D01*
X9219639Y-17911555D02*
X9210115Y-17892507D01*
X9210115Y-17892507D02*
X9210115Y-17721078D01*
X9391068Y-17911555D02*
X9372020Y-17921078D01*
X9372020Y-17921078D02*
X9333925Y-17921078D01*
X9333925Y-17921078D02*
X9314877Y-17911555D01*
X9314877Y-17911555D02*
X9305353Y-17892507D01*
X9305353Y-17892507D02*
X9305353Y-17816317D01*
X9305353Y-17816317D02*
X9314877Y-17797269D01*
X9314877Y-17797269D02*
X9333925Y-17787745D01*
X9333925Y-17787745D02*
X9372020Y-17787745D01*
X9372020Y-17787745D02*
X9391068Y-17797269D01*
X9391068Y-17797269D02*
X9400592Y-17816317D01*
X9400592Y-17816317D02*
X9400592Y-17835364D01*
X9400592Y-17835364D02*
X9305353Y-17854412D01*
X9476782Y-17911555D02*
X9495830Y-17921078D01*
X9495830Y-17921078D02*
X9533925Y-17921078D01*
X9533925Y-17921078D02*
X9552973Y-17911555D01*
X9552973Y-17911555D02*
X9562496Y-17892507D01*
X9562496Y-17892507D02*
X9562496Y-17882983D01*
X9562496Y-17882983D02*
X9552973Y-17863936D01*
X9552973Y-17863936D02*
X9533925Y-17854412D01*
X9533925Y-17854412D02*
X9505353Y-17854412D01*
X9505353Y-17854412D02*
X9486306Y-17844888D01*
X9486306Y-17844888D02*
X9476782Y-17825840D01*
X9476782Y-17825840D02*
X9476782Y-17816317D01*
X9476782Y-17816317D02*
X9486306Y-17797269D01*
X9486306Y-17797269D02*
X9505353Y-17787745D01*
X9505353Y-17787745D02*
X9533925Y-17787745D01*
X9533925Y-17787745D02*
X9552973Y-17797269D01*
X9629163Y-17997269D02*
X9638687Y-17987745D01*
X9638687Y-17987745D02*
X9657734Y-17959174D01*
X9657734Y-17959174D02*
X9667258Y-17940126D01*
X9667258Y-17940126D02*
X9676782Y-17911555D01*
X9676782Y-17911555D02*
X9686306Y-17863936D01*
X9686306Y-17863936D02*
X9686306Y-17825840D01*
X9686306Y-17825840D02*
X9676782Y-17778221D01*
X9676782Y-17778221D02*
X9667258Y-17749650D01*
X9667258Y-17749650D02*
X9657734Y-17730602D01*
X9657734Y-17730602D02*
X9638687Y-17702031D01*
X9638687Y-17702031D02*
X9629163Y-17692507D01*
X9991068Y-17997269D02*
X9981544Y-17987745D01*
X9981544Y-17987745D02*
X9962496Y-17959174D01*
X9962496Y-17959174D02*
X9952973Y-17940126D01*
X9952973Y-17940126D02*
X9943449Y-17911555D01*
X9943449Y-17911555D02*
X9933925Y-17863936D01*
X9933925Y-17863936D02*
X9933925Y-17825840D01*
X9933925Y-17825840D02*
X9943449Y-17778221D01*
X9943449Y-17778221D02*
X9952973Y-17749650D01*
X9952973Y-17749650D02*
X9962496Y-17730602D01*
X9962496Y-17730602D02*
X9981544Y-17702031D01*
X9981544Y-17702031D02*
X9991068Y-17692507D01*
X10067258Y-17787745D02*
X10067258Y-17921078D01*
X10067258Y-17806793D02*
X10076782Y-17797269D01*
X10076782Y-17797269D02*
X10095830Y-17787745D01*
X10095830Y-17787745D02*
X10124401Y-17787745D01*
X10124401Y-17787745D02*
X10143449Y-17797269D01*
X10143449Y-17797269D02*
X10152973Y-17816317D01*
X10152973Y-17816317D02*
X10152973Y-17921078D01*
X10276782Y-17921078D02*
X10257734Y-17911555D01*
X10257734Y-17911555D02*
X10248211Y-17902031D01*
X10248211Y-17902031D02*
X10238687Y-17882983D01*
X10238687Y-17882983D02*
X10238687Y-17825840D01*
X10238687Y-17825840D02*
X10248211Y-17806793D01*
X10248211Y-17806793D02*
X10257734Y-17797269D01*
X10257734Y-17797269D02*
X10276782Y-17787745D01*
X10276782Y-17787745D02*
X10305354Y-17787745D01*
X10305354Y-17787745D02*
X10324401Y-17797269D01*
X10324401Y-17797269D02*
X10333925Y-17806793D01*
X10333925Y-17806793D02*
X10343449Y-17825840D01*
X10343449Y-17825840D02*
X10343449Y-17882983D01*
X10343449Y-17882983D02*
X10333925Y-17902031D01*
X10333925Y-17902031D02*
X10324401Y-17911555D01*
X10324401Y-17911555D02*
X10305354Y-17921078D01*
X10305354Y-17921078D02*
X10276782Y-17921078D01*
X10400592Y-17787745D02*
X10476782Y-17787745D01*
X10429163Y-17721078D02*
X10429163Y-17892507D01*
X10429163Y-17892507D02*
X10438687Y-17911555D01*
X10438687Y-17911555D02*
X10457734Y-17921078D01*
X10457734Y-17921078D02*
X10476782Y-17921078D01*
X10695830Y-17787745D02*
X10695830Y-17987745D01*
X10695830Y-17797269D02*
X10714877Y-17787745D01*
X10714877Y-17787745D02*
X10752973Y-17787745D01*
X10752973Y-17787745D02*
X10772020Y-17797269D01*
X10772020Y-17797269D02*
X10781544Y-17806793D01*
X10781544Y-17806793D02*
X10791068Y-17825840D01*
X10791068Y-17825840D02*
X10791068Y-17882983D01*
X10791068Y-17882983D02*
X10781544Y-17902031D01*
X10781544Y-17902031D02*
X10772020Y-17911555D01*
X10772020Y-17911555D02*
X10752973Y-17921078D01*
X10752973Y-17921078D02*
X10714877Y-17921078D01*
X10714877Y-17921078D02*
X10695830Y-17911555D01*
X10905354Y-17921078D02*
X10886306Y-17911555D01*
X10886306Y-17911555D02*
X10876782Y-17892507D01*
X10876782Y-17892507D02*
X10876782Y-17721078D01*
X11067258Y-17921078D02*
X11067258Y-17816317D01*
X11067258Y-17816317D02*
X11057735Y-17797269D01*
X11057735Y-17797269D02*
X11038687Y-17787745D01*
X11038687Y-17787745D02*
X11000592Y-17787745D01*
X11000592Y-17787745D02*
X10981544Y-17797269D01*
X11067258Y-17911555D02*
X11048211Y-17921078D01*
X11048211Y-17921078D02*
X11000592Y-17921078D01*
X11000592Y-17921078D02*
X10981544Y-17911555D01*
X10981544Y-17911555D02*
X10972020Y-17892507D01*
X10972020Y-17892507D02*
X10972020Y-17873459D01*
X10972020Y-17873459D02*
X10981544Y-17854412D01*
X10981544Y-17854412D02*
X11000592Y-17844888D01*
X11000592Y-17844888D02*
X11048211Y-17844888D01*
X11048211Y-17844888D02*
X11067258Y-17835364D01*
X11133925Y-17787745D02*
X11210115Y-17787745D01*
X11162496Y-17721078D02*
X11162496Y-17892507D01*
X11162496Y-17892507D02*
X11172020Y-17911555D01*
X11172020Y-17911555D02*
X11191068Y-17921078D01*
X11191068Y-17921078D02*
X11210115Y-17921078D01*
X11352973Y-17911555D02*
X11333925Y-17921078D01*
X11333925Y-17921078D02*
X11295830Y-17921078D01*
X11295830Y-17921078D02*
X11276782Y-17911555D01*
X11276782Y-17911555D02*
X11267258Y-17892507D01*
X11267258Y-17892507D02*
X11267258Y-17816317D01*
X11267258Y-17816317D02*
X11276782Y-17797269D01*
X11276782Y-17797269D02*
X11295830Y-17787745D01*
X11295830Y-17787745D02*
X11333925Y-17787745D01*
X11333925Y-17787745D02*
X11352973Y-17797269D01*
X11352973Y-17797269D02*
X11362496Y-17816317D01*
X11362496Y-17816317D02*
X11362496Y-17835364D01*
X11362496Y-17835364D02*
X11267258Y-17854412D01*
X11533925Y-17921078D02*
X11533925Y-17721078D01*
X11533925Y-17911555D02*
X11514877Y-17921078D01*
X11514877Y-17921078D02*
X11476782Y-17921078D01*
X11476782Y-17921078D02*
X11457734Y-17911555D01*
X11457734Y-17911555D02*
X11448211Y-17902031D01*
X11448211Y-17902031D02*
X11438687Y-17882983D01*
X11438687Y-17882983D02*
X11438687Y-17825840D01*
X11438687Y-17825840D02*
X11448211Y-17806793D01*
X11448211Y-17806793D02*
X11457734Y-17797269D01*
X11457734Y-17797269D02*
X11476782Y-17787745D01*
X11476782Y-17787745D02*
X11514877Y-17787745D01*
X11514877Y-17787745D02*
X11533925Y-17797269D01*
X11610115Y-17997269D02*
X11619639Y-17987745D01*
X11619639Y-17987745D02*
X11638687Y-17959174D01*
X11638687Y-17959174D02*
X11648211Y-17940126D01*
X11648211Y-17940126D02*
X11657734Y-17911555D01*
X11657734Y-17911555D02*
X11667258Y-17863936D01*
X11667258Y-17863936D02*
X11667258Y-17825840D01*
X11667258Y-17825840D02*
X11657734Y-17778221D01*
X11657734Y-17778221D02*
X11648211Y-17749650D01*
X11648211Y-17749650D02*
X11638687Y-17730602D01*
X11638687Y-17730602D02*
X11619639Y-17702031D01*
X11619639Y-17702031D02*
X11610115Y-17692507D01*
D11*
X4854100Y-18093595D02*
G75*
G02*
X4769100Y-18093595I-42500J0D01*
G01*
X4769100Y-18093595D02*
G75*
G02*
X4854100Y-18093595I42500J0D01*
G01*
D10*
X5152972Y-17985078D02*
X5172020Y-17985078D01*
X5172020Y-17985078D02*
X5191067Y-17994602D01*
X5191067Y-17994602D02*
X5200591Y-18004126D01*
X5200591Y-18004126D02*
X5210115Y-18023174D01*
X5210115Y-18023174D02*
X5219639Y-18061269D01*
X5219639Y-18061269D02*
X5219639Y-18108888D01*
X5219639Y-18108888D02*
X5210115Y-18146983D01*
X5210115Y-18146983D02*
X5200591Y-18166031D01*
X5200591Y-18166031D02*
X5191067Y-18175555D01*
X5191067Y-18175555D02*
X5172020Y-18185078D01*
X5172020Y-18185078D02*
X5152972Y-18185078D01*
X5152972Y-18185078D02*
X5133924Y-18175555D01*
X5133924Y-18175555D02*
X5124401Y-18166031D01*
X5124401Y-18166031D02*
X5114877Y-18146983D01*
X5114877Y-18146983D02*
X5105353Y-18108888D01*
X5105353Y-18108888D02*
X5105353Y-18061269D01*
X5105353Y-18061269D02*
X5114877Y-18023174D01*
X5114877Y-18023174D02*
X5124401Y-18004126D01*
X5124401Y-18004126D02*
X5133924Y-17994602D01*
X5133924Y-17994602D02*
X5152972Y-17985078D01*
X5305353Y-18166031D02*
X5314877Y-18175555D01*
X5314877Y-18175555D02*
X5305353Y-18185078D01*
X5305353Y-18185078D02*
X5295829Y-18175555D01*
X5295829Y-18175555D02*
X5305353Y-18166031D01*
X5305353Y-18166031D02*
X5305353Y-18185078D01*
X5429163Y-18070793D02*
X5410115Y-18061269D01*
X5410115Y-18061269D02*
X5400591Y-18051745D01*
X5400591Y-18051745D02*
X5391067Y-18032697D01*
X5391067Y-18032697D02*
X5391067Y-18023174D01*
X5391067Y-18023174D02*
X5400591Y-18004126D01*
X5400591Y-18004126D02*
X5410115Y-17994602D01*
X5410115Y-17994602D02*
X5429163Y-17985078D01*
X5429163Y-17985078D02*
X5467258Y-17985078D01*
X5467258Y-17985078D02*
X5486305Y-17994602D01*
X5486305Y-17994602D02*
X5495829Y-18004126D01*
X5495829Y-18004126D02*
X5505353Y-18023174D01*
X5505353Y-18023174D02*
X5505353Y-18032697D01*
X5505353Y-18032697D02*
X5495829Y-18051745D01*
X5495829Y-18051745D02*
X5486305Y-18061269D01*
X5486305Y-18061269D02*
X5467258Y-18070793D01*
X5467258Y-18070793D02*
X5429163Y-18070793D01*
X5429163Y-18070793D02*
X5410115Y-18080317D01*
X5410115Y-18080317D02*
X5400591Y-18089840D01*
X5400591Y-18089840D02*
X5391067Y-18108888D01*
X5391067Y-18108888D02*
X5391067Y-18146983D01*
X5391067Y-18146983D02*
X5400591Y-18166031D01*
X5400591Y-18166031D02*
X5410115Y-18175555D01*
X5410115Y-18175555D02*
X5429163Y-18185078D01*
X5429163Y-18185078D02*
X5467258Y-18185078D01*
X5467258Y-18185078D02*
X5486305Y-18175555D01*
X5486305Y-18175555D02*
X5495829Y-18166031D01*
X5495829Y-18166031D02*
X5505353Y-18146983D01*
X5505353Y-18146983D02*
X5505353Y-18108888D01*
X5505353Y-18108888D02*
X5495829Y-18089840D01*
X5495829Y-18089840D02*
X5486305Y-18080317D01*
X5486305Y-18080317D02*
X5467258Y-18070793D01*
X5686305Y-17985078D02*
X5591067Y-17985078D01*
X5591067Y-17985078D02*
X5581544Y-18080317D01*
X5581544Y-18080317D02*
X5591067Y-18070793D01*
X5591067Y-18070793D02*
X5610115Y-18061269D01*
X5610115Y-18061269D02*
X5657734Y-18061269D01*
X5657734Y-18061269D02*
X5676782Y-18070793D01*
X5676782Y-18070793D02*
X5686305Y-18080317D01*
X5686305Y-18080317D02*
X5695829Y-18099364D01*
X5695829Y-18099364D02*
X5695829Y-18146983D01*
X5695829Y-18146983D02*
X5686305Y-18166031D01*
X5686305Y-18166031D02*
X5676782Y-18175555D01*
X5676782Y-18175555D02*
X5657734Y-18185078D01*
X5657734Y-18185078D02*
X5610115Y-18185078D01*
X5610115Y-18185078D02*
X5591067Y-18175555D01*
X5591067Y-18175555D02*
X5581544Y-18166031D01*
X5819639Y-17985078D02*
X5838686Y-17985078D01*
X5838686Y-17985078D02*
X5857734Y-17994602D01*
X5857734Y-17994602D02*
X5867258Y-18004126D01*
X5867258Y-18004126D02*
X5876782Y-18023174D01*
X5876782Y-18023174D02*
X5886305Y-18061269D01*
X5886305Y-18061269D02*
X5886305Y-18108888D01*
X5886305Y-18108888D02*
X5876782Y-18146983D01*
X5876782Y-18146983D02*
X5867258Y-18166031D01*
X5867258Y-18166031D02*
X5857734Y-18175555D01*
X5857734Y-18175555D02*
X5838686Y-18185078D01*
X5838686Y-18185078D02*
X5819639Y-18185078D01*
X5819639Y-18185078D02*
X5800591Y-18175555D01*
X5800591Y-18175555D02*
X5791067Y-18166031D01*
X5791067Y-18166031D02*
X5781543Y-18146983D01*
X5781543Y-18146983D02*
X5772020Y-18108888D01*
X5772020Y-18108888D02*
X5772020Y-18061269D01*
X5772020Y-18061269D02*
X5781543Y-18023174D01*
X5781543Y-18023174D02*
X5791067Y-18004126D01*
X5791067Y-18004126D02*
X5800591Y-17994602D01*
X5800591Y-17994602D02*
X5819639Y-17985078D01*
X5972020Y-18185078D02*
X5972020Y-18051745D01*
X5972020Y-18070793D02*
X5981543Y-18061269D01*
X5981543Y-18061269D02*
X6000591Y-18051745D01*
X6000591Y-18051745D02*
X6029163Y-18051745D01*
X6029163Y-18051745D02*
X6048210Y-18061269D01*
X6048210Y-18061269D02*
X6057734Y-18080317D01*
X6057734Y-18080317D02*
X6057734Y-18185078D01*
X6057734Y-18080317D02*
X6067258Y-18061269D01*
X6067258Y-18061269D02*
X6086305Y-18051745D01*
X6086305Y-18051745D02*
X6114877Y-18051745D01*
X6114877Y-18051745D02*
X6133924Y-18061269D01*
X6133924Y-18061269D02*
X6143448Y-18080317D01*
X6143448Y-18080317D02*
X6143448Y-18185078D01*
X6238686Y-18185078D02*
X6238686Y-18051745D01*
X6238686Y-18070793D02*
X6248210Y-18061269D01*
X6248210Y-18061269D02*
X6267258Y-18051745D01*
X6267258Y-18051745D02*
X6295829Y-18051745D01*
X6295829Y-18051745D02*
X6314877Y-18061269D01*
X6314877Y-18061269D02*
X6324401Y-18080317D01*
X6324401Y-18080317D02*
X6324401Y-18185078D01*
X6324401Y-18080317D02*
X6333924Y-18061269D01*
X6333924Y-18061269D02*
X6352972Y-18051745D01*
X6352972Y-18051745D02*
X6381543Y-18051745D01*
X6381543Y-18051745D02*
X6400591Y-18061269D01*
X6400591Y-18061269D02*
X6410115Y-18080317D01*
X6410115Y-18080317D02*
X6410115Y-18185078D01*
X6800591Y-17975555D02*
X6629163Y-18232697D01*
X7057734Y-17985078D02*
X7076782Y-17985078D01*
X7076782Y-17985078D02*
X7095829Y-17994602D01*
X7095829Y-17994602D02*
X7105353Y-18004126D01*
X7105353Y-18004126D02*
X7114877Y-18023174D01*
X7114877Y-18023174D02*
X7124401Y-18061269D01*
X7124401Y-18061269D02*
X7124401Y-18108888D01*
X7124401Y-18108888D02*
X7114877Y-18146983D01*
X7114877Y-18146983D02*
X7105353Y-18166031D01*
X7105353Y-18166031D02*
X7095829Y-18175555D01*
X7095829Y-18175555D02*
X7076782Y-18185078D01*
X7076782Y-18185078D02*
X7057734Y-18185078D01*
X7057734Y-18185078D02*
X7038686Y-18175555D01*
X7038686Y-18175555D02*
X7029163Y-18166031D01*
X7029163Y-18166031D02*
X7019639Y-18146983D01*
X7019639Y-18146983D02*
X7010115Y-18108888D01*
X7010115Y-18108888D02*
X7010115Y-18061269D01*
X7010115Y-18061269D02*
X7019639Y-18023174D01*
X7019639Y-18023174D02*
X7029163Y-18004126D01*
X7029163Y-18004126D02*
X7038686Y-17994602D01*
X7038686Y-17994602D02*
X7057734Y-17985078D01*
X7210115Y-18166031D02*
X7219639Y-18175555D01*
X7219639Y-18175555D02*
X7210115Y-18185078D01*
X7210115Y-18185078D02*
X7200591Y-18175555D01*
X7200591Y-18175555D02*
X7210115Y-18166031D01*
X7210115Y-18166031D02*
X7210115Y-18185078D01*
X7343448Y-17985078D02*
X7362496Y-17985078D01*
X7362496Y-17985078D02*
X7381544Y-17994602D01*
X7381544Y-17994602D02*
X7391067Y-18004126D01*
X7391067Y-18004126D02*
X7400591Y-18023174D01*
X7400591Y-18023174D02*
X7410115Y-18061269D01*
X7410115Y-18061269D02*
X7410115Y-18108888D01*
X7410115Y-18108888D02*
X7400591Y-18146983D01*
X7400591Y-18146983D02*
X7391067Y-18166031D01*
X7391067Y-18166031D02*
X7381544Y-18175555D01*
X7381544Y-18175555D02*
X7362496Y-18185078D01*
X7362496Y-18185078D02*
X7343448Y-18185078D01*
X7343448Y-18185078D02*
X7324401Y-18175555D01*
X7324401Y-18175555D02*
X7314877Y-18166031D01*
X7314877Y-18166031D02*
X7305353Y-18146983D01*
X7305353Y-18146983D02*
X7295829Y-18108888D01*
X7295829Y-18108888D02*
X7295829Y-18061269D01*
X7295829Y-18061269D02*
X7305353Y-18023174D01*
X7305353Y-18023174D02*
X7314877Y-18004126D01*
X7314877Y-18004126D02*
X7324401Y-17994602D01*
X7324401Y-17994602D02*
X7343448Y-17985078D01*
X7476782Y-17985078D02*
X7600591Y-17985078D01*
X7600591Y-17985078D02*
X7533925Y-18061269D01*
X7533925Y-18061269D02*
X7562496Y-18061269D01*
X7562496Y-18061269D02*
X7581544Y-18070793D01*
X7581544Y-18070793D02*
X7591067Y-18080317D01*
X7591067Y-18080317D02*
X7600591Y-18099364D01*
X7600591Y-18099364D02*
X7600591Y-18146983D01*
X7600591Y-18146983D02*
X7591067Y-18166031D01*
X7591067Y-18166031D02*
X7581544Y-18175555D01*
X7581544Y-18175555D02*
X7562496Y-18185078D01*
X7562496Y-18185078D02*
X7505353Y-18185078D01*
X7505353Y-18185078D02*
X7486306Y-18175555D01*
X7486306Y-18175555D02*
X7476782Y-18166031D01*
X7667258Y-17985078D02*
X7791067Y-17985078D01*
X7791067Y-17985078D02*
X7724401Y-18061269D01*
X7724401Y-18061269D02*
X7752972Y-18061269D01*
X7752972Y-18061269D02*
X7772020Y-18070793D01*
X7772020Y-18070793D02*
X7781544Y-18080317D01*
X7781544Y-18080317D02*
X7791067Y-18099364D01*
X7791067Y-18099364D02*
X7791067Y-18146983D01*
X7791067Y-18146983D02*
X7781544Y-18166031D01*
X7781544Y-18166031D02*
X7772020Y-18175555D01*
X7772020Y-18175555D02*
X7752972Y-18185078D01*
X7752972Y-18185078D02*
X7695829Y-18185078D01*
X7695829Y-18185078D02*
X7676782Y-18175555D01*
X7676782Y-18175555D02*
X7667258Y-18166031D01*
X7972020Y-17985078D02*
X7876782Y-17985078D01*
X7876782Y-17985078D02*
X7867258Y-18080317D01*
X7867258Y-18080317D02*
X7876782Y-18070793D01*
X7876782Y-18070793D02*
X7895829Y-18061269D01*
X7895829Y-18061269D02*
X7943448Y-18061269D01*
X7943448Y-18061269D02*
X7962496Y-18070793D01*
X7962496Y-18070793D02*
X7972020Y-18080317D01*
X7972020Y-18080317D02*
X7981544Y-18099364D01*
X7981544Y-18099364D02*
X7981544Y-18146983D01*
X7981544Y-18146983D02*
X7972020Y-18166031D01*
X7972020Y-18166031D02*
X7962496Y-18175555D01*
X7962496Y-18175555D02*
X7943448Y-18185078D01*
X7943448Y-18185078D02*
X7895829Y-18185078D01*
X7895829Y-18185078D02*
X7876782Y-18175555D01*
X7876782Y-18175555D02*
X7867258Y-18166031D01*
X8057734Y-17985078D02*
X8057734Y-18023174D01*
X8133925Y-17985078D02*
X8133925Y-18023174D01*
X8429163Y-18261269D02*
X8419639Y-18251745D01*
X8419639Y-18251745D02*
X8400591Y-18223174D01*
X8400591Y-18223174D02*
X8391068Y-18204126D01*
X8391068Y-18204126D02*
X8381544Y-18175555D01*
X8381544Y-18175555D02*
X8372020Y-18127936D01*
X8372020Y-18127936D02*
X8372020Y-18089840D01*
X8372020Y-18089840D02*
X8381544Y-18042221D01*
X8381544Y-18042221D02*
X8391068Y-18013650D01*
X8391068Y-18013650D02*
X8400591Y-17994602D01*
X8400591Y-17994602D02*
X8419639Y-17966031D01*
X8419639Y-17966031D02*
X8429163Y-17956507D01*
X8495830Y-18004126D02*
X8505353Y-17994602D01*
X8505353Y-17994602D02*
X8524401Y-17985078D01*
X8524401Y-17985078D02*
X8572020Y-17985078D01*
X8572020Y-17985078D02*
X8591068Y-17994602D01*
X8591068Y-17994602D02*
X8600591Y-18004126D01*
X8600591Y-18004126D02*
X8610115Y-18023174D01*
X8610115Y-18023174D02*
X8610115Y-18042221D01*
X8610115Y-18042221D02*
X8600591Y-18070793D01*
X8600591Y-18070793D02*
X8486306Y-18185078D01*
X8486306Y-18185078D02*
X8610115Y-18185078D01*
X8848211Y-18185078D02*
X8848211Y-17985078D01*
X8933925Y-18185078D02*
X8933925Y-18080317D01*
X8933925Y-18080317D02*
X8924401Y-18061269D01*
X8924401Y-18061269D02*
X8905353Y-18051745D01*
X8905353Y-18051745D02*
X8876782Y-18051745D01*
X8876782Y-18051745D02*
X8857734Y-18061269D01*
X8857734Y-18061269D02*
X8848211Y-18070793D01*
X9057734Y-18185078D02*
X9038687Y-18175555D01*
X9038687Y-18175555D02*
X9029163Y-18166031D01*
X9029163Y-18166031D02*
X9019639Y-18146983D01*
X9019639Y-18146983D02*
X9019639Y-18089840D01*
X9019639Y-18089840D02*
X9029163Y-18070793D01*
X9029163Y-18070793D02*
X9038687Y-18061269D01*
X9038687Y-18061269D02*
X9057734Y-18051745D01*
X9057734Y-18051745D02*
X9086306Y-18051745D01*
X9086306Y-18051745D02*
X9105353Y-18061269D01*
X9105353Y-18061269D02*
X9114877Y-18070793D01*
X9114877Y-18070793D02*
X9124401Y-18089840D01*
X9124401Y-18089840D02*
X9124401Y-18146983D01*
X9124401Y-18146983D02*
X9114877Y-18166031D01*
X9114877Y-18166031D02*
X9105353Y-18175555D01*
X9105353Y-18175555D02*
X9086306Y-18185078D01*
X9086306Y-18185078D02*
X9057734Y-18185078D01*
X9238687Y-18185078D02*
X9219639Y-18175555D01*
X9219639Y-18175555D02*
X9210115Y-18156507D01*
X9210115Y-18156507D02*
X9210115Y-17985078D01*
X9391068Y-18175555D02*
X9372020Y-18185078D01*
X9372020Y-18185078D02*
X9333925Y-18185078D01*
X9333925Y-18185078D02*
X9314877Y-18175555D01*
X9314877Y-18175555D02*
X9305353Y-18156507D01*
X9305353Y-18156507D02*
X9305353Y-18080317D01*
X9305353Y-18080317D02*
X9314877Y-18061269D01*
X9314877Y-18061269D02*
X9333925Y-18051745D01*
X9333925Y-18051745D02*
X9372020Y-18051745D01*
X9372020Y-18051745D02*
X9391068Y-18061269D01*
X9391068Y-18061269D02*
X9400592Y-18080317D01*
X9400592Y-18080317D02*
X9400592Y-18099364D01*
X9400592Y-18099364D02*
X9305353Y-18118412D01*
X9476782Y-18175555D02*
X9495830Y-18185078D01*
X9495830Y-18185078D02*
X9533925Y-18185078D01*
X9533925Y-18185078D02*
X9552973Y-18175555D01*
X9552973Y-18175555D02*
X9562496Y-18156507D01*
X9562496Y-18156507D02*
X9562496Y-18146983D01*
X9562496Y-18146983D02*
X9552973Y-18127936D01*
X9552973Y-18127936D02*
X9533925Y-18118412D01*
X9533925Y-18118412D02*
X9505353Y-18118412D01*
X9505353Y-18118412D02*
X9486306Y-18108888D01*
X9486306Y-18108888D02*
X9476782Y-18089840D01*
X9476782Y-18089840D02*
X9476782Y-18080317D01*
X9476782Y-18080317D02*
X9486306Y-18061269D01*
X9486306Y-18061269D02*
X9505353Y-18051745D01*
X9505353Y-18051745D02*
X9533925Y-18051745D01*
X9533925Y-18051745D02*
X9552973Y-18061269D01*
X9629163Y-18261269D02*
X9638687Y-18251745D01*
X9638687Y-18251745D02*
X9657734Y-18223174D01*
X9657734Y-18223174D02*
X9667258Y-18204126D01*
X9667258Y-18204126D02*
X9676782Y-18175555D01*
X9676782Y-18175555D02*
X9686306Y-18127936D01*
X9686306Y-18127936D02*
X9686306Y-18089840D01*
X9686306Y-18089840D02*
X9676782Y-18042221D01*
X9676782Y-18042221D02*
X9667258Y-18013650D01*
X9667258Y-18013650D02*
X9657734Y-17994602D01*
X9657734Y-17994602D02*
X9638687Y-17966031D01*
X9638687Y-17966031D02*
X9629163Y-17956507D01*
X9991068Y-18261269D02*
X9981544Y-18251745D01*
X9981544Y-18251745D02*
X9962496Y-18223174D01*
X9962496Y-18223174D02*
X9952973Y-18204126D01*
X9952973Y-18204126D02*
X9943449Y-18175555D01*
X9943449Y-18175555D02*
X9933925Y-18127936D01*
X9933925Y-18127936D02*
X9933925Y-18089840D01*
X9933925Y-18089840D02*
X9943449Y-18042221D01*
X9943449Y-18042221D02*
X9952973Y-18013650D01*
X9952973Y-18013650D02*
X9962496Y-17994602D01*
X9962496Y-17994602D02*
X9981544Y-17966031D01*
X9981544Y-17966031D02*
X9991068Y-17956507D01*
X10067258Y-18051745D02*
X10067258Y-18185078D01*
X10067258Y-18070793D02*
X10076782Y-18061269D01*
X10076782Y-18061269D02*
X10095830Y-18051745D01*
X10095830Y-18051745D02*
X10124401Y-18051745D01*
X10124401Y-18051745D02*
X10143449Y-18061269D01*
X10143449Y-18061269D02*
X10152973Y-18080317D01*
X10152973Y-18080317D02*
X10152973Y-18185078D01*
X10276782Y-18185078D02*
X10257734Y-18175555D01*
X10257734Y-18175555D02*
X10248211Y-18166031D01*
X10248211Y-18166031D02*
X10238687Y-18146983D01*
X10238687Y-18146983D02*
X10238687Y-18089840D01*
X10238687Y-18089840D02*
X10248211Y-18070793D01*
X10248211Y-18070793D02*
X10257734Y-18061269D01*
X10257734Y-18061269D02*
X10276782Y-18051745D01*
X10276782Y-18051745D02*
X10305354Y-18051745D01*
X10305354Y-18051745D02*
X10324401Y-18061269D01*
X10324401Y-18061269D02*
X10333925Y-18070793D01*
X10333925Y-18070793D02*
X10343449Y-18089840D01*
X10343449Y-18089840D02*
X10343449Y-18146983D01*
X10343449Y-18146983D02*
X10333925Y-18166031D01*
X10333925Y-18166031D02*
X10324401Y-18175555D01*
X10324401Y-18175555D02*
X10305354Y-18185078D01*
X10305354Y-18185078D02*
X10276782Y-18185078D01*
X10400592Y-18051745D02*
X10476782Y-18051745D01*
X10429163Y-17985078D02*
X10429163Y-18156507D01*
X10429163Y-18156507D02*
X10438687Y-18175555D01*
X10438687Y-18175555D02*
X10457734Y-18185078D01*
X10457734Y-18185078D02*
X10476782Y-18185078D01*
X10695830Y-18051745D02*
X10695830Y-18251745D01*
X10695830Y-18061269D02*
X10714877Y-18051745D01*
X10714877Y-18051745D02*
X10752973Y-18051745D01*
X10752973Y-18051745D02*
X10772020Y-18061269D01*
X10772020Y-18061269D02*
X10781544Y-18070793D01*
X10781544Y-18070793D02*
X10791068Y-18089840D01*
X10791068Y-18089840D02*
X10791068Y-18146983D01*
X10791068Y-18146983D02*
X10781544Y-18166031D01*
X10781544Y-18166031D02*
X10772020Y-18175555D01*
X10772020Y-18175555D02*
X10752973Y-18185078D01*
X10752973Y-18185078D02*
X10714877Y-18185078D01*
X10714877Y-18185078D02*
X10695830Y-18175555D01*
X10905354Y-18185078D02*
X10886306Y-18175555D01*
X10886306Y-18175555D02*
X10876782Y-18156507D01*
X10876782Y-18156507D02*
X10876782Y-17985078D01*
X11067258Y-18185078D02*
X11067258Y-18080317D01*
X11067258Y-18080317D02*
X11057735Y-18061269D01*
X11057735Y-18061269D02*
X11038687Y-18051745D01*
X11038687Y-18051745D02*
X11000592Y-18051745D01*
X11000592Y-18051745D02*
X10981544Y-18061269D01*
X11067258Y-18175555D02*
X11048211Y-18185078D01*
X11048211Y-18185078D02*
X11000592Y-18185078D01*
X11000592Y-18185078D02*
X10981544Y-18175555D01*
X10981544Y-18175555D02*
X10972020Y-18156507D01*
X10972020Y-18156507D02*
X10972020Y-18137459D01*
X10972020Y-18137459D02*
X10981544Y-18118412D01*
X10981544Y-18118412D02*
X11000592Y-18108888D01*
X11000592Y-18108888D02*
X11048211Y-18108888D01*
X11048211Y-18108888D02*
X11067258Y-18099364D01*
X11133925Y-18051745D02*
X11210115Y-18051745D01*
X11162496Y-17985078D02*
X11162496Y-18156507D01*
X11162496Y-18156507D02*
X11172020Y-18175555D01*
X11172020Y-18175555D02*
X11191068Y-18185078D01*
X11191068Y-18185078D02*
X11210115Y-18185078D01*
X11352973Y-18175555D02*
X11333925Y-18185078D01*
X11333925Y-18185078D02*
X11295830Y-18185078D01*
X11295830Y-18185078D02*
X11276782Y-18175555D01*
X11276782Y-18175555D02*
X11267258Y-18156507D01*
X11267258Y-18156507D02*
X11267258Y-18080317D01*
X11267258Y-18080317D02*
X11276782Y-18061269D01*
X11276782Y-18061269D02*
X11295830Y-18051745D01*
X11295830Y-18051745D02*
X11333925Y-18051745D01*
X11333925Y-18051745D02*
X11352973Y-18061269D01*
X11352973Y-18061269D02*
X11362496Y-18080317D01*
X11362496Y-18080317D02*
X11362496Y-18099364D01*
X11362496Y-18099364D02*
X11267258Y-18118412D01*
X11533925Y-18185078D02*
X11533925Y-17985078D01*
X11533925Y-18175555D02*
X11514877Y-18185078D01*
X11514877Y-18185078D02*
X11476782Y-18185078D01*
X11476782Y-18185078D02*
X11457734Y-18175555D01*
X11457734Y-18175555D02*
X11448211Y-18166031D01*
X11448211Y-18166031D02*
X11438687Y-18146983D01*
X11438687Y-18146983D02*
X11438687Y-18089840D01*
X11438687Y-18089840D02*
X11448211Y-18070793D01*
X11448211Y-18070793D02*
X11457734Y-18061269D01*
X11457734Y-18061269D02*
X11476782Y-18051745D01*
X11476782Y-18051745D02*
X11514877Y-18051745D01*
X11514877Y-18051745D02*
X11533925Y-18061269D01*
X11610115Y-18261269D02*
X11619639Y-18251745D01*
X11619639Y-18251745D02*
X11638687Y-18223174D01*
X11638687Y-18223174D02*
X11648211Y-18204126D01*
X11648211Y-18204126D02*
X11657734Y-18175555D01*
X11657734Y-18175555D02*
X11667258Y-18127936D01*
X11667258Y-18127936D02*
X11667258Y-18089840D01*
X11667258Y-18089840D02*
X11657734Y-18042221D01*
X11657734Y-18042221D02*
X11648211Y-18013650D01*
X11648211Y-18013650D02*
X11638687Y-17994602D01*
X11638687Y-17994602D02*
X11619639Y-17966031D01*
X11619639Y-17966031D02*
X11610115Y-17956507D01*
D12*
X4779100Y-18282595D02*
X4779100Y-18432595D01*
X4704100Y-18357595D02*
X4854100Y-18357595D01*
D10*
X5219639Y-18449078D02*
X5105353Y-18449078D01*
X5162496Y-18449078D02*
X5162496Y-18249078D01*
X5162496Y-18249078D02*
X5143448Y-18277650D01*
X5143448Y-18277650D02*
X5124401Y-18296697D01*
X5124401Y-18296697D02*
X5105353Y-18306221D01*
X5305353Y-18430031D02*
X5314877Y-18439555D01*
X5314877Y-18439555D02*
X5305353Y-18449078D01*
X5305353Y-18449078D02*
X5295829Y-18439555D01*
X5295829Y-18439555D02*
X5305353Y-18430031D01*
X5305353Y-18430031D02*
X5305353Y-18449078D01*
X5495829Y-18249078D02*
X5400591Y-18249078D01*
X5400591Y-18249078D02*
X5391067Y-18344317D01*
X5391067Y-18344317D02*
X5400591Y-18334793D01*
X5400591Y-18334793D02*
X5419639Y-18325269D01*
X5419639Y-18325269D02*
X5467258Y-18325269D01*
X5467258Y-18325269D02*
X5486305Y-18334793D01*
X5486305Y-18334793D02*
X5495829Y-18344317D01*
X5495829Y-18344317D02*
X5505353Y-18363364D01*
X5505353Y-18363364D02*
X5505353Y-18410983D01*
X5505353Y-18410983D02*
X5495829Y-18430031D01*
X5495829Y-18430031D02*
X5486305Y-18439555D01*
X5486305Y-18439555D02*
X5467258Y-18449078D01*
X5467258Y-18449078D02*
X5419639Y-18449078D01*
X5419639Y-18449078D02*
X5400591Y-18439555D01*
X5400591Y-18439555D02*
X5391067Y-18430031D01*
X5629162Y-18249078D02*
X5648210Y-18249078D01*
X5648210Y-18249078D02*
X5667258Y-18258602D01*
X5667258Y-18258602D02*
X5676782Y-18268126D01*
X5676782Y-18268126D02*
X5686305Y-18287174D01*
X5686305Y-18287174D02*
X5695829Y-18325269D01*
X5695829Y-18325269D02*
X5695829Y-18372888D01*
X5695829Y-18372888D02*
X5686305Y-18410983D01*
X5686305Y-18410983D02*
X5676782Y-18430031D01*
X5676782Y-18430031D02*
X5667258Y-18439555D01*
X5667258Y-18439555D02*
X5648210Y-18449078D01*
X5648210Y-18449078D02*
X5629162Y-18449078D01*
X5629162Y-18449078D02*
X5610115Y-18439555D01*
X5610115Y-18439555D02*
X5600591Y-18430031D01*
X5600591Y-18430031D02*
X5591067Y-18410983D01*
X5591067Y-18410983D02*
X5581544Y-18372888D01*
X5581544Y-18372888D02*
X5581544Y-18325269D01*
X5581544Y-18325269D02*
X5591067Y-18287174D01*
X5591067Y-18287174D02*
X5600591Y-18268126D01*
X5600591Y-18268126D02*
X5610115Y-18258602D01*
X5610115Y-18258602D02*
X5629162Y-18249078D01*
X5819639Y-18249078D02*
X5838686Y-18249078D01*
X5838686Y-18249078D02*
X5857734Y-18258602D01*
X5857734Y-18258602D02*
X5867258Y-18268126D01*
X5867258Y-18268126D02*
X5876782Y-18287174D01*
X5876782Y-18287174D02*
X5886305Y-18325269D01*
X5886305Y-18325269D02*
X5886305Y-18372888D01*
X5886305Y-18372888D02*
X5876782Y-18410983D01*
X5876782Y-18410983D02*
X5867258Y-18430031D01*
X5867258Y-18430031D02*
X5857734Y-18439555D01*
X5857734Y-18439555D02*
X5838686Y-18449078D01*
X5838686Y-18449078D02*
X5819639Y-18449078D01*
X5819639Y-18449078D02*
X5800591Y-18439555D01*
X5800591Y-18439555D02*
X5791067Y-18430031D01*
X5791067Y-18430031D02*
X5781543Y-18410983D01*
X5781543Y-18410983D02*
X5772020Y-18372888D01*
X5772020Y-18372888D02*
X5772020Y-18325269D01*
X5772020Y-18325269D02*
X5781543Y-18287174D01*
X5781543Y-18287174D02*
X5791067Y-18268126D01*
X5791067Y-18268126D02*
X5800591Y-18258602D01*
X5800591Y-18258602D02*
X5819639Y-18249078D01*
X5972020Y-18449078D02*
X5972020Y-18315745D01*
X5972020Y-18334793D02*
X5981543Y-18325269D01*
X5981543Y-18325269D02*
X6000591Y-18315745D01*
X6000591Y-18315745D02*
X6029163Y-18315745D01*
X6029163Y-18315745D02*
X6048210Y-18325269D01*
X6048210Y-18325269D02*
X6057734Y-18344317D01*
X6057734Y-18344317D02*
X6057734Y-18449078D01*
X6057734Y-18344317D02*
X6067258Y-18325269D01*
X6067258Y-18325269D02*
X6086305Y-18315745D01*
X6086305Y-18315745D02*
X6114877Y-18315745D01*
X6114877Y-18315745D02*
X6133924Y-18325269D01*
X6133924Y-18325269D02*
X6143448Y-18344317D01*
X6143448Y-18344317D02*
X6143448Y-18449078D01*
X6238686Y-18449078D02*
X6238686Y-18315745D01*
X6238686Y-18334793D02*
X6248210Y-18325269D01*
X6248210Y-18325269D02*
X6267258Y-18315745D01*
X6267258Y-18315745D02*
X6295829Y-18315745D01*
X6295829Y-18315745D02*
X6314877Y-18325269D01*
X6314877Y-18325269D02*
X6324401Y-18344317D01*
X6324401Y-18344317D02*
X6324401Y-18449078D01*
X6324401Y-18344317D02*
X6333924Y-18325269D01*
X6333924Y-18325269D02*
X6352972Y-18315745D01*
X6352972Y-18315745D02*
X6381543Y-18315745D01*
X6381543Y-18315745D02*
X6400591Y-18325269D01*
X6400591Y-18325269D02*
X6410115Y-18344317D01*
X6410115Y-18344317D02*
X6410115Y-18449078D01*
X6800591Y-18239555D02*
X6629163Y-18496697D01*
X7057734Y-18249078D02*
X7076782Y-18249078D01*
X7076782Y-18249078D02*
X7095829Y-18258602D01*
X7095829Y-18258602D02*
X7105353Y-18268126D01*
X7105353Y-18268126D02*
X7114877Y-18287174D01*
X7114877Y-18287174D02*
X7124401Y-18325269D01*
X7124401Y-18325269D02*
X7124401Y-18372888D01*
X7124401Y-18372888D02*
X7114877Y-18410983D01*
X7114877Y-18410983D02*
X7105353Y-18430031D01*
X7105353Y-18430031D02*
X7095829Y-18439555D01*
X7095829Y-18439555D02*
X7076782Y-18449078D01*
X7076782Y-18449078D02*
X7057734Y-18449078D01*
X7057734Y-18449078D02*
X7038686Y-18439555D01*
X7038686Y-18439555D02*
X7029163Y-18430031D01*
X7029163Y-18430031D02*
X7019639Y-18410983D01*
X7019639Y-18410983D02*
X7010115Y-18372888D01*
X7010115Y-18372888D02*
X7010115Y-18325269D01*
X7010115Y-18325269D02*
X7019639Y-18287174D01*
X7019639Y-18287174D02*
X7029163Y-18268126D01*
X7029163Y-18268126D02*
X7038686Y-18258602D01*
X7038686Y-18258602D02*
X7057734Y-18249078D01*
X7210115Y-18430031D02*
X7219639Y-18439555D01*
X7219639Y-18439555D02*
X7210115Y-18449078D01*
X7210115Y-18449078D02*
X7200591Y-18439555D01*
X7200591Y-18439555D02*
X7210115Y-18430031D01*
X7210115Y-18430031D02*
X7210115Y-18449078D01*
X7343448Y-18249078D02*
X7362496Y-18249078D01*
X7362496Y-18249078D02*
X7381544Y-18258602D01*
X7381544Y-18258602D02*
X7391067Y-18268126D01*
X7391067Y-18268126D02*
X7400591Y-18287174D01*
X7400591Y-18287174D02*
X7410115Y-18325269D01*
X7410115Y-18325269D02*
X7410115Y-18372888D01*
X7410115Y-18372888D02*
X7400591Y-18410983D01*
X7400591Y-18410983D02*
X7391067Y-18430031D01*
X7391067Y-18430031D02*
X7381544Y-18439555D01*
X7381544Y-18439555D02*
X7362496Y-18449078D01*
X7362496Y-18449078D02*
X7343448Y-18449078D01*
X7343448Y-18449078D02*
X7324401Y-18439555D01*
X7324401Y-18439555D02*
X7314877Y-18430031D01*
X7314877Y-18430031D02*
X7305353Y-18410983D01*
X7305353Y-18410983D02*
X7295829Y-18372888D01*
X7295829Y-18372888D02*
X7295829Y-18325269D01*
X7295829Y-18325269D02*
X7305353Y-18287174D01*
X7305353Y-18287174D02*
X7314877Y-18268126D01*
X7314877Y-18268126D02*
X7324401Y-18258602D01*
X7324401Y-18258602D02*
X7343448Y-18249078D01*
X7591067Y-18249078D02*
X7495829Y-18249078D01*
X7495829Y-18249078D02*
X7486306Y-18344317D01*
X7486306Y-18344317D02*
X7495829Y-18334793D01*
X7495829Y-18334793D02*
X7514877Y-18325269D01*
X7514877Y-18325269D02*
X7562496Y-18325269D01*
X7562496Y-18325269D02*
X7581544Y-18334793D01*
X7581544Y-18334793D02*
X7591067Y-18344317D01*
X7591067Y-18344317D02*
X7600591Y-18363364D01*
X7600591Y-18363364D02*
X7600591Y-18410983D01*
X7600591Y-18410983D02*
X7591067Y-18430031D01*
X7591067Y-18430031D02*
X7581544Y-18439555D01*
X7581544Y-18439555D02*
X7562496Y-18449078D01*
X7562496Y-18449078D02*
X7514877Y-18449078D01*
X7514877Y-18449078D02*
X7495829Y-18439555D01*
X7495829Y-18439555D02*
X7486306Y-18430031D01*
X7695829Y-18449078D02*
X7733925Y-18449078D01*
X7733925Y-18449078D02*
X7752972Y-18439555D01*
X7752972Y-18439555D02*
X7762496Y-18430031D01*
X7762496Y-18430031D02*
X7781544Y-18401459D01*
X7781544Y-18401459D02*
X7791067Y-18363364D01*
X7791067Y-18363364D02*
X7791067Y-18287174D01*
X7791067Y-18287174D02*
X7781544Y-18268126D01*
X7781544Y-18268126D02*
X7772020Y-18258602D01*
X7772020Y-18258602D02*
X7752972Y-18249078D01*
X7752972Y-18249078D02*
X7714877Y-18249078D01*
X7714877Y-18249078D02*
X7695829Y-18258602D01*
X7695829Y-18258602D02*
X7686306Y-18268126D01*
X7686306Y-18268126D02*
X7676782Y-18287174D01*
X7676782Y-18287174D02*
X7676782Y-18334793D01*
X7676782Y-18334793D02*
X7686306Y-18353840D01*
X7686306Y-18353840D02*
X7695829Y-18363364D01*
X7695829Y-18363364D02*
X7714877Y-18372888D01*
X7714877Y-18372888D02*
X7752972Y-18372888D01*
X7752972Y-18372888D02*
X7772020Y-18363364D01*
X7772020Y-18363364D02*
X7781544Y-18353840D01*
X7781544Y-18353840D02*
X7791067Y-18334793D01*
X7981544Y-18449078D02*
X7867258Y-18449078D01*
X7924401Y-18449078D02*
X7924401Y-18249078D01*
X7924401Y-18249078D02*
X7905353Y-18277650D01*
X7905353Y-18277650D02*
X7886306Y-18296697D01*
X7886306Y-18296697D02*
X7867258Y-18306221D01*
X8057734Y-18249078D02*
X8057734Y-18287174D01*
X8133925Y-18249078D02*
X8133925Y-18287174D01*
X8429163Y-18525269D02*
X8419639Y-18515745D01*
X8419639Y-18515745D02*
X8400591Y-18487174D01*
X8400591Y-18487174D02*
X8391068Y-18468126D01*
X8391068Y-18468126D02*
X8381544Y-18439555D01*
X8381544Y-18439555D02*
X8372020Y-18391936D01*
X8372020Y-18391936D02*
X8372020Y-18353840D01*
X8372020Y-18353840D02*
X8381544Y-18306221D01*
X8381544Y-18306221D02*
X8391068Y-18277650D01*
X8391068Y-18277650D02*
X8400591Y-18258602D01*
X8400591Y-18258602D02*
X8419639Y-18230031D01*
X8419639Y-18230031D02*
X8429163Y-18220507D01*
X8495830Y-18268126D02*
X8505353Y-18258602D01*
X8505353Y-18258602D02*
X8524401Y-18249078D01*
X8524401Y-18249078D02*
X8572020Y-18249078D01*
X8572020Y-18249078D02*
X8591068Y-18258602D01*
X8591068Y-18258602D02*
X8600591Y-18268126D01*
X8600591Y-18268126D02*
X8610115Y-18287174D01*
X8610115Y-18287174D02*
X8610115Y-18306221D01*
X8610115Y-18306221D02*
X8600591Y-18334793D01*
X8600591Y-18334793D02*
X8486306Y-18449078D01*
X8486306Y-18449078D02*
X8610115Y-18449078D01*
X8848211Y-18449078D02*
X8848211Y-18249078D01*
X8933925Y-18449078D02*
X8933925Y-18344317D01*
X8933925Y-18344317D02*
X8924401Y-18325269D01*
X8924401Y-18325269D02*
X8905353Y-18315745D01*
X8905353Y-18315745D02*
X8876782Y-18315745D01*
X8876782Y-18315745D02*
X8857734Y-18325269D01*
X8857734Y-18325269D02*
X8848211Y-18334793D01*
X9057734Y-18449078D02*
X9038687Y-18439555D01*
X9038687Y-18439555D02*
X9029163Y-18430031D01*
X9029163Y-18430031D02*
X9019639Y-18410983D01*
X9019639Y-18410983D02*
X9019639Y-18353840D01*
X9019639Y-18353840D02*
X9029163Y-18334793D01*
X9029163Y-18334793D02*
X9038687Y-18325269D01*
X9038687Y-18325269D02*
X9057734Y-18315745D01*
X9057734Y-18315745D02*
X9086306Y-18315745D01*
X9086306Y-18315745D02*
X9105353Y-18325269D01*
X9105353Y-18325269D02*
X9114877Y-18334793D01*
X9114877Y-18334793D02*
X9124401Y-18353840D01*
X9124401Y-18353840D02*
X9124401Y-18410983D01*
X9124401Y-18410983D02*
X9114877Y-18430031D01*
X9114877Y-18430031D02*
X9105353Y-18439555D01*
X9105353Y-18439555D02*
X9086306Y-18449078D01*
X9086306Y-18449078D02*
X9057734Y-18449078D01*
X9238687Y-18449078D02*
X9219639Y-18439555D01*
X9219639Y-18439555D02*
X9210115Y-18420507D01*
X9210115Y-18420507D02*
X9210115Y-18249078D01*
X9391068Y-18439555D02*
X9372020Y-18449078D01*
X9372020Y-18449078D02*
X9333925Y-18449078D01*
X9333925Y-18449078D02*
X9314877Y-18439555D01*
X9314877Y-18439555D02*
X9305353Y-18420507D01*
X9305353Y-18420507D02*
X9305353Y-18344317D01*
X9305353Y-18344317D02*
X9314877Y-18325269D01*
X9314877Y-18325269D02*
X9333925Y-18315745D01*
X9333925Y-18315745D02*
X9372020Y-18315745D01*
X9372020Y-18315745D02*
X9391068Y-18325269D01*
X9391068Y-18325269D02*
X9400592Y-18344317D01*
X9400592Y-18344317D02*
X9400592Y-18363364D01*
X9400592Y-18363364D02*
X9305353Y-18382412D01*
X9476782Y-18439555D02*
X9495830Y-18449078D01*
X9495830Y-18449078D02*
X9533925Y-18449078D01*
X9533925Y-18449078D02*
X9552973Y-18439555D01*
X9552973Y-18439555D02*
X9562496Y-18420507D01*
X9562496Y-18420507D02*
X9562496Y-18410983D01*
X9562496Y-18410983D02*
X9552973Y-18391936D01*
X9552973Y-18391936D02*
X9533925Y-18382412D01*
X9533925Y-18382412D02*
X9505353Y-18382412D01*
X9505353Y-18382412D02*
X9486306Y-18372888D01*
X9486306Y-18372888D02*
X9476782Y-18353840D01*
X9476782Y-18353840D02*
X9476782Y-18344317D01*
X9476782Y-18344317D02*
X9486306Y-18325269D01*
X9486306Y-18325269D02*
X9505353Y-18315745D01*
X9505353Y-18315745D02*
X9533925Y-18315745D01*
X9533925Y-18315745D02*
X9552973Y-18325269D01*
X9629163Y-18525269D02*
X9638687Y-18515745D01*
X9638687Y-18515745D02*
X9657734Y-18487174D01*
X9657734Y-18487174D02*
X9667258Y-18468126D01*
X9667258Y-18468126D02*
X9676782Y-18439555D01*
X9676782Y-18439555D02*
X9686306Y-18391936D01*
X9686306Y-18391936D02*
X9686306Y-18353840D01*
X9686306Y-18353840D02*
X9676782Y-18306221D01*
X9676782Y-18306221D02*
X9667258Y-18277650D01*
X9667258Y-18277650D02*
X9657734Y-18258602D01*
X9657734Y-18258602D02*
X9638687Y-18230031D01*
X9638687Y-18230031D02*
X9629163Y-18220507D01*
X9991068Y-18525269D02*
X9981544Y-18515745D01*
X9981544Y-18515745D02*
X9962496Y-18487174D01*
X9962496Y-18487174D02*
X9952973Y-18468126D01*
X9952973Y-18468126D02*
X9943449Y-18439555D01*
X9943449Y-18439555D02*
X9933925Y-18391936D01*
X9933925Y-18391936D02*
X9933925Y-18353840D01*
X9933925Y-18353840D02*
X9943449Y-18306221D01*
X9943449Y-18306221D02*
X9952973Y-18277650D01*
X9952973Y-18277650D02*
X9962496Y-18258602D01*
X9962496Y-18258602D02*
X9981544Y-18230031D01*
X9981544Y-18230031D02*
X9991068Y-18220507D01*
X10067258Y-18315745D02*
X10067258Y-18449078D01*
X10067258Y-18334793D02*
X10076782Y-18325269D01*
X10076782Y-18325269D02*
X10095830Y-18315745D01*
X10095830Y-18315745D02*
X10124401Y-18315745D01*
X10124401Y-18315745D02*
X10143449Y-18325269D01*
X10143449Y-18325269D02*
X10152973Y-18344317D01*
X10152973Y-18344317D02*
X10152973Y-18449078D01*
X10276782Y-18449078D02*
X10257734Y-18439555D01*
X10257734Y-18439555D02*
X10248211Y-18430031D01*
X10248211Y-18430031D02*
X10238687Y-18410983D01*
X10238687Y-18410983D02*
X10238687Y-18353840D01*
X10238687Y-18353840D02*
X10248211Y-18334793D01*
X10248211Y-18334793D02*
X10257734Y-18325269D01*
X10257734Y-18325269D02*
X10276782Y-18315745D01*
X10276782Y-18315745D02*
X10305354Y-18315745D01*
X10305354Y-18315745D02*
X10324401Y-18325269D01*
X10324401Y-18325269D02*
X10333925Y-18334793D01*
X10333925Y-18334793D02*
X10343449Y-18353840D01*
X10343449Y-18353840D02*
X10343449Y-18410983D01*
X10343449Y-18410983D02*
X10333925Y-18430031D01*
X10333925Y-18430031D02*
X10324401Y-18439555D01*
X10324401Y-18439555D02*
X10305354Y-18449078D01*
X10305354Y-18449078D02*
X10276782Y-18449078D01*
X10400592Y-18315745D02*
X10476782Y-18315745D01*
X10429163Y-18249078D02*
X10429163Y-18420507D01*
X10429163Y-18420507D02*
X10438687Y-18439555D01*
X10438687Y-18439555D02*
X10457734Y-18449078D01*
X10457734Y-18449078D02*
X10476782Y-18449078D01*
X10695830Y-18315745D02*
X10695830Y-18515745D01*
X10695830Y-18325269D02*
X10714877Y-18315745D01*
X10714877Y-18315745D02*
X10752973Y-18315745D01*
X10752973Y-18315745D02*
X10772020Y-18325269D01*
X10772020Y-18325269D02*
X10781544Y-18334793D01*
X10781544Y-18334793D02*
X10791068Y-18353840D01*
X10791068Y-18353840D02*
X10791068Y-18410983D01*
X10791068Y-18410983D02*
X10781544Y-18430031D01*
X10781544Y-18430031D02*
X10772020Y-18439555D01*
X10772020Y-18439555D02*
X10752973Y-18449078D01*
X10752973Y-18449078D02*
X10714877Y-18449078D01*
X10714877Y-18449078D02*
X10695830Y-18439555D01*
X10905354Y-18449078D02*
X10886306Y-18439555D01*
X10886306Y-18439555D02*
X10876782Y-18420507D01*
X10876782Y-18420507D02*
X10876782Y-18249078D01*
X11067258Y-18449078D02*
X11067258Y-18344317D01*
X11067258Y-18344317D02*
X11057735Y-18325269D01*
X11057735Y-18325269D02*
X11038687Y-18315745D01*
X11038687Y-18315745D02*
X11000592Y-18315745D01*
X11000592Y-18315745D02*
X10981544Y-18325269D01*
X11067258Y-18439555D02*
X11048211Y-18449078D01*
X11048211Y-18449078D02*
X11000592Y-18449078D01*
X11000592Y-18449078D02*
X10981544Y-18439555D01*
X10981544Y-18439555D02*
X10972020Y-18420507D01*
X10972020Y-18420507D02*
X10972020Y-18401459D01*
X10972020Y-18401459D02*
X10981544Y-18382412D01*
X10981544Y-18382412D02*
X11000592Y-18372888D01*
X11000592Y-18372888D02*
X11048211Y-18372888D01*
X11048211Y-18372888D02*
X11067258Y-18363364D01*
X11133925Y-18315745D02*
X11210115Y-18315745D01*
X11162496Y-18249078D02*
X11162496Y-18420507D01*
X11162496Y-18420507D02*
X11172020Y-18439555D01*
X11172020Y-18439555D02*
X11191068Y-18449078D01*
X11191068Y-18449078D02*
X11210115Y-18449078D01*
X11352973Y-18439555D02*
X11333925Y-18449078D01*
X11333925Y-18449078D02*
X11295830Y-18449078D01*
X11295830Y-18449078D02*
X11276782Y-18439555D01*
X11276782Y-18439555D02*
X11267258Y-18420507D01*
X11267258Y-18420507D02*
X11267258Y-18344317D01*
X11267258Y-18344317D02*
X11276782Y-18325269D01*
X11276782Y-18325269D02*
X11295830Y-18315745D01*
X11295830Y-18315745D02*
X11333925Y-18315745D01*
X11333925Y-18315745D02*
X11352973Y-18325269D01*
X11352973Y-18325269D02*
X11362496Y-18344317D01*
X11362496Y-18344317D02*
X11362496Y-18363364D01*
X11362496Y-18363364D02*
X11267258Y-18382412D01*
X11533925Y-18449078D02*
X11533925Y-18249078D01*
X11533925Y-18439555D02*
X11514877Y-18449078D01*
X11514877Y-18449078D02*
X11476782Y-18449078D01*
X11476782Y-18449078D02*
X11457734Y-18439555D01*
X11457734Y-18439555D02*
X11448211Y-18430031D01*
X11448211Y-18430031D02*
X11438687Y-18410983D01*
X11438687Y-18410983D02*
X11438687Y-18353840D01*
X11438687Y-18353840D02*
X11448211Y-18334793D01*
X11448211Y-18334793D02*
X11457734Y-18325269D01*
X11457734Y-18325269D02*
X11476782Y-18315745D01*
X11476782Y-18315745D02*
X11514877Y-18315745D01*
X11514877Y-18315745D02*
X11533925Y-18325269D01*
X11610115Y-18525269D02*
X11619639Y-18515745D01*
X11619639Y-18515745D02*
X11638687Y-18487174D01*
X11638687Y-18487174D02*
X11648211Y-18468126D01*
X11648211Y-18468126D02*
X11657734Y-18439555D01*
X11657734Y-18439555D02*
X11667258Y-18391936D01*
X11667258Y-18391936D02*
X11667258Y-18353840D01*
X11667258Y-18353840D02*
X11657734Y-18306221D01*
X11657734Y-18306221D02*
X11648211Y-18277650D01*
X11648211Y-18277650D02*
X11638687Y-18258602D01*
X11638687Y-18258602D02*
X11619639Y-18230031D01*
X11619639Y-18230031D02*
X11610115Y-18220507D01*
D13*
X4828472Y-18689467D02*
X4828472Y-18565722D01*
X4704728Y-18565722D01*
X4704728Y-18689467D01*
X4828472Y-18689467D01*
D10*
X5219639Y-18719078D02*
X5105353Y-18719078D01*
X5162496Y-18719078D02*
X5162496Y-18519078D01*
X5162496Y-18519078D02*
X5143448Y-18547650D01*
X5143448Y-18547650D02*
X5124401Y-18566697D01*
X5124401Y-18566697D02*
X5105353Y-18576221D01*
X5305353Y-18700031D02*
X5314877Y-18709555D01*
X5314877Y-18709555D02*
X5305353Y-18719078D01*
X5305353Y-18719078D02*
X5295829Y-18709555D01*
X5295829Y-18709555D02*
X5305353Y-18700031D01*
X5305353Y-18700031D02*
X5305353Y-18719078D01*
X5381544Y-18519078D02*
X5514877Y-18519078D01*
X5514877Y-18519078D02*
X5429163Y-18719078D01*
X5686305Y-18519078D02*
X5591067Y-18519078D01*
X5591067Y-18519078D02*
X5581544Y-18614317D01*
X5581544Y-18614317D02*
X5591067Y-18604793D01*
X5591067Y-18604793D02*
X5610115Y-18595269D01*
X5610115Y-18595269D02*
X5657734Y-18595269D01*
X5657734Y-18595269D02*
X5676782Y-18604793D01*
X5676782Y-18604793D02*
X5686305Y-18614317D01*
X5686305Y-18614317D02*
X5695829Y-18633364D01*
X5695829Y-18633364D02*
X5695829Y-18680983D01*
X5695829Y-18680983D02*
X5686305Y-18700031D01*
X5686305Y-18700031D02*
X5676782Y-18709555D01*
X5676782Y-18709555D02*
X5657734Y-18719078D01*
X5657734Y-18719078D02*
X5610115Y-18719078D01*
X5610115Y-18719078D02*
X5591067Y-18709555D01*
X5591067Y-18709555D02*
X5581544Y-18700031D01*
X5819639Y-18519078D02*
X5838686Y-18519078D01*
X5838686Y-18519078D02*
X5857734Y-18528602D01*
X5857734Y-18528602D02*
X5867258Y-18538126D01*
X5867258Y-18538126D02*
X5876782Y-18557174D01*
X5876782Y-18557174D02*
X5886305Y-18595269D01*
X5886305Y-18595269D02*
X5886305Y-18642888D01*
X5886305Y-18642888D02*
X5876782Y-18680983D01*
X5876782Y-18680983D02*
X5867258Y-18700031D01*
X5867258Y-18700031D02*
X5857734Y-18709555D01*
X5857734Y-18709555D02*
X5838686Y-18719078D01*
X5838686Y-18719078D02*
X5819639Y-18719078D01*
X5819639Y-18719078D02*
X5800591Y-18709555D01*
X5800591Y-18709555D02*
X5791067Y-18700031D01*
X5791067Y-18700031D02*
X5781543Y-18680983D01*
X5781543Y-18680983D02*
X5772020Y-18642888D01*
X5772020Y-18642888D02*
X5772020Y-18595269D01*
X5772020Y-18595269D02*
X5781543Y-18557174D01*
X5781543Y-18557174D02*
X5791067Y-18538126D01*
X5791067Y-18538126D02*
X5800591Y-18528602D01*
X5800591Y-18528602D02*
X5819639Y-18519078D01*
X5972020Y-18719078D02*
X5972020Y-18585745D01*
X5972020Y-18604793D02*
X5981543Y-18595269D01*
X5981543Y-18595269D02*
X6000591Y-18585745D01*
X6000591Y-18585745D02*
X6029163Y-18585745D01*
X6029163Y-18585745D02*
X6048210Y-18595269D01*
X6048210Y-18595269D02*
X6057734Y-18614317D01*
X6057734Y-18614317D02*
X6057734Y-18719078D01*
X6057734Y-18614317D02*
X6067258Y-18595269D01*
X6067258Y-18595269D02*
X6086305Y-18585745D01*
X6086305Y-18585745D02*
X6114877Y-18585745D01*
X6114877Y-18585745D02*
X6133924Y-18595269D01*
X6133924Y-18595269D02*
X6143448Y-18614317D01*
X6143448Y-18614317D02*
X6143448Y-18719078D01*
X6238686Y-18719078D02*
X6238686Y-18585745D01*
X6238686Y-18604793D02*
X6248210Y-18595269D01*
X6248210Y-18595269D02*
X6267258Y-18585745D01*
X6267258Y-18585745D02*
X6295829Y-18585745D01*
X6295829Y-18585745D02*
X6314877Y-18595269D01*
X6314877Y-18595269D02*
X6324401Y-18614317D01*
X6324401Y-18614317D02*
X6324401Y-18719078D01*
X6324401Y-18614317D02*
X6333924Y-18595269D01*
X6333924Y-18595269D02*
X6352972Y-18585745D01*
X6352972Y-18585745D02*
X6381543Y-18585745D01*
X6381543Y-18585745D02*
X6400591Y-18595269D01*
X6400591Y-18595269D02*
X6410115Y-18614317D01*
X6410115Y-18614317D02*
X6410115Y-18719078D01*
X6800591Y-18509555D02*
X6629163Y-18766697D01*
X7057734Y-18519078D02*
X7076782Y-18519078D01*
X7076782Y-18519078D02*
X7095829Y-18528602D01*
X7095829Y-18528602D02*
X7105353Y-18538126D01*
X7105353Y-18538126D02*
X7114877Y-18557174D01*
X7114877Y-18557174D02*
X7124401Y-18595269D01*
X7124401Y-18595269D02*
X7124401Y-18642888D01*
X7124401Y-18642888D02*
X7114877Y-18680983D01*
X7114877Y-18680983D02*
X7105353Y-18700031D01*
X7105353Y-18700031D02*
X7095829Y-18709555D01*
X7095829Y-18709555D02*
X7076782Y-18719078D01*
X7076782Y-18719078D02*
X7057734Y-18719078D01*
X7057734Y-18719078D02*
X7038686Y-18709555D01*
X7038686Y-18709555D02*
X7029163Y-18700031D01*
X7029163Y-18700031D02*
X7019639Y-18680983D01*
X7019639Y-18680983D02*
X7010115Y-18642888D01*
X7010115Y-18642888D02*
X7010115Y-18595269D01*
X7010115Y-18595269D02*
X7019639Y-18557174D01*
X7019639Y-18557174D02*
X7029163Y-18538126D01*
X7029163Y-18538126D02*
X7038686Y-18528602D01*
X7038686Y-18528602D02*
X7057734Y-18519078D01*
X7210115Y-18700031D02*
X7219639Y-18709555D01*
X7219639Y-18709555D02*
X7210115Y-18719078D01*
X7210115Y-18719078D02*
X7200591Y-18709555D01*
X7200591Y-18709555D02*
X7210115Y-18700031D01*
X7210115Y-18700031D02*
X7210115Y-18719078D01*
X7343448Y-18519078D02*
X7362496Y-18519078D01*
X7362496Y-18519078D02*
X7381544Y-18528602D01*
X7381544Y-18528602D02*
X7391067Y-18538126D01*
X7391067Y-18538126D02*
X7400591Y-18557174D01*
X7400591Y-18557174D02*
X7410115Y-18595269D01*
X7410115Y-18595269D02*
X7410115Y-18642888D01*
X7410115Y-18642888D02*
X7400591Y-18680983D01*
X7400591Y-18680983D02*
X7391067Y-18700031D01*
X7391067Y-18700031D02*
X7381544Y-18709555D01*
X7381544Y-18709555D02*
X7362496Y-18719078D01*
X7362496Y-18719078D02*
X7343448Y-18719078D01*
X7343448Y-18719078D02*
X7324401Y-18709555D01*
X7324401Y-18709555D02*
X7314877Y-18700031D01*
X7314877Y-18700031D02*
X7305353Y-18680983D01*
X7305353Y-18680983D02*
X7295829Y-18642888D01*
X7295829Y-18642888D02*
X7295829Y-18595269D01*
X7295829Y-18595269D02*
X7305353Y-18557174D01*
X7305353Y-18557174D02*
X7314877Y-18538126D01*
X7314877Y-18538126D02*
X7324401Y-18528602D01*
X7324401Y-18528602D02*
X7343448Y-18519078D01*
X7581544Y-18519078D02*
X7543448Y-18519078D01*
X7543448Y-18519078D02*
X7524401Y-18528602D01*
X7524401Y-18528602D02*
X7514877Y-18538126D01*
X7514877Y-18538126D02*
X7495829Y-18566697D01*
X7495829Y-18566697D02*
X7486306Y-18604793D01*
X7486306Y-18604793D02*
X7486306Y-18680983D01*
X7486306Y-18680983D02*
X7495829Y-18700031D01*
X7495829Y-18700031D02*
X7505353Y-18709555D01*
X7505353Y-18709555D02*
X7524401Y-18719078D01*
X7524401Y-18719078D02*
X7562496Y-18719078D01*
X7562496Y-18719078D02*
X7581544Y-18709555D01*
X7581544Y-18709555D02*
X7591067Y-18700031D01*
X7591067Y-18700031D02*
X7600591Y-18680983D01*
X7600591Y-18680983D02*
X7600591Y-18633364D01*
X7600591Y-18633364D02*
X7591067Y-18614317D01*
X7591067Y-18614317D02*
X7581544Y-18604793D01*
X7581544Y-18604793D02*
X7562496Y-18595269D01*
X7562496Y-18595269D02*
X7524401Y-18595269D01*
X7524401Y-18595269D02*
X7505353Y-18604793D01*
X7505353Y-18604793D02*
X7495829Y-18614317D01*
X7495829Y-18614317D02*
X7486306Y-18633364D01*
X7714877Y-18604793D02*
X7695829Y-18595269D01*
X7695829Y-18595269D02*
X7686306Y-18585745D01*
X7686306Y-18585745D02*
X7676782Y-18566697D01*
X7676782Y-18566697D02*
X7676782Y-18557174D01*
X7676782Y-18557174D02*
X7686306Y-18538126D01*
X7686306Y-18538126D02*
X7695829Y-18528602D01*
X7695829Y-18528602D02*
X7714877Y-18519078D01*
X7714877Y-18519078D02*
X7752972Y-18519078D01*
X7752972Y-18519078D02*
X7772020Y-18528602D01*
X7772020Y-18528602D02*
X7781544Y-18538126D01*
X7781544Y-18538126D02*
X7791067Y-18557174D01*
X7791067Y-18557174D02*
X7791067Y-18566697D01*
X7791067Y-18566697D02*
X7781544Y-18585745D01*
X7781544Y-18585745D02*
X7772020Y-18595269D01*
X7772020Y-18595269D02*
X7752972Y-18604793D01*
X7752972Y-18604793D02*
X7714877Y-18604793D01*
X7714877Y-18604793D02*
X7695829Y-18614317D01*
X7695829Y-18614317D02*
X7686306Y-18623840D01*
X7686306Y-18623840D02*
X7676782Y-18642888D01*
X7676782Y-18642888D02*
X7676782Y-18680983D01*
X7676782Y-18680983D02*
X7686306Y-18700031D01*
X7686306Y-18700031D02*
X7695829Y-18709555D01*
X7695829Y-18709555D02*
X7714877Y-18719078D01*
X7714877Y-18719078D02*
X7752972Y-18719078D01*
X7752972Y-18719078D02*
X7772020Y-18709555D01*
X7772020Y-18709555D02*
X7781544Y-18700031D01*
X7781544Y-18700031D02*
X7791067Y-18680983D01*
X7791067Y-18680983D02*
X7791067Y-18642888D01*
X7791067Y-18642888D02*
X7781544Y-18623840D01*
X7781544Y-18623840D02*
X7772020Y-18614317D01*
X7772020Y-18614317D02*
X7752972Y-18604793D01*
X7886306Y-18719078D02*
X7924401Y-18719078D01*
X7924401Y-18719078D02*
X7943448Y-18709555D01*
X7943448Y-18709555D02*
X7952972Y-18700031D01*
X7952972Y-18700031D02*
X7972020Y-18671459D01*
X7972020Y-18671459D02*
X7981544Y-18633364D01*
X7981544Y-18633364D02*
X7981544Y-18557174D01*
X7981544Y-18557174D02*
X7972020Y-18538126D01*
X7972020Y-18538126D02*
X7962496Y-18528602D01*
X7962496Y-18528602D02*
X7943448Y-18519078D01*
X7943448Y-18519078D02*
X7905353Y-18519078D01*
X7905353Y-18519078D02*
X7886306Y-18528602D01*
X7886306Y-18528602D02*
X7876782Y-18538126D01*
X7876782Y-18538126D02*
X7867258Y-18557174D01*
X7867258Y-18557174D02*
X7867258Y-18604793D01*
X7867258Y-18604793D02*
X7876782Y-18623840D01*
X7876782Y-18623840D02*
X7886306Y-18633364D01*
X7886306Y-18633364D02*
X7905353Y-18642888D01*
X7905353Y-18642888D02*
X7943448Y-18642888D01*
X7943448Y-18642888D02*
X7962496Y-18633364D01*
X7962496Y-18633364D02*
X7972020Y-18623840D01*
X7972020Y-18623840D02*
X7981544Y-18604793D01*
X8057734Y-18519078D02*
X8057734Y-18557174D01*
X8133925Y-18519078D02*
X8133925Y-18557174D01*
X8429163Y-18795269D02*
X8419639Y-18785745D01*
X8419639Y-18785745D02*
X8400591Y-18757174D01*
X8400591Y-18757174D02*
X8391068Y-18738126D01*
X8391068Y-18738126D02*
X8381544Y-18709555D01*
X8381544Y-18709555D02*
X8372020Y-18661936D01*
X8372020Y-18661936D02*
X8372020Y-18623840D01*
X8372020Y-18623840D02*
X8381544Y-18576221D01*
X8381544Y-18576221D02*
X8391068Y-18547650D01*
X8391068Y-18547650D02*
X8400591Y-18528602D01*
X8400591Y-18528602D02*
X8419639Y-18500031D01*
X8419639Y-18500031D02*
X8429163Y-18490507D01*
X8591068Y-18585745D02*
X8591068Y-18719078D01*
X8543449Y-18509555D02*
X8495830Y-18652412D01*
X8495830Y-18652412D02*
X8619639Y-18652412D01*
X8686306Y-18538126D02*
X8695830Y-18528602D01*
X8695830Y-18528602D02*
X8714877Y-18519078D01*
X8714877Y-18519078D02*
X8762496Y-18519078D01*
X8762496Y-18519078D02*
X8781544Y-18528602D01*
X8781544Y-18528602D02*
X8791068Y-18538126D01*
X8791068Y-18538126D02*
X8800591Y-18557174D01*
X8800591Y-18557174D02*
X8800591Y-18576221D01*
X8800591Y-18576221D02*
X8791068Y-18604793D01*
X8791068Y-18604793D02*
X8676782Y-18719078D01*
X8676782Y-18719078D02*
X8800591Y-18719078D01*
X9038687Y-18719078D02*
X9038687Y-18519078D01*
X9124401Y-18719078D02*
X9124401Y-18614317D01*
X9124401Y-18614317D02*
X9114877Y-18595269D01*
X9114877Y-18595269D02*
X9095830Y-18585745D01*
X9095830Y-18585745D02*
X9067258Y-18585745D01*
X9067258Y-18585745D02*
X9048211Y-18595269D01*
X9048211Y-18595269D02*
X9038687Y-18604793D01*
X9248211Y-18719078D02*
X9229163Y-18709555D01*
X9229163Y-18709555D02*
X9219639Y-18700031D01*
X9219639Y-18700031D02*
X9210115Y-18680983D01*
X9210115Y-18680983D02*
X9210115Y-18623840D01*
X9210115Y-18623840D02*
X9219639Y-18604793D01*
X9219639Y-18604793D02*
X9229163Y-18595269D01*
X9229163Y-18595269D02*
X9248211Y-18585745D01*
X9248211Y-18585745D02*
X9276782Y-18585745D01*
X9276782Y-18585745D02*
X9295830Y-18595269D01*
X9295830Y-18595269D02*
X9305353Y-18604793D01*
X9305353Y-18604793D02*
X9314877Y-18623840D01*
X9314877Y-18623840D02*
X9314877Y-18680983D01*
X9314877Y-18680983D02*
X9305353Y-18700031D01*
X9305353Y-18700031D02*
X9295830Y-18709555D01*
X9295830Y-18709555D02*
X9276782Y-18719078D01*
X9276782Y-18719078D02*
X9248211Y-18719078D01*
X9429163Y-18719078D02*
X9410115Y-18709555D01*
X9410115Y-18709555D02*
X9400592Y-18690507D01*
X9400592Y-18690507D02*
X9400592Y-18519078D01*
X9581544Y-18709555D02*
X9562496Y-18719078D01*
X9562496Y-18719078D02*
X9524401Y-18719078D01*
X9524401Y-18719078D02*
X9505353Y-18709555D01*
X9505353Y-18709555D02*
X9495830Y-18690507D01*
X9495830Y-18690507D02*
X9495830Y-18614317D01*
X9495830Y-18614317D02*
X9505353Y-18595269D01*
X9505353Y-18595269D02*
X9524401Y-18585745D01*
X9524401Y-18585745D02*
X9562496Y-18585745D01*
X9562496Y-18585745D02*
X9581544Y-18595269D01*
X9581544Y-18595269D02*
X9591068Y-18614317D01*
X9591068Y-18614317D02*
X9591068Y-18633364D01*
X9591068Y-18633364D02*
X9495830Y-18652412D01*
X9667258Y-18709555D02*
X9686306Y-18719078D01*
X9686306Y-18719078D02*
X9724401Y-18719078D01*
X9724401Y-18719078D02*
X9743449Y-18709555D01*
X9743449Y-18709555D02*
X9752973Y-18690507D01*
X9752973Y-18690507D02*
X9752973Y-18680983D01*
X9752973Y-18680983D02*
X9743449Y-18661936D01*
X9743449Y-18661936D02*
X9724401Y-18652412D01*
X9724401Y-18652412D02*
X9695830Y-18652412D01*
X9695830Y-18652412D02*
X9676782Y-18642888D01*
X9676782Y-18642888D02*
X9667258Y-18623840D01*
X9667258Y-18623840D02*
X9667258Y-18614317D01*
X9667258Y-18614317D02*
X9676782Y-18595269D01*
X9676782Y-18595269D02*
X9695830Y-18585745D01*
X9695830Y-18585745D02*
X9724401Y-18585745D01*
X9724401Y-18585745D02*
X9743449Y-18595269D01*
X9819639Y-18795269D02*
X9829163Y-18785745D01*
X9829163Y-18785745D02*
X9848211Y-18757174D01*
X9848211Y-18757174D02*
X9857734Y-18738126D01*
X9857734Y-18738126D02*
X9867258Y-18709555D01*
X9867258Y-18709555D02*
X9876782Y-18661936D01*
X9876782Y-18661936D02*
X9876782Y-18623840D01*
X9876782Y-18623840D02*
X9867258Y-18576221D01*
X9867258Y-18576221D02*
X9857734Y-18547650D01*
X9857734Y-18547650D02*
X9848211Y-18528602D01*
X9848211Y-18528602D02*
X9829163Y-18500031D01*
X9829163Y-18500031D02*
X9819639Y-18490507D01*
X10181544Y-18795269D02*
X10172020Y-18785745D01*
X10172020Y-18785745D02*
X10152973Y-18757174D01*
X10152973Y-18757174D02*
X10143449Y-18738126D01*
X10143449Y-18738126D02*
X10133925Y-18709555D01*
X10133925Y-18709555D02*
X10124401Y-18661936D01*
X10124401Y-18661936D02*
X10124401Y-18623840D01*
X10124401Y-18623840D02*
X10133925Y-18576221D01*
X10133925Y-18576221D02*
X10143449Y-18547650D01*
X10143449Y-18547650D02*
X10152973Y-18528602D01*
X10152973Y-18528602D02*
X10172020Y-18500031D01*
X10172020Y-18500031D02*
X10181544Y-18490507D01*
X10257734Y-18585745D02*
X10257734Y-18719078D01*
X10257734Y-18604793D02*
X10267258Y-18595269D01*
X10267258Y-18595269D02*
X10286306Y-18585745D01*
X10286306Y-18585745D02*
X10314877Y-18585745D01*
X10314877Y-18585745D02*
X10333925Y-18595269D01*
X10333925Y-18595269D02*
X10343449Y-18614317D01*
X10343449Y-18614317D02*
X10343449Y-18719078D01*
X10467258Y-18719078D02*
X10448211Y-18709555D01*
X10448211Y-18709555D02*
X10438687Y-18700031D01*
X10438687Y-18700031D02*
X10429163Y-18680983D01*
X10429163Y-18680983D02*
X10429163Y-18623840D01*
X10429163Y-18623840D02*
X10438687Y-18604793D01*
X10438687Y-18604793D02*
X10448211Y-18595269D01*
X10448211Y-18595269D02*
X10467258Y-18585745D01*
X10467258Y-18585745D02*
X10495830Y-18585745D01*
X10495830Y-18585745D02*
X10514877Y-18595269D01*
X10514877Y-18595269D02*
X10524401Y-18604793D01*
X10524401Y-18604793D02*
X10533925Y-18623840D01*
X10533925Y-18623840D02*
X10533925Y-18680983D01*
X10533925Y-18680983D02*
X10524401Y-18700031D01*
X10524401Y-18700031D02*
X10514877Y-18709555D01*
X10514877Y-18709555D02*
X10495830Y-18719078D01*
X10495830Y-18719078D02*
X10467258Y-18719078D01*
X10591068Y-18585745D02*
X10667258Y-18585745D01*
X10619639Y-18519078D02*
X10619639Y-18690507D01*
X10619639Y-18690507D02*
X10629163Y-18709555D01*
X10629163Y-18709555D02*
X10648211Y-18719078D01*
X10648211Y-18719078D02*
X10667258Y-18719078D01*
X10886306Y-18585745D02*
X10886306Y-18785745D01*
X10886306Y-18595269D02*
X10905354Y-18585745D01*
X10905354Y-18585745D02*
X10943449Y-18585745D01*
X10943449Y-18585745D02*
X10962496Y-18595269D01*
X10962496Y-18595269D02*
X10972020Y-18604793D01*
X10972020Y-18604793D02*
X10981544Y-18623840D01*
X10981544Y-18623840D02*
X10981544Y-18680983D01*
X10981544Y-18680983D02*
X10972020Y-18700031D01*
X10972020Y-18700031D02*
X10962496Y-18709555D01*
X10962496Y-18709555D02*
X10943449Y-18719078D01*
X10943449Y-18719078D02*
X10905354Y-18719078D01*
X10905354Y-18719078D02*
X10886306Y-18709555D01*
X11095830Y-18719078D02*
X11076782Y-18709555D01*
X11076782Y-18709555D02*
X11067258Y-18690507D01*
X11067258Y-18690507D02*
X11067258Y-18519078D01*
X11257734Y-18719078D02*
X11257734Y-18614317D01*
X11257734Y-18614317D02*
X11248211Y-18595269D01*
X11248211Y-18595269D02*
X11229163Y-18585745D01*
X11229163Y-18585745D02*
X11191068Y-18585745D01*
X11191068Y-18585745D02*
X11172020Y-18595269D01*
X11257734Y-18709555D02*
X11238687Y-18719078D01*
X11238687Y-18719078D02*
X11191068Y-18719078D01*
X11191068Y-18719078D02*
X11172020Y-18709555D01*
X11172020Y-18709555D02*
X11162496Y-18690507D01*
X11162496Y-18690507D02*
X11162496Y-18671459D01*
X11162496Y-18671459D02*
X11172020Y-18652412D01*
X11172020Y-18652412D02*
X11191068Y-18642888D01*
X11191068Y-18642888D02*
X11238687Y-18642888D01*
X11238687Y-18642888D02*
X11257734Y-18633364D01*
X11324401Y-18585745D02*
X11400592Y-18585745D01*
X11352973Y-18519078D02*
X11352973Y-18690507D01*
X11352973Y-18690507D02*
X11362496Y-18709555D01*
X11362496Y-18709555D02*
X11381544Y-18719078D01*
X11381544Y-18719078D02*
X11400592Y-18719078D01*
X11543449Y-18709555D02*
X11524401Y-18719078D01*
X11524401Y-18719078D02*
X11486306Y-18719078D01*
X11486306Y-18719078D02*
X11467258Y-18709555D01*
X11467258Y-18709555D02*
X11457734Y-18690507D01*
X11457734Y-18690507D02*
X11457734Y-18614317D01*
X11457734Y-18614317D02*
X11467258Y-18595269D01*
X11467258Y-18595269D02*
X11486306Y-18585745D01*
X11486306Y-18585745D02*
X11524401Y-18585745D01*
X11524401Y-18585745D02*
X11543449Y-18595269D01*
X11543449Y-18595269D02*
X11552973Y-18614317D01*
X11552973Y-18614317D02*
X11552973Y-18633364D01*
X11552973Y-18633364D02*
X11457734Y-18652412D01*
X11724401Y-18719078D02*
X11724401Y-18519078D01*
X11724401Y-18709555D02*
X11705354Y-18719078D01*
X11705354Y-18719078D02*
X11667258Y-18719078D01*
X11667258Y-18719078D02*
X11648211Y-18709555D01*
X11648211Y-18709555D02*
X11638687Y-18700031D01*
X11638687Y-18700031D02*
X11629163Y-18680983D01*
X11629163Y-18680983D02*
X11629163Y-18623840D01*
X11629163Y-18623840D02*
X11638687Y-18604793D01*
X11638687Y-18604793D02*
X11648211Y-18595269D01*
X11648211Y-18595269D02*
X11667258Y-18585745D01*
X11667258Y-18585745D02*
X11705354Y-18585745D01*
X11705354Y-18585745D02*
X11724401Y-18595269D01*
X11800592Y-18795269D02*
X11810115Y-18785745D01*
X11810115Y-18785745D02*
X11829163Y-18757174D01*
X11829163Y-18757174D02*
X11838687Y-18738126D01*
X11838687Y-18738126D02*
X11848211Y-18709555D01*
X11848211Y-18709555D02*
X11857734Y-18661936D01*
X11857734Y-18661936D02*
X11857734Y-18623840D01*
X11857734Y-18623840D02*
X11848211Y-18576221D01*
X11848211Y-18576221D02*
X11838687Y-18547650D01*
X11838687Y-18547650D02*
X11829163Y-18528602D01*
X11829163Y-18528602D02*
X11810115Y-18500031D01*
X11810115Y-18500031D02*
X11800592Y-18490507D01*
X4754100Y-19022595D02*
X4854100Y-18922595D01*
X4754100Y-18822595D01*
X4654100Y-18922595D01*
X4754100Y-19022595D01*
X5095829Y-18814078D02*
X5219639Y-18814078D01*
X5219639Y-18814078D02*
X5152972Y-18890269D01*
X5152972Y-18890269D02*
X5181544Y-18890269D01*
X5181544Y-18890269D02*
X5200591Y-18899793D01*
X5200591Y-18899793D02*
X5210115Y-18909317D01*
X5210115Y-18909317D02*
X5219639Y-18928364D01*
X5219639Y-18928364D02*
X5219639Y-18975983D01*
X5219639Y-18975983D02*
X5210115Y-18995031D01*
X5210115Y-18995031D02*
X5200591Y-19004555D01*
X5200591Y-19004555D02*
X5181544Y-19014078D01*
X5181544Y-19014078D02*
X5124401Y-19014078D01*
X5124401Y-19014078D02*
X5105353Y-19004555D01*
X5105353Y-19004555D02*
X5095829Y-18995031D01*
X5305353Y-18995031D02*
X5314877Y-19004555D01*
X5314877Y-19004555D02*
X5305353Y-19014078D01*
X5305353Y-19014078D02*
X5295829Y-19004555D01*
X5295829Y-19004555D02*
X5305353Y-18995031D01*
X5305353Y-18995031D02*
X5305353Y-19014078D01*
X5438686Y-18814078D02*
X5457734Y-18814078D01*
X5457734Y-18814078D02*
X5476782Y-18823602D01*
X5476782Y-18823602D02*
X5486305Y-18833126D01*
X5486305Y-18833126D02*
X5495829Y-18852174D01*
X5495829Y-18852174D02*
X5505353Y-18890269D01*
X5505353Y-18890269D02*
X5505353Y-18937888D01*
X5505353Y-18937888D02*
X5495829Y-18975983D01*
X5495829Y-18975983D02*
X5486305Y-18995031D01*
X5486305Y-18995031D02*
X5476782Y-19004555D01*
X5476782Y-19004555D02*
X5457734Y-19014078D01*
X5457734Y-19014078D02*
X5438686Y-19014078D01*
X5438686Y-19014078D02*
X5419639Y-19004555D01*
X5419639Y-19004555D02*
X5410115Y-18995031D01*
X5410115Y-18995031D02*
X5400591Y-18975983D01*
X5400591Y-18975983D02*
X5391067Y-18937888D01*
X5391067Y-18937888D02*
X5391067Y-18890269D01*
X5391067Y-18890269D02*
X5400591Y-18852174D01*
X5400591Y-18852174D02*
X5410115Y-18833126D01*
X5410115Y-18833126D02*
X5419639Y-18823602D01*
X5419639Y-18823602D02*
X5438686Y-18814078D01*
X5676782Y-18880745D02*
X5676782Y-19014078D01*
X5629162Y-18804555D02*
X5581544Y-18947412D01*
X5581544Y-18947412D02*
X5705353Y-18947412D01*
X5810115Y-18899793D02*
X5791067Y-18890269D01*
X5791067Y-18890269D02*
X5781543Y-18880745D01*
X5781543Y-18880745D02*
X5772020Y-18861697D01*
X5772020Y-18861697D02*
X5772020Y-18852174D01*
X5772020Y-18852174D02*
X5781543Y-18833126D01*
X5781543Y-18833126D02*
X5791067Y-18823602D01*
X5791067Y-18823602D02*
X5810115Y-18814078D01*
X5810115Y-18814078D02*
X5848210Y-18814078D01*
X5848210Y-18814078D02*
X5867258Y-18823602D01*
X5867258Y-18823602D02*
X5876782Y-18833126D01*
X5876782Y-18833126D02*
X5886305Y-18852174D01*
X5886305Y-18852174D02*
X5886305Y-18861697D01*
X5886305Y-18861697D02*
X5876782Y-18880745D01*
X5876782Y-18880745D02*
X5867258Y-18890269D01*
X5867258Y-18890269D02*
X5848210Y-18899793D01*
X5848210Y-18899793D02*
X5810115Y-18899793D01*
X5810115Y-18899793D02*
X5791067Y-18909317D01*
X5791067Y-18909317D02*
X5781543Y-18918840D01*
X5781543Y-18918840D02*
X5772020Y-18937888D01*
X5772020Y-18937888D02*
X5772020Y-18975983D01*
X5772020Y-18975983D02*
X5781543Y-18995031D01*
X5781543Y-18995031D02*
X5791067Y-19004555D01*
X5791067Y-19004555D02*
X5810115Y-19014078D01*
X5810115Y-19014078D02*
X5848210Y-19014078D01*
X5848210Y-19014078D02*
X5867258Y-19004555D01*
X5867258Y-19004555D02*
X5876782Y-18995031D01*
X5876782Y-18995031D02*
X5886305Y-18975983D01*
X5886305Y-18975983D02*
X5886305Y-18937888D01*
X5886305Y-18937888D02*
X5876782Y-18918840D01*
X5876782Y-18918840D02*
X5867258Y-18909317D01*
X5867258Y-18909317D02*
X5848210Y-18899793D01*
X5972020Y-19014078D02*
X5972020Y-18880745D01*
X5972020Y-18899793D02*
X5981543Y-18890269D01*
X5981543Y-18890269D02*
X6000591Y-18880745D01*
X6000591Y-18880745D02*
X6029163Y-18880745D01*
X6029163Y-18880745D02*
X6048210Y-18890269D01*
X6048210Y-18890269D02*
X6057734Y-18909317D01*
X6057734Y-18909317D02*
X6057734Y-19014078D01*
X6057734Y-18909317D02*
X6067258Y-18890269D01*
X6067258Y-18890269D02*
X6086305Y-18880745D01*
X6086305Y-18880745D02*
X6114877Y-18880745D01*
X6114877Y-18880745D02*
X6133924Y-18890269D01*
X6133924Y-18890269D02*
X6143448Y-18909317D01*
X6143448Y-18909317D02*
X6143448Y-19014078D01*
X6238686Y-19014078D02*
X6238686Y-18880745D01*
X6238686Y-18899793D02*
X6248210Y-18890269D01*
X6248210Y-18890269D02*
X6267258Y-18880745D01*
X6267258Y-18880745D02*
X6295829Y-18880745D01*
X6295829Y-18880745D02*
X6314877Y-18890269D01*
X6314877Y-18890269D02*
X6324401Y-18909317D01*
X6324401Y-18909317D02*
X6324401Y-19014078D01*
X6324401Y-18909317D02*
X6333924Y-18890269D01*
X6333924Y-18890269D02*
X6352972Y-18880745D01*
X6352972Y-18880745D02*
X6381543Y-18880745D01*
X6381543Y-18880745D02*
X6400591Y-18890269D01*
X6400591Y-18890269D02*
X6410115Y-18909317D01*
X6410115Y-18909317D02*
X6410115Y-19014078D01*
X6800591Y-18804555D02*
X6629163Y-19061697D01*
X7057734Y-18814078D02*
X7076782Y-18814078D01*
X7076782Y-18814078D02*
X7095829Y-18823602D01*
X7095829Y-18823602D02*
X7105353Y-18833126D01*
X7105353Y-18833126D02*
X7114877Y-18852174D01*
X7114877Y-18852174D02*
X7124401Y-18890269D01*
X7124401Y-18890269D02*
X7124401Y-18937888D01*
X7124401Y-18937888D02*
X7114877Y-18975983D01*
X7114877Y-18975983D02*
X7105353Y-18995031D01*
X7105353Y-18995031D02*
X7095829Y-19004555D01*
X7095829Y-19004555D02*
X7076782Y-19014078D01*
X7076782Y-19014078D02*
X7057734Y-19014078D01*
X7057734Y-19014078D02*
X7038686Y-19004555D01*
X7038686Y-19004555D02*
X7029163Y-18995031D01*
X7029163Y-18995031D02*
X7019639Y-18975983D01*
X7019639Y-18975983D02*
X7010115Y-18937888D01*
X7010115Y-18937888D02*
X7010115Y-18890269D01*
X7010115Y-18890269D02*
X7019639Y-18852174D01*
X7019639Y-18852174D02*
X7029163Y-18833126D01*
X7029163Y-18833126D02*
X7038686Y-18823602D01*
X7038686Y-18823602D02*
X7057734Y-18814078D01*
X7210115Y-18995031D02*
X7219639Y-19004555D01*
X7219639Y-19004555D02*
X7210115Y-19014078D01*
X7210115Y-19014078D02*
X7200591Y-19004555D01*
X7200591Y-19004555D02*
X7210115Y-18995031D01*
X7210115Y-18995031D02*
X7210115Y-19014078D01*
X7410115Y-19014078D02*
X7295829Y-19014078D01*
X7352972Y-19014078D02*
X7352972Y-18814078D01*
X7352972Y-18814078D02*
X7333925Y-18842650D01*
X7333925Y-18842650D02*
X7314877Y-18861697D01*
X7314877Y-18861697D02*
X7295829Y-18871221D01*
X7486306Y-18833126D02*
X7495829Y-18823602D01*
X7495829Y-18823602D02*
X7514877Y-18814078D01*
X7514877Y-18814078D02*
X7562496Y-18814078D01*
X7562496Y-18814078D02*
X7581544Y-18823602D01*
X7581544Y-18823602D02*
X7591067Y-18833126D01*
X7591067Y-18833126D02*
X7600591Y-18852174D01*
X7600591Y-18852174D02*
X7600591Y-18871221D01*
X7600591Y-18871221D02*
X7591067Y-18899793D01*
X7591067Y-18899793D02*
X7476782Y-19014078D01*
X7476782Y-19014078D02*
X7600591Y-19014078D01*
X7724401Y-18814078D02*
X7743448Y-18814078D01*
X7743448Y-18814078D02*
X7762496Y-18823602D01*
X7762496Y-18823602D02*
X7772020Y-18833126D01*
X7772020Y-18833126D02*
X7781544Y-18852174D01*
X7781544Y-18852174D02*
X7791067Y-18890269D01*
X7791067Y-18890269D02*
X7791067Y-18937888D01*
X7791067Y-18937888D02*
X7781544Y-18975983D01*
X7781544Y-18975983D02*
X7772020Y-18995031D01*
X7772020Y-18995031D02*
X7762496Y-19004555D01*
X7762496Y-19004555D02*
X7743448Y-19014078D01*
X7743448Y-19014078D02*
X7724401Y-19014078D01*
X7724401Y-19014078D02*
X7705353Y-19004555D01*
X7705353Y-19004555D02*
X7695829Y-18995031D01*
X7695829Y-18995031D02*
X7686306Y-18975983D01*
X7686306Y-18975983D02*
X7676782Y-18937888D01*
X7676782Y-18937888D02*
X7676782Y-18890269D01*
X7676782Y-18890269D02*
X7686306Y-18852174D01*
X7686306Y-18852174D02*
X7695829Y-18833126D01*
X7695829Y-18833126D02*
X7705353Y-18823602D01*
X7705353Y-18823602D02*
X7724401Y-18814078D01*
X7914877Y-18814078D02*
X7933925Y-18814078D01*
X7933925Y-18814078D02*
X7952972Y-18823602D01*
X7952972Y-18823602D02*
X7962496Y-18833126D01*
X7962496Y-18833126D02*
X7972020Y-18852174D01*
X7972020Y-18852174D02*
X7981544Y-18890269D01*
X7981544Y-18890269D02*
X7981544Y-18937888D01*
X7981544Y-18937888D02*
X7972020Y-18975983D01*
X7972020Y-18975983D02*
X7962496Y-18995031D01*
X7962496Y-18995031D02*
X7952972Y-19004555D01*
X7952972Y-19004555D02*
X7933925Y-19014078D01*
X7933925Y-19014078D02*
X7914877Y-19014078D01*
X7914877Y-19014078D02*
X7895829Y-19004555D01*
X7895829Y-19004555D02*
X7886306Y-18995031D01*
X7886306Y-18995031D02*
X7876782Y-18975983D01*
X7876782Y-18975983D02*
X7867258Y-18937888D01*
X7867258Y-18937888D02*
X7867258Y-18890269D01*
X7867258Y-18890269D02*
X7876782Y-18852174D01*
X7876782Y-18852174D02*
X7886306Y-18833126D01*
X7886306Y-18833126D02*
X7895829Y-18823602D01*
X7895829Y-18823602D02*
X7914877Y-18814078D01*
X8057734Y-18814078D02*
X8057734Y-18852174D01*
X8133925Y-18814078D02*
X8133925Y-18852174D01*
X8429163Y-19090269D02*
X8419639Y-19080745D01*
X8419639Y-19080745D02*
X8400591Y-19052174D01*
X8400591Y-19052174D02*
X8391068Y-19033126D01*
X8391068Y-19033126D02*
X8381544Y-19004555D01*
X8381544Y-19004555D02*
X8372020Y-18956936D01*
X8372020Y-18956936D02*
X8372020Y-18918840D01*
X8372020Y-18918840D02*
X8381544Y-18871221D01*
X8381544Y-18871221D02*
X8391068Y-18842650D01*
X8391068Y-18842650D02*
X8400591Y-18823602D01*
X8400591Y-18823602D02*
X8419639Y-18795031D01*
X8419639Y-18795031D02*
X8429163Y-18785507D01*
X8591068Y-18814078D02*
X8552972Y-18814078D01*
X8552972Y-18814078D02*
X8533925Y-18823602D01*
X8533925Y-18823602D02*
X8524401Y-18833126D01*
X8524401Y-18833126D02*
X8505353Y-18861697D01*
X8505353Y-18861697D02*
X8495830Y-18899793D01*
X8495830Y-18899793D02*
X8495830Y-18975983D01*
X8495830Y-18975983D02*
X8505353Y-18995031D01*
X8505353Y-18995031D02*
X8514877Y-19004555D01*
X8514877Y-19004555D02*
X8533925Y-19014078D01*
X8533925Y-19014078D02*
X8572020Y-19014078D01*
X8572020Y-19014078D02*
X8591068Y-19004555D01*
X8591068Y-19004555D02*
X8600591Y-18995031D01*
X8600591Y-18995031D02*
X8610115Y-18975983D01*
X8610115Y-18975983D02*
X8610115Y-18928364D01*
X8610115Y-18928364D02*
X8600591Y-18909317D01*
X8600591Y-18909317D02*
X8591068Y-18899793D01*
X8591068Y-18899793D02*
X8572020Y-18890269D01*
X8572020Y-18890269D02*
X8533925Y-18890269D01*
X8533925Y-18890269D02*
X8514877Y-18899793D01*
X8514877Y-18899793D02*
X8505353Y-18909317D01*
X8505353Y-18909317D02*
X8495830Y-18928364D01*
X8848211Y-19014078D02*
X8848211Y-18814078D01*
X8933925Y-19014078D02*
X8933925Y-18909317D01*
X8933925Y-18909317D02*
X8924401Y-18890269D01*
X8924401Y-18890269D02*
X8905353Y-18880745D01*
X8905353Y-18880745D02*
X8876782Y-18880745D01*
X8876782Y-18880745D02*
X8857734Y-18890269D01*
X8857734Y-18890269D02*
X8848211Y-18899793D01*
X9057734Y-19014078D02*
X9038687Y-19004555D01*
X9038687Y-19004555D02*
X9029163Y-18995031D01*
X9029163Y-18995031D02*
X9019639Y-18975983D01*
X9019639Y-18975983D02*
X9019639Y-18918840D01*
X9019639Y-18918840D02*
X9029163Y-18899793D01*
X9029163Y-18899793D02*
X9038687Y-18890269D01*
X9038687Y-18890269D02*
X9057734Y-18880745D01*
X9057734Y-18880745D02*
X9086306Y-18880745D01*
X9086306Y-18880745D02*
X9105353Y-18890269D01*
X9105353Y-18890269D02*
X9114877Y-18899793D01*
X9114877Y-18899793D02*
X9124401Y-18918840D01*
X9124401Y-18918840D02*
X9124401Y-18975983D01*
X9124401Y-18975983D02*
X9114877Y-18995031D01*
X9114877Y-18995031D02*
X9105353Y-19004555D01*
X9105353Y-19004555D02*
X9086306Y-19014078D01*
X9086306Y-19014078D02*
X9057734Y-19014078D01*
X9238687Y-19014078D02*
X9219639Y-19004555D01*
X9219639Y-19004555D02*
X9210115Y-18985507D01*
X9210115Y-18985507D02*
X9210115Y-18814078D01*
X9391068Y-19004555D02*
X9372020Y-19014078D01*
X9372020Y-19014078D02*
X9333925Y-19014078D01*
X9333925Y-19014078D02*
X9314877Y-19004555D01*
X9314877Y-19004555D02*
X9305353Y-18985507D01*
X9305353Y-18985507D02*
X9305353Y-18909317D01*
X9305353Y-18909317D02*
X9314877Y-18890269D01*
X9314877Y-18890269D02*
X9333925Y-18880745D01*
X9333925Y-18880745D02*
X9372020Y-18880745D01*
X9372020Y-18880745D02*
X9391068Y-18890269D01*
X9391068Y-18890269D02*
X9400592Y-18909317D01*
X9400592Y-18909317D02*
X9400592Y-18928364D01*
X9400592Y-18928364D02*
X9305353Y-18947412D01*
X9476782Y-19004555D02*
X9495830Y-19014078D01*
X9495830Y-19014078D02*
X9533925Y-19014078D01*
X9533925Y-19014078D02*
X9552973Y-19004555D01*
X9552973Y-19004555D02*
X9562496Y-18985507D01*
X9562496Y-18985507D02*
X9562496Y-18975983D01*
X9562496Y-18975983D02*
X9552973Y-18956936D01*
X9552973Y-18956936D02*
X9533925Y-18947412D01*
X9533925Y-18947412D02*
X9505353Y-18947412D01*
X9505353Y-18947412D02*
X9486306Y-18937888D01*
X9486306Y-18937888D02*
X9476782Y-18918840D01*
X9476782Y-18918840D02*
X9476782Y-18909317D01*
X9476782Y-18909317D02*
X9486306Y-18890269D01*
X9486306Y-18890269D02*
X9505353Y-18880745D01*
X9505353Y-18880745D02*
X9533925Y-18880745D01*
X9533925Y-18880745D02*
X9552973Y-18890269D01*
X9629163Y-19090269D02*
X9638687Y-19080745D01*
X9638687Y-19080745D02*
X9657734Y-19052174D01*
X9657734Y-19052174D02*
X9667258Y-19033126D01*
X9667258Y-19033126D02*
X9676782Y-19004555D01*
X9676782Y-19004555D02*
X9686306Y-18956936D01*
X9686306Y-18956936D02*
X9686306Y-18918840D01*
X9686306Y-18918840D02*
X9676782Y-18871221D01*
X9676782Y-18871221D02*
X9667258Y-18842650D01*
X9667258Y-18842650D02*
X9657734Y-18823602D01*
X9657734Y-18823602D02*
X9638687Y-18795031D01*
X9638687Y-18795031D02*
X9629163Y-18785507D01*
X9991068Y-19090269D02*
X9981544Y-19080745D01*
X9981544Y-19080745D02*
X9962496Y-19052174D01*
X9962496Y-19052174D02*
X9952973Y-19033126D01*
X9952973Y-19033126D02*
X9943449Y-19004555D01*
X9943449Y-19004555D02*
X9933925Y-18956936D01*
X9933925Y-18956936D02*
X9933925Y-18918840D01*
X9933925Y-18918840D02*
X9943449Y-18871221D01*
X9943449Y-18871221D02*
X9952973Y-18842650D01*
X9952973Y-18842650D02*
X9962496Y-18823602D01*
X9962496Y-18823602D02*
X9981544Y-18795031D01*
X9981544Y-18795031D02*
X9991068Y-18785507D01*
X10067258Y-18880745D02*
X10067258Y-19014078D01*
X10067258Y-18899793D02*
X10076782Y-18890269D01*
X10076782Y-18890269D02*
X10095830Y-18880745D01*
X10095830Y-18880745D02*
X10124401Y-18880745D01*
X10124401Y-18880745D02*
X10143449Y-18890269D01*
X10143449Y-18890269D02*
X10152973Y-18909317D01*
X10152973Y-18909317D02*
X10152973Y-19014078D01*
X10276782Y-19014078D02*
X10257734Y-19004555D01*
X10257734Y-19004555D02*
X10248211Y-18995031D01*
X10248211Y-18995031D02*
X10238687Y-18975983D01*
X10238687Y-18975983D02*
X10238687Y-18918840D01*
X10238687Y-18918840D02*
X10248211Y-18899793D01*
X10248211Y-18899793D02*
X10257734Y-18890269D01*
X10257734Y-18890269D02*
X10276782Y-18880745D01*
X10276782Y-18880745D02*
X10305354Y-18880745D01*
X10305354Y-18880745D02*
X10324401Y-18890269D01*
X10324401Y-18890269D02*
X10333925Y-18899793D01*
X10333925Y-18899793D02*
X10343449Y-18918840D01*
X10343449Y-18918840D02*
X10343449Y-18975983D01*
X10343449Y-18975983D02*
X10333925Y-18995031D01*
X10333925Y-18995031D02*
X10324401Y-19004555D01*
X10324401Y-19004555D02*
X10305354Y-19014078D01*
X10305354Y-19014078D02*
X10276782Y-19014078D01*
X10400592Y-18880745D02*
X10476782Y-18880745D01*
X10429163Y-18814078D02*
X10429163Y-18985507D01*
X10429163Y-18985507D02*
X10438687Y-19004555D01*
X10438687Y-19004555D02*
X10457734Y-19014078D01*
X10457734Y-19014078D02*
X10476782Y-19014078D01*
X10695830Y-18880745D02*
X10695830Y-19080745D01*
X10695830Y-18890269D02*
X10714877Y-18880745D01*
X10714877Y-18880745D02*
X10752973Y-18880745D01*
X10752973Y-18880745D02*
X10772020Y-18890269D01*
X10772020Y-18890269D02*
X10781544Y-18899793D01*
X10781544Y-18899793D02*
X10791068Y-18918840D01*
X10791068Y-18918840D02*
X10791068Y-18975983D01*
X10791068Y-18975983D02*
X10781544Y-18995031D01*
X10781544Y-18995031D02*
X10772020Y-19004555D01*
X10772020Y-19004555D02*
X10752973Y-19014078D01*
X10752973Y-19014078D02*
X10714877Y-19014078D01*
X10714877Y-19014078D02*
X10695830Y-19004555D01*
X10905354Y-19014078D02*
X10886306Y-19004555D01*
X10886306Y-19004555D02*
X10876782Y-18985507D01*
X10876782Y-18985507D02*
X10876782Y-18814078D01*
X11067258Y-19014078D02*
X11067258Y-18909317D01*
X11067258Y-18909317D02*
X11057735Y-18890269D01*
X11057735Y-18890269D02*
X11038687Y-18880745D01*
X11038687Y-18880745D02*
X11000592Y-18880745D01*
X11000592Y-18880745D02*
X10981544Y-18890269D01*
X11067258Y-19004555D02*
X11048211Y-19014078D01*
X11048211Y-19014078D02*
X11000592Y-19014078D01*
X11000592Y-19014078D02*
X10981544Y-19004555D01*
X10981544Y-19004555D02*
X10972020Y-18985507D01*
X10972020Y-18985507D02*
X10972020Y-18966459D01*
X10972020Y-18966459D02*
X10981544Y-18947412D01*
X10981544Y-18947412D02*
X11000592Y-18937888D01*
X11000592Y-18937888D02*
X11048211Y-18937888D01*
X11048211Y-18937888D02*
X11067258Y-18928364D01*
X11133925Y-18880745D02*
X11210115Y-18880745D01*
X11162496Y-18814078D02*
X11162496Y-18985507D01*
X11162496Y-18985507D02*
X11172020Y-19004555D01*
X11172020Y-19004555D02*
X11191068Y-19014078D01*
X11191068Y-19014078D02*
X11210115Y-19014078D01*
X11352973Y-19004555D02*
X11333925Y-19014078D01*
X11333925Y-19014078D02*
X11295830Y-19014078D01*
X11295830Y-19014078D02*
X11276782Y-19004555D01*
X11276782Y-19004555D02*
X11267258Y-18985507D01*
X11267258Y-18985507D02*
X11267258Y-18909317D01*
X11267258Y-18909317D02*
X11276782Y-18890269D01*
X11276782Y-18890269D02*
X11295830Y-18880745D01*
X11295830Y-18880745D02*
X11333925Y-18880745D01*
X11333925Y-18880745D02*
X11352973Y-18890269D01*
X11352973Y-18890269D02*
X11362496Y-18909317D01*
X11362496Y-18909317D02*
X11362496Y-18928364D01*
X11362496Y-18928364D02*
X11267258Y-18947412D01*
X11533925Y-19014078D02*
X11533925Y-18814078D01*
X11533925Y-19004555D02*
X11514877Y-19014078D01*
X11514877Y-19014078D02*
X11476782Y-19014078D01*
X11476782Y-19014078D02*
X11457734Y-19004555D01*
X11457734Y-19004555D02*
X11448211Y-18995031D01*
X11448211Y-18995031D02*
X11438687Y-18975983D01*
X11438687Y-18975983D02*
X11438687Y-18918840D01*
X11438687Y-18918840D02*
X11448211Y-18899793D01*
X11448211Y-18899793D02*
X11457734Y-18890269D01*
X11457734Y-18890269D02*
X11476782Y-18880745D01*
X11476782Y-18880745D02*
X11514877Y-18880745D01*
X11514877Y-18880745D02*
X11533925Y-18890269D01*
X11610115Y-19090269D02*
X11619639Y-19080745D01*
X11619639Y-19080745D02*
X11638687Y-19052174D01*
X11638687Y-19052174D02*
X11648211Y-19033126D01*
X11648211Y-19033126D02*
X11657734Y-19004555D01*
X11657734Y-19004555D02*
X11667258Y-18956936D01*
X11667258Y-18956936D02*
X11667258Y-18918840D01*
X11667258Y-18918840D02*
X11657734Y-18871221D01*
X11657734Y-18871221D02*
X11648211Y-18842650D01*
X11648211Y-18842650D02*
X11638687Y-18823602D01*
X11638687Y-18823602D02*
X11619639Y-18795031D01*
X11619639Y-18795031D02*
X11610115Y-18785507D01*
X4654100Y-19142595D02*
X4854100Y-19342595D01*
X4854100Y-19142595D02*
X4654100Y-19342595D01*
X4854100Y-19242595D02*
G75*
G02*
X4654100Y-19242595I-100000J0D01*
G01*
X4654100Y-19242595D02*
G75*
G02*
X4854100Y-19242595I100000J0D01*
G01*
X5095829Y-19134078D02*
X5219639Y-19134078D01*
X5219639Y-19134078D02*
X5152972Y-19210269D01*
X5152972Y-19210269D02*
X5181544Y-19210269D01*
X5181544Y-19210269D02*
X5200591Y-19219793D01*
X5200591Y-19219793D02*
X5210115Y-19229317D01*
X5210115Y-19229317D02*
X5219639Y-19248364D01*
X5219639Y-19248364D02*
X5219639Y-19295983D01*
X5219639Y-19295983D02*
X5210115Y-19315031D01*
X5210115Y-19315031D02*
X5200591Y-19324555D01*
X5200591Y-19324555D02*
X5181544Y-19334078D01*
X5181544Y-19334078D02*
X5124401Y-19334078D01*
X5124401Y-19334078D02*
X5105353Y-19324555D01*
X5105353Y-19324555D02*
X5095829Y-19315031D01*
X5305353Y-19315031D02*
X5314877Y-19324555D01*
X5314877Y-19324555D02*
X5305353Y-19334078D01*
X5305353Y-19334078D02*
X5295829Y-19324555D01*
X5295829Y-19324555D02*
X5305353Y-19315031D01*
X5305353Y-19315031D02*
X5305353Y-19334078D01*
X5410115Y-19334078D02*
X5448210Y-19334078D01*
X5448210Y-19334078D02*
X5467258Y-19324555D01*
X5467258Y-19324555D02*
X5476782Y-19315031D01*
X5476782Y-19315031D02*
X5495829Y-19286459D01*
X5495829Y-19286459D02*
X5505353Y-19248364D01*
X5505353Y-19248364D02*
X5505353Y-19172174D01*
X5505353Y-19172174D02*
X5495829Y-19153126D01*
X5495829Y-19153126D02*
X5486305Y-19143602D01*
X5486305Y-19143602D02*
X5467258Y-19134078D01*
X5467258Y-19134078D02*
X5429163Y-19134078D01*
X5429163Y-19134078D02*
X5410115Y-19143602D01*
X5410115Y-19143602D02*
X5400591Y-19153126D01*
X5400591Y-19153126D02*
X5391067Y-19172174D01*
X5391067Y-19172174D02*
X5391067Y-19219793D01*
X5391067Y-19219793D02*
X5400591Y-19238840D01*
X5400591Y-19238840D02*
X5410115Y-19248364D01*
X5410115Y-19248364D02*
X5429163Y-19257888D01*
X5429163Y-19257888D02*
X5467258Y-19257888D01*
X5467258Y-19257888D02*
X5486305Y-19248364D01*
X5486305Y-19248364D02*
X5495829Y-19238840D01*
X5495829Y-19238840D02*
X5505353Y-19219793D01*
X5619639Y-19219793D02*
X5600591Y-19210269D01*
X5600591Y-19210269D02*
X5591067Y-19200745D01*
X5591067Y-19200745D02*
X5581544Y-19181697D01*
X5581544Y-19181697D02*
X5581544Y-19172174D01*
X5581544Y-19172174D02*
X5591067Y-19153126D01*
X5591067Y-19153126D02*
X5600591Y-19143602D01*
X5600591Y-19143602D02*
X5619639Y-19134078D01*
X5619639Y-19134078D02*
X5657734Y-19134078D01*
X5657734Y-19134078D02*
X5676782Y-19143602D01*
X5676782Y-19143602D02*
X5686305Y-19153126D01*
X5686305Y-19153126D02*
X5695829Y-19172174D01*
X5695829Y-19172174D02*
X5695829Y-19181697D01*
X5695829Y-19181697D02*
X5686305Y-19200745D01*
X5686305Y-19200745D02*
X5676782Y-19210269D01*
X5676782Y-19210269D02*
X5657734Y-19219793D01*
X5657734Y-19219793D02*
X5619639Y-19219793D01*
X5619639Y-19219793D02*
X5600591Y-19229317D01*
X5600591Y-19229317D02*
X5591067Y-19238840D01*
X5591067Y-19238840D02*
X5581544Y-19257888D01*
X5581544Y-19257888D02*
X5581544Y-19295983D01*
X5581544Y-19295983D02*
X5591067Y-19315031D01*
X5591067Y-19315031D02*
X5600591Y-19324555D01*
X5600591Y-19324555D02*
X5619639Y-19334078D01*
X5619639Y-19334078D02*
X5657734Y-19334078D01*
X5657734Y-19334078D02*
X5676782Y-19324555D01*
X5676782Y-19324555D02*
X5686305Y-19315031D01*
X5686305Y-19315031D02*
X5695829Y-19295983D01*
X5695829Y-19295983D02*
X5695829Y-19257888D01*
X5695829Y-19257888D02*
X5686305Y-19238840D01*
X5686305Y-19238840D02*
X5676782Y-19229317D01*
X5676782Y-19229317D02*
X5657734Y-19219793D01*
X5810115Y-19219793D02*
X5791067Y-19210269D01*
X5791067Y-19210269D02*
X5781543Y-19200745D01*
X5781543Y-19200745D02*
X5772020Y-19181697D01*
X5772020Y-19181697D02*
X5772020Y-19172174D01*
X5772020Y-19172174D02*
X5781543Y-19153126D01*
X5781543Y-19153126D02*
X5791067Y-19143602D01*
X5791067Y-19143602D02*
X5810115Y-19134078D01*
X5810115Y-19134078D02*
X5848210Y-19134078D01*
X5848210Y-19134078D02*
X5867258Y-19143602D01*
X5867258Y-19143602D02*
X5876782Y-19153126D01*
X5876782Y-19153126D02*
X5886305Y-19172174D01*
X5886305Y-19172174D02*
X5886305Y-19181697D01*
X5886305Y-19181697D02*
X5876782Y-19200745D01*
X5876782Y-19200745D02*
X5867258Y-19210269D01*
X5867258Y-19210269D02*
X5848210Y-19219793D01*
X5848210Y-19219793D02*
X5810115Y-19219793D01*
X5810115Y-19219793D02*
X5791067Y-19229317D01*
X5791067Y-19229317D02*
X5781543Y-19238840D01*
X5781543Y-19238840D02*
X5772020Y-19257888D01*
X5772020Y-19257888D02*
X5772020Y-19295983D01*
X5772020Y-19295983D02*
X5781543Y-19315031D01*
X5781543Y-19315031D02*
X5791067Y-19324555D01*
X5791067Y-19324555D02*
X5810115Y-19334078D01*
X5810115Y-19334078D02*
X5848210Y-19334078D01*
X5848210Y-19334078D02*
X5867258Y-19324555D01*
X5867258Y-19324555D02*
X5876782Y-19315031D01*
X5876782Y-19315031D02*
X5886305Y-19295983D01*
X5886305Y-19295983D02*
X5886305Y-19257888D01*
X5886305Y-19257888D02*
X5876782Y-19238840D01*
X5876782Y-19238840D02*
X5867258Y-19229317D01*
X5867258Y-19229317D02*
X5848210Y-19219793D01*
X5972020Y-19334078D02*
X5972020Y-19200745D01*
X5972020Y-19219793D02*
X5981543Y-19210269D01*
X5981543Y-19210269D02*
X6000591Y-19200745D01*
X6000591Y-19200745D02*
X6029163Y-19200745D01*
X6029163Y-19200745D02*
X6048210Y-19210269D01*
X6048210Y-19210269D02*
X6057734Y-19229317D01*
X6057734Y-19229317D02*
X6057734Y-19334078D01*
X6057734Y-19229317D02*
X6067258Y-19210269D01*
X6067258Y-19210269D02*
X6086305Y-19200745D01*
X6086305Y-19200745D02*
X6114877Y-19200745D01*
X6114877Y-19200745D02*
X6133924Y-19210269D01*
X6133924Y-19210269D02*
X6143448Y-19229317D01*
X6143448Y-19229317D02*
X6143448Y-19334078D01*
X6238686Y-19334078D02*
X6238686Y-19200745D01*
X6238686Y-19219793D02*
X6248210Y-19210269D01*
X6248210Y-19210269D02*
X6267258Y-19200745D01*
X6267258Y-19200745D02*
X6295829Y-19200745D01*
X6295829Y-19200745D02*
X6314877Y-19210269D01*
X6314877Y-19210269D02*
X6324401Y-19229317D01*
X6324401Y-19229317D02*
X6324401Y-19334078D01*
X6324401Y-19229317D02*
X6333924Y-19210269D01*
X6333924Y-19210269D02*
X6352972Y-19200745D01*
X6352972Y-19200745D02*
X6381543Y-19200745D01*
X6381543Y-19200745D02*
X6400591Y-19210269D01*
X6400591Y-19210269D02*
X6410115Y-19229317D01*
X6410115Y-19229317D02*
X6410115Y-19334078D01*
X6800591Y-19124555D02*
X6629163Y-19381697D01*
X7057734Y-19134078D02*
X7076782Y-19134078D01*
X7076782Y-19134078D02*
X7095829Y-19143602D01*
X7095829Y-19143602D02*
X7105353Y-19153126D01*
X7105353Y-19153126D02*
X7114877Y-19172174D01*
X7114877Y-19172174D02*
X7124401Y-19210269D01*
X7124401Y-19210269D02*
X7124401Y-19257888D01*
X7124401Y-19257888D02*
X7114877Y-19295983D01*
X7114877Y-19295983D02*
X7105353Y-19315031D01*
X7105353Y-19315031D02*
X7095829Y-19324555D01*
X7095829Y-19324555D02*
X7076782Y-19334078D01*
X7076782Y-19334078D02*
X7057734Y-19334078D01*
X7057734Y-19334078D02*
X7038686Y-19324555D01*
X7038686Y-19324555D02*
X7029163Y-19315031D01*
X7029163Y-19315031D02*
X7019639Y-19295983D01*
X7019639Y-19295983D02*
X7010115Y-19257888D01*
X7010115Y-19257888D02*
X7010115Y-19210269D01*
X7010115Y-19210269D02*
X7019639Y-19172174D01*
X7019639Y-19172174D02*
X7029163Y-19153126D01*
X7029163Y-19153126D02*
X7038686Y-19143602D01*
X7038686Y-19143602D02*
X7057734Y-19134078D01*
X7210115Y-19315031D02*
X7219639Y-19324555D01*
X7219639Y-19324555D02*
X7210115Y-19334078D01*
X7210115Y-19334078D02*
X7200591Y-19324555D01*
X7200591Y-19324555D02*
X7210115Y-19315031D01*
X7210115Y-19315031D02*
X7210115Y-19334078D01*
X7410115Y-19334078D02*
X7295829Y-19334078D01*
X7352972Y-19334078D02*
X7352972Y-19134078D01*
X7352972Y-19134078D02*
X7333925Y-19162650D01*
X7333925Y-19162650D02*
X7314877Y-19181697D01*
X7314877Y-19181697D02*
X7295829Y-19191221D01*
X7591067Y-19134078D02*
X7495829Y-19134078D01*
X7495829Y-19134078D02*
X7486306Y-19229317D01*
X7486306Y-19229317D02*
X7495829Y-19219793D01*
X7495829Y-19219793D02*
X7514877Y-19210269D01*
X7514877Y-19210269D02*
X7562496Y-19210269D01*
X7562496Y-19210269D02*
X7581544Y-19219793D01*
X7581544Y-19219793D02*
X7591067Y-19229317D01*
X7591067Y-19229317D02*
X7600591Y-19248364D01*
X7600591Y-19248364D02*
X7600591Y-19295983D01*
X7600591Y-19295983D02*
X7591067Y-19315031D01*
X7591067Y-19315031D02*
X7581544Y-19324555D01*
X7581544Y-19324555D02*
X7562496Y-19334078D01*
X7562496Y-19334078D02*
X7514877Y-19334078D01*
X7514877Y-19334078D02*
X7495829Y-19324555D01*
X7495829Y-19324555D02*
X7486306Y-19315031D01*
X7667258Y-19134078D02*
X7800591Y-19134078D01*
X7800591Y-19134078D02*
X7714877Y-19334078D01*
X7914877Y-19134078D02*
X7933925Y-19134078D01*
X7933925Y-19134078D02*
X7952972Y-19143602D01*
X7952972Y-19143602D02*
X7962496Y-19153126D01*
X7962496Y-19153126D02*
X7972020Y-19172174D01*
X7972020Y-19172174D02*
X7981544Y-19210269D01*
X7981544Y-19210269D02*
X7981544Y-19257888D01*
X7981544Y-19257888D02*
X7972020Y-19295983D01*
X7972020Y-19295983D02*
X7962496Y-19315031D01*
X7962496Y-19315031D02*
X7952972Y-19324555D01*
X7952972Y-19324555D02*
X7933925Y-19334078D01*
X7933925Y-19334078D02*
X7914877Y-19334078D01*
X7914877Y-19334078D02*
X7895829Y-19324555D01*
X7895829Y-19324555D02*
X7886306Y-19315031D01*
X7886306Y-19315031D02*
X7876782Y-19295983D01*
X7876782Y-19295983D02*
X7867258Y-19257888D01*
X7867258Y-19257888D02*
X7867258Y-19210269D01*
X7867258Y-19210269D02*
X7876782Y-19172174D01*
X7876782Y-19172174D02*
X7886306Y-19153126D01*
X7886306Y-19153126D02*
X7895829Y-19143602D01*
X7895829Y-19143602D02*
X7914877Y-19134078D01*
X8057734Y-19134078D02*
X8057734Y-19172174D01*
X8133925Y-19134078D02*
X8133925Y-19172174D01*
X8429163Y-19410269D02*
X8419639Y-19400745D01*
X8419639Y-19400745D02*
X8400591Y-19372174D01*
X8400591Y-19372174D02*
X8391068Y-19353126D01*
X8391068Y-19353126D02*
X8381544Y-19324555D01*
X8381544Y-19324555D02*
X8372020Y-19276936D01*
X8372020Y-19276936D02*
X8372020Y-19238840D01*
X8372020Y-19238840D02*
X8381544Y-19191221D01*
X8381544Y-19191221D02*
X8391068Y-19162650D01*
X8391068Y-19162650D02*
X8400591Y-19143602D01*
X8400591Y-19143602D02*
X8419639Y-19115031D01*
X8419639Y-19115031D02*
X8429163Y-19105507D01*
X8591068Y-19134078D02*
X8552972Y-19134078D01*
X8552972Y-19134078D02*
X8533925Y-19143602D01*
X8533925Y-19143602D02*
X8524401Y-19153126D01*
X8524401Y-19153126D02*
X8505353Y-19181697D01*
X8505353Y-19181697D02*
X8495830Y-19219793D01*
X8495830Y-19219793D02*
X8495830Y-19295983D01*
X8495830Y-19295983D02*
X8505353Y-19315031D01*
X8505353Y-19315031D02*
X8514877Y-19324555D01*
X8514877Y-19324555D02*
X8533925Y-19334078D01*
X8533925Y-19334078D02*
X8572020Y-19334078D01*
X8572020Y-19334078D02*
X8591068Y-19324555D01*
X8591068Y-19324555D02*
X8600591Y-19315031D01*
X8600591Y-19315031D02*
X8610115Y-19295983D01*
X8610115Y-19295983D02*
X8610115Y-19248364D01*
X8610115Y-19248364D02*
X8600591Y-19229317D01*
X8600591Y-19229317D02*
X8591068Y-19219793D01*
X8591068Y-19219793D02*
X8572020Y-19210269D01*
X8572020Y-19210269D02*
X8533925Y-19210269D01*
X8533925Y-19210269D02*
X8514877Y-19219793D01*
X8514877Y-19219793D02*
X8505353Y-19229317D01*
X8505353Y-19229317D02*
X8495830Y-19248364D01*
X8848211Y-19334078D02*
X8848211Y-19134078D01*
X8933925Y-19334078D02*
X8933925Y-19229317D01*
X8933925Y-19229317D02*
X8924401Y-19210269D01*
X8924401Y-19210269D02*
X8905353Y-19200745D01*
X8905353Y-19200745D02*
X8876782Y-19200745D01*
X8876782Y-19200745D02*
X8857734Y-19210269D01*
X8857734Y-19210269D02*
X8848211Y-19219793D01*
X9057734Y-19334078D02*
X9038687Y-19324555D01*
X9038687Y-19324555D02*
X9029163Y-19315031D01*
X9029163Y-19315031D02*
X9019639Y-19295983D01*
X9019639Y-19295983D02*
X9019639Y-19238840D01*
X9019639Y-19238840D02*
X9029163Y-19219793D01*
X9029163Y-19219793D02*
X9038687Y-19210269D01*
X9038687Y-19210269D02*
X9057734Y-19200745D01*
X9057734Y-19200745D02*
X9086306Y-19200745D01*
X9086306Y-19200745D02*
X9105353Y-19210269D01*
X9105353Y-19210269D02*
X9114877Y-19219793D01*
X9114877Y-19219793D02*
X9124401Y-19238840D01*
X9124401Y-19238840D02*
X9124401Y-19295983D01*
X9124401Y-19295983D02*
X9114877Y-19315031D01*
X9114877Y-19315031D02*
X9105353Y-19324555D01*
X9105353Y-19324555D02*
X9086306Y-19334078D01*
X9086306Y-19334078D02*
X9057734Y-19334078D01*
X9238687Y-19334078D02*
X9219639Y-19324555D01*
X9219639Y-19324555D02*
X9210115Y-19305507D01*
X9210115Y-19305507D02*
X9210115Y-19134078D01*
X9391068Y-19324555D02*
X9372020Y-19334078D01*
X9372020Y-19334078D02*
X9333925Y-19334078D01*
X9333925Y-19334078D02*
X9314877Y-19324555D01*
X9314877Y-19324555D02*
X9305353Y-19305507D01*
X9305353Y-19305507D02*
X9305353Y-19229317D01*
X9305353Y-19229317D02*
X9314877Y-19210269D01*
X9314877Y-19210269D02*
X9333925Y-19200745D01*
X9333925Y-19200745D02*
X9372020Y-19200745D01*
X9372020Y-19200745D02*
X9391068Y-19210269D01*
X9391068Y-19210269D02*
X9400592Y-19229317D01*
X9400592Y-19229317D02*
X9400592Y-19248364D01*
X9400592Y-19248364D02*
X9305353Y-19267412D01*
X9476782Y-19324555D02*
X9495830Y-19334078D01*
X9495830Y-19334078D02*
X9533925Y-19334078D01*
X9533925Y-19334078D02*
X9552973Y-19324555D01*
X9552973Y-19324555D02*
X9562496Y-19305507D01*
X9562496Y-19305507D02*
X9562496Y-19295983D01*
X9562496Y-19295983D02*
X9552973Y-19276936D01*
X9552973Y-19276936D02*
X9533925Y-19267412D01*
X9533925Y-19267412D02*
X9505353Y-19267412D01*
X9505353Y-19267412D02*
X9486306Y-19257888D01*
X9486306Y-19257888D02*
X9476782Y-19238840D01*
X9476782Y-19238840D02*
X9476782Y-19229317D01*
X9476782Y-19229317D02*
X9486306Y-19210269D01*
X9486306Y-19210269D02*
X9505353Y-19200745D01*
X9505353Y-19200745D02*
X9533925Y-19200745D01*
X9533925Y-19200745D02*
X9552973Y-19210269D01*
X9629163Y-19410269D02*
X9638687Y-19400745D01*
X9638687Y-19400745D02*
X9657734Y-19372174D01*
X9657734Y-19372174D02*
X9667258Y-19353126D01*
X9667258Y-19353126D02*
X9676782Y-19324555D01*
X9676782Y-19324555D02*
X9686306Y-19276936D01*
X9686306Y-19276936D02*
X9686306Y-19238840D01*
X9686306Y-19238840D02*
X9676782Y-19191221D01*
X9676782Y-19191221D02*
X9667258Y-19162650D01*
X9667258Y-19162650D02*
X9657734Y-19143602D01*
X9657734Y-19143602D02*
X9638687Y-19115031D01*
X9638687Y-19115031D02*
X9629163Y-19105507D01*
X9991068Y-19410269D02*
X9981544Y-19400745D01*
X9981544Y-19400745D02*
X9962496Y-19372174D01*
X9962496Y-19372174D02*
X9952973Y-19353126D01*
X9952973Y-19353126D02*
X9943449Y-19324555D01*
X9943449Y-19324555D02*
X9933925Y-19276936D01*
X9933925Y-19276936D02*
X9933925Y-19238840D01*
X9933925Y-19238840D02*
X9943449Y-19191221D01*
X9943449Y-19191221D02*
X9952973Y-19162650D01*
X9952973Y-19162650D02*
X9962496Y-19143602D01*
X9962496Y-19143602D02*
X9981544Y-19115031D01*
X9981544Y-19115031D02*
X9991068Y-19105507D01*
X10067258Y-19200745D02*
X10067258Y-19334078D01*
X10067258Y-19219793D02*
X10076782Y-19210269D01*
X10076782Y-19210269D02*
X10095830Y-19200745D01*
X10095830Y-19200745D02*
X10124401Y-19200745D01*
X10124401Y-19200745D02*
X10143449Y-19210269D01*
X10143449Y-19210269D02*
X10152973Y-19229317D01*
X10152973Y-19229317D02*
X10152973Y-19334078D01*
X10276782Y-19334078D02*
X10257734Y-19324555D01*
X10257734Y-19324555D02*
X10248211Y-19315031D01*
X10248211Y-19315031D02*
X10238687Y-19295983D01*
X10238687Y-19295983D02*
X10238687Y-19238840D01*
X10238687Y-19238840D02*
X10248211Y-19219793D01*
X10248211Y-19219793D02*
X10257734Y-19210269D01*
X10257734Y-19210269D02*
X10276782Y-19200745D01*
X10276782Y-19200745D02*
X10305354Y-19200745D01*
X10305354Y-19200745D02*
X10324401Y-19210269D01*
X10324401Y-19210269D02*
X10333925Y-19219793D01*
X10333925Y-19219793D02*
X10343449Y-19238840D01*
X10343449Y-19238840D02*
X10343449Y-19295983D01*
X10343449Y-19295983D02*
X10333925Y-19315031D01*
X10333925Y-19315031D02*
X10324401Y-19324555D01*
X10324401Y-19324555D02*
X10305354Y-19334078D01*
X10305354Y-19334078D02*
X10276782Y-19334078D01*
X10400592Y-19200745D02*
X10476782Y-19200745D01*
X10429163Y-19134078D02*
X10429163Y-19305507D01*
X10429163Y-19305507D02*
X10438687Y-19324555D01*
X10438687Y-19324555D02*
X10457734Y-19334078D01*
X10457734Y-19334078D02*
X10476782Y-19334078D01*
X10695830Y-19200745D02*
X10695830Y-19400745D01*
X10695830Y-19210269D02*
X10714877Y-19200745D01*
X10714877Y-19200745D02*
X10752973Y-19200745D01*
X10752973Y-19200745D02*
X10772020Y-19210269D01*
X10772020Y-19210269D02*
X10781544Y-19219793D01*
X10781544Y-19219793D02*
X10791068Y-19238840D01*
X10791068Y-19238840D02*
X10791068Y-19295983D01*
X10791068Y-19295983D02*
X10781544Y-19315031D01*
X10781544Y-19315031D02*
X10772020Y-19324555D01*
X10772020Y-19324555D02*
X10752973Y-19334078D01*
X10752973Y-19334078D02*
X10714877Y-19334078D01*
X10714877Y-19334078D02*
X10695830Y-19324555D01*
X10905354Y-19334078D02*
X10886306Y-19324555D01*
X10886306Y-19324555D02*
X10876782Y-19305507D01*
X10876782Y-19305507D02*
X10876782Y-19134078D01*
X11067258Y-19334078D02*
X11067258Y-19229317D01*
X11067258Y-19229317D02*
X11057735Y-19210269D01*
X11057735Y-19210269D02*
X11038687Y-19200745D01*
X11038687Y-19200745D02*
X11000592Y-19200745D01*
X11000592Y-19200745D02*
X10981544Y-19210269D01*
X11067258Y-19324555D02*
X11048211Y-19334078D01*
X11048211Y-19334078D02*
X11000592Y-19334078D01*
X11000592Y-19334078D02*
X10981544Y-19324555D01*
X10981544Y-19324555D02*
X10972020Y-19305507D01*
X10972020Y-19305507D02*
X10972020Y-19286459D01*
X10972020Y-19286459D02*
X10981544Y-19267412D01*
X10981544Y-19267412D02*
X11000592Y-19257888D01*
X11000592Y-19257888D02*
X11048211Y-19257888D01*
X11048211Y-19257888D02*
X11067258Y-19248364D01*
X11133925Y-19200745D02*
X11210115Y-19200745D01*
X11162496Y-19134078D02*
X11162496Y-19305507D01*
X11162496Y-19305507D02*
X11172020Y-19324555D01*
X11172020Y-19324555D02*
X11191068Y-19334078D01*
X11191068Y-19334078D02*
X11210115Y-19334078D01*
X11352973Y-19324555D02*
X11333925Y-19334078D01*
X11333925Y-19334078D02*
X11295830Y-19334078D01*
X11295830Y-19334078D02*
X11276782Y-19324555D01*
X11276782Y-19324555D02*
X11267258Y-19305507D01*
X11267258Y-19305507D02*
X11267258Y-19229317D01*
X11267258Y-19229317D02*
X11276782Y-19210269D01*
X11276782Y-19210269D02*
X11295830Y-19200745D01*
X11295830Y-19200745D02*
X11333925Y-19200745D01*
X11333925Y-19200745D02*
X11352973Y-19210269D01*
X11352973Y-19210269D02*
X11362496Y-19229317D01*
X11362496Y-19229317D02*
X11362496Y-19248364D01*
X11362496Y-19248364D02*
X11267258Y-19267412D01*
X11533925Y-19334078D02*
X11533925Y-19134078D01*
X11533925Y-19324555D02*
X11514877Y-19334078D01*
X11514877Y-19334078D02*
X11476782Y-19334078D01*
X11476782Y-19334078D02*
X11457734Y-19324555D01*
X11457734Y-19324555D02*
X11448211Y-19315031D01*
X11448211Y-19315031D02*
X11438687Y-19295983D01*
X11438687Y-19295983D02*
X11438687Y-19238840D01*
X11438687Y-19238840D02*
X11448211Y-19219793D01*
X11448211Y-19219793D02*
X11457734Y-19210269D01*
X11457734Y-19210269D02*
X11476782Y-19200745D01*
X11476782Y-19200745D02*
X11514877Y-19200745D01*
X11514877Y-19200745D02*
X11533925Y-19210269D01*
X11610115Y-19410269D02*
X11619639Y-19400745D01*
X11619639Y-19400745D02*
X11638687Y-19372174D01*
X11638687Y-19372174D02*
X11648211Y-19353126D01*
X11648211Y-19353126D02*
X11657734Y-19324555D01*
X11657734Y-19324555D02*
X11667258Y-19276936D01*
X11667258Y-19276936D02*
X11667258Y-19238840D01*
X11667258Y-19238840D02*
X11657734Y-19191221D01*
X11657734Y-19191221D02*
X11648211Y-19162650D01*
X11648211Y-19162650D02*
X11638687Y-19143602D01*
X11638687Y-19143602D02*
X11619639Y-19115031D01*
X11619639Y-19115031D02*
X11610115Y-19105507D01*
X4654100Y-19462595D02*
X4854100Y-19662595D01*
X4854100Y-19462595D02*
X4654100Y-19662595D01*
X4754100Y-19462595D02*
X4754100Y-19662595D01*
X4654100Y-19562595D02*
X4854100Y-19562595D01*
X5200591Y-19520745D02*
X5200591Y-19654078D01*
X5152972Y-19444555D02*
X5105353Y-19587412D01*
X5105353Y-19587412D02*
X5229163Y-19587412D01*
X5305353Y-19635031D02*
X5314877Y-19644555D01*
X5314877Y-19644555D02*
X5305353Y-19654078D01*
X5305353Y-19654078D02*
X5295829Y-19644555D01*
X5295829Y-19644555D02*
X5305353Y-19635031D01*
X5305353Y-19635031D02*
X5305353Y-19654078D01*
X5438686Y-19454078D02*
X5457734Y-19454078D01*
X5457734Y-19454078D02*
X5476782Y-19463602D01*
X5476782Y-19463602D02*
X5486305Y-19473126D01*
X5486305Y-19473126D02*
X5495829Y-19492174D01*
X5495829Y-19492174D02*
X5505353Y-19530269D01*
X5505353Y-19530269D02*
X5505353Y-19577888D01*
X5505353Y-19577888D02*
X5495829Y-19615983D01*
X5495829Y-19615983D02*
X5486305Y-19635031D01*
X5486305Y-19635031D02*
X5476782Y-19644555D01*
X5476782Y-19644555D02*
X5457734Y-19654078D01*
X5457734Y-19654078D02*
X5438686Y-19654078D01*
X5438686Y-19654078D02*
X5419639Y-19644555D01*
X5419639Y-19644555D02*
X5410115Y-19635031D01*
X5410115Y-19635031D02*
X5400591Y-19615983D01*
X5400591Y-19615983D02*
X5391067Y-19577888D01*
X5391067Y-19577888D02*
X5391067Y-19530269D01*
X5391067Y-19530269D02*
X5400591Y-19492174D01*
X5400591Y-19492174D02*
X5410115Y-19473126D01*
X5410115Y-19473126D02*
X5419639Y-19463602D01*
X5419639Y-19463602D02*
X5438686Y-19454078D01*
X5629162Y-19454078D02*
X5648210Y-19454078D01*
X5648210Y-19454078D02*
X5667258Y-19463602D01*
X5667258Y-19463602D02*
X5676782Y-19473126D01*
X5676782Y-19473126D02*
X5686305Y-19492174D01*
X5686305Y-19492174D02*
X5695829Y-19530269D01*
X5695829Y-19530269D02*
X5695829Y-19577888D01*
X5695829Y-19577888D02*
X5686305Y-19615983D01*
X5686305Y-19615983D02*
X5676782Y-19635031D01*
X5676782Y-19635031D02*
X5667258Y-19644555D01*
X5667258Y-19644555D02*
X5648210Y-19654078D01*
X5648210Y-19654078D02*
X5629162Y-19654078D01*
X5629162Y-19654078D02*
X5610115Y-19644555D01*
X5610115Y-19644555D02*
X5600591Y-19635031D01*
X5600591Y-19635031D02*
X5591067Y-19615983D01*
X5591067Y-19615983D02*
X5581544Y-19577888D01*
X5581544Y-19577888D02*
X5581544Y-19530269D01*
X5581544Y-19530269D02*
X5591067Y-19492174D01*
X5591067Y-19492174D02*
X5600591Y-19473126D01*
X5600591Y-19473126D02*
X5610115Y-19463602D01*
X5610115Y-19463602D02*
X5629162Y-19454078D01*
X5819639Y-19454078D02*
X5838686Y-19454078D01*
X5838686Y-19454078D02*
X5857734Y-19463602D01*
X5857734Y-19463602D02*
X5867258Y-19473126D01*
X5867258Y-19473126D02*
X5876782Y-19492174D01*
X5876782Y-19492174D02*
X5886305Y-19530269D01*
X5886305Y-19530269D02*
X5886305Y-19577888D01*
X5886305Y-19577888D02*
X5876782Y-19615983D01*
X5876782Y-19615983D02*
X5867258Y-19635031D01*
X5867258Y-19635031D02*
X5857734Y-19644555D01*
X5857734Y-19644555D02*
X5838686Y-19654078D01*
X5838686Y-19654078D02*
X5819639Y-19654078D01*
X5819639Y-19654078D02*
X5800591Y-19644555D01*
X5800591Y-19644555D02*
X5791067Y-19635031D01*
X5791067Y-19635031D02*
X5781543Y-19615983D01*
X5781543Y-19615983D02*
X5772020Y-19577888D01*
X5772020Y-19577888D02*
X5772020Y-19530269D01*
X5772020Y-19530269D02*
X5781543Y-19492174D01*
X5781543Y-19492174D02*
X5791067Y-19473126D01*
X5791067Y-19473126D02*
X5800591Y-19463602D01*
X5800591Y-19463602D02*
X5819639Y-19454078D01*
X5972020Y-19654078D02*
X5972020Y-19520745D01*
X5972020Y-19539793D02*
X5981543Y-19530269D01*
X5981543Y-19530269D02*
X6000591Y-19520745D01*
X6000591Y-19520745D02*
X6029163Y-19520745D01*
X6029163Y-19520745D02*
X6048210Y-19530269D01*
X6048210Y-19530269D02*
X6057734Y-19549317D01*
X6057734Y-19549317D02*
X6057734Y-19654078D01*
X6057734Y-19549317D02*
X6067258Y-19530269D01*
X6067258Y-19530269D02*
X6086305Y-19520745D01*
X6086305Y-19520745D02*
X6114877Y-19520745D01*
X6114877Y-19520745D02*
X6133924Y-19530269D01*
X6133924Y-19530269D02*
X6143448Y-19549317D01*
X6143448Y-19549317D02*
X6143448Y-19654078D01*
X6238686Y-19654078D02*
X6238686Y-19520745D01*
X6238686Y-19539793D02*
X6248210Y-19530269D01*
X6248210Y-19530269D02*
X6267258Y-19520745D01*
X6267258Y-19520745D02*
X6295829Y-19520745D01*
X6295829Y-19520745D02*
X6314877Y-19530269D01*
X6314877Y-19530269D02*
X6324401Y-19549317D01*
X6324401Y-19549317D02*
X6324401Y-19654078D01*
X6324401Y-19549317D02*
X6333924Y-19530269D01*
X6333924Y-19530269D02*
X6352972Y-19520745D01*
X6352972Y-19520745D02*
X6381543Y-19520745D01*
X6381543Y-19520745D02*
X6400591Y-19530269D01*
X6400591Y-19530269D02*
X6410115Y-19549317D01*
X6410115Y-19549317D02*
X6410115Y-19654078D01*
X6800591Y-19444555D02*
X6629163Y-19701697D01*
X7057734Y-19454078D02*
X7076782Y-19454078D01*
X7076782Y-19454078D02*
X7095829Y-19463602D01*
X7095829Y-19463602D02*
X7105353Y-19473126D01*
X7105353Y-19473126D02*
X7114877Y-19492174D01*
X7114877Y-19492174D02*
X7124401Y-19530269D01*
X7124401Y-19530269D02*
X7124401Y-19577888D01*
X7124401Y-19577888D02*
X7114877Y-19615983D01*
X7114877Y-19615983D02*
X7105353Y-19635031D01*
X7105353Y-19635031D02*
X7095829Y-19644555D01*
X7095829Y-19644555D02*
X7076782Y-19654078D01*
X7076782Y-19654078D02*
X7057734Y-19654078D01*
X7057734Y-19654078D02*
X7038686Y-19644555D01*
X7038686Y-19644555D02*
X7029163Y-19635031D01*
X7029163Y-19635031D02*
X7019639Y-19615983D01*
X7019639Y-19615983D02*
X7010115Y-19577888D01*
X7010115Y-19577888D02*
X7010115Y-19530269D01*
X7010115Y-19530269D02*
X7019639Y-19492174D01*
X7019639Y-19492174D02*
X7029163Y-19473126D01*
X7029163Y-19473126D02*
X7038686Y-19463602D01*
X7038686Y-19463602D02*
X7057734Y-19454078D01*
X7210115Y-19635031D02*
X7219639Y-19644555D01*
X7219639Y-19644555D02*
X7210115Y-19654078D01*
X7210115Y-19654078D02*
X7200591Y-19644555D01*
X7200591Y-19644555D02*
X7210115Y-19635031D01*
X7210115Y-19635031D02*
X7210115Y-19654078D01*
X7410115Y-19654078D02*
X7295829Y-19654078D01*
X7352972Y-19654078D02*
X7352972Y-19454078D01*
X7352972Y-19454078D02*
X7333925Y-19482650D01*
X7333925Y-19482650D02*
X7314877Y-19501697D01*
X7314877Y-19501697D02*
X7295829Y-19511221D01*
X7591067Y-19454078D02*
X7495829Y-19454078D01*
X7495829Y-19454078D02*
X7486306Y-19549317D01*
X7486306Y-19549317D02*
X7495829Y-19539793D01*
X7495829Y-19539793D02*
X7514877Y-19530269D01*
X7514877Y-19530269D02*
X7562496Y-19530269D01*
X7562496Y-19530269D02*
X7581544Y-19539793D01*
X7581544Y-19539793D02*
X7591067Y-19549317D01*
X7591067Y-19549317D02*
X7600591Y-19568364D01*
X7600591Y-19568364D02*
X7600591Y-19615983D01*
X7600591Y-19615983D02*
X7591067Y-19635031D01*
X7591067Y-19635031D02*
X7581544Y-19644555D01*
X7581544Y-19644555D02*
X7562496Y-19654078D01*
X7562496Y-19654078D02*
X7514877Y-19654078D01*
X7514877Y-19654078D02*
X7495829Y-19644555D01*
X7495829Y-19644555D02*
X7486306Y-19635031D01*
X7667258Y-19454078D02*
X7800591Y-19454078D01*
X7800591Y-19454078D02*
X7714877Y-19654078D01*
X7972020Y-19454078D02*
X7876782Y-19454078D01*
X7876782Y-19454078D02*
X7867258Y-19549317D01*
X7867258Y-19549317D02*
X7876782Y-19539793D01*
X7876782Y-19539793D02*
X7895829Y-19530269D01*
X7895829Y-19530269D02*
X7943448Y-19530269D01*
X7943448Y-19530269D02*
X7962496Y-19539793D01*
X7962496Y-19539793D02*
X7972020Y-19549317D01*
X7972020Y-19549317D02*
X7981544Y-19568364D01*
X7981544Y-19568364D02*
X7981544Y-19615983D01*
X7981544Y-19615983D02*
X7972020Y-19635031D01*
X7972020Y-19635031D02*
X7962496Y-19644555D01*
X7962496Y-19644555D02*
X7943448Y-19654078D01*
X7943448Y-19654078D02*
X7895829Y-19654078D01*
X7895829Y-19654078D02*
X7876782Y-19644555D01*
X7876782Y-19644555D02*
X7867258Y-19635031D01*
X8057734Y-19454078D02*
X8057734Y-19492174D01*
X8133925Y-19454078D02*
X8133925Y-19492174D01*
X8429163Y-19730269D02*
X8419639Y-19720745D01*
X8419639Y-19720745D02*
X8400591Y-19692174D01*
X8400591Y-19692174D02*
X8391068Y-19673126D01*
X8391068Y-19673126D02*
X8381544Y-19644555D01*
X8381544Y-19644555D02*
X8372020Y-19596936D01*
X8372020Y-19596936D02*
X8372020Y-19558840D01*
X8372020Y-19558840D02*
X8381544Y-19511221D01*
X8381544Y-19511221D02*
X8391068Y-19482650D01*
X8391068Y-19482650D02*
X8400591Y-19463602D01*
X8400591Y-19463602D02*
X8419639Y-19435031D01*
X8419639Y-19435031D02*
X8429163Y-19425507D01*
X8495830Y-19473126D02*
X8505353Y-19463602D01*
X8505353Y-19463602D02*
X8524401Y-19454078D01*
X8524401Y-19454078D02*
X8572020Y-19454078D01*
X8572020Y-19454078D02*
X8591068Y-19463602D01*
X8591068Y-19463602D02*
X8600591Y-19473126D01*
X8600591Y-19473126D02*
X8610115Y-19492174D01*
X8610115Y-19492174D02*
X8610115Y-19511221D01*
X8610115Y-19511221D02*
X8600591Y-19539793D01*
X8600591Y-19539793D02*
X8486306Y-19654078D01*
X8486306Y-19654078D02*
X8610115Y-19654078D01*
X8800591Y-19654078D02*
X8686306Y-19654078D01*
X8743449Y-19654078D02*
X8743449Y-19454078D01*
X8743449Y-19454078D02*
X8724401Y-19482650D01*
X8724401Y-19482650D02*
X8705353Y-19501697D01*
X8705353Y-19501697D02*
X8686306Y-19511221D01*
X9038687Y-19654078D02*
X9038687Y-19454078D01*
X9124401Y-19654078D02*
X9124401Y-19549317D01*
X9124401Y-19549317D02*
X9114877Y-19530269D01*
X9114877Y-19530269D02*
X9095830Y-19520745D01*
X9095830Y-19520745D02*
X9067258Y-19520745D01*
X9067258Y-19520745D02*
X9048211Y-19530269D01*
X9048211Y-19530269D02*
X9038687Y-19539793D01*
X9248211Y-19654078D02*
X9229163Y-19644555D01*
X9229163Y-19644555D02*
X9219639Y-19635031D01*
X9219639Y-19635031D02*
X9210115Y-19615983D01*
X9210115Y-19615983D02*
X9210115Y-19558840D01*
X9210115Y-19558840D02*
X9219639Y-19539793D01*
X9219639Y-19539793D02*
X9229163Y-19530269D01*
X9229163Y-19530269D02*
X9248211Y-19520745D01*
X9248211Y-19520745D02*
X9276782Y-19520745D01*
X9276782Y-19520745D02*
X9295830Y-19530269D01*
X9295830Y-19530269D02*
X9305353Y-19539793D01*
X9305353Y-19539793D02*
X9314877Y-19558840D01*
X9314877Y-19558840D02*
X9314877Y-19615983D01*
X9314877Y-19615983D02*
X9305353Y-19635031D01*
X9305353Y-19635031D02*
X9295830Y-19644555D01*
X9295830Y-19644555D02*
X9276782Y-19654078D01*
X9276782Y-19654078D02*
X9248211Y-19654078D01*
X9429163Y-19654078D02*
X9410115Y-19644555D01*
X9410115Y-19644555D02*
X9400592Y-19625507D01*
X9400592Y-19625507D02*
X9400592Y-19454078D01*
X9581544Y-19644555D02*
X9562496Y-19654078D01*
X9562496Y-19654078D02*
X9524401Y-19654078D01*
X9524401Y-19654078D02*
X9505353Y-19644555D01*
X9505353Y-19644555D02*
X9495830Y-19625507D01*
X9495830Y-19625507D02*
X9495830Y-19549317D01*
X9495830Y-19549317D02*
X9505353Y-19530269D01*
X9505353Y-19530269D02*
X9524401Y-19520745D01*
X9524401Y-19520745D02*
X9562496Y-19520745D01*
X9562496Y-19520745D02*
X9581544Y-19530269D01*
X9581544Y-19530269D02*
X9591068Y-19549317D01*
X9591068Y-19549317D02*
X9591068Y-19568364D01*
X9591068Y-19568364D02*
X9495830Y-19587412D01*
X9667258Y-19644555D02*
X9686306Y-19654078D01*
X9686306Y-19654078D02*
X9724401Y-19654078D01*
X9724401Y-19654078D02*
X9743449Y-19644555D01*
X9743449Y-19644555D02*
X9752973Y-19625507D01*
X9752973Y-19625507D02*
X9752973Y-19615983D01*
X9752973Y-19615983D02*
X9743449Y-19596936D01*
X9743449Y-19596936D02*
X9724401Y-19587412D01*
X9724401Y-19587412D02*
X9695830Y-19587412D01*
X9695830Y-19587412D02*
X9676782Y-19577888D01*
X9676782Y-19577888D02*
X9667258Y-19558840D01*
X9667258Y-19558840D02*
X9667258Y-19549317D01*
X9667258Y-19549317D02*
X9676782Y-19530269D01*
X9676782Y-19530269D02*
X9695830Y-19520745D01*
X9695830Y-19520745D02*
X9724401Y-19520745D01*
X9724401Y-19520745D02*
X9743449Y-19530269D01*
X9819639Y-19730269D02*
X9829163Y-19720745D01*
X9829163Y-19720745D02*
X9848211Y-19692174D01*
X9848211Y-19692174D02*
X9857734Y-19673126D01*
X9857734Y-19673126D02*
X9867258Y-19644555D01*
X9867258Y-19644555D02*
X9876782Y-19596936D01*
X9876782Y-19596936D02*
X9876782Y-19558840D01*
X9876782Y-19558840D02*
X9867258Y-19511221D01*
X9867258Y-19511221D02*
X9857734Y-19482650D01*
X9857734Y-19482650D02*
X9848211Y-19463602D01*
X9848211Y-19463602D02*
X9829163Y-19435031D01*
X9829163Y-19435031D02*
X9819639Y-19425507D01*
X10181544Y-19730269D02*
X10172020Y-19720745D01*
X10172020Y-19720745D02*
X10152973Y-19692174D01*
X10152973Y-19692174D02*
X10143449Y-19673126D01*
X10143449Y-19673126D02*
X10133925Y-19644555D01*
X10133925Y-19644555D02*
X10124401Y-19596936D01*
X10124401Y-19596936D02*
X10124401Y-19558840D01*
X10124401Y-19558840D02*
X10133925Y-19511221D01*
X10133925Y-19511221D02*
X10143449Y-19482650D01*
X10143449Y-19482650D02*
X10152973Y-19463602D01*
X10152973Y-19463602D02*
X10172020Y-19435031D01*
X10172020Y-19435031D02*
X10181544Y-19425507D01*
X10257734Y-19520745D02*
X10257734Y-19654078D01*
X10257734Y-19539793D02*
X10267258Y-19530269D01*
X10267258Y-19530269D02*
X10286306Y-19520745D01*
X10286306Y-19520745D02*
X10314877Y-19520745D01*
X10314877Y-19520745D02*
X10333925Y-19530269D01*
X10333925Y-19530269D02*
X10343449Y-19549317D01*
X10343449Y-19549317D02*
X10343449Y-19654078D01*
X10467258Y-19654078D02*
X10448211Y-19644555D01*
X10448211Y-19644555D02*
X10438687Y-19635031D01*
X10438687Y-19635031D02*
X10429163Y-19615983D01*
X10429163Y-19615983D02*
X10429163Y-19558840D01*
X10429163Y-19558840D02*
X10438687Y-19539793D01*
X10438687Y-19539793D02*
X10448211Y-19530269D01*
X10448211Y-19530269D02*
X10467258Y-19520745D01*
X10467258Y-19520745D02*
X10495830Y-19520745D01*
X10495830Y-19520745D02*
X10514877Y-19530269D01*
X10514877Y-19530269D02*
X10524401Y-19539793D01*
X10524401Y-19539793D02*
X10533925Y-19558840D01*
X10533925Y-19558840D02*
X10533925Y-19615983D01*
X10533925Y-19615983D02*
X10524401Y-19635031D01*
X10524401Y-19635031D02*
X10514877Y-19644555D01*
X10514877Y-19644555D02*
X10495830Y-19654078D01*
X10495830Y-19654078D02*
X10467258Y-19654078D01*
X10591068Y-19520745D02*
X10667258Y-19520745D01*
X10619639Y-19454078D02*
X10619639Y-19625507D01*
X10619639Y-19625507D02*
X10629163Y-19644555D01*
X10629163Y-19644555D02*
X10648211Y-19654078D01*
X10648211Y-19654078D02*
X10667258Y-19654078D01*
X10886306Y-19520745D02*
X10886306Y-19720745D01*
X10886306Y-19530269D02*
X10905354Y-19520745D01*
X10905354Y-19520745D02*
X10943449Y-19520745D01*
X10943449Y-19520745D02*
X10962496Y-19530269D01*
X10962496Y-19530269D02*
X10972020Y-19539793D01*
X10972020Y-19539793D02*
X10981544Y-19558840D01*
X10981544Y-19558840D02*
X10981544Y-19615983D01*
X10981544Y-19615983D02*
X10972020Y-19635031D01*
X10972020Y-19635031D02*
X10962496Y-19644555D01*
X10962496Y-19644555D02*
X10943449Y-19654078D01*
X10943449Y-19654078D02*
X10905354Y-19654078D01*
X10905354Y-19654078D02*
X10886306Y-19644555D01*
X11095830Y-19654078D02*
X11076782Y-19644555D01*
X11076782Y-19644555D02*
X11067258Y-19625507D01*
X11067258Y-19625507D02*
X11067258Y-19454078D01*
X11257734Y-19654078D02*
X11257734Y-19549317D01*
X11257734Y-19549317D02*
X11248211Y-19530269D01*
X11248211Y-19530269D02*
X11229163Y-19520745D01*
X11229163Y-19520745D02*
X11191068Y-19520745D01*
X11191068Y-19520745D02*
X11172020Y-19530269D01*
X11257734Y-19644555D02*
X11238687Y-19654078D01*
X11238687Y-19654078D02*
X11191068Y-19654078D01*
X11191068Y-19654078D02*
X11172020Y-19644555D01*
X11172020Y-19644555D02*
X11162496Y-19625507D01*
X11162496Y-19625507D02*
X11162496Y-19606459D01*
X11162496Y-19606459D02*
X11172020Y-19587412D01*
X11172020Y-19587412D02*
X11191068Y-19577888D01*
X11191068Y-19577888D02*
X11238687Y-19577888D01*
X11238687Y-19577888D02*
X11257734Y-19568364D01*
X11324401Y-19520745D02*
X11400592Y-19520745D01*
X11352973Y-19454078D02*
X11352973Y-19625507D01*
X11352973Y-19625507D02*
X11362496Y-19644555D01*
X11362496Y-19644555D02*
X11381544Y-19654078D01*
X11381544Y-19654078D02*
X11400592Y-19654078D01*
X11543449Y-19644555D02*
X11524401Y-19654078D01*
X11524401Y-19654078D02*
X11486306Y-19654078D01*
X11486306Y-19654078D02*
X11467258Y-19644555D01*
X11467258Y-19644555D02*
X11457734Y-19625507D01*
X11457734Y-19625507D02*
X11457734Y-19549317D01*
X11457734Y-19549317D02*
X11467258Y-19530269D01*
X11467258Y-19530269D02*
X11486306Y-19520745D01*
X11486306Y-19520745D02*
X11524401Y-19520745D01*
X11524401Y-19520745D02*
X11543449Y-19530269D01*
X11543449Y-19530269D02*
X11552973Y-19549317D01*
X11552973Y-19549317D02*
X11552973Y-19568364D01*
X11552973Y-19568364D02*
X11457734Y-19587412D01*
X11724401Y-19654078D02*
X11724401Y-19454078D01*
X11724401Y-19644555D02*
X11705354Y-19654078D01*
X11705354Y-19654078D02*
X11667258Y-19654078D01*
X11667258Y-19654078D02*
X11648211Y-19644555D01*
X11648211Y-19644555D02*
X11638687Y-19635031D01*
X11638687Y-19635031D02*
X11629163Y-19615983D01*
X11629163Y-19615983D02*
X11629163Y-19558840D01*
X11629163Y-19558840D02*
X11638687Y-19539793D01*
X11638687Y-19539793D02*
X11648211Y-19530269D01*
X11648211Y-19530269D02*
X11667258Y-19520745D01*
X11667258Y-19520745D02*
X11705354Y-19520745D01*
X11705354Y-19520745D02*
X11724401Y-19530269D01*
X11800592Y-19730269D02*
X11810115Y-19720745D01*
X11810115Y-19720745D02*
X11829163Y-19692174D01*
X11829163Y-19692174D02*
X11838687Y-19673126D01*
X11838687Y-19673126D02*
X11848211Y-19644555D01*
X11848211Y-19644555D02*
X11857734Y-19596936D01*
X11857734Y-19596936D02*
X11857734Y-19558840D01*
X11857734Y-19558840D02*
X11848211Y-19511221D01*
X11848211Y-19511221D02*
X11838687Y-19482650D01*
X11838687Y-19482650D02*
X11829163Y-19463602D01*
X11829163Y-19463602D02*
X11810115Y-19435031D01*
X11810115Y-19435031D02*
X11800592Y-19425507D01*
M02*
