M48
; DRILL file KiCad 10.0.3 date 2026-06-03T23:39:29
; FORMAT={-:-/ absolute / metric / decimal}
; #@! TF.CreationDate,2026-06-03T23:39:29+08:00
; #@! TF.GenerationSoftware,Kicad,Pcbnew,10.0.3
; #@! TF.FileFunction,Plated,1,2,PTH
FMAT,2
METRIC
; #@! TA.AperFunction,Plated,PTH,ViaDrill
T1C0.300
; #@! TA.AperFunction,Plated,PTH,ComponentDrill
T2C0.300
; #@! TA.AperFunction,Plated,PTH,ComponentDrill
T3C0.750
; #@! TA.AperFunction,Plated,PTH,ComponentDrill
T4C0.950
; #@! TA.AperFunction,Plated,PTH,ComponentDrill
T5C1.000
; #@! TA.AperFunction,Plated,PTH,ComponentDrill
T6C2.200
%
G90
G05
T1
X27.945Y-147.16
X27.945Y-157.828
X31.628Y-163.67
X33.66Y-151.224
X33.66Y-157.809
X33.7Y-182.5
X34.168Y-142.842
X34.2Y-164.9
X35.2Y-159.114
X37.216Y-148.43
X37.978Y-180.688
X39.248Y-149.7
X39.248Y-157.828
X40.01Y-148.684
X42.55Y-161.13
X42.6Y-173.3
X42.998Y-153.451
X43.82Y-152.494
X44.342Y-158.858
X45.09Y-179.887
X45.354Y-177.64
X45.852Y-163.162
X45.874Y-158.822
X47.712Y-183.1
X48.138Y-171.29
X48.989Y-176.789
X50.0Y-154.8
X50.043Y-158.717
X50.043Y-161.384
X50.17Y-166.21
X51.948Y-170.02
X53.8Y-157.2
X53.98Y-138.905
X54.4Y-177.2
X54.8Y-180.0
X54.812Y-183.1
X54.996Y-159.86
X55.0Y-154.9
X55.3Y-178.402
X59.2Y-181.2
X59.4Y-177.0
X60.076Y-157.828
X61.6Y-146.144
X61.854Y-164.178
X62.6Y-162.146
X62.87Y-157.828
X63.2Y-161.384
X63.378Y-149.7
X64.4Y-181.2
X66.426Y-150.327
X67.188Y-142.334
X67.315Y-175.1
X67.696Y-168.242
X68.2Y-154.2
X68.204Y-176.624
X68.585Y-164.432
X69.6Y-156.8
X69.6Y-160.25
T2
X40.346Y-179.754
X40.346Y-180.754
X41.346Y-179.754
X41.346Y-180.754
T3
X31.501Y-145.636
X31.501Y-147.636
X31.501Y-149.636
X31.501Y-151.636
X31.501Y-153.636
X31.501Y-155.636
X31.501Y-157.636
X31.501Y-159.636
X35.408Y-138.778
X37.408Y-138.778
X39.408Y-138.778
X41.408Y-138.778
X43.408Y-138.778
X45.408Y-138.778
X47.408Y-138.778
X49.408Y-138.778
T4
X36.394Y-167.571
X38.162Y-169.338
X39.929Y-171.106
X59.0Y-138.532
X61.5Y-138.532
X64.0Y-138.532
T5
X29.5Y-165.956
X32.5Y-170.0
X35.0Y-172.5
X37.475Y-174.975
X46.614Y-152.494
X64.5Y-146.0
X68.0Y-146.0
X71.5Y-146.0
X72.268Y-175.862
X72.522Y-152.24
X72.522Y-155.542
X72.522Y-158.844
X72.522Y-162.146
T6
X30.0Y-140.0
X30.0Y-180.0
X38.0Y-153.072
X50.0Y-173.856
X62.0Y-153.072
X70.0Y-140.0
X70.0Y-180.0
M30
