G04 #@! TF.GenerationSoftware,KiCad,Pcbnew,10.0.3*
G04 #@! TF.CreationDate,2026-06-03T23:39:29+08:00*
G04 #@! TF.ProjectId,blackmacro_dial,626c6163-6b6d-4616-9372-6f5f6469616c,5-FAB1*
G04 #@! TF.SameCoordinates,Original*
G04 #@! TF.FileFunction,Soldermask,Top*
G04 #@! TF.FilePolarity,Negative*
%FSLAX46Y46*%
G04 Gerber Fmt 4.6, Leading zero omitted, Abs format (unit mm)*
G04 Created by KiCad (PCBNEW 10.0.3) date 2026-06-03 23:39:29*
%MOMM*%
%LPD*%
G01*
G04 APERTURE LIST*
G04 Aperture macros list*
%AMRoundRect*
0 Rectangle with rounded corners*
0 $1 Rounding radius*
0 $2 $3 $4 $5 $6 $7 $8 $9 X,Y pos of 4 corners*
0 Add a 4 corners polygon primitive as box body*
4,1,4,$2,$3,$4,$5,$6,$7,$8,$9,$2,$3,0*
0 Add four circle primitives for the rounded corners*
1,1,$1+$1,$2,$3*
1,1,$1+$1,$4,$5*
1,1,$1+$1,$6,$7*
1,1,$1+$1,$8,$9*
0 Add four rect primitives between the rounded corners*
20,1,$1+$1,$2,$3,$4,$5,0*
20,1,$1+$1,$4,$5,$6,$7,0*
20,1,$1+$1,$6,$7,$8,$9,0*
20,1,$1+$1,$8,$9,$2,$3,0*%
%AMHorizOval*
0 Thick line with rounded ends*
0 $1 width*
0 $2 $3 position (X,Y) of the first rounded end (center of the circle)*
0 $4 $5 position (X,Y) of the second rounded end (center of the circle)*
0 Add line between two ends*
20,1,$1,$2,$3,$4,$5,0*
0 Add two circle primitives to create the rounded ends*
1,1,$1,$2,$3*
1,1,$1,$4,$5*%
%AMFreePoly0*
4,1,6,1.000000,0.000000,0.500000,-0.750000,-0.500000,-0.750000,-0.500000,0.750000,0.500000,0.750000,1.000000,0.000000,1.000000,0.000000,$1*%
%AMFreePoly1*
4,1,6,0.500000,-0.750000,-0.650000,-0.750000,-0.150000,0.000000,-0.650000,0.750000,0.500000,0.750000,0.500000,-0.750000,0.500000,-0.750000,$1*%
G04 Aperture macros list end*
%ADD10C,0.000000*%
%ADD11C,4.400000*%
%ADD12RoundRect,0.250000X0.650000X-0.412500X0.650000X0.412500X-0.650000X0.412500X-0.650000X-0.412500X0*%
%ADD13RoundRect,0.050000X0.050000X-0.300000X0.050000X0.300000X-0.050000X0.300000X-0.050000X-0.300000X0*%
%ADD14RoundRect,0.050000X0.300000X-0.050000X0.300000X0.050000X-0.300000X0.050000X-0.300000X-0.050000X0*%
%ADD15R,1.500000X1.500000*%
%ADD16RoundRect,0.250000X1.100000X-0.412500X1.100000X0.412500X-1.100000X0.412500X-1.100000X-0.412500X0*%
%ADD17C,2.000000*%
%ADD18RoundRect,0.250000X-0.650000X0.412500X-0.650000X-0.412500X0.650000X-0.412500X0.650000X0.412500X0*%
%ADD19RoundRect,0.250000X0.412500X0.650000X-0.412500X0.650000X-0.412500X-0.650000X0.412500X-0.650000X0*%
%ADD20FreePoly0,0.000000*%
%ADD21FreePoly1,0.000000*%
%ADD22RoundRect,0.150000X0.725000X0.150000X-0.725000X0.150000X-0.725000X-0.150000X0.725000X-0.150000X0*%
%ADD23RoundRect,0.250000X-0.600000X-0.725000X0.600000X-0.725000X0.600000X0.725000X-0.600000X0.725000X0*%
%ADD24O,1.700000X1.950000*%
%ADD25C,2.600000*%
%ADD26RoundRect,0.250000X-0.625000X0.350000X-0.625000X-0.350000X0.625000X-0.350000X0.625000X0.350000X0*%
%ADD27O,1.750000X1.200000*%
%ADD28RoundRect,0.250000X0.350000X0.625000X-0.350000X0.625000X-0.350000X-0.625000X0.350000X-0.625000X0*%
%ADD29O,1.200000X1.750000*%
%ADD30RoundRect,0.250000X0.936916X0.088388X0.088388X0.936916X-0.936916X-0.088388X-0.088388X-0.936916X0*%
%ADD31HorizOval,1.700000X0.088388X0.088388X-0.088388X-0.088388X0*%
G04 APERTURE END LIST*
D10*
G04 #@! TO.C,G\u002A\u002A\u002A*
G36*
X58314666Y-173070000D02*
G01*
X58314666Y-174010000D01*
X58786333Y-174010000D01*
X59258000Y-174010000D01*
X59258000Y-174181666D01*
X59258000Y-174353333D01*
X58596333Y-174353333D01*
X57934666Y-174353333D01*
X57934666Y-173241666D01*
X57934666Y-172130000D01*
X58124666Y-172130000D01*
X58314666Y-172130000D01*
X58314666Y-173070000D01*
G37*
G36*
X57421333Y-172301666D02*
G01*
X57421333Y-172473333D01*
X57129666Y-172473333D01*
X56838000Y-172473333D01*
X56838000Y-173413333D01*
X56838000Y-174353333D01*
X56649666Y-174353333D01*
X56461333Y-174353333D01*
X56461333Y-173413333D01*
X56461333Y-172473333D01*
X56169666Y-172473333D01*
X55878000Y-172473333D01*
X55878000Y-172301666D01*
X55878000Y-172130000D01*
X56649666Y-172130000D01*
X57421333Y-172130000D01*
X57421333Y-172301666D01*
G37*
G36*
X58513915Y-165853914D02*
G01*
X58518149Y-165862538D01*
X58524675Y-165876215D01*
X58533265Y-165894443D01*
X58543687Y-165916721D01*
X58555711Y-165942546D01*
X58569107Y-165971418D01*
X58583645Y-166002834D01*
X58599095Y-166036293D01*
X58615225Y-166071293D01*
X58631806Y-166107332D01*
X58648608Y-166143908D01*
X58665400Y-166180520D01*
X58681952Y-166216666D01*
X58698034Y-166251843D01*
X58713415Y-166285552D01*
X58727865Y-166317288D01*
X58741154Y-166346552D01*
X58753051Y-166372841D01*
X58763327Y-166395653D01*
X58771751Y-166414486D01*
X58778092Y-166428840D01*
X58782121Y-166438211D01*
X58783607Y-166442099D01*
X58783602Y-166442175D01*
X58780939Y-166440373D01*
X58774048Y-166434833D01*
X58763711Y-166426207D01*
X58750713Y-166415153D01*
X58735839Y-166402325D01*
X58734526Y-166401185D01*
X58633290Y-166316662D01*
X58530835Y-166238068D01*
X58426114Y-166164665D01*
X58318077Y-166095719D01*
X58210010Y-166032895D01*
X58163687Y-166007165D01*
X58175010Y-166002312D01*
X58180160Y-166000019D01*
X58190763Y-165995229D01*
X58206208Y-165988219D01*
X58225888Y-165979266D01*
X58249193Y-165968648D01*
X58275513Y-165956642D01*
X58304240Y-165943527D01*
X58334763Y-165929579D01*
X58347743Y-165923644D01*
X58378488Y-165909627D01*
X58407429Y-165896519D01*
X58433994Y-165884571D01*
X58457616Y-165874035D01*
X58477725Y-165865163D01*
X58493751Y-165858207D01*
X58505126Y-165853420D01*
X58511280Y-165851052D01*
X58512205Y-165850846D01*
X58513915Y-165853914D01*
G37*
G36*
X58784666Y-170918257D02*
G01*
X58783319Y-170921429D01*
X58779433Y-170930158D01*
X58773237Y-170943940D01*
X58764962Y-170962267D01*
X58754839Y-170984634D01*
X58743097Y-171010535D01*
X58729968Y-171039464D01*
X58715681Y-171070914D01*
X58700468Y-171104381D01*
X58684558Y-171139357D01*
X58668183Y-171175337D01*
X58651572Y-171211815D01*
X58634955Y-171248285D01*
X58618564Y-171284240D01*
X58602629Y-171319176D01*
X58587381Y-171352585D01*
X58573048Y-171383962D01*
X58559863Y-171412801D01*
X58548056Y-171438595D01*
X58537856Y-171460840D01*
X58529495Y-171479028D01*
X58523202Y-171492654D01*
X58519209Y-171501212D01*
X58518717Y-171502250D01*
X58514820Y-171509421D01*
X58511914Y-171513041D01*
X58511549Y-171513153D01*
X58508247Y-171511771D01*
X58499446Y-171507867D01*
X58485707Y-171501695D01*
X58467591Y-171493507D01*
X58445658Y-171483560D01*
X58420470Y-171472108D01*
X58392588Y-171459403D01*
X58362574Y-171445702D01*
X58346333Y-171438278D01*
X58315111Y-171423998D01*
X58285477Y-171410442D01*
X58258031Y-171397885D01*
X58233372Y-171386599D01*
X58212098Y-171376860D01*
X58194809Y-171368941D01*
X58182103Y-171363117D01*
X58174580Y-171359662D01*
X58173004Y-171358934D01*
X58163008Y-171354285D01*
X58180902Y-171345218D01*
X58197087Y-171336657D01*
X58217785Y-171325150D01*
X58241899Y-171311345D01*
X58268326Y-171295892D01*
X58295968Y-171279438D01*
X58323723Y-171262633D01*
X58350493Y-171246124D01*
X58372798Y-171232079D01*
X58442632Y-171186056D01*
X58512941Y-171136793D01*
X58582272Y-171085390D01*
X58649170Y-171032949D01*
X58712180Y-170980568D01*
X58753833Y-170943951D01*
X58765491Y-170933594D01*
X58775130Y-170925332D01*
X58781820Y-170919939D01*
X58784633Y-170918189D01*
X58784666Y-170918257D01*
G37*
G36*
X62192129Y-172102534D02*
G01*
X62237937Y-172104856D01*
X62280290Y-172108948D01*
X62320720Y-172114996D01*
X62360757Y-172123187D01*
X62401333Y-172133542D01*
X62462096Y-172153460D01*
X62519495Y-172178437D01*
X62573192Y-172208186D01*
X62622847Y-172242422D01*
X62668121Y-172280858D01*
X62708674Y-172323208D01*
X62744166Y-172369186D01*
X62774260Y-172418505D01*
X62797158Y-172467255D01*
X62809523Y-172501826D01*
X62820424Y-172540371D01*
X62829454Y-172580869D01*
X62836207Y-172621298D01*
X62840279Y-172659635D01*
X62841333Y-172687400D01*
X62841333Y-172710000D01*
X62651836Y-172710000D01*
X62462338Y-172710000D01*
X62460261Y-172678370D01*
X62454467Y-172637988D01*
X62442750Y-172600319D01*
X62425395Y-172565654D01*
X62402689Y-172534285D01*
X62374920Y-172506501D01*
X62342374Y-172482596D01*
X62305338Y-172462859D01*
X62264099Y-172447581D01*
X62223256Y-172437818D01*
X62204211Y-172435233D01*
X62180719Y-172433401D01*
X62154627Y-172432343D01*
X62127781Y-172432076D01*
X62102026Y-172432620D01*
X62079210Y-172433992D01*
X62061333Y-172436184D01*
X62018046Y-172445814D01*
X61979860Y-172458857D01*
X61945909Y-172475754D01*
X61915326Y-172496947D01*
X61887246Y-172522874D01*
X61883933Y-172526401D01*
X61860589Y-172556168D01*
X61842486Y-172589489D01*
X61829521Y-172626638D01*
X61821590Y-172667890D01*
X61819025Y-172698333D01*
X61820027Y-172743471D01*
X61827171Y-172786163D01*
X61840303Y-172826149D01*
X61859267Y-172863170D01*
X61883907Y-172896966D01*
X61914069Y-172927278D01*
X61949597Y-172953846D01*
X61983366Y-172973026D01*
X61991066Y-172976825D01*
X61998315Y-172980253D01*
X62005684Y-172983488D01*
X62013748Y-172986710D01*
X62023078Y-172990100D01*
X62034246Y-172993836D01*
X62047824Y-172998098D01*
X62064386Y-173003067D01*
X62084503Y-173008920D01*
X62108748Y-173015839D01*
X62137693Y-173024003D01*
X62171911Y-173033591D01*
X62211973Y-173044783D01*
X62212426Y-173044909D01*
X62255102Y-173056854D01*
X62291978Y-173067255D01*
X62323690Y-173076311D01*
X62350872Y-173084222D01*
X62374160Y-173091185D01*
X62394190Y-173097399D01*
X62411596Y-173103065D01*
X62427014Y-173108379D01*
X62441078Y-173113542D01*
X62454424Y-173118751D01*
X62467688Y-173124207D01*
X62473117Y-173126504D01*
X62534641Y-173156025D01*
X62591567Y-173190139D01*
X62643736Y-173228659D01*
X62690990Y-173271402D01*
X62733171Y-173318182D01*
X62770121Y-173368815D01*
X62801683Y-173423115D01*
X62827697Y-173480898D01*
X62848005Y-173541980D01*
X62856085Y-173574208D01*
X62867010Y-173634902D01*
X62872996Y-173696691D01*
X62874093Y-173758550D01*
X62870353Y-173819450D01*
X62861828Y-173878367D01*
X62848570Y-173934273D01*
X62835989Y-173972441D01*
X62811167Y-174029577D01*
X62780830Y-174083137D01*
X62745208Y-174132927D01*
X62704534Y-174178751D01*
X62659039Y-174220415D01*
X62608953Y-174257723D01*
X62554508Y-174290480D01*
X62495935Y-174318491D01*
X62433465Y-174341561D01*
X62381333Y-174356208D01*
X62347821Y-174363876D01*
X62316265Y-174369902D01*
X62285078Y-174374467D01*
X62252675Y-174377750D01*
X62217472Y-174379934D01*
X62177882Y-174381198D01*
X62159666Y-174381498D01*
X62135288Y-174381747D01*
X62112232Y-174381869D01*
X62091612Y-174381866D01*
X62074542Y-174381742D01*
X62062136Y-174381499D01*
X62056333Y-174381222D01*
X61980010Y-174372327D01*
X61907671Y-174358654D01*
X61839455Y-174340274D01*
X61775503Y-174317258D01*
X61715955Y-174289677D01*
X61660950Y-174257603D01*
X61610630Y-174221108D01*
X61565134Y-174180261D01*
X61524603Y-174135136D01*
X61495785Y-174095912D01*
X61465716Y-174045670D01*
X61441333Y-173993118D01*
X61422486Y-173937783D01*
X61409024Y-173879192D01*
X61400795Y-173816871D01*
X61399033Y-173792529D01*
X61396981Y-173756666D01*
X61587490Y-173756666D01*
X61778000Y-173756666D01*
X61778025Y-173770833D01*
X61781121Y-173805999D01*
X61789925Y-173842035D01*
X61803892Y-173877496D01*
X61822474Y-173910941D01*
X61840183Y-173935139D01*
X61860230Y-173955854D01*
X61885387Y-173976264D01*
X61914133Y-173995389D01*
X61944946Y-174012246D01*
X61976304Y-174025854D01*
X61986333Y-174029405D01*
X62030958Y-174041374D01*
X62079015Y-174049041D01*
X62128983Y-174052409D01*
X62179342Y-174051480D01*
X62228572Y-174046259D01*
X62275151Y-174036747D01*
X62301859Y-174028756D01*
X62334449Y-174016065D01*
X62362627Y-174001342D01*
X62388547Y-173983251D01*
X62414367Y-173960458D01*
X62418247Y-173956666D01*
X62432522Y-173942212D01*
X62443114Y-173930390D01*
X62451353Y-173919436D01*
X62458566Y-173907586D01*
X62465956Y-173893333D01*
X62480280Y-173860474D01*
X62489841Y-173828633D01*
X62495371Y-173795050D01*
X62496857Y-173776666D01*
X62496429Y-173730522D01*
X62489925Y-173686147D01*
X62477639Y-173644016D01*
X62459862Y-173604605D01*
X62436889Y-173568392D01*
X62409011Y-173535852D01*
X62376521Y-173507461D01*
X62339713Y-173483696D01*
X62307225Y-173468282D01*
X62298471Y-173465159D01*
X62284037Y-173460533D01*
X62264684Y-173454627D01*
X62241172Y-173447662D01*
X62214261Y-173439861D01*
X62184710Y-173431446D01*
X62153280Y-173422641D01*
X62120730Y-173413667D01*
X62119666Y-173413376D01*
X62086585Y-173404284D01*
X62054175Y-173395278D01*
X62023264Y-173386594D01*
X61994680Y-173378471D01*
X61969250Y-173371143D01*
X61947802Y-173364849D01*
X61931164Y-173359825D01*
X61920437Y-173356399D01*
X61852923Y-173330548D01*
X61789903Y-173300177D01*
X61731532Y-173265415D01*
X61677964Y-173226387D01*
X61629356Y-173183221D01*
X61585861Y-173136042D01*
X61547636Y-173084977D01*
X61514834Y-173030153D01*
X61510303Y-173021442D01*
X61484455Y-172963781D01*
X61464754Y-172904113D01*
X61451150Y-172842194D01*
X61443592Y-172777778D01*
X61442030Y-172710623D01*
X61442504Y-172695000D01*
X61447434Y-172630662D01*
X61457015Y-172570738D01*
X61471421Y-172514700D01*
X61490825Y-172462022D01*
X61515400Y-172412179D01*
X61545322Y-172364644D01*
X61556596Y-172349110D01*
X61571082Y-172331390D01*
X61589528Y-172311203D01*
X61610474Y-172289964D01*
X61632461Y-172269088D01*
X61654029Y-172249990D01*
X61673720Y-172234086D01*
X61679938Y-172229507D01*
X61723288Y-172201648D01*
X61771320Y-172176267D01*
X61822261Y-172154181D01*
X61874336Y-172136208D01*
X61895604Y-172130216D01*
X61932833Y-172121126D01*
X61968272Y-172114022D01*
X62003480Y-172108724D01*
X62040015Y-172105052D01*
X62079434Y-172102826D01*
X62123295Y-172101866D01*
X62141333Y-172101795D01*
X62192129Y-172102534D01*
G37*
G36*
X60352638Y-172130007D02*
G01*
X60392727Y-172130035D01*
X60427049Y-172130096D01*
X60456055Y-172130199D01*
X60480194Y-172130356D01*
X60499916Y-172130577D01*
X60515672Y-172130872D01*
X60527912Y-172131253D01*
X60537086Y-172131730D01*
X60543643Y-172132313D01*
X60548034Y-172133014D01*
X60550708Y-172133842D01*
X60552117Y-172134810D01*
X60552681Y-172135833D01*
X60553738Y-172139839D01*
X60556343Y-172149994D01*
X60560425Y-172166012D01*
X60565913Y-172187609D01*
X60572733Y-172214498D01*
X60580815Y-172246393D01*
X60590085Y-172283009D01*
X60600472Y-172324061D01*
X60611903Y-172369262D01*
X60624307Y-172418326D01*
X60637612Y-172470970D01*
X60651746Y-172526905D01*
X60666635Y-172585848D01*
X60682210Y-172647512D01*
X60698396Y-172711612D01*
X60715123Y-172777862D01*
X60732318Y-172845976D01*
X60749909Y-172915668D01*
X60767825Y-172986654D01*
X60785992Y-173058647D01*
X60804339Y-173131362D01*
X60822795Y-173204512D01*
X60841286Y-173277813D01*
X60859741Y-173350979D01*
X60878087Y-173423724D01*
X60896254Y-173495762D01*
X60914168Y-173566808D01*
X60931757Y-173636576D01*
X60948950Y-173704781D01*
X60965675Y-173771136D01*
X60981859Y-173835357D01*
X60997430Y-173897156D01*
X61012316Y-173956250D01*
X61026446Y-174012352D01*
X61039747Y-174065176D01*
X61052146Y-174114437D01*
X61063573Y-174159849D01*
X61073955Y-174201127D01*
X61083220Y-174237984D01*
X61091295Y-174270136D01*
X61098110Y-174297296D01*
X61103591Y-174319179D01*
X61107666Y-174335500D01*
X61110265Y-174345971D01*
X61111314Y-174350309D01*
X61111333Y-174350414D01*
X61108082Y-174350982D01*
X61098657Y-174351476D01*
X61083551Y-174351892D01*
X61063257Y-174352225D01*
X61038267Y-174352467D01*
X61009075Y-174352615D01*
X60976171Y-174352663D01*
X60940051Y-174352606D01*
X60918946Y-174352527D01*
X60726558Y-174351666D01*
X60669073Y-174100000D01*
X60659864Y-174059666D01*
X60651016Y-174020882D01*
X60642652Y-173984188D01*
X60634895Y-173950125D01*
X60627869Y-173919235D01*
X60621695Y-173892059D01*
X60616498Y-173869138D01*
X60612400Y-173851013D01*
X60609525Y-173838226D01*
X60607994Y-173831317D01*
X60607891Y-173830833D01*
X60604194Y-173813333D01*
X60308293Y-173813333D01*
X60012392Y-173813333D01*
X59996674Y-173882500D01*
X59993003Y-173898640D01*
X59988038Y-173920438D01*
X59981972Y-173947052D01*
X59974997Y-173977641D01*
X59967305Y-174011364D01*
X59959088Y-174047379D01*
X59950537Y-174084843D01*
X59941845Y-174122917D01*
X59935280Y-174151666D01*
X59889604Y-174351666D01*
X59695563Y-174352526D01*
X59653342Y-174352688D01*
X59617360Y-174352763D01*
X59587192Y-174352745D01*
X59562411Y-174352627D01*
X59542591Y-174352401D01*
X59527304Y-174352059D01*
X59516124Y-174351595D01*
X59508626Y-174351001D01*
X59504382Y-174350269D01*
X59502967Y-174349393D01*
X59502988Y-174349193D01*
X59503903Y-174345677D01*
X59506383Y-174335930D01*
X59510370Y-174320189D01*
X59515802Y-174298690D01*
X59522622Y-174271667D01*
X59530770Y-174239357D01*
X59540186Y-174201995D01*
X59550811Y-174159817D01*
X59562587Y-174113058D01*
X59575453Y-174061955D01*
X59589350Y-174006742D01*
X59604220Y-173947656D01*
X59620002Y-173884932D01*
X59636637Y-173818806D01*
X59654066Y-173749513D01*
X59672231Y-173677290D01*
X59691070Y-173602371D01*
X59710526Y-173524992D01*
X59716382Y-173501699D01*
X60081333Y-173501699D01*
X60081957Y-173502685D01*
X60084132Y-173503534D01*
X60088308Y-173504255D01*
X60094936Y-173504859D01*
X60104467Y-173505356D01*
X60117353Y-173505755D01*
X60134045Y-173506067D01*
X60154994Y-173506302D01*
X60180651Y-173506469D01*
X60211467Y-173506578D01*
X60247894Y-173506640D01*
X60290382Y-173506665D01*
X60306333Y-173506666D01*
X60350585Y-173506659D01*
X60388636Y-173506629D01*
X60420953Y-173506565D01*
X60448001Y-173506453D01*
X60470248Y-173506282D01*
X60488159Y-173506040D01*
X60502200Y-173505714D01*
X60512837Y-173505292D01*
X60520537Y-173504762D01*
X60525765Y-173504111D01*
X60528988Y-173503328D01*
X60530672Y-173502399D01*
X60531284Y-173501314D01*
X60531333Y-173500757D01*
X60530623Y-173496685D01*
X60528563Y-173486585D01*
X60525258Y-173470936D01*
X60520811Y-173450215D01*
X60515327Y-173424902D01*
X60508909Y-173395474D01*
X60501664Y-173362410D01*
X60493693Y-173326188D01*
X60485103Y-173287286D01*
X60475996Y-173246183D01*
X60467939Y-173209924D01*
X60450980Y-173133516D01*
X60434675Y-173059685D01*
X60419098Y-172988780D01*
X60404324Y-172921147D01*
X60390427Y-172857137D01*
X60377483Y-172797096D01*
X60365566Y-172741374D01*
X60354751Y-172690318D01*
X60345112Y-172644276D01*
X60336725Y-172603598D01*
X60329664Y-172568630D01*
X60324003Y-172539723D01*
X60322788Y-172533333D01*
X60318913Y-172513289D01*
X60315308Y-172495495D01*
X60312195Y-172480989D01*
X60309798Y-172470809D01*
X60308342Y-172465993D01*
X60308218Y-172465797D01*
X60306919Y-172468074D01*
X60304700Y-172475941D01*
X60301790Y-172488420D01*
X60298415Y-172504536D01*
X60294963Y-172522464D01*
X60289321Y-172552627D01*
X60283600Y-172582579D01*
X60277691Y-172612824D01*
X60271486Y-172643866D01*
X60264878Y-172676208D01*
X60257757Y-172710354D01*
X60250016Y-172746807D01*
X60241547Y-172786070D01*
X60232243Y-172828648D01*
X60221993Y-172875043D01*
X60210692Y-172925759D01*
X60198231Y-172981299D01*
X60184501Y-173042168D01*
X60169395Y-173108868D01*
X60164402Y-173130866D01*
X60153447Y-173179160D01*
X60142914Y-173225676D01*
X60132898Y-173269997D01*
X60123491Y-173311704D01*
X60114786Y-173350381D01*
X60106879Y-173385610D01*
X60099862Y-173416973D01*
X60093829Y-173444052D01*
X60088872Y-173466431D01*
X60085087Y-173483691D01*
X60082566Y-173495415D01*
X60081403Y-173501185D01*
X60081333Y-173501699D01*
X59716382Y-173501699D01*
X59730538Y-173445390D01*
X59751049Y-173363799D01*
X59771997Y-173280455D01*
X59781327Y-173243333D01*
X59802453Y-173159275D01*
X59823169Y-173076858D01*
X59843415Y-172996317D01*
X59863132Y-172917889D01*
X59882260Y-172841810D01*
X59900741Y-172768316D01*
X59918513Y-172697642D01*
X59935519Y-172630025D01*
X59951699Y-172565702D01*
X59966993Y-172504908D01*
X59981341Y-172447880D01*
X59994685Y-172394853D01*
X60006966Y-172346063D01*
X60018123Y-172301748D01*
X60028097Y-172262142D01*
X60036829Y-172227483D01*
X60044259Y-172198005D01*
X60050329Y-172173946D01*
X60054978Y-172155542D01*
X60058147Y-172143027D01*
X60059777Y-172136640D01*
X60059991Y-172135833D01*
X60060629Y-172134728D01*
X60062120Y-172133772D01*
X60064912Y-172132954D01*
X60069456Y-172132263D01*
X60076201Y-172131688D01*
X60085598Y-172131219D01*
X60098097Y-172130846D01*
X60114148Y-172130557D01*
X60134201Y-172130341D01*
X60158705Y-172130189D01*
X60188111Y-172130090D01*
X60222869Y-172130032D01*
X60263429Y-172130005D01*
X60306333Y-172130000D01*
X60352638Y-172130007D01*
G37*
G36*
X54865971Y-172130007D02*
G01*
X54906060Y-172130035D01*
X54940382Y-172130096D01*
X54969388Y-172130199D01*
X54993527Y-172130356D01*
X55013250Y-172130577D01*
X55029006Y-172130872D01*
X55041246Y-172131253D01*
X55050419Y-172131730D01*
X55056977Y-172132313D01*
X55061368Y-172133014D01*
X55064042Y-172133842D01*
X55065451Y-172134810D01*
X55066016Y-172135833D01*
X55067075Y-172139846D01*
X55069682Y-172150008D01*
X55073767Y-172166033D01*
X55079257Y-172187636D01*
X55086079Y-172214530D01*
X55094163Y-172246431D01*
X55103435Y-172283053D01*
X55113824Y-172324110D01*
X55125257Y-172369316D01*
X55137663Y-172418385D01*
X55150969Y-172471033D01*
X55165104Y-172526972D01*
X55179996Y-172585919D01*
X55195571Y-172647586D01*
X55211759Y-172711689D01*
X55228487Y-172777941D01*
X55245683Y-172846057D01*
X55263275Y-172915751D01*
X55281191Y-172986738D01*
X55299359Y-173058732D01*
X55317707Y-173131448D01*
X55336163Y-173204599D01*
X55354655Y-173277899D01*
X55373110Y-173351065D01*
X55391456Y-173423808D01*
X55409623Y-173495845D01*
X55427536Y-173566889D01*
X55445125Y-173636654D01*
X55462318Y-173704856D01*
X55479042Y-173771208D01*
X55495224Y-173835424D01*
X55510795Y-173897219D01*
X55525680Y-173956308D01*
X55539808Y-174012404D01*
X55553107Y-174065222D01*
X55565505Y-174114476D01*
X55576930Y-174159881D01*
X55587310Y-174201151D01*
X55596572Y-174238000D01*
X55604645Y-174270143D01*
X55611457Y-174297294D01*
X55616935Y-174319167D01*
X55621007Y-174335476D01*
X55623602Y-174345937D01*
X55624647Y-174350263D01*
X55624666Y-174350365D01*
X55621407Y-174350961D01*
X55611927Y-174351476D01*
X55596670Y-174351905D01*
X55576082Y-174352244D01*
X55550607Y-174352487D01*
X55520691Y-174352630D01*
X55486777Y-174352667D01*
X55449312Y-174352593D01*
X55432309Y-174352527D01*
X55239952Y-174351666D01*
X55182432Y-174100000D01*
X55173218Y-174059667D01*
X55164365Y-174020883D01*
X55155997Y-173984189D01*
X55148236Y-173950127D01*
X55141206Y-173919237D01*
X55135030Y-173892061D01*
X55129830Y-173869140D01*
X55125730Y-173851015D01*
X55122854Y-173838227D01*
X55121323Y-173831318D01*
X55121220Y-173830833D01*
X55117527Y-173813333D01*
X54821626Y-173813333D01*
X54525725Y-173813333D01*
X54509724Y-173883770D01*
X54505987Y-173900204D01*
X54500959Y-173922286D01*
X54494836Y-173949162D01*
X54487810Y-173979981D01*
X54480077Y-174013890D01*
X54471832Y-174050037D01*
X54463267Y-174087571D01*
X54454579Y-174125638D01*
X54448346Y-174152937D01*
X54402969Y-174351666D01*
X54208912Y-174352526D01*
X54166689Y-174352688D01*
X54130707Y-174352763D01*
X54100537Y-174352745D01*
X54075755Y-174352627D01*
X54055933Y-174352401D01*
X54040645Y-174352060D01*
X54029464Y-174351595D01*
X54021965Y-174351001D01*
X54017721Y-174350270D01*
X54016305Y-174349394D01*
X54016326Y-174349193D01*
X54017241Y-174345677D01*
X54019722Y-174335930D01*
X54023709Y-174320189D01*
X54029141Y-174298690D01*
X54035962Y-174271667D01*
X54044110Y-174239357D01*
X54053526Y-174201995D01*
X54064152Y-174159817D01*
X54075928Y-174113058D01*
X54088794Y-174061955D01*
X54102692Y-174006742D01*
X54117561Y-173947656D01*
X54133344Y-173884932D01*
X54149979Y-173818806D01*
X54167409Y-173749513D01*
X54185573Y-173677290D01*
X54204413Y-173602371D01*
X54223869Y-173524992D01*
X54229742Y-173501634D01*
X54594666Y-173501634D01*
X54595257Y-173502632D01*
X54597333Y-173503490D01*
X54601346Y-173504220D01*
X54607750Y-173504831D01*
X54616998Y-173505334D01*
X54629543Y-173505738D01*
X54645838Y-173506054D01*
X54666336Y-173506292D01*
X54691491Y-173506461D01*
X54721755Y-173506573D01*
X54757582Y-173506637D01*
X54799425Y-173506664D01*
X54819666Y-173506666D01*
X54863918Y-173506659D01*
X54901969Y-173506629D01*
X54934286Y-173506565D01*
X54961335Y-173506453D01*
X54983581Y-173506282D01*
X55001492Y-173506040D01*
X55015533Y-173505714D01*
X55026170Y-173505292D01*
X55033870Y-173504762D01*
X55039098Y-173504111D01*
X55042322Y-173503328D01*
X55044006Y-173502399D01*
X55044617Y-173501314D01*
X55044666Y-173500757D01*
X55043957Y-173496685D01*
X55041897Y-173486585D01*
X55038592Y-173470935D01*
X55034145Y-173450215D01*
X55028662Y-173424901D01*
X55022246Y-173395473D01*
X55015001Y-173362409D01*
X55007031Y-173326187D01*
X54998442Y-173287285D01*
X54989337Y-173246182D01*
X54981281Y-173209924D01*
X54964507Y-173134335D01*
X54948340Y-173061108D01*
X54932857Y-172990611D01*
X54918140Y-172923210D01*
X54904265Y-172859275D01*
X54891313Y-172799172D01*
X54879361Y-172743270D01*
X54868489Y-172691935D01*
X54858775Y-172645536D01*
X54850299Y-172604440D01*
X54843140Y-172569015D01*
X54837375Y-172539629D01*
X54836173Y-172533333D01*
X54832286Y-172513290D01*
X54828668Y-172495498D01*
X54825545Y-172480992D01*
X54823141Y-172470812D01*
X54821681Y-172465996D01*
X54821557Y-172465799D01*
X54820364Y-172468241D01*
X54818176Y-172476420D01*
X54815172Y-172489511D01*
X54811535Y-172506688D01*
X54807446Y-172527126D01*
X54803248Y-172549132D01*
X54798354Y-172575191D01*
X54793533Y-172600466D01*
X54788678Y-172625441D01*
X54783687Y-172650600D01*
X54778453Y-172676427D01*
X54772874Y-172703406D01*
X54766843Y-172732022D01*
X54760257Y-172762758D01*
X54753012Y-172796098D01*
X54745002Y-172832526D01*
X54736123Y-172872527D01*
X54726271Y-172916584D01*
X54715341Y-172965181D01*
X54703228Y-173018802D01*
X54689829Y-173077931D01*
X54675039Y-173143053D01*
X54674414Y-173145801D01*
X54663677Y-173193078D01*
X54653365Y-173238572D01*
X54643574Y-173281858D01*
X54634399Y-173322507D01*
X54625936Y-173360094D01*
X54618281Y-173394191D01*
X54611529Y-173424372D01*
X54605776Y-173450209D01*
X54601118Y-173471276D01*
X54597650Y-173487147D01*
X54595468Y-173497393D01*
X54594668Y-173501589D01*
X54594666Y-173501634D01*
X54229742Y-173501634D01*
X54243882Y-173445390D01*
X54264392Y-173363799D01*
X54285340Y-173280455D01*
X54294670Y-173243333D01*
X54315797Y-173159275D01*
X54336513Y-173076858D01*
X54356759Y-172996318D01*
X54376476Y-172917889D01*
X54395604Y-172841810D01*
X54414084Y-172768316D01*
X54431857Y-172697642D01*
X54448862Y-172630026D01*
X54465042Y-172565702D01*
X54480335Y-172504908D01*
X54494684Y-172447880D01*
X54508028Y-172394853D01*
X54520308Y-172346064D01*
X54531465Y-172301748D01*
X54541438Y-172262142D01*
X54550170Y-172227483D01*
X54557600Y-172198006D01*
X54563669Y-172173946D01*
X54568318Y-172155542D01*
X54571487Y-172143027D01*
X54573116Y-172136640D01*
X54573330Y-172135833D01*
X54573967Y-172134728D01*
X54575457Y-172133772D01*
X54578248Y-172132954D01*
X54582791Y-172132263D01*
X54589535Y-172131688D01*
X54598932Y-172131219D01*
X54611430Y-172130846D01*
X54627479Y-172130557D01*
X54647531Y-172130341D01*
X54672034Y-172130189D01*
X54701440Y-172130090D01*
X54736197Y-172130032D01*
X54776756Y-172130005D01*
X54819666Y-172130000D01*
X54865971Y-172130007D01*
G37*
G36*
X59833379Y-165660570D02*
G01*
X59842682Y-165661657D01*
X59857161Y-165663517D01*
X59876108Y-165666048D01*
X59898812Y-165669148D01*
X59924565Y-165672715D01*
X59952657Y-165676649D01*
X59982379Y-165680847D01*
X60013022Y-165685209D01*
X60043876Y-165689632D01*
X60074233Y-165694015D01*
X60103382Y-165698256D01*
X60130616Y-165702255D01*
X60155223Y-165705909D01*
X60176496Y-165709117D01*
X60193725Y-165711778D01*
X60206200Y-165713789D01*
X60213213Y-165715050D01*
X60214498Y-165715397D01*
X60214164Y-165718784D01*
X60212918Y-165728488D01*
X60210801Y-165744227D01*
X60207852Y-165765721D01*
X60204110Y-165792687D01*
X60199617Y-165824845D01*
X60194411Y-165861914D01*
X60188533Y-165903611D01*
X60182022Y-165949656D01*
X60174918Y-165999766D01*
X60167261Y-166053662D01*
X60159091Y-166111061D01*
X60150448Y-166171682D01*
X60141371Y-166235243D01*
X60131901Y-166301464D01*
X60122078Y-166370063D01*
X60111940Y-166440759D01*
X60101528Y-166513269D01*
X60098564Y-166533897D01*
X60088082Y-166606864D01*
X60077861Y-166678092D01*
X60067940Y-166747300D01*
X60058360Y-166814209D01*
X60049161Y-166878535D01*
X60040382Y-166939998D01*
X60032064Y-166998317D01*
X60024246Y-167053210D01*
X60016968Y-167104397D01*
X60010271Y-167151595D01*
X60004194Y-167194524D01*
X59998777Y-167232902D01*
X59994061Y-167266448D01*
X59990084Y-167294881D01*
X59986887Y-167317920D01*
X59984510Y-167335283D01*
X59982993Y-167346689D01*
X59982376Y-167351857D01*
X59982370Y-167352148D01*
X59983845Y-167349270D01*
X59987967Y-167340582D01*
X59994618Y-167326344D01*
X60003680Y-167306811D01*
X60015034Y-167282242D01*
X60028564Y-167252894D01*
X60044150Y-167219024D01*
X60061676Y-167180890D01*
X60081021Y-167138748D01*
X60102069Y-167092857D01*
X60124702Y-167043474D01*
X60148801Y-166990856D01*
X60174248Y-166935260D01*
X60200925Y-166876944D01*
X60228714Y-166816166D01*
X60257498Y-166753182D01*
X60287157Y-166688251D01*
X60317574Y-166621628D01*
X60326637Y-166601771D01*
X60357270Y-166534678D01*
X60387194Y-166469190D01*
X60416291Y-166405567D01*
X60444442Y-166344065D01*
X60471527Y-166284943D01*
X60497428Y-166228459D01*
X60522027Y-166174871D01*
X60545203Y-166124437D01*
X60566840Y-166077414D01*
X60586816Y-166034062D01*
X60605015Y-165994638D01*
X60621316Y-165959400D01*
X60635602Y-165928606D01*
X60647753Y-165902515D01*
X60657650Y-165881383D01*
X60665175Y-165865470D01*
X60670208Y-165855034D01*
X60672632Y-165850331D01*
X60672829Y-165850077D01*
X60676358Y-165851412D01*
X60685402Y-165855283D01*
X60699414Y-165861446D01*
X60717850Y-165869656D01*
X60740164Y-165879668D01*
X60765812Y-165891239D01*
X60794248Y-165904123D01*
X60824927Y-165918076D01*
X60851886Y-165930377D01*
X61027780Y-166010755D01*
X61023256Y-166019544D01*
X61021379Y-166023530D01*
X61016880Y-166033261D01*
X61009907Y-166048416D01*
X61000605Y-166068678D01*
X60989121Y-166093724D01*
X60975600Y-166123235D01*
X60960190Y-166156891D01*
X60943035Y-166194373D01*
X60924282Y-166235359D01*
X60904078Y-166279530D01*
X60882569Y-166326567D01*
X60859900Y-166376148D01*
X60836218Y-166427953D01*
X60811669Y-166481664D01*
X60786399Y-166536960D01*
X60760554Y-166593520D01*
X60734282Y-166651025D01*
X60707727Y-166709155D01*
X60681036Y-166767589D01*
X60654355Y-166826008D01*
X60627830Y-166884092D01*
X60601608Y-166941520D01*
X60575834Y-166997972D01*
X60550655Y-167053130D01*
X60526217Y-167106671D01*
X60502667Y-167158277D01*
X60480149Y-167207628D01*
X60458811Y-167254403D01*
X60438799Y-167298282D01*
X60420259Y-167338945D01*
X60403336Y-167376073D01*
X60388178Y-167409345D01*
X60374930Y-167438441D01*
X60363739Y-167463042D01*
X60354750Y-167482826D01*
X60348110Y-167497475D01*
X60343966Y-167506668D01*
X60342495Y-167510000D01*
X60339641Y-167517336D01*
X60339518Y-167519256D01*
X60342311Y-167516506D01*
X60343725Y-167514905D01*
X60346415Y-167511810D01*
X60353281Y-167503894D01*
X60364135Y-167491376D01*
X60378788Y-167474473D01*
X60397051Y-167453404D01*
X60418735Y-167428386D01*
X60443651Y-167399638D01*
X60471611Y-167367377D01*
X60502425Y-167331821D01*
X60535905Y-167293189D01*
X60571861Y-167251698D01*
X60610105Y-167207566D01*
X60650448Y-167161012D01*
X60692701Y-167112253D01*
X60736675Y-167061507D01*
X60782181Y-167008992D01*
X60829030Y-166954926D01*
X60877034Y-166899527D01*
X60887649Y-166887277D01*
X61425631Y-166266411D01*
X61432649Y-166272753D01*
X61436435Y-166276078D01*
X61444781Y-166283343D01*
X61457204Y-166294129D01*
X61473218Y-166308016D01*
X61492341Y-166324584D01*
X61514087Y-166343416D01*
X61537974Y-166364090D01*
X61563518Y-166386187D01*
X61579666Y-166400153D01*
X61605714Y-166422740D01*
X61630158Y-166444057D01*
X61652545Y-166463704D01*
X61672425Y-166481277D01*
X61689346Y-166496376D01*
X61702858Y-166508598D01*
X61712508Y-166517542D01*
X61717847Y-166522805D01*
X61718791Y-166524063D01*
X61716559Y-166526803D01*
X61710146Y-166534364D01*
X61699737Y-166546530D01*
X61685519Y-166563085D01*
X61667678Y-166583815D01*
X61646401Y-166608503D01*
X61621874Y-166636934D01*
X61594283Y-166668893D01*
X61563814Y-166704163D01*
X61530654Y-166742530D01*
X61494989Y-166783777D01*
X61457006Y-166827689D01*
X61416890Y-166874051D01*
X61374828Y-166922646D01*
X61331006Y-166973260D01*
X61285611Y-167025676D01*
X61238828Y-167079680D01*
X61190845Y-167135055D01*
X61177607Y-167150329D01*
X61129355Y-167206012D01*
X61082269Y-167260368D01*
X61036532Y-167313184D01*
X60992332Y-167364244D01*
X60949854Y-167413333D01*
X60909282Y-167460237D01*
X60870802Y-167504742D01*
X60834599Y-167546632D01*
X60800860Y-167585693D01*
X60769769Y-167621710D01*
X60741511Y-167654468D01*
X60716272Y-167683753D01*
X60694238Y-167709351D01*
X60675594Y-167731045D01*
X60660525Y-167748622D01*
X60649216Y-167761867D01*
X60641853Y-167770565D01*
X60638621Y-167774502D01*
X60638482Y-167774722D01*
X60641352Y-167773031D01*
X60649588Y-167767885D01*
X60662950Y-167759435D01*
X60681201Y-167747837D01*
X60704101Y-167733242D01*
X60731410Y-167715804D01*
X60762890Y-167695676D01*
X60798302Y-167673012D01*
X60837405Y-167647964D01*
X60879963Y-167620686D01*
X60925734Y-167591331D01*
X60974481Y-167560053D01*
X61025963Y-167527004D01*
X61079943Y-167492338D01*
X61136180Y-167456207D01*
X61194436Y-167418766D01*
X61254472Y-167380168D01*
X61316048Y-167340564D01*
X61333000Y-167329659D01*
X61394985Y-167289796D01*
X61455516Y-167250893D01*
X61514351Y-167213105D01*
X61571252Y-167176585D01*
X61625976Y-167141487D01*
X61678285Y-167107964D01*
X61727937Y-167076170D01*
X61774693Y-167046258D01*
X61818312Y-167018381D01*
X61858553Y-166992694D01*
X61895177Y-166969349D01*
X61927942Y-166948500D01*
X61956610Y-166930301D01*
X61980939Y-166914904D01*
X62000689Y-166902465D01*
X62015619Y-166893135D01*
X62025491Y-166887068D01*
X62030062Y-166884419D01*
X62030355Y-166884309D01*
X62032700Y-166887124D01*
X62038239Y-166894953D01*
X62046580Y-166907192D01*
X62057331Y-166923235D01*
X62070097Y-166942477D01*
X62084487Y-166964313D01*
X62100109Y-166988138D01*
X62116569Y-167013347D01*
X62133474Y-167039335D01*
X62150433Y-167065496D01*
X62167053Y-167091226D01*
X62182940Y-167115920D01*
X62197703Y-167138972D01*
X62210949Y-167159777D01*
X62222285Y-167177731D01*
X62231318Y-167192227D01*
X62237657Y-167202662D01*
X62240907Y-167208430D01*
X62241258Y-167209341D01*
X62238485Y-167211325D01*
X62230340Y-167216755D01*
X62217062Y-167225477D01*
X62198888Y-167237337D01*
X62176059Y-167252181D01*
X62148811Y-167269854D01*
X62117385Y-167290203D01*
X62082019Y-167313073D01*
X62042951Y-167338311D01*
X62000420Y-167365761D01*
X61954665Y-167395271D01*
X61905925Y-167426686D01*
X61854437Y-167459852D01*
X61800442Y-167494614D01*
X61744177Y-167530820D01*
X61685882Y-167568313D01*
X61625795Y-167606942D01*
X61564154Y-167646550D01*
X61546253Y-167658050D01*
X61484230Y-167697898D01*
X61423702Y-167736801D01*
X61364905Y-167774606D01*
X61308080Y-167811159D01*
X61253462Y-167846307D01*
X61201291Y-167879897D01*
X61151805Y-167911773D01*
X61105242Y-167941784D01*
X61061839Y-167969775D01*
X61021835Y-167995592D01*
X60985468Y-168019083D01*
X60952976Y-168040093D01*
X60924597Y-168058468D01*
X60900570Y-168074056D01*
X60881131Y-168086702D01*
X60866520Y-168096254D01*
X60856975Y-168102557D01*
X60852733Y-168105457D01*
X60852529Y-168105640D01*
X60855790Y-168104822D01*
X60865175Y-168102203D01*
X60880409Y-168097862D01*
X60901219Y-168091879D01*
X60927333Y-168084335D01*
X60958478Y-168075307D01*
X60994380Y-168064877D01*
X61034767Y-168053124D01*
X61079364Y-168040127D01*
X61127900Y-168025966D01*
X61180101Y-168010720D01*
X61235694Y-167994470D01*
X61294406Y-167977295D01*
X61355964Y-167959274D01*
X61420094Y-167940487D01*
X61486524Y-167921015D01*
X61554981Y-167900936D01*
X61625192Y-167880330D01*
X61643040Y-167875090D01*
X61713692Y-167854350D01*
X61782682Y-167834108D01*
X61849735Y-167814445D01*
X61914576Y-167795439D01*
X61976932Y-167777173D01*
X62036527Y-167759725D01*
X62093088Y-167743176D01*
X62146338Y-167727605D01*
X62196005Y-167713095D01*
X62241814Y-167699723D01*
X62283489Y-167687571D01*
X62320757Y-167676719D01*
X62353342Y-167667246D01*
X62380971Y-167659234D01*
X62403368Y-167652762D01*
X62420260Y-167647910D01*
X62431371Y-167644758D01*
X62436428Y-167643388D01*
X62436711Y-167643333D01*
X62440290Y-167646231D01*
X62443756Y-167653430D01*
X62444494Y-167655833D01*
X62446067Y-167661349D01*
X62449334Y-167672625D01*
X62454111Y-167689022D01*
X62460209Y-167709904D01*
X62467444Y-167734634D01*
X62475628Y-167762574D01*
X62484577Y-167793089D01*
X62494102Y-167825541D01*
X62499081Y-167842492D01*
X62550249Y-168016652D01*
X62539958Y-168019510D01*
X62530549Y-168022176D01*
X62515410Y-168026535D01*
X62494875Y-168032488D01*
X62469277Y-168039939D01*
X62438948Y-168048789D01*
X62404222Y-168058939D01*
X62365432Y-168070292D01*
X62322910Y-168082750D01*
X62276991Y-168096214D01*
X62228006Y-168110586D01*
X62176289Y-168125769D01*
X62122173Y-168141664D01*
X62065992Y-168158173D01*
X62008077Y-168175199D01*
X61948763Y-168192642D01*
X61888382Y-168210405D01*
X61827267Y-168228391D01*
X61765751Y-168246500D01*
X61704168Y-168264634D01*
X61642850Y-168282697D01*
X61582130Y-168300588D01*
X61522342Y-168318212D01*
X61463819Y-168335468D01*
X61406893Y-168352260D01*
X61351898Y-168368489D01*
X61299166Y-168384058D01*
X61249031Y-168398867D01*
X61201826Y-168412819D01*
X61157884Y-168425817D01*
X61117538Y-168437761D01*
X61081120Y-168448554D01*
X61048965Y-168458097D01*
X61021405Y-168466293D01*
X60998772Y-168473044D01*
X60981401Y-168478251D01*
X60969624Y-168481816D01*
X60963774Y-168483641D01*
X60963166Y-168483864D01*
X60966168Y-168484114D01*
X60975554Y-168484357D01*
X60991044Y-168484594D01*
X61012356Y-168484823D01*
X61039209Y-168485043D01*
X61071320Y-168485253D01*
X61108409Y-168485452D01*
X61150194Y-168485640D01*
X61196393Y-168485815D01*
X61246725Y-168485977D01*
X61300908Y-168486124D01*
X61358661Y-168486255D01*
X61419702Y-168486370D01*
X61483750Y-168486468D01*
X61550523Y-168486547D01*
X61619739Y-168486607D01*
X61691117Y-168486647D01*
X61764376Y-168486665D01*
X61788999Y-168486666D01*
X62618000Y-168486666D01*
X62618000Y-168681666D01*
X62618000Y-168876666D01*
X61788833Y-168876768D01*
X61715031Y-168876787D01*
X61643030Y-168876827D01*
X61573110Y-168876885D01*
X61505551Y-168876962D01*
X61440635Y-168877057D01*
X61378642Y-168877167D01*
X61319853Y-168877293D01*
X61264548Y-168877434D01*
X61213008Y-168877588D01*
X61165514Y-168877755D01*
X61122346Y-168877933D01*
X61083786Y-168878122D01*
X61050113Y-168878321D01*
X61021609Y-168878529D01*
X60998554Y-168878745D01*
X60981230Y-168878968D01*
X60969915Y-168879197D01*
X60964892Y-168879431D01*
X60964666Y-168879511D01*
X60968272Y-168880674D01*
X60978000Y-168883629D01*
X60993576Y-168888297D01*
X61014725Y-168894595D01*
X61041172Y-168902444D01*
X61072642Y-168911761D01*
X61108860Y-168922466D01*
X61149551Y-168934478D01*
X61194440Y-168947715D01*
X61243251Y-168962098D01*
X61295711Y-168977543D01*
X61351544Y-168993972D01*
X61410475Y-169011302D01*
X61472229Y-169029452D01*
X61536531Y-169048342D01*
X61603106Y-169067890D01*
X61671680Y-169088015D01*
X61741976Y-169108637D01*
X61758818Y-169113576D01*
X61852123Y-169140956D01*
X61939807Y-169166721D01*
X62021818Y-169190856D01*
X62098103Y-169213345D01*
X62168610Y-169234174D01*
X62233288Y-169253326D01*
X62292084Y-169270786D01*
X62344947Y-169286538D01*
X62391823Y-169300566D01*
X62432662Y-169312856D01*
X62467410Y-169323392D01*
X62496016Y-169332157D01*
X62518427Y-169339137D01*
X62534593Y-169344316D01*
X62544460Y-169347678D01*
X62547976Y-169349208D01*
X62547984Y-169349237D01*
X62547078Y-169353036D01*
X62544491Y-169362501D01*
X62540424Y-169376939D01*
X62535082Y-169395655D01*
X62528666Y-169417958D01*
X62521380Y-169443153D01*
X62513426Y-169470547D01*
X62505009Y-169499448D01*
X62496329Y-169529163D01*
X62487591Y-169558997D01*
X62478996Y-169588257D01*
X62470749Y-169616252D01*
X62463051Y-169642286D01*
X62456107Y-169665668D01*
X62450118Y-169685704D01*
X62445287Y-169701701D01*
X62441817Y-169712965D01*
X62439912Y-169718803D01*
X62439630Y-169719469D01*
X62436375Y-169718645D01*
X62427000Y-169716021D01*
X62411781Y-169711678D01*
X62390993Y-169705694D01*
X62364912Y-169698152D01*
X62333813Y-169689131D01*
X62297972Y-169678711D01*
X62257665Y-169666974D01*
X62213167Y-169653999D01*
X62164755Y-169639867D01*
X62112703Y-169624659D01*
X62057288Y-169608455D01*
X61998784Y-169591334D01*
X61937469Y-169573379D01*
X61873616Y-169554669D01*
X61807503Y-169535284D01*
X61739405Y-169515305D01*
X61669597Y-169494813D01*
X61664086Y-169493194D01*
X61578256Y-169467989D01*
X61498595Y-169444595D01*
X61424877Y-169422946D01*
X61356873Y-169402975D01*
X61294357Y-169384617D01*
X61237100Y-169367804D01*
X61184876Y-169352472D01*
X61137458Y-169338554D01*
X61094617Y-169325983D01*
X61056126Y-169314694D01*
X61021758Y-169304620D01*
X60991286Y-169295695D01*
X60964482Y-169287854D01*
X60941119Y-169281029D01*
X60920969Y-169275155D01*
X60903805Y-169270166D01*
X60889400Y-169265994D01*
X60877525Y-169262576D01*
X60867955Y-169259843D01*
X60860460Y-169257730D01*
X60854815Y-169256170D01*
X60850791Y-169255099D01*
X60848161Y-169254448D01*
X60846698Y-169254153D01*
X60846174Y-169254147D01*
X60846363Y-169254364D01*
X60847035Y-169254738D01*
X60847965Y-169255202D01*
X60848924Y-169255691D01*
X60849686Y-169256137D01*
X60849895Y-169256300D01*
X60852941Y-169258331D01*
X60861356Y-169263811D01*
X60874900Y-169272583D01*
X60893335Y-169284493D01*
X60916418Y-169299387D01*
X60943911Y-169317110D01*
X60975574Y-169337508D01*
X61011165Y-169360427D01*
X61050445Y-169385711D01*
X61093175Y-169413206D01*
X61139113Y-169442758D01*
X61188019Y-169474212D01*
X61239655Y-169507414D01*
X61293778Y-169542208D01*
X61350150Y-169578441D01*
X61408531Y-169615959D01*
X61468679Y-169654606D01*
X61530355Y-169694227D01*
X61547312Y-169705119D01*
X61631680Y-169759333D01*
X61710447Y-169809990D01*
X61783639Y-169857107D01*
X61851283Y-169900704D01*
X61913404Y-169940795D01*
X61970031Y-169977400D01*
X62021188Y-170010535D01*
X62066904Y-170040217D01*
X62107203Y-170066463D01*
X62142114Y-170089291D01*
X62171662Y-170108719D01*
X62195873Y-170124763D01*
X62214775Y-170137440D01*
X62228395Y-170146768D01*
X62236757Y-170152765D01*
X62239890Y-170155447D01*
X62239912Y-170155560D01*
X62237841Y-170159119D01*
X62232490Y-170167770D01*
X62224188Y-170180997D01*
X62213261Y-170198284D01*
X62200037Y-170219116D01*
X62184842Y-170242977D01*
X62168005Y-170269352D01*
X62149851Y-170297724D01*
X62135600Y-170319957D01*
X62114119Y-170353306D01*
X62094523Y-170383458D01*
X62077040Y-170410076D01*
X62061897Y-170432820D01*
X62049322Y-170451353D01*
X62039541Y-170465337D01*
X62032783Y-170474435D01*
X62029276Y-170478308D01*
X62028922Y-170478417D01*
X62025789Y-170476507D01*
X62017289Y-170471146D01*
X62003664Y-170462489D01*
X61985156Y-170450691D01*
X61962004Y-170435907D01*
X61934452Y-170418291D01*
X61902740Y-170397997D01*
X61867109Y-170375181D01*
X61827801Y-170349997D01*
X61785057Y-170322599D01*
X61739118Y-170293143D01*
X61690226Y-170261783D01*
X61638622Y-170228674D01*
X61584548Y-170193970D01*
X61528244Y-170157825D01*
X61469952Y-170120396D01*
X61409913Y-170081836D01*
X61348369Y-170042299D01*
X61335589Y-170034088D01*
X61273749Y-169994356D01*
X61213359Y-169955558D01*
X61154660Y-169917849D01*
X61097894Y-169881384D01*
X61043303Y-169846318D01*
X60991129Y-169812806D01*
X60941612Y-169781005D01*
X60894996Y-169751068D01*
X60851522Y-169723152D01*
X60811432Y-169697411D01*
X60774967Y-169674001D01*
X60742369Y-169653077D01*
X60713880Y-169634795D01*
X60689743Y-169619309D01*
X60670198Y-169606774D01*
X60655487Y-169597347D01*
X60645853Y-169591182D01*
X60641537Y-169588435D01*
X60641333Y-169588309D01*
X60638131Y-169586773D01*
X60639211Y-169589008D01*
X60641333Y-169591789D01*
X60643993Y-169594926D01*
X60650790Y-169602836D01*
X60661492Y-169615254D01*
X60675871Y-169631916D01*
X60693697Y-169652556D01*
X60714741Y-169676910D01*
X60738773Y-169704712D01*
X60765564Y-169735696D01*
X60794884Y-169769599D01*
X60826503Y-169806154D01*
X60860193Y-169845097D01*
X60895722Y-169886163D01*
X60932863Y-169929086D01*
X60971386Y-169973602D01*
X61011061Y-170019445D01*
X61051658Y-170066350D01*
X61092948Y-170114052D01*
X61134701Y-170162286D01*
X61176689Y-170210787D01*
X61218681Y-170259289D01*
X61260448Y-170307528D01*
X61301760Y-170355239D01*
X61342388Y-170402156D01*
X61382103Y-170448014D01*
X61420674Y-170492549D01*
X61457873Y-170535495D01*
X61493469Y-170576586D01*
X61527234Y-170615559D01*
X61558938Y-170652147D01*
X61588351Y-170686086D01*
X61615244Y-170717110D01*
X61639387Y-170744955D01*
X61660551Y-170769355D01*
X61678507Y-170790045D01*
X61693024Y-170806760D01*
X61703873Y-170819236D01*
X61710825Y-170827206D01*
X61713623Y-170830378D01*
X61721708Y-170839089D01*
X61574772Y-170966461D01*
X61548016Y-170989595D01*
X61522733Y-171011340D01*
X61499375Y-171031314D01*
X61478393Y-171049137D01*
X61460238Y-171064430D01*
X61445362Y-171076812D01*
X61434216Y-171085901D01*
X61427251Y-171091319D01*
X61424945Y-171092750D01*
X61422533Y-171090167D01*
X61415946Y-171082759D01*
X61405373Y-171070742D01*
X61391002Y-171054333D01*
X61373020Y-171033748D01*
X61351615Y-171009202D01*
X61326976Y-170980913D01*
X61299290Y-170949097D01*
X61268746Y-170913969D01*
X61235531Y-170875746D01*
X61199834Y-170834645D01*
X61161841Y-170790881D01*
X61121742Y-170744672D01*
X61079725Y-170696232D01*
X61035976Y-170645779D01*
X60990685Y-170593528D01*
X60944039Y-170539696D01*
X60896226Y-170484499D01*
X60887998Y-170475000D01*
X60839926Y-170419496D01*
X60792951Y-170365268D01*
X60747264Y-170312534D01*
X60703054Y-170261514D01*
X60660512Y-170212427D01*
X60619828Y-170165493D01*
X60581194Y-170120932D01*
X60544800Y-170078964D01*
X60510836Y-170039807D01*
X60479493Y-170003682D01*
X60450961Y-169970808D01*
X60425430Y-169941405D01*
X60403092Y-169915692D01*
X60384136Y-169893888D01*
X60368754Y-169876215D01*
X60357136Y-169862890D01*
X60349472Y-169854134D01*
X60345952Y-169850166D01*
X60345795Y-169850000D01*
X60344730Y-169848755D01*
X60343533Y-169847145D01*
X60342300Y-169845381D01*
X60341127Y-169843677D01*
X60340111Y-169842245D01*
X60339347Y-169841298D01*
X60338930Y-169841049D01*
X60338957Y-169841711D01*
X60339524Y-169843497D01*
X60340727Y-169846619D01*
X60342661Y-169851290D01*
X60345422Y-169857724D01*
X60349107Y-169866132D01*
X60353811Y-169876729D01*
X60359630Y-169889726D01*
X60366660Y-169905337D01*
X60374998Y-169923775D01*
X60384738Y-169945251D01*
X60395976Y-169969980D01*
X60408810Y-169998174D01*
X60423333Y-170030045D01*
X60439644Y-170065808D01*
X60457836Y-170105673D01*
X60478007Y-170149856D01*
X60500252Y-170198567D01*
X60524667Y-170252021D01*
X60551349Y-170310429D01*
X60580392Y-170374005D01*
X60611892Y-170442962D01*
X60645947Y-170517512D01*
X60682651Y-170597869D01*
X60691020Y-170616194D01*
X60721238Y-170682377D01*
X60750712Y-170746974D01*
X60779323Y-170809723D01*
X60806953Y-170870362D01*
X60833481Y-170928627D01*
X60858789Y-170984255D01*
X60882757Y-171036985D01*
X60905267Y-171086552D01*
X60926199Y-171132695D01*
X60945435Y-171175150D01*
X60962855Y-171213655D01*
X60978339Y-171247946D01*
X60991770Y-171277762D01*
X61003027Y-171302839D01*
X61011991Y-171322915D01*
X61018544Y-171337726D01*
X61022566Y-171347010D01*
X61023939Y-171350505D01*
X61023937Y-171350520D01*
X61020802Y-171352456D01*
X61012251Y-171356815D01*
X60998937Y-171363296D01*
X60981516Y-171371600D01*
X60960640Y-171381428D01*
X60936964Y-171392480D01*
X60911143Y-171404458D01*
X60883831Y-171417060D01*
X60855681Y-171429988D01*
X60827348Y-171442943D01*
X60799487Y-171455625D01*
X60772751Y-171467735D01*
X60747794Y-171478972D01*
X60725271Y-171489039D01*
X60705836Y-171497635D01*
X60690143Y-171504460D01*
X60678846Y-171509216D01*
X60672599Y-171511603D01*
X60671568Y-171511811D01*
X60670007Y-171508700D01*
X60665798Y-171499781D01*
X60659059Y-171485314D01*
X60649909Y-171465558D01*
X60638467Y-171440770D01*
X60624851Y-171411209D01*
X60609180Y-171377134D01*
X60591572Y-171338804D01*
X60572146Y-171296476D01*
X60551020Y-171250410D01*
X60528314Y-171200863D01*
X60504146Y-171148095D01*
X60478633Y-171092364D01*
X60451896Y-171033929D01*
X60424052Y-170973047D01*
X60395220Y-170909978D01*
X60365519Y-170844981D01*
X60335067Y-170778312D01*
X60326190Y-170758873D01*
X60295560Y-170691806D01*
X60265654Y-170626352D01*
X60236590Y-170562768D01*
X60208488Y-170501313D01*
X60181465Y-170442244D01*
X60155638Y-170385817D01*
X60131127Y-170332291D01*
X60108048Y-170281923D01*
X60086521Y-170234971D01*
X60066664Y-170191691D01*
X60048593Y-170152342D01*
X60032429Y-170117180D01*
X60018288Y-170086463D01*
X60006288Y-170060449D01*
X59996548Y-170039395D01*
X59989186Y-170023558D01*
X59984320Y-170013196D01*
X59982068Y-170008566D01*
X59981921Y-170008333D01*
X59982292Y-170011680D01*
X59983574Y-170021344D01*
X59985727Y-170037043D01*
X59988711Y-170058497D01*
X59992486Y-170085423D01*
X59997011Y-170117541D01*
X60002247Y-170154568D01*
X60008154Y-170196224D01*
X60014691Y-170242227D01*
X60021818Y-170292295D01*
X60029497Y-170346147D01*
X60037685Y-170403502D01*
X60046344Y-170464078D01*
X60055434Y-170527593D01*
X60064913Y-170593767D01*
X60074743Y-170662318D01*
X60084884Y-170732964D01*
X60095294Y-170805423D01*
X60098077Y-170824778D01*
X60108554Y-170897711D01*
X60118767Y-170968926D01*
X60128676Y-171038142D01*
X60138242Y-171105075D01*
X60147424Y-171169442D01*
X60156182Y-171230961D01*
X60164477Y-171289348D01*
X60172269Y-171344321D01*
X60179517Y-171395597D01*
X60186182Y-171442892D01*
X60192224Y-171485925D01*
X60197603Y-171524413D01*
X60202279Y-171558071D01*
X60206212Y-171586618D01*
X60209362Y-171609771D01*
X60211690Y-171627247D01*
X60213155Y-171638762D01*
X60213717Y-171644034D01*
X60213711Y-171644346D01*
X60210110Y-171645829D01*
X60200121Y-171648092D01*
X60183712Y-171651141D01*
X60160847Y-171654981D01*
X60131492Y-171659619D01*
X60095613Y-171665059D01*
X60053175Y-171671308D01*
X60021175Y-171675932D01*
X59986339Y-171680919D01*
X59953530Y-171685584D01*
X59923332Y-171689849D01*
X59896327Y-171693630D01*
X59873100Y-171696848D01*
X59854233Y-171699422D01*
X59840310Y-171701271D01*
X59831914Y-171702313D01*
X59829560Y-171702508D01*
X59829032Y-171699179D01*
X59827599Y-171689532D01*
X59825300Y-171673849D01*
X59822176Y-171652410D01*
X59818269Y-171625496D01*
X59813617Y-171593390D01*
X59808263Y-171556371D01*
X59802246Y-171514721D01*
X59795608Y-171468721D01*
X59788388Y-171418653D01*
X59780627Y-171364798D01*
X59772366Y-171307436D01*
X59763645Y-171246849D01*
X59754505Y-171183319D01*
X59744987Y-171117126D01*
X59735130Y-171048551D01*
X59724976Y-170977876D01*
X59714565Y-170905382D01*
X59711639Y-170885000D01*
X59701159Y-170812016D01*
X59690922Y-170740756D01*
X59680970Y-170671502D01*
X59671341Y-170604535D01*
X59662078Y-170540139D01*
X59653221Y-170478595D01*
X59644811Y-170420186D01*
X59636888Y-170365193D01*
X59629493Y-170313901D01*
X59622667Y-170266590D01*
X59616450Y-170223543D01*
X59610884Y-170185042D01*
X59606009Y-170151370D01*
X59601866Y-170122809D01*
X59598495Y-170099642D01*
X59595938Y-170082150D01*
X59594234Y-170070616D01*
X59593425Y-170065323D01*
X59593365Y-170065000D01*
X59592107Y-170065415D01*
X59590423Y-170070891D01*
X59590256Y-170071666D01*
X59589602Y-170075829D01*
X59588044Y-170086304D01*
X59585624Y-170102802D01*
X59582383Y-170125036D01*
X59578364Y-170152719D01*
X59573607Y-170185561D01*
X59568155Y-170223275D01*
X59562047Y-170265575D01*
X59555328Y-170312170D01*
X59548036Y-170362775D01*
X59540215Y-170417100D01*
X59531905Y-170474859D01*
X59523148Y-170535762D01*
X59513986Y-170599523D01*
X59504460Y-170665854D01*
X59494611Y-170734467D01*
X59484481Y-170805073D01*
X59474112Y-170877385D01*
X59473020Y-170885000D01*
X59462634Y-170957438D01*
X59452486Y-171028182D01*
X59442617Y-171096944D01*
X59433069Y-171163439D01*
X59423884Y-171227379D01*
X59415102Y-171288479D01*
X59406764Y-171346450D01*
X59398913Y-171401007D01*
X59391589Y-171451863D01*
X59384834Y-171498731D01*
X59378689Y-171541325D01*
X59373195Y-171579357D01*
X59368394Y-171612542D01*
X59364327Y-171640593D01*
X59361035Y-171663222D01*
X59358559Y-171680144D01*
X59356941Y-171691071D01*
X59356223Y-171695717D01*
X59356200Y-171695833D01*
X59352625Y-171701799D01*
X59348769Y-171702865D01*
X59344480Y-171702308D01*
X59334206Y-171700875D01*
X59318558Y-171698652D01*
X59298147Y-171695729D01*
X59273586Y-171692193D01*
X59245486Y-171688131D01*
X59214457Y-171683632D01*
X59181111Y-171678785D01*
X59156333Y-171675174D01*
X58969666Y-171647952D01*
X58970592Y-171636476D01*
X58971157Y-171632004D01*
X58972606Y-171621390D01*
X58974881Y-171605060D01*
X58977918Y-171583439D01*
X58981658Y-171556951D01*
X58986040Y-171526023D01*
X58991002Y-171491079D01*
X58996484Y-171452544D01*
X59002424Y-171410845D01*
X59008763Y-171366405D01*
X59015438Y-171319651D01*
X59022389Y-171271007D01*
X59029555Y-171220898D01*
X59036875Y-171169751D01*
X59044288Y-171117990D01*
X59051733Y-171066040D01*
X59059149Y-171014327D01*
X59066476Y-170963276D01*
X59073652Y-170913312D01*
X59080616Y-170864860D01*
X59087308Y-170818345D01*
X59093666Y-170774193D01*
X59099630Y-170732829D01*
X59105138Y-170694679D01*
X59110130Y-170660166D01*
X59114545Y-170629718D01*
X59118322Y-170603758D01*
X59121399Y-170582712D01*
X59123716Y-170567005D01*
X59125213Y-170557063D01*
X59125821Y-170553333D01*
X59128107Y-170549337D01*
X59133846Y-170540844D01*
X59142456Y-170528667D01*
X59153359Y-170513619D01*
X59165975Y-170496514D01*
X59173933Y-170485857D01*
X59251982Y-170376482D01*
X59325580Y-170262478D01*
X59394377Y-170144470D01*
X59458024Y-170023085D01*
X59516170Y-169898948D01*
X59559632Y-169795213D01*
X59608812Y-169662486D01*
X59651472Y-169528498D01*
X59687624Y-169393172D01*
X59717285Y-169256433D01*
X59740467Y-169118203D01*
X59757187Y-168978407D01*
X59767457Y-168836970D01*
X59771293Y-168693814D01*
X59771324Y-168680000D01*
X59768047Y-168537218D01*
X59758235Y-168395623D01*
X59741936Y-168255361D01*
X59719197Y-168116575D01*
X59690068Y-167979411D01*
X59654598Y-167844013D01*
X59612834Y-167710527D01*
X59564827Y-167579097D01*
X59510623Y-167449868D01*
X59450272Y-167322986D01*
X59383823Y-167198595D01*
X59311323Y-167076840D01*
X59232822Y-166957866D01*
X59159632Y-166856666D01*
X59125706Y-166811666D01*
X59047024Y-166263439D01*
X59038472Y-166203823D01*
X59030187Y-166146010D01*
X59022219Y-166090343D01*
X59014615Y-166037165D01*
X59007425Y-165986821D01*
X59000698Y-165939651D01*
X58994481Y-165896001D01*
X58988825Y-165856213D01*
X58983777Y-165820630D01*
X58979387Y-165789595D01*
X58975703Y-165763452D01*
X58972774Y-165742543D01*
X58970649Y-165727212D01*
X58969377Y-165717802D01*
X58969004Y-165714656D01*
X58972626Y-165713854D01*
X58982117Y-165712274D01*
X58996768Y-165710012D01*
X59015868Y-165707167D01*
X59038707Y-165703838D01*
X59064574Y-165700124D01*
X59092759Y-165696122D01*
X59122552Y-165691931D01*
X59153242Y-165687650D01*
X59184119Y-165683377D01*
X59214473Y-165679211D01*
X59243592Y-165675250D01*
X59270768Y-165671592D01*
X59295289Y-165668337D01*
X59316445Y-165665582D01*
X59333526Y-165663426D01*
X59345822Y-165661968D01*
X59352621Y-165661306D01*
X59353761Y-165661317D01*
X59354427Y-165664769D01*
X59355997Y-165674539D01*
X59358430Y-165690345D01*
X59361686Y-165711905D01*
X59365722Y-165738937D01*
X59370497Y-165771159D01*
X59375971Y-165808290D01*
X59382103Y-165850048D01*
X59388850Y-165896151D01*
X59396173Y-165946317D01*
X59404029Y-166000265D01*
X59412378Y-166057712D01*
X59421179Y-166118378D01*
X59430390Y-166181980D01*
X59439970Y-166248236D01*
X59449878Y-166316865D01*
X59460072Y-166387585D01*
X59470513Y-166460114D01*
X59473435Y-166480435D01*
X59483934Y-166553409D01*
X59494197Y-166624650D01*
X59504181Y-166693875D01*
X59513847Y-166760804D01*
X59523153Y-166825154D01*
X59532058Y-166886644D01*
X59540520Y-166944992D01*
X59548500Y-166999917D01*
X59555956Y-167051137D01*
X59562846Y-167098370D01*
X59569130Y-167141335D01*
X59574767Y-167179750D01*
X59579716Y-167213334D01*
X59583935Y-167241805D01*
X59587384Y-167264881D01*
X59590021Y-167282281D01*
X59591806Y-167293723D01*
X59592697Y-167298926D01*
X59592781Y-167299225D01*
X59594422Y-167298385D01*
X59594625Y-167296388D01*
X59595087Y-167292574D01*
X59596450Y-167282528D01*
X59598665Y-167266592D01*
X59601683Y-167245109D01*
X59605453Y-167218422D01*
X59609928Y-167186873D01*
X59615057Y-167150806D01*
X59620792Y-167110562D01*
X59627082Y-167066485D01*
X59633880Y-167018917D01*
X59641135Y-166968201D01*
X59648798Y-166914680D01*
X59656820Y-166858696D01*
X59665151Y-166800592D01*
X59673743Y-166740710D01*
X59682546Y-166679394D01*
X59691511Y-166616986D01*
X59700588Y-166553828D01*
X59709728Y-166490264D01*
X59718882Y-166426636D01*
X59728000Y-166363286D01*
X59737034Y-166300558D01*
X59745934Y-166238794D01*
X59754650Y-166178337D01*
X59763134Y-166119530D01*
X59771335Y-166062714D01*
X59779206Y-166008234D01*
X59786696Y-165956430D01*
X59793756Y-165907648D01*
X59800337Y-165862228D01*
X59806390Y-165820513D01*
X59811865Y-165782847D01*
X59816713Y-165749572D01*
X59820885Y-165721030D01*
X59824331Y-165697565D01*
X59827002Y-165679519D01*
X59828849Y-165667234D01*
X59829823Y-165661054D01*
X59829962Y-165660356D01*
X59833379Y-165660570D01*
G37*
G04 #@! TO.C,JP2*
G36*
X67524000Y-172064000D02*
G01*
X69974000Y-172064000D01*
X69974000Y-173564000D01*
X67524000Y-173564000D01*
X67524000Y-172064000D01*
G37*
G04 #@! TO.C,JP1*
G36*
X67524000Y-169270000D02*
G01*
X69974000Y-169270000D01*
X69974000Y-170770000D01*
X67524000Y-170770000D01*
X67524000Y-169270000D01*
G37*
G04 #@! TD*
D11*
G04 #@! TO.C,H4*
X30000000Y-140000000D03*
G04 #@! TD*
G04 #@! TO.C,H5*
X70000000Y-140000000D03*
G04 #@! TD*
D12*
G04 #@! TO.C,C5*
X52964000Y-183012500D03*
X52964000Y-179887500D03*
G04 #@! TD*
D13*
G04 #@! TO.C,U2*
X40046000Y-181704000D03*
X40446000Y-181704000D03*
X40846000Y-181704000D03*
X41246000Y-181704000D03*
X41646000Y-181704000D03*
D14*
X42296000Y-181054000D03*
X42296000Y-180654000D03*
X42296000Y-180254000D03*
X42296000Y-179854000D03*
X42296000Y-179454000D03*
D13*
X41646000Y-178804000D03*
X41246000Y-178804000D03*
X40846000Y-178804000D03*
X40446000Y-178804000D03*
X40046000Y-178804000D03*
D14*
X39396000Y-179454000D03*
X39396000Y-179854000D03*
X39396000Y-180254000D03*
X39396000Y-180654000D03*
X39396000Y-181054000D03*
D15*
X40846000Y-180254000D03*
G04 #@! TD*
D16*
G04 #@! TO.C,C4*
X45090000Y-183012500D03*
X45090000Y-179887500D03*
G04 #@! TD*
D17*
G04 #@! TO.C,TP13*
X71500000Y-146000000D03*
G04 #@! TD*
D18*
G04 #@! TO.C,C3*
X56774000Y-178363500D03*
X56774000Y-181488500D03*
G04 #@! TD*
D12*
G04 #@! TO.C,C6*
X49789000Y-183012500D03*
X49789000Y-179887500D03*
G04 #@! TD*
D17*
G04 #@! TO.C,TP12*
X68000000Y-146000000D03*
G04 #@! TD*
D19*
G04 #@! TO.C,C2*
X43858500Y-176370000D03*
X40733500Y-176370000D03*
G04 #@! TD*
D20*
G04 #@! TO.C,JP2*
X68024000Y-172814000D03*
D21*
X69474000Y-172814000D03*
G04 #@! TD*
D17*
G04 #@! TO.C,TP2*
X72522000Y-158844000D03*
G04 #@! TD*
D22*
G04 #@! TO.C,U1*
X52575000Y-161905000D03*
X52575000Y-160635000D03*
X52575000Y-159365000D03*
X52575000Y-158095000D03*
X47425000Y-158095000D03*
X47425000Y-159365000D03*
X47425000Y-160635000D03*
X47425000Y-161905000D03*
G04 #@! TD*
D17*
G04 #@! TO.C,TP10*
X32500000Y-170000000D03*
G04 #@! TD*
G04 #@! TO.C,TP4*
X72522000Y-152240000D03*
G04 #@! TD*
D11*
G04 #@! TO.C,H6*
X30000000Y-180000000D03*
G04 #@! TD*
D17*
G04 #@! TO.C,TP6*
X29500000Y-165956000D03*
G04 #@! TD*
G04 #@! TO.C,TP7*
X72268000Y-175862000D03*
G04 #@! TD*
D23*
G04 #@! TO.C,J4*
X59000000Y-138532500D03*
D24*
X61500000Y-138532500D03*
X64000000Y-138532500D03*
G04 #@! TD*
D17*
G04 #@! TO.C,TP11*
X64500000Y-146000000D03*
G04 #@! TD*
G04 #@! TO.C,TP5*
X46614000Y-152494000D03*
G04 #@! TD*
D25*
G04 #@! TO.C,H3*
X62000004Y-153071795D03*
D11*
X62000004Y-153071795D03*
G04 #@! TD*
D20*
G04 #@! TO.C,JP1*
X68024000Y-170020000D03*
D21*
X69474000Y-170020000D03*
G04 #@! TD*
D26*
G04 #@! TO.C,J2*
X31501000Y-145636000D03*
D27*
X31501000Y-147636000D03*
X31501000Y-149636000D03*
X31501000Y-151636000D03*
X31501000Y-153636000D03*
X31501000Y-155636000D03*
X31501000Y-157636000D03*
X31501000Y-159636000D03*
G04 #@! TD*
D12*
G04 #@! TO.C,C1*
X55000000Y-161595000D03*
X55000000Y-158470000D03*
G04 #@! TD*
D17*
G04 #@! TO.C,TP8*
X37474874Y-174974874D03*
G04 #@! TD*
G04 #@! TO.C,TP3*
X72522000Y-162146000D03*
G04 #@! TD*
G04 #@! TO.C,TP1*
X72522000Y-155542000D03*
G04 #@! TD*
D11*
G04 #@! TO.C,H7*
X70000000Y-180000000D03*
G04 #@! TD*
D25*
G04 #@! TO.C,H2*
X37999997Y-153071795D03*
D11*
X37999997Y-153071795D03*
G04 #@! TD*
D28*
G04 #@! TO.C,J1*
X49408000Y-138778000D03*
D29*
X47408000Y-138778000D03*
X45408000Y-138778000D03*
X43408000Y-138778000D03*
X41408000Y-138778000D03*
X39408000Y-138778000D03*
X37408000Y-138778000D03*
X35408000Y-138778000D03*
G04 #@! TD*
D17*
G04 #@! TO.C,TP9*
X35000000Y-172500000D03*
G04 #@! TD*
D25*
G04 #@! TO.C,H1*
X50000000Y-173856410D03*
D11*
X50000000Y-173856410D03*
G04 #@! TD*
D30*
G04 #@! TO.C,J3*
X39929290Y-171106245D03*
D31*
X38161523Y-169338478D03*
X36393756Y-167570711D03*
G04 #@! TD*
M02*
