G04 #@! TF.GenerationSoftware,KiCad,Pcbnew,10.0.3*
G04 #@! TF.CreationDate,2026-06-03T23:39:29+08:00*
G04 #@! TF.ProjectId,blackmacro_dial,626c6163-6b6d-4616-9372-6f5f6469616c,5-FAB1*
G04 #@! TF.SameCoordinates,Original*
G04 #@! TF.FileFunction,Legend,Bot*
G04 #@! TF.FilePolarity,Positive*
%FSLAX46Y46*%
G04 Gerber Fmt 4.6, Leading zero omitted, Abs format (unit mm)*
G04 Created by KiCad (PCBNEW 10.0.3) date 2026-06-03 23:39:29*
%MOMM*%
%LPD*%
G01*
G04 APERTURE LIST*
G04 Aperture macros list*
%AMRoundRect*
0 Rectangle with rounded corners*
0 $1 Rounding radius*
0 $2 $3 $4 $5 $6 $7 $8 $9 X,Y pos of 4 corners*
0 Add a 4 corners polygon primitive as box body*
4,1,4,$2,$3,$4,$5,$6,$7,$8,$9,$2,$3,0*
0 Add four circle primitives for the rounded corners*
1,1,$1+$1,$2,$3*
1,1,$1+$1,$4,$5*
1,1,$1+$1,$6,$7*
1,1,$1+$1,$8,$9*
0 Add four rect primitives between the rounded corners*
20,1,$1+$1,$2,$3,$4,$5,0*
20,1,$1+$1,$4,$5,$6,$7,0*
20,1,$1+$1,$6,$7,$8,$9,0*
20,1,$1+$1,$8,$9,$2,$3,0*%
%AMHorizOval*
0 Thick line with rounded ends*
0 $1 width*
0 $2 $3 position (X,Y) of the first rounded end (center of the circle)*
0 $4 $5 position (X,Y) of the second rounded end (center of the circle)*
0 Add line between two ends*
20,1,$1,$2,$3,$4,$5,0*
0 Add two circle primitives to create the rounded ends*
1,1,$1,$2,$3*
1,1,$1,$4,$5*%
G04 Aperture macros list end*
%ADD10C,0.158750*%
%ADD11C,0.254000*%
%ADD12C,0.200000*%
%ADD13C,0.300000*%
%ADD14C,0.150000*%
%ADD15C,0.120000*%
%ADD16C,4.400000*%
%ADD17R,4.000000X4.000000*%
%ADD18C,2.000000*%
%ADD19RoundRect,0.250000X-0.600000X-0.725000X0.600000X-0.725000X0.600000X0.725000X-0.600000X0.725000X0*%
%ADD20O,1.700000X1.950000*%
%ADD21C,2.600000*%
%ADD22RoundRect,0.250000X-0.625000X0.350000X-0.625000X-0.350000X0.625000X-0.350000X0.625000X0.350000X0*%
%ADD23O,1.750000X1.200000*%
%ADD24RoundRect,0.250000X0.350000X0.625000X-0.350000X0.625000X-0.350000X-0.625000X0.350000X-0.625000X0*%
%ADD25O,1.200000X1.750000*%
%ADD26RoundRect,0.250000X0.936916X0.088388X0.088388X0.936916X-0.936916X-0.088388X-0.088388X-0.936916X0*%
%ADD27HorizOval,1.700000X0.088388X0.088388X-0.088388X-0.088388X0*%
G04 APERTURE END LIST*
D10*
X55471917Y-178652271D02*
X56076679Y-178652271D01*
X56076679Y-178652271D02*
X56137155Y-179257033D01*
X56137155Y-179257033D02*
X56076679Y-179196556D01*
X56076679Y-179196556D02*
X55955726Y-179136080D01*
X55955726Y-179136080D02*
X55653345Y-179136080D01*
X55653345Y-179136080D02*
X55532393Y-179196556D01*
X55532393Y-179196556D02*
X55471917Y-179257033D01*
X55471917Y-179257033D02*
X55411440Y-179377985D01*
X55411440Y-179377985D02*
X55411440Y-179680366D01*
X55411440Y-179680366D02*
X55471917Y-179801318D01*
X55471917Y-179801318D02*
X55532393Y-179861795D01*
X55532393Y-179861795D02*
X55653345Y-179922271D01*
X55653345Y-179922271D02*
X55955726Y-179922271D01*
X55955726Y-179922271D02*
X56076679Y-179861795D01*
X56076679Y-179861795D02*
X56137155Y-179801318D01*
X54867155Y-179438461D02*
X53899536Y-179438461D01*
X52871440Y-179257033D02*
X53294774Y-179257033D01*
X53294774Y-179922271D02*
X53294774Y-178652271D01*
X53294774Y-178652271D02*
X52690012Y-178652271D01*
X52266679Y-179559414D02*
X51661917Y-179559414D01*
X52387631Y-179922271D02*
X51964298Y-178652271D01*
X51964298Y-178652271D02*
X51540964Y-179922271D01*
X50694298Y-179257033D02*
X50512870Y-179317509D01*
X50512870Y-179317509D02*
X50452393Y-179377985D01*
X50452393Y-179377985D02*
X50391917Y-179498937D01*
X50391917Y-179498937D02*
X50391917Y-179680366D01*
X50391917Y-179680366D02*
X50452393Y-179801318D01*
X50452393Y-179801318D02*
X50512870Y-179861795D01*
X50512870Y-179861795D02*
X50633822Y-179922271D01*
X50633822Y-179922271D02*
X51117632Y-179922271D01*
X51117632Y-179922271D02*
X51117632Y-178652271D01*
X51117632Y-178652271D02*
X50694298Y-178652271D01*
X50694298Y-178652271D02*
X50573346Y-178712747D01*
X50573346Y-178712747D02*
X50512870Y-178773223D01*
X50512870Y-178773223D02*
X50452393Y-178894175D01*
X50452393Y-178894175D02*
X50452393Y-179015128D01*
X50452393Y-179015128D02*
X50512870Y-179136080D01*
X50512870Y-179136080D02*
X50573346Y-179196556D01*
X50573346Y-179196556D02*
X50694298Y-179257033D01*
X50694298Y-179257033D02*
X51117632Y-179257033D01*
X49182393Y-179922271D02*
X49908108Y-179922271D01*
X49545251Y-179922271D02*
X49545251Y-178652271D01*
X49545251Y-178652271D02*
X49666203Y-178833699D01*
X49666203Y-178833699D02*
X49787155Y-178954652D01*
X49787155Y-178954652D02*
X49908108Y-179015128D01*
D11*
X64940299Y-179917318D02*
X65363633Y-179312556D01*
X65666014Y-179917318D02*
X65666014Y-178647318D01*
X65666014Y-178647318D02*
X65182204Y-178647318D01*
X65182204Y-178647318D02*
X65061252Y-178707794D01*
X65061252Y-178707794D02*
X65000775Y-178768270D01*
X65000775Y-178768270D02*
X64940299Y-178889222D01*
X64940299Y-178889222D02*
X64940299Y-179070651D01*
X64940299Y-179070651D02*
X65000775Y-179191603D01*
X65000775Y-179191603D02*
X65061252Y-179252080D01*
X65061252Y-179252080D02*
X65182204Y-179312556D01*
X65182204Y-179312556D02*
X65666014Y-179312556D01*
X63912204Y-179856842D02*
X64033156Y-179917318D01*
X64033156Y-179917318D02*
X64275061Y-179917318D01*
X64275061Y-179917318D02*
X64396014Y-179856842D01*
X64396014Y-179856842D02*
X64456490Y-179735889D01*
X64456490Y-179735889D02*
X64456490Y-179252080D01*
X64456490Y-179252080D02*
X64396014Y-179131127D01*
X64396014Y-179131127D02*
X64275061Y-179070651D01*
X64275061Y-179070651D02*
X64033156Y-179070651D01*
X64033156Y-179070651D02*
X63912204Y-179131127D01*
X63912204Y-179131127D02*
X63851728Y-179252080D01*
X63851728Y-179252080D02*
X63851728Y-179373032D01*
X63851728Y-179373032D02*
X64456490Y-179493984D01*
X63428395Y-179070651D02*
X63126014Y-179917318D01*
X63126014Y-179917318D02*
X62823633Y-179070651D01*
X62339824Y-179917318D02*
X62339824Y-179070651D01*
X62339824Y-178647318D02*
X62400300Y-178707794D01*
X62400300Y-178707794D02*
X62339824Y-178768270D01*
X62339824Y-178768270D02*
X62279347Y-178707794D01*
X62279347Y-178707794D02*
X62339824Y-178647318D01*
X62339824Y-178647318D02*
X62339824Y-178768270D01*
X61795538Y-179856842D02*
X61674585Y-179917318D01*
X61674585Y-179917318D02*
X61432681Y-179917318D01*
X61432681Y-179917318D02*
X61311728Y-179856842D01*
X61311728Y-179856842D02*
X61251252Y-179735889D01*
X61251252Y-179735889D02*
X61251252Y-179675413D01*
X61251252Y-179675413D02*
X61311728Y-179554461D01*
X61311728Y-179554461D02*
X61432681Y-179493984D01*
X61432681Y-179493984D02*
X61614109Y-179493984D01*
X61614109Y-179493984D02*
X61735062Y-179433508D01*
X61735062Y-179433508D02*
X61795538Y-179312556D01*
X61795538Y-179312556D02*
X61795538Y-179252080D01*
X61795538Y-179252080D02*
X61735062Y-179131127D01*
X61735062Y-179131127D02*
X61614109Y-179070651D01*
X61614109Y-179070651D02*
X61432681Y-179070651D01*
X61432681Y-179070651D02*
X61311728Y-179131127D01*
X60706967Y-179917318D02*
X60706967Y-179070651D01*
X60706967Y-178647318D02*
X60767443Y-178707794D01*
X60767443Y-178707794D02*
X60706967Y-178768270D01*
X60706967Y-178768270D02*
X60646490Y-178707794D01*
X60646490Y-178707794D02*
X60706967Y-178647318D01*
X60706967Y-178647318D02*
X60706967Y-178768270D01*
X59920776Y-179917318D02*
X60041728Y-179856842D01*
X60041728Y-179856842D02*
X60102205Y-179796365D01*
X60102205Y-179796365D02*
X60162681Y-179675413D01*
X60162681Y-179675413D02*
X60162681Y-179312556D01*
X60162681Y-179312556D02*
X60102205Y-179191603D01*
X60102205Y-179191603D02*
X60041728Y-179131127D01*
X60041728Y-179131127D02*
X59920776Y-179070651D01*
X59920776Y-179070651D02*
X59739347Y-179070651D01*
X59739347Y-179070651D02*
X59618395Y-179131127D01*
X59618395Y-179131127D02*
X59557919Y-179191603D01*
X59557919Y-179191603D02*
X59497443Y-179312556D01*
X59497443Y-179312556D02*
X59497443Y-179675413D01*
X59497443Y-179675413D02*
X59557919Y-179796365D01*
X59557919Y-179796365D02*
X59618395Y-179856842D01*
X59618395Y-179856842D02*
X59739347Y-179917318D01*
X59739347Y-179917318D02*
X59920776Y-179917318D01*
X58953157Y-179070651D02*
X58953157Y-179917318D01*
X58953157Y-179191603D02*
X58892680Y-179131127D01*
X58892680Y-179131127D02*
X58771728Y-179070651D01*
X58771728Y-179070651D02*
X58590299Y-179070651D01*
X58590299Y-179070651D02*
X58469347Y-179131127D01*
X58469347Y-179131127D02*
X58408871Y-179252080D01*
X58408871Y-179252080D02*
X58408871Y-179917318D01*
D10*
X56137155Y-181147723D02*
X56076679Y-181087247D01*
X56076679Y-181087247D02*
X55955726Y-181026771D01*
X55955726Y-181026771D02*
X55653345Y-181026771D01*
X55653345Y-181026771D02*
X55532393Y-181087247D01*
X55532393Y-181087247D02*
X55471917Y-181147723D01*
X55471917Y-181147723D02*
X55411440Y-181268675D01*
X55411440Y-181268675D02*
X55411440Y-181389628D01*
X55411440Y-181389628D02*
X55471917Y-181571056D01*
X55471917Y-181571056D02*
X56197631Y-182296771D01*
X56197631Y-182296771D02*
X55411440Y-182296771D01*
X54625250Y-181026771D02*
X54504297Y-181026771D01*
X54504297Y-181026771D02*
X54383345Y-181087247D01*
X54383345Y-181087247D02*
X54322869Y-181147723D01*
X54322869Y-181147723D02*
X54262393Y-181268675D01*
X54262393Y-181268675D02*
X54201916Y-181510580D01*
X54201916Y-181510580D02*
X54201916Y-181812961D01*
X54201916Y-181812961D02*
X54262393Y-182054866D01*
X54262393Y-182054866D02*
X54322869Y-182175818D01*
X54322869Y-182175818D02*
X54383345Y-182236295D01*
X54383345Y-182236295D02*
X54504297Y-182296771D01*
X54504297Y-182296771D02*
X54625250Y-182296771D01*
X54625250Y-182296771D02*
X54746202Y-182236295D01*
X54746202Y-182236295D02*
X54806678Y-182175818D01*
X54806678Y-182175818D02*
X54867155Y-182054866D01*
X54867155Y-182054866D02*
X54927631Y-181812961D01*
X54927631Y-181812961D02*
X54927631Y-181510580D01*
X54927631Y-181510580D02*
X54867155Y-181268675D01*
X54867155Y-181268675D02*
X54806678Y-181147723D01*
X54806678Y-181147723D02*
X54746202Y-181087247D01*
X54746202Y-181087247D02*
X54625250Y-181026771D01*
X53718107Y-181147723D02*
X53657631Y-181087247D01*
X53657631Y-181087247D02*
X53536678Y-181026771D01*
X53536678Y-181026771D02*
X53234297Y-181026771D01*
X53234297Y-181026771D02*
X53113345Y-181087247D01*
X53113345Y-181087247D02*
X53052869Y-181147723D01*
X53052869Y-181147723D02*
X52992392Y-181268675D01*
X52992392Y-181268675D02*
X52992392Y-181389628D01*
X52992392Y-181389628D02*
X53052869Y-181571056D01*
X53052869Y-181571056D02*
X53778583Y-182296771D01*
X53778583Y-182296771D02*
X52992392Y-182296771D01*
X51903821Y-181026771D02*
X52145726Y-181026771D01*
X52145726Y-181026771D02*
X52266678Y-181087247D01*
X52266678Y-181087247D02*
X52327154Y-181147723D01*
X52327154Y-181147723D02*
X52448107Y-181329152D01*
X52448107Y-181329152D02*
X52508583Y-181571056D01*
X52508583Y-181571056D02*
X52508583Y-182054866D01*
X52508583Y-182054866D02*
X52448107Y-182175818D01*
X52448107Y-182175818D02*
X52387630Y-182236295D01*
X52387630Y-182236295D02*
X52266678Y-182296771D01*
X52266678Y-182296771D02*
X52024773Y-182296771D01*
X52024773Y-182296771D02*
X51903821Y-182236295D01*
X51903821Y-182236295D02*
X51843345Y-182175818D01*
X51843345Y-182175818D02*
X51782868Y-182054866D01*
X51782868Y-182054866D02*
X51782868Y-181752485D01*
X51782868Y-181752485D02*
X51843345Y-181631533D01*
X51843345Y-181631533D02*
X51903821Y-181571056D01*
X51903821Y-181571056D02*
X52024773Y-181510580D01*
X52024773Y-181510580D02*
X52266678Y-181510580D01*
X52266678Y-181510580D02*
X52387630Y-181571056D01*
X52387630Y-181571056D02*
X52448107Y-181631533D01*
X52448107Y-181631533D02*
X52508583Y-181752485D01*
X51238583Y-181812961D02*
X50270964Y-181812961D01*
X49424297Y-181026771D02*
X49303344Y-181026771D01*
X49303344Y-181026771D02*
X49182392Y-181087247D01*
X49182392Y-181087247D02*
X49121916Y-181147723D01*
X49121916Y-181147723D02*
X49061440Y-181268675D01*
X49061440Y-181268675D02*
X49000963Y-181510580D01*
X49000963Y-181510580D02*
X49000963Y-181812961D01*
X49000963Y-181812961D02*
X49061440Y-182054866D01*
X49061440Y-182054866D02*
X49121916Y-182175818D01*
X49121916Y-182175818D02*
X49182392Y-182236295D01*
X49182392Y-182236295D02*
X49303344Y-182296771D01*
X49303344Y-182296771D02*
X49424297Y-182296771D01*
X49424297Y-182296771D02*
X49545249Y-182236295D01*
X49545249Y-182236295D02*
X49605725Y-182175818D01*
X49605725Y-182175818D02*
X49666202Y-182054866D01*
X49666202Y-182054866D02*
X49726678Y-181812961D01*
X49726678Y-181812961D02*
X49726678Y-181510580D01*
X49726678Y-181510580D02*
X49666202Y-181268675D01*
X49666202Y-181268675D02*
X49605725Y-181147723D01*
X49605725Y-181147723D02*
X49545249Y-181087247D01*
X49545249Y-181087247D02*
X49424297Y-181026771D01*
X47912392Y-181026771D02*
X48154297Y-181026771D01*
X48154297Y-181026771D02*
X48275249Y-181087247D01*
X48275249Y-181087247D02*
X48335725Y-181147723D01*
X48335725Y-181147723D02*
X48456678Y-181329152D01*
X48456678Y-181329152D02*
X48517154Y-181571056D01*
X48517154Y-181571056D02*
X48517154Y-182054866D01*
X48517154Y-182054866D02*
X48456678Y-182175818D01*
X48456678Y-182175818D02*
X48396201Y-182236295D01*
X48396201Y-182236295D02*
X48275249Y-182296771D01*
X48275249Y-182296771D02*
X48033344Y-182296771D01*
X48033344Y-182296771D02*
X47912392Y-182236295D01*
X47912392Y-182236295D02*
X47851916Y-182175818D01*
X47851916Y-182175818D02*
X47791439Y-182054866D01*
X47791439Y-182054866D02*
X47791439Y-181752485D01*
X47791439Y-181752485D02*
X47851916Y-181631533D01*
X47851916Y-181631533D02*
X47912392Y-181571056D01*
X47912392Y-181571056D02*
X48033344Y-181510580D01*
X48033344Y-181510580D02*
X48275249Y-181510580D01*
X48275249Y-181510580D02*
X48396201Y-181571056D01*
X48396201Y-181571056D02*
X48456678Y-181631533D01*
X48456678Y-181631533D02*
X48517154Y-181752485D01*
X47247154Y-181812961D02*
X46279535Y-181812961D01*
X45432868Y-181026771D02*
X45311915Y-181026771D01*
X45311915Y-181026771D02*
X45190963Y-181087247D01*
X45190963Y-181087247D02*
X45130487Y-181147723D01*
X45130487Y-181147723D02*
X45070011Y-181268675D01*
X45070011Y-181268675D02*
X45009534Y-181510580D01*
X45009534Y-181510580D02*
X45009534Y-181812961D01*
X45009534Y-181812961D02*
X45070011Y-182054866D01*
X45070011Y-182054866D02*
X45130487Y-182175818D01*
X45130487Y-182175818D02*
X45190963Y-182236295D01*
X45190963Y-182236295D02*
X45311915Y-182296771D01*
X45311915Y-182296771D02*
X45432868Y-182296771D01*
X45432868Y-182296771D02*
X45553820Y-182236295D01*
X45553820Y-182236295D02*
X45614296Y-182175818D01*
X45614296Y-182175818D02*
X45674773Y-182054866D01*
X45674773Y-182054866D02*
X45735249Y-181812961D01*
X45735249Y-181812961D02*
X45735249Y-181510580D01*
X45735249Y-181510580D02*
X45674773Y-181268675D01*
X45674773Y-181268675D02*
X45614296Y-181147723D01*
X45614296Y-181147723D02*
X45553820Y-181087247D01*
X45553820Y-181087247D02*
X45432868Y-181026771D01*
X44586201Y-181026771D02*
X43800010Y-181026771D01*
X43800010Y-181026771D02*
X44223344Y-181510580D01*
X44223344Y-181510580D02*
X44041915Y-181510580D01*
X44041915Y-181510580D02*
X43920963Y-181571056D01*
X43920963Y-181571056D02*
X43860487Y-181631533D01*
X43860487Y-181631533D02*
X43800010Y-181752485D01*
X43800010Y-181752485D02*
X43800010Y-182054866D01*
X43800010Y-182054866D02*
X43860487Y-182175818D01*
X43860487Y-182175818D02*
X43920963Y-182236295D01*
X43920963Y-182236295D02*
X44041915Y-182296771D01*
X44041915Y-182296771D02*
X44404772Y-182296771D01*
X44404772Y-182296771D02*
X44525725Y-182236295D01*
X44525725Y-182236295D02*
X44586201Y-182175818D01*
D11*
X65666014Y-182291818D02*
X65666014Y-181021818D01*
X65666014Y-181021818D02*
X65363633Y-181021818D01*
X65363633Y-181021818D02*
X65182204Y-181082294D01*
X65182204Y-181082294D02*
X65061252Y-181203246D01*
X65061252Y-181203246D02*
X65000775Y-181324199D01*
X65000775Y-181324199D02*
X64940299Y-181566103D01*
X64940299Y-181566103D02*
X64940299Y-181747532D01*
X64940299Y-181747532D02*
X65000775Y-181989437D01*
X65000775Y-181989437D02*
X65061252Y-182110389D01*
X65061252Y-182110389D02*
X65182204Y-182231342D01*
X65182204Y-182231342D02*
X65363633Y-182291818D01*
X65363633Y-182291818D02*
X65666014Y-182291818D01*
X63851728Y-182291818D02*
X63851728Y-181626580D01*
X63851728Y-181626580D02*
X63912204Y-181505627D01*
X63912204Y-181505627D02*
X64033156Y-181445151D01*
X64033156Y-181445151D02*
X64275061Y-181445151D01*
X64275061Y-181445151D02*
X64396014Y-181505627D01*
X63851728Y-182231342D02*
X63972680Y-182291818D01*
X63972680Y-182291818D02*
X64275061Y-182291818D01*
X64275061Y-182291818D02*
X64396014Y-182231342D01*
X64396014Y-182231342D02*
X64456490Y-182110389D01*
X64456490Y-182110389D02*
X64456490Y-181989437D01*
X64456490Y-181989437D02*
X64396014Y-181868484D01*
X64396014Y-181868484D02*
X64275061Y-181808008D01*
X64275061Y-181808008D02*
X63972680Y-181808008D01*
X63972680Y-181808008D02*
X63851728Y-181747532D01*
X63428394Y-181445151D02*
X62944585Y-181445151D01*
X63246966Y-181021818D02*
X63246966Y-182110389D01*
X63246966Y-182110389D02*
X63186489Y-182231342D01*
X63186489Y-182231342D02*
X63065537Y-182291818D01*
X63065537Y-182291818D02*
X62944585Y-182291818D01*
X62037442Y-182231342D02*
X62158394Y-182291818D01*
X62158394Y-182291818D02*
X62400299Y-182291818D01*
X62400299Y-182291818D02*
X62521252Y-182231342D01*
X62521252Y-182231342D02*
X62581728Y-182110389D01*
X62581728Y-182110389D02*
X62581728Y-181626580D01*
X62581728Y-181626580D02*
X62521252Y-181505627D01*
X62521252Y-181505627D02*
X62400299Y-181445151D01*
X62400299Y-181445151D02*
X62158394Y-181445151D01*
X62158394Y-181445151D02*
X62037442Y-181505627D01*
X62037442Y-181505627D02*
X61976966Y-181626580D01*
X61976966Y-181626580D02*
X61976966Y-181747532D01*
X61976966Y-181747532D02*
X62581728Y-181868484D01*
D12*
X57486000Y-178175000D02*
X57486000Y-180511000D01*
X57486000Y-180511000D02*
X57486000Y-182924000D01*
X57486000Y-180511000D02*
X43302718Y-180511000D01*
X67138000Y-180511000D02*
X57486000Y-180511000D01*
X43302718Y-178175000D02*
X67138000Y-178175000D01*
X67138000Y-178175000D02*
X67138000Y-182924000D01*
X67138000Y-182924000D02*
X43302718Y-182924000D01*
X43302718Y-182924000D02*
X43302718Y-178175000D01*
X67250000Y-160000000D02*
G75*
G02*
X32750000Y-160000000I-17250000J0D01*
G01*
X32750000Y-160000000D02*
G75*
G02*
X67250000Y-160000000I17250000J0D01*
G01*
D13*
G36*
X59279640Y-155500000D02*
G01*
X58786422Y-155500000D01*
X58686870Y-155493622D01*
X58600097Y-155475459D01*
X58524197Y-155446510D01*
X58454760Y-155405170D01*
X58397850Y-155354652D01*
X58352097Y-155294378D01*
X58318779Y-155226278D01*
X58298296Y-155149908D01*
X58291189Y-155063476D01*
X58292483Y-155050928D01*
X58553506Y-155050928D01*
X58561380Y-155119394D01*
X58583563Y-155174693D01*
X58619635Y-155219822D01*
X58667193Y-155253206D01*
X58726598Y-155274192D01*
X58801168Y-155281738D01*
X59023643Y-155281738D01*
X59023643Y-154811693D01*
X58801168Y-154811693D01*
X58726924Y-154819675D01*
X58667516Y-154841990D01*
X58619635Y-154877821D01*
X58583417Y-154925470D01*
X58561289Y-154982291D01*
X58553506Y-155050928D01*
X58292483Y-155050928D01*
X58300830Y-154970020D01*
X58329016Y-154886156D01*
X58374444Y-154812292D01*
X58433888Y-154753990D01*
X58505529Y-154712869D01*
X58587120Y-154692075D01*
X58587120Y-154687862D01*
X58514506Y-154667160D01*
X58452557Y-154631130D01*
X58399358Y-154578777D01*
X58359426Y-154515291D01*
X58335256Y-154443956D01*
X58329918Y-154391931D01*
X58589226Y-154391931D01*
X58596459Y-154453614D01*
X58616862Y-154503449D01*
X58650134Y-154544155D01*
X58693705Y-154574223D01*
X58747314Y-154593027D01*
X58813716Y-154599751D01*
X59023643Y-154599751D01*
X59023643Y-154186309D01*
X58813716Y-154186309D01*
X58745904Y-154193102D01*
X58692027Y-154211966D01*
X58649035Y-154241905D01*
X58616312Y-154282423D01*
X58596299Y-154331579D01*
X58589226Y-154391931D01*
X58329918Y-154391931D01*
X58326910Y-154362622D01*
X58335525Y-154274916D01*
X58360260Y-154199260D01*
X58400693Y-154133195D01*
X58458068Y-154075117D01*
X58525910Y-154030023D01*
X58605549Y-153996669D01*
X58699178Y-153975543D01*
X58809503Y-153968047D01*
X59279640Y-153968047D01*
X59279640Y-155500000D01*
G37*
G36*
X58083735Y-155500000D02*
G01*
X58083735Y-154345769D01*
X57865474Y-154345769D01*
X57865474Y-154513655D01*
X57859246Y-154513655D01*
X57849524Y-154459944D01*
X57829891Y-154415058D01*
X57800444Y-154377276D01*
X57762698Y-154348270D01*
X57719223Y-154330837D01*
X57668278Y-154324795D01*
X57618404Y-154330436D01*
X57574806Y-154346827D01*
X57536021Y-154374162D01*
X57504253Y-154409940D01*
X57479731Y-154453846D01*
X57462565Y-154507427D01*
X57451513Y-154453829D01*
X57430856Y-154410041D01*
X57400741Y-154374162D01*
X57362496Y-154347061D01*
X57317932Y-154330559D01*
X57265278Y-154324795D01*
X57199193Y-154334043D01*
X57141953Y-154361180D01*
X57091163Y-154407684D01*
X57053539Y-154466406D01*
X57030183Y-154536443D01*
X57021920Y-154620725D01*
X57021920Y-155500000D01*
X57252730Y-155500000D01*
X57252730Y-154639593D01*
X57259832Y-154587185D01*
X57279016Y-154550383D01*
X57310015Y-154526313D01*
X57353480Y-154517868D01*
X57394269Y-154525253D01*
X57422297Y-154545819D01*
X57440690Y-154581584D01*
X57447910Y-154639593D01*
X57447910Y-155500000D01*
X57657745Y-155500000D01*
X57657745Y-154639593D01*
X57664331Y-154587002D01*
X57681925Y-154550383D01*
X57710915Y-154526286D01*
X57752176Y-154517868D01*
X57796282Y-154525488D01*
X57826151Y-154546441D01*
X57845434Y-154582258D01*
X57852926Y-154639593D01*
X57852926Y-155500000D01*
X58083735Y-155500000D01*
G37*
G36*
X56394178Y-154331603D02*
G01*
X56482408Y-154350744D01*
X56557104Y-154380845D01*
X56620385Y-154421331D01*
X56675174Y-154473953D01*
X56714550Y-154532631D01*
X56739936Y-154598459D01*
X56751452Y-154673207D01*
X56499668Y-154673207D01*
X56489975Y-154632759D01*
X56470002Y-154599691D01*
X56438851Y-154572457D01*
X56378121Y-154546495D01*
X56291848Y-154536736D01*
X56212336Y-154545123D01*
X56157235Y-154567194D01*
X56119890Y-154600757D01*
X56096789Y-154647160D01*
X56088332Y-154710942D01*
X56088332Y-154792825D01*
X56369517Y-154792825D01*
X56470470Y-154799853D01*
X56555212Y-154819578D01*
X56626469Y-154850606D01*
X56686422Y-154892476D01*
X56736604Y-154946152D01*
X56772241Y-155007497D01*
X56794167Y-155078036D01*
X56801827Y-155160013D01*
X56795023Y-155239434D01*
X56775551Y-155308251D01*
X56744041Y-155368410D01*
X56700069Y-155421323D01*
X56646442Y-155463724D01*
X56583524Y-155494656D01*
X56509505Y-155514094D01*
X56421999Y-155520974D01*
X56327265Y-155513256D01*
X56250050Y-155491777D01*
X56186976Y-155458051D01*
X56135080Y-155410522D01*
X56100489Y-155353237D01*
X56082013Y-155283845D01*
X56082013Y-155500000D01*
X55826015Y-155500000D01*
X55826015Y-155099197D01*
X56088332Y-155099197D01*
X56096089Y-155159032D01*
X56118333Y-155208584D01*
X56155469Y-155250322D01*
X56203244Y-155280685D01*
X56263045Y-155299965D01*
X56338101Y-155306926D01*
X56402197Y-155301023D01*
X56451841Y-155284876D01*
X56490234Y-155259756D01*
X56519761Y-155225174D01*
X56537522Y-155184191D01*
X56543723Y-155134826D01*
X56537899Y-155086608D01*
X56521159Y-155045949D01*
X56493348Y-155011086D01*
X56457073Y-154984933D01*
X56412399Y-154968637D01*
X56356969Y-154962818D01*
X56088332Y-154962818D01*
X56088332Y-155099197D01*
X55826015Y-155099197D01*
X55826015Y-154717262D01*
X55834296Y-154625553D01*
X55857735Y-154548458D01*
X55895358Y-154483145D01*
X55947740Y-154427651D01*
X56010748Y-154384799D01*
X56086920Y-154352735D01*
X56178874Y-154332172D01*
X56289833Y-154324795D01*
X56394178Y-154331603D01*
G37*
G36*
X55016259Y-155520974D02*
G01*
X55114335Y-155514374D01*
X55200108Y-155495531D01*
X55275462Y-155465378D01*
X55344033Y-155422737D01*
X55400663Y-155370521D01*
X55446554Y-155308025D01*
X55479712Y-155237811D01*
X55500222Y-155158339D01*
X55507370Y-155067690D01*
X55507370Y-154778079D01*
X55500220Y-154687430D01*
X55479709Y-154607991D01*
X55446554Y-154537835D01*
X55400663Y-154475339D01*
X55344033Y-154423123D01*
X55275462Y-154380482D01*
X55200102Y-154350278D01*
X55114330Y-154331404D01*
X55016259Y-154324795D01*
X54908512Y-154332551D01*
X54816334Y-154354519D01*
X54737157Y-154389451D01*
X54668946Y-154437085D01*
X54611720Y-154497559D01*
X54570034Y-154567337D01*
X54543103Y-154648135D01*
X54531559Y-154742450D01*
X54789663Y-154742450D01*
X54800498Y-154685342D01*
X54823201Y-154639657D01*
X54857806Y-154602957D01*
X54901490Y-154576182D01*
X54953600Y-154559499D01*
X55016259Y-154553589D01*
X55085416Y-154560627D01*
X55140366Y-154580186D01*
X55184237Y-154611291D01*
X55217034Y-154653448D01*
X55237619Y-154707189D01*
X55245053Y-154775972D01*
X55245053Y-155067690D01*
X55237643Y-155136558D01*
X55217071Y-155190735D01*
X55184237Y-155233561D01*
X55140289Y-155265250D01*
X55085337Y-155285128D01*
X55016259Y-155292271D01*
X54952183Y-155286303D01*
X54899828Y-155269593D01*
X54856799Y-155242995D01*
X54822795Y-155206316D01*
X54800404Y-155160602D01*
X54789663Y-155103410D01*
X54531559Y-155103410D01*
X54543103Y-155197725D01*
X54570034Y-155278523D01*
X54611720Y-155348301D01*
X54668946Y-155408775D01*
X54737152Y-155456367D01*
X54816327Y-155491271D01*
X54908507Y-155513223D01*
X55016259Y-155520974D01*
G37*
G36*
X54202381Y-155500000D02*
G01*
X54202381Y-154345769D01*
X53946292Y-154345769D01*
X53946292Y-154570350D01*
X53924905Y-154498838D01*
X53890419Y-154439740D01*
X53842428Y-154390923D01*
X53783894Y-154355173D01*
X53713232Y-154332771D01*
X53627372Y-154324795D01*
X53540708Y-154332503D01*
X53467594Y-154354347D01*
X53405436Y-154389413D01*
X53352416Y-154438184D01*
X53311153Y-154497037D01*
X53280427Y-154567791D01*
X53260797Y-154652801D01*
X53253772Y-154754998D01*
X53253772Y-154864174D01*
X53516089Y-154864174D01*
X53516089Y-154767637D01*
X53522877Y-154699749D01*
X53541486Y-154647415D01*
X53570677Y-154607078D01*
X53610395Y-154577160D01*
X53661095Y-154558304D01*
X53726015Y-154551482D01*
X53793122Y-154559154D01*
X53845083Y-154580393D01*
X53885476Y-154614405D01*
X53914525Y-154659424D01*
X53933225Y-154717651D01*
X53940064Y-154792825D01*
X53940064Y-155500000D01*
X54202381Y-155500000D01*
G37*
G36*
X52627973Y-154335444D02*
G01*
X52721747Y-154359603D01*
X52801710Y-154398058D01*
X52870097Y-154450732D01*
X52925837Y-154516555D01*
X52966133Y-154593254D01*
X52991286Y-154682966D01*
X53000156Y-154788612D01*
X53000156Y-155057248D01*
X52991335Y-155161735D01*
X52966255Y-155250958D01*
X52925965Y-155327709D01*
X52870097Y-155394029D01*
X52801647Y-155447171D01*
X52721660Y-155485931D01*
X52627909Y-155510265D01*
X52517471Y-155518867D01*
X52407082Y-155510265D01*
X52313377Y-155485931D01*
X52233436Y-155447172D01*
X52165029Y-155394029D01*
X52109117Y-155327704D01*
X52068800Y-155250950D01*
X52043705Y-155161729D01*
X52034878Y-155057248D01*
X52034878Y-154788612D01*
X52035586Y-154780185D01*
X52297195Y-154780185D01*
X52297195Y-155065583D01*
X52304356Y-155136117D01*
X52324007Y-155190508D01*
X52354897Y-155232462D01*
X52396764Y-155263540D01*
X52449864Y-155283101D01*
X52517471Y-155290164D01*
X52585141Y-155283099D01*
X52638268Y-155263536D01*
X52680137Y-155232462D01*
X52711027Y-155190508D01*
X52730678Y-155136117D01*
X52737839Y-155065583D01*
X52737839Y-154780185D01*
X52730680Y-154709714D01*
X52711031Y-154655350D01*
X52680137Y-154613398D01*
X52638268Y-154582324D01*
X52585141Y-154562761D01*
X52517471Y-154555696D01*
X52449864Y-154562758D01*
X52396764Y-154582319D01*
X52354897Y-154613398D01*
X52324003Y-154655350D01*
X52304354Y-154709714D01*
X52297195Y-154780185D01*
X52035586Y-154780185D01*
X52043753Y-154682972D01*
X52068922Y-154593262D01*
X52109245Y-154516561D01*
X52165029Y-154450732D01*
X52233372Y-154398057D01*
X52313291Y-154359603D01*
X52407018Y-154335444D01*
X52517471Y-154326901D01*
X52627973Y-154335444D01*
G37*
G36*
X50472060Y-155500000D02*
G01*
X50016669Y-155500000D01*
X49914532Y-155492905D01*
X49825327Y-155472644D01*
X49747025Y-155440191D01*
X49675955Y-155394545D01*
X49617246Y-155338847D01*
X49569704Y-155272304D01*
X49535309Y-155197914D01*
X49514073Y-155114253D01*
X49506690Y-155019421D01*
X49506690Y-154446519D01*
X49769007Y-154446519D01*
X49769007Y-155019421D01*
X49777042Y-155092167D01*
X49799625Y-155150935D01*
X49836143Y-155198848D01*
X49884598Y-155234810D01*
X49943761Y-155257065D01*
X50016669Y-155264977D01*
X50209743Y-155264977D01*
X50209743Y-154203070D01*
X50016669Y-154203070D01*
X49943761Y-154210982D01*
X49884598Y-154233237D01*
X49836143Y-154269199D01*
X49799526Y-154317067D01*
X49776990Y-154375189D01*
X49769007Y-154446519D01*
X49506690Y-154446519D01*
X49514093Y-154351697D01*
X49535344Y-154268425D01*
X49569704Y-154194735D01*
X49617183Y-154128823D01*
X49675884Y-154073444D01*
X49747025Y-154027856D01*
X49825327Y-153995403D01*
X49914532Y-153975142D01*
X50016669Y-153968047D01*
X50472060Y-153968047D01*
X50472060Y-155500000D01*
G37*
G36*
X49211125Y-155500000D02*
G01*
X49211125Y-155262870D01*
X48816551Y-155262870D01*
X48816551Y-154582898D01*
X49169085Y-154582898D01*
X49169085Y-154345769D01*
X48554234Y-154345769D01*
X48554234Y-155262870D01*
X48199594Y-155262870D01*
X48199594Y-155500000D01*
X49211125Y-155500000D01*
G37*
G36*
X48703253Y-154152695D02*
G01*
X48754897Y-154147697D01*
X48796098Y-154133818D01*
X48829099Y-154111845D01*
X48854470Y-154081854D01*
X48869853Y-154045746D01*
X48875261Y-154001661D01*
X48869853Y-153957577D01*
X48854470Y-153921469D01*
X48829099Y-153891477D01*
X48796091Y-153869452D01*
X48754890Y-153855544D01*
X48703253Y-153850536D01*
X48651554Y-153855546D01*
X48610325Y-153869455D01*
X48577315Y-153891477D01*
X48551944Y-153921469D01*
X48536561Y-153957577D01*
X48531153Y-154001661D01*
X48536561Y-154045746D01*
X48551944Y-154081854D01*
X48577315Y-154111845D01*
X48610318Y-154133814D01*
X48651547Y-154147695D01*
X48703253Y-154152695D01*
G37*
G36*
X47582384Y-154331603D02*
G01*
X47670615Y-154350744D01*
X47745311Y-154380845D01*
X47808591Y-154421331D01*
X47863380Y-154473953D01*
X47902756Y-154532631D01*
X47928142Y-154598459D01*
X47939658Y-154673207D01*
X47687874Y-154673207D01*
X47678182Y-154632759D01*
X47658208Y-154599691D01*
X47627058Y-154572457D01*
X47566328Y-154546495D01*
X47480054Y-154536736D01*
X47400543Y-154545123D01*
X47345442Y-154567194D01*
X47308097Y-154600757D01*
X47284995Y-154647160D01*
X47276539Y-154710942D01*
X47276539Y-154792825D01*
X47557723Y-154792825D01*
X47658676Y-154799853D01*
X47743419Y-154819578D01*
X47814675Y-154850606D01*
X47874629Y-154892476D01*
X47924811Y-154946152D01*
X47960448Y-155007497D01*
X47982373Y-155078036D01*
X47990033Y-155160013D01*
X47983230Y-155239434D01*
X47963757Y-155308251D01*
X47932248Y-155368410D01*
X47888276Y-155421323D01*
X47834648Y-155463724D01*
X47771731Y-155494656D01*
X47697712Y-155514094D01*
X47610205Y-155520974D01*
X47515471Y-155513256D01*
X47438257Y-155491777D01*
X47375182Y-155458051D01*
X47323287Y-155410522D01*
X47288696Y-155353237D01*
X47270219Y-155283845D01*
X47270219Y-155500000D01*
X47014222Y-155500000D01*
X47014222Y-155099197D01*
X47276539Y-155099197D01*
X47284296Y-155159032D01*
X47306540Y-155208584D01*
X47343675Y-155250322D01*
X47391450Y-155280685D01*
X47451252Y-155299965D01*
X47526308Y-155306926D01*
X47590404Y-155301023D01*
X47640048Y-155284876D01*
X47678440Y-155259756D01*
X47707968Y-155225174D01*
X47725729Y-155184191D01*
X47731930Y-155134826D01*
X47726106Y-155086608D01*
X47709365Y-155045949D01*
X47681555Y-155011086D01*
X47645280Y-154984933D01*
X47600606Y-154968637D01*
X47545175Y-154962818D01*
X47276539Y-154962818D01*
X47276539Y-155099197D01*
X47014222Y-155099197D01*
X47014222Y-154717262D01*
X47022502Y-154625553D01*
X47045942Y-154548458D01*
X47083565Y-154483145D01*
X47135947Y-154427651D01*
X47198955Y-154384799D01*
X47275127Y-154352735D01*
X47367081Y-154332172D01*
X47478039Y-154324795D01*
X47582384Y-154331603D01*
G37*
G36*
X46036579Y-155500000D02*
G01*
X46121559Y-155493035D01*
X46194544Y-155473205D01*
X46257674Y-155441343D01*
X46312543Y-155397234D01*
X46357324Y-155342746D01*
X46389499Y-155280548D01*
X46409431Y-155209143D01*
X46416407Y-155126491D01*
X46416407Y-154205177D01*
X46796235Y-154205177D01*
X46796235Y-153968047D01*
X46154090Y-153968047D01*
X46154090Y-155120171D01*
X46144436Y-155179968D01*
X46117362Y-155224036D01*
X46075144Y-155252743D01*
X46017711Y-155262870D01*
X45679832Y-155262870D01*
X45679832Y-155500000D01*
X46036579Y-155500000D01*
G37*
G36*
X44173708Y-155500000D02*
G01*
X43911391Y-155500000D01*
X43911391Y-154912443D01*
X43663729Y-154912443D01*
X43563021Y-154905505D01*
X43474468Y-154885639D01*
X43396192Y-154853733D01*
X43325005Y-154808799D01*
X43266315Y-154754114D01*
X43218871Y-154688961D01*
X43184471Y-154615881D01*
X43163240Y-154533598D01*
X43155857Y-154440199D01*
X43422387Y-154440199D01*
X43430045Y-154508938D01*
X43451843Y-154566157D01*
X43487508Y-154614405D01*
X43534705Y-154650982D01*
X43592427Y-154673533D01*
X43663729Y-154681542D01*
X43911391Y-154681542D01*
X43911391Y-154198948D01*
X43663729Y-154198948D01*
X43592427Y-154206957D01*
X43534705Y-154229508D01*
X43487508Y-154266085D01*
X43451839Y-154314331D01*
X43430043Y-154371522D01*
X43422387Y-154440199D01*
X43155857Y-154440199D01*
X43163242Y-154346802D01*
X43184474Y-154264551D01*
X43218871Y-154191530D01*
X43266318Y-154126383D01*
X43325008Y-154071729D01*
X43396192Y-154026849D01*
X43474473Y-153994891D01*
X43563026Y-153974995D01*
X43663729Y-153968047D01*
X44173708Y-153968047D01*
X44173708Y-155500000D01*
G37*
G36*
X42430089Y-155520974D02*
G01*
X42528165Y-155514357D01*
X42613578Y-155495499D01*
X42688284Y-155465378D01*
X42756086Y-155422760D01*
X42811989Y-155370554D01*
X42857178Y-155308025D01*
X42889766Y-155237871D01*
X42909948Y-155158395D01*
X42916987Y-155067690D01*
X42916987Y-154400357D01*
X42909947Y-154309653D01*
X42889763Y-154230209D01*
X42857178Y-154160114D01*
X42811983Y-154097527D01*
X42756080Y-154045292D01*
X42688284Y-154002669D01*
X42613578Y-153972548D01*
X42528165Y-153953690D01*
X42430089Y-153947073D01*
X42333440Y-153953659D01*
X42248720Y-153972488D01*
X42174092Y-154002669D01*
X42106174Y-154045259D01*
X42049890Y-154097496D01*
X42004099Y-154160114D01*
X41970944Y-154230269D01*
X41950432Y-154309708D01*
X41943283Y-154400357D01*
X42207614Y-154400357D01*
X42214735Y-154331327D01*
X42234370Y-154277593D01*
X42265408Y-154235676D01*
X42307325Y-154204638D01*
X42361059Y-154185003D01*
X42430089Y-154177882D01*
X42499201Y-154184979D01*
X42553371Y-154204599D01*
X42595961Y-154235676D01*
X42627531Y-154277666D01*
X42647454Y-154331402D01*
X42654670Y-154400357D01*
X42654670Y-155067690D01*
X42647452Y-155136707D01*
X42627527Y-155190470D01*
X42595961Y-155232462D01*
X42553378Y-155263486D01*
X42499209Y-155283077D01*
X42430089Y-155290164D01*
X42361051Y-155283053D01*
X42307318Y-155263448D01*
X42265408Y-155232462D01*
X42234374Y-155190543D01*
X42214737Y-155136782D01*
X42207614Y-155067690D01*
X41943283Y-155067690D01*
X41950431Y-155158339D01*
X41970941Y-155237811D01*
X42004099Y-155308025D01*
X42049884Y-155370585D01*
X42106167Y-155422793D01*
X42174092Y-155465378D01*
X42248720Y-155495559D01*
X42333440Y-155514388D01*
X42430089Y-155520974D01*
G37*
G36*
X41656053Y-155500000D02*
G01*
X41162835Y-155500000D01*
X41063283Y-155493622D01*
X40976510Y-155475459D01*
X40900610Y-155446510D01*
X40831173Y-155405170D01*
X40774263Y-155354652D01*
X40728510Y-155294378D01*
X40695192Y-155226278D01*
X40674709Y-155149908D01*
X40667602Y-155063476D01*
X40668896Y-155050928D01*
X40929919Y-155050928D01*
X40937793Y-155119394D01*
X40959976Y-155174693D01*
X40996048Y-155219822D01*
X41043606Y-155253206D01*
X41103011Y-155274192D01*
X41177581Y-155281738D01*
X41400056Y-155281738D01*
X41400056Y-154811693D01*
X41177581Y-154811693D01*
X41103337Y-154819675D01*
X41043929Y-154841990D01*
X40996048Y-154877821D01*
X40959830Y-154925470D01*
X40937703Y-154982291D01*
X40929919Y-155050928D01*
X40668896Y-155050928D01*
X40677243Y-154970020D01*
X40705429Y-154886156D01*
X40750858Y-154812292D01*
X40810301Y-154753990D01*
X40881942Y-154712869D01*
X40963533Y-154692075D01*
X40963533Y-154687862D01*
X40890919Y-154667160D01*
X40828970Y-154631130D01*
X40775771Y-154578777D01*
X40735839Y-154515291D01*
X40711669Y-154443956D01*
X40706331Y-154391931D01*
X40965640Y-154391931D01*
X40972872Y-154453614D01*
X40993275Y-154503449D01*
X41026548Y-154544155D01*
X41070118Y-154574223D01*
X41123727Y-154593027D01*
X41190129Y-154599751D01*
X41400056Y-154599751D01*
X41400056Y-154186309D01*
X41190129Y-154186309D01*
X41122318Y-154193102D01*
X41068440Y-154211966D01*
X41025448Y-154241905D01*
X40992725Y-154282423D01*
X40972712Y-154331579D01*
X40965640Y-154391931D01*
X40706331Y-154391931D01*
X40703323Y-154362622D01*
X40711938Y-154274916D01*
X40736673Y-154199260D01*
X40777106Y-154133195D01*
X40834481Y-154075117D01*
X40902323Y-154030023D01*
X40981962Y-153996669D01*
X41075591Y-153975543D01*
X41185916Y-153968047D01*
X41656053Y-153968047D01*
X41656053Y-155500000D01*
G37*
G36*
X63200744Y-158040974D02*
G01*
X63298820Y-158034357D01*
X63384233Y-158015499D01*
X63458940Y-157985378D01*
X63526742Y-157942760D01*
X63582644Y-157890554D01*
X63627833Y-157828025D01*
X63660421Y-157757871D01*
X63680604Y-157678395D01*
X63687642Y-157587690D01*
X63687642Y-156920357D01*
X63680602Y-156829653D01*
X63660418Y-156750209D01*
X63627833Y-156680114D01*
X63582638Y-156617527D01*
X63526735Y-156565292D01*
X63458940Y-156522669D01*
X63384233Y-156492548D01*
X63298820Y-156473690D01*
X63200744Y-156467073D01*
X63104095Y-156473659D01*
X63019375Y-156492488D01*
X62944747Y-156522669D01*
X62876829Y-156565259D01*
X62820545Y-156617496D01*
X62774754Y-156680114D01*
X62741599Y-156750269D01*
X62721088Y-156829708D01*
X62713938Y-156920357D01*
X62978270Y-156920357D01*
X62985390Y-156851327D01*
X63005025Y-156797593D01*
X63036064Y-156755676D01*
X63077981Y-156724638D01*
X63131714Y-156705003D01*
X63200744Y-156697882D01*
X63269857Y-156704979D01*
X63324027Y-156724599D01*
X63366616Y-156755676D01*
X63398186Y-156797666D01*
X63418109Y-156851402D01*
X63425326Y-156920357D01*
X63425326Y-157587690D01*
X63418107Y-157656707D01*
X63398182Y-157710470D01*
X63366616Y-157752462D01*
X63324034Y-157783486D01*
X63269864Y-157803077D01*
X63200744Y-157810164D01*
X63131707Y-157803053D01*
X63077973Y-157783448D01*
X63036064Y-157752462D01*
X63005029Y-157710543D01*
X62985393Y-157656782D01*
X62978270Y-157587690D01*
X62713938Y-157587690D01*
X62721086Y-157678339D01*
X62741596Y-157757811D01*
X62774754Y-157828025D01*
X62820540Y-157890585D01*
X62876823Y-157942793D01*
X62944747Y-157985378D01*
X63019375Y-158015559D01*
X63104095Y-158034388D01*
X63200744Y-158040974D01*
G37*
G36*
X62069179Y-156855444D02*
G01*
X62162953Y-156879603D01*
X62242917Y-156918058D01*
X62311303Y-156970732D01*
X62367044Y-157036555D01*
X62407339Y-157113254D01*
X62432493Y-157202966D01*
X62441363Y-157308612D01*
X62441363Y-157577248D01*
X62432541Y-157681735D01*
X62407461Y-157770958D01*
X62367172Y-157847709D01*
X62311303Y-157914029D01*
X62242853Y-157967171D01*
X62162867Y-158005931D01*
X62069115Y-158030265D01*
X61958678Y-158038867D01*
X61848289Y-158030265D01*
X61754584Y-158005931D01*
X61674643Y-157967172D01*
X61606235Y-157914029D01*
X61550324Y-157847704D01*
X61510007Y-157770950D01*
X61484911Y-157681729D01*
X61476085Y-157577248D01*
X61476085Y-157308612D01*
X61476793Y-157300185D01*
X61738401Y-157300185D01*
X61738401Y-157585583D01*
X61745562Y-157656117D01*
X61765213Y-157710508D01*
X61796104Y-157752462D01*
X61837971Y-157783540D01*
X61891071Y-157803101D01*
X61958678Y-157810164D01*
X62026347Y-157803099D01*
X62079475Y-157783536D01*
X62121344Y-157752462D01*
X62152234Y-157710508D01*
X62171885Y-157656117D01*
X62179046Y-157585583D01*
X62179046Y-157300185D01*
X62171887Y-157229714D01*
X62152238Y-157175350D01*
X62121344Y-157133398D01*
X62079475Y-157102324D01*
X62026347Y-157082761D01*
X61958678Y-157075696D01*
X61891071Y-157082758D01*
X61837971Y-157102319D01*
X61796104Y-157133398D01*
X61765209Y-157175350D01*
X61745560Y-157229714D01*
X61738401Y-157300185D01*
X61476793Y-157300185D01*
X61484960Y-157202972D01*
X61510129Y-157113262D01*
X61550452Y-157036561D01*
X61606235Y-156970732D01*
X61674579Y-156918057D01*
X61754497Y-156879603D01*
X61848224Y-156855444D01*
X61958678Y-156846901D01*
X62069179Y-156855444D01*
G37*
G36*
X60674063Y-156852132D02*
G01*
X60741147Y-156873002D01*
X60798585Y-156906710D01*
X60846945Y-156952547D01*
X60884615Y-157008967D01*
X60911884Y-157077802D01*
X60911884Y-156865769D01*
X61167881Y-156865769D01*
X61167881Y-158397721D01*
X60905564Y-158397721D01*
X60905564Y-158074588D01*
X60913899Y-157801738D01*
X60886444Y-157873247D01*
X60848408Y-157931331D01*
X60799593Y-157978051D01*
X60741456Y-158012374D01*
X60674013Y-158033551D01*
X60594978Y-158040974D01*
X60512292Y-158032985D01*
X60440628Y-158010021D01*
X60377764Y-157972473D01*
X60322220Y-157919249D01*
X60278585Y-157856014D01*
X60246582Y-157782744D01*
X60226463Y-157697589D01*
X60219363Y-157598223D01*
X60219363Y-157293866D01*
X60481680Y-157293866D01*
X60481680Y-157591903D01*
X60488784Y-157665397D01*
X60507895Y-157719818D01*
X60537276Y-157759789D01*
X60577529Y-157789162D01*
X60628601Y-157807684D01*
X60693622Y-157814378D01*
X60758085Y-157807050D01*
X60809175Y-157786578D01*
X60849968Y-157753561D01*
X60879682Y-157709775D01*
X60898657Y-157653561D01*
X60905564Y-157581370D01*
X60905564Y-157304398D01*
X60898656Y-157232271D01*
X60879683Y-157176119D01*
X60849968Y-157132390D01*
X60809167Y-157099319D01*
X60758077Y-157078820D01*
X60693622Y-157071482D01*
X60628601Y-157078176D01*
X60577529Y-157096698D01*
X60537276Y-157126071D01*
X60507899Y-157165987D01*
X60488786Y-157220372D01*
X60481680Y-157293866D01*
X60219363Y-157293866D01*
X60219363Y-157285531D01*
X60224958Y-157198380D01*
X60240971Y-157121583D01*
X60266624Y-157053622D01*
X60302965Y-156991219D01*
X60346891Y-156940242D01*
X60398790Y-156899383D01*
X60457500Y-156869377D01*
X60522411Y-156851095D01*
X60594978Y-156844795D01*
X60674063Y-156852132D01*
G37*
G36*
X59724405Y-158397721D02*
G01*
X59560641Y-157957076D01*
X59995057Y-156865769D01*
X59718086Y-156865769D01*
X59495611Y-157455524D01*
X59457875Y-157569829D01*
X59430581Y-157684227D01*
X59406493Y-157569829D01*
X59369673Y-157455524D01*
X59164051Y-156865769D01*
X58887080Y-156865769D01*
X59449449Y-158397721D01*
X59724405Y-158397721D01*
G37*
G36*
X58608277Y-158020000D02*
G01*
X58608277Y-156865769D01*
X58352188Y-156865769D01*
X58352188Y-157090350D01*
X58330801Y-157018838D01*
X58296315Y-156959740D01*
X58248324Y-156910923D01*
X58189790Y-156875173D01*
X58119128Y-156852771D01*
X58033268Y-156844795D01*
X57946604Y-156852503D01*
X57873490Y-156874347D01*
X57811332Y-156909413D01*
X57758312Y-156958184D01*
X57717049Y-157017037D01*
X57686323Y-157087791D01*
X57666693Y-157172801D01*
X57659668Y-157274998D01*
X57659668Y-157384174D01*
X57921985Y-157384174D01*
X57921985Y-157287637D01*
X57928773Y-157219749D01*
X57947382Y-157167415D01*
X57976573Y-157127078D01*
X58016291Y-157097160D01*
X58066991Y-157078304D01*
X58131911Y-157071482D01*
X58199018Y-157079154D01*
X58250979Y-157100393D01*
X58291372Y-157134405D01*
X58320421Y-157179424D01*
X58339121Y-157237651D01*
X58345960Y-157312825D01*
X58345960Y-158020000D01*
X58608277Y-158020000D01*
G37*
G36*
X57393504Y-158020000D02*
G01*
X57393504Y-157782870D01*
X56998930Y-157782870D01*
X56998930Y-157102898D01*
X57351464Y-157102898D01*
X57351464Y-156865769D01*
X56736613Y-156865769D01*
X56736613Y-157782870D01*
X56381973Y-157782870D01*
X56381973Y-158020000D01*
X57393504Y-158020000D01*
G37*
G36*
X56885632Y-156672695D02*
G01*
X56937275Y-156667697D01*
X56978477Y-156653818D01*
X57011478Y-156631845D01*
X57036849Y-156601854D01*
X57052232Y-156565746D01*
X57057640Y-156521661D01*
X57052232Y-156477577D01*
X57036849Y-156441469D01*
X57011478Y-156411477D01*
X56978470Y-156389452D01*
X56937268Y-156375544D01*
X56885632Y-156370536D01*
X56833933Y-156375546D01*
X56792704Y-156389455D01*
X56759694Y-156411477D01*
X56734323Y-156441469D01*
X56718940Y-156477577D01*
X56713532Y-156521661D01*
X56718940Y-156565746D01*
X56734323Y-156601854D01*
X56759694Y-156631845D01*
X56792697Y-156653814D01*
X56833926Y-156667695D01*
X56885632Y-156672695D01*
G37*
G36*
X55845169Y-156852765D02*
G01*
X55919136Y-156875546D01*
X55983251Y-156912496D01*
X56039147Y-156964412D01*
X56083088Y-157026667D01*
X56115403Y-157099520D01*
X56135791Y-157184968D01*
X56143011Y-157285531D01*
X56143011Y-157510020D01*
X56135748Y-157611766D01*
X56115293Y-157697704D01*
X56082973Y-157770492D01*
X56039147Y-157832238D01*
X55983321Y-157883627D01*
X55919231Y-157920247D01*
X55845239Y-157942845D01*
X55758970Y-157950757D01*
X55685069Y-157944418D01*
X55621728Y-157926360D01*
X55566995Y-157897267D01*
X55519727Y-157857206D01*
X55481738Y-157807641D01*
X55452598Y-157747150D01*
X55456811Y-157927676D01*
X55456811Y-157996919D01*
X55462821Y-158050745D01*
X55479746Y-158094374D01*
X55507186Y-158130092D01*
X55543673Y-158156606D01*
X55590259Y-158173381D01*
X55649885Y-158179460D01*
X55975125Y-158179460D01*
X55975125Y-158397721D01*
X55645672Y-158397721D01*
X55541856Y-158390304D01*
X55454252Y-158369426D01*
X55380128Y-158336451D01*
X55317318Y-158291750D01*
X55265115Y-158234821D01*
X55227802Y-158169054D01*
X55204706Y-158092698D01*
X55196601Y-158003238D01*
X55196601Y-157298079D01*
X55458918Y-157298079D01*
X55458918Y-157499579D01*
X55465758Y-157568822D01*
X55484664Y-157623334D01*
X55514514Y-157666366D01*
X55555175Y-157698784D01*
X55606257Y-157718945D01*
X55670859Y-157726175D01*
X55735608Y-157719136D01*
X55786313Y-157699619D01*
X55826198Y-157668473D01*
X55855507Y-157626897D01*
X55874013Y-157574409D01*
X55880695Y-157507914D01*
X55880695Y-157289744D01*
X55874013Y-157223248D01*
X55855507Y-157170761D01*
X55826198Y-157129185D01*
X55786313Y-157098039D01*
X55735608Y-157078522D01*
X55670859Y-157071482D01*
X55606257Y-157078713D01*
X55555175Y-157098874D01*
X55514514Y-157131291D01*
X55484664Y-157174323D01*
X55465758Y-157228836D01*
X55458918Y-157298079D01*
X55196601Y-157298079D01*
X55196601Y-156865769D01*
X55452598Y-156865769D01*
X55452598Y-157050508D01*
X55481852Y-156988652D01*
X55519865Y-156938470D01*
X55566995Y-156898375D01*
X55621734Y-156869231D01*
X55685074Y-156851143D01*
X55758970Y-156844795D01*
X55845169Y-156852765D01*
G37*
G36*
X54873742Y-158020000D02*
G01*
X54873742Y-156488047D01*
X54611426Y-156488047D01*
X54611426Y-156865769D01*
X54617745Y-157079817D01*
X54596473Y-157011139D01*
X54562353Y-156954487D01*
X54514889Y-156907809D01*
X54457308Y-156873632D01*
X54388950Y-156852332D01*
X54307160Y-156844795D01*
X54223946Y-156852350D01*
X54152281Y-156873961D01*
X54089950Y-156909009D01*
X54035409Y-156958184D01*
X53992198Y-157017366D01*
X53960535Y-157086463D01*
X53940608Y-157167355D01*
X53933560Y-157262450D01*
X53933560Y-158020000D01*
X54195877Y-158020000D01*
X54195877Y-157293866D01*
X54202776Y-157224662D01*
X54221743Y-157170935D01*
X54251564Y-157129185D01*
X54291924Y-157097704D01*
X54341079Y-157078345D01*
X54401590Y-157071482D01*
X54464792Y-157078555D01*
X54515240Y-157098350D01*
X54555830Y-157130284D01*
X54585549Y-157172683D01*
X54604514Y-157227417D01*
X54611426Y-157298079D01*
X54611426Y-158020000D01*
X54873742Y-158020000D01*
G37*
G36*
X53031480Y-158020000D02*
G01*
X53111492Y-158013612D01*
X53179708Y-157995498D01*
X53238212Y-157966540D01*
X53288576Y-157926668D01*
X53329456Y-157877164D01*
X53359039Y-157819649D01*
X53377506Y-157752560D01*
X53384014Y-157673785D01*
X53384014Y-157102898D01*
X53703025Y-157102898D01*
X53703025Y-156865769D01*
X53384014Y-156865769D01*
X53384014Y-156540529D01*
X53119682Y-156540529D01*
X53119682Y-156865769D01*
X52660078Y-156865769D01*
X52660078Y-157102898D01*
X53119682Y-157102898D01*
X53119682Y-157667465D01*
X53112321Y-157714202D01*
X53091380Y-157750355D01*
X53058290Y-157774408D01*
X53012612Y-157782870D01*
X52670519Y-157782870D01*
X52670519Y-158020000D01*
X53031480Y-158020000D01*
G37*
G36*
X50241066Y-158271783D02*
G01*
X50367797Y-158235019D01*
X50478839Y-158187510D01*
X50575999Y-158129764D01*
X50660752Y-158061844D01*
X50734193Y-157983363D01*
X50795899Y-157894932D01*
X50844145Y-157798703D01*
X50879232Y-157693616D01*
X50900911Y-157578337D01*
X50908399Y-157451311D01*
X50908399Y-157075696D01*
X50900921Y-156949577D01*
X50879262Y-156835062D01*
X50844193Y-156730604D01*
X50795943Y-156634883D01*
X50734193Y-156546849D01*
X50660841Y-156468720D01*
X50576129Y-156400836D01*
X50478961Y-156342839D01*
X50367870Y-156294806D01*
X50241066Y-156257238D01*
X50241066Y-156517448D01*
X50330770Y-156546632D01*
X50408838Y-156588472D01*
X50476878Y-156643130D01*
X50535898Y-156711621D01*
X50582306Y-156788851D01*
X50615947Y-156874292D01*
X50636757Y-156969339D01*
X50643975Y-157075696D01*
X50643975Y-157451311D01*
X50636757Y-157557667D01*
X50615947Y-157652714D01*
X50582306Y-157738155D01*
X50535898Y-157815385D01*
X50476884Y-157883831D01*
X50408845Y-157938461D01*
X50330775Y-157980286D01*
X50241066Y-158009467D01*
X50241066Y-158271783D01*
G37*
G36*
X49351534Y-158040974D02*
G01*
X49449610Y-158034374D01*
X49535383Y-158015531D01*
X49610736Y-157985378D01*
X49679308Y-157942737D01*
X49735938Y-157890521D01*
X49781829Y-157828025D01*
X49814987Y-157757811D01*
X49835497Y-157678339D01*
X49842645Y-157587690D01*
X49842645Y-157298079D01*
X49835495Y-157207430D01*
X49814984Y-157127991D01*
X49781829Y-157057835D01*
X49735938Y-156995339D01*
X49679308Y-156943123D01*
X49610736Y-156900482D01*
X49535377Y-156870278D01*
X49449605Y-156851404D01*
X49351534Y-156844795D01*
X49243787Y-156852551D01*
X49151609Y-156874519D01*
X49072432Y-156909451D01*
X49004220Y-156957085D01*
X48946994Y-157017559D01*
X48905309Y-157087337D01*
X48878378Y-157168135D01*
X48866834Y-157262450D01*
X49124937Y-157262450D01*
X49135773Y-157205342D01*
X49158476Y-157159657D01*
X49193081Y-157122957D01*
X49236765Y-157096182D01*
X49288875Y-157079499D01*
X49351534Y-157073589D01*
X49420691Y-157080627D01*
X49475641Y-157100186D01*
X49519512Y-157131291D01*
X49552308Y-157173448D01*
X49572894Y-157227189D01*
X49580328Y-157295972D01*
X49580328Y-157587690D01*
X49572918Y-157656558D01*
X49552346Y-157710735D01*
X49519512Y-157753561D01*
X49475563Y-157785250D01*
X49420612Y-157805128D01*
X49351534Y-157812271D01*
X49287458Y-157806303D01*
X49235102Y-157789593D01*
X49192074Y-157762995D01*
X49158070Y-157726316D01*
X49135679Y-157680602D01*
X49124937Y-157623410D01*
X48866834Y-157623410D01*
X48878378Y-157717725D01*
X48905309Y-157798523D01*
X48946994Y-157868301D01*
X49004220Y-157928775D01*
X49072427Y-157976367D01*
X49151602Y-158011271D01*
X49243782Y-158033223D01*
X49351534Y-158040974D01*
G37*
G36*
X48499828Y-158271783D02*
G01*
X48499828Y-158009467D01*
X48410119Y-157980286D01*
X48332049Y-157938461D01*
X48264011Y-157883831D01*
X48204997Y-157815385D01*
X48158588Y-157738155D01*
X48124947Y-157652714D01*
X48104137Y-157557667D01*
X48096919Y-157451311D01*
X48096919Y-157075696D01*
X48104137Y-156969339D01*
X48124947Y-156874292D01*
X48158588Y-156788851D01*
X48204997Y-156711621D01*
X48264016Y-156643130D01*
X48332057Y-156588472D01*
X48410125Y-156546632D01*
X48499828Y-156517448D01*
X48499828Y-156257238D01*
X48372982Y-156294810D01*
X48261873Y-156342848D01*
X48164708Y-156400845D01*
X48080018Y-156468727D01*
X48006702Y-156546849D01*
X47944952Y-156634883D01*
X47896702Y-156730604D01*
X47861633Y-156835062D01*
X47839974Y-156949577D01*
X47832496Y-157075696D01*
X47832496Y-157451311D01*
X47839983Y-157578337D01*
X47861663Y-157693616D01*
X47896749Y-157798703D01*
X47944996Y-157894932D01*
X48006702Y-157983363D01*
X48080106Y-158061838D01*
X48164838Y-158129755D01*
X48261995Y-158187502D01*
X48373055Y-158235015D01*
X48499828Y-158271783D01*
G37*
G36*
X41032958Y-158020000D02*
G01*
X41032958Y-157782870D01*
X40481030Y-157218394D01*
X40418904Y-157143082D01*
X40377708Y-157071225D01*
X40354274Y-157001669D01*
X40346666Y-156932997D01*
X40353755Y-156866777D01*
X40373842Y-156811976D01*
X40406475Y-156766118D01*
X40450022Y-156731062D01*
X40502646Y-156709651D01*
X40567034Y-156702096D01*
X40632737Y-156709865D01*
X40686771Y-156731949D01*
X40731807Y-156768224D01*
X40765467Y-156815658D01*
X40786320Y-156873138D01*
X40793722Y-156943438D01*
X41056039Y-156943438D01*
X41048682Y-156850026D01*
X41027495Y-156767419D01*
X40993116Y-156693761D01*
X40945751Y-156627630D01*
X40888023Y-156572275D01*
X40818910Y-156526882D01*
X40742633Y-156494264D01*
X40657154Y-156474087D01*
X40560715Y-156467073D01*
X40465545Y-156473748D01*
X40381494Y-156492907D01*
X40306824Y-156523768D01*
X40238996Y-156566981D01*
X40183090Y-156619562D01*
X40137930Y-156682220D01*
X40105276Y-156752289D01*
X40085126Y-156831069D01*
X40078121Y-156920357D01*
X40084117Y-156997541D01*
X40102380Y-157075602D01*
X40133717Y-157155380D01*
X40175921Y-157230233D01*
X40236072Y-157311071D01*
X40317357Y-157398829D01*
X40703414Y-157782870D01*
X40059162Y-157782870D01*
X40059162Y-158020000D01*
X41032958Y-158020000D01*
G37*
G36*
X39358016Y-157128378D02*
G01*
X39400622Y-157152266D01*
X39428330Y-157190912D01*
X39438358Y-157247704D01*
X39428402Y-157304946D01*
X39400622Y-157345340D01*
X39357839Y-157370838D01*
X39299780Y-157379961D01*
X39241817Y-157370838D01*
X39199122Y-157345340D01*
X39171271Y-157304938D01*
X39161295Y-157247704D01*
X39171343Y-157190920D01*
X39199122Y-157152266D01*
X39241639Y-157128378D01*
X39299780Y-157119751D01*
X39358016Y-157128378D01*
G37*
G36*
X39397798Y-156473812D02*
G01*
X39483206Y-156493031D01*
X39557976Y-156523768D01*
X39625732Y-156567039D01*
X39681646Y-156619938D01*
X39726870Y-156683228D01*
X39759490Y-156754023D01*
X39779658Y-156833857D01*
X39786679Y-156924570D01*
X39786679Y-157583476D01*
X39779658Y-157674190D01*
X39759490Y-157754024D01*
X39726870Y-157824819D01*
X39681649Y-157888115D01*
X39625735Y-157941046D01*
X39557976Y-157984371D01*
X39483211Y-158015056D01*
X39397802Y-158034245D01*
X39299780Y-158040974D01*
X39201821Y-158034245D01*
X39116473Y-158015056D01*
X39041768Y-157984371D01*
X38973950Y-157941041D01*
X38918008Y-157888109D01*
X38872783Y-157824819D01*
X38840163Y-157754024D01*
X38819995Y-157674190D01*
X38812974Y-157583476D01*
X38812974Y-156924570D01*
X39060545Y-156924570D01*
X39060545Y-157583476D01*
X39068243Y-157650696D01*
X39090051Y-157705776D01*
X39125666Y-157751454D01*
X39172500Y-157785661D01*
X39229578Y-157806847D01*
X39299780Y-157814378D01*
X39370044Y-157806845D01*
X39427150Y-157785657D01*
X39473987Y-157751454D01*
X39509548Y-157705783D01*
X39531327Y-157650703D01*
X39539016Y-157583476D01*
X39539016Y-156924570D01*
X39531435Y-156857265D01*
X39509996Y-156802217D01*
X39475086Y-156756684D01*
X39428823Y-156722614D01*
X39371444Y-156701366D01*
X39299780Y-156693761D01*
X39228179Y-156701364D01*
X39170828Y-156722610D01*
X39124567Y-156756684D01*
X39089602Y-156802224D01*
X39068135Y-156857272D01*
X39060545Y-156924570D01*
X38812974Y-156924570D01*
X38819995Y-156833857D01*
X38840163Y-156754023D01*
X38872783Y-156683228D01*
X38918011Y-156619945D01*
X38973953Y-156567044D01*
X39041768Y-156523768D01*
X39116478Y-156493031D01*
X39201825Y-156473812D01*
X39299780Y-156467073D01*
X39397798Y-156473812D01*
G37*
G36*
X38515303Y-158020000D02*
G01*
X38515303Y-157782870D01*
X37963375Y-157218394D01*
X37901248Y-157143082D01*
X37860052Y-157071225D01*
X37836618Y-157001669D01*
X37829011Y-156932997D01*
X37836100Y-156866777D01*
X37856187Y-156811976D01*
X37888820Y-156766118D01*
X37932366Y-156731062D01*
X37984990Y-156709651D01*
X38049379Y-156702096D01*
X38115082Y-156709865D01*
X38169115Y-156731949D01*
X38214152Y-156768224D01*
X38247811Y-156815658D01*
X38268665Y-156873138D01*
X38276067Y-156943438D01*
X38538384Y-156943438D01*
X38531027Y-156850026D01*
X38509839Y-156767419D01*
X38475461Y-156693761D01*
X38428096Y-156627630D01*
X38370368Y-156572275D01*
X38301255Y-156526882D01*
X38224978Y-156494264D01*
X38139499Y-156474087D01*
X38043059Y-156467073D01*
X37947890Y-156473748D01*
X37863839Y-156492907D01*
X37789169Y-156523768D01*
X37721340Y-156566981D01*
X37665435Y-156619562D01*
X37620275Y-156682220D01*
X37587620Y-156752289D01*
X37567470Y-156831069D01*
X37560466Y-156920357D01*
X37566462Y-156997541D01*
X37584724Y-157075602D01*
X37616062Y-157155380D01*
X37658266Y-157230233D01*
X37718417Y-157311071D01*
X37799702Y-157398829D01*
X38185758Y-157782870D01*
X37541507Y-157782870D01*
X37541507Y-158020000D01*
X38515303Y-158020000D01*
G37*
G36*
X37155725Y-157090350D02*
G01*
X37216522Y-157210831D01*
X37261696Y-157326472D01*
X37291590Y-157440496D01*
X37300531Y-157533101D01*
X37293007Y-157633593D01*
X37271402Y-157722148D01*
X37236508Y-157800730D01*
X37187942Y-157871312D01*
X37128163Y-157930097D01*
X37056074Y-157978051D01*
X36976162Y-158012259D01*
X36885527Y-158033539D01*
X36782125Y-158040974D01*
X36678732Y-158033650D01*
X36588154Y-158012700D01*
X36508359Y-157979058D01*
X36436102Y-157931861D01*
X36376314Y-157874118D01*
X36327833Y-157804944D01*
X36292939Y-157727731D01*
X36271337Y-157640588D01*
X36264131Y-157545741D01*
X36521915Y-157545741D01*
X36530441Y-157625453D01*
X36554456Y-157690481D01*
X36593264Y-157744036D01*
X36645010Y-157784857D01*
X36706963Y-157809744D01*
X36782125Y-157818499D01*
X36857287Y-157809744D01*
X36919241Y-157784857D01*
X36970986Y-157744036D01*
X37009794Y-157690481D01*
X37033810Y-157625453D01*
X37042335Y-157545741D01*
X37033761Y-157464609D01*
X37009699Y-157398937D01*
X36970986Y-157345340D01*
X36919234Y-157304464D01*
X36857280Y-157279549D01*
X36782125Y-157270785D01*
X36706970Y-157279549D01*
X36645016Y-157304464D01*
X36593264Y-157345340D01*
X36554551Y-157398937D01*
X36530490Y-157464609D01*
X36521915Y-157545741D01*
X36264131Y-157545741D01*
X36263811Y-157541528D01*
X36270057Y-157447571D01*
X36287862Y-157365661D01*
X36316293Y-157293957D01*
X36356563Y-157228569D01*
X36405694Y-157174746D01*
X36464304Y-157131291D01*
X36530117Y-157099753D01*
X36604010Y-157080333D01*
X36687695Y-157073589D01*
X36757074Y-157080008D01*
X36819952Y-157098777D01*
X36874575Y-157129537D01*
X36912276Y-157168019D01*
X36920702Y-157163806D01*
X36526128Y-156488047D01*
X36824165Y-156488047D01*
X37155725Y-157090350D01*
G37*
D12*
X51000000Y-161000000D02*
X49000000Y-159000000D01*
X49000000Y-161000000D02*
X51000000Y-159000000D01*
D14*
X44621204Y-163850201D02*
X44116128Y-164355277D01*
X44116128Y-164355277D02*
X44048784Y-164489964D01*
X44048784Y-164489964D02*
X44048784Y-164624651D01*
X44048784Y-164624651D02*
X44116128Y-164759338D01*
X44116128Y-164759338D02*
X44183471Y-164826682D01*
X44351830Y-163580827D02*
X43914097Y-163143094D01*
X43914097Y-163143094D02*
X43880425Y-163648170D01*
X43880425Y-163648170D02*
X43779410Y-163547155D01*
X43779410Y-163547155D02*
X43678395Y-163513483D01*
X43678395Y-163513483D02*
X43611051Y-163513483D01*
X43611051Y-163513483D02*
X43510036Y-163547155D01*
X43510036Y-163547155D02*
X43341677Y-163715514D01*
X43341677Y-163715514D02*
X43308006Y-163816529D01*
X43308006Y-163816529D02*
X43308006Y-163883872D01*
X43308006Y-163883872D02*
X43341677Y-163984888D01*
X43341677Y-163984888D02*
X43543708Y-164186918D01*
X43543708Y-164186918D02*
X43644723Y-164220590D01*
X43644723Y-164220590D02*
X43712067Y-164220590D01*
G04 #@! TO.C,J3*
D15*
X33409765Y-166863604D02*
X34272436Y-167726275D01*
X34272436Y-167726275D02*
X35828071Y-166170640D01*
X35828071Y-166170640D02*
X34965400Y-165307969D01*
X37291782Y-166220137D02*
X37518056Y-166446411D01*
X37518056Y-166446411D02*
X37744330Y-166672685D01*
X37744330Y-166672685D02*
X40162635Y-164254380D01*
X37751401Y-168093970D02*
X37638264Y-167980833D01*
X38232234Y-172379037D02*
X38868630Y-172166905D01*
X38500934Y-161772435D02*
X39363605Y-162635106D01*
X38656498Y-172803301D02*
X38232234Y-172379037D01*
X38868630Y-172166905D02*
X38656498Y-172803301D01*
X39059549Y-167987904D02*
X39285823Y-168214178D01*
X39285823Y-168214178D02*
X39512097Y-168440452D01*
X39363605Y-160909765D02*
X33409765Y-166863604D01*
X39363605Y-162635106D02*
X35828071Y-166170640D01*
X39512097Y-168440452D02*
X41930402Y-166022147D01*
X39519168Y-169861737D02*
X39406031Y-169748600D01*
X39710087Y-163801832D02*
X37291782Y-166220137D01*
X39773727Y-173227565D02*
X40636397Y-174090236D01*
X39992930Y-163971538D02*
X39710087Y-163801832D01*
X40162635Y-164254380D02*
X39992930Y-163971538D01*
X40636397Y-174090236D02*
X46590236Y-168136397D01*
X40827316Y-169755671D02*
X41053590Y-169981945D01*
X41053590Y-169981945D02*
X41279864Y-170208219D01*
X41279864Y-170208219D02*
X43698169Y-167789914D01*
X41329361Y-171671930D02*
X39773727Y-173227565D01*
X41329361Y-171671930D02*
X42192032Y-172534601D01*
X41477854Y-165569599D02*
X39059549Y-167987904D01*
X41760697Y-165739305D02*
X41477854Y-165569599D01*
X41930402Y-166022147D02*
X41760697Y-165739305D01*
X42036468Y-170964824D02*
X36535177Y-165463533D01*
X43245621Y-167337366D02*
X40827316Y-169755671D01*
X43528464Y-167507071D02*
X43245621Y-167337366D01*
X43698169Y-167789914D02*
X43528464Y-167507071D01*
X44864895Y-168136397D02*
X41329361Y-171671930D01*
X45727566Y-168999067D02*
X44864895Y-168136397D01*
X46590236Y-168136397D02*
X39363605Y-160909765D01*
G04 #@! TD*
%LPC*%
D13*
G36*
X47010203Y-156611083D02*
G01*
X47010203Y-158205501D01*
X46520460Y-158205501D01*
X46520460Y-157600328D01*
X46260848Y-157600328D01*
X45549173Y-158205501D01*
X44805527Y-158205501D01*
X45804529Y-157394590D01*
X44882030Y-156604440D01*
X45632631Y-156604440D01*
X46260952Y-157189059D01*
X46520460Y-157189059D01*
X46520460Y-156611083D01*
X47010203Y-156611083D01*
G37*
G36*
X44754767Y-156611083D02*
G01*
X44754767Y-158205501D01*
X44241149Y-158205501D01*
X44241149Y-156611083D01*
X44754767Y-156611083D01*
G37*
G36*
X44025654Y-158205501D02*
G01*
X43535910Y-158205501D01*
X43535910Y-157819041D01*
X42929907Y-157819041D01*
X42643595Y-157814845D01*
X42469915Y-157798756D01*
X42359923Y-157768904D01*
X42307722Y-157744876D01*
X42262735Y-157715824D01*
X42229227Y-157685868D01*
X42200598Y-157650919D01*
X42157774Y-157566139D01*
X42129331Y-157447559D01*
X42115716Y-157270497D01*
X42115052Y-157210339D01*
X42604795Y-157210339D01*
X42608374Y-157285122D01*
X42620136Y-157337260D01*
X42633123Y-157361871D01*
X42650783Y-157380518D01*
X42667285Y-157391476D01*
X42694917Y-157403654D01*
X42733323Y-157410172D01*
X42931683Y-157414903D01*
X42934682Y-157414935D01*
X43535910Y-157414935D01*
X43535910Y-157015189D01*
X42934682Y-157015189D01*
X42932656Y-157015211D01*
X42738751Y-157019075D01*
X42704185Y-157023558D01*
X42681298Y-157031798D01*
X42653342Y-157046805D01*
X42632554Y-157067524D01*
X42611658Y-157119591D01*
X42604795Y-157210339D01*
X42115052Y-157210339D01*
X42118561Y-157081904D01*
X42129843Y-156973166D01*
X42144253Y-156902879D01*
X42164261Y-156842208D01*
X42186294Y-156797210D01*
X42213130Y-156758310D01*
X42243000Y-156726905D01*
X42277643Y-156700092D01*
X42364933Y-156657775D01*
X42489951Y-156627511D01*
X42520092Y-156623021D01*
X42650663Y-156613471D01*
X42934682Y-156611083D01*
X44025654Y-156611083D01*
X44025654Y-158205501D01*
G37*
D16*
G04 #@! TO.C,H4*
X30000000Y-140000000D03*
G04 #@! TD*
G04 #@! TO.C,H5*
X70000000Y-140000000D03*
G04 #@! TD*
D17*
G04 #@! TO.C,U2*
X40846000Y-180254000D03*
G04 #@! TD*
D18*
G04 #@! TO.C,TP13*
X71500000Y-146000000D03*
G04 #@! TD*
G04 #@! TO.C,TP12*
X68000000Y-146000000D03*
G04 #@! TD*
G04 #@! TO.C,TP2*
X72522000Y-158844000D03*
G04 #@! TD*
G04 #@! TO.C,TP10*
X32500000Y-170000000D03*
G04 #@! TD*
G04 #@! TO.C,TP4*
X72522000Y-152240000D03*
G04 #@! TD*
D16*
G04 #@! TO.C,H6*
X30000000Y-180000000D03*
G04 #@! TD*
D18*
G04 #@! TO.C,TP6*
X29500000Y-165956000D03*
G04 #@! TD*
G04 #@! TO.C,TP7*
X72268000Y-175862000D03*
G04 #@! TD*
D19*
G04 #@! TO.C,J4*
X59000000Y-138532500D03*
D20*
X61500000Y-138532500D03*
X64000000Y-138532500D03*
G04 #@! TD*
D18*
G04 #@! TO.C,TP11*
X64500000Y-146000000D03*
G04 #@! TD*
G04 #@! TO.C,TP5*
X46614000Y-152494000D03*
G04 #@! TD*
D21*
G04 #@! TO.C,H3*
X62000004Y-153071795D03*
D16*
X62000004Y-153071795D03*
G04 #@! TD*
D22*
G04 #@! TO.C,J2*
X31501000Y-145636000D03*
D23*
X31501000Y-147636000D03*
X31501000Y-149636000D03*
X31501000Y-151636000D03*
X31501000Y-153636000D03*
X31501000Y-155636000D03*
X31501000Y-157636000D03*
X31501000Y-159636000D03*
G04 #@! TD*
D18*
G04 #@! TO.C,TP8*
X37474874Y-174974874D03*
G04 #@! TD*
G04 #@! TO.C,TP3*
X72522000Y-162146000D03*
G04 #@! TD*
G04 #@! TO.C,TP1*
X72522000Y-155542000D03*
G04 #@! TD*
D16*
G04 #@! TO.C,H7*
X70000000Y-180000000D03*
G04 #@! TD*
D21*
G04 #@! TO.C,H2*
X37999997Y-153071795D03*
D16*
X37999997Y-153071795D03*
G04 #@! TD*
D24*
G04 #@! TO.C,J1*
X49408000Y-138778000D03*
D25*
X47408000Y-138778000D03*
X45408000Y-138778000D03*
X43408000Y-138778000D03*
X41408000Y-138778000D03*
X39408000Y-138778000D03*
X37408000Y-138778000D03*
X35408000Y-138778000D03*
G04 #@! TD*
D18*
G04 #@! TO.C,TP9*
X35000000Y-172500000D03*
G04 #@! TD*
D21*
G04 #@! TO.C,H1*
X50000000Y-173856410D03*
D16*
X50000000Y-173856410D03*
G04 #@! TD*
D26*
G04 #@! TO.C,J3*
X39929290Y-171106245D03*
D27*
X38161523Y-169338478D03*
X36393756Y-167570711D03*
G04 #@! TD*
%LPD*%
M02*
