G04 #@! TF.GenerationSoftware,KiCad,Pcbnew,10.0.3*
G04 #@! TF.CreationDate,2026-06-03T23:39:29+08:00*
G04 #@! TF.ProjectId,blackmacro_dial,626c6163-6b6d-4616-9372-6f5f6469616c,5-FAB1*
G04 #@! TF.SameCoordinates,Original*
G04 #@! TF.FileFunction,Soldermask,Bot*
G04 #@! TF.FilePolarity,Negative*
%FSLAX46Y46*%
G04 Gerber Fmt 4.6, Leading zero omitted, Abs format (unit mm)*
G04 Created by KiCad (PCBNEW 10.0.3) date 2026-06-03 23:39:29*
%MOMM*%
%LPD*%
G01*
G04 APERTURE LIST*
G04 Aperture macros list*
%AMRoundRect*
0 Rectangle with rounded corners*
0 $1 Rounding radius*
0 $2 $3 $4 $5 $6 $7 $8 $9 X,Y pos of 4 corners*
0 Add a 4 corners polygon primitive as box body*
4,1,4,$2,$3,$4,$5,$6,$7,$8,$9,$2,$3,0*
0 Add four circle primitives for the rounded corners*
1,1,$1+$1,$2,$3*
1,1,$1+$1,$4,$5*
1,1,$1+$1,$6,$7*
1,1,$1+$1,$8,$9*
0 Add four rect primitives between the rounded corners*
20,1,$1+$1,$2,$3,$4,$5,0*
20,1,$1+$1,$4,$5,$6,$7,0*
20,1,$1+$1,$6,$7,$8,$9,0*
20,1,$1+$1,$8,$9,$2,$3,0*%
%AMHorizOval*
0 Thick line with rounded ends*
0 $1 width*
0 $2 $3 position (X,Y) of the first rounded end (center of the circle)*
0 $4 $5 position (X,Y) of the second rounded end (center of the circle)*
0 Add line between two ends*
20,1,$1,$2,$3,$4,$5,0*
0 Add two circle primitives to create the rounded ends*
1,1,$1,$2,$3*
1,1,$1,$4,$5*%
G04 Aperture macros list end*
%ADD10C,0.300000*%
%ADD11C,4.400000*%
%ADD12R,4.000000X4.000000*%
%ADD13C,2.000000*%
%ADD14RoundRect,0.250000X-0.600000X-0.725000X0.600000X-0.725000X0.600000X0.725000X-0.600000X0.725000X0*%
%ADD15O,1.700000X1.950000*%
%ADD16C,2.600000*%
%ADD17RoundRect,0.250000X-0.625000X0.350000X-0.625000X-0.350000X0.625000X-0.350000X0.625000X0.350000X0*%
%ADD18O,1.750000X1.200000*%
%ADD19RoundRect,0.250000X0.350000X0.625000X-0.350000X0.625000X-0.350000X-0.625000X0.350000X-0.625000X0*%
%ADD20O,1.200000X1.750000*%
%ADD21RoundRect,0.250000X0.936916X0.088388X0.088388X0.936916X-0.936916X-0.088388X-0.088388X-0.936916X0*%
%ADD22HorizOval,1.700000X0.088388X0.088388X-0.088388X-0.088388X0*%
G04 APERTURE END LIST*
D10*
G36*
X47010203Y-156611083D02*
G01*
X47010203Y-158205501D01*
X46520460Y-158205501D01*
X46520460Y-157600328D01*
X46260848Y-157600328D01*
X45549173Y-158205501D01*
X44805527Y-158205501D01*
X45804529Y-157394590D01*
X44882030Y-156604440D01*
X45632631Y-156604440D01*
X46260952Y-157189059D01*
X46520460Y-157189059D01*
X46520460Y-156611083D01*
X47010203Y-156611083D01*
G37*
G36*
X44754767Y-156611083D02*
G01*
X44754767Y-158205501D01*
X44241149Y-158205501D01*
X44241149Y-156611083D01*
X44754767Y-156611083D01*
G37*
G36*
X44025654Y-158205501D02*
G01*
X43535910Y-158205501D01*
X43535910Y-157819041D01*
X42929907Y-157819041D01*
X42643595Y-157814845D01*
X42469915Y-157798756D01*
X42359923Y-157768904D01*
X42307722Y-157744876D01*
X42262735Y-157715824D01*
X42229227Y-157685868D01*
X42200598Y-157650919D01*
X42157774Y-157566139D01*
X42129331Y-157447559D01*
X42115716Y-157270497D01*
X42115052Y-157210339D01*
X42604795Y-157210339D01*
X42608374Y-157285122D01*
X42620136Y-157337260D01*
X42633123Y-157361871D01*
X42650783Y-157380518D01*
X42667285Y-157391476D01*
X42694917Y-157403654D01*
X42733323Y-157410172D01*
X42931683Y-157414903D01*
X42934682Y-157414935D01*
X43535910Y-157414935D01*
X43535910Y-157015189D01*
X42934682Y-157015189D01*
X42932656Y-157015211D01*
X42738751Y-157019075D01*
X42704185Y-157023558D01*
X42681298Y-157031798D01*
X42653342Y-157046805D01*
X42632554Y-157067524D01*
X42611658Y-157119591D01*
X42604795Y-157210339D01*
X42115052Y-157210339D01*
X42118561Y-157081904D01*
X42129843Y-156973166D01*
X42144253Y-156902879D01*
X42164261Y-156842208D01*
X42186294Y-156797210D01*
X42213130Y-156758310D01*
X42243000Y-156726905D01*
X42277643Y-156700092D01*
X42364933Y-156657775D01*
X42489951Y-156627511D01*
X42520092Y-156623021D01*
X42650663Y-156613471D01*
X42934682Y-156611083D01*
X44025654Y-156611083D01*
X44025654Y-158205501D01*
G37*
D11*
G04 #@! TO.C,H4*
X30000000Y-140000000D03*
G04 #@! TD*
G04 #@! TO.C,H5*
X70000000Y-140000000D03*
G04 #@! TD*
D12*
G04 #@! TO.C,U2*
X40846000Y-180254000D03*
G04 #@! TD*
D13*
G04 #@! TO.C,TP13*
X71500000Y-146000000D03*
G04 #@! TD*
G04 #@! TO.C,TP12*
X68000000Y-146000000D03*
G04 #@! TD*
G04 #@! TO.C,TP2*
X72522000Y-158844000D03*
G04 #@! TD*
G04 #@! TO.C,TP10*
X32500000Y-170000000D03*
G04 #@! TD*
G04 #@! TO.C,TP4*
X72522000Y-152240000D03*
G04 #@! TD*
D11*
G04 #@! TO.C,H6*
X30000000Y-180000000D03*
G04 #@! TD*
D13*
G04 #@! TO.C,TP6*
X29500000Y-165956000D03*
G04 #@! TD*
G04 #@! TO.C,TP7*
X72268000Y-175862000D03*
G04 #@! TD*
D14*
G04 #@! TO.C,J4*
X59000000Y-138532500D03*
D15*
X61500000Y-138532500D03*
X64000000Y-138532500D03*
G04 #@! TD*
D13*
G04 #@! TO.C,TP11*
X64500000Y-146000000D03*
G04 #@! TD*
G04 #@! TO.C,TP5*
X46614000Y-152494000D03*
G04 #@! TD*
D16*
G04 #@! TO.C,H3*
X62000004Y-153071795D03*
D11*
X62000004Y-153071795D03*
G04 #@! TD*
D17*
G04 #@! TO.C,J2*
X31501000Y-145636000D03*
D18*
X31501000Y-147636000D03*
X31501000Y-149636000D03*
X31501000Y-151636000D03*
X31501000Y-153636000D03*
X31501000Y-155636000D03*
X31501000Y-157636000D03*
X31501000Y-159636000D03*
G04 #@! TD*
D13*
G04 #@! TO.C,TP8*
X37474874Y-174974874D03*
G04 #@! TD*
G04 #@! TO.C,TP3*
X72522000Y-162146000D03*
G04 #@! TD*
G04 #@! TO.C,TP1*
X72522000Y-155542000D03*
G04 #@! TD*
D11*
G04 #@! TO.C,H7*
X70000000Y-180000000D03*
G04 #@! TD*
D16*
G04 #@! TO.C,H2*
X37999997Y-153071795D03*
D11*
X37999997Y-153071795D03*
G04 #@! TD*
D19*
G04 #@! TO.C,J1*
X49408000Y-138778000D03*
D20*
X47408000Y-138778000D03*
X45408000Y-138778000D03*
X43408000Y-138778000D03*
X41408000Y-138778000D03*
X39408000Y-138778000D03*
X37408000Y-138778000D03*
X35408000Y-138778000D03*
G04 #@! TD*
D13*
G04 #@! TO.C,TP9*
X35000000Y-172500000D03*
G04 #@! TD*
D16*
G04 #@! TO.C,H1*
X50000000Y-173856410D03*
D11*
X50000000Y-173856410D03*
G04 #@! TD*
D21*
G04 #@! TO.C,J3*
X39929290Y-171106245D03*
D22*
X38161523Y-169338478D03*
X36393756Y-167570711D03*
G04 #@! TD*
M02*
