M48
; DRILL file KiCad 10.0.3 date 2026-06-15T17:38:38
; FORMAT={-:-/ absolute / metric / decimal}
; #@! TF.CreationDate,2026-06-15T17:38:38+08:00
; #@! TF.GenerationSoftware,Kicad,Pcbnew,10.0.3
; #@! TF.FileFunction,Plated,1,2,PTH
FMAT,2
METRIC
; #@! TA.AperFunction,Plated,PTH,ViaDrill
T1C0.300
; #@! TA.AperFunction,Plated,PTH,ComponentDrill
T2C0.700
; #@! TA.AperFunction,Plated,PTH,ComponentDrill
T3C0.750
; #@! TA.AperFunction,Plated,PTH,ComponentDrill
T4C0.800
; #@! TA.AperFunction,Plated,PTH,ComponentDrill
T5C0.950
; #@! TA.AperFunction,Plated,PTH,ComponentDrill
T6C1.000
; #@! TA.AperFunction,Plated,PTH,ComponentDrill
T7C1.500
; #@! TA.AperFunction,Plated,PTH,ComponentDrill
T8C3.050
; #@! TA.AperFunction,Plated,PTH,ComponentDrill
T9C3.200
%
G90
G05
T1
X51.308Y-113.284
X51.562Y-131.826
X52.07Y-48.514
X52.07Y-55.626
X53.086Y-76.708
X55.88Y-103.378
X57.912Y-103.378
X58.166Y-50.546
X58.42Y-72.39
X58.928Y-153.67
X63.246Y-83.566
X63.9Y-72.136
X65.278Y-77.47
X65.786Y-142.24
X67.31Y-158.242
X69.342Y-92.964
X69.342Y-131.572
X69.85Y-112.014
X71.374Y-123.952
X73.406Y-147.828
X73.425Y-91.186
X73.425Y-110.236
X73.425Y-129.286
X74.168Y-143.764
X74.93Y-117.106
X75.184Y-123.698
X75.184Y-136.144
X75.946Y-98.044
X77.216Y-83.312
X82.804Y-146.304
X83.566Y-73.406
X84.836Y-160.02
X88.138Y-67.056
X88.138Y-112.014
X89.408Y-77.724
X89.408Y-98.806
X89.408Y-117.602
X89.916Y-136.156
X92.475Y-91.186
X92.475Y-110.236
X92.475Y-129.286
X93.472Y-154.94
X93.726Y-98.056
X93.98Y-117.106
X96.012Y-72.898
X97.028Y-52.07
X97.028Y-54.102
X99.06Y-79.006
X100.838Y-153.416
X102.0Y-72.136
X105.41Y-117.094
X105.664Y-98.044
X106.426Y-136.144
X107.696Y-92.964
X107.696Y-130.81
X108.712Y-50.546
X108.712Y-55.118
X111.525Y-91.186
X111.525Y-110.236
X111.525Y-129.286
X112.776Y-150.368
X113.792Y-53.594
X115.824Y-96.266
X115.824Y-103.378
X115.824Y-104.902
X115.824Y-115.316
X116.304Y-53.511
X119.126Y-51.308
X120.904Y-63.754
X121.412Y-72.39
X121.666Y-60.198
X122.936Y-81.28
X122.936Y-103.378
X122.936Y-104.902
X123.698Y-98.806
X123.698Y-155.702
X125.984Y-92.456
X125.984Y-120.65
X126.492Y-68.58
X126.746Y-77.216
X129.54Y-102.108
X130.556Y-107.95
X130.741Y-106.241
X132.08Y-103.886
X132.842Y-87.122
X133.096Y-82.804
X133.223Y-64.897
X133.604Y-75.438
X134.112Y-63.754
X134.62Y-52.832
X135.128Y-116.586
X135.636Y-48.514
X136.652Y-63.5
X137.16Y-102.87
X138.43Y-106.426
X138.684Y-94.488
X138.684Y-99.568
X138.684Y-100.838
X139.192Y-75.438
X140.208Y-60.706
X140.208Y-83.0
X140.208Y-85.54
X140.208Y-116.078
X140.208Y-118.56
X142.24Y-61.976
X142.485Y-100.78
X144.526Y-48.006
X145.034Y-91.186
X145.034Y-93.218
X145.034Y-95.758
X145.034Y-98.298
X145.034Y-103.378
X145.034Y-105.918
X145.542Y-85.598
X146.05Y-110.49
X146.558Y-84.582
X147.32Y-109.22
X147.574Y-83.82
X147.574Y-110.49
X148.425Y-80.553
X150.368Y-109.728
X150.876Y-86.614
X151.384Y-80.518
X151.638Y-66.802
X155.194Y-65.278
X156.21Y-72.136
X156.21Y-91.44
X157.226Y-104.648
X157.48Y-78.232
X157.48Y-107.95
X157.734Y-110.73
X158.3Y-97.028
X159.004Y-74.422
X159.004Y-85.598
X159.512Y-70.3
X159.512Y-103.32
X159.697Y-80.46
X159.766Y-56.642
X161.865Y-113.48
X165.1Y-70.358
X165.354Y-95.504
X166.878Y-76.708
X167.132Y-96.52
X168.402Y-117.094
X168.91Y-98.552
X169.164Y-84.074
X170.688Y-58.928
X171.196Y-69.596
X172.72Y-47.498
X175.006Y-64.008
X176.276Y-57.404
X176.276Y-99.314
X177.292Y-72.898
X178.58Y-89.136
X179.47Y-52.324
X180.848Y-95.758
X181.864Y-58.674
X185.166Y-66.802
X187.96Y-89.916
X192.024Y-82.804
X192.278Y-89.916
X194.31Y-73.66
X194.818Y-86.36
X197.104Y-62.484
X197.866Y-73.406
X198.882Y-55.372
X203.454Y-62.484
X204.216Y-96.012
X206.209Y-59.398
X206.502Y-71.12
X207.772Y-52.324
X211.074Y-86.067
X212.82Y-79.484
X217.424Y-64.008
X219.456Y-94.234
X226.314Y-61.214
X227.33Y-73.914
X228.346Y-81.026
T2
X61.722Y-65.278
X87.376Y-63.754
X95.25Y-63.754
X101.854Y-63.754
X124.206Y-141.986
X125.73Y-81.28
X125.73Y-84.836
X131.826Y-112.522
X131.826Y-116.586
X136.144Y-89.154
X136.906Y-114.808
X137.922Y-60.706
X144.272Y-54.61
X165.1Y-93.218
X166.37Y-58.42
X174.752Y-52.07
X175.006Y-56.134
X226.06Y-66.802
X226.06Y-70.502
T3
X170.852Y-99.759
X170.852Y-101.759
X170.852Y-105.759
X170.852Y-107.759
X170.852Y-109.759
X170.852Y-111.759
X170.852Y-113.759
X170.852Y-103.759
X185.786Y-95.758
X187.786Y-95.758
X189.786Y-95.758
X191.786Y-95.758
X193.786Y-95.758
X195.786Y-95.758
X197.786Y-95.758
X199.786Y-95.758
T4
X59.944Y-61.976
X67.564Y-61.976
X69.596Y-88.646
X69.596Y-96.266
X69.596Y-107.696
X69.596Y-115.316
X69.596Y-126.746
X69.596Y-134.366
X69.596Y-145.796
X69.596Y-153.416
X75.692Y-64.008
X83.312Y-64.008
X88.392Y-88.646
X88.392Y-96.266
X88.392Y-107.696
X88.392Y-115.316
X88.392Y-126.746
X88.392Y-134.366
X105.664Y-63.754
X107.696Y-88.646
X107.696Y-96.266
X107.696Y-107.696
X107.696Y-115.316
X107.696Y-126.746
X107.696Y-134.366
X107.696Y-145.796
X107.696Y-153.416
X113.284Y-63.754
X126.492Y-88.646
X126.492Y-96.266
X126.492Y-107.696
X126.492Y-115.316
X126.492Y-126.746
X126.492Y-134.366
X128.524Y-54.102
X128.524Y-61.722
X189.992Y-76.962
X189.992Y-84.582
X194.564Y-49.784
X194.564Y-57.404
X208.788Y-76.962
X208.788Y-84.582
X214.884Y-70.612
X222.504Y-70.612
X223.012Y-49.784
X223.012Y-57.404
X228.092Y-76.962
X228.092Y-84.582
T5
X209.55Y-95.511
X212.05Y-95.511
X214.55Y-95.511
T6
X54.445Y-50.975
X54.445Y-53.475
X54.445Y-55.975
X68.945Y-50.975
X68.945Y-55.975
X73.474Y-49.665
X73.474Y-52.205
X73.474Y-54.745
X73.474Y-57.285
X110.976Y-51.054
X110.976Y-53.554
X110.976Y-56.054
X125.476Y-51.054
X125.476Y-56.054
X133.106Y-55.2
X135.646Y-55.2
X138.186Y-55.2
X152.759Y-100.13
X155.299Y-100.13
X157.839Y-100.13
X163.078Y-55.2
X165.618Y-55.2
X168.158Y-55.2
T8
X57.15Y-91.186
X57.15Y-110.236
X57.15Y-129.286
X57.15Y-148.336
X63.5Y-88.646
X63.5Y-107.696
X63.5Y-126.746
X63.5Y-145.796
X66.675Y-72.136
X73.025Y-69.596
X76.2Y-91.186
X76.2Y-110.236
X76.2Y-129.286
X82.55Y-88.646
X82.55Y-107.696
X82.55Y-126.746
X95.25Y-91.186
X95.25Y-110.236
X95.25Y-129.286
X95.25Y-148.336
X101.6Y-88.646
X101.6Y-107.696
X101.6Y-126.746
X101.6Y-145.796
X104.775Y-72.136
X111.125Y-69.596
X114.3Y-91.186
X114.3Y-110.236
X114.3Y-129.286
X120.65Y-88.646
X120.65Y-107.696
X120.65Y-126.746
X177.495Y-79.484
X182.245Y-52.324
X183.845Y-76.944
X188.595Y-49.784
X196.545Y-79.484
X202.895Y-76.944
X210.82Y-52.324
X215.595Y-79.484
X217.17Y-49.784
X221.945Y-76.944
T9
X53.848Y-64.008
X87.376Y-145.034
X89.662Y-72.644
X162.052Y-60.96
X200.66Y-50.8
X224.79Y-96.173
T7
G00X61.295Y-47.875
M15
G01X62.595Y-47.875
M16
G05
G00X61.295Y-59.075
M15
G01X62.595Y-59.075
M16
G05
G00X117.826Y-47.954
M15
G01X119.126Y-47.954
M16
G05
G00X117.826Y-59.154
M15
G01X119.126Y-59.154
M16
G05
M30
