%TF.GenerationSoftware,KiCad,Pcbnew,10.0.3*%
%TF.CreationDate,2026-06-15T17:38:38+08:00*%
%TF.ProjectId,blackmacro_base,626c6163-6b6d-4616-9372-6f5f62617365,5-FAB1*%
%TF.SameCoordinates,Original*%
%TF.FileFunction,Drillmap*%
%TF.FilePolarity,Positive*%
%FSLAX45Y45*%
G04 Gerber Fmt 4.5, Leading zero omitted, Abs format (unit mm)*
G04 Created by KiCad (PCBNEW 10.0.3) date 2026-06-15 17:38:38*
%MOMM*%
%LPD*%
G01*
G04 APERTURE LIST*
%ADD10C,0.200000*%
%ADD11C,0.100000*%
%ADD12C,0.150000*%
%ADD13C,0.305000*%
%ADD14C,0.320000*%
G04 APERTURE END LIST*
D10*
X4889500Y-15621000D02*
X4891171Y-5091375D01*
X4891171Y-5091375D02*
G75*
G02*
X5535871Y-4446661I644719J-5D01*
G01*
X5534213Y-16265700D02*
G75*
G02*
X4889500Y-15621000I5J644717D01*
G01*
X12509500Y-16265700D02*
X5534213Y-16265700D01*
X13149629Y-12487186D02*
X13150807Y-15624595D01*
X13149629Y-12487186D02*
G75*
G02*
X13594112Y-12055299I444351J-12644D01*
G01*
X13150807Y-15624595D02*
G75*
G02*
X12509500Y-16265700I-638717J-2388D01*
G01*
X13594112Y-12055304D02*
X14507497Y-12052300D01*
X14351000Y-4445000D02*
X5535871Y-4446662D01*
X14351000Y-4445000D02*
G75*
G02*
X14530610Y-4624602I0J-179610D01*
G01*
X14507497Y-12052300D02*
X14507497Y-11143017D01*
X14710210Y-4804204D02*
G75*
G02*
X14530606Y-4624602I0J179604D01*
G01*
X15706294Y-4804210D02*
X14710210Y-4804204D01*
X15885896Y-4624605D02*
G75*
G02*
X15706294Y-4804216I-179606J-5D01*
G01*
X15885896Y-4624605D02*
G75*
G02*
X16065498Y-4445006I179604J-5D01*
G01*
X15927497Y-11143017D02*
X14507497Y-11143017D01*
X15927497Y-12052300D02*
X15927497Y-11143017D01*
X16878386Y-12055304D02*
X15927497Y-12052300D01*
X17313006Y-10908350D02*
G75*
G02*
X17957341Y-10261601I644335J2410D01*
G01*
X17313006Y-11607800D02*
G75*
G02*
X16878386Y-12055304I-447356J-330D01*
G01*
X17313006Y-11607800D02*
X17313006Y-10908350D01*
X22479000Y-4445000D02*
X16065498Y-4445000D01*
X22479000Y-4445000D02*
G75*
G02*
X23126119Y-5092276I2410J-644710D01*
G01*
X22479000Y-10261977D02*
X17957341Y-10261600D01*
X23123695Y-9614849D02*
G75*
G02*
X22479000Y-10261980I-644715J-2411D01*
G01*
X23123695Y-9614849D02*
X23126123Y-5092276D01*
D11*
X21770520Y-8779944D02*
X21770520Y-8639376D01*
X21861075Y-8559660D02*
X22019965Y-8559660D01*
X22019965Y-8859660D02*
X21861075Y-8859660D01*
X22110520Y-8639376D02*
X22110520Y-8779944D01*
X21765572Y-8617688D02*
G75*
G02*
X21770518Y-8639376I-45052J-21682D01*
G01*
X21765572Y-8617688D02*
G75*
G02*
X21835849Y-8552830I45051J21688D01*
G01*
X21770520Y-8779944D02*
G75*
G02*
X21765572Y-8801632I-50036J8D01*
G01*
X21835849Y-8866490D02*
G75*
G02*
X21765572Y-8801632I-25226J43170D01*
G01*
X21835849Y-8866490D02*
G75*
G02*
X21861075Y-8859660I25226J-43171D01*
G01*
X21861075Y-8559660D02*
G75*
G02*
X21835849Y-8552830I0J50001D01*
G01*
X22019965Y-8859660D02*
G75*
G02*
X22045191Y-8866490I0J-50001D01*
G01*
X22045191Y-8552830D02*
G75*
G02*
X22019965Y-8559660I-25226J43171D01*
G01*
X22045191Y-8552830D02*
G75*
G02*
X22115468Y-8617688I25226J-43170D01*
G01*
X22110520Y-8639376D02*
G75*
G02*
X22115468Y-8617688I49999J0D01*
G01*
X22115468Y-8801632D02*
G75*
G02*
X22045191Y-8866490I-45051J-21688D01*
G01*
X22115468Y-8801632D02*
G75*
G02*
X22110520Y-8779944I45051J21688D01*
G01*
X6878500Y-8045884D02*
X6878500Y-7905316D01*
X6969055Y-7825600D02*
X7127945Y-7825600D01*
X7127945Y-8125600D02*
X6969055Y-8125600D01*
X7218500Y-7905316D02*
X7218500Y-8045884D01*
X6873552Y-7883628D02*
G75*
G02*
X6878498Y-7905316I-45052J-21682D01*
G01*
X6873552Y-7883628D02*
G75*
G02*
X6943829Y-7818770I45051J21688D01*
G01*
X6878500Y-8045884D02*
G75*
G02*
X6873552Y-8067572I-50036J8D01*
G01*
X6943829Y-8132430D02*
G75*
G02*
X6873552Y-8067572I-25226J43170D01*
G01*
X6943829Y-8132430D02*
G75*
G02*
X6969055Y-8125600I25226J-43171D01*
G01*
X6969055Y-7825600D02*
G75*
G02*
X6943829Y-7818770I0J50001D01*
G01*
X7127945Y-8125600D02*
G75*
G02*
X7153171Y-8132430I0J-50001D01*
G01*
X7153171Y-7818770D02*
G75*
G02*
X7127945Y-7825600I-25226J43171D01*
G01*
X7153171Y-7818770D02*
G75*
G02*
X7223448Y-7883628I25226J-43170D01*
G01*
X7218500Y-7905316D02*
G75*
G02*
X7223448Y-7883628I49999J0D01*
G01*
X7223448Y-8067572D02*
G75*
G02*
X7153171Y-8132430I-45051J-21688D01*
G01*
X7223448Y-8067572D02*
G75*
G02*
X7218500Y-8045884I45051J21688D01*
G01*
X7831000Y-9950884D02*
X7831000Y-9810316D01*
X7921555Y-9730600D02*
X8080445Y-9730600D01*
X8080445Y-10030600D02*
X7921555Y-10030600D01*
X8171000Y-9810316D02*
X8171000Y-9950884D01*
X7826052Y-9788628D02*
G75*
G02*
X7830998Y-9810316I-45052J-21682D01*
G01*
X7826052Y-9788628D02*
G75*
G02*
X7896329Y-9723770I45051J21688D01*
G01*
X7831000Y-9950884D02*
G75*
G02*
X7826052Y-9972572I-50036J8D01*
G01*
X7896329Y-10037430D02*
G75*
G02*
X7826052Y-9972572I-25226J43170D01*
G01*
X7896329Y-10037430D02*
G75*
G02*
X7921555Y-10030600I25226J-43171D01*
G01*
X7921555Y-9730600D02*
G75*
G02*
X7896329Y-9723770I0J50001D01*
G01*
X8080445Y-10030600D02*
G75*
G02*
X8105671Y-10037430I0J-50001D01*
G01*
X8105671Y-9723770D02*
G75*
G02*
X8080445Y-9730600I-25226J43171D01*
G01*
X8105671Y-9723770D02*
G75*
G02*
X8175948Y-9788628I25226J-43170D01*
G01*
X8171000Y-9810316D02*
G75*
G02*
X8175948Y-9788628I49999J0D01*
G01*
X8175948Y-9972572D02*
G75*
G02*
X8105671Y-10037430I-45051J-21688D01*
G01*
X8175948Y-9972572D02*
G75*
G02*
X8171000Y-9950884I45051J21688D01*
G01*
X9736000Y-15665884D02*
X9736000Y-15525316D01*
X9826555Y-15445600D02*
X9985445Y-15445600D01*
X9985445Y-15745600D02*
X9826555Y-15745600D01*
X10076000Y-15525316D02*
X10076000Y-15665884D01*
X9731052Y-15503628D02*
G75*
G02*
X9735998Y-15525316I-45052J-21682D01*
G01*
X9731052Y-15503628D02*
G75*
G02*
X9801329Y-15438770I45051J21688D01*
G01*
X9736000Y-15665884D02*
G75*
G02*
X9731052Y-15687572I-50036J8D01*
G01*
X9801329Y-15752430D02*
G75*
G02*
X9731052Y-15687572I-25226J43170D01*
G01*
X9801329Y-15752430D02*
G75*
G02*
X9826555Y-15745600I25226J-43171D01*
G01*
X9826555Y-15445600D02*
G75*
G02*
X9801329Y-15438770I0J50001D01*
G01*
X9985445Y-15745600D02*
G75*
G02*
X10010671Y-15752430I0J-50001D01*
G01*
X10010671Y-15438770D02*
G75*
G02*
X9985445Y-15445600I-25226J43171D01*
G01*
X10010671Y-15438770D02*
G75*
G02*
X10080948Y-15503628I25226J-43170D01*
G01*
X10076000Y-15525316D02*
G75*
G02*
X10080948Y-15503628I49999J0D01*
G01*
X10080948Y-15687572D02*
G75*
G02*
X10010671Y-15752430I-45051J-21688D01*
G01*
X10080948Y-15687572D02*
G75*
G02*
X10076000Y-15665884I45051J21688D01*
G01*
X17960520Y-8779944D02*
X17960520Y-8639376D01*
X18051075Y-8559660D02*
X18209965Y-8559660D01*
X18209965Y-8859660D02*
X18051075Y-8859660D01*
X18300520Y-8639376D02*
X18300520Y-8779944D01*
X17955572Y-8617688D02*
G75*
G02*
X17960518Y-8639376I-45052J-21682D01*
G01*
X17955572Y-8617688D02*
G75*
G02*
X18025849Y-8552830I45051J21688D01*
G01*
X17960520Y-8779944D02*
G75*
G02*
X17955572Y-8801632I-50036J8D01*
G01*
X18025849Y-8866490D02*
G75*
G02*
X17955572Y-8801632I-25226J43170D01*
G01*
X18025849Y-8866490D02*
G75*
G02*
X18051075Y-8859660I25226J-43171D01*
G01*
X18051075Y-8559660D02*
G75*
G02*
X18025849Y-8552830I0J50001D01*
G01*
X18209965Y-8859660D02*
G75*
G02*
X18235191Y-8866490I0J-50001D01*
G01*
X18235191Y-8552830D02*
G75*
G02*
X18209965Y-8559660I-25226J43171D01*
G01*
X18235191Y-8552830D02*
G75*
G02*
X18305468Y-8617688I25226J-43170D01*
G01*
X18300520Y-8639376D02*
G75*
G02*
X18305468Y-8617688I49999J0D01*
G01*
X18305468Y-8801632D02*
G75*
G02*
X18235191Y-8866490I-45051J-21688D01*
G01*
X18305468Y-8801632D02*
G75*
G02*
X18300520Y-8779944I45051J21688D01*
G01*
X5926000Y-11855884D02*
X5926000Y-11715316D01*
X6016555Y-11635600D02*
X6175445Y-11635600D01*
X6175445Y-11935600D02*
X6016555Y-11935600D01*
X6266000Y-11715316D02*
X6266000Y-11855884D01*
X5921052Y-11693628D02*
G75*
G02*
X5925998Y-11715316I-45052J-21682D01*
G01*
X5921052Y-11693628D02*
G75*
G02*
X5991329Y-11628770I45051J21688D01*
G01*
X5926000Y-11855884D02*
G75*
G02*
X5921052Y-11877572I-50036J8D01*
G01*
X5991329Y-11942430D02*
G75*
G02*
X5921052Y-11877572I-25226J43170D01*
G01*
X5991329Y-11942430D02*
G75*
G02*
X6016555Y-11935600I25226J-43171D01*
G01*
X6016555Y-11635600D02*
G75*
G02*
X5991329Y-11628770I0J50001D01*
G01*
X6175445Y-11935600D02*
G75*
G02*
X6200671Y-11942430I0J-50001D01*
G01*
X6200671Y-11628770D02*
G75*
G02*
X6175445Y-11635600I-25226J43171D01*
G01*
X6200671Y-11628770D02*
G75*
G02*
X6270948Y-11693628I25226J-43170D01*
G01*
X6266000Y-11715316D02*
G75*
G02*
X6270948Y-11693628I49999J0D01*
G01*
X6270948Y-11877572D02*
G75*
G02*
X6200671Y-11942430I-45051J-21688D01*
G01*
X6270948Y-11877572D02*
G75*
G02*
X6266000Y-11855884I45051J21688D01*
G01*
X5926000Y-9950884D02*
X5926000Y-9810316D01*
X6016555Y-9730600D02*
X6175445Y-9730600D01*
X6175445Y-10030600D02*
X6016555Y-10030600D01*
X6266000Y-9810316D02*
X6266000Y-9950884D01*
X5921052Y-9788628D02*
G75*
G02*
X5925998Y-9810316I-45052J-21682D01*
G01*
X5921052Y-9788628D02*
G75*
G02*
X5991329Y-9723770I45051J21688D01*
G01*
X5926000Y-9950884D02*
G75*
G02*
X5921052Y-9972572I-50036J8D01*
G01*
X5991329Y-10037430D02*
G75*
G02*
X5921052Y-9972572I-25226J43170D01*
G01*
X5991329Y-10037430D02*
G75*
G02*
X6016555Y-10030600I25226J-43171D01*
G01*
X6016555Y-9730600D02*
G75*
G02*
X5991329Y-9723770I0J50001D01*
G01*
X6175445Y-10030600D02*
G75*
G02*
X6200671Y-10037430I0J-50001D01*
G01*
X6200671Y-9723770D02*
G75*
G02*
X6175445Y-9730600I-25226J43171D01*
G01*
X6200671Y-9723770D02*
G75*
G02*
X6270948Y-9788628I25226J-43170D01*
G01*
X6266000Y-9810316D02*
G75*
G02*
X6270948Y-9788628I49999J0D01*
G01*
X6270948Y-9972572D02*
G75*
G02*
X6200671Y-10037430I-45051J-21688D01*
G01*
X6270948Y-9972572D02*
G75*
G02*
X6266000Y-9950884I45051J21688D01*
G01*
X10688500Y-8045884D02*
X10688500Y-7905316D01*
X10779055Y-7825600D02*
X10937945Y-7825600D01*
X10937945Y-8125600D02*
X10779055Y-8125600D01*
X11028500Y-7905316D02*
X11028500Y-8045884D01*
X10683552Y-7883628D02*
G75*
G02*
X10688498Y-7905316I-45052J-21682D01*
G01*
X10683552Y-7883628D02*
G75*
G02*
X10753829Y-7818770I45051J21688D01*
G01*
X10688500Y-8045884D02*
G75*
G02*
X10683552Y-8067572I-50036J8D01*
G01*
X10753829Y-8132430D02*
G75*
G02*
X10683552Y-8067572I-25226J43170D01*
G01*
X10753829Y-8132430D02*
G75*
G02*
X10779055Y-8125600I25226J-43171D01*
G01*
X10779055Y-7825600D02*
G75*
G02*
X10753829Y-7818770I0J50001D01*
G01*
X10937945Y-8125600D02*
G75*
G02*
X10963171Y-8132430I0J-50001D01*
G01*
X10963171Y-7818770D02*
G75*
G02*
X10937945Y-7825600I-25226J43171D01*
G01*
X10963171Y-7818770D02*
G75*
G02*
X11033448Y-7883628I25226J-43170D01*
G01*
X11028500Y-7905316D02*
G75*
G02*
X11033448Y-7883628I49999J0D01*
G01*
X11033448Y-8067572D02*
G75*
G02*
X10963171Y-8132430I-45051J-21688D01*
G01*
X11033448Y-8067572D02*
G75*
G02*
X11028500Y-8045884I45051J21688D01*
G01*
X11641000Y-9950884D02*
X11641000Y-9810316D01*
X11731555Y-9730600D02*
X11890445Y-9730600D01*
X11890445Y-10030600D02*
X11731555Y-10030600D01*
X11981000Y-9810316D02*
X11981000Y-9950884D01*
X11636052Y-9788628D02*
G75*
G02*
X11640998Y-9810316I-45052J-21682D01*
G01*
X11636052Y-9788628D02*
G75*
G02*
X11706329Y-9723770I45051J21688D01*
G01*
X11641000Y-9950884D02*
G75*
G02*
X11636052Y-9972572I-50036J8D01*
G01*
X11706329Y-10037430D02*
G75*
G02*
X11636052Y-9972572I-25226J43170D01*
G01*
X11706329Y-10037430D02*
G75*
G02*
X11731555Y-10030600I25226J-43171D01*
G01*
X11731555Y-9730600D02*
G75*
G02*
X11706329Y-9723770I0J50001D01*
G01*
X11890445Y-10030600D02*
G75*
G02*
X11915671Y-10037430I0J-50001D01*
G01*
X11915671Y-9723770D02*
G75*
G02*
X11890445Y-9730600I-25226J43171D01*
G01*
X11915671Y-9723770D02*
G75*
G02*
X11985948Y-9788628I25226J-43170D01*
G01*
X11981000Y-9810316D02*
G75*
G02*
X11985948Y-9788628I49999J0D01*
G01*
X11985948Y-9972572D02*
G75*
G02*
X11915671Y-10037430I-45051J-21688D01*
G01*
X11985948Y-9972572D02*
G75*
G02*
X11981000Y-9950884I45051J21688D01*
G01*
X9736000Y-13760884D02*
X9736000Y-13620316D01*
X9826555Y-13540600D02*
X9985445Y-13540600D01*
X9985445Y-13840600D02*
X9826555Y-13840600D01*
X10076000Y-13620316D02*
X10076000Y-13760884D01*
X9731052Y-13598628D02*
G75*
G02*
X9735998Y-13620316I-45052J-21682D01*
G01*
X9731052Y-13598628D02*
G75*
G02*
X9801329Y-13533770I45051J21688D01*
G01*
X9736000Y-13760884D02*
G75*
G02*
X9731052Y-13782572I-50036J8D01*
G01*
X9801329Y-13847430D02*
G75*
G02*
X9731052Y-13782572I-25226J43170D01*
G01*
X9801329Y-13847430D02*
G75*
G02*
X9826555Y-13840600I25226J-43171D01*
G01*
X9826555Y-13540600D02*
G75*
G02*
X9801329Y-13533770I0J50001D01*
G01*
X9985445Y-13840600D02*
G75*
G02*
X10010671Y-13847430I0J-50001D01*
G01*
X10010671Y-13533770D02*
G75*
G02*
X9985445Y-13540600I-25226J43171D01*
G01*
X10010671Y-13533770D02*
G75*
G02*
X10080948Y-13598628I25226J-43170D01*
G01*
X10076000Y-13620316D02*
G75*
G02*
X10080948Y-13598628I49999J0D01*
G01*
X10080948Y-13782572D02*
G75*
G02*
X10010671Y-13847430I-45051J-21688D01*
G01*
X10080948Y-13782572D02*
G75*
G02*
X10076000Y-13760884I45051J21688D01*
G01*
X7831000Y-11855884D02*
X7831000Y-11715316D01*
X7921555Y-11635600D02*
X8080445Y-11635600D01*
X8080445Y-11935600D02*
X7921555Y-11935600D01*
X8171000Y-11715316D02*
X8171000Y-11855884D01*
X7826052Y-11693628D02*
G75*
G02*
X7830998Y-11715316I-45052J-21682D01*
G01*
X7826052Y-11693628D02*
G75*
G02*
X7896329Y-11628770I45051J21688D01*
G01*
X7831000Y-11855884D02*
G75*
G02*
X7826052Y-11877572I-50036J8D01*
G01*
X7896329Y-11942430D02*
G75*
G02*
X7826052Y-11877572I-25226J43170D01*
G01*
X7896329Y-11942430D02*
G75*
G02*
X7921555Y-11935600I25226J-43171D01*
G01*
X7921555Y-11635600D02*
G75*
G02*
X7896329Y-11628770I0J50001D01*
G01*
X8080445Y-11935600D02*
G75*
G02*
X8105671Y-11942430I0J-50001D01*
G01*
X8105671Y-11628770D02*
G75*
G02*
X8080445Y-11635600I-25226J43171D01*
G01*
X8105671Y-11628770D02*
G75*
G02*
X8175948Y-11693628I25226J-43170D01*
G01*
X8171000Y-11715316D02*
G75*
G02*
X8175948Y-11693628I49999J0D01*
G01*
X8175948Y-11877572D02*
G75*
G02*
X8105671Y-11942430I-45051J-21688D01*
G01*
X8175948Y-11877572D02*
G75*
G02*
X8171000Y-11855884I45051J21688D01*
G01*
X9736000Y-11855884D02*
X9736000Y-11715316D01*
X9826555Y-11635600D02*
X9985445Y-11635600D01*
X9985445Y-11935600D02*
X9826555Y-11935600D01*
X10076000Y-11715316D02*
X10076000Y-11855884D01*
X9731052Y-11693628D02*
G75*
G02*
X9735998Y-11715316I-45052J-21682D01*
G01*
X9731052Y-11693628D02*
G75*
G02*
X9801329Y-11628770I45051J21688D01*
G01*
X9736000Y-11855884D02*
G75*
G02*
X9731052Y-11877572I-50036J8D01*
G01*
X9801329Y-11942430D02*
G75*
G02*
X9731052Y-11877572I-25226J43170D01*
G01*
X9801329Y-11942430D02*
G75*
G02*
X9826555Y-11935600I25226J-43171D01*
G01*
X9826555Y-11635600D02*
G75*
G02*
X9801329Y-11628770I0J50001D01*
G01*
X9985445Y-11935600D02*
G75*
G02*
X10010671Y-11942430I0J-50001D01*
G01*
X10010671Y-11628770D02*
G75*
G02*
X9985445Y-11635600I-25226J43171D01*
G01*
X10010671Y-11628770D02*
G75*
G02*
X10080948Y-11693628I25226J-43170D01*
G01*
X10076000Y-11715316D02*
G75*
G02*
X10080948Y-11693628I49999J0D01*
G01*
X10080948Y-11877572D02*
G75*
G02*
X10010671Y-11942430I-45051J-21688D01*
G01*
X10080948Y-11877572D02*
G75*
G02*
X10076000Y-11855884I45051J21688D01*
G01*
X19865520Y-8779944D02*
X19865520Y-8639376D01*
X19956075Y-8559660D02*
X20114965Y-8559660D01*
X20114965Y-8859660D02*
X19956075Y-8859660D01*
X20205520Y-8639376D02*
X20205520Y-8779944D01*
X19860572Y-8617688D02*
G75*
G02*
X19865518Y-8639376I-45052J-21682D01*
G01*
X19860572Y-8617688D02*
G75*
G02*
X19930849Y-8552830I45051J21688D01*
G01*
X19865520Y-8779944D02*
G75*
G02*
X19860572Y-8801632I-50036J8D01*
G01*
X19930849Y-8866490D02*
G75*
G02*
X19860572Y-8801632I-25226J43170D01*
G01*
X19930849Y-8866490D02*
G75*
G02*
X19956075Y-8859660I25226J-43171D01*
G01*
X19956075Y-8559660D02*
G75*
G02*
X19930849Y-8552830I0J50001D01*
G01*
X20114965Y-8859660D02*
G75*
G02*
X20140191Y-8866490I0J-50001D01*
G01*
X20140191Y-8552830D02*
G75*
G02*
X20114965Y-8559660I-25226J43171D01*
G01*
X20140191Y-8552830D02*
G75*
G02*
X20210468Y-8617688I25226J-43170D01*
G01*
X20205520Y-8639376D02*
G75*
G02*
X20210468Y-8617688I49999J0D01*
G01*
X20210468Y-8801632D02*
G75*
G02*
X20140191Y-8866490I-45051J-21688D01*
G01*
X20210468Y-8801632D02*
G75*
G02*
X20205520Y-8779944I45051J21688D01*
G01*
X7831000Y-13760884D02*
X7831000Y-13620316D01*
X7921555Y-13540600D02*
X8080445Y-13540600D01*
X8080445Y-13840600D02*
X7921555Y-13840600D01*
X8171000Y-13620316D02*
X8171000Y-13760884D01*
X7826052Y-13598628D02*
G75*
G02*
X7830998Y-13620316I-45052J-21682D01*
G01*
X7826052Y-13598628D02*
G75*
G02*
X7896329Y-13533770I45051J21688D01*
G01*
X7831000Y-13760884D02*
G75*
G02*
X7826052Y-13782572I-50036J8D01*
G01*
X7896329Y-13847430D02*
G75*
G02*
X7826052Y-13782572I-25226J43170D01*
G01*
X7896329Y-13847430D02*
G75*
G02*
X7921555Y-13840600I25226J-43171D01*
G01*
X7921555Y-13540600D02*
G75*
G02*
X7896329Y-13533770I0J50001D01*
G01*
X8080445Y-13840600D02*
G75*
G02*
X8105671Y-13847430I0J-50001D01*
G01*
X8105671Y-13533770D02*
G75*
G02*
X8080445Y-13540600I-25226J43171D01*
G01*
X8105671Y-13533770D02*
G75*
G02*
X8175948Y-13598628I25226J-43170D01*
G01*
X8171000Y-13620316D02*
G75*
G02*
X8175948Y-13598628I49999J0D01*
G01*
X8175948Y-13782572D02*
G75*
G02*
X8105671Y-13847430I-45051J-21688D01*
G01*
X8175948Y-13782572D02*
G75*
G02*
X8171000Y-13760884I45051J21688D01*
G01*
X5926000Y-15665884D02*
X5926000Y-15525316D01*
X6016555Y-15445600D02*
X6175445Y-15445600D01*
X6175445Y-15745600D02*
X6016555Y-15745600D01*
X6266000Y-15525316D02*
X6266000Y-15665884D01*
X5921052Y-15503628D02*
G75*
G02*
X5925998Y-15525316I-45052J-21682D01*
G01*
X5921052Y-15503628D02*
G75*
G02*
X5991329Y-15438770I45051J21688D01*
G01*
X5926000Y-15665884D02*
G75*
G02*
X5921052Y-15687572I-50036J8D01*
G01*
X5991329Y-15752430D02*
G75*
G02*
X5921052Y-15687572I-25226J43170D01*
G01*
X5991329Y-15752430D02*
G75*
G02*
X6016555Y-15745600I25226J-43171D01*
G01*
X6016555Y-15445600D02*
G75*
G02*
X5991329Y-15438770I0J50001D01*
G01*
X6175445Y-15745600D02*
G75*
G02*
X6200671Y-15752430I0J-50001D01*
G01*
X6200671Y-15438770D02*
G75*
G02*
X6175445Y-15445600I-25226J43171D01*
G01*
X6200671Y-15438770D02*
G75*
G02*
X6270948Y-15503628I25226J-43170D01*
G01*
X6266000Y-15525316D02*
G75*
G02*
X6270948Y-15503628I49999J0D01*
G01*
X6270948Y-15687572D02*
G75*
G02*
X6200671Y-15752430I-45051J-21688D01*
G01*
X6270948Y-15687572D02*
G75*
G02*
X6266000Y-15665884I45051J21688D01*
G01*
X21293000Y-6064684D02*
X21293000Y-5924116D01*
X21383555Y-5844400D02*
X21542445Y-5844400D01*
X21542445Y-6144400D02*
X21383555Y-6144400D01*
X21633000Y-5924116D02*
X21633000Y-6064684D01*
X21288052Y-5902428D02*
G75*
G02*
X21292998Y-5924116I-45052J-21682D01*
G01*
X21288052Y-5902428D02*
G75*
G02*
X21358329Y-5837570I45051J21688D01*
G01*
X21293000Y-6064684D02*
G75*
G02*
X21288052Y-6086372I-50036J8D01*
G01*
X21358329Y-6151230D02*
G75*
G02*
X21288052Y-6086372I-25226J43170D01*
G01*
X21358329Y-6151230D02*
G75*
G02*
X21383555Y-6144400I25226J-43171D01*
G01*
X21383555Y-5844400D02*
G75*
G02*
X21358329Y-5837570I0J50001D01*
G01*
X21542445Y-6144400D02*
G75*
G02*
X21567671Y-6151230I0J-50001D01*
G01*
X21567671Y-5837570D02*
G75*
G02*
X21542445Y-5844400I-25226J43171D01*
G01*
X21567671Y-5837570D02*
G75*
G02*
X21637948Y-5902428I25226J-43170D01*
G01*
X21633000Y-5924116D02*
G75*
G02*
X21637948Y-5902428I49999J0D01*
G01*
X21637948Y-6086372D02*
G75*
G02*
X21567671Y-6151230I-45051J-21688D01*
G01*
X21637948Y-6086372D02*
G75*
G02*
X21633000Y-6064684I45051J21688D01*
G01*
X11641000Y-13760884D02*
X11641000Y-13620316D01*
X11731555Y-13540600D02*
X11890445Y-13540600D01*
X11890445Y-13840600D02*
X11731555Y-13840600D01*
X11981000Y-13620316D02*
X11981000Y-13760884D01*
X11636052Y-13598628D02*
G75*
G02*
X11640998Y-13620316I-45052J-21682D01*
G01*
X11636052Y-13598628D02*
G75*
G02*
X11706329Y-13533770I45051J21688D01*
G01*
X11641000Y-13760884D02*
G75*
G02*
X11636052Y-13782572I-50036J8D01*
G01*
X11706329Y-13847430D02*
G75*
G02*
X11636052Y-13782572I-25226J43170D01*
G01*
X11706329Y-13847430D02*
G75*
G02*
X11731555Y-13840600I25226J-43171D01*
G01*
X11731555Y-13540600D02*
G75*
G02*
X11706329Y-13533770I0J50001D01*
G01*
X11890445Y-13840600D02*
G75*
G02*
X11915671Y-13847430I0J-50001D01*
G01*
X11915671Y-13533770D02*
G75*
G02*
X11890445Y-13540600I-25226J43171D01*
G01*
X11915671Y-13533770D02*
G75*
G02*
X11985948Y-13598628I25226J-43170D01*
G01*
X11981000Y-13620316D02*
G75*
G02*
X11985948Y-13598628I49999J0D01*
G01*
X11985948Y-13782572D02*
G75*
G02*
X11915671Y-13847430I-45051J-21688D01*
G01*
X11985948Y-13782572D02*
G75*
G02*
X11981000Y-13760884I45051J21688D01*
G01*
X9736000Y-9950884D02*
X9736000Y-9810316D01*
X9826555Y-9730600D02*
X9985445Y-9730600D01*
X9985445Y-10030600D02*
X9826555Y-10030600D01*
X10076000Y-9810316D02*
X10076000Y-9950884D01*
X9731052Y-9788628D02*
G75*
G02*
X9735998Y-9810316I-45052J-21682D01*
G01*
X9731052Y-9788628D02*
G75*
G02*
X9801329Y-9723770I45051J21688D01*
G01*
X9736000Y-9950884D02*
G75*
G02*
X9731052Y-9972572I-50036J8D01*
G01*
X9801329Y-10037430D02*
G75*
G02*
X9731052Y-9972572I-25226J43170D01*
G01*
X9801329Y-10037430D02*
G75*
G02*
X9826555Y-10030600I25226J-43171D01*
G01*
X9826555Y-9730600D02*
G75*
G02*
X9801329Y-9723770I0J50001D01*
G01*
X9985445Y-10030600D02*
G75*
G02*
X10010671Y-10037430I0J-50001D01*
G01*
X10010671Y-9723770D02*
G75*
G02*
X9985445Y-9730600I-25226J43171D01*
G01*
X10010671Y-9723770D02*
G75*
G02*
X10080948Y-9788628I25226J-43170D01*
G01*
X10076000Y-9810316D02*
G75*
G02*
X10080948Y-9788628I49999J0D01*
G01*
X10080948Y-9972572D02*
G75*
G02*
X10010671Y-10037430I-45051J-21688D01*
G01*
X10080948Y-9972572D02*
G75*
G02*
X10076000Y-9950884I45051J21688D01*
G01*
X11641000Y-11855884D02*
X11641000Y-11715316D01*
X11731555Y-11635600D02*
X11890445Y-11635600D01*
X11890445Y-11935600D02*
X11731555Y-11935600D01*
X11981000Y-11715316D02*
X11981000Y-11855884D01*
X11636052Y-11693628D02*
G75*
G02*
X11640998Y-11715316I-45052J-21682D01*
G01*
X11636052Y-11693628D02*
G75*
G02*
X11706329Y-11628770I45051J21688D01*
G01*
X11641000Y-11855884D02*
G75*
G02*
X11636052Y-11877572I-50036J8D01*
G01*
X11706329Y-11942430D02*
G75*
G02*
X11636052Y-11877572I-25226J43170D01*
G01*
X11706329Y-11942430D02*
G75*
G02*
X11731555Y-11935600I25226J-43171D01*
G01*
X11731555Y-11635600D02*
G75*
G02*
X11706329Y-11628770I0J50001D01*
G01*
X11890445Y-11935600D02*
G75*
G02*
X11915671Y-11942430I0J-50001D01*
G01*
X11915671Y-11628770D02*
G75*
G02*
X11890445Y-11635600I-25226J43171D01*
G01*
X11915671Y-11628770D02*
G75*
G02*
X11985948Y-11693628I25226J-43170D01*
G01*
X11981000Y-11715316D02*
G75*
G02*
X11985948Y-11693628I49999J0D01*
G01*
X11985948Y-11877572D02*
G75*
G02*
X11915671Y-11942430I-45051J-21688D01*
G01*
X11985948Y-11877572D02*
G75*
G02*
X11981000Y-11855884I45051J21688D01*
G01*
X18435500Y-6064684D02*
X18435500Y-5924116D01*
X18526055Y-5844400D02*
X18684945Y-5844400D01*
X18684945Y-6144400D02*
X18526055Y-6144400D01*
X18775500Y-5924116D02*
X18775500Y-6064684D01*
X18430552Y-5902428D02*
G75*
G02*
X18435498Y-5924116I-45052J-21682D01*
G01*
X18430552Y-5902428D02*
G75*
G02*
X18500829Y-5837570I45051J21688D01*
G01*
X18435500Y-6064684D02*
G75*
G02*
X18430552Y-6086372I-50036J8D01*
G01*
X18500829Y-6151230D02*
G75*
G02*
X18430552Y-6086372I-25226J43170D01*
G01*
X18500829Y-6151230D02*
G75*
G02*
X18526055Y-6144400I25226J-43171D01*
G01*
X18526055Y-5844400D02*
G75*
G02*
X18500829Y-5837570I0J50001D01*
G01*
X18684945Y-6144400D02*
G75*
G02*
X18710171Y-6151230I0J-50001D01*
G01*
X18710171Y-5837570D02*
G75*
G02*
X18684945Y-5844400I-25226J43171D01*
G01*
X18710171Y-5837570D02*
G75*
G02*
X18780448Y-5902428I25226J-43170D01*
G01*
X18775500Y-5924116D02*
G75*
G02*
X18780448Y-5902428I49999J0D01*
G01*
X18780448Y-6086372D02*
G75*
G02*
X18710171Y-6151230I-45051J-21688D01*
G01*
X18780448Y-6086372D02*
G75*
G02*
X18775500Y-6064684I45051J21688D01*
G01*
X5926000Y-13760884D02*
X5926000Y-13620316D01*
X6016555Y-13540600D02*
X6175445Y-13540600D01*
X6175445Y-13840600D02*
X6016555Y-13840600D01*
X6266000Y-13620316D02*
X6266000Y-13760884D01*
X5921052Y-13598628D02*
G75*
G02*
X5925998Y-13620316I-45052J-21682D01*
G01*
X5921052Y-13598628D02*
G75*
G02*
X5991329Y-13533770I45051J21688D01*
G01*
X5926000Y-13760884D02*
G75*
G02*
X5921052Y-13782572I-50036J8D01*
G01*
X5991329Y-13847430D02*
G75*
G02*
X5921052Y-13782572I-25226J43170D01*
G01*
X5991329Y-13847430D02*
G75*
G02*
X6016555Y-13840600I25226J-43171D01*
G01*
X6016555Y-13540600D02*
G75*
G02*
X5991329Y-13533770I0J50001D01*
G01*
X6175445Y-13840600D02*
G75*
G02*
X6200671Y-13847430I0J-50001D01*
G01*
X6200671Y-13533770D02*
G75*
G02*
X6175445Y-13540600I-25226J43171D01*
G01*
X6200671Y-13533770D02*
G75*
G02*
X6270948Y-13598628I25226J-43170D01*
G01*
X6266000Y-13620316D02*
G75*
G02*
X6270948Y-13598628I49999J0D01*
G01*
X6270948Y-13782572D02*
G75*
G02*
X6200671Y-13847430I-45051J-21688D01*
G01*
X6270948Y-13782572D02*
G75*
G02*
X6266000Y-13760884I45051J21688D01*
G01*
D10*
D11*
X5115800Y-11313400D02*
X5145800Y-11343400D01*
X5145800Y-11313400D02*
X5115800Y-11343400D01*
X5141200Y-13167600D02*
X5171200Y-13197600D01*
X5171200Y-13167600D02*
X5141200Y-13197600D01*
X5192000Y-4836400D02*
X5222000Y-4866400D01*
X5222000Y-4836400D02*
X5192000Y-4866400D01*
X5192000Y-5547600D02*
X5222000Y-5577600D01*
X5222000Y-5547600D02*
X5192000Y-5577600D01*
X5293600Y-7655800D02*
X5323600Y-7685800D01*
X5323600Y-7655800D02*
X5293600Y-7685800D01*
X5573000Y-10322800D02*
X5603000Y-10352800D01*
X5603000Y-10322800D02*
X5573000Y-10352800D01*
X5776200Y-10322800D02*
X5806200Y-10352800D01*
X5806200Y-10322800D02*
X5776200Y-10352800D01*
X5801600Y-5039600D02*
X5831600Y-5069600D01*
X5831600Y-5039600D02*
X5801600Y-5069600D01*
X5827000Y-7224000D02*
X5857000Y-7254000D01*
X5857000Y-7224000D02*
X5827000Y-7254000D01*
X5877800Y-15352000D02*
X5907800Y-15382000D01*
X5907800Y-15352000D02*
X5877800Y-15382000D01*
X6309600Y-8341600D02*
X6339600Y-8371600D01*
X6339600Y-8341600D02*
X6309600Y-8371600D01*
X6375000Y-7198600D02*
X6405000Y-7228600D01*
X6405000Y-7198600D02*
X6375000Y-7228600D01*
X6512800Y-7732000D02*
X6542800Y-7762000D01*
X6542800Y-7732000D02*
X6512800Y-7762000D01*
X6563600Y-14209000D02*
X6593600Y-14239000D01*
X6593600Y-14209000D02*
X6563600Y-14239000D01*
X6716000Y-15809200D02*
X6746000Y-15839200D01*
X6746000Y-15809200D02*
X6716000Y-15839200D01*
X6919200Y-9281400D02*
X6949200Y-9311400D01*
X6949200Y-9281400D02*
X6919200Y-9311400D01*
X6919200Y-13142200D02*
X6949200Y-13172200D01*
X6949200Y-13142200D02*
X6919200Y-13172200D01*
X6970000Y-11186400D02*
X7000000Y-11216400D01*
X7000000Y-11186400D02*
X6970000Y-11216400D01*
X7122400Y-12380200D02*
X7152400Y-12410200D01*
X7152400Y-12380200D02*
X7122400Y-12410200D01*
X7325600Y-14767800D02*
X7355600Y-14797800D01*
X7355600Y-14767800D02*
X7325600Y-14797800D01*
X7327500Y-9103600D02*
X7357500Y-9133600D01*
X7357500Y-9103600D02*
X7327500Y-9133600D01*
X7327500Y-11008600D02*
X7357500Y-11038600D01*
X7357500Y-11008600D02*
X7327500Y-11038600D01*
X7327500Y-12913600D02*
X7357500Y-12943600D01*
X7357500Y-12913600D02*
X7327500Y-12943600D01*
X7401800Y-14361400D02*
X7431800Y-14391400D01*
X7431800Y-14361400D02*
X7401800Y-14391400D01*
X7478000Y-11695600D02*
X7508000Y-11725600D01*
X7508000Y-11695600D02*
X7478000Y-11725600D01*
X7503400Y-12354800D02*
X7533400Y-12384800D01*
X7533400Y-12354800D02*
X7503400Y-12384800D01*
X7503400Y-13599400D02*
X7533400Y-13629400D01*
X7533400Y-13599400D02*
X7503400Y-13629400D01*
X7579600Y-9789400D02*
X7609600Y-9819400D01*
X7609600Y-9789400D02*
X7579600Y-9819400D01*
X7706600Y-8316200D02*
X7736600Y-8346200D01*
X7736600Y-8316200D02*
X7706600Y-8346200D01*
X8265400Y-14615400D02*
X8295400Y-14645400D01*
X8295400Y-14615400D02*
X8265400Y-14645400D01*
X8341600Y-7325600D02*
X8371600Y-7355600D01*
X8371600Y-7325600D02*
X8341600Y-7355600D01*
X8468600Y-15987000D02*
X8498600Y-16017000D01*
X8498600Y-15987000D02*
X8468600Y-16017000D01*
X8798800Y-6690600D02*
X8828800Y-6720600D01*
X8828800Y-6690600D02*
X8798800Y-6720600D01*
X8798800Y-11186400D02*
X8828800Y-11216400D01*
X8828800Y-11186400D02*
X8798800Y-11216400D01*
X8925800Y-7757400D02*
X8955800Y-7787400D01*
X8955800Y-7757400D02*
X8925800Y-7787400D01*
X8925800Y-9865600D02*
X8955800Y-9895600D01*
X8955800Y-9865600D02*
X8925800Y-9895600D01*
X8925800Y-11745200D02*
X8955800Y-11775200D01*
X8955800Y-11745200D02*
X8925800Y-11775200D01*
X8976600Y-13600600D02*
X9006600Y-13630600D01*
X9006600Y-13600600D02*
X8976600Y-13630600D01*
X9232500Y-9103600D02*
X9262500Y-9133600D01*
X9262500Y-9103600D02*
X9232500Y-9133600D01*
X9232500Y-11008600D02*
X9262500Y-11038600D01*
X9262500Y-11008600D02*
X9232500Y-11038600D01*
X9232500Y-12913600D02*
X9262500Y-12943600D01*
X9262500Y-12913600D02*
X9232500Y-12943600D01*
X9332200Y-15479000D02*
X9362200Y-15509000D01*
X9362200Y-15479000D02*
X9332200Y-15509000D01*
X9357600Y-9790600D02*
X9387600Y-9820600D01*
X9387600Y-9790600D02*
X9357600Y-9820600D01*
X9383000Y-11695600D02*
X9413000Y-11725600D01*
X9413000Y-11695600D02*
X9383000Y-11725600D01*
X9586200Y-7274800D02*
X9616200Y-7304800D01*
X9616200Y-7274800D02*
X9586200Y-7304800D01*
X9687800Y-5192000D02*
X9717800Y-5222000D01*
X9717800Y-5192000D02*
X9687800Y-5222000D01*
X9687800Y-5395200D02*
X9717800Y-5425200D01*
X9717800Y-5395200D02*
X9687800Y-5425200D01*
X9891000Y-7885600D02*
X9921000Y-7915600D01*
X9921000Y-7885600D02*
X9891000Y-7915600D01*
X10068800Y-15326600D02*
X10098800Y-15356600D01*
X10098800Y-15326600D02*
X10068800Y-15356600D01*
X10185000Y-7198600D02*
X10215000Y-7228600D01*
X10215000Y-7198600D02*
X10185000Y-7228600D01*
X10526000Y-11694400D02*
X10556000Y-11724400D01*
X10556000Y-11694400D02*
X10526000Y-11724400D01*
X10551400Y-9789400D02*
X10581400Y-9819400D01*
X10581400Y-9789400D02*
X10551400Y-9819400D01*
X10627600Y-13599400D02*
X10657600Y-13629400D01*
X10657600Y-13599400D02*
X10627600Y-13629400D01*
X10754600Y-9281400D02*
X10784600Y-9311400D01*
X10784600Y-9281400D02*
X10754600Y-9311400D01*
X10754600Y-13066000D02*
X10784600Y-13096000D01*
X10784600Y-13066000D02*
X10754600Y-13096000D01*
X10856200Y-5039600D02*
X10886200Y-5069600D01*
X10886200Y-5039600D02*
X10856200Y-5069600D01*
X10856200Y-5496800D02*
X10886200Y-5526800D01*
X10886200Y-5496800D02*
X10856200Y-5526800D01*
X11137500Y-9103600D02*
X11167500Y-9133600D01*
X11167500Y-9103600D02*
X11137500Y-9133600D01*
X11137500Y-11008600D02*
X11167500Y-11038600D01*
X11167500Y-11008600D02*
X11137500Y-11038600D01*
X11137500Y-12913600D02*
X11167500Y-12943600D01*
X11167500Y-12913600D02*
X11137500Y-12943600D01*
X11262600Y-15021800D02*
X11292600Y-15051800D01*
X11292600Y-15021800D02*
X11262600Y-15051800D01*
X11364200Y-5344400D02*
X11394200Y-5374400D01*
X11394200Y-5344400D02*
X11364200Y-5374400D01*
X11567400Y-9611600D02*
X11597400Y-9641600D01*
X11597400Y-9611600D02*
X11567400Y-9641600D01*
X11567400Y-10322800D02*
X11597400Y-10352800D01*
X11597400Y-10322800D02*
X11567400Y-10352800D01*
X11567400Y-10475200D02*
X11597400Y-10505200D01*
X11597400Y-10475200D02*
X11567400Y-10505200D01*
X11567400Y-11516600D02*
X11597400Y-11546600D01*
X11597400Y-11516600D02*
X11567400Y-11546600D01*
X11615365Y-5336075D02*
X11645365Y-5366075D01*
X11645365Y-5336075D02*
X11615365Y-5366075D01*
X11897600Y-5115800D02*
X11927600Y-5145800D01*
X11927600Y-5115800D02*
X11897600Y-5145800D01*
X12075400Y-6360400D02*
X12105400Y-6390400D01*
X12105400Y-6360400D02*
X12075400Y-6390400D01*
X12126200Y-7224000D02*
X12156200Y-7254000D01*
X12156200Y-7224000D02*
X12126200Y-7254000D01*
X12151600Y-6004800D02*
X12181600Y-6034800D01*
X12181600Y-6004800D02*
X12151600Y-6034800D01*
X12278600Y-8113000D02*
X12308600Y-8143000D01*
X12308600Y-8113000D02*
X12278600Y-8143000D01*
X12278600Y-10322800D02*
X12308600Y-10352800D01*
X12308600Y-10322800D02*
X12278600Y-10352800D01*
X12278600Y-10475200D02*
X12308600Y-10505200D01*
X12308600Y-10475200D02*
X12278600Y-10505200D01*
X12354800Y-9865600D02*
X12384800Y-9895600D01*
X12384800Y-9865600D02*
X12354800Y-9895600D01*
X12354800Y-15555200D02*
X12384800Y-15585200D01*
X12384800Y-15555200D02*
X12354800Y-15585200D01*
X12583400Y-9230600D02*
X12613400Y-9260600D01*
X12613400Y-9230600D02*
X12583400Y-9260600D01*
X12583400Y-12050000D02*
X12613400Y-12080000D01*
X12613400Y-12050000D02*
X12583400Y-12080000D01*
X12634200Y-6843000D02*
X12664200Y-6873000D01*
X12664200Y-6843000D02*
X12634200Y-6873000D01*
X12659600Y-7706600D02*
X12689600Y-7736600D01*
X12689600Y-7706600D02*
X12659600Y-7736600D01*
X12939000Y-10195800D02*
X12969000Y-10225800D01*
X12969000Y-10195800D02*
X12939000Y-10225800D01*
X13040600Y-10780000D02*
X13070600Y-10810000D01*
X13070600Y-10780000D02*
X13040600Y-10810000D01*
X13059083Y-10609117D02*
X13089083Y-10639117D01*
X13089083Y-10609117D02*
X13059083Y-10639117D01*
X13193000Y-10373600D02*
X13223000Y-10403600D01*
X13223000Y-10373600D02*
X13193000Y-10403600D01*
X13269200Y-8697200D02*
X13299200Y-8727200D01*
X13299200Y-8697200D02*
X13269200Y-8727200D01*
X13294600Y-8265400D02*
X13324600Y-8295400D01*
X13324600Y-8265400D02*
X13294600Y-8295400D01*
X13307300Y-6474700D02*
X13337300Y-6504700D01*
X13337300Y-6474700D02*
X13307300Y-6504700D01*
X13345400Y-7528800D02*
X13375400Y-7558800D01*
X13375400Y-7528800D02*
X13345400Y-7558800D01*
X13396200Y-6360400D02*
X13426200Y-6390400D01*
X13426200Y-6360400D02*
X13396200Y-6390400D01*
X13447000Y-5268200D02*
X13477000Y-5298200D01*
X13477000Y-5268200D02*
X13447000Y-5298200D01*
X13497800Y-11643600D02*
X13527800Y-11673600D01*
X13527800Y-11643600D02*
X13497800Y-11673600D01*
X13548600Y-4836400D02*
X13578600Y-4866400D01*
X13578600Y-4836400D02*
X13548600Y-4866400D01*
X13650200Y-6335000D02*
X13680200Y-6365000D01*
X13680200Y-6335000D02*
X13650200Y-6365000D01*
X13701000Y-10272000D02*
X13731000Y-10302000D01*
X13731000Y-10272000D02*
X13701000Y-10302000D01*
X13828000Y-10627600D02*
X13858000Y-10657600D01*
X13858000Y-10627600D02*
X13828000Y-10657600D01*
X13853400Y-9433800D02*
X13883400Y-9463800D01*
X13883400Y-9433800D02*
X13853400Y-9463800D01*
X13853400Y-9941800D02*
X13883400Y-9971800D01*
X13883400Y-9941800D02*
X13853400Y-9971800D01*
X13853400Y-10068800D02*
X13883400Y-10098800D01*
X13883400Y-10068800D02*
X13853400Y-10098800D01*
X13904200Y-7528800D02*
X13934200Y-7558800D01*
X13934200Y-7528800D02*
X13904200Y-7558800D01*
X14005800Y-6055600D02*
X14035800Y-6085600D01*
X14035800Y-6055600D02*
X14005800Y-6085600D01*
X14005800Y-8285017D02*
X14035800Y-8315017D01*
X14035800Y-8285017D02*
X14005800Y-8315017D01*
X14005800Y-8539017D02*
X14035800Y-8569017D01*
X14035800Y-8539017D02*
X14005800Y-8569017D01*
X14005800Y-11592800D02*
X14035800Y-11622800D01*
X14035800Y-11592800D02*
X14005800Y-11622800D01*
X14005800Y-11841017D02*
X14035800Y-11871017D01*
X14035800Y-11841017D02*
X14005800Y-11871017D01*
X14209000Y-6182600D02*
X14239000Y-6212600D01*
X14239000Y-6182600D02*
X14209000Y-6212600D01*
X14233497Y-10063017D02*
X14263497Y-10093017D01*
X14263497Y-10063017D02*
X14233497Y-10093017D01*
X14437600Y-4785600D02*
X14467600Y-4815600D01*
X14467600Y-4785600D02*
X14437600Y-4815600D01*
X14488400Y-9103600D02*
X14518400Y-9133600D01*
X14518400Y-9103600D02*
X14488400Y-9133600D01*
X14488400Y-9306800D02*
X14518400Y-9336800D01*
X14518400Y-9306800D02*
X14488400Y-9336800D01*
X14488400Y-9560800D02*
X14518400Y-9590800D01*
X14518400Y-9560800D02*
X14488400Y-9590800D01*
X14488400Y-9814800D02*
X14518400Y-9844800D01*
X14518400Y-9814800D02*
X14488400Y-9844800D01*
X14488400Y-10322800D02*
X14518400Y-10352800D01*
X14518400Y-10322800D02*
X14488400Y-10352800D01*
X14488400Y-10576800D02*
X14518400Y-10606800D01*
X14518400Y-10576800D02*
X14488400Y-10606800D01*
X14539200Y-8544800D02*
X14569200Y-8574800D01*
X14569200Y-8544800D02*
X14539200Y-8574800D01*
X14590000Y-11034000D02*
X14620000Y-11064000D01*
X14620000Y-11034000D02*
X14590000Y-11064000D01*
X14640800Y-8443200D02*
X14670800Y-8473200D01*
X14670800Y-8443200D02*
X14640800Y-8473200D01*
X14717000Y-10907000D02*
X14747000Y-10937000D01*
X14747000Y-10907000D02*
X14717000Y-10937000D01*
X14742400Y-8367000D02*
X14772400Y-8397000D01*
X14772400Y-8367000D02*
X14742400Y-8397000D01*
X14742400Y-11034000D02*
X14772400Y-11064000D01*
X14772400Y-11034000D02*
X14742400Y-11064000D01*
X14827497Y-8040286D02*
X14857497Y-8070286D01*
X14857497Y-8040286D02*
X14827497Y-8070286D01*
X15021800Y-10957800D02*
X15051800Y-10987800D01*
X15051800Y-10957800D02*
X15021800Y-10987800D01*
X15072600Y-8646400D02*
X15102600Y-8676400D01*
X15102600Y-8646400D02*
X15072600Y-8676400D01*
X15123400Y-8036800D02*
X15153400Y-8066800D01*
X15153400Y-8036800D02*
X15123400Y-8066800D01*
X15148800Y-6665200D02*
X15178800Y-6695200D01*
X15178800Y-6665200D02*
X15148800Y-6695200D01*
X15504400Y-6512800D02*
X15534400Y-6542800D01*
X15534400Y-6512800D02*
X15504400Y-6542800D01*
X15606000Y-7198600D02*
X15636000Y-7228600D01*
X15636000Y-7198600D02*
X15606000Y-7228600D01*
X15606000Y-9129000D02*
X15636000Y-9159000D01*
X15636000Y-9129000D02*
X15606000Y-9159000D01*
X15707600Y-10449800D02*
X15737600Y-10479800D01*
X15737600Y-10449800D02*
X15707600Y-10479800D01*
X15733000Y-7808200D02*
X15763000Y-7838200D01*
X15763000Y-7808200D02*
X15733000Y-7838200D01*
X15733000Y-10780000D02*
X15763000Y-10810000D01*
X15763000Y-10780000D02*
X15733000Y-10810000D01*
X15758400Y-11058017D02*
X15788400Y-11088017D01*
X15788400Y-11058017D02*
X15758400Y-11088017D01*
X15814983Y-9687800D02*
X15844983Y-9717800D01*
X15844983Y-9687800D02*
X15814983Y-9717800D01*
X15885400Y-7427200D02*
X15915400Y-7457200D01*
X15915400Y-7427200D02*
X15885400Y-7457200D01*
X15885400Y-8544800D02*
X15915400Y-8574800D01*
X15915400Y-8544800D02*
X15885400Y-8574800D01*
X15936200Y-7015017D02*
X15966200Y-7045017D01*
X15966200Y-7015017D02*
X15936200Y-7045017D01*
X15936200Y-10317017D02*
X15966200Y-10347017D01*
X15966200Y-10317017D02*
X15936200Y-10347017D01*
X15954683Y-8031017D02*
X15984683Y-8061017D01*
X15984683Y-8031017D02*
X15954683Y-8061017D01*
X15961600Y-5649200D02*
X15991600Y-5679200D01*
X15991600Y-5649200D02*
X15961600Y-5679200D01*
X16171497Y-11333017D02*
X16201497Y-11363017D01*
X16201497Y-11333017D02*
X16171497Y-11363017D01*
X16495000Y-7020800D02*
X16525000Y-7050800D01*
X16525000Y-7020800D02*
X16495000Y-7050800D01*
X16520400Y-9535400D02*
X16550400Y-9565400D01*
X16550400Y-9535400D02*
X16520400Y-9565400D01*
X16672800Y-7655800D02*
X16702800Y-7685800D01*
X16702800Y-7655800D02*
X16672800Y-7685800D01*
X16698200Y-9637000D02*
X16728200Y-9667000D01*
X16728200Y-9637000D02*
X16698200Y-9667000D01*
X16825200Y-11694400D02*
X16855200Y-11724400D01*
X16855200Y-11694400D02*
X16825200Y-11724400D01*
X16876000Y-9840200D02*
X16906000Y-9870200D01*
X16906000Y-9840200D02*
X16876000Y-9870200D01*
X16901400Y-8392400D02*
X16931400Y-8422400D01*
X16931400Y-8392400D02*
X16901400Y-8422400D01*
X17053800Y-5877800D02*
X17083800Y-5907800D01*
X17083800Y-5877800D02*
X17053800Y-5907800D01*
X17104600Y-6944600D02*
X17134600Y-6974600D01*
X17134600Y-6944600D02*
X17104600Y-6974600D01*
X17257000Y-4734800D02*
X17287000Y-4764800D01*
X17287000Y-4734800D02*
X17257000Y-4764800D01*
X17485600Y-6385800D02*
X17515600Y-6415800D01*
X17515600Y-6385800D02*
X17485600Y-6415800D01*
X17612600Y-5725400D02*
X17642600Y-5755400D01*
X17642600Y-5725400D02*
X17612600Y-5755400D01*
X17612600Y-9916400D02*
X17642600Y-9946400D01*
X17642600Y-9916400D02*
X17612600Y-9946400D01*
X17714200Y-7274800D02*
X17744200Y-7304800D01*
X17744200Y-7274800D02*
X17714200Y-7304800D01*
X17843020Y-8898580D02*
X17873020Y-8928580D01*
X17873020Y-8898580D02*
X17843020Y-8928580D01*
X17932000Y-5217400D02*
X17962000Y-5247400D01*
X17962000Y-5217400D02*
X17932000Y-5247400D01*
X18069800Y-9560800D02*
X18099800Y-9590800D01*
X18099800Y-9560800D02*
X18069800Y-9590800D01*
X18171400Y-5852400D02*
X18201400Y-5882400D01*
X18201400Y-5852400D02*
X18171400Y-5882400D01*
X18501600Y-6665200D02*
X18531600Y-6695200D01*
X18531600Y-6665200D02*
X18501600Y-6695200D01*
X18781000Y-8976600D02*
X18811000Y-9006600D01*
X18811000Y-8976600D02*
X18781000Y-9006600D01*
X19187400Y-8265400D02*
X19217400Y-8295400D01*
X19217400Y-8265400D02*
X19187400Y-8295400D01*
X19212800Y-8976600D02*
X19242800Y-9006600D01*
X19242800Y-8976600D02*
X19212800Y-9006600D01*
X19416000Y-7351000D02*
X19446000Y-7381000D01*
X19446000Y-7351000D02*
X19416000Y-7381000D01*
X19466800Y-8621000D02*
X19496800Y-8651000D01*
X19496800Y-8621000D02*
X19466800Y-8651000D01*
X19695400Y-6233400D02*
X19725400Y-6263400D01*
X19725400Y-6233400D02*
X19695400Y-6263400D01*
X19771600Y-7325600D02*
X19801600Y-7355600D01*
X19801600Y-7325600D02*
X19771600Y-7355600D01*
X19873200Y-5522200D02*
X19903200Y-5552200D01*
X19903200Y-5522200D02*
X19873200Y-5552200D01*
X20330400Y-6233400D02*
X20360400Y-6263400D01*
X20360400Y-6233400D02*
X20330400Y-6263400D01*
X20406600Y-9586200D02*
X20436600Y-9616200D01*
X20436600Y-9586200D02*
X20406600Y-9616200D01*
X20605950Y-5924750D02*
X20635950Y-5954750D01*
X20635950Y-5924750D02*
X20605950Y-5954750D01*
X20635200Y-7097000D02*
X20665200Y-7127000D01*
X20665200Y-7097000D02*
X20635200Y-7127000D01*
X20762200Y-5217400D02*
X20792200Y-5247400D01*
X20792200Y-5217400D02*
X20762200Y-5247400D01*
X21092400Y-8591750D02*
X21122400Y-8621750D01*
X21122400Y-8591750D02*
X21092400Y-8621750D01*
X21267020Y-7933400D02*
X21297020Y-7963400D01*
X21297020Y-7933400D02*
X21267020Y-7963400D01*
X21727400Y-6385800D02*
X21757400Y-6415800D01*
X21757400Y-6385800D02*
X21727400Y-6415800D01*
X21930600Y-9408400D02*
X21960600Y-9438400D01*
X21960600Y-9408400D02*
X21930600Y-9438400D01*
X22616400Y-6106400D02*
X22646400Y-6136400D01*
X22646400Y-6106400D02*
X22616400Y-6136400D01*
X22718000Y-7376400D02*
X22748000Y-7406400D01*
X22748000Y-7376400D02*
X22718000Y-7406400D01*
X22819600Y-8087600D02*
X22849600Y-8117600D01*
X22849600Y-8087600D02*
X22819600Y-8117600D01*
X6207200Y-6527800D02*
G75*
G02*
X6137200Y-6527800I-35000J0D01*
G01*
X6137200Y-6527800D02*
G75*
G02*
X6207200Y-6527800I35000J0D01*
G01*
X8772600Y-6375400D02*
G75*
G02*
X8702600Y-6375400I-35000J0D01*
G01*
X8702600Y-6375400D02*
G75*
G02*
X8772600Y-6375400I35000J0D01*
G01*
X9560000Y-6375400D02*
G75*
G02*
X9490000Y-6375400I-35000J0D01*
G01*
X9490000Y-6375400D02*
G75*
G02*
X9560000Y-6375400I35000J0D01*
G01*
X10220400Y-6375400D02*
G75*
G02*
X10150400Y-6375400I-35000J0D01*
G01*
X10150400Y-6375400D02*
G75*
G02*
X10220400Y-6375400I35000J0D01*
G01*
X12455600Y-14198600D02*
G75*
G02*
X12385600Y-14198600I-35000J0D01*
G01*
X12385600Y-14198600D02*
G75*
G02*
X12455600Y-14198600I35000J0D01*
G01*
X12608000Y-8128000D02*
G75*
G02*
X12538000Y-8128000I-35000J0D01*
G01*
X12538000Y-8128000D02*
G75*
G02*
X12608000Y-8128000I35000J0D01*
G01*
X12608000Y-8483600D02*
G75*
G02*
X12538000Y-8483600I-35000J0D01*
G01*
X12538000Y-8483600D02*
G75*
G02*
X12608000Y-8483600I35000J0D01*
G01*
X13217600Y-11252200D02*
G75*
G02*
X13147600Y-11252200I-35000J0D01*
G01*
X13147600Y-11252200D02*
G75*
G02*
X13217600Y-11252200I35000J0D01*
G01*
X13217600Y-11658600D02*
G75*
G02*
X13147600Y-11658600I-35000J0D01*
G01*
X13147600Y-11658600D02*
G75*
G02*
X13217600Y-11658600I35000J0D01*
G01*
X13649400Y-8915400D02*
G75*
G02*
X13579400Y-8915400I-35000J0D01*
G01*
X13579400Y-8915400D02*
G75*
G02*
X13649400Y-8915400I35000J0D01*
G01*
X13725600Y-11480800D02*
G75*
G02*
X13655600Y-11480800I-35000J0D01*
G01*
X13655600Y-11480800D02*
G75*
G02*
X13725600Y-11480800I35000J0D01*
G01*
X13827200Y-6070600D02*
G75*
G02*
X13757200Y-6070600I-35000J0D01*
G01*
X13757200Y-6070600D02*
G75*
G02*
X13827200Y-6070600I35000J0D01*
G01*
X14462200Y-5461000D02*
G75*
G02*
X14392200Y-5461000I-35000J0D01*
G01*
X14392200Y-5461000D02*
G75*
G02*
X14462200Y-5461000I35000J0D01*
G01*
X16545000Y-9321800D02*
G75*
G02*
X16475000Y-9321800I-35000J0D01*
G01*
X16475000Y-9321800D02*
G75*
G02*
X16545000Y-9321800I35000J0D01*
G01*
X16672000Y-5842000D02*
G75*
G02*
X16602000Y-5842000I-35000J0D01*
G01*
X16602000Y-5842000D02*
G75*
G02*
X16672000Y-5842000I35000J0D01*
G01*
X17510200Y-5207000D02*
G75*
G02*
X17440200Y-5207000I-35000J0D01*
G01*
X17440200Y-5207000D02*
G75*
G02*
X17510200Y-5207000I35000J0D01*
G01*
X17535600Y-5613400D02*
G75*
G02*
X17465600Y-5613400I-35000J0D01*
G01*
X17465600Y-5613400D02*
G75*
G02*
X17535600Y-5613400I35000J0D01*
G01*
X22641000Y-6680200D02*
G75*
G02*
X22571000Y-6680200I-35000J0D01*
G01*
X22571000Y-6680200D02*
G75*
G02*
X22641000Y-6680200I35000J0D01*
G01*
X22641000Y-7050200D02*
G75*
G02*
X22571000Y-7050200I-35000J0D01*
G01*
X22571000Y-7050200D02*
G75*
G02*
X22641000Y-7050200I35000J0D01*
G01*
X17085200Y-9938400D02*
X17085200Y-10013400D01*
X17047700Y-9975900D02*
X17122700Y-9975900D01*
X17085200Y-10138400D02*
X17085200Y-10213400D01*
X17047700Y-10175900D02*
X17122700Y-10175900D01*
X17085200Y-10538400D02*
X17085200Y-10613400D01*
X17047700Y-10575900D02*
X17122700Y-10575900D01*
X17085200Y-10738400D02*
X17085200Y-10813400D01*
X17047700Y-10775900D02*
X17122700Y-10775900D01*
X17085200Y-10938400D02*
X17085200Y-11013400D01*
X17047700Y-10975900D02*
X17122700Y-10975900D01*
X17085200Y-11138400D02*
X17085200Y-11213400D01*
X17047700Y-11175900D02*
X17122700Y-11175900D01*
X17085200Y-11338400D02*
X17085200Y-11413400D01*
X17047700Y-11375900D02*
X17122700Y-11375900D01*
X17085200Y-10338400D02*
X17085200Y-10413400D01*
X17047700Y-10375900D02*
X17122700Y-10375900D01*
X18578600Y-9538300D02*
X18578600Y-9613300D01*
X18541100Y-9575800D02*
X18616100Y-9575800D01*
X18778600Y-9538300D02*
X18778600Y-9613300D01*
X18741100Y-9575800D02*
X18816100Y-9575800D01*
X18978600Y-9538300D02*
X18978600Y-9613300D01*
X18941100Y-9575800D02*
X19016100Y-9575800D01*
X19178600Y-9538300D02*
X19178600Y-9613300D01*
X19141100Y-9575800D02*
X19216100Y-9575800D01*
X19378600Y-9538300D02*
X19378600Y-9613300D01*
X19341100Y-9575800D02*
X19416100Y-9575800D01*
X19578600Y-9538300D02*
X19578600Y-9613300D01*
X19541100Y-9575800D02*
X19616100Y-9575800D01*
X19778600Y-9538300D02*
X19778600Y-9613300D01*
X19741100Y-9575800D02*
X19816100Y-9575800D01*
X19978600Y-9538300D02*
X19978600Y-9613300D01*
X19941100Y-9575800D02*
X20016100Y-9575800D01*
X6022684Y-6225884D02*
X6022684Y-6169315D01*
X5966115Y-6169315D01*
X5966115Y-6225884D01*
X6022684Y-6225884D01*
X6784684Y-6225884D02*
X6784684Y-6169315D01*
X6728115Y-6169315D01*
X6728115Y-6225884D01*
X6784684Y-6225884D01*
X6987884Y-8892885D02*
X6987884Y-8836316D01*
X6931315Y-8836316D01*
X6931315Y-8892885D01*
X6987884Y-8892885D01*
X6987884Y-9654885D02*
X6987884Y-9598316D01*
X6931315Y-9598316D01*
X6931315Y-9654885D01*
X6987884Y-9654885D01*
X6987884Y-10797885D02*
X6987884Y-10741316D01*
X6931315Y-10741316D01*
X6931315Y-10797885D01*
X6987884Y-10797885D01*
X6987884Y-11559884D02*
X6987884Y-11503315D01*
X6931315Y-11503315D01*
X6931315Y-11559884D01*
X6987884Y-11559884D01*
X6987884Y-12702884D02*
X6987884Y-12646315D01*
X6931315Y-12646315D01*
X6931315Y-12702884D01*
X6987884Y-12702884D01*
X6987884Y-13464884D02*
X6987884Y-13408315D01*
X6931315Y-13408315D01*
X6931315Y-13464884D01*
X6987884Y-13464884D01*
X6987884Y-14607884D02*
X6987884Y-14551315D01*
X6931315Y-14551315D01*
X6931315Y-14607884D01*
X6987884Y-14607884D01*
X6987884Y-15369884D02*
X6987884Y-15313315D01*
X6931315Y-15313315D01*
X6931315Y-15369884D01*
X6987884Y-15369884D01*
X7597484Y-6429084D02*
X7597484Y-6372515D01*
X7540915Y-6372515D01*
X7540915Y-6429084D01*
X7597484Y-6429084D01*
X8359484Y-6429084D02*
X8359484Y-6372515D01*
X8302915Y-6372515D01*
X8302915Y-6429084D01*
X8359484Y-6429084D01*
X8867485Y-8892885D02*
X8867485Y-8836316D01*
X8810916Y-8836316D01*
X8810916Y-8892885D01*
X8867485Y-8892885D01*
X8867485Y-9654885D02*
X8867485Y-9598316D01*
X8810916Y-9598316D01*
X8810916Y-9654885D01*
X8867485Y-9654885D01*
X8867485Y-10797885D02*
X8867485Y-10741316D01*
X8810916Y-10741316D01*
X8810916Y-10797885D01*
X8867485Y-10797885D01*
X8867485Y-11559884D02*
X8867485Y-11503315D01*
X8810916Y-11503315D01*
X8810916Y-11559884D01*
X8867485Y-11559884D01*
X8867485Y-12702884D02*
X8867485Y-12646315D01*
X8810916Y-12646315D01*
X8810916Y-12702884D01*
X8867485Y-12702884D01*
X8867485Y-13464884D02*
X8867485Y-13408315D01*
X8810916Y-13408315D01*
X8810916Y-13464884D01*
X8867485Y-13464884D01*
X10594685Y-6403684D02*
X10594685Y-6347115D01*
X10538116Y-6347115D01*
X10538116Y-6403684D01*
X10594685Y-6403684D01*
X10797885Y-8892885D02*
X10797885Y-8836316D01*
X10741316Y-8836316D01*
X10741316Y-8892885D01*
X10797885Y-8892885D01*
X10797885Y-9654885D02*
X10797885Y-9598316D01*
X10741316Y-9598316D01*
X10741316Y-9654885D01*
X10797885Y-9654885D01*
X10797885Y-10797885D02*
X10797885Y-10741316D01*
X10741316Y-10741316D01*
X10741316Y-10797885D01*
X10797885Y-10797885D01*
X10797885Y-11559884D02*
X10797885Y-11503315D01*
X10741316Y-11503315D01*
X10741316Y-11559884D01*
X10797885Y-11559884D01*
X10797885Y-12702884D02*
X10797885Y-12646315D01*
X10741316Y-12646315D01*
X10741316Y-12702884D01*
X10797885Y-12702884D01*
X10797885Y-13464884D02*
X10797885Y-13408315D01*
X10741316Y-13408315D01*
X10741316Y-13464884D01*
X10797885Y-13464884D01*
X10797885Y-14607884D02*
X10797885Y-14551315D01*
X10741316Y-14551315D01*
X10741316Y-14607884D01*
X10797885Y-14607884D01*
X10797885Y-15369884D02*
X10797885Y-15313315D01*
X10741316Y-15313315D01*
X10741316Y-15369884D01*
X10797885Y-15369884D01*
X11356684Y-6403684D02*
X11356684Y-6347115D01*
X11300115Y-6347115D01*
X11300115Y-6403684D01*
X11356684Y-6403684D01*
X12677484Y-8892885D02*
X12677484Y-8836316D01*
X12620915Y-8836316D01*
X12620915Y-8892885D01*
X12677484Y-8892885D01*
X12677484Y-9654885D02*
X12677484Y-9598316D01*
X12620915Y-9598316D01*
X12620915Y-9654885D01*
X12677484Y-9654885D01*
X12677484Y-10797885D02*
X12677484Y-10741316D01*
X12620915Y-10741316D01*
X12620915Y-10797885D01*
X12677484Y-10797885D01*
X12677484Y-11559884D02*
X12677484Y-11503315D01*
X12620915Y-11503315D01*
X12620915Y-11559884D01*
X12677484Y-11559884D01*
X12677484Y-12702884D02*
X12677484Y-12646315D01*
X12620915Y-12646315D01*
X12620915Y-12702884D01*
X12677484Y-12702884D01*
X12677484Y-13464884D02*
X12677484Y-13408315D01*
X12620915Y-13408315D01*
X12620915Y-13464884D01*
X12677484Y-13464884D01*
X12880684Y-5438485D02*
X12880684Y-5381916D01*
X12824115Y-5381916D01*
X12824115Y-5438485D01*
X12880684Y-5438485D01*
X12880684Y-6200484D02*
X12880684Y-6143915D01*
X12824115Y-6143915D01*
X12824115Y-6200484D01*
X12880684Y-6200484D01*
X19027485Y-7724484D02*
X19027485Y-7667915D01*
X18970916Y-7667915D01*
X18970916Y-7724484D01*
X19027485Y-7724484D01*
X19027485Y-8486485D02*
X19027485Y-8429916D01*
X18970916Y-8429916D01*
X18970916Y-8486485D01*
X19027485Y-8486485D01*
X19484685Y-5006685D02*
X19484685Y-4950116D01*
X19428116Y-4950116D01*
X19428116Y-5006685D01*
X19484685Y-5006685D01*
X19484685Y-5768684D02*
X19484685Y-5712115D01*
X19428116Y-5712115D01*
X19428116Y-5768684D01*
X19484685Y-5768684D01*
X20907085Y-7724484D02*
X20907085Y-7667915D01*
X20850516Y-7667915D01*
X20850516Y-7724484D01*
X20907085Y-7724484D01*
X20907085Y-8486485D02*
X20907085Y-8429916D01*
X20850516Y-8429916D01*
X20850516Y-8486485D01*
X20907085Y-8486485D01*
X21516685Y-7089484D02*
X21516685Y-7032915D01*
X21460116Y-7032915D01*
X21460116Y-7089484D01*
X21516685Y-7089484D01*
X22278685Y-7089484D02*
X22278685Y-7032915D01*
X22222116Y-7032915D01*
X22222116Y-7089484D01*
X22278685Y-7089484D01*
X22329485Y-5006685D02*
X22329485Y-4950116D01*
X22272916Y-4950116D01*
X22272916Y-5006685D01*
X22329485Y-5006685D01*
X22329485Y-5768684D02*
X22329485Y-5712115D01*
X22272916Y-5712115D01*
X22272916Y-5768684D01*
X22329485Y-5768684D01*
X22837484Y-7724484D02*
X22837484Y-7667915D01*
X22780915Y-7667915D01*
X22780915Y-7724484D01*
X22837484Y-7724484D01*
X22837484Y-8486485D02*
X22837484Y-8429916D01*
X22780915Y-8429916D01*
X22780915Y-8486485D01*
X22837484Y-8486485D01*
X20955000Y-9598650D02*
X21002500Y-9551150D01*
X20955000Y-9503650D01*
X20907500Y-9551150D01*
X20955000Y-9598650D01*
X21205000Y-9598650D02*
X21252500Y-9551150D01*
X21205000Y-9503650D01*
X21157500Y-9551150D01*
X21205000Y-9598650D01*
X21455000Y-9598650D02*
X21502500Y-9551150D01*
X21455000Y-9503650D01*
X21407500Y-9551150D01*
X21455000Y-9598650D01*
X5394500Y-5047500D02*
X5494500Y-5147500D01*
X5494500Y-5047500D02*
X5394500Y-5147500D01*
X5494500Y-5097500D02*
G75*
G02*
X5394500Y-5097500I-50000J0D01*
G01*
X5394500Y-5097500D02*
G75*
G02*
X5494500Y-5097500I50000J0D01*
G01*
X5394500Y-5297500D02*
X5494500Y-5397500D01*
X5494500Y-5297500D02*
X5394500Y-5397500D01*
X5494500Y-5347500D02*
G75*
G02*
X5394500Y-5347500I-50000J0D01*
G01*
X5394500Y-5347500D02*
G75*
G02*
X5494500Y-5347500I50000J0D01*
G01*
X5394500Y-5547500D02*
X5494500Y-5647500D01*
X5494500Y-5547500D02*
X5394500Y-5647500D01*
X5494500Y-5597500D02*
G75*
G02*
X5394500Y-5597500I-50000J0D01*
G01*
X5394500Y-5597500D02*
G75*
G02*
X5494500Y-5597500I50000J0D01*
G01*
X6844500Y-5047500D02*
X6944500Y-5147500D01*
X6944500Y-5047500D02*
X6844500Y-5147500D01*
X6944500Y-5097500D02*
G75*
G02*
X6844500Y-5097500I-50000J0D01*
G01*
X6844500Y-5097500D02*
G75*
G02*
X6944500Y-5097500I50000J0D01*
G01*
X6844500Y-5547500D02*
X6944500Y-5647500D01*
X6944500Y-5547500D02*
X6844500Y-5647500D01*
X6944500Y-5597500D02*
G75*
G02*
X6844500Y-5597500I-50000J0D01*
G01*
X6844500Y-5597500D02*
G75*
G02*
X6944500Y-5597500I50000J0D01*
G01*
X7297400Y-4916500D02*
X7397400Y-5016500D01*
X7397400Y-4916500D02*
X7297400Y-5016500D01*
X7397400Y-4966500D02*
G75*
G02*
X7297400Y-4966500I-50000J0D01*
G01*
X7297400Y-4966500D02*
G75*
G02*
X7397400Y-4966500I50000J0D01*
G01*
X7297400Y-5170500D02*
X7397400Y-5270500D01*
X7397400Y-5170500D02*
X7297400Y-5270500D01*
X7397400Y-5220500D02*
G75*
G02*
X7297400Y-5220500I-50000J0D01*
G01*
X7297400Y-5220500D02*
G75*
G02*
X7397400Y-5220500I50000J0D01*
G01*
X7297400Y-5424500D02*
X7397400Y-5524500D01*
X7397400Y-5424500D02*
X7297400Y-5524500D01*
X7397400Y-5474500D02*
G75*
G02*
X7297400Y-5474500I-50000J0D01*
G01*
X7297400Y-5474500D02*
G75*
G02*
X7397400Y-5474500I50000J0D01*
G01*
X7297400Y-5678500D02*
X7397400Y-5778500D01*
X7397400Y-5678500D02*
X7297400Y-5778500D01*
X7397400Y-5728500D02*
G75*
G02*
X7297400Y-5728500I-50000J0D01*
G01*
X7297400Y-5728500D02*
G75*
G02*
X7397400Y-5728500I50000J0D01*
G01*
X11047600Y-5055400D02*
X11147600Y-5155400D01*
X11147600Y-5055400D02*
X11047600Y-5155400D01*
X11147600Y-5105400D02*
G75*
G02*
X11047600Y-5105400I-50000J0D01*
G01*
X11047600Y-5105400D02*
G75*
G02*
X11147600Y-5105400I50000J0D01*
G01*
X11047600Y-5305400D02*
X11147600Y-5405400D01*
X11147600Y-5305400D02*
X11047600Y-5405400D01*
X11147600Y-5355400D02*
G75*
G02*
X11047600Y-5355400I-50000J0D01*
G01*
X11047600Y-5355400D02*
G75*
G02*
X11147600Y-5355400I50000J0D01*
G01*
X11047600Y-5555400D02*
X11147600Y-5655400D01*
X11147600Y-5555400D02*
X11047600Y-5655400D01*
X11147600Y-5605400D02*
G75*
G02*
X11047600Y-5605400I-50000J0D01*
G01*
X11047600Y-5605400D02*
G75*
G02*
X11147600Y-5605400I50000J0D01*
G01*
X12497600Y-5055400D02*
X12597600Y-5155400D01*
X12597600Y-5055400D02*
X12497600Y-5155400D01*
X12597600Y-5105400D02*
G75*
G02*
X12497600Y-5105400I-50000J0D01*
G01*
X12497600Y-5105400D02*
G75*
G02*
X12597600Y-5105400I50000J0D01*
G01*
X12497600Y-5555400D02*
X12597600Y-5655400D01*
X12597600Y-5555400D02*
X12497600Y-5655400D01*
X12597600Y-5605400D02*
G75*
G02*
X12497600Y-5605400I-50000J0D01*
G01*
X12497600Y-5605400D02*
G75*
G02*
X12597600Y-5605400I50000J0D01*
G01*
X13260600Y-5470000D02*
X13360600Y-5570000D01*
X13360600Y-5470000D02*
X13260600Y-5570000D01*
X13360600Y-5520000D02*
G75*
G02*
X13260600Y-5520000I-50000J0D01*
G01*
X13260600Y-5520000D02*
G75*
G02*
X13360600Y-5520000I50000J0D01*
G01*
X13514600Y-5470000D02*
X13614600Y-5570000D01*
X13614600Y-5470000D02*
X13514600Y-5570000D01*
X13614600Y-5520000D02*
G75*
G02*
X13514600Y-5520000I-50000J0D01*
G01*
X13514600Y-5520000D02*
G75*
G02*
X13614600Y-5520000I50000J0D01*
G01*
X13768600Y-5470000D02*
X13868600Y-5570000D01*
X13868600Y-5470000D02*
X13768600Y-5570000D01*
X13868600Y-5520000D02*
G75*
G02*
X13768600Y-5520000I-50000J0D01*
G01*
X13768600Y-5520000D02*
G75*
G02*
X13868600Y-5520000I50000J0D01*
G01*
X15225907Y-9963017D02*
X15325907Y-10063017D01*
X15325907Y-9963017D02*
X15225907Y-10063017D01*
X15325907Y-10013017D02*
G75*
G02*
X15225907Y-10013017I-50000J0D01*
G01*
X15225907Y-10013017D02*
G75*
G02*
X15325907Y-10013017I50000J0D01*
G01*
X15479907Y-9963017D02*
X15579907Y-10063017D01*
X15579907Y-9963017D02*
X15479907Y-10063017D01*
X15579907Y-10013017D02*
G75*
G02*
X15479907Y-10013017I-50000J0D01*
G01*
X15479907Y-10013017D02*
G75*
G02*
X15579907Y-10013017I50000J0D01*
G01*
X15733907Y-9963017D02*
X15833907Y-10063017D01*
X15833907Y-9963017D02*
X15733907Y-10063017D01*
X15833907Y-10013017D02*
G75*
G02*
X15733907Y-10013017I-50000J0D01*
G01*
X15733907Y-10013017D02*
G75*
G02*
X15833907Y-10013017I50000J0D01*
G01*
X16257800Y-5470000D02*
X16357800Y-5570000D01*
X16357800Y-5470000D02*
X16257800Y-5570000D01*
X16357800Y-5520000D02*
G75*
G02*
X16257800Y-5520000I-50000J0D01*
G01*
X16257800Y-5520000D02*
G75*
G02*
X16357800Y-5520000I50000J0D01*
G01*
X16511800Y-5470000D02*
X16611800Y-5570000D01*
X16611800Y-5470000D02*
X16511800Y-5570000D01*
X16611800Y-5520000D02*
G75*
G02*
X16511800Y-5520000I-50000J0D01*
G01*
X16511800Y-5520000D02*
G75*
G02*
X16611800Y-5520000I50000J0D01*
G01*
X16765800Y-5470000D02*
X16865800Y-5570000D01*
X16865800Y-5470000D02*
X16765800Y-5570000D01*
X16865800Y-5520000D02*
G75*
G02*
X16765800Y-5520000I-50000J0D01*
G01*
X16765800Y-5520000D02*
G75*
G02*
X16865800Y-5520000I50000J0D01*
G01*
D12*
X6119500Y-4712500D02*
X6269500Y-4862500D01*
X6269500Y-4712500D02*
X6119500Y-4862500D01*
X6194500Y-4712500D02*
X6194500Y-4862500D01*
X6119500Y-4787500D02*
X6269500Y-4787500D01*
D11*
X6129500Y-4862500D02*
X6259500Y-4862500D01*
X6259500Y-4712500D02*
G75*
G02*
X6259500Y-4862500I0J-75000D01*
G01*
X6259500Y-4712500D02*
X6129500Y-4712500D01*
X6129500Y-4712500D02*
G75*
G03*
X6129500Y-4862500I0J-75000D01*
G01*
D12*
X6119500Y-5832500D02*
X6269500Y-5982500D01*
X6269500Y-5832500D02*
X6119500Y-5982500D01*
X6194500Y-5832500D02*
X6194500Y-5982500D01*
X6119500Y-5907500D02*
X6269500Y-5907500D01*
D11*
X6129500Y-5982500D02*
X6259500Y-5982500D01*
X6259500Y-5832500D02*
G75*
G02*
X6259500Y-5982500I0J-75000D01*
G01*
X6259500Y-5832500D02*
X6129500Y-5832500D01*
X6129500Y-5832500D02*
G75*
G03*
X6129500Y-5982500I0J-75000D01*
G01*
D12*
X11772600Y-4720400D02*
X11922600Y-4870400D01*
X11922600Y-4720400D02*
X11772600Y-4870400D01*
X11847600Y-4720400D02*
X11847600Y-4870400D01*
X11772600Y-4795400D02*
X11922600Y-4795400D01*
D11*
X11782600Y-4870400D02*
X11912600Y-4870400D01*
X11912600Y-4720400D02*
G75*
G02*
X11912600Y-4870400I0J-75000D01*
G01*
X11912600Y-4720400D02*
X11782600Y-4720400D01*
X11782600Y-4720400D02*
G75*
G03*
X11782600Y-4870400I0J-75000D01*
G01*
D12*
X11772600Y-5840400D02*
X11922600Y-5990400D01*
X11922600Y-5840400D02*
X11772600Y-5990400D01*
X11847600Y-5840400D02*
X11847600Y-5990400D01*
X11772600Y-5915400D02*
X11922600Y-5915400D01*
D11*
X11782600Y-5990400D02*
X11912600Y-5990400D01*
X11912600Y-5840400D02*
G75*
G02*
X11912600Y-5990400I0J-75000D01*
G01*
X11912600Y-5840400D02*
X11782600Y-5840400D01*
X11782600Y-5840400D02*
G75*
G03*
X11782600Y-5990400I0J-75000D01*
G01*
D13*
X5562500Y-8966100D02*
X5867500Y-9271100D01*
X5867500Y-8966100D02*
X5562500Y-9271100D01*
X5822835Y-9226435D02*
X5822835Y-9010765D01*
X5607165Y-9010765D01*
X5607165Y-9226435D01*
X5822835Y-9226435D01*
X5562500Y-10871100D02*
X5867500Y-11176100D01*
X5867500Y-10871100D02*
X5562500Y-11176100D01*
X5822835Y-11131435D02*
X5822835Y-10915765D01*
X5607165Y-10915765D01*
X5607165Y-11131435D01*
X5822835Y-11131435D01*
X5562500Y-12776100D02*
X5867500Y-13081100D01*
X5867500Y-12776100D02*
X5562500Y-13081100D01*
X5822835Y-13036435D02*
X5822835Y-12820765D01*
X5607165Y-12820765D01*
X5607165Y-13036435D01*
X5822835Y-13036435D01*
X5562500Y-14681100D02*
X5867500Y-14986100D01*
X5867500Y-14681100D02*
X5562500Y-14986100D01*
X5822835Y-14941435D02*
X5822835Y-14725765D01*
X5607165Y-14725765D01*
X5607165Y-14941435D01*
X5822835Y-14941435D01*
X6197500Y-8712100D02*
X6502500Y-9017100D01*
X6502500Y-8712100D02*
X6197500Y-9017100D01*
X6457835Y-8972435D02*
X6457835Y-8756765D01*
X6242165Y-8756765D01*
X6242165Y-8972435D01*
X6457835Y-8972435D01*
X6197500Y-10617100D02*
X6502500Y-10922100D01*
X6502500Y-10617100D02*
X6197500Y-10922100D01*
X6457835Y-10877435D02*
X6457835Y-10661765D01*
X6242165Y-10661765D01*
X6242165Y-10877435D01*
X6457835Y-10877435D01*
X6197500Y-12522100D02*
X6502500Y-12827100D01*
X6502500Y-12522100D02*
X6197500Y-12827100D01*
X6457835Y-12782435D02*
X6457835Y-12566765D01*
X6242165Y-12566765D01*
X6242165Y-12782435D01*
X6457835Y-12782435D01*
X6197500Y-14427100D02*
X6502500Y-14732100D01*
X6502500Y-14427100D02*
X6197500Y-14732100D01*
X6457835Y-14687435D02*
X6457835Y-14471765D01*
X6242165Y-14471765D01*
X6242165Y-14687435D01*
X6457835Y-14687435D01*
X6515000Y-7061100D02*
X6820000Y-7366100D01*
X6820000Y-7061100D02*
X6515000Y-7366100D01*
X6775335Y-7321435D02*
X6775335Y-7105765D01*
X6559665Y-7105765D01*
X6559665Y-7321435D01*
X6775335Y-7321435D01*
X7150000Y-6807100D02*
X7455000Y-7112100D01*
X7455000Y-6807100D02*
X7150000Y-7112100D01*
X7410335Y-7067435D02*
X7410335Y-6851765D01*
X7194665Y-6851765D01*
X7194665Y-7067435D01*
X7410335Y-7067435D01*
X7467500Y-8966100D02*
X7772500Y-9271100D01*
X7772500Y-8966100D02*
X7467500Y-9271100D01*
X7727835Y-9226435D02*
X7727835Y-9010765D01*
X7512165Y-9010765D01*
X7512165Y-9226435D01*
X7727835Y-9226435D01*
X7467500Y-10871100D02*
X7772500Y-11176100D01*
X7772500Y-10871100D02*
X7467500Y-11176100D01*
X7727835Y-11131435D02*
X7727835Y-10915765D01*
X7512165Y-10915765D01*
X7512165Y-11131435D01*
X7727835Y-11131435D01*
X7467500Y-12776100D02*
X7772500Y-13081100D01*
X7772500Y-12776100D02*
X7467500Y-13081100D01*
X7727835Y-13036435D02*
X7727835Y-12820765D01*
X7512165Y-12820765D01*
X7512165Y-13036435D01*
X7727835Y-13036435D01*
X8102500Y-8712100D02*
X8407500Y-9017100D01*
X8407500Y-8712100D02*
X8102500Y-9017100D01*
X8362835Y-8972435D02*
X8362835Y-8756765D01*
X8147165Y-8756765D01*
X8147165Y-8972435D01*
X8362835Y-8972435D01*
X8102500Y-10617100D02*
X8407500Y-10922100D01*
X8407500Y-10617100D02*
X8102500Y-10922100D01*
X8362835Y-10877435D02*
X8362835Y-10661765D01*
X8147165Y-10661765D01*
X8147165Y-10877435D01*
X8362835Y-10877435D01*
X8102500Y-12522100D02*
X8407500Y-12827100D01*
X8407500Y-12522100D02*
X8102500Y-12827100D01*
X8362835Y-12782435D02*
X8362835Y-12566765D01*
X8147165Y-12566765D01*
X8147165Y-12782435D01*
X8362835Y-12782435D01*
X9372500Y-8966100D02*
X9677500Y-9271100D01*
X9677500Y-8966100D02*
X9372500Y-9271100D01*
X9632835Y-9226435D02*
X9632835Y-9010765D01*
X9417165Y-9010765D01*
X9417165Y-9226435D01*
X9632835Y-9226435D01*
X9372500Y-10871100D02*
X9677500Y-11176100D01*
X9677500Y-10871100D02*
X9372500Y-11176100D01*
X9632835Y-11131435D02*
X9632835Y-10915765D01*
X9417165Y-10915765D01*
X9417165Y-11131435D01*
X9632835Y-11131435D01*
X9372500Y-12776100D02*
X9677500Y-13081100D01*
X9677500Y-12776100D02*
X9372500Y-13081100D01*
X9632835Y-13036435D02*
X9632835Y-12820765D01*
X9417165Y-12820765D01*
X9417165Y-13036435D01*
X9632835Y-13036435D01*
X9372500Y-14681100D02*
X9677500Y-14986100D01*
X9677500Y-14681100D02*
X9372500Y-14986100D01*
X9632835Y-14941435D02*
X9632835Y-14725765D01*
X9417165Y-14725765D01*
X9417165Y-14941435D01*
X9632835Y-14941435D01*
X10007500Y-8712100D02*
X10312500Y-9017100D01*
X10312500Y-8712100D02*
X10007500Y-9017100D01*
X10267835Y-8972435D02*
X10267835Y-8756765D01*
X10052165Y-8756765D01*
X10052165Y-8972435D01*
X10267835Y-8972435D01*
X10007500Y-10617100D02*
X10312500Y-10922100D01*
X10312500Y-10617100D02*
X10007500Y-10922100D01*
X10267835Y-10877435D02*
X10267835Y-10661765D01*
X10052165Y-10661765D01*
X10052165Y-10877435D01*
X10267835Y-10877435D01*
X10007500Y-12522100D02*
X10312500Y-12827100D01*
X10312500Y-12522100D02*
X10007500Y-12827100D01*
X10267835Y-12782435D02*
X10267835Y-12566765D01*
X10052165Y-12566765D01*
X10052165Y-12782435D01*
X10267835Y-12782435D01*
X10007500Y-14427100D02*
X10312500Y-14732100D01*
X10312500Y-14427100D02*
X10007500Y-14732100D01*
X10267835Y-14687435D02*
X10267835Y-14471765D01*
X10052165Y-14471765D01*
X10052165Y-14687435D01*
X10267835Y-14687435D01*
X10325000Y-7061100D02*
X10630000Y-7366100D01*
X10630000Y-7061100D02*
X10325000Y-7366100D01*
X10585335Y-7321435D02*
X10585335Y-7105765D01*
X10369665Y-7105765D01*
X10369665Y-7321435D01*
X10585335Y-7321435D01*
X10960000Y-6807100D02*
X11265000Y-7112100D01*
X11265000Y-6807100D02*
X10960000Y-7112100D01*
X11220335Y-7067435D02*
X11220335Y-6851765D01*
X11004665Y-6851765D01*
X11004665Y-7067435D01*
X11220335Y-7067435D01*
X11277500Y-8966100D02*
X11582500Y-9271100D01*
X11582500Y-8966100D02*
X11277500Y-9271100D01*
X11537835Y-9226435D02*
X11537835Y-9010765D01*
X11322165Y-9010765D01*
X11322165Y-9226435D01*
X11537835Y-9226435D01*
X11277500Y-10871100D02*
X11582500Y-11176100D01*
X11582500Y-10871100D02*
X11277500Y-11176100D01*
X11537835Y-11131435D02*
X11537835Y-10915765D01*
X11322165Y-10915765D01*
X11322165Y-11131435D01*
X11537835Y-11131435D01*
X11277500Y-12776100D02*
X11582500Y-13081100D01*
X11582500Y-12776100D02*
X11277500Y-13081100D01*
X11537835Y-13036435D02*
X11537835Y-12820765D01*
X11322165Y-12820765D01*
X11322165Y-13036435D01*
X11537835Y-13036435D01*
X11912500Y-8712100D02*
X12217500Y-9017100D01*
X12217500Y-8712100D02*
X11912500Y-9017100D01*
X12172835Y-8972435D02*
X12172835Y-8756765D01*
X11957165Y-8756765D01*
X11957165Y-8972435D01*
X12172835Y-8972435D01*
X11912500Y-10617100D02*
X12217500Y-10922100D01*
X12217500Y-10617100D02*
X11912500Y-10922100D01*
X12172835Y-10877435D02*
X12172835Y-10661765D01*
X11957165Y-10661765D01*
X11957165Y-10877435D01*
X12172835Y-10877435D01*
X11912500Y-12522100D02*
X12217500Y-12827100D01*
X12217500Y-12522100D02*
X11912500Y-12827100D01*
X12172835Y-12782435D02*
X12172835Y-12566765D01*
X11957165Y-12566765D01*
X11957165Y-12782435D01*
X12172835Y-12782435D01*
X17597020Y-7795900D02*
X17902020Y-8100900D01*
X17902020Y-7795900D02*
X17597020Y-8100900D01*
X17857355Y-8056235D02*
X17857355Y-7840565D01*
X17641685Y-7840565D01*
X17641685Y-8056235D01*
X17857355Y-8056235D01*
X18072000Y-5079900D02*
X18377000Y-5384900D01*
X18377000Y-5079900D02*
X18072000Y-5384900D01*
X18332335Y-5340235D02*
X18332335Y-5124565D01*
X18116665Y-5124565D01*
X18116665Y-5340235D01*
X18332335Y-5340235D01*
X18232020Y-7541900D02*
X18537020Y-7846900D01*
X18537020Y-7541900D02*
X18232020Y-7846900D01*
X18492355Y-7802235D02*
X18492355Y-7586565D01*
X18276685Y-7586565D01*
X18276685Y-7802235D01*
X18492355Y-7802235D01*
X18707000Y-4825900D02*
X19012000Y-5130900D01*
X19012000Y-4825900D02*
X18707000Y-5130900D01*
X18967335Y-5086235D02*
X18967335Y-4870565D01*
X18751665Y-4870565D01*
X18751665Y-5086235D01*
X18967335Y-5086235D01*
X19502020Y-7795900D02*
X19807020Y-8100900D01*
X19807020Y-7795900D02*
X19502020Y-8100900D01*
X19762355Y-8056235D02*
X19762355Y-7840565D01*
X19546685Y-7840565D01*
X19546685Y-8056235D01*
X19762355Y-8056235D01*
X20137020Y-7541900D02*
X20442020Y-7846900D01*
X20442020Y-7541900D02*
X20137020Y-7846900D01*
X20397355Y-7802235D02*
X20397355Y-7586565D01*
X20181685Y-7586565D01*
X20181685Y-7802235D01*
X20397355Y-7802235D01*
X20929500Y-5079900D02*
X21234500Y-5384900D01*
X21234500Y-5079900D02*
X20929500Y-5384900D01*
X21189835Y-5340235D02*
X21189835Y-5124565D01*
X20974165Y-5124565D01*
X20974165Y-5340235D01*
X21189835Y-5340235D01*
X21407020Y-7795900D02*
X21712020Y-8100900D01*
X21712020Y-7795900D02*
X21407020Y-8100900D01*
X21667355Y-8056235D02*
X21667355Y-7840565D01*
X21451685Y-7840565D01*
X21451685Y-8056235D01*
X21667355Y-8056235D01*
X21564500Y-4825900D02*
X21869500Y-5130900D01*
X21869500Y-4825900D02*
X21564500Y-5130900D01*
X21824835Y-5086235D02*
X21824835Y-4870565D01*
X21609165Y-4870565D01*
X21609165Y-5086235D01*
X21824835Y-5086235D01*
X22042020Y-7541900D02*
X22347020Y-7846900D01*
X22347020Y-7541900D02*
X22042020Y-7846900D01*
X22302355Y-7802235D02*
X22302355Y-7586565D01*
X22086685Y-7586565D01*
X22086685Y-7802235D01*
X22302355Y-7802235D01*
D14*
X5224800Y-6240800D02*
X5544800Y-6560800D01*
X5544800Y-6240800D02*
X5224800Y-6560800D01*
X5384800Y-6560800D02*
X5544800Y-6400800D01*
X5384800Y-6240800D01*
X5224800Y-6400800D01*
X5384800Y-6560800D01*
X8577600Y-14343400D02*
X8897600Y-14663400D01*
X8897600Y-14343400D02*
X8577600Y-14663400D01*
X8737600Y-14663400D02*
X8897600Y-14503400D01*
X8737600Y-14343400D01*
X8577600Y-14503400D01*
X8737600Y-14663400D01*
X8806200Y-7104400D02*
X9126200Y-7424400D01*
X9126200Y-7104400D02*
X8806200Y-7424400D01*
X8966200Y-7424400D02*
X9126200Y-7264400D01*
X8966200Y-7104400D01*
X8806200Y-7264400D01*
X8966200Y-7424400D01*
X16045200Y-5936000D02*
X16365200Y-6256000D01*
X16365200Y-5936000D02*
X16045200Y-6256000D01*
X16205200Y-6256000D02*
X16365200Y-6096000D01*
X16205200Y-5936000D01*
X16045200Y-6096000D01*
X16205200Y-6256000D01*
X19906000Y-4920000D02*
X20226000Y-5240000D01*
X20226000Y-4920000D02*
X19906000Y-5240000D01*
X20066000Y-5240000D02*
X20226000Y-5080000D01*
X20066000Y-4920000D01*
X19906000Y-5080000D01*
X20066000Y-5240000D01*
X22318983Y-9457260D02*
X22638983Y-9777260D01*
X22638983Y-9457260D02*
X22318983Y-9777260D01*
X22478983Y-9777260D02*
X22638983Y-9617260D01*
X22478983Y-9457260D01*
X22318983Y-9617260D01*
X22478983Y-9777260D01*
D10*
X5140277Y-16587189D02*
X5140277Y-16387189D01*
X5140277Y-16387189D02*
X5187896Y-16387189D01*
X5187896Y-16387189D02*
X5216467Y-16396712D01*
X5216467Y-16396712D02*
X5235515Y-16415760D01*
X5235515Y-16415760D02*
X5245039Y-16434808D01*
X5245039Y-16434808D02*
X5254563Y-16472903D01*
X5254563Y-16472903D02*
X5254563Y-16501474D01*
X5254563Y-16501474D02*
X5245039Y-16539570D01*
X5245039Y-16539570D02*
X5235515Y-16558617D01*
X5235515Y-16558617D02*
X5216467Y-16577665D01*
X5216467Y-16577665D02*
X5187896Y-16587189D01*
X5187896Y-16587189D02*
X5140277Y-16587189D01*
X5340277Y-16587189D02*
X5340277Y-16453855D01*
X5340277Y-16491951D02*
X5349801Y-16472903D01*
X5349801Y-16472903D02*
X5359324Y-16463379D01*
X5359324Y-16463379D02*
X5378372Y-16453855D01*
X5378372Y-16453855D02*
X5397420Y-16453855D01*
X5464086Y-16587189D02*
X5464086Y-16453855D01*
X5464086Y-16387189D02*
X5454563Y-16396712D01*
X5454563Y-16396712D02*
X5464086Y-16406236D01*
X5464086Y-16406236D02*
X5473610Y-16396712D01*
X5473610Y-16396712D02*
X5464086Y-16387189D01*
X5464086Y-16387189D02*
X5464086Y-16406236D01*
X5587896Y-16587189D02*
X5568848Y-16577665D01*
X5568848Y-16577665D02*
X5559324Y-16558617D01*
X5559324Y-16558617D02*
X5559324Y-16387189D01*
X5692658Y-16587189D02*
X5673610Y-16577665D01*
X5673610Y-16577665D02*
X5664086Y-16558617D01*
X5664086Y-16558617D02*
X5664086Y-16387189D01*
X5921229Y-16587189D02*
X5921229Y-16387189D01*
X5921229Y-16387189D02*
X5987896Y-16530046D01*
X5987896Y-16530046D02*
X6054562Y-16387189D01*
X6054562Y-16387189D02*
X6054562Y-16587189D01*
X6235515Y-16587189D02*
X6235515Y-16482427D01*
X6235515Y-16482427D02*
X6225991Y-16463379D01*
X6225991Y-16463379D02*
X6206943Y-16453855D01*
X6206943Y-16453855D02*
X6168848Y-16453855D01*
X6168848Y-16453855D02*
X6149801Y-16463379D01*
X6235515Y-16577665D02*
X6216467Y-16587189D01*
X6216467Y-16587189D02*
X6168848Y-16587189D01*
X6168848Y-16587189D02*
X6149801Y-16577665D01*
X6149801Y-16577665D02*
X6140277Y-16558617D01*
X6140277Y-16558617D02*
X6140277Y-16539570D01*
X6140277Y-16539570D02*
X6149801Y-16520522D01*
X6149801Y-16520522D02*
X6168848Y-16510998D01*
X6168848Y-16510998D02*
X6216467Y-16510998D01*
X6216467Y-16510998D02*
X6235515Y-16501474D01*
X6330753Y-16453855D02*
X6330753Y-16653855D01*
X6330753Y-16463379D02*
X6349801Y-16453855D01*
X6349801Y-16453855D02*
X6387896Y-16453855D01*
X6387896Y-16453855D02*
X6406943Y-16463379D01*
X6406943Y-16463379D02*
X6416467Y-16472903D01*
X6416467Y-16472903D02*
X6425991Y-16491951D01*
X6425991Y-16491951D02*
X6425991Y-16549093D01*
X6425991Y-16549093D02*
X6416467Y-16568141D01*
X6416467Y-16568141D02*
X6406943Y-16577665D01*
X6406943Y-16577665D02*
X6387896Y-16587189D01*
X6387896Y-16587189D02*
X6349801Y-16587189D01*
X6349801Y-16587189D02*
X6330753Y-16577665D01*
X6511705Y-16568141D02*
X6521229Y-16577665D01*
X6521229Y-16577665D02*
X6511705Y-16587189D01*
X6511705Y-16587189D02*
X6502182Y-16577665D01*
X6502182Y-16577665D02*
X6511705Y-16568141D01*
X6511705Y-16568141D02*
X6511705Y-16587189D01*
X6511705Y-16463379D02*
X6521229Y-16472903D01*
X6521229Y-16472903D02*
X6511705Y-16482427D01*
X6511705Y-16482427D02*
X6502182Y-16472903D01*
X6502182Y-16472903D02*
X6511705Y-16463379D01*
X6511705Y-16463379D02*
X6511705Y-16482427D01*
D11*
X4849500Y-16900705D02*
X4879500Y-16930705D01*
X4879500Y-16900705D02*
X4849500Y-16930705D01*
D10*
X5178372Y-16807189D02*
X5197420Y-16807189D01*
X5197420Y-16807189D02*
X5216467Y-16816713D01*
X5216467Y-16816713D02*
X5225991Y-16826236D01*
X5225991Y-16826236D02*
X5235515Y-16845284D01*
X5235515Y-16845284D02*
X5245039Y-16883379D01*
X5245039Y-16883379D02*
X5245039Y-16930998D01*
X5245039Y-16930998D02*
X5235515Y-16969093D01*
X5235515Y-16969093D02*
X5225991Y-16988141D01*
X5225991Y-16988141D02*
X5216467Y-16997665D01*
X5216467Y-16997665D02*
X5197420Y-17007189D01*
X5197420Y-17007189D02*
X5178372Y-17007189D01*
X5178372Y-17007189D02*
X5159324Y-16997665D01*
X5159324Y-16997665D02*
X5149801Y-16988141D01*
X5149801Y-16988141D02*
X5140277Y-16969093D01*
X5140277Y-16969093D02*
X5130753Y-16930998D01*
X5130753Y-16930998D02*
X5130753Y-16883379D01*
X5130753Y-16883379D02*
X5140277Y-16845284D01*
X5140277Y-16845284D02*
X5149801Y-16826236D01*
X5149801Y-16826236D02*
X5159324Y-16816713D01*
X5159324Y-16816713D02*
X5178372Y-16807189D01*
X5330753Y-16988141D02*
X5340277Y-16997665D01*
X5340277Y-16997665D02*
X5330753Y-17007189D01*
X5330753Y-17007189D02*
X5321229Y-16997665D01*
X5321229Y-16997665D02*
X5330753Y-16988141D01*
X5330753Y-16988141D02*
X5330753Y-17007189D01*
X5406944Y-16807189D02*
X5530753Y-16807189D01*
X5530753Y-16807189D02*
X5464086Y-16883379D01*
X5464086Y-16883379D02*
X5492658Y-16883379D01*
X5492658Y-16883379D02*
X5511705Y-16892903D01*
X5511705Y-16892903D02*
X5521229Y-16902427D01*
X5521229Y-16902427D02*
X5530753Y-16921474D01*
X5530753Y-16921474D02*
X5530753Y-16969093D01*
X5530753Y-16969093D02*
X5521229Y-16988141D01*
X5521229Y-16988141D02*
X5511705Y-16997665D01*
X5511705Y-16997665D02*
X5492658Y-17007189D01*
X5492658Y-17007189D02*
X5435515Y-17007189D01*
X5435515Y-17007189D02*
X5416467Y-16997665D01*
X5416467Y-16997665D02*
X5406944Y-16988141D01*
X5654562Y-16807189D02*
X5673610Y-16807189D01*
X5673610Y-16807189D02*
X5692658Y-16816713D01*
X5692658Y-16816713D02*
X5702182Y-16826236D01*
X5702182Y-16826236D02*
X5711705Y-16845284D01*
X5711705Y-16845284D02*
X5721229Y-16883379D01*
X5721229Y-16883379D02*
X5721229Y-16930998D01*
X5721229Y-16930998D02*
X5711705Y-16969093D01*
X5711705Y-16969093D02*
X5702182Y-16988141D01*
X5702182Y-16988141D02*
X5692658Y-16997665D01*
X5692658Y-16997665D02*
X5673610Y-17007189D01*
X5673610Y-17007189D02*
X5654562Y-17007189D01*
X5654562Y-17007189D02*
X5635515Y-16997665D01*
X5635515Y-16997665D02*
X5625991Y-16988141D01*
X5625991Y-16988141D02*
X5616467Y-16969093D01*
X5616467Y-16969093D02*
X5606943Y-16930998D01*
X5606943Y-16930998D02*
X5606943Y-16883379D01*
X5606943Y-16883379D02*
X5616467Y-16845284D01*
X5616467Y-16845284D02*
X5625991Y-16826236D01*
X5625991Y-16826236D02*
X5635515Y-16816713D01*
X5635515Y-16816713D02*
X5654562Y-16807189D01*
X5845039Y-16807189D02*
X5864086Y-16807189D01*
X5864086Y-16807189D02*
X5883134Y-16816713D01*
X5883134Y-16816713D02*
X5892658Y-16826236D01*
X5892658Y-16826236D02*
X5902182Y-16845284D01*
X5902182Y-16845284D02*
X5911705Y-16883379D01*
X5911705Y-16883379D02*
X5911705Y-16930998D01*
X5911705Y-16930998D02*
X5902182Y-16969093D01*
X5902182Y-16969093D02*
X5892658Y-16988141D01*
X5892658Y-16988141D02*
X5883134Y-16997665D01*
X5883134Y-16997665D02*
X5864086Y-17007189D01*
X5864086Y-17007189D02*
X5845039Y-17007189D01*
X5845039Y-17007189D02*
X5825991Y-16997665D01*
X5825991Y-16997665D02*
X5816467Y-16988141D01*
X5816467Y-16988141D02*
X5806943Y-16969093D01*
X5806943Y-16969093D02*
X5797420Y-16930998D01*
X5797420Y-16930998D02*
X5797420Y-16883379D01*
X5797420Y-16883379D02*
X5806943Y-16845284D01*
X5806943Y-16845284D02*
X5816467Y-16826236D01*
X5816467Y-16826236D02*
X5825991Y-16816713D01*
X5825991Y-16816713D02*
X5845039Y-16807189D01*
X5997420Y-17007189D02*
X5997420Y-16873855D01*
X5997420Y-16892903D02*
X6006943Y-16883379D01*
X6006943Y-16883379D02*
X6025991Y-16873855D01*
X6025991Y-16873855D02*
X6054563Y-16873855D01*
X6054563Y-16873855D02*
X6073610Y-16883379D01*
X6073610Y-16883379D02*
X6083134Y-16902427D01*
X6083134Y-16902427D02*
X6083134Y-17007189D01*
X6083134Y-16902427D02*
X6092658Y-16883379D01*
X6092658Y-16883379D02*
X6111705Y-16873855D01*
X6111705Y-16873855D02*
X6140277Y-16873855D01*
X6140277Y-16873855D02*
X6159324Y-16883379D01*
X6159324Y-16883379D02*
X6168848Y-16902427D01*
X6168848Y-16902427D02*
X6168848Y-17007189D01*
X6264086Y-17007189D02*
X6264086Y-16873855D01*
X6264086Y-16892903D02*
X6273610Y-16883379D01*
X6273610Y-16883379D02*
X6292658Y-16873855D01*
X6292658Y-16873855D02*
X6321229Y-16873855D01*
X6321229Y-16873855D02*
X6340277Y-16883379D01*
X6340277Y-16883379D02*
X6349801Y-16902427D01*
X6349801Y-16902427D02*
X6349801Y-17007189D01*
X6349801Y-16902427D02*
X6359324Y-16883379D01*
X6359324Y-16883379D02*
X6378372Y-16873855D01*
X6378372Y-16873855D02*
X6406943Y-16873855D01*
X6406943Y-16873855D02*
X6425991Y-16883379D01*
X6425991Y-16883379D02*
X6435515Y-16902427D01*
X6435515Y-16902427D02*
X6435515Y-17007189D01*
X6825991Y-16797665D02*
X6654563Y-17054808D01*
X7083134Y-16807189D02*
X7102182Y-16807189D01*
X7102182Y-16807189D02*
X7121229Y-16816713D01*
X7121229Y-16816713D02*
X7130753Y-16826236D01*
X7130753Y-16826236D02*
X7140277Y-16845284D01*
X7140277Y-16845284D02*
X7149801Y-16883379D01*
X7149801Y-16883379D02*
X7149801Y-16930998D01*
X7149801Y-16930998D02*
X7140277Y-16969093D01*
X7140277Y-16969093D02*
X7130753Y-16988141D01*
X7130753Y-16988141D02*
X7121229Y-16997665D01*
X7121229Y-16997665D02*
X7102182Y-17007189D01*
X7102182Y-17007189D02*
X7083134Y-17007189D01*
X7083134Y-17007189D02*
X7064086Y-16997665D01*
X7064086Y-16997665D02*
X7054563Y-16988141D01*
X7054563Y-16988141D02*
X7045039Y-16969093D01*
X7045039Y-16969093D02*
X7035515Y-16930998D01*
X7035515Y-16930998D02*
X7035515Y-16883379D01*
X7035515Y-16883379D02*
X7045039Y-16845284D01*
X7045039Y-16845284D02*
X7054563Y-16826236D01*
X7054563Y-16826236D02*
X7064086Y-16816713D01*
X7064086Y-16816713D02*
X7083134Y-16807189D01*
X7235515Y-16988141D02*
X7245039Y-16997665D01*
X7245039Y-16997665D02*
X7235515Y-17007189D01*
X7235515Y-17007189D02*
X7225991Y-16997665D01*
X7225991Y-16997665D02*
X7235515Y-16988141D01*
X7235515Y-16988141D02*
X7235515Y-17007189D01*
X7368848Y-16807189D02*
X7387896Y-16807189D01*
X7387896Y-16807189D02*
X7406944Y-16816713D01*
X7406944Y-16816713D02*
X7416467Y-16826236D01*
X7416467Y-16826236D02*
X7425991Y-16845284D01*
X7425991Y-16845284D02*
X7435515Y-16883379D01*
X7435515Y-16883379D02*
X7435515Y-16930998D01*
X7435515Y-16930998D02*
X7425991Y-16969093D01*
X7425991Y-16969093D02*
X7416467Y-16988141D01*
X7416467Y-16988141D02*
X7406944Y-16997665D01*
X7406944Y-16997665D02*
X7387896Y-17007189D01*
X7387896Y-17007189D02*
X7368848Y-17007189D01*
X7368848Y-17007189D02*
X7349801Y-16997665D01*
X7349801Y-16997665D02*
X7340277Y-16988141D01*
X7340277Y-16988141D02*
X7330753Y-16969093D01*
X7330753Y-16969093D02*
X7321229Y-16930998D01*
X7321229Y-16930998D02*
X7321229Y-16883379D01*
X7321229Y-16883379D02*
X7330753Y-16845284D01*
X7330753Y-16845284D02*
X7340277Y-16826236D01*
X7340277Y-16826236D02*
X7349801Y-16816713D01*
X7349801Y-16816713D02*
X7368848Y-16807189D01*
X7625991Y-17007189D02*
X7511706Y-17007189D01*
X7568848Y-17007189D02*
X7568848Y-16807189D01*
X7568848Y-16807189D02*
X7549801Y-16835760D01*
X7549801Y-16835760D02*
X7530753Y-16854808D01*
X7530753Y-16854808D02*
X7511706Y-16864332D01*
X7816467Y-17007189D02*
X7702182Y-17007189D01*
X7759325Y-17007189D02*
X7759325Y-16807189D01*
X7759325Y-16807189D02*
X7740277Y-16835760D01*
X7740277Y-16835760D02*
X7721229Y-16854808D01*
X7721229Y-16854808D02*
X7702182Y-16864332D01*
X7930753Y-16892903D02*
X7911706Y-16883379D01*
X7911706Y-16883379D02*
X7902182Y-16873855D01*
X7902182Y-16873855D02*
X7892658Y-16854808D01*
X7892658Y-16854808D02*
X7892658Y-16845284D01*
X7892658Y-16845284D02*
X7902182Y-16826236D01*
X7902182Y-16826236D02*
X7911706Y-16816713D01*
X7911706Y-16816713D02*
X7930753Y-16807189D01*
X7930753Y-16807189D02*
X7968848Y-16807189D01*
X7968848Y-16807189D02*
X7987896Y-16816713D01*
X7987896Y-16816713D02*
X7997420Y-16826236D01*
X7997420Y-16826236D02*
X8006944Y-16845284D01*
X8006944Y-16845284D02*
X8006944Y-16854808D01*
X8006944Y-16854808D02*
X7997420Y-16873855D01*
X7997420Y-16873855D02*
X7987896Y-16883379D01*
X7987896Y-16883379D02*
X7968848Y-16892903D01*
X7968848Y-16892903D02*
X7930753Y-16892903D01*
X7930753Y-16892903D02*
X7911706Y-16902427D01*
X7911706Y-16902427D02*
X7902182Y-16911951D01*
X7902182Y-16911951D02*
X7892658Y-16930998D01*
X7892658Y-16930998D02*
X7892658Y-16969093D01*
X7892658Y-16969093D02*
X7902182Y-16988141D01*
X7902182Y-16988141D02*
X7911706Y-16997665D01*
X7911706Y-16997665D02*
X7930753Y-17007189D01*
X7930753Y-17007189D02*
X7968848Y-17007189D01*
X7968848Y-17007189D02*
X7987896Y-16997665D01*
X7987896Y-16997665D02*
X7997420Y-16988141D01*
X7997420Y-16988141D02*
X8006944Y-16969093D01*
X8006944Y-16969093D02*
X8006944Y-16930998D01*
X8006944Y-16930998D02*
X7997420Y-16911951D01*
X7997420Y-16911951D02*
X7987896Y-16902427D01*
X7987896Y-16902427D02*
X7968848Y-16892903D01*
X8083134Y-16807189D02*
X8083134Y-16845284D01*
X8159325Y-16807189D02*
X8159325Y-16845284D01*
X8454563Y-17083379D02*
X8445039Y-17073855D01*
X8445039Y-17073855D02*
X8425991Y-17045284D01*
X8425991Y-17045284D02*
X8416468Y-17026236D01*
X8416468Y-17026236D02*
X8406944Y-16997665D01*
X8406944Y-16997665D02*
X8397420Y-16950046D01*
X8397420Y-16950046D02*
X8397420Y-16911951D01*
X8397420Y-16911951D02*
X8406944Y-16864332D01*
X8406944Y-16864332D02*
X8416468Y-16835760D01*
X8416468Y-16835760D02*
X8425991Y-16816713D01*
X8425991Y-16816713D02*
X8445039Y-16788141D01*
X8445039Y-16788141D02*
X8454563Y-16778617D01*
X8635515Y-17007189D02*
X8521230Y-17007189D01*
X8578372Y-17007189D02*
X8578372Y-16807189D01*
X8578372Y-16807189D02*
X8559325Y-16835760D01*
X8559325Y-16835760D02*
X8540277Y-16854808D01*
X8540277Y-16854808D02*
X8521230Y-16864332D01*
X8702182Y-16807189D02*
X8835515Y-16807189D01*
X8835515Y-16807189D02*
X8749801Y-17007189D01*
X8940277Y-16892903D02*
X8921230Y-16883379D01*
X8921230Y-16883379D02*
X8911706Y-16873855D01*
X8911706Y-16873855D02*
X8902182Y-16854808D01*
X8902182Y-16854808D02*
X8902182Y-16845284D01*
X8902182Y-16845284D02*
X8911706Y-16826236D01*
X8911706Y-16826236D02*
X8921230Y-16816713D01*
X8921230Y-16816713D02*
X8940277Y-16807189D01*
X8940277Y-16807189D02*
X8978372Y-16807189D01*
X8978372Y-16807189D02*
X8997420Y-16816713D01*
X8997420Y-16816713D02*
X9006944Y-16826236D01*
X9006944Y-16826236D02*
X9016468Y-16845284D01*
X9016468Y-16845284D02*
X9016468Y-16854808D01*
X9016468Y-16854808D02*
X9006944Y-16873855D01*
X9006944Y-16873855D02*
X8997420Y-16883379D01*
X8997420Y-16883379D02*
X8978372Y-16892903D01*
X8978372Y-16892903D02*
X8940277Y-16892903D01*
X8940277Y-16892903D02*
X8921230Y-16902427D01*
X8921230Y-16902427D02*
X8911706Y-16911951D01*
X8911706Y-16911951D02*
X8902182Y-16930998D01*
X8902182Y-16930998D02*
X8902182Y-16969093D01*
X8902182Y-16969093D02*
X8911706Y-16988141D01*
X8911706Y-16988141D02*
X8921230Y-16997665D01*
X8921230Y-16997665D02*
X8940277Y-17007189D01*
X8940277Y-17007189D02*
X8978372Y-17007189D01*
X8978372Y-17007189D02*
X8997420Y-16997665D01*
X8997420Y-16997665D02*
X9006944Y-16988141D01*
X9006944Y-16988141D02*
X9016468Y-16969093D01*
X9016468Y-16969093D02*
X9016468Y-16930998D01*
X9016468Y-16930998D02*
X9006944Y-16911951D01*
X9006944Y-16911951D02*
X8997420Y-16902427D01*
X8997420Y-16902427D02*
X8978372Y-16892903D01*
X9254563Y-17007189D02*
X9254563Y-16807189D01*
X9340277Y-17007189D02*
X9340277Y-16902427D01*
X9340277Y-16902427D02*
X9330753Y-16883379D01*
X9330753Y-16883379D02*
X9311706Y-16873855D01*
X9311706Y-16873855D02*
X9283134Y-16873855D01*
X9283134Y-16873855D02*
X9264087Y-16883379D01*
X9264087Y-16883379D02*
X9254563Y-16892903D01*
X9464087Y-17007189D02*
X9445039Y-16997665D01*
X9445039Y-16997665D02*
X9435515Y-16988141D01*
X9435515Y-16988141D02*
X9425992Y-16969093D01*
X9425992Y-16969093D02*
X9425992Y-16911951D01*
X9425992Y-16911951D02*
X9435515Y-16892903D01*
X9435515Y-16892903D02*
X9445039Y-16883379D01*
X9445039Y-16883379D02*
X9464087Y-16873855D01*
X9464087Y-16873855D02*
X9492658Y-16873855D01*
X9492658Y-16873855D02*
X9511706Y-16883379D01*
X9511706Y-16883379D02*
X9521230Y-16892903D01*
X9521230Y-16892903D02*
X9530753Y-16911951D01*
X9530753Y-16911951D02*
X9530753Y-16969093D01*
X9530753Y-16969093D02*
X9521230Y-16988141D01*
X9521230Y-16988141D02*
X9511706Y-16997665D01*
X9511706Y-16997665D02*
X9492658Y-17007189D01*
X9492658Y-17007189D02*
X9464087Y-17007189D01*
X9645039Y-17007189D02*
X9625992Y-16997665D01*
X9625992Y-16997665D02*
X9616468Y-16978617D01*
X9616468Y-16978617D02*
X9616468Y-16807189D01*
X9797420Y-16997665D02*
X9778373Y-17007189D01*
X9778373Y-17007189D02*
X9740277Y-17007189D01*
X9740277Y-17007189D02*
X9721230Y-16997665D01*
X9721230Y-16997665D02*
X9711706Y-16978617D01*
X9711706Y-16978617D02*
X9711706Y-16902427D01*
X9711706Y-16902427D02*
X9721230Y-16883379D01*
X9721230Y-16883379D02*
X9740277Y-16873855D01*
X9740277Y-16873855D02*
X9778373Y-16873855D01*
X9778373Y-16873855D02*
X9797420Y-16883379D01*
X9797420Y-16883379D02*
X9806944Y-16902427D01*
X9806944Y-16902427D02*
X9806944Y-16921474D01*
X9806944Y-16921474D02*
X9711706Y-16940522D01*
X9883134Y-16997665D02*
X9902182Y-17007189D01*
X9902182Y-17007189D02*
X9940277Y-17007189D01*
X9940277Y-17007189D02*
X9959325Y-16997665D01*
X9959325Y-16997665D02*
X9968849Y-16978617D01*
X9968849Y-16978617D02*
X9968849Y-16969093D01*
X9968849Y-16969093D02*
X9959325Y-16950046D01*
X9959325Y-16950046D02*
X9940277Y-16940522D01*
X9940277Y-16940522D02*
X9911706Y-16940522D01*
X9911706Y-16940522D02*
X9892658Y-16930998D01*
X9892658Y-16930998D02*
X9883134Y-16911951D01*
X9883134Y-16911951D02*
X9883134Y-16902427D01*
X9883134Y-16902427D02*
X9892658Y-16883379D01*
X9892658Y-16883379D02*
X9911706Y-16873855D01*
X9911706Y-16873855D02*
X9940277Y-16873855D01*
X9940277Y-16873855D02*
X9959325Y-16883379D01*
X10035515Y-17083379D02*
X10045039Y-17073855D01*
X10045039Y-17073855D02*
X10064087Y-17045284D01*
X10064087Y-17045284D02*
X10073611Y-17026236D01*
X10073611Y-17026236D02*
X10083134Y-16997665D01*
X10083134Y-16997665D02*
X10092658Y-16950046D01*
X10092658Y-16950046D02*
X10092658Y-16911951D01*
X10092658Y-16911951D02*
X10083134Y-16864332D01*
X10083134Y-16864332D02*
X10073611Y-16835760D01*
X10073611Y-16835760D02*
X10064087Y-16816713D01*
X10064087Y-16816713D02*
X10045039Y-16788141D01*
X10045039Y-16788141D02*
X10035515Y-16778617D01*
D11*
X4879500Y-17179705D02*
G75*
G02*
X4809500Y-17179705I-35000J0D01*
G01*
X4809500Y-17179705D02*
G75*
G02*
X4879500Y-17179705I35000J0D01*
G01*
D10*
X5178372Y-17071189D02*
X5197420Y-17071189D01*
X5197420Y-17071189D02*
X5216467Y-17080713D01*
X5216467Y-17080713D02*
X5225991Y-17090236D01*
X5225991Y-17090236D02*
X5235515Y-17109284D01*
X5235515Y-17109284D02*
X5245039Y-17147379D01*
X5245039Y-17147379D02*
X5245039Y-17194998D01*
X5245039Y-17194998D02*
X5235515Y-17233093D01*
X5235515Y-17233093D02*
X5225991Y-17252141D01*
X5225991Y-17252141D02*
X5216467Y-17261665D01*
X5216467Y-17261665D02*
X5197420Y-17271189D01*
X5197420Y-17271189D02*
X5178372Y-17271189D01*
X5178372Y-17271189D02*
X5159324Y-17261665D01*
X5159324Y-17261665D02*
X5149801Y-17252141D01*
X5149801Y-17252141D02*
X5140277Y-17233093D01*
X5140277Y-17233093D02*
X5130753Y-17194998D01*
X5130753Y-17194998D02*
X5130753Y-17147379D01*
X5130753Y-17147379D02*
X5140277Y-17109284D01*
X5140277Y-17109284D02*
X5149801Y-17090236D01*
X5149801Y-17090236D02*
X5159324Y-17080713D01*
X5159324Y-17080713D02*
X5178372Y-17071189D01*
X5330753Y-17252141D02*
X5340277Y-17261665D01*
X5340277Y-17261665D02*
X5330753Y-17271189D01*
X5330753Y-17271189D02*
X5321229Y-17261665D01*
X5321229Y-17261665D02*
X5330753Y-17252141D01*
X5330753Y-17252141D02*
X5330753Y-17271189D01*
X5406944Y-17071189D02*
X5540277Y-17071189D01*
X5540277Y-17071189D02*
X5454563Y-17271189D01*
X5654562Y-17071189D02*
X5673610Y-17071189D01*
X5673610Y-17071189D02*
X5692658Y-17080713D01*
X5692658Y-17080713D02*
X5702182Y-17090236D01*
X5702182Y-17090236D02*
X5711705Y-17109284D01*
X5711705Y-17109284D02*
X5721229Y-17147379D01*
X5721229Y-17147379D02*
X5721229Y-17194998D01*
X5721229Y-17194998D02*
X5711705Y-17233093D01*
X5711705Y-17233093D02*
X5702182Y-17252141D01*
X5702182Y-17252141D02*
X5692658Y-17261665D01*
X5692658Y-17261665D02*
X5673610Y-17271189D01*
X5673610Y-17271189D02*
X5654562Y-17271189D01*
X5654562Y-17271189D02*
X5635515Y-17261665D01*
X5635515Y-17261665D02*
X5625991Y-17252141D01*
X5625991Y-17252141D02*
X5616467Y-17233093D01*
X5616467Y-17233093D02*
X5606943Y-17194998D01*
X5606943Y-17194998D02*
X5606943Y-17147379D01*
X5606943Y-17147379D02*
X5616467Y-17109284D01*
X5616467Y-17109284D02*
X5625991Y-17090236D01*
X5625991Y-17090236D02*
X5635515Y-17080713D01*
X5635515Y-17080713D02*
X5654562Y-17071189D01*
X5845039Y-17071189D02*
X5864086Y-17071189D01*
X5864086Y-17071189D02*
X5883134Y-17080713D01*
X5883134Y-17080713D02*
X5892658Y-17090236D01*
X5892658Y-17090236D02*
X5902182Y-17109284D01*
X5902182Y-17109284D02*
X5911705Y-17147379D01*
X5911705Y-17147379D02*
X5911705Y-17194998D01*
X5911705Y-17194998D02*
X5902182Y-17233093D01*
X5902182Y-17233093D02*
X5892658Y-17252141D01*
X5892658Y-17252141D02*
X5883134Y-17261665D01*
X5883134Y-17261665D02*
X5864086Y-17271189D01*
X5864086Y-17271189D02*
X5845039Y-17271189D01*
X5845039Y-17271189D02*
X5825991Y-17261665D01*
X5825991Y-17261665D02*
X5816467Y-17252141D01*
X5816467Y-17252141D02*
X5806943Y-17233093D01*
X5806943Y-17233093D02*
X5797420Y-17194998D01*
X5797420Y-17194998D02*
X5797420Y-17147379D01*
X5797420Y-17147379D02*
X5806943Y-17109284D01*
X5806943Y-17109284D02*
X5816467Y-17090236D01*
X5816467Y-17090236D02*
X5825991Y-17080713D01*
X5825991Y-17080713D02*
X5845039Y-17071189D01*
X5997420Y-17271189D02*
X5997420Y-17137855D01*
X5997420Y-17156903D02*
X6006943Y-17147379D01*
X6006943Y-17147379D02*
X6025991Y-17137855D01*
X6025991Y-17137855D02*
X6054563Y-17137855D01*
X6054563Y-17137855D02*
X6073610Y-17147379D01*
X6073610Y-17147379D02*
X6083134Y-17166427D01*
X6083134Y-17166427D02*
X6083134Y-17271189D01*
X6083134Y-17166427D02*
X6092658Y-17147379D01*
X6092658Y-17147379D02*
X6111705Y-17137855D01*
X6111705Y-17137855D02*
X6140277Y-17137855D01*
X6140277Y-17137855D02*
X6159324Y-17147379D01*
X6159324Y-17147379D02*
X6168848Y-17166427D01*
X6168848Y-17166427D02*
X6168848Y-17271189D01*
X6264086Y-17271189D02*
X6264086Y-17137855D01*
X6264086Y-17156903D02*
X6273610Y-17147379D01*
X6273610Y-17147379D02*
X6292658Y-17137855D01*
X6292658Y-17137855D02*
X6321229Y-17137855D01*
X6321229Y-17137855D02*
X6340277Y-17147379D01*
X6340277Y-17147379D02*
X6349801Y-17166427D01*
X6349801Y-17166427D02*
X6349801Y-17271189D01*
X6349801Y-17166427D02*
X6359324Y-17147379D01*
X6359324Y-17147379D02*
X6378372Y-17137855D01*
X6378372Y-17137855D02*
X6406943Y-17137855D01*
X6406943Y-17137855D02*
X6425991Y-17147379D01*
X6425991Y-17147379D02*
X6435515Y-17166427D01*
X6435515Y-17166427D02*
X6435515Y-17271189D01*
X6825991Y-17061665D02*
X6654563Y-17318808D01*
X7083134Y-17071189D02*
X7102182Y-17071189D01*
X7102182Y-17071189D02*
X7121229Y-17080713D01*
X7121229Y-17080713D02*
X7130753Y-17090236D01*
X7130753Y-17090236D02*
X7140277Y-17109284D01*
X7140277Y-17109284D02*
X7149801Y-17147379D01*
X7149801Y-17147379D02*
X7149801Y-17194998D01*
X7149801Y-17194998D02*
X7140277Y-17233093D01*
X7140277Y-17233093D02*
X7130753Y-17252141D01*
X7130753Y-17252141D02*
X7121229Y-17261665D01*
X7121229Y-17261665D02*
X7102182Y-17271189D01*
X7102182Y-17271189D02*
X7083134Y-17271189D01*
X7083134Y-17271189D02*
X7064086Y-17261665D01*
X7064086Y-17261665D02*
X7054563Y-17252141D01*
X7054563Y-17252141D02*
X7045039Y-17233093D01*
X7045039Y-17233093D02*
X7035515Y-17194998D01*
X7035515Y-17194998D02*
X7035515Y-17147379D01*
X7035515Y-17147379D02*
X7045039Y-17109284D01*
X7045039Y-17109284D02*
X7054563Y-17090236D01*
X7054563Y-17090236D02*
X7064086Y-17080713D01*
X7064086Y-17080713D02*
X7083134Y-17071189D01*
X7235515Y-17252141D02*
X7245039Y-17261665D01*
X7245039Y-17261665D02*
X7235515Y-17271189D01*
X7235515Y-17271189D02*
X7225991Y-17261665D01*
X7225991Y-17261665D02*
X7235515Y-17252141D01*
X7235515Y-17252141D02*
X7235515Y-17271189D01*
X7368848Y-17071189D02*
X7387896Y-17071189D01*
X7387896Y-17071189D02*
X7406944Y-17080713D01*
X7406944Y-17080713D02*
X7416467Y-17090236D01*
X7416467Y-17090236D02*
X7425991Y-17109284D01*
X7425991Y-17109284D02*
X7435515Y-17147379D01*
X7435515Y-17147379D02*
X7435515Y-17194998D01*
X7435515Y-17194998D02*
X7425991Y-17233093D01*
X7425991Y-17233093D02*
X7416467Y-17252141D01*
X7416467Y-17252141D02*
X7406944Y-17261665D01*
X7406944Y-17261665D02*
X7387896Y-17271189D01*
X7387896Y-17271189D02*
X7368848Y-17271189D01*
X7368848Y-17271189D02*
X7349801Y-17261665D01*
X7349801Y-17261665D02*
X7340277Y-17252141D01*
X7340277Y-17252141D02*
X7330753Y-17233093D01*
X7330753Y-17233093D02*
X7321229Y-17194998D01*
X7321229Y-17194998D02*
X7321229Y-17147379D01*
X7321229Y-17147379D02*
X7330753Y-17109284D01*
X7330753Y-17109284D02*
X7340277Y-17090236D01*
X7340277Y-17090236D02*
X7349801Y-17080713D01*
X7349801Y-17080713D02*
X7368848Y-17071189D01*
X7511706Y-17090236D02*
X7521229Y-17080713D01*
X7521229Y-17080713D02*
X7540277Y-17071189D01*
X7540277Y-17071189D02*
X7587896Y-17071189D01*
X7587896Y-17071189D02*
X7606944Y-17080713D01*
X7606944Y-17080713D02*
X7616467Y-17090236D01*
X7616467Y-17090236D02*
X7625991Y-17109284D01*
X7625991Y-17109284D02*
X7625991Y-17128332D01*
X7625991Y-17128332D02*
X7616467Y-17156903D01*
X7616467Y-17156903D02*
X7502182Y-17271189D01*
X7502182Y-17271189D02*
X7625991Y-17271189D01*
X7692658Y-17071189D02*
X7825991Y-17071189D01*
X7825991Y-17071189D02*
X7740277Y-17271189D01*
X7987896Y-17071189D02*
X7949801Y-17071189D01*
X7949801Y-17071189D02*
X7930753Y-17080713D01*
X7930753Y-17080713D02*
X7921229Y-17090236D01*
X7921229Y-17090236D02*
X7902182Y-17118808D01*
X7902182Y-17118808D02*
X7892658Y-17156903D01*
X7892658Y-17156903D02*
X7892658Y-17233093D01*
X7892658Y-17233093D02*
X7902182Y-17252141D01*
X7902182Y-17252141D02*
X7911706Y-17261665D01*
X7911706Y-17261665D02*
X7930753Y-17271189D01*
X7930753Y-17271189D02*
X7968848Y-17271189D01*
X7968848Y-17271189D02*
X7987896Y-17261665D01*
X7987896Y-17261665D02*
X7997420Y-17252141D01*
X7997420Y-17252141D02*
X8006944Y-17233093D01*
X8006944Y-17233093D02*
X8006944Y-17185474D01*
X8006944Y-17185474D02*
X7997420Y-17166427D01*
X7997420Y-17166427D02*
X7987896Y-17156903D01*
X7987896Y-17156903D02*
X7968848Y-17147379D01*
X7968848Y-17147379D02*
X7930753Y-17147379D01*
X7930753Y-17147379D02*
X7911706Y-17156903D01*
X7911706Y-17156903D02*
X7902182Y-17166427D01*
X7902182Y-17166427D02*
X7892658Y-17185474D01*
X8083134Y-17071189D02*
X8083134Y-17109284D01*
X8159325Y-17071189D02*
X8159325Y-17109284D01*
X8454563Y-17347379D02*
X8445039Y-17337855D01*
X8445039Y-17337855D02*
X8425991Y-17309284D01*
X8425991Y-17309284D02*
X8416468Y-17290236D01*
X8416468Y-17290236D02*
X8406944Y-17261665D01*
X8406944Y-17261665D02*
X8397420Y-17214046D01*
X8397420Y-17214046D02*
X8397420Y-17175951D01*
X8397420Y-17175951D02*
X8406944Y-17128332D01*
X8406944Y-17128332D02*
X8416468Y-17099760D01*
X8416468Y-17099760D02*
X8425991Y-17080713D01*
X8425991Y-17080713D02*
X8445039Y-17052141D01*
X8445039Y-17052141D02*
X8454563Y-17042617D01*
X8635515Y-17271189D02*
X8521230Y-17271189D01*
X8578372Y-17271189D02*
X8578372Y-17071189D01*
X8578372Y-17071189D02*
X8559325Y-17099760D01*
X8559325Y-17099760D02*
X8540277Y-17118808D01*
X8540277Y-17118808D02*
X8521230Y-17128332D01*
X8730753Y-17271189D02*
X8768849Y-17271189D01*
X8768849Y-17271189D02*
X8787896Y-17261665D01*
X8787896Y-17261665D02*
X8797420Y-17252141D01*
X8797420Y-17252141D02*
X8816468Y-17223570D01*
X8816468Y-17223570D02*
X8825991Y-17185474D01*
X8825991Y-17185474D02*
X8825991Y-17109284D01*
X8825991Y-17109284D02*
X8816468Y-17090236D01*
X8816468Y-17090236D02*
X8806944Y-17080713D01*
X8806944Y-17080713D02*
X8787896Y-17071189D01*
X8787896Y-17071189D02*
X8749801Y-17071189D01*
X8749801Y-17071189D02*
X8730753Y-17080713D01*
X8730753Y-17080713D02*
X8721230Y-17090236D01*
X8721230Y-17090236D02*
X8711706Y-17109284D01*
X8711706Y-17109284D02*
X8711706Y-17156903D01*
X8711706Y-17156903D02*
X8721230Y-17175951D01*
X8721230Y-17175951D02*
X8730753Y-17185474D01*
X8730753Y-17185474D02*
X8749801Y-17194998D01*
X8749801Y-17194998D02*
X8787896Y-17194998D01*
X8787896Y-17194998D02*
X8806944Y-17185474D01*
X8806944Y-17185474D02*
X8816468Y-17175951D01*
X8816468Y-17175951D02*
X8825991Y-17156903D01*
X9064087Y-17271189D02*
X9064087Y-17071189D01*
X9149801Y-17271189D02*
X9149801Y-17166427D01*
X9149801Y-17166427D02*
X9140277Y-17147379D01*
X9140277Y-17147379D02*
X9121230Y-17137855D01*
X9121230Y-17137855D02*
X9092658Y-17137855D01*
X9092658Y-17137855D02*
X9073611Y-17147379D01*
X9073611Y-17147379D02*
X9064087Y-17156903D01*
X9273611Y-17271189D02*
X9254563Y-17261665D01*
X9254563Y-17261665D02*
X9245039Y-17252141D01*
X9245039Y-17252141D02*
X9235515Y-17233093D01*
X9235515Y-17233093D02*
X9235515Y-17175951D01*
X9235515Y-17175951D02*
X9245039Y-17156903D01*
X9245039Y-17156903D02*
X9254563Y-17147379D01*
X9254563Y-17147379D02*
X9273611Y-17137855D01*
X9273611Y-17137855D02*
X9302182Y-17137855D01*
X9302182Y-17137855D02*
X9321230Y-17147379D01*
X9321230Y-17147379D02*
X9330753Y-17156903D01*
X9330753Y-17156903D02*
X9340277Y-17175951D01*
X9340277Y-17175951D02*
X9340277Y-17233093D01*
X9340277Y-17233093D02*
X9330753Y-17252141D01*
X9330753Y-17252141D02*
X9321230Y-17261665D01*
X9321230Y-17261665D02*
X9302182Y-17271189D01*
X9302182Y-17271189D02*
X9273611Y-17271189D01*
X9454563Y-17271189D02*
X9435515Y-17261665D01*
X9435515Y-17261665D02*
X9425992Y-17242617D01*
X9425992Y-17242617D02*
X9425992Y-17071189D01*
X9606944Y-17261665D02*
X9587896Y-17271189D01*
X9587896Y-17271189D02*
X9549801Y-17271189D01*
X9549801Y-17271189D02*
X9530753Y-17261665D01*
X9530753Y-17261665D02*
X9521230Y-17242617D01*
X9521230Y-17242617D02*
X9521230Y-17166427D01*
X9521230Y-17166427D02*
X9530753Y-17147379D01*
X9530753Y-17147379D02*
X9549801Y-17137855D01*
X9549801Y-17137855D02*
X9587896Y-17137855D01*
X9587896Y-17137855D02*
X9606944Y-17147379D01*
X9606944Y-17147379D02*
X9616468Y-17166427D01*
X9616468Y-17166427D02*
X9616468Y-17185474D01*
X9616468Y-17185474D02*
X9521230Y-17204522D01*
X9692658Y-17261665D02*
X9711706Y-17271189D01*
X9711706Y-17271189D02*
X9749801Y-17271189D01*
X9749801Y-17271189D02*
X9768849Y-17261665D01*
X9768849Y-17261665D02*
X9778373Y-17242617D01*
X9778373Y-17242617D02*
X9778373Y-17233093D01*
X9778373Y-17233093D02*
X9768849Y-17214046D01*
X9768849Y-17214046D02*
X9749801Y-17204522D01*
X9749801Y-17204522D02*
X9721230Y-17204522D01*
X9721230Y-17204522D02*
X9702182Y-17194998D01*
X9702182Y-17194998D02*
X9692658Y-17175951D01*
X9692658Y-17175951D02*
X9692658Y-17166427D01*
X9692658Y-17166427D02*
X9702182Y-17147379D01*
X9702182Y-17147379D02*
X9721230Y-17137855D01*
X9721230Y-17137855D02*
X9749801Y-17137855D01*
X9749801Y-17137855D02*
X9768849Y-17147379D01*
X9845039Y-17347379D02*
X9854563Y-17337855D01*
X9854563Y-17337855D02*
X9873611Y-17309284D01*
X9873611Y-17309284D02*
X9883134Y-17290236D01*
X9883134Y-17290236D02*
X9892658Y-17261665D01*
X9892658Y-17261665D02*
X9902182Y-17214046D01*
X9902182Y-17214046D02*
X9902182Y-17175951D01*
X9902182Y-17175951D02*
X9892658Y-17128332D01*
X9892658Y-17128332D02*
X9883134Y-17099760D01*
X9883134Y-17099760D02*
X9873611Y-17080713D01*
X9873611Y-17080713D02*
X9854563Y-17052141D01*
X9854563Y-17052141D02*
X9845039Y-17042617D01*
D11*
X4842000Y-17406205D02*
X4842000Y-17481205D01*
X4804500Y-17443705D02*
X4879500Y-17443705D01*
D10*
X5178372Y-17335189D02*
X5197420Y-17335189D01*
X5197420Y-17335189D02*
X5216467Y-17344713D01*
X5216467Y-17344713D02*
X5225991Y-17354236D01*
X5225991Y-17354236D02*
X5235515Y-17373284D01*
X5235515Y-17373284D02*
X5245039Y-17411379D01*
X5245039Y-17411379D02*
X5245039Y-17458998D01*
X5245039Y-17458998D02*
X5235515Y-17497093D01*
X5235515Y-17497093D02*
X5225991Y-17516141D01*
X5225991Y-17516141D02*
X5216467Y-17525665D01*
X5216467Y-17525665D02*
X5197420Y-17535189D01*
X5197420Y-17535189D02*
X5178372Y-17535189D01*
X5178372Y-17535189D02*
X5159324Y-17525665D01*
X5159324Y-17525665D02*
X5149801Y-17516141D01*
X5149801Y-17516141D02*
X5140277Y-17497093D01*
X5140277Y-17497093D02*
X5130753Y-17458998D01*
X5130753Y-17458998D02*
X5130753Y-17411379D01*
X5130753Y-17411379D02*
X5140277Y-17373284D01*
X5140277Y-17373284D02*
X5149801Y-17354236D01*
X5149801Y-17354236D02*
X5159324Y-17344713D01*
X5159324Y-17344713D02*
X5178372Y-17335189D01*
X5330753Y-17516141D02*
X5340277Y-17525665D01*
X5340277Y-17525665D02*
X5330753Y-17535189D01*
X5330753Y-17535189D02*
X5321229Y-17525665D01*
X5321229Y-17525665D02*
X5330753Y-17516141D01*
X5330753Y-17516141D02*
X5330753Y-17535189D01*
X5406944Y-17335189D02*
X5540277Y-17335189D01*
X5540277Y-17335189D02*
X5454563Y-17535189D01*
X5711705Y-17335189D02*
X5616467Y-17335189D01*
X5616467Y-17335189D02*
X5606943Y-17430427D01*
X5606943Y-17430427D02*
X5616467Y-17420903D01*
X5616467Y-17420903D02*
X5635515Y-17411379D01*
X5635515Y-17411379D02*
X5683134Y-17411379D01*
X5683134Y-17411379D02*
X5702182Y-17420903D01*
X5702182Y-17420903D02*
X5711705Y-17430427D01*
X5711705Y-17430427D02*
X5721229Y-17449474D01*
X5721229Y-17449474D02*
X5721229Y-17497093D01*
X5721229Y-17497093D02*
X5711705Y-17516141D01*
X5711705Y-17516141D02*
X5702182Y-17525665D01*
X5702182Y-17525665D02*
X5683134Y-17535189D01*
X5683134Y-17535189D02*
X5635515Y-17535189D01*
X5635515Y-17535189D02*
X5616467Y-17525665D01*
X5616467Y-17525665D02*
X5606943Y-17516141D01*
X5845039Y-17335189D02*
X5864086Y-17335189D01*
X5864086Y-17335189D02*
X5883134Y-17344713D01*
X5883134Y-17344713D02*
X5892658Y-17354236D01*
X5892658Y-17354236D02*
X5902182Y-17373284D01*
X5902182Y-17373284D02*
X5911705Y-17411379D01*
X5911705Y-17411379D02*
X5911705Y-17458998D01*
X5911705Y-17458998D02*
X5902182Y-17497093D01*
X5902182Y-17497093D02*
X5892658Y-17516141D01*
X5892658Y-17516141D02*
X5883134Y-17525665D01*
X5883134Y-17525665D02*
X5864086Y-17535189D01*
X5864086Y-17535189D02*
X5845039Y-17535189D01*
X5845039Y-17535189D02*
X5825991Y-17525665D01*
X5825991Y-17525665D02*
X5816467Y-17516141D01*
X5816467Y-17516141D02*
X5806943Y-17497093D01*
X5806943Y-17497093D02*
X5797420Y-17458998D01*
X5797420Y-17458998D02*
X5797420Y-17411379D01*
X5797420Y-17411379D02*
X5806943Y-17373284D01*
X5806943Y-17373284D02*
X5816467Y-17354236D01*
X5816467Y-17354236D02*
X5825991Y-17344713D01*
X5825991Y-17344713D02*
X5845039Y-17335189D01*
X5997420Y-17535189D02*
X5997420Y-17401855D01*
X5997420Y-17420903D02*
X6006943Y-17411379D01*
X6006943Y-17411379D02*
X6025991Y-17401855D01*
X6025991Y-17401855D02*
X6054563Y-17401855D01*
X6054563Y-17401855D02*
X6073610Y-17411379D01*
X6073610Y-17411379D02*
X6083134Y-17430427D01*
X6083134Y-17430427D02*
X6083134Y-17535189D01*
X6083134Y-17430427D02*
X6092658Y-17411379D01*
X6092658Y-17411379D02*
X6111705Y-17401855D01*
X6111705Y-17401855D02*
X6140277Y-17401855D01*
X6140277Y-17401855D02*
X6159324Y-17411379D01*
X6159324Y-17411379D02*
X6168848Y-17430427D01*
X6168848Y-17430427D02*
X6168848Y-17535189D01*
X6264086Y-17535189D02*
X6264086Y-17401855D01*
X6264086Y-17420903D02*
X6273610Y-17411379D01*
X6273610Y-17411379D02*
X6292658Y-17401855D01*
X6292658Y-17401855D02*
X6321229Y-17401855D01*
X6321229Y-17401855D02*
X6340277Y-17411379D01*
X6340277Y-17411379D02*
X6349801Y-17430427D01*
X6349801Y-17430427D02*
X6349801Y-17535189D01*
X6349801Y-17430427D02*
X6359324Y-17411379D01*
X6359324Y-17411379D02*
X6378372Y-17401855D01*
X6378372Y-17401855D02*
X6406943Y-17401855D01*
X6406943Y-17401855D02*
X6425991Y-17411379D01*
X6425991Y-17411379D02*
X6435515Y-17430427D01*
X6435515Y-17430427D02*
X6435515Y-17535189D01*
X6825991Y-17325665D02*
X6654563Y-17582808D01*
X7083134Y-17335189D02*
X7102182Y-17335189D01*
X7102182Y-17335189D02*
X7121229Y-17344713D01*
X7121229Y-17344713D02*
X7130753Y-17354236D01*
X7130753Y-17354236D02*
X7140277Y-17373284D01*
X7140277Y-17373284D02*
X7149801Y-17411379D01*
X7149801Y-17411379D02*
X7149801Y-17458998D01*
X7149801Y-17458998D02*
X7140277Y-17497093D01*
X7140277Y-17497093D02*
X7130753Y-17516141D01*
X7130753Y-17516141D02*
X7121229Y-17525665D01*
X7121229Y-17525665D02*
X7102182Y-17535189D01*
X7102182Y-17535189D02*
X7083134Y-17535189D01*
X7083134Y-17535189D02*
X7064086Y-17525665D01*
X7064086Y-17525665D02*
X7054563Y-17516141D01*
X7054563Y-17516141D02*
X7045039Y-17497093D01*
X7045039Y-17497093D02*
X7035515Y-17458998D01*
X7035515Y-17458998D02*
X7035515Y-17411379D01*
X7035515Y-17411379D02*
X7045039Y-17373284D01*
X7045039Y-17373284D02*
X7054563Y-17354236D01*
X7054563Y-17354236D02*
X7064086Y-17344713D01*
X7064086Y-17344713D02*
X7083134Y-17335189D01*
X7235515Y-17516141D02*
X7245039Y-17525665D01*
X7245039Y-17525665D02*
X7235515Y-17535189D01*
X7235515Y-17535189D02*
X7225991Y-17525665D01*
X7225991Y-17525665D02*
X7235515Y-17516141D01*
X7235515Y-17516141D02*
X7235515Y-17535189D01*
X7368848Y-17335189D02*
X7387896Y-17335189D01*
X7387896Y-17335189D02*
X7406944Y-17344713D01*
X7406944Y-17344713D02*
X7416467Y-17354236D01*
X7416467Y-17354236D02*
X7425991Y-17373284D01*
X7425991Y-17373284D02*
X7435515Y-17411379D01*
X7435515Y-17411379D02*
X7435515Y-17458998D01*
X7435515Y-17458998D02*
X7425991Y-17497093D01*
X7425991Y-17497093D02*
X7416467Y-17516141D01*
X7416467Y-17516141D02*
X7406944Y-17525665D01*
X7406944Y-17525665D02*
X7387896Y-17535189D01*
X7387896Y-17535189D02*
X7368848Y-17535189D01*
X7368848Y-17535189D02*
X7349801Y-17525665D01*
X7349801Y-17525665D02*
X7340277Y-17516141D01*
X7340277Y-17516141D02*
X7330753Y-17497093D01*
X7330753Y-17497093D02*
X7321229Y-17458998D01*
X7321229Y-17458998D02*
X7321229Y-17411379D01*
X7321229Y-17411379D02*
X7330753Y-17373284D01*
X7330753Y-17373284D02*
X7340277Y-17354236D01*
X7340277Y-17354236D02*
X7349801Y-17344713D01*
X7349801Y-17344713D02*
X7368848Y-17335189D01*
X7511706Y-17354236D02*
X7521229Y-17344713D01*
X7521229Y-17344713D02*
X7540277Y-17335189D01*
X7540277Y-17335189D02*
X7587896Y-17335189D01*
X7587896Y-17335189D02*
X7606944Y-17344713D01*
X7606944Y-17344713D02*
X7616467Y-17354236D01*
X7616467Y-17354236D02*
X7625991Y-17373284D01*
X7625991Y-17373284D02*
X7625991Y-17392332D01*
X7625991Y-17392332D02*
X7616467Y-17420903D01*
X7616467Y-17420903D02*
X7502182Y-17535189D01*
X7502182Y-17535189D02*
X7625991Y-17535189D01*
X7721229Y-17535189D02*
X7759325Y-17535189D01*
X7759325Y-17535189D02*
X7778372Y-17525665D01*
X7778372Y-17525665D02*
X7787896Y-17516141D01*
X7787896Y-17516141D02*
X7806944Y-17487570D01*
X7806944Y-17487570D02*
X7816467Y-17449474D01*
X7816467Y-17449474D02*
X7816467Y-17373284D01*
X7816467Y-17373284D02*
X7806944Y-17354236D01*
X7806944Y-17354236D02*
X7797420Y-17344713D01*
X7797420Y-17344713D02*
X7778372Y-17335189D01*
X7778372Y-17335189D02*
X7740277Y-17335189D01*
X7740277Y-17335189D02*
X7721229Y-17344713D01*
X7721229Y-17344713D02*
X7711706Y-17354236D01*
X7711706Y-17354236D02*
X7702182Y-17373284D01*
X7702182Y-17373284D02*
X7702182Y-17420903D01*
X7702182Y-17420903D02*
X7711706Y-17439951D01*
X7711706Y-17439951D02*
X7721229Y-17449474D01*
X7721229Y-17449474D02*
X7740277Y-17458998D01*
X7740277Y-17458998D02*
X7778372Y-17458998D01*
X7778372Y-17458998D02*
X7797420Y-17449474D01*
X7797420Y-17449474D02*
X7806944Y-17439951D01*
X7806944Y-17439951D02*
X7816467Y-17420903D01*
X7997420Y-17335189D02*
X7902182Y-17335189D01*
X7902182Y-17335189D02*
X7892658Y-17430427D01*
X7892658Y-17430427D02*
X7902182Y-17420903D01*
X7902182Y-17420903D02*
X7921229Y-17411379D01*
X7921229Y-17411379D02*
X7968848Y-17411379D01*
X7968848Y-17411379D02*
X7987896Y-17420903D01*
X7987896Y-17420903D02*
X7997420Y-17430427D01*
X7997420Y-17430427D02*
X8006944Y-17449474D01*
X8006944Y-17449474D02*
X8006944Y-17497093D01*
X8006944Y-17497093D02*
X7997420Y-17516141D01*
X7997420Y-17516141D02*
X7987896Y-17525665D01*
X7987896Y-17525665D02*
X7968848Y-17535189D01*
X7968848Y-17535189D02*
X7921229Y-17535189D01*
X7921229Y-17535189D02*
X7902182Y-17525665D01*
X7902182Y-17525665D02*
X7892658Y-17516141D01*
X8083134Y-17335189D02*
X8083134Y-17373284D01*
X8159325Y-17335189D02*
X8159325Y-17373284D01*
X8454563Y-17611379D02*
X8445039Y-17601855D01*
X8445039Y-17601855D02*
X8425991Y-17573284D01*
X8425991Y-17573284D02*
X8416468Y-17554236D01*
X8416468Y-17554236D02*
X8406944Y-17525665D01*
X8406944Y-17525665D02*
X8397420Y-17478046D01*
X8397420Y-17478046D02*
X8397420Y-17439951D01*
X8397420Y-17439951D02*
X8406944Y-17392332D01*
X8406944Y-17392332D02*
X8416468Y-17363760D01*
X8416468Y-17363760D02*
X8425991Y-17344713D01*
X8425991Y-17344713D02*
X8445039Y-17316141D01*
X8445039Y-17316141D02*
X8454563Y-17306617D01*
X8635515Y-17535189D02*
X8521230Y-17535189D01*
X8578372Y-17535189D02*
X8578372Y-17335189D01*
X8578372Y-17335189D02*
X8559325Y-17363760D01*
X8559325Y-17363760D02*
X8540277Y-17382808D01*
X8540277Y-17382808D02*
X8521230Y-17392332D01*
X8806944Y-17335189D02*
X8768849Y-17335189D01*
X8768849Y-17335189D02*
X8749801Y-17344713D01*
X8749801Y-17344713D02*
X8740277Y-17354236D01*
X8740277Y-17354236D02*
X8721230Y-17382808D01*
X8721230Y-17382808D02*
X8711706Y-17420903D01*
X8711706Y-17420903D02*
X8711706Y-17497093D01*
X8711706Y-17497093D02*
X8721230Y-17516141D01*
X8721230Y-17516141D02*
X8730753Y-17525665D01*
X8730753Y-17525665D02*
X8749801Y-17535189D01*
X8749801Y-17535189D02*
X8787896Y-17535189D01*
X8787896Y-17535189D02*
X8806944Y-17525665D01*
X8806944Y-17525665D02*
X8816468Y-17516141D01*
X8816468Y-17516141D02*
X8825991Y-17497093D01*
X8825991Y-17497093D02*
X8825991Y-17449474D01*
X8825991Y-17449474D02*
X8816468Y-17430427D01*
X8816468Y-17430427D02*
X8806944Y-17420903D01*
X8806944Y-17420903D02*
X8787896Y-17411379D01*
X8787896Y-17411379D02*
X8749801Y-17411379D01*
X8749801Y-17411379D02*
X8730753Y-17420903D01*
X8730753Y-17420903D02*
X8721230Y-17430427D01*
X8721230Y-17430427D02*
X8711706Y-17449474D01*
X9064087Y-17535189D02*
X9064087Y-17335189D01*
X9149801Y-17535189D02*
X9149801Y-17430427D01*
X9149801Y-17430427D02*
X9140277Y-17411379D01*
X9140277Y-17411379D02*
X9121230Y-17401855D01*
X9121230Y-17401855D02*
X9092658Y-17401855D01*
X9092658Y-17401855D02*
X9073611Y-17411379D01*
X9073611Y-17411379D02*
X9064087Y-17420903D01*
X9273611Y-17535189D02*
X9254563Y-17525665D01*
X9254563Y-17525665D02*
X9245039Y-17516141D01*
X9245039Y-17516141D02*
X9235515Y-17497093D01*
X9235515Y-17497093D02*
X9235515Y-17439951D01*
X9235515Y-17439951D02*
X9245039Y-17420903D01*
X9245039Y-17420903D02*
X9254563Y-17411379D01*
X9254563Y-17411379D02*
X9273611Y-17401855D01*
X9273611Y-17401855D02*
X9302182Y-17401855D01*
X9302182Y-17401855D02*
X9321230Y-17411379D01*
X9321230Y-17411379D02*
X9330753Y-17420903D01*
X9330753Y-17420903D02*
X9340277Y-17439951D01*
X9340277Y-17439951D02*
X9340277Y-17497093D01*
X9340277Y-17497093D02*
X9330753Y-17516141D01*
X9330753Y-17516141D02*
X9321230Y-17525665D01*
X9321230Y-17525665D02*
X9302182Y-17535189D01*
X9302182Y-17535189D02*
X9273611Y-17535189D01*
X9454563Y-17535189D02*
X9435515Y-17525665D01*
X9435515Y-17525665D02*
X9425992Y-17506617D01*
X9425992Y-17506617D02*
X9425992Y-17335189D01*
X9606944Y-17525665D02*
X9587896Y-17535189D01*
X9587896Y-17535189D02*
X9549801Y-17535189D01*
X9549801Y-17535189D02*
X9530753Y-17525665D01*
X9530753Y-17525665D02*
X9521230Y-17506617D01*
X9521230Y-17506617D02*
X9521230Y-17430427D01*
X9521230Y-17430427D02*
X9530753Y-17411379D01*
X9530753Y-17411379D02*
X9549801Y-17401855D01*
X9549801Y-17401855D02*
X9587896Y-17401855D01*
X9587896Y-17401855D02*
X9606944Y-17411379D01*
X9606944Y-17411379D02*
X9616468Y-17430427D01*
X9616468Y-17430427D02*
X9616468Y-17449474D01*
X9616468Y-17449474D02*
X9521230Y-17468522D01*
X9692658Y-17525665D02*
X9711706Y-17535189D01*
X9711706Y-17535189D02*
X9749801Y-17535189D01*
X9749801Y-17535189D02*
X9768849Y-17525665D01*
X9768849Y-17525665D02*
X9778373Y-17506617D01*
X9778373Y-17506617D02*
X9778373Y-17497093D01*
X9778373Y-17497093D02*
X9768849Y-17478046D01*
X9768849Y-17478046D02*
X9749801Y-17468522D01*
X9749801Y-17468522D02*
X9721230Y-17468522D01*
X9721230Y-17468522D02*
X9702182Y-17458998D01*
X9702182Y-17458998D02*
X9692658Y-17439951D01*
X9692658Y-17439951D02*
X9692658Y-17430427D01*
X9692658Y-17430427D02*
X9702182Y-17411379D01*
X9702182Y-17411379D02*
X9721230Y-17401855D01*
X9721230Y-17401855D02*
X9749801Y-17401855D01*
X9749801Y-17401855D02*
X9768849Y-17411379D01*
X9845039Y-17611379D02*
X9854563Y-17601855D01*
X9854563Y-17601855D02*
X9873611Y-17573284D01*
X9873611Y-17573284D02*
X9883134Y-17554236D01*
X9883134Y-17554236D02*
X9892658Y-17525665D01*
X9892658Y-17525665D02*
X9902182Y-17478046D01*
X9902182Y-17478046D02*
X9902182Y-17439951D01*
X9902182Y-17439951D02*
X9892658Y-17392332D01*
X9892658Y-17392332D02*
X9883134Y-17363760D01*
X9883134Y-17363760D02*
X9873611Y-17344713D01*
X9873611Y-17344713D02*
X9854563Y-17316141D01*
X9854563Y-17316141D02*
X9845039Y-17306617D01*
D11*
X4867785Y-17735989D02*
X4867785Y-17679420D01*
X4811216Y-17679420D01*
X4811216Y-17735989D01*
X4867785Y-17735989D01*
D10*
X5178372Y-17599189D02*
X5197420Y-17599189D01*
X5197420Y-17599189D02*
X5216467Y-17608713D01*
X5216467Y-17608713D02*
X5225991Y-17618236D01*
X5225991Y-17618236D02*
X5235515Y-17637284D01*
X5235515Y-17637284D02*
X5245039Y-17675379D01*
X5245039Y-17675379D02*
X5245039Y-17722998D01*
X5245039Y-17722998D02*
X5235515Y-17761093D01*
X5235515Y-17761093D02*
X5225991Y-17780141D01*
X5225991Y-17780141D02*
X5216467Y-17789665D01*
X5216467Y-17789665D02*
X5197420Y-17799189D01*
X5197420Y-17799189D02*
X5178372Y-17799189D01*
X5178372Y-17799189D02*
X5159324Y-17789665D01*
X5159324Y-17789665D02*
X5149801Y-17780141D01*
X5149801Y-17780141D02*
X5140277Y-17761093D01*
X5140277Y-17761093D02*
X5130753Y-17722998D01*
X5130753Y-17722998D02*
X5130753Y-17675379D01*
X5130753Y-17675379D02*
X5140277Y-17637284D01*
X5140277Y-17637284D02*
X5149801Y-17618236D01*
X5149801Y-17618236D02*
X5159324Y-17608713D01*
X5159324Y-17608713D02*
X5178372Y-17599189D01*
X5330753Y-17780141D02*
X5340277Y-17789665D01*
X5340277Y-17789665D02*
X5330753Y-17799189D01*
X5330753Y-17799189D02*
X5321229Y-17789665D01*
X5321229Y-17789665D02*
X5330753Y-17780141D01*
X5330753Y-17780141D02*
X5330753Y-17799189D01*
X5454563Y-17684903D02*
X5435515Y-17675379D01*
X5435515Y-17675379D02*
X5425991Y-17665855D01*
X5425991Y-17665855D02*
X5416467Y-17646808D01*
X5416467Y-17646808D02*
X5416467Y-17637284D01*
X5416467Y-17637284D02*
X5425991Y-17618236D01*
X5425991Y-17618236D02*
X5435515Y-17608713D01*
X5435515Y-17608713D02*
X5454563Y-17599189D01*
X5454563Y-17599189D02*
X5492658Y-17599189D01*
X5492658Y-17599189D02*
X5511705Y-17608713D01*
X5511705Y-17608713D02*
X5521229Y-17618236D01*
X5521229Y-17618236D02*
X5530753Y-17637284D01*
X5530753Y-17637284D02*
X5530753Y-17646808D01*
X5530753Y-17646808D02*
X5521229Y-17665855D01*
X5521229Y-17665855D02*
X5511705Y-17675379D01*
X5511705Y-17675379D02*
X5492658Y-17684903D01*
X5492658Y-17684903D02*
X5454563Y-17684903D01*
X5454563Y-17684903D02*
X5435515Y-17694427D01*
X5435515Y-17694427D02*
X5425991Y-17703951D01*
X5425991Y-17703951D02*
X5416467Y-17722998D01*
X5416467Y-17722998D02*
X5416467Y-17761093D01*
X5416467Y-17761093D02*
X5425991Y-17780141D01*
X5425991Y-17780141D02*
X5435515Y-17789665D01*
X5435515Y-17789665D02*
X5454563Y-17799189D01*
X5454563Y-17799189D02*
X5492658Y-17799189D01*
X5492658Y-17799189D02*
X5511705Y-17789665D01*
X5511705Y-17789665D02*
X5521229Y-17780141D01*
X5521229Y-17780141D02*
X5530753Y-17761093D01*
X5530753Y-17761093D02*
X5530753Y-17722998D01*
X5530753Y-17722998D02*
X5521229Y-17703951D01*
X5521229Y-17703951D02*
X5511705Y-17694427D01*
X5511705Y-17694427D02*
X5492658Y-17684903D01*
X5654562Y-17599189D02*
X5673610Y-17599189D01*
X5673610Y-17599189D02*
X5692658Y-17608713D01*
X5692658Y-17608713D02*
X5702182Y-17618236D01*
X5702182Y-17618236D02*
X5711705Y-17637284D01*
X5711705Y-17637284D02*
X5721229Y-17675379D01*
X5721229Y-17675379D02*
X5721229Y-17722998D01*
X5721229Y-17722998D02*
X5711705Y-17761093D01*
X5711705Y-17761093D02*
X5702182Y-17780141D01*
X5702182Y-17780141D02*
X5692658Y-17789665D01*
X5692658Y-17789665D02*
X5673610Y-17799189D01*
X5673610Y-17799189D02*
X5654562Y-17799189D01*
X5654562Y-17799189D02*
X5635515Y-17789665D01*
X5635515Y-17789665D02*
X5625991Y-17780141D01*
X5625991Y-17780141D02*
X5616467Y-17761093D01*
X5616467Y-17761093D02*
X5606943Y-17722998D01*
X5606943Y-17722998D02*
X5606943Y-17675379D01*
X5606943Y-17675379D02*
X5616467Y-17637284D01*
X5616467Y-17637284D02*
X5625991Y-17618236D01*
X5625991Y-17618236D02*
X5635515Y-17608713D01*
X5635515Y-17608713D02*
X5654562Y-17599189D01*
X5845039Y-17599189D02*
X5864086Y-17599189D01*
X5864086Y-17599189D02*
X5883134Y-17608713D01*
X5883134Y-17608713D02*
X5892658Y-17618236D01*
X5892658Y-17618236D02*
X5902182Y-17637284D01*
X5902182Y-17637284D02*
X5911705Y-17675379D01*
X5911705Y-17675379D02*
X5911705Y-17722998D01*
X5911705Y-17722998D02*
X5902182Y-17761093D01*
X5902182Y-17761093D02*
X5892658Y-17780141D01*
X5892658Y-17780141D02*
X5883134Y-17789665D01*
X5883134Y-17789665D02*
X5864086Y-17799189D01*
X5864086Y-17799189D02*
X5845039Y-17799189D01*
X5845039Y-17799189D02*
X5825991Y-17789665D01*
X5825991Y-17789665D02*
X5816467Y-17780141D01*
X5816467Y-17780141D02*
X5806943Y-17761093D01*
X5806943Y-17761093D02*
X5797420Y-17722998D01*
X5797420Y-17722998D02*
X5797420Y-17675379D01*
X5797420Y-17675379D02*
X5806943Y-17637284D01*
X5806943Y-17637284D02*
X5816467Y-17618236D01*
X5816467Y-17618236D02*
X5825991Y-17608713D01*
X5825991Y-17608713D02*
X5845039Y-17599189D01*
X5997420Y-17799189D02*
X5997420Y-17665855D01*
X5997420Y-17684903D02*
X6006943Y-17675379D01*
X6006943Y-17675379D02*
X6025991Y-17665855D01*
X6025991Y-17665855D02*
X6054563Y-17665855D01*
X6054563Y-17665855D02*
X6073610Y-17675379D01*
X6073610Y-17675379D02*
X6083134Y-17694427D01*
X6083134Y-17694427D02*
X6083134Y-17799189D01*
X6083134Y-17694427D02*
X6092658Y-17675379D01*
X6092658Y-17675379D02*
X6111705Y-17665855D01*
X6111705Y-17665855D02*
X6140277Y-17665855D01*
X6140277Y-17665855D02*
X6159324Y-17675379D01*
X6159324Y-17675379D02*
X6168848Y-17694427D01*
X6168848Y-17694427D02*
X6168848Y-17799189D01*
X6264086Y-17799189D02*
X6264086Y-17665855D01*
X6264086Y-17684903D02*
X6273610Y-17675379D01*
X6273610Y-17675379D02*
X6292658Y-17665855D01*
X6292658Y-17665855D02*
X6321229Y-17665855D01*
X6321229Y-17665855D02*
X6340277Y-17675379D01*
X6340277Y-17675379D02*
X6349801Y-17694427D01*
X6349801Y-17694427D02*
X6349801Y-17799189D01*
X6349801Y-17694427D02*
X6359324Y-17675379D01*
X6359324Y-17675379D02*
X6378372Y-17665855D01*
X6378372Y-17665855D02*
X6406943Y-17665855D01*
X6406943Y-17665855D02*
X6425991Y-17675379D01*
X6425991Y-17675379D02*
X6435515Y-17694427D01*
X6435515Y-17694427D02*
X6435515Y-17799189D01*
X6825991Y-17589665D02*
X6654563Y-17846808D01*
X7083134Y-17599189D02*
X7102182Y-17599189D01*
X7102182Y-17599189D02*
X7121229Y-17608713D01*
X7121229Y-17608713D02*
X7130753Y-17618236D01*
X7130753Y-17618236D02*
X7140277Y-17637284D01*
X7140277Y-17637284D02*
X7149801Y-17675379D01*
X7149801Y-17675379D02*
X7149801Y-17722998D01*
X7149801Y-17722998D02*
X7140277Y-17761093D01*
X7140277Y-17761093D02*
X7130753Y-17780141D01*
X7130753Y-17780141D02*
X7121229Y-17789665D01*
X7121229Y-17789665D02*
X7102182Y-17799189D01*
X7102182Y-17799189D02*
X7083134Y-17799189D01*
X7083134Y-17799189D02*
X7064086Y-17789665D01*
X7064086Y-17789665D02*
X7054563Y-17780141D01*
X7054563Y-17780141D02*
X7045039Y-17761093D01*
X7045039Y-17761093D02*
X7035515Y-17722998D01*
X7035515Y-17722998D02*
X7035515Y-17675379D01*
X7035515Y-17675379D02*
X7045039Y-17637284D01*
X7045039Y-17637284D02*
X7054563Y-17618236D01*
X7054563Y-17618236D02*
X7064086Y-17608713D01*
X7064086Y-17608713D02*
X7083134Y-17599189D01*
X7235515Y-17780141D02*
X7245039Y-17789665D01*
X7245039Y-17789665D02*
X7235515Y-17799189D01*
X7235515Y-17799189D02*
X7225991Y-17789665D01*
X7225991Y-17789665D02*
X7235515Y-17780141D01*
X7235515Y-17780141D02*
X7235515Y-17799189D01*
X7368848Y-17599189D02*
X7387896Y-17599189D01*
X7387896Y-17599189D02*
X7406944Y-17608713D01*
X7406944Y-17608713D02*
X7416467Y-17618236D01*
X7416467Y-17618236D02*
X7425991Y-17637284D01*
X7425991Y-17637284D02*
X7435515Y-17675379D01*
X7435515Y-17675379D02*
X7435515Y-17722998D01*
X7435515Y-17722998D02*
X7425991Y-17761093D01*
X7425991Y-17761093D02*
X7416467Y-17780141D01*
X7416467Y-17780141D02*
X7406944Y-17789665D01*
X7406944Y-17789665D02*
X7387896Y-17799189D01*
X7387896Y-17799189D02*
X7368848Y-17799189D01*
X7368848Y-17799189D02*
X7349801Y-17789665D01*
X7349801Y-17789665D02*
X7340277Y-17780141D01*
X7340277Y-17780141D02*
X7330753Y-17761093D01*
X7330753Y-17761093D02*
X7321229Y-17722998D01*
X7321229Y-17722998D02*
X7321229Y-17675379D01*
X7321229Y-17675379D02*
X7330753Y-17637284D01*
X7330753Y-17637284D02*
X7340277Y-17618236D01*
X7340277Y-17618236D02*
X7349801Y-17608713D01*
X7349801Y-17608713D02*
X7368848Y-17599189D01*
X7502182Y-17599189D02*
X7625991Y-17599189D01*
X7625991Y-17599189D02*
X7559325Y-17675379D01*
X7559325Y-17675379D02*
X7587896Y-17675379D01*
X7587896Y-17675379D02*
X7606944Y-17684903D01*
X7606944Y-17684903D02*
X7616467Y-17694427D01*
X7616467Y-17694427D02*
X7625991Y-17713474D01*
X7625991Y-17713474D02*
X7625991Y-17761093D01*
X7625991Y-17761093D02*
X7616467Y-17780141D01*
X7616467Y-17780141D02*
X7606944Y-17789665D01*
X7606944Y-17789665D02*
X7587896Y-17799189D01*
X7587896Y-17799189D02*
X7530753Y-17799189D01*
X7530753Y-17799189D02*
X7511706Y-17789665D01*
X7511706Y-17789665D02*
X7502182Y-17780141D01*
X7816467Y-17799189D02*
X7702182Y-17799189D01*
X7759325Y-17799189D02*
X7759325Y-17599189D01*
X7759325Y-17599189D02*
X7740277Y-17627760D01*
X7740277Y-17627760D02*
X7721229Y-17646808D01*
X7721229Y-17646808D02*
X7702182Y-17656332D01*
X7997420Y-17599189D02*
X7902182Y-17599189D01*
X7902182Y-17599189D02*
X7892658Y-17694427D01*
X7892658Y-17694427D02*
X7902182Y-17684903D01*
X7902182Y-17684903D02*
X7921229Y-17675379D01*
X7921229Y-17675379D02*
X7968848Y-17675379D01*
X7968848Y-17675379D02*
X7987896Y-17684903D01*
X7987896Y-17684903D02*
X7997420Y-17694427D01*
X7997420Y-17694427D02*
X8006944Y-17713474D01*
X8006944Y-17713474D02*
X8006944Y-17761093D01*
X8006944Y-17761093D02*
X7997420Y-17780141D01*
X7997420Y-17780141D02*
X7987896Y-17789665D01*
X7987896Y-17789665D02*
X7968848Y-17799189D01*
X7968848Y-17799189D02*
X7921229Y-17799189D01*
X7921229Y-17799189D02*
X7902182Y-17789665D01*
X7902182Y-17789665D02*
X7892658Y-17780141D01*
X8083134Y-17599189D02*
X8083134Y-17637284D01*
X8159325Y-17599189D02*
X8159325Y-17637284D01*
X8454563Y-17875379D02*
X8445039Y-17865855D01*
X8445039Y-17865855D02*
X8425991Y-17837284D01*
X8425991Y-17837284D02*
X8416468Y-17818236D01*
X8416468Y-17818236D02*
X8406944Y-17789665D01*
X8406944Y-17789665D02*
X8397420Y-17742046D01*
X8397420Y-17742046D02*
X8397420Y-17703951D01*
X8397420Y-17703951D02*
X8406944Y-17656332D01*
X8406944Y-17656332D02*
X8416468Y-17627760D01*
X8416468Y-17627760D02*
X8425991Y-17608713D01*
X8425991Y-17608713D02*
X8445039Y-17580141D01*
X8445039Y-17580141D02*
X8454563Y-17570617D01*
X8616468Y-17665855D02*
X8616468Y-17799189D01*
X8568849Y-17589665D02*
X8521230Y-17732522D01*
X8521230Y-17732522D02*
X8645039Y-17732522D01*
X8749801Y-17684903D02*
X8730753Y-17675379D01*
X8730753Y-17675379D02*
X8721230Y-17665855D01*
X8721230Y-17665855D02*
X8711706Y-17646808D01*
X8711706Y-17646808D02*
X8711706Y-17637284D01*
X8711706Y-17637284D02*
X8721230Y-17618236D01*
X8721230Y-17618236D02*
X8730753Y-17608713D01*
X8730753Y-17608713D02*
X8749801Y-17599189D01*
X8749801Y-17599189D02*
X8787896Y-17599189D01*
X8787896Y-17599189D02*
X8806944Y-17608713D01*
X8806944Y-17608713D02*
X8816468Y-17618236D01*
X8816468Y-17618236D02*
X8825991Y-17637284D01*
X8825991Y-17637284D02*
X8825991Y-17646808D01*
X8825991Y-17646808D02*
X8816468Y-17665855D01*
X8816468Y-17665855D02*
X8806944Y-17675379D01*
X8806944Y-17675379D02*
X8787896Y-17684903D01*
X8787896Y-17684903D02*
X8749801Y-17684903D01*
X8749801Y-17684903D02*
X8730753Y-17694427D01*
X8730753Y-17694427D02*
X8721230Y-17703951D01*
X8721230Y-17703951D02*
X8711706Y-17722998D01*
X8711706Y-17722998D02*
X8711706Y-17761093D01*
X8711706Y-17761093D02*
X8721230Y-17780141D01*
X8721230Y-17780141D02*
X8730753Y-17789665D01*
X8730753Y-17789665D02*
X8749801Y-17799189D01*
X8749801Y-17799189D02*
X8787896Y-17799189D01*
X8787896Y-17799189D02*
X8806944Y-17789665D01*
X8806944Y-17789665D02*
X8816468Y-17780141D01*
X8816468Y-17780141D02*
X8825991Y-17761093D01*
X8825991Y-17761093D02*
X8825991Y-17722998D01*
X8825991Y-17722998D02*
X8816468Y-17703951D01*
X8816468Y-17703951D02*
X8806944Y-17694427D01*
X8806944Y-17694427D02*
X8787896Y-17684903D01*
X9064087Y-17799189D02*
X9064087Y-17599189D01*
X9149801Y-17799189D02*
X9149801Y-17694427D01*
X9149801Y-17694427D02*
X9140277Y-17675379D01*
X9140277Y-17675379D02*
X9121230Y-17665855D01*
X9121230Y-17665855D02*
X9092658Y-17665855D01*
X9092658Y-17665855D02*
X9073611Y-17675379D01*
X9073611Y-17675379D02*
X9064087Y-17684903D01*
X9273611Y-17799189D02*
X9254563Y-17789665D01*
X9254563Y-17789665D02*
X9245039Y-17780141D01*
X9245039Y-17780141D02*
X9235515Y-17761093D01*
X9235515Y-17761093D02*
X9235515Y-17703951D01*
X9235515Y-17703951D02*
X9245039Y-17684903D01*
X9245039Y-17684903D02*
X9254563Y-17675379D01*
X9254563Y-17675379D02*
X9273611Y-17665855D01*
X9273611Y-17665855D02*
X9302182Y-17665855D01*
X9302182Y-17665855D02*
X9321230Y-17675379D01*
X9321230Y-17675379D02*
X9330753Y-17684903D01*
X9330753Y-17684903D02*
X9340277Y-17703951D01*
X9340277Y-17703951D02*
X9340277Y-17761093D01*
X9340277Y-17761093D02*
X9330753Y-17780141D01*
X9330753Y-17780141D02*
X9321230Y-17789665D01*
X9321230Y-17789665D02*
X9302182Y-17799189D01*
X9302182Y-17799189D02*
X9273611Y-17799189D01*
X9454563Y-17799189D02*
X9435515Y-17789665D01*
X9435515Y-17789665D02*
X9425992Y-17770617D01*
X9425992Y-17770617D02*
X9425992Y-17599189D01*
X9606944Y-17789665D02*
X9587896Y-17799189D01*
X9587896Y-17799189D02*
X9549801Y-17799189D01*
X9549801Y-17799189D02*
X9530753Y-17789665D01*
X9530753Y-17789665D02*
X9521230Y-17770617D01*
X9521230Y-17770617D02*
X9521230Y-17694427D01*
X9521230Y-17694427D02*
X9530753Y-17675379D01*
X9530753Y-17675379D02*
X9549801Y-17665855D01*
X9549801Y-17665855D02*
X9587896Y-17665855D01*
X9587896Y-17665855D02*
X9606944Y-17675379D01*
X9606944Y-17675379D02*
X9616468Y-17694427D01*
X9616468Y-17694427D02*
X9616468Y-17713474D01*
X9616468Y-17713474D02*
X9521230Y-17732522D01*
X9692658Y-17789665D02*
X9711706Y-17799189D01*
X9711706Y-17799189D02*
X9749801Y-17799189D01*
X9749801Y-17799189D02*
X9768849Y-17789665D01*
X9768849Y-17789665D02*
X9778373Y-17770617D01*
X9778373Y-17770617D02*
X9778373Y-17761093D01*
X9778373Y-17761093D02*
X9768849Y-17742046D01*
X9768849Y-17742046D02*
X9749801Y-17732522D01*
X9749801Y-17732522D02*
X9721230Y-17732522D01*
X9721230Y-17732522D02*
X9702182Y-17722998D01*
X9702182Y-17722998D02*
X9692658Y-17703951D01*
X9692658Y-17703951D02*
X9692658Y-17694427D01*
X9692658Y-17694427D02*
X9702182Y-17675379D01*
X9702182Y-17675379D02*
X9721230Y-17665855D01*
X9721230Y-17665855D02*
X9749801Y-17665855D01*
X9749801Y-17665855D02*
X9768849Y-17675379D01*
X9845039Y-17875379D02*
X9854563Y-17865855D01*
X9854563Y-17865855D02*
X9873611Y-17837284D01*
X9873611Y-17837284D02*
X9883134Y-17818236D01*
X9883134Y-17818236D02*
X9892658Y-17789665D01*
X9892658Y-17789665D02*
X9902182Y-17742046D01*
X9902182Y-17742046D02*
X9902182Y-17703951D01*
X9902182Y-17703951D02*
X9892658Y-17656332D01*
X9892658Y-17656332D02*
X9883134Y-17627760D01*
X9883134Y-17627760D02*
X9873611Y-17608713D01*
X9873611Y-17608713D02*
X9854563Y-17580141D01*
X9854563Y-17580141D02*
X9845039Y-17570617D01*
D11*
X4832000Y-18019205D02*
X4879500Y-17971705D01*
X4832000Y-17924205D01*
X4784500Y-17971705D01*
X4832000Y-18019205D01*
D10*
X5178372Y-17863189D02*
X5197420Y-17863189D01*
X5197420Y-17863189D02*
X5216467Y-17872713D01*
X5216467Y-17872713D02*
X5225991Y-17882236D01*
X5225991Y-17882236D02*
X5235515Y-17901284D01*
X5235515Y-17901284D02*
X5245039Y-17939379D01*
X5245039Y-17939379D02*
X5245039Y-17986998D01*
X5245039Y-17986998D02*
X5235515Y-18025093D01*
X5235515Y-18025093D02*
X5225991Y-18044141D01*
X5225991Y-18044141D02*
X5216467Y-18053665D01*
X5216467Y-18053665D02*
X5197420Y-18063189D01*
X5197420Y-18063189D02*
X5178372Y-18063189D01*
X5178372Y-18063189D02*
X5159324Y-18053665D01*
X5159324Y-18053665D02*
X5149801Y-18044141D01*
X5149801Y-18044141D02*
X5140277Y-18025093D01*
X5140277Y-18025093D02*
X5130753Y-17986998D01*
X5130753Y-17986998D02*
X5130753Y-17939379D01*
X5130753Y-17939379D02*
X5140277Y-17901284D01*
X5140277Y-17901284D02*
X5149801Y-17882236D01*
X5149801Y-17882236D02*
X5159324Y-17872713D01*
X5159324Y-17872713D02*
X5178372Y-17863189D01*
X5330753Y-18044141D02*
X5340277Y-18053665D01*
X5340277Y-18053665D02*
X5330753Y-18063189D01*
X5330753Y-18063189D02*
X5321229Y-18053665D01*
X5321229Y-18053665D02*
X5330753Y-18044141D01*
X5330753Y-18044141D02*
X5330753Y-18063189D01*
X5435515Y-18063189D02*
X5473610Y-18063189D01*
X5473610Y-18063189D02*
X5492658Y-18053665D01*
X5492658Y-18053665D02*
X5502182Y-18044141D01*
X5502182Y-18044141D02*
X5521229Y-18015570D01*
X5521229Y-18015570D02*
X5530753Y-17977474D01*
X5530753Y-17977474D02*
X5530753Y-17901284D01*
X5530753Y-17901284D02*
X5521229Y-17882236D01*
X5521229Y-17882236D02*
X5511705Y-17872713D01*
X5511705Y-17872713D02*
X5492658Y-17863189D01*
X5492658Y-17863189D02*
X5454563Y-17863189D01*
X5454563Y-17863189D02*
X5435515Y-17872713D01*
X5435515Y-17872713D02*
X5425991Y-17882236D01*
X5425991Y-17882236D02*
X5416467Y-17901284D01*
X5416467Y-17901284D02*
X5416467Y-17948903D01*
X5416467Y-17948903D02*
X5425991Y-17967951D01*
X5425991Y-17967951D02*
X5435515Y-17977474D01*
X5435515Y-17977474D02*
X5454563Y-17986998D01*
X5454563Y-17986998D02*
X5492658Y-17986998D01*
X5492658Y-17986998D02*
X5511705Y-17977474D01*
X5511705Y-17977474D02*
X5521229Y-17967951D01*
X5521229Y-17967951D02*
X5530753Y-17948903D01*
X5711705Y-17863189D02*
X5616467Y-17863189D01*
X5616467Y-17863189D02*
X5606943Y-17958427D01*
X5606943Y-17958427D02*
X5616467Y-17948903D01*
X5616467Y-17948903D02*
X5635515Y-17939379D01*
X5635515Y-17939379D02*
X5683134Y-17939379D01*
X5683134Y-17939379D02*
X5702182Y-17948903D01*
X5702182Y-17948903D02*
X5711705Y-17958427D01*
X5711705Y-17958427D02*
X5721229Y-17977474D01*
X5721229Y-17977474D02*
X5721229Y-18025093D01*
X5721229Y-18025093D02*
X5711705Y-18044141D01*
X5711705Y-18044141D02*
X5702182Y-18053665D01*
X5702182Y-18053665D02*
X5683134Y-18063189D01*
X5683134Y-18063189D02*
X5635515Y-18063189D01*
X5635515Y-18063189D02*
X5616467Y-18053665D01*
X5616467Y-18053665D02*
X5606943Y-18044141D01*
X5845039Y-17863189D02*
X5864086Y-17863189D01*
X5864086Y-17863189D02*
X5883134Y-17872713D01*
X5883134Y-17872713D02*
X5892658Y-17882236D01*
X5892658Y-17882236D02*
X5902182Y-17901284D01*
X5902182Y-17901284D02*
X5911705Y-17939379D01*
X5911705Y-17939379D02*
X5911705Y-17986998D01*
X5911705Y-17986998D02*
X5902182Y-18025093D01*
X5902182Y-18025093D02*
X5892658Y-18044141D01*
X5892658Y-18044141D02*
X5883134Y-18053665D01*
X5883134Y-18053665D02*
X5864086Y-18063189D01*
X5864086Y-18063189D02*
X5845039Y-18063189D01*
X5845039Y-18063189D02*
X5825991Y-18053665D01*
X5825991Y-18053665D02*
X5816467Y-18044141D01*
X5816467Y-18044141D02*
X5806943Y-18025093D01*
X5806943Y-18025093D02*
X5797420Y-17986998D01*
X5797420Y-17986998D02*
X5797420Y-17939379D01*
X5797420Y-17939379D02*
X5806943Y-17901284D01*
X5806943Y-17901284D02*
X5816467Y-17882236D01*
X5816467Y-17882236D02*
X5825991Y-17872713D01*
X5825991Y-17872713D02*
X5845039Y-17863189D01*
X5997420Y-18063189D02*
X5997420Y-17929855D01*
X5997420Y-17948903D02*
X6006943Y-17939379D01*
X6006943Y-17939379D02*
X6025991Y-17929855D01*
X6025991Y-17929855D02*
X6054563Y-17929855D01*
X6054563Y-17929855D02*
X6073610Y-17939379D01*
X6073610Y-17939379D02*
X6083134Y-17958427D01*
X6083134Y-17958427D02*
X6083134Y-18063189D01*
X6083134Y-17958427D02*
X6092658Y-17939379D01*
X6092658Y-17939379D02*
X6111705Y-17929855D01*
X6111705Y-17929855D02*
X6140277Y-17929855D01*
X6140277Y-17929855D02*
X6159324Y-17939379D01*
X6159324Y-17939379D02*
X6168848Y-17958427D01*
X6168848Y-17958427D02*
X6168848Y-18063189D01*
X6264086Y-18063189D02*
X6264086Y-17929855D01*
X6264086Y-17948903D02*
X6273610Y-17939379D01*
X6273610Y-17939379D02*
X6292658Y-17929855D01*
X6292658Y-17929855D02*
X6321229Y-17929855D01*
X6321229Y-17929855D02*
X6340277Y-17939379D01*
X6340277Y-17939379D02*
X6349801Y-17958427D01*
X6349801Y-17958427D02*
X6349801Y-18063189D01*
X6349801Y-17958427D02*
X6359324Y-17939379D01*
X6359324Y-17939379D02*
X6378372Y-17929855D01*
X6378372Y-17929855D02*
X6406943Y-17929855D01*
X6406943Y-17929855D02*
X6425991Y-17939379D01*
X6425991Y-17939379D02*
X6435515Y-17958427D01*
X6435515Y-17958427D02*
X6435515Y-18063189D01*
X6825991Y-17853665D02*
X6654563Y-18110808D01*
X7083134Y-17863189D02*
X7102182Y-17863189D01*
X7102182Y-17863189D02*
X7121229Y-17872713D01*
X7121229Y-17872713D02*
X7130753Y-17882236D01*
X7130753Y-17882236D02*
X7140277Y-17901284D01*
X7140277Y-17901284D02*
X7149801Y-17939379D01*
X7149801Y-17939379D02*
X7149801Y-17986998D01*
X7149801Y-17986998D02*
X7140277Y-18025093D01*
X7140277Y-18025093D02*
X7130753Y-18044141D01*
X7130753Y-18044141D02*
X7121229Y-18053665D01*
X7121229Y-18053665D02*
X7102182Y-18063189D01*
X7102182Y-18063189D02*
X7083134Y-18063189D01*
X7083134Y-18063189D02*
X7064086Y-18053665D01*
X7064086Y-18053665D02*
X7054563Y-18044141D01*
X7054563Y-18044141D02*
X7045039Y-18025093D01*
X7045039Y-18025093D02*
X7035515Y-17986998D01*
X7035515Y-17986998D02*
X7035515Y-17939379D01*
X7035515Y-17939379D02*
X7045039Y-17901284D01*
X7045039Y-17901284D02*
X7054563Y-17882236D01*
X7054563Y-17882236D02*
X7064086Y-17872713D01*
X7064086Y-17872713D02*
X7083134Y-17863189D01*
X7235515Y-18044141D02*
X7245039Y-18053665D01*
X7245039Y-18053665D02*
X7235515Y-18063189D01*
X7235515Y-18063189D02*
X7225991Y-18053665D01*
X7225991Y-18053665D02*
X7235515Y-18044141D01*
X7235515Y-18044141D02*
X7235515Y-18063189D01*
X7368848Y-17863189D02*
X7387896Y-17863189D01*
X7387896Y-17863189D02*
X7406944Y-17872713D01*
X7406944Y-17872713D02*
X7416467Y-17882236D01*
X7416467Y-17882236D02*
X7425991Y-17901284D01*
X7425991Y-17901284D02*
X7435515Y-17939379D01*
X7435515Y-17939379D02*
X7435515Y-17986998D01*
X7435515Y-17986998D02*
X7425991Y-18025093D01*
X7425991Y-18025093D02*
X7416467Y-18044141D01*
X7416467Y-18044141D02*
X7406944Y-18053665D01*
X7406944Y-18053665D02*
X7387896Y-18063189D01*
X7387896Y-18063189D02*
X7368848Y-18063189D01*
X7368848Y-18063189D02*
X7349801Y-18053665D01*
X7349801Y-18053665D02*
X7340277Y-18044141D01*
X7340277Y-18044141D02*
X7330753Y-18025093D01*
X7330753Y-18025093D02*
X7321229Y-17986998D01*
X7321229Y-17986998D02*
X7321229Y-17939379D01*
X7321229Y-17939379D02*
X7330753Y-17901284D01*
X7330753Y-17901284D02*
X7340277Y-17882236D01*
X7340277Y-17882236D02*
X7349801Y-17872713D01*
X7349801Y-17872713D02*
X7368848Y-17863189D01*
X7502182Y-17863189D02*
X7625991Y-17863189D01*
X7625991Y-17863189D02*
X7559325Y-17939379D01*
X7559325Y-17939379D02*
X7587896Y-17939379D01*
X7587896Y-17939379D02*
X7606944Y-17948903D01*
X7606944Y-17948903D02*
X7616467Y-17958427D01*
X7616467Y-17958427D02*
X7625991Y-17977474D01*
X7625991Y-17977474D02*
X7625991Y-18025093D01*
X7625991Y-18025093D02*
X7616467Y-18044141D01*
X7616467Y-18044141D02*
X7606944Y-18053665D01*
X7606944Y-18053665D02*
X7587896Y-18063189D01*
X7587896Y-18063189D02*
X7530753Y-18063189D01*
X7530753Y-18063189D02*
X7511706Y-18053665D01*
X7511706Y-18053665D02*
X7502182Y-18044141D01*
X7692658Y-17863189D02*
X7825991Y-17863189D01*
X7825991Y-17863189D02*
X7740277Y-18063189D01*
X7987896Y-17929855D02*
X7987896Y-18063189D01*
X7940277Y-17853665D02*
X7892658Y-17996522D01*
X7892658Y-17996522D02*
X8016467Y-17996522D01*
X8083134Y-17863189D02*
X8083134Y-17901284D01*
X8159325Y-17863189D02*
X8159325Y-17901284D01*
X8454563Y-18139379D02*
X8445039Y-18129855D01*
X8445039Y-18129855D02*
X8425991Y-18101284D01*
X8425991Y-18101284D02*
X8416468Y-18082236D01*
X8416468Y-18082236D02*
X8406944Y-18053665D01*
X8406944Y-18053665D02*
X8397420Y-18006046D01*
X8397420Y-18006046D02*
X8397420Y-17967951D01*
X8397420Y-17967951D02*
X8406944Y-17920332D01*
X8406944Y-17920332D02*
X8416468Y-17891760D01*
X8416468Y-17891760D02*
X8425991Y-17872713D01*
X8425991Y-17872713D02*
X8445039Y-17844141D01*
X8445039Y-17844141D02*
X8454563Y-17834617D01*
X8511706Y-17863189D02*
X8635515Y-17863189D01*
X8635515Y-17863189D02*
X8568849Y-17939379D01*
X8568849Y-17939379D02*
X8597420Y-17939379D01*
X8597420Y-17939379D02*
X8616468Y-17948903D01*
X8616468Y-17948903D02*
X8625991Y-17958427D01*
X8625991Y-17958427D02*
X8635515Y-17977474D01*
X8635515Y-17977474D02*
X8635515Y-18025093D01*
X8635515Y-18025093D02*
X8625991Y-18044141D01*
X8625991Y-18044141D02*
X8616468Y-18053665D01*
X8616468Y-18053665D02*
X8597420Y-18063189D01*
X8597420Y-18063189D02*
X8540277Y-18063189D01*
X8540277Y-18063189D02*
X8521230Y-18053665D01*
X8521230Y-18053665D02*
X8511706Y-18044141D01*
X8873611Y-18063189D02*
X8873611Y-17863189D01*
X8959325Y-18063189D02*
X8959325Y-17958427D01*
X8959325Y-17958427D02*
X8949801Y-17939379D01*
X8949801Y-17939379D02*
X8930753Y-17929855D01*
X8930753Y-17929855D02*
X8902182Y-17929855D01*
X8902182Y-17929855D02*
X8883134Y-17939379D01*
X8883134Y-17939379D02*
X8873611Y-17948903D01*
X9083134Y-18063189D02*
X9064087Y-18053665D01*
X9064087Y-18053665D02*
X9054563Y-18044141D01*
X9054563Y-18044141D02*
X9045039Y-18025093D01*
X9045039Y-18025093D02*
X9045039Y-17967951D01*
X9045039Y-17967951D02*
X9054563Y-17948903D01*
X9054563Y-17948903D02*
X9064087Y-17939379D01*
X9064087Y-17939379D02*
X9083134Y-17929855D01*
X9083134Y-17929855D02*
X9111706Y-17929855D01*
X9111706Y-17929855D02*
X9130753Y-17939379D01*
X9130753Y-17939379D02*
X9140277Y-17948903D01*
X9140277Y-17948903D02*
X9149801Y-17967951D01*
X9149801Y-17967951D02*
X9149801Y-18025093D01*
X9149801Y-18025093D02*
X9140277Y-18044141D01*
X9140277Y-18044141D02*
X9130753Y-18053665D01*
X9130753Y-18053665D02*
X9111706Y-18063189D01*
X9111706Y-18063189D02*
X9083134Y-18063189D01*
X9264087Y-18063189D02*
X9245039Y-18053665D01*
X9245039Y-18053665D02*
X9235515Y-18034617D01*
X9235515Y-18034617D02*
X9235515Y-17863189D01*
X9416468Y-18053665D02*
X9397420Y-18063189D01*
X9397420Y-18063189D02*
X9359325Y-18063189D01*
X9359325Y-18063189D02*
X9340277Y-18053665D01*
X9340277Y-18053665D02*
X9330753Y-18034617D01*
X9330753Y-18034617D02*
X9330753Y-17958427D01*
X9330753Y-17958427D02*
X9340277Y-17939379D01*
X9340277Y-17939379D02*
X9359325Y-17929855D01*
X9359325Y-17929855D02*
X9397420Y-17929855D01*
X9397420Y-17929855D02*
X9416468Y-17939379D01*
X9416468Y-17939379D02*
X9425992Y-17958427D01*
X9425992Y-17958427D02*
X9425992Y-17977474D01*
X9425992Y-17977474D02*
X9330753Y-17996522D01*
X9502182Y-18053665D02*
X9521230Y-18063189D01*
X9521230Y-18063189D02*
X9559325Y-18063189D01*
X9559325Y-18063189D02*
X9578373Y-18053665D01*
X9578373Y-18053665D02*
X9587896Y-18034617D01*
X9587896Y-18034617D02*
X9587896Y-18025093D01*
X9587896Y-18025093D02*
X9578373Y-18006046D01*
X9578373Y-18006046D02*
X9559325Y-17996522D01*
X9559325Y-17996522D02*
X9530753Y-17996522D01*
X9530753Y-17996522D02*
X9511706Y-17986998D01*
X9511706Y-17986998D02*
X9502182Y-17967951D01*
X9502182Y-17967951D02*
X9502182Y-17958427D01*
X9502182Y-17958427D02*
X9511706Y-17939379D01*
X9511706Y-17939379D02*
X9530753Y-17929855D01*
X9530753Y-17929855D02*
X9559325Y-17929855D01*
X9559325Y-17929855D02*
X9578373Y-17939379D01*
X9654563Y-18139379D02*
X9664087Y-18129855D01*
X9664087Y-18129855D02*
X9683134Y-18101284D01*
X9683134Y-18101284D02*
X9692658Y-18082236D01*
X9692658Y-18082236D02*
X9702182Y-18053665D01*
X9702182Y-18053665D02*
X9711706Y-18006046D01*
X9711706Y-18006046D02*
X9711706Y-17967951D01*
X9711706Y-17967951D02*
X9702182Y-17920332D01*
X9702182Y-17920332D02*
X9692658Y-17891760D01*
X9692658Y-17891760D02*
X9683134Y-17872713D01*
X9683134Y-17872713D02*
X9664087Y-17844141D01*
X9664087Y-17844141D02*
X9654563Y-17834617D01*
D11*
X4779500Y-18185705D02*
X4879500Y-18285705D01*
X4879500Y-18185705D02*
X4779500Y-18285705D01*
X4879500Y-18235705D02*
G75*
G02*
X4779500Y-18235705I-50000J0D01*
G01*
X4779500Y-18235705D02*
G75*
G02*
X4879500Y-18235705I50000J0D01*
G01*
D10*
X5245039Y-18327189D02*
X5130753Y-18327189D01*
X5187896Y-18327189D02*
X5187896Y-18127189D01*
X5187896Y-18127189D02*
X5168848Y-18155760D01*
X5168848Y-18155760D02*
X5149801Y-18174808D01*
X5149801Y-18174808D02*
X5130753Y-18184332D01*
X5330753Y-18308141D02*
X5340277Y-18317665D01*
X5340277Y-18317665D02*
X5330753Y-18327189D01*
X5330753Y-18327189D02*
X5321229Y-18317665D01*
X5321229Y-18317665D02*
X5330753Y-18308141D01*
X5330753Y-18308141D02*
X5330753Y-18327189D01*
X5464086Y-18127189D02*
X5483134Y-18127189D01*
X5483134Y-18127189D02*
X5502182Y-18136713D01*
X5502182Y-18136713D02*
X5511705Y-18146236D01*
X5511705Y-18146236D02*
X5521229Y-18165284D01*
X5521229Y-18165284D02*
X5530753Y-18203379D01*
X5530753Y-18203379D02*
X5530753Y-18250998D01*
X5530753Y-18250998D02*
X5521229Y-18289093D01*
X5521229Y-18289093D02*
X5511705Y-18308141D01*
X5511705Y-18308141D02*
X5502182Y-18317665D01*
X5502182Y-18317665D02*
X5483134Y-18327189D01*
X5483134Y-18327189D02*
X5464086Y-18327189D01*
X5464086Y-18327189D02*
X5445039Y-18317665D01*
X5445039Y-18317665D02*
X5435515Y-18308141D01*
X5435515Y-18308141D02*
X5425991Y-18289093D01*
X5425991Y-18289093D02*
X5416467Y-18250998D01*
X5416467Y-18250998D02*
X5416467Y-18203379D01*
X5416467Y-18203379D02*
X5425991Y-18165284D01*
X5425991Y-18165284D02*
X5435515Y-18146236D01*
X5435515Y-18146236D02*
X5445039Y-18136713D01*
X5445039Y-18136713D02*
X5464086Y-18127189D01*
X5654562Y-18127189D02*
X5673610Y-18127189D01*
X5673610Y-18127189D02*
X5692658Y-18136713D01*
X5692658Y-18136713D02*
X5702182Y-18146236D01*
X5702182Y-18146236D02*
X5711705Y-18165284D01*
X5711705Y-18165284D02*
X5721229Y-18203379D01*
X5721229Y-18203379D02*
X5721229Y-18250998D01*
X5721229Y-18250998D02*
X5711705Y-18289093D01*
X5711705Y-18289093D02*
X5702182Y-18308141D01*
X5702182Y-18308141D02*
X5692658Y-18317665D01*
X5692658Y-18317665D02*
X5673610Y-18327189D01*
X5673610Y-18327189D02*
X5654562Y-18327189D01*
X5654562Y-18327189D02*
X5635515Y-18317665D01*
X5635515Y-18317665D02*
X5625991Y-18308141D01*
X5625991Y-18308141D02*
X5616467Y-18289093D01*
X5616467Y-18289093D02*
X5606943Y-18250998D01*
X5606943Y-18250998D02*
X5606943Y-18203379D01*
X5606943Y-18203379D02*
X5616467Y-18165284D01*
X5616467Y-18165284D02*
X5625991Y-18146236D01*
X5625991Y-18146236D02*
X5635515Y-18136713D01*
X5635515Y-18136713D02*
X5654562Y-18127189D01*
X5845039Y-18127189D02*
X5864086Y-18127189D01*
X5864086Y-18127189D02*
X5883134Y-18136713D01*
X5883134Y-18136713D02*
X5892658Y-18146236D01*
X5892658Y-18146236D02*
X5902182Y-18165284D01*
X5902182Y-18165284D02*
X5911705Y-18203379D01*
X5911705Y-18203379D02*
X5911705Y-18250998D01*
X5911705Y-18250998D02*
X5902182Y-18289093D01*
X5902182Y-18289093D02*
X5892658Y-18308141D01*
X5892658Y-18308141D02*
X5883134Y-18317665D01*
X5883134Y-18317665D02*
X5864086Y-18327189D01*
X5864086Y-18327189D02*
X5845039Y-18327189D01*
X5845039Y-18327189D02*
X5825991Y-18317665D01*
X5825991Y-18317665D02*
X5816467Y-18308141D01*
X5816467Y-18308141D02*
X5806943Y-18289093D01*
X5806943Y-18289093D02*
X5797420Y-18250998D01*
X5797420Y-18250998D02*
X5797420Y-18203379D01*
X5797420Y-18203379D02*
X5806943Y-18165284D01*
X5806943Y-18165284D02*
X5816467Y-18146236D01*
X5816467Y-18146236D02*
X5825991Y-18136713D01*
X5825991Y-18136713D02*
X5845039Y-18127189D01*
X5997420Y-18327189D02*
X5997420Y-18193855D01*
X5997420Y-18212903D02*
X6006943Y-18203379D01*
X6006943Y-18203379D02*
X6025991Y-18193855D01*
X6025991Y-18193855D02*
X6054563Y-18193855D01*
X6054563Y-18193855D02*
X6073610Y-18203379D01*
X6073610Y-18203379D02*
X6083134Y-18222427D01*
X6083134Y-18222427D02*
X6083134Y-18327189D01*
X6083134Y-18222427D02*
X6092658Y-18203379D01*
X6092658Y-18203379D02*
X6111705Y-18193855D01*
X6111705Y-18193855D02*
X6140277Y-18193855D01*
X6140277Y-18193855D02*
X6159324Y-18203379D01*
X6159324Y-18203379D02*
X6168848Y-18222427D01*
X6168848Y-18222427D02*
X6168848Y-18327189D01*
X6264086Y-18327189D02*
X6264086Y-18193855D01*
X6264086Y-18212903D02*
X6273610Y-18203379D01*
X6273610Y-18203379D02*
X6292658Y-18193855D01*
X6292658Y-18193855D02*
X6321229Y-18193855D01*
X6321229Y-18193855D02*
X6340277Y-18203379D01*
X6340277Y-18203379D02*
X6349801Y-18222427D01*
X6349801Y-18222427D02*
X6349801Y-18327189D01*
X6349801Y-18222427D02*
X6359324Y-18203379D01*
X6359324Y-18203379D02*
X6378372Y-18193855D01*
X6378372Y-18193855D02*
X6406943Y-18193855D01*
X6406943Y-18193855D02*
X6425991Y-18203379D01*
X6425991Y-18203379D02*
X6435515Y-18222427D01*
X6435515Y-18222427D02*
X6435515Y-18327189D01*
X6825991Y-18117665D02*
X6654563Y-18374808D01*
X7083134Y-18127189D02*
X7102182Y-18127189D01*
X7102182Y-18127189D02*
X7121229Y-18136713D01*
X7121229Y-18136713D02*
X7130753Y-18146236D01*
X7130753Y-18146236D02*
X7140277Y-18165284D01*
X7140277Y-18165284D02*
X7149801Y-18203379D01*
X7149801Y-18203379D02*
X7149801Y-18250998D01*
X7149801Y-18250998D02*
X7140277Y-18289093D01*
X7140277Y-18289093D02*
X7130753Y-18308141D01*
X7130753Y-18308141D02*
X7121229Y-18317665D01*
X7121229Y-18317665D02*
X7102182Y-18327189D01*
X7102182Y-18327189D02*
X7083134Y-18327189D01*
X7083134Y-18327189D02*
X7064086Y-18317665D01*
X7064086Y-18317665D02*
X7054563Y-18308141D01*
X7054563Y-18308141D02*
X7045039Y-18289093D01*
X7045039Y-18289093D02*
X7035515Y-18250998D01*
X7035515Y-18250998D02*
X7035515Y-18203379D01*
X7035515Y-18203379D02*
X7045039Y-18165284D01*
X7045039Y-18165284D02*
X7054563Y-18146236D01*
X7054563Y-18146236D02*
X7064086Y-18136713D01*
X7064086Y-18136713D02*
X7083134Y-18127189D01*
X7235515Y-18308141D02*
X7245039Y-18317665D01*
X7245039Y-18317665D02*
X7235515Y-18327189D01*
X7235515Y-18327189D02*
X7225991Y-18317665D01*
X7225991Y-18317665D02*
X7235515Y-18308141D01*
X7235515Y-18308141D02*
X7235515Y-18327189D01*
X7368848Y-18127189D02*
X7387896Y-18127189D01*
X7387896Y-18127189D02*
X7406944Y-18136713D01*
X7406944Y-18136713D02*
X7416467Y-18146236D01*
X7416467Y-18146236D02*
X7425991Y-18165284D01*
X7425991Y-18165284D02*
X7435515Y-18203379D01*
X7435515Y-18203379D02*
X7435515Y-18250998D01*
X7435515Y-18250998D02*
X7425991Y-18289093D01*
X7425991Y-18289093D02*
X7416467Y-18308141D01*
X7416467Y-18308141D02*
X7406944Y-18317665D01*
X7406944Y-18317665D02*
X7387896Y-18327189D01*
X7387896Y-18327189D02*
X7368848Y-18327189D01*
X7368848Y-18327189D02*
X7349801Y-18317665D01*
X7349801Y-18317665D02*
X7340277Y-18308141D01*
X7340277Y-18308141D02*
X7330753Y-18289093D01*
X7330753Y-18289093D02*
X7321229Y-18250998D01*
X7321229Y-18250998D02*
X7321229Y-18203379D01*
X7321229Y-18203379D02*
X7330753Y-18165284D01*
X7330753Y-18165284D02*
X7340277Y-18146236D01*
X7340277Y-18146236D02*
X7349801Y-18136713D01*
X7349801Y-18136713D02*
X7368848Y-18127189D01*
X7502182Y-18127189D02*
X7625991Y-18127189D01*
X7625991Y-18127189D02*
X7559325Y-18203379D01*
X7559325Y-18203379D02*
X7587896Y-18203379D01*
X7587896Y-18203379D02*
X7606944Y-18212903D01*
X7606944Y-18212903D02*
X7616467Y-18222427D01*
X7616467Y-18222427D02*
X7625991Y-18241474D01*
X7625991Y-18241474D02*
X7625991Y-18289093D01*
X7625991Y-18289093D02*
X7616467Y-18308141D01*
X7616467Y-18308141D02*
X7606944Y-18317665D01*
X7606944Y-18317665D02*
X7587896Y-18327189D01*
X7587896Y-18327189D02*
X7530753Y-18327189D01*
X7530753Y-18327189D02*
X7511706Y-18317665D01*
X7511706Y-18317665D02*
X7502182Y-18308141D01*
X7721229Y-18327189D02*
X7759325Y-18327189D01*
X7759325Y-18327189D02*
X7778372Y-18317665D01*
X7778372Y-18317665D02*
X7787896Y-18308141D01*
X7787896Y-18308141D02*
X7806944Y-18279570D01*
X7806944Y-18279570D02*
X7816467Y-18241474D01*
X7816467Y-18241474D02*
X7816467Y-18165284D01*
X7816467Y-18165284D02*
X7806944Y-18146236D01*
X7806944Y-18146236D02*
X7797420Y-18136713D01*
X7797420Y-18136713D02*
X7778372Y-18127189D01*
X7778372Y-18127189D02*
X7740277Y-18127189D01*
X7740277Y-18127189D02*
X7721229Y-18136713D01*
X7721229Y-18136713D02*
X7711706Y-18146236D01*
X7711706Y-18146236D02*
X7702182Y-18165284D01*
X7702182Y-18165284D02*
X7702182Y-18212903D01*
X7702182Y-18212903D02*
X7711706Y-18231951D01*
X7711706Y-18231951D02*
X7721229Y-18241474D01*
X7721229Y-18241474D02*
X7740277Y-18250998D01*
X7740277Y-18250998D02*
X7778372Y-18250998D01*
X7778372Y-18250998D02*
X7797420Y-18241474D01*
X7797420Y-18241474D02*
X7806944Y-18231951D01*
X7806944Y-18231951D02*
X7816467Y-18212903D01*
X7987896Y-18193855D02*
X7987896Y-18327189D01*
X7940277Y-18117665D02*
X7892658Y-18260522D01*
X7892658Y-18260522D02*
X8016467Y-18260522D01*
X8083134Y-18127189D02*
X8083134Y-18165284D01*
X8159325Y-18127189D02*
X8159325Y-18165284D01*
X8454563Y-18403379D02*
X8445039Y-18393855D01*
X8445039Y-18393855D02*
X8425991Y-18365284D01*
X8425991Y-18365284D02*
X8416468Y-18346236D01*
X8416468Y-18346236D02*
X8406944Y-18317665D01*
X8406944Y-18317665D02*
X8397420Y-18270046D01*
X8397420Y-18270046D02*
X8397420Y-18231951D01*
X8397420Y-18231951D02*
X8406944Y-18184332D01*
X8406944Y-18184332D02*
X8416468Y-18155760D01*
X8416468Y-18155760D02*
X8425991Y-18136713D01*
X8425991Y-18136713D02*
X8445039Y-18108141D01*
X8445039Y-18108141D02*
X8454563Y-18098617D01*
X8521230Y-18146236D02*
X8530753Y-18136713D01*
X8530753Y-18136713D02*
X8549801Y-18127189D01*
X8549801Y-18127189D02*
X8597420Y-18127189D01*
X8597420Y-18127189D02*
X8616468Y-18136713D01*
X8616468Y-18136713D02*
X8625991Y-18146236D01*
X8625991Y-18146236D02*
X8635515Y-18165284D01*
X8635515Y-18165284D02*
X8635515Y-18184332D01*
X8635515Y-18184332D02*
X8625991Y-18212903D01*
X8625991Y-18212903D02*
X8511706Y-18327189D01*
X8511706Y-18327189D02*
X8635515Y-18327189D01*
X8702182Y-18127189D02*
X8825991Y-18127189D01*
X8825991Y-18127189D02*
X8759325Y-18203379D01*
X8759325Y-18203379D02*
X8787896Y-18203379D01*
X8787896Y-18203379D02*
X8806944Y-18212903D01*
X8806944Y-18212903D02*
X8816468Y-18222427D01*
X8816468Y-18222427D02*
X8825991Y-18241474D01*
X8825991Y-18241474D02*
X8825991Y-18289093D01*
X8825991Y-18289093D02*
X8816468Y-18308141D01*
X8816468Y-18308141D02*
X8806944Y-18317665D01*
X8806944Y-18317665D02*
X8787896Y-18327189D01*
X8787896Y-18327189D02*
X8730753Y-18327189D01*
X8730753Y-18327189D02*
X8711706Y-18317665D01*
X8711706Y-18317665D02*
X8702182Y-18308141D01*
X9064087Y-18327189D02*
X9064087Y-18127189D01*
X9149801Y-18327189D02*
X9149801Y-18222427D01*
X9149801Y-18222427D02*
X9140277Y-18203379D01*
X9140277Y-18203379D02*
X9121230Y-18193855D01*
X9121230Y-18193855D02*
X9092658Y-18193855D01*
X9092658Y-18193855D02*
X9073611Y-18203379D01*
X9073611Y-18203379D02*
X9064087Y-18212903D01*
X9273611Y-18327189D02*
X9254563Y-18317665D01*
X9254563Y-18317665D02*
X9245039Y-18308141D01*
X9245039Y-18308141D02*
X9235515Y-18289093D01*
X9235515Y-18289093D02*
X9235515Y-18231951D01*
X9235515Y-18231951D02*
X9245039Y-18212903D01*
X9245039Y-18212903D02*
X9254563Y-18203379D01*
X9254563Y-18203379D02*
X9273611Y-18193855D01*
X9273611Y-18193855D02*
X9302182Y-18193855D01*
X9302182Y-18193855D02*
X9321230Y-18203379D01*
X9321230Y-18203379D02*
X9330753Y-18212903D01*
X9330753Y-18212903D02*
X9340277Y-18231951D01*
X9340277Y-18231951D02*
X9340277Y-18289093D01*
X9340277Y-18289093D02*
X9330753Y-18308141D01*
X9330753Y-18308141D02*
X9321230Y-18317665D01*
X9321230Y-18317665D02*
X9302182Y-18327189D01*
X9302182Y-18327189D02*
X9273611Y-18327189D01*
X9454563Y-18327189D02*
X9435515Y-18317665D01*
X9435515Y-18317665D02*
X9425992Y-18298617D01*
X9425992Y-18298617D02*
X9425992Y-18127189D01*
X9606944Y-18317665D02*
X9587896Y-18327189D01*
X9587896Y-18327189D02*
X9549801Y-18327189D01*
X9549801Y-18327189D02*
X9530753Y-18317665D01*
X9530753Y-18317665D02*
X9521230Y-18298617D01*
X9521230Y-18298617D02*
X9521230Y-18222427D01*
X9521230Y-18222427D02*
X9530753Y-18203379D01*
X9530753Y-18203379D02*
X9549801Y-18193855D01*
X9549801Y-18193855D02*
X9587896Y-18193855D01*
X9587896Y-18193855D02*
X9606944Y-18203379D01*
X9606944Y-18203379D02*
X9616468Y-18222427D01*
X9616468Y-18222427D02*
X9616468Y-18241474D01*
X9616468Y-18241474D02*
X9521230Y-18260522D01*
X9692658Y-18317665D02*
X9711706Y-18327189D01*
X9711706Y-18327189D02*
X9749801Y-18327189D01*
X9749801Y-18327189D02*
X9768849Y-18317665D01*
X9768849Y-18317665D02*
X9778373Y-18298617D01*
X9778373Y-18298617D02*
X9778373Y-18289093D01*
X9778373Y-18289093D02*
X9768849Y-18270046D01*
X9768849Y-18270046D02*
X9749801Y-18260522D01*
X9749801Y-18260522D02*
X9721230Y-18260522D01*
X9721230Y-18260522D02*
X9702182Y-18250998D01*
X9702182Y-18250998D02*
X9692658Y-18231951D01*
X9692658Y-18231951D02*
X9692658Y-18222427D01*
X9692658Y-18222427D02*
X9702182Y-18203379D01*
X9702182Y-18203379D02*
X9721230Y-18193855D01*
X9721230Y-18193855D02*
X9749801Y-18193855D01*
X9749801Y-18193855D02*
X9768849Y-18203379D01*
X9845039Y-18403379D02*
X9854563Y-18393855D01*
X9854563Y-18393855D02*
X9873611Y-18365284D01*
X9873611Y-18365284D02*
X9883134Y-18346236D01*
X9883134Y-18346236D02*
X9892658Y-18317665D01*
X9892658Y-18317665D02*
X9902182Y-18270046D01*
X9902182Y-18270046D02*
X9902182Y-18231951D01*
X9902182Y-18231951D02*
X9892658Y-18184332D01*
X9892658Y-18184332D02*
X9883134Y-18155760D01*
X9883134Y-18155760D02*
X9873611Y-18136713D01*
X9873611Y-18136713D02*
X9854563Y-18108141D01*
X9854563Y-18108141D02*
X9845039Y-18098617D01*
D12*
X4729500Y-18424705D02*
X4879500Y-18574705D01*
X4879500Y-18424705D02*
X4729500Y-18574705D01*
X4804500Y-18424705D02*
X4804500Y-18574705D01*
X4729500Y-18499705D02*
X4879500Y-18499705D01*
D10*
X5245039Y-18591189D02*
X5130753Y-18591189D01*
X5187896Y-18591189D02*
X5187896Y-18391189D01*
X5187896Y-18391189D02*
X5168848Y-18419760D01*
X5168848Y-18419760D02*
X5149801Y-18438808D01*
X5149801Y-18438808D02*
X5130753Y-18448332D01*
X5330753Y-18572141D02*
X5340277Y-18581665D01*
X5340277Y-18581665D02*
X5330753Y-18591189D01*
X5330753Y-18591189D02*
X5321229Y-18581665D01*
X5321229Y-18581665D02*
X5330753Y-18572141D01*
X5330753Y-18572141D02*
X5330753Y-18591189D01*
X5521229Y-18391189D02*
X5425991Y-18391189D01*
X5425991Y-18391189D02*
X5416467Y-18486427D01*
X5416467Y-18486427D02*
X5425991Y-18476903D01*
X5425991Y-18476903D02*
X5445039Y-18467379D01*
X5445039Y-18467379D02*
X5492658Y-18467379D01*
X5492658Y-18467379D02*
X5511705Y-18476903D01*
X5511705Y-18476903D02*
X5521229Y-18486427D01*
X5521229Y-18486427D02*
X5530753Y-18505474D01*
X5530753Y-18505474D02*
X5530753Y-18553093D01*
X5530753Y-18553093D02*
X5521229Y-18572141D01*
X5521229Y-18572141D02*
X5511705Y-18581665D01*
X5511705Y-18581665D02*
X5492658Y-18591189D01*
X5492658Y-18591189D02*
X5445039Y-18591189D01*
X5445039Y-18591189D02*
X5425991Y-18581665D01*
X5425991Y-18581665D02*
X5416467Y-18572141D01*
X5654562Y-18391189D02*
X5673610Y-18391189D01*
X5673610Y-18391189D02*
X5692658Y-18400713D01*
X5692658Y-18400713D02*
X5702182Y-18410236D01*
X5702182Y-18410236D02*
X5711705Y-18429284D01*
X5711705Y-18429284D02*
X5721229Y-18467379D01*
X5721229Y-18467379D02*
X5721229Y-18514998D01*
X5721229Y-18514998D02*
X5711705Y-18553093D01*
X5711705Y-18553093D02*
X5702182Y-18572141D01*
X5702182Y-18572141D02*
X5692658Y-18581665D01*
X5692658Y-18581665D02*
X5673610Y-18591189D01*
X5673610Y-18591189D02*
X5654562Y-18591189D01*
X5654562Y-18591189D02*
X5635515Y-18581665D01*
X5635515Y-18581665D02*
X5625991Y-18572141D01*
X5625991Y-18572141D02*
X5616467Y-18553093D01*
X5616467Y-18553093D02*
X5606943Y-18514998D01*
X5606943Y-18514998D02*
X5606943Y-18467379D01*
X5606943Y-18467379D02*
X5616467Y-18429284D01*
X5616467Y-18429284D02*
X5625991Y-18410236D01*
X5625991Y-18410236D02*
X5635515Y-18400713D01*
X5635515Y-18400713D02*
X5654562Y-18391189D01*
X5845039Y-18391189D02*
X5864086Y-18391189D01*
X5864086Y-18391189D02*
X5883134Y-18400713D01*
X5883134Y-18400713D02*
X5892658Y-18410236D01*
X5892658Y-18410236D02*
X5902182Y-18429284D01*
X5902182Y-18429284D02*
X5911705Y-18467379D01*
X5911705Y-18467379D02*
X5911705Y-18514998D01*
X5911705Y-18514998D02*
X5902182Y-18553093D01*
X5902182Y-18553093D02*
X5892658Y-18572141D01*
X5892658Y-18572141D02*
X5883134Y-18581665D01*
X5883134Y-18581665D02*
X5864086Y-18591189D01*
X5864086Y-18591189D02*
X5845039Y-18591189D01*
X5845039Y-18591189D02*
X5825991Y-18581665D01*
X5825991Y-18581665D02*
X5816467Y-18572141D01*
X5816467Y-18572141D02*
X5806943Y-18553093D01*
X5806943Y-18553093D02*
X5797420Y-18514998D01*
X5797420Y-18514998D02*
X5797420Y-18467379D01*
X5797420Y-18467379D02*
X5806943Y-18429284D01*
X5806943Y-18429284D02*
X5816467Y-18410236D01*
X5816467Y-18410236D02*
X5825991Y-18400713D01*
X5825991Y-18400713D02*
X5845039Y-18391189D01*
X5997420Y-18591189D02*
X5997420Y-18457855D01*
X5997420Y-18476903D02*
X6006943Y-18467379D01*
X6006943Y-18467379D02*
X6025991Y-18457855D01*
X6025991Y-18457855D02*
X6054563Y-18457855D01*
X6054563Y-18457855D02*
X6073610Y-18467379D01*
X6073610Y-18467379D02*
X6083134Y-18486427D01*
X6083134Y-18486427D02*
X6083134Y-18591189D01*
X6083134Y-18486427D02*
X6092658Y-18467379D01*
X6092658Y-18467379D02*
X6111705Y-18457855D01*
X6111705Y-18457855D02*
X6140277Y-18457855D01*
X6140277Y-18457855D02*
X6159324Y-18467379D01*
X6159324Y-18467379D02*
X6168848Y-18486427D01*
X6168848Y-18486427D02*
X6168848Y-18591189D01*
X6264086Y-18591189D02*
X6264086Y-18457855D01*
X6264086Y-18476903D02*
X6273610Y-18467379D01*
X6273610Y-18467379D02*
X6292658Y-18457855D01*
X6292658Y-18457855D02*
X6321229Y-18457855D01*
X6321229Y-18457855D02*
X6340277Y-18467379D01*
X6340277Y-18467379D02*
X6349801Y-18486427D01*
X6349801Y-18486427D02*
X6349801Y-18591189D01*
X6349801Y-18486427D02*
X6359324Y-18467379D01*
X6359324Y-18467379D02*
X6378372Y-18457855D01*
X6378372Y-18457855D02*
X6406943Y-18457855D01*
X6406943Y-18457855D02*
X6425991Y-18467379D01*
X6425991Y-18467379D02*
X6435515Y-18486427D01*
X6435515Y-18486427D02*
X6435515Y-18591189D01*
X6825991Y-18381665D02*
X6654563Y-18638808D01*
X7083134Y-18391189D02*
X7102182Y-18391189D01*
X7102182Y-18391189D02*
X7121229Y-18400713D01*
X7121229Y-18400713D02*
X7130753Y-18410236D01*
X7130753Y-18410236D02*
X7140277Y-18429284D01*
X7140277Y-18429284D02*
X7149801Y-18467379D01*
X7149801Y-18467379D02*
X7149801Y-18514998D01*
X7149801Y-18514998D02*
X7140277Y-18553093D01*
X7140277Y-18553093D02*
X7130753Y-18572141D01*
X7130753Y-18572141D02*
X7121229Y-18581665D01*
X7121229Y-18581665D02*
X7102182Y-18591189D01*
X7102182Y-18591189D02*
X7083134Y-18591189D01*
X7083134Y-18591189D02*
X7064086Y-18581665D01*
X7064086Y-18581665D02*
X7054563Y-18572141D01*
X7054563Y-18572141D02*
X7045039Y-18553093D01*
X7045039Y-18553093D02*
X7035515Y-18514998D01*
X7035515Y-18514998D02*
X7035515Y-18467379D01*
X7035515Y-18467379D02*
X7045039Y-18429284D01*
X7045039Y-18429284D02*
X7054563Y-18410236D01*
X7054563Y-18410236D02*
X7064086Y-18400713D01*
X7064086Y-18400713D02*
X7083134Y-18391189D01*
X7235515Y-18572141D02*
X7245039Y-18581665D01*
X7245039Y-18581665D02*
X7235515Y-18591189D01*
X7235515Y-18591189D02*
X7225991Y-18581665D01*
X7225991Y-18581665D02*
X7235515Y-18572141D01*
X7235515Y-18572141D02*
X7235515Y-18591189D01*
X7368848Y-18391189D02*
X7387896Y-18391189D01*
X7387896Y-18391189D02*
X7406944Y-18400713D01*
X7406944Y-18400713D02*
X7416467Y-18410236D01*
X7416467Y-18410236D02*
X7425991Y-18429284D01*
X7425991Y-18429284D02*
X7435515Y-18467379D01*
X7435515Y-18467379D02*
X7435515Y-18514998D01*
X7435515Y-18514998D02*
X7425991Y-18553093D01*
X7425991Y-18553093D02*
X7416467Y-18572141D01*
X7416467Y-18572141D02*
X7406944Y-18581665D01*
X7406944Y-18581665D02*
X7387896Y-18591189D01*
X7387896Y-18591189D02*
X7368848Y-18591189D01*
X7368848Y-18591189D02*
X7349801Y-18581665D01*
X7349801Y-18581665D02*
X7340277Y-18572141D01*
X7340277Y-18572141D02*
X7330753Y-18553093D01*
X7330753Y-18553093D02*
X7321229Y-18514998D01*
X7321229Y-18514998D02*
X7321229Y-18467379D01*
X7321229Y-18467379D02*
X7330753Y-18429284D01*
X7330753Y-18429284D02*
X7340277Y-18410236D01*
X7340277Y-18410236D02*
X7349801Y-18400713D01*
X7349801Y-18400713D02*
X7368848Y-18391189D01*
X7616467Y-18391189D02*
X7521229Y-18391189D01*
X7521229Y-18391189D02*
X7511706Y-18486427D01*
X7511706Y-18486427D02*
X7521229Y-18476903D01*
X7521229Y-18476903D02*
X7540277Y-18467379D01*
X7540277Y-18467379D02*
X7587896Y-18467379D01*
X7587896Y-18467379D02*
X7606944Y-18476903D01*
X7606944Y-18476903D02*
X7616467Y-18486427D01*
X7616467Y-18486427D02*
X7625991Y-18505474D01*
X7625991Y-18505474D02*
X7625991Y-18553093D01*
X7625991Y-18553093D02*
X7616467Y-18572141D01*
X7616467Y-18572141D02*
X7606944Y-18581665D01*
X7606944Y-18581665D02*
X7587896Y-18591189D01*
X7587896Y-18591189D02*
X7540277Y-18591189D01*
X7540277Y-18591189D02*
X7521229Y-18581665D01*
X7521229Y-18581665D02*
X7511706Y-18572141D01*
X7721229Y-18591189D02*
X7759325Y-18591189D01*
X7759325Y-18591189D02*
X7778372Y-18581665D01*
X7778372Y-18581665D02*
X7787896Y-18572141D01*
X7787896Y-18572141D02*
X7806944Y-18543570D01*
X7806944Y-18543570D02*
X7816467Y-18505474D01*
X7816467Y-18505474D02*
X7816467Y-18429284D01*
X7816467Y-18429284D02*
X7806944Y-18410236D01*
X7806944Y-18410236D02*
X7797420Y-18400713D01*
X7797420Y-18400713D02*
X7778372Y-18391189D01*
X7778372Y-18391189D02*
X7740277Y-18391189D01*
X7740277Y-18391189D02*
X7721229Y-18400713D01*
X7721229Y-18400713D02*
X7711706Y-18410236D01*
X7711706Y-18410236D02*
X7702182Y-18429284D01*
X7702182Y-18429284D02*
X7702182Y-18476903D01*
X7702182Y-18476903D02*
X7711706Y-18495951D01*
X7711706Y-18495951D02*
X7721229Y-18505474D01*
X7721229Y-18505474D02*
X7740277Y-18514998D01*
X7740277Y-18514998D02*
X7778372Y-18514998D01*
X7778372Y-18514998D02*
X7797420Y-18505474D01*
X7797420Y-18505474D02*
X7806944Y-18495951D01*
X7806944Y-18495951D02*
X7816467Y-18476903D01*
X8006944Y-18591189D02*
X7892658Y-18591189D01*
X7949801Y-18591189D02*
X7949801Y-18391189D01*
X7949801Y-18391189D02*
X7930753Y-18419760D01*
X7930753Y-18419760D02*
X7911706Y-18438808D01*
X7911706Y-18438808D02*
X7892658Y-18448332D01*
X8083134Y-18391189D02*
X8083134Y-18429284D01*
X8159325Y-18391189D02*
X8159325Y-18429284D01*
X8454563Y-18667379D02*
X8445039Y-18657855D01*
X8445039Y-18657855D02*
X8425991Y-18629284D01*
X8425991Y-18629284D02*
X8416468Y-18610236D01*
X8416468Y-18610236D02*
X8406944Y-18581665D01*
X8406944Y-18581665D02*
X8397420Y-18534046D01*
X8397420Y-18534046D02*
X8397420Y-18495951D01*
X8397420Y-18495951D02*
X8406944Y-18448332D01*
X8406944Y-18448332D02*
X8416468Y-18419760D01*
X8416468Y-18419760D02*
X8425991Y-18400713D01*
X8425991Y-18400713D02*
X8445039Y-18372141D01*
X8445039Y-18372141D02*
X8454563Y-18362617D01*
X8568849Y-18391189D02*
X8587896Y-18391189D01*
X8587896Y-18391189D02*
X8606944Y-18400713D01*
X8606944Y-18400713D02*
X8616468Y-18410236D01*
X8616468Y-18410236D02*
X8625991Y-18429284D01*
X8625991Y-18429284D02*
X8635515Y-18467379D01*
X8635515Y-18467379D02*
X8635515Y-18514998D01*
X8635515Y-18514998D02*
X8625991Y-18553093D01*
X8625991Y-18553093D02*
X8616468Y-18572141D01*
X8616468Y-18572141D02*
X8606944Y-18581665D01*
X8606944Y-18581665D02*
X8587896Y-18591189D01*
X8587896Y-18591189D02*
X8568849Y-18591189D01*
X8568849Y-18591189D02*
X8549801Y-18581665D01*
X8549801Y-18581665D02*
X8540277Y-18572141D01*
X8540277Y-18572141D02*
X8530753Y-18553093D01*
X8530753Y-18553093D02*
X8521230Y-18514998D01*
X8521230Y-18514998D02*
X8521230Y-18467379D01*
X8521230Y-18467379D02*
X8530753Y-18429284D01*
X8530753Y-18429284D02*
X8540277Y-18410236D01*
X8540277Y-18410236D02*
X8549801Y-18400713D01*
X8549801Y-18400713D02*
X8568849Y-18391189D01*
X8873611Y-18591189D02*
X8873611Y-18391189D01*
X8959325Y-18591189D02*
X8959325Y-18486427D01*
X8959325Y-18486427D02*
X8949801Y-18467379D01*
X8949801Y-18467379D02*
X8930753Y-18457855D01*
X8930753Y-18457855D02*
X8902182Y-18457855D01*
X8902182Y-18457855D02*
X8883134Y-18467379D01*
X8883134Y-18467379D02*
X8873611Y-18476903D01*
X9083134Y-18591189D02*
X9064087Y-18581665D01*
X9064087Y-18581665D02*
X9054563Y-18572141D01*
X9054563Y-18572141D02*
X9045039Y-18553093D01*
X9045039Y-18553093D02*
X9045039Y-18495951D01*
X9045039Y-18495951D02*
X9054563Y-18476903D01*
X9054563Y-18476903D02*
X9064087Y-18467379D01*
X9064087Y-18467379D02*
X9083134Y-18457855D01*
X9083134Y-18457855D02*
X9111706Y-18457855D01*
X9111706Y-18457855D02*
X9130753Y-18467379D01*
X9130753Y-18467379D02*
X9140277Y-18476903D01*
X9140277Y-18476903D02*
X9149801Y-18495951D01*
X9149801Y-18495951D02*
X9149801Y-18553093D01*
X9149801Y-18553093D02*
X9140277Y-18572141D01*
X9140277Y-18572141D02*
X9130753Y-18581665D01*
X9130753Y-18581665D02*
X9111706Y-18591189D01*
X9111706Y-18591189D02*
X9083134Y-18591189D01*
X9264087Y-18591189D02*
X9245039Y-18581665D01*
X9245039Y-18581665D02*
X9235515Y-18562617D01*
X9235515Y-18562617D02*
X9235515Y-18391189D01*
X9416468Y-18581665D02*
X9397420Y-18591189D01*
X9397420Y-18591189D02*
X9359325Y-18591189D01*
X9359325Y-18591189D02*
X9340277Y-18581665D01*
X9340277Y-18581665D02*
X9330753Y-18562617D01*
X9330753Y-18562617D02*
X9330753Y-18486427D01*
X9330753Y-18486427D02*
X9340277Y-18467379D01*
X9340277Y-18467379D02*
X9359325Y-18457855D01*
X9359325Y-18457855D02*
X9397420Y-18457855D01*
X9397420Y-18457855D02*
X9416468Y-18467379D01*
X9416468Y-18467379D02*
X9425992Y-18486427D01*
X9425992Y-18486427D02*
X9425992Y-18505474D01*
X9425992Y-18505474D02*
X9330753Y-18524522D01*
X9502182Y-18581665D02*
X9521230Y-18591189D01*
X9521230Y-18591189D02*
X9559325Y-18591189D01*
X9559325Y-18591189D02*
X9578373Y-18581665D01*
X9578373Y-18581665D02*
X9587896Y-18562617D01*
X9587896Y-18562617D02*
X9587896Y-18553093D01*
X9587896Y-18553093D02*
X9578373Y-18534046D01*
X9578373Y-18534046D02*
X9559325Y-18524522D01*
X9559325Y-18524522D02*
X9530753Y-18524522D01*
X9530753Y-18524522D02*
X9511706Y-18514998D01*
X9511706Y-18514998D02*
X9502182Y-18495951D01*
X9502182Y-18495951D02*
X9502182Y-18486427D01*
X9502182Y-18486427D02*
X9511706Y-18467379D01*
X9511706Y-18467379D02*
X9530753Y-18457855D01*
X9530753Y-18457855D02*
X9559325Y-18457855D01*
X9559325Y-18457855D02*
X9578373Y-18467379D01*
X9825992Y-18514998D02*
X9978373Y-18514998D01*
X9902182Y-18591189D02*
X9902182Y-18438808D01*
X10311706Y-18457855D02*
X10311706Y-18591189D01*
X10264087Y-18381665D02*
X10216468Y-18524522D01*
X10216468Y-18524522D02*
X10340277Y-18524522D01*
X10559325Y-18581665D02*
X10578373Y-18591189D01*
X10578373Y-18591189D02*
X10616468Y-18591189D01*
X10616468Y-18591189D02*
X10635516Y-18581665D01*
X10635516Y-18581665D02*
X10645039Y-18562617D01*
X10645039Y-18562617D02*
X10645039Y-18553093D01*
X10645039Y-18553093D02*
X10635516Y-18534046D01*
X10635516Y-18534046D02*
X10616468Y-18524522D01*
X10616468Y-18524522D02*
X10587896Y-18524522D01*
X10587896Y-18524522D02*
X10568849Y-18514998D01*
X10568849Y-18514998D02*
X10559325Y-18495951D01*
X10559325Y-18495951D02*
X10559325Y-18486427D01*
X10559325Y-18486427D02*
X10568849Y-18467379D01*
X10568849Y-18467379D02*
X10587896Y-18457855D01*
X10587896Y-18457855D02*
X10616468Y-18457855D01*
X10616468Y-18457855D02*
X10635516Y-18467379D01*
X10759325Y-18591189D02*
X10740277Y-18581665D01*
X10740277Y-18581665D02*
X10730754Y-18562617D01*
X10730754Y-18562617D02*
X10730754Y-18391189D01*
X10864087Y-18591189D02*
X10845039Y-18581665D01*
X10845039Y-18581665D02*
X10835516Y-18572141D01*
X10835516Y-18572141D02*
X10825992Y-18553093D01*
X10825992Y-18553093D02*
X10825992Y-18495951D01*
X10825992Y-18495951D02*
X10835516Y-18476903D01*
X10835516Y-18476903D02*
X10845039Y-18467379D01*
X10845039Y-18467379D02*
X10864087Y-18457855D01*
X10864087Y-18457855D02*
X10892658Y-18457855D01*
X10892658Y-18457855D02*
X10911706Y-18467379D01*
X10911706Y-18467379D02*
X10921230Y-18476903D01*
X10921230Y-18476903D02*
X10930754Y-18495951D01*
X10930754Y-18495951D02*
X10930754Y-18553093D01*
X10930754Y-18553093D02*
X10921230Y-18572141D01*
X10921230Y-18572141D02*
X10911706Y-18581665D01*
X10911706Y-18581665D02*
X10892658Y-18591189D01*
X10892658Y-18591189D02*
X10864087Y-18591189D01*
X10987897Y-18457855D02*
X11064087Y-18457855D01*
X11016468Y-18391189D02*
X11016468Y-18562617D01*
X11016468Y-18562617D02*
X11025992Y-18581665D01*
X11025992Y-18581665D02*
X11045039Y-18591189D01*
X11045039Y-18591189D02*
X11064087Y-18591189D01*
X11121230Y-18581665D02*
X11140277Y-18591189D01*
X11140277Y-18591189D02*
X11178373Y-18591189D01*
X11178373Y-18591189D02*
X11197420Y-18581665D01*
X11197420Y-18581665D02*
X11206944Y-18562617D01*
X11206944Y-18562617D02*
X11206944Y-18553093D01*
X11206944Y-18553093D02*
X11197420Y-18534046D01*
X11197420Y-18534046D02*
X11178373Y-18524522D01*
X11178373Y-18524522D02*
X11149801Y-18524522D01*
X11149801Y-18524522D02*
X11130754Y-18514998D01*
X11130754Y-18514998D02*
X11121230Y-18495951D01*
X11121230Y-18495951D02*
X11121230Y-18486427D01*
X11121230Y-18486427D02*
X11130754Y-18467379D01*
X11130754Y-18467379D02*
X11149801Y-18457855D01*
X11149801Y-18457855D02*
X11178373Y-18457855D01*
X11178373Y-18457855D02*
X11197420Y-18467379D01*
X11273611Y-18667379D02*
X11283135Y-18657855D01*
X11283135Y-18657855D02*
X11302182Y-18629284D01*
X11302182Y-18629284D02*
X11311706Y-18610236D01*
X11311706Y-18610236D02*
X11321230Y-18581665D01*
X11321230Y-18581665D02*
X11330754Y-18534046D01*
X11330754Y-18534046D02*
X11330754Y-18495951D01*
X11330754Y-18495951D02*
X11321230Y-18448332D01*
X11321230Y-18448332D02*
X11311706Y-18419760D01*
X11311706Y-18419760D02*
X11302182Y-18400713D01*
X11302182Y-18400713D02*
X11283135Y-18372141D01*
X11283135Y-18372141D02*
X11273611Y-18362617D01*
X4679500Y-18669705D02*
X4879500Y-18869705D01*
X4879500Y-18669705D02*
X4679500Y-18869705D01*
X4850211Y-18840416D02*
X4850211Y-18698994D01*
X4708789Y-18698994D01*
X4708789Y-18840416D01*
X4850211Y-18840416D01*
X5121229Y-18661189D02*
X5245039Y-18661189D01*
X5245039Y-18661189D02*
X5178372Y-18737379D01*
X5178372Y-18737379D02*
X5206944Y-18737379D01*
X5206944Y-18737379D02*
X5225991Y-18746903D01*
X5225991Y-18746903D02*
X5235515Y-18756427D01*
X5235515Y-18756427D02*
X5245039Y-18775474D01*
X5245039Y-18775474D02*
X5245039Y-18823093D01*
X5245039Y-18823093D02*
X5235515Y-18842141D01*
X5235515Y-18842141D02*
X5225991Y-18851665D01*
X5225991Y-18851665D02*
X5206944Y-18861189D01*
X5206944Y-18861189D02*
X5149801Y-18861189D01*
X5149801Y-18861189D02*
X5130753Y-18851665D01*
X5130753Y-18851665D02*
X5121229Y-18842141D01*
X5330753Y-18842141D02*
X5340277Y-18851665D01*
X5340277Y-18851665D02*
X5330753Y-18861189D01*
X5330753Y-18861189D02*
X5321229Y-18851665D01*
X5321229Y-18851665D02*
X5330753Y-18842141D01*
X5330753Y-18842141D02*
X5330753Y-18861189D01*
X5464086Y-18661189D02*
X5483134Y-18661189D01*
X5483134Y-18661189D02*
X5502182Y-18670713D01*
X5502182Y-18670713D02*
X5511705Y-18680236D01*
X5511705Y-18680236D02*
X5521229Y-18699284D01*
X5521229Y-18699284D02*
X5530753Y-18737379D01*
X5530753Y-18737379D02*
X5530753Y-18784998D01*
X5530753Y-18784998D02*
X5521229Y-18823093D01*
X5521229Y-18823093D02*
X5511705Y-18842141D01*
X5511705Y-18842141D02*
X5502182Y-18851665D01*
X5502182Y-18851665D02*
X5483134Y-18861189D01*
X5483134Y-18861189D02*
X5464086Y-18861189D01*
X5464086Y-18861189D02*
X5445039Y-18851665D01*
X5445039Y-18851665D02*
X5435515Y-18842141D01*
X5435515Y-18842141D02*
X5425991Y-18823093D01*
X5425991Y-18823093D02*
X5416467Y-18784998D01*
X5416467Y-18784998D02*
X5416467Y-18737379D01*
X5416467Y-18737379D02*
X5425991Y-18699284D01*
X5425991Y-18699284D02*
X5435515Y-18680236D01*
X5435515Y-18680236D02*
X5445039Y-18670713D01*
X5445039Y-18670713D02*
X5464086Y-18661189D01*
X5711705Y-18661189D02*
X5616467Y-18661189D01*
X5616467Y-18661189D02*
X5606943Y-18756427D01*
X5606943Y-18756427D02*
X5616467Y-18746903D01*
X5616467Y-18746903D02*
X5635515Y-18737379D01*
X5635515Y-18737379D02*
X5683134Y-18737379D01*
X5683134Y-18737379D02*
X5702182Y-18746903D01*
X5702182Y-18746903D02*
X5711705Y-18756427D01*
X5711705Y-18756427D02*
X5721229Y-18775474D01*
X5721229Y-18775474D02*
X5721229Y-18823093D01*
X5721229Y-18823093D02*
X5711705Y-18842141D01*
X5711705Y-18842141D02*
X5702182Y-18851665D01*
X5702182Y-18851665D02*
X5683134Y-18861189D01*
X5683134Y-18861189D02*
X5635515Y-18861189D01*
X5635515Y-18861189D02*
X5616467Y-18851665D01*
X5616467Y-18851665D02*
X5606943Y-18842141D01*
X5845039Y-18661189D02*
X5864086Y-18661189D01*
X5864086Y-18661189D02*
X5883134Y-18670713D01*
X5883134Y-18670713D02*
X5892658Y-18680236D01*
X5892658Y-18680236D02*
X5902182Y-18699284D01*
X5902182Y-18699284D02*
X5911705Y-18737379D01*
X5911705Y-18737379D02*
X5911705Y-18784998D01*
X5911705Y-18784998D02*
X5902182Y-18823093D01*
X5902182Y-18823093D02*
X5892658Y-18842141D01*
X5892658Y-18842141D02*
X5883134Y-18851665D01*
X5883134Y-18851665D02*
X5864086Y-18861189D01*
X5864086Y-18861189D02*
X5845039Y-18861189D01*
X5845039Y-18861189D02*
X5825991Y-18851665D01*
X5825991Y-18851665D02*
X5816467Y-18842141D01*
X5816467Y-18842141D02*
X5806943Y-18823093D01*
X5806943Y-18823093D02*
X5797420Y-18784998D01*
X5797420Y-18784998D02*
X5797420Y-18737379D01*
X5797420Y-18737379D02*
X5806943Y-18699284D01*
X5806943Y-18699284D02*
X5816467Y-18680236D01*
X5816467Y-18680236D02*
X5825991Y-18670713D01*
X5825991Y-18670713D02*
X5845039Y-18661189D01*
X5997420Y-18861189D02*
X5997420Y-18727855D01*
X5997420Y-18746903D02*
X6006943Y-18737379D01*
X6006943Y-18737379D02*
X6025991Y-18727855D01*
X6025991Y-18727855D02*
X6054563Y-18727855D01*
X6054563Y-18727855D02*
X6073610Y-18737379D01*
X6073610Y-18737379D02*
X6083134Y-18756427D01*
X6083134Y-18756427D02*
X6083134Y-18861189D01*
X6083134Y-18756427D02*
X6092658Y-18737379D01*
X6092658Y-18737379D02*
X6111705Y-18727855D01*
X6111705Y-18727855D02*
X6140277Y-18727855D01*
X6140277Y-18727855D02*
X6159324Y-18737379D01*
X6159324Y-18737379D02*
X6168848Y-18756427D01*
X6168848Y-18756427D02*
X6168848Y-18861189D01*
X6264086Y-18861189D02*
X6264086Y-18727855D01*
X6264086Y-18746903D02*
X6273610Y-18737379D01*
X6273610Y-18737379D02*
X6292658Y-18727855D01*
X6292658Y-18727855D02*
X6321229Y-18727855D01*
X6321229Y-18727855D02*
X6340277Y-18737379D01*
X6340277Y-18737379D02*
X6349801Y-18756427D01*
X6349801Y-18756427D02*
X6349801Y-18861189D01*
X6349801Y-18756427D02*
X6359324Y-18737379D01*
X6359324Y-18737379D02*
X6378372Y-18727855D01*
X6378372Y-18727855D02*
X6406943Y-18727855D01*
X6406943Y-18727855D02*
X6425991Y-18737379D01*
X6425991Y-18737379D02*
X6435515Y-18756427D01*
X6435515Y-18756427D02*
X6435515Y-18861189D01*
X6825991Y-18651665D02*
X6654563Y-18908808D01*
X7083134Y-18661189D02*
X7102182Y-18661189D01*
X7102182Y-18661189D02*
X7121229Y-18670713D01*
X7121229Y-18670713D02*
X7130753Y-18680236D01*
X7130753Y-18680236D02*
X7140277Y-18699284D01*
X7140277Y-18699284D02*
X7149801Y-18737379D01*
X7149801Y-18737379D02*
X7149801Y-18784998D01*
X7149801Y-18784998D02*
X7140277Y-18823093D01*
X7140277Y-18823093D02*
X7130753Y-18842141D01*
X7130753Y-18842141D02*
X7121229Y-18851665D01*
X7121229Y-18851665D02*
X7102182Y-18861189D01*
X7102182Y-18861189D02*
X7083134Y-18861189D01*
X7083134Y-18861189D02*
X7064086Y-18851665D01*
X7064086Y-18851665D02*
X7054563Y-18842141D01*
X7054563Y-18842141D02*
X7045039Y-18823093D01*
X7045039Y-18823093D02*
X7035515Y-18784998D01*
X7035515Y-18784998D02*
X7035515Y-18737379D01*
X7035515Y-18737379D02*
X7045039Y-18699284D01*
X7045039Y-18699284D02*
X7054563Y-18680236D01*
X7054563Y-18680236D02*
X7064086Y-18670713D01*
X7064086Y-18670713D02*
X7083134Y-18661189D01*
X7235515Y-18842141D02*
X7245039Y-18851665D01*
X7245039Y-18851665D02*
X7235515Y-18861189D01*
X7235515Y-18861189D02*
X7225991Y-18851665D01*
X7225991Y-18851665D02*
X7235515Y-18842141D01*
X7235515Y-18842141D02*
X7235515Y-18861189D01*
X7435515Y-18861189D02*
X7321229Y-18861189D01*
X7378372Y-18861189D02*
X7378372Y-18661189D01*
X7378372Y-18661189D02*
X7359325Y-18689760D01*
X7359325Y-18689760D02*
X7340277Y-18708808D01*
X7340277Y-18708808D02*
X7321229Y-18718332D01*
X7511706Y-18680236D02*
X7521229Y-18670713D01*
X7521229Y-18670713D02*
X7540277Y-18661189D01*
X7540277Y-18661189D02*
X7587896Y-18661189D01*
X7587896Y-18661189D02*
X7606944Y-18670713D01*
X7606944Y-18670713D02*
X7616467Y-18680236D01*
X7616467Y-18680236D02*
X7625991Y-18699284D01*
X7625991Y-18699284D02*
X7625991Y-18718332D01*
X7625991Y-18718332D02*
X7616467Y-18746903D01*
X7616467Y-18746903D02*
X7502182Y-18861189D01*
X7502182Y-18861189D02*
X7625991Y-18861189D01*
X7749801Y-18661189D02*
X7768848Y-18661189D01*
X7768848Y-18661189D02*
X7787896Y-18670713D01*
X7787896Y-18670713D02*
X7797420Y-18680236D01*
X7797420Y-18680236D02*
X7806944Y-18699284D01*
X7806944Y-18699284D02*
X7816467Y-18737379D01*
X7816467Y-18737379D02*
X7816467Y-18784998D01*
X7816467Y-18784998D02*
X7806944Y-18823093D01*
X7806944Y-18823093D02*
X7797420Y-18842141D01*
X7797420Y-18842141D02*
X7787896Y-18851665D01*
X7787896Y-18851665D02*
X7768848Y-18861189D01*
X7768848Y-18861189D02*
X7749801Y-18861189D01*
X7749801Y-18861189D02*
X7730753Y-18851665D01*
X7730753Y-18851665D02*
X7721229Y-18842141D01*
X7721229Y-18842141D02*
X7711706Y-18823093D01*
X7711706Y-18823093D02*
X7702182Y-18784998D01*
X7702182Y-18784998D02*
X7702182Y-18737379D01*
X7702182Y-18737379D02*
X7711706Y-18699284D01*
X7711706Y-18699284D02*
X7721229Y-18680236D01*
X7721229Y-18680236D02*
X7730753Y-18670713D01*
X7730753Y-18670713D02*
X7749801Y-18661189D01*
X8006944Y-18861189D02*
X7892658Y-18861189D01*
X7949801Y-18861189D02*
X7949801Y-18661189D01*
X7949801Y-18661189D02*
X7930753Y-18689760D01*
X7930753Y-18689760D02*
X7911706Y-18708808D01*
X7911706Y-18708808D02*
X7892658Y-18718332D01*
X8083134Y-18661189D02*
X8083134Y-18699284D01*
X8159325Y-18661189D02*
X8159325Y-18699284D01*
X8454563Y-18937379D02*
X8445039Y-18927855D01*
X8445039Y-18927855D02*
X8425991Y-18899284D01*
X8425991Y-18899284D02*
X8416468Y-18880236D01*
X8416468Y-18880236D02*
X8406944Y-18851665D01*
X8406944Y-18851665D02*
X8397420Y-18804046D01*
X8397420Y-18804046D02*
X8397420Y-18765951D01*
X8397420Y-18765951D02*
X8406944Y-18718332D01*
X8406944Y-18718332D02*
X8416468Y-18689760D01*
X8416468Y-18689760D02*
X8425991Y-18670713D01*
X8425991Y-18670713D02*
X8445039Y-18642141D01*
X8445039Y-18642141D02*
X8454563Y-18632617D01*
X8616468Y-18727855D02*
X8616468Y-18861189D01*
X8568849Y-18651665D02*
X8521230Y-18794522D01*
X8521230Y-18794522D02*
X8645039Y-18794522D01*
X8711706Y-18680236D02*
X8721230Y-18670713D01*
X8721230Y-18670713D02*
X8740277Y-18661189D01*
X8740277Y-18661189D02*
X8787896Y-18661189D01*
X8787896Y-18661189D02*
X8806944Y-18670713D01*
X8806944Y-18670713D02*
X8816468Y-18680236D01*
X8816468Y-18680236D02*
X8825991Y-18699284D01*
X8825991Y-18699284D02*
X8825991Y-18718332D01*
X8825991Y-18718332D02*
X8816468Y-18746903D01*
X8816468Y-18746903D02*
X8702182Y-18861189D01*
X8702182Y-18861189D02*
X8825991Y-18861189D01*
X9064087Y-18861189D02*
X9064087Y-18661189D01*
X9149801Y-18861189D02*
X9149801Y-18756427D01*
X9149801Y-18756427D02*
X9140277Y-18737379D01*
X9140277Y-18737379D02*
X9121230Y-18727855D01*
X9121230Y-18727855D02*
X9092658Y-18727855D01*
X9092658Y-18727855D02*
X9073611Y-18737379D01*
X9073611Y-18737379D02*
X9064087Y-18746903D01*
X9273611Y-18861189D02*
X9254563Y-18851665D01*
X9254563Y-18851665D02*
X9245039Y-18842141D01*
X9245039Y-18842141D02*
X9235515Y-18823093D01*
X9235515Y-18823093D02*
X9235515Y-18765951D01*
X9235515Y-18765951D02*
X9245039Y-18746903D01*
X9245039Y-18746903D02*
X9254563Y-18737379D01*
X9254563Y-18737379D02*
X9273611Y-18727855D01*
X9273611Y-18727855D02*
X9302182Y-18727855D01*
X9302182Y-18727855D02*
X9321230Y-18737379D01*
X9321230Y-18737379D02*
X9330753Y-18746903D01*
X9330753Y-18746903D02*
X9340277Y-18765951D01*
X9340277Y-18765951D02*
X9340277Y-18823093D01*
X9340277Y-18823093D02*
X9330753Y-18842141D01*
X9330753Y-18842141D02*
X9321230Y-18851665D01*
X9321230Y-18851665D02*
X9302182Y-18861189D01*
X9302182Y-18861189D02*
X9273611Y-18861189D01*
X9454563Y-18861189D02*
X9435515Y-18851665D01*
X9435515Y-18851665D02*
X9425992Y-18832617D01*
X9425992Y-18832617D02*
X9425992Y-18661189D01*
X9606944Y-18851665D02*
X9587896Y-18861189D01*
X9587896Y-18861189D02*
X9549801Y-18861189D01*
X9549801Y-18861189D02*
X9530753Y-18851665D01*
X9530753Y-18851665D02*
X9521230Y-18832617D01*
X9521230Y-18832617D02*
X9521230Y-18756427D01*
X9521230Y-18756427D02*
X9530753Y-18737379D01*
X9530753Y-18737379D02*
X9549801Y-18727855D01*
X9549801Y-18727855D02*
X9587896Y-18727855D01*
X9587896Y-18727855D02*
X9606944Y-18737379D01*
X9606944Y-18737379D02*
X9616468Y-18756427D01*
X9616468Y-18756427D02*
X9616468Y-18775474D01*
X9616468Y-18775474D02*
X9521230Y-18794522D01*
X9692658Y-18851665D02*
X9711706Y-18861189D01*
X9711706Y-18861189D02*
X9749801Y-18861189D01*
X9749801Y-18861189D02*
X9768849Y-18851665D01*
X9768849Y-18851665D02*
X9778373Y-18832617D01*
X9778373Y-18832617D02*
X9778373Y-18823093D01*
X9778373Y-18823093D02*
X9768849Y-18804046D01*
X9768849Y-18804046D02*
X9749801Y-18794522D01*
X9749801Y-18794522D02*
X9721230Y-18794522D01*
X9721230Y-18794522D02*
X9702182Y-18784998D01*
X9702182Y-18784998D02*
X9692658Y-18765951D01*
X9692658Y-18765951D02*
X9692658Y-18756427D01*
X9692658Y-18756427D02*
X9702182Y-18737379D01*
X9702182Y-18737379D02*
X9721230Y-18727855D01*
X9721230Y-18727855D02*
X9749801Y-18727855D01*
X9749801Y-18727855D02*
X9768849Y-18737379D01*
X9845039Y-18937379D02*
X9854563Y-18927855D01*
X9854563Y-18927855D02*
X9873611Y-18899284D01*
X9873611Y-18899284D02*
X9883134Y-18880236D01*
X9883134Y-18880236D02*
X9892658Y-18851665D01*
X9892658Y-18851665D02*
X9902182Y-18804046D01*
X9902182Y-18804046D02*
X9902182Y-18765951D01*
X9902182Y-18765951D02*
X9892658Y-18718332D01*
X9892658Y-18718332D02*
X9883134Y-18689760D01*
X9883134Y-18689760D02*
X9873611Y-18670713D01*
X9873611Y-18670713D02*
X9854563Y-18642141D01*
X9854563Y-18642141D02*
X9845039Y-18632617D01*
X4679500Y-18989705D02*
X4879500Y-19189705D01*
X4879500Y-18989705D02*
X4679500Y-19189705D01*
X4779500Y-19189705D02*
X4879500Y-19089705D01*
X4779500Y-18989705D01*
X4679500Y-19089705D01*
X4779500Y-19189705D01*
X5121229Y-18981189D02*
X5245039Y-18981189D01*
X5245039Y-18981189D02*
X5178372Y-19057379D01*
X5178372Y-19057379D02*
X5206944Y-19057379D01*
X5206944Y-19057379D02*
X5225991Y-19066903D01*
X5225991Y-19066903D02*
X5235515Y-19076427D01*
X5235515Y-19076427D02*
X5245039Y-19095474D01*
X5245039Y-19095474D02*
X5245039Y-19143093D01*
X5245039Y-19143093D02*
X5235515Y-19162141D01*
X5235515Y-19162141D02*
X5225991Y-19171665D01*
X5225991Y-19171665D02*
X5206944Y-19181189D01*
X5206944Y-19181189D02*
X5149801Y-19181189D01*
X5149801Y-19181189D02*
X5130753Y-19171665D01*
X5130753Y-19171665D02*
X5121229Y-19162141D01*
X5330753Y-19162141D02*
X5340277Y-19171665D01*
X5340277Y-19171665D02*
X5330753Y-19181189D01*
X5330753Y-19181189D02*
X5321229Y-19171665D01*
X5321229Y-19171665D02*
X5330753Y-19162141D01*
X5330753Y-19162141D02*
X5330753Y-19181189D01*
X5416467Y-19000236D02*
X5425991Y-18990713D01*
X5425991Y-18990713D02*
X5445039Y-18981189D01*
X5445039Y-18981189D02*
X5492658Y-18981189D01*
X5492658Y-18981189D02*
X5511705Y-18990713D01*
X5511705Y-18990713D02*
X5521229Y-19000236D01*
X5521229Y-19000236D02*
X5530753Y-19019284D01*
X5530753Y-19019284D02*
X5530753Y-19038332D01*
X5530753Y-19038332D02*
X5521229Y-19066903D01*
X5521229Y-19066903D02*
X5406944Y-19181189D01*
X5406944Y-19181189D02*
X5530753Y-19181189D01*
X5654562Y-18981189D02*
X5673610Y-18981189D01*
X5673610Y-18981189D02*
X5692658Y-18990713D01*
X5692658Y-18990713D02*
X5702182Y-19000236D01*
X5702182Y-19000236D02*
X5711705Y-19019284D01*
X5711705Y-19019284D02*
X5721229Y-19057379D01*
X5721229Y-19057379D02*
X5721229Y-19104998D01*
X5721229Y-19104998D02*
X5711705Y-19143093D01*
X5711705Y-19143093D02*
X5702182Y-19162141D01*
X5702182Y-19162141D02*
X5692658Y-19171665D01*
X5692658Y-19171665D02*
X5673610Y-19181189D01*
X5673610Y-19181189D02*
X5654562Y-19181189D01*
X5654562Y-19181189D02*
X5635515Y-19171665D01*
X5635515Y-19171665D02*
X5625991Y-19162141D01*
X5625991Y-19162141D02*
X5616467Y-19143093D01*
X5616467Y-19143093D02*
X5606943Y-19104998D01*
X5606943Y-19104998D02*
X5606943Y-19057379D01*
X5606943Y-19057379D02*
X5616467Y-19019284D01*
X5616467Y-19019284D02*
X5625991Y-19000236D01*
X5625991Y-19000236D02*
X5635515Y-18990713D01*
X5635515Y-18990713D02*
X5654562Y-18981189D01*
X5845039Y-18981189D02*
X5864086Y-18981189D01*
X5864086Y-18981189D02*
X5883134Y-18990713D01*
X5883134Y-18990713D02*
X5892658Y-19000236D01*
X5892658Y-19000236D02*
X5902182Y-19019284D01*
X5902182Y-19019284D02*
X5911705Y-19057379D01*
X5911705Y-19057379D02*
X5911705Y-19104998D01*
X5911705Y-19104998D02*
X5902182Y-19143093D01*
X5902182Y-19143093D02*
X5892658Y-19162141D01*
X5892658Y-19162141D02*
X5883134Y-19171665D01*
X5883134Y-19171665D02*
X5864086Y-19181189D01*
X5864086Y-19181189D02*
X5845039Y-19181189D01*
X5845039Y-19181189D02*
X5825991Y-19171665D01*
X5825991Y-19171665D02*
X5816467Y-19162141D01*
X5816467Y-19162141D02*
X5806943Y-19143093D01*
X5806943Y-19143093D02*
X5797420Y-19104998D01*
X5797420Y-19104998D02*
X5797420Y-19057379D01*
X5797420Y-19057379D02*
X5806943Y-19019284D01*
X5806943Y-19019284D02*
X5816467Y-19000236D01*
X5816467Y-19000236D02*
X5825991Y-18990713D01*
X5825991Y-18990713D02*
X5845039Y-18981189D01*
X5997420Y-19181189D02*
X5997420Y-19047855D01*
X5997420Y-19066903D02*
X6006943Y-19057379D01*
X6006943Y-19057379D02*
X6025991Y-19047855D01*
X6025991Y-19047855D02*
X6054563Y-19047855D01*
X6054563Y-19047855D02*
X6073610Y-19057379D01*
X6073610Y-19057379D02*
X6083134Y-19076427D01*
X6083134Y-19076427D02*
X6083134Y-19181189D01*
X6083134Y-19076427D02*
X6092658Y-19057379D01*
X6092658Y-19057379D02*
X6111705Y-19047855D01*
X6111705Y-19047855D02*
X6140277Y-19047855D01*
X6140277Y-19047855D02*
X6159324Y-19057379D01*
X6159324Y-19057379D02*
X6168848Y-19076427D01*
X6168848Y-19076427D02*
X6168848Y-19181189D01*
X6264086Y-19181189D02*
X6264086Y-19047855D01*
X6264086Y-19066903D02*
X6273610Y-19057379D01*
X6273610Y-19057379D02*
X6292658Y-19047855D01*
X6292658Y-19047855D02*
X6321229Y-19047855D01*
X6321229Y-19047855D02*
X6340277Y-19057379D01*
X6340277Y-19057379D02*
X6349801Y-19076427D01*
X6349801Y-19076427D02*
X6349801Y-19181189D01*
X6349801Y-19076427D02*
X6359324Y-19057379D01*
X6359324Y-19057379D02*
X6378372Y-19047855D01*
X6378372Y-19047855D02*
X6406943Y-19047855D01*
X6406943Y-19047855D02*
X6425991Y-19057379D01*
X6425991Y-19057379D02*
X6435515Y-19076427D01*
X6435515Y-19076427D02*
X6435515Y-19181189D01*
X6825991Y-18971665D02*
X6654563Y-19228808D01*
X7083134Y-18981189D02*
X7102182Y-18981189D01*
X7102182Y-18981189D02*
X7121229Y-18990713D01*
X7121229Y-18990713D02*
X7130753Y-19000236D01*
X7130753Y-19000236D02*
X7140277Y-19019284D01*
X7140277Y-19019284D02*
X7149801Y-19057379D01*
X7149801Y-19057379D02*
X7149801Y-19104998D01*
X7149801Y-19104998D02*
X7140277Y-19143093D01*
X7140277Y-19143093D02*
X7130753Y-19162141D01*
X7130753Y-19162141D02*
X7121229Y-19171665D01*
X7121229Y-19171665D02*
X7102182Y-19181189D01*
X7102182Y-19181189D02*
X7083134Y-19181189D01*
X7083134Y-19181189D02*
X7064086Y-19171665D01*
X7064086Y-19171665D02*
X7054563Y-19162141D01*
X7054563Y-19162141D02*
X7045039Y-19143093D01*
X7045039Y-19143093D02*
X7035515Y-19104998D01*
X7035515Y-19104998D02*
X7035515Y-19057379D01*
X7035515Y-19057379D02*
X7045039Y-19019284D01*
X7045039Y-19019284D02*
X7054563Y-19000236D01*
X7054563Y-19000236D02*
X7064086Y-18990713D01*
X7064086Y-18990713D02*
X7083134Y-18981189D01*
X7235515Y-19162141D02*
X7245039Y-19171665D01*
X7245039Y-19171665D02*
X7235515Y-19181189D01*
X7235515Y-19181189D02*
X7225991Y-19171665D01*
X7225991Y-19171665D02*
X7235515Y-19162141D01*
X7235515Y-19162141D02*
X7235515Y-19181189D01*
X7435515Y-19181189D02*
X7321229Y-19181189D01*
X7378372Y-19181189D02*
X7378372Y-18981189D01*
X7378372Y-18981189D02*
X7359325Y-19009760D01*
X7359325Y-19009760D02*
X7340277Y-19028808D01*
X7340277Y-19028808D02*
X7321229Y-19038332D01*
X7511706Y-19000236D02*
X7521229Y-18990713D01*
X7521229Y-18990713D02*
X7540277Y-18981189D01*
X7540277Y-18981189D02*
X7587896Y-18981189D01*
X7587896Y-18981189D02*
X7606944Y-18990713D01*
X7606944Y-18990713D02*
X7616467Y-19000236D01*
X7616467Y-19000236D02*
X7625991Y-19019284D01*
X7625991Y-19019284D02*
X7625991Y-19038332D01*
X7625991Y-19038332D02*
X7616467Y-19066903D01*
X7616467Y-19066903D02*
X7502182Y-19181189D01*
X7502182Y-19181189D02*
X7625991Y-19181189D01*
X7797420Y-18981189D02*
X7759325Y-18981189D01*
X7759325Y-18981189D02*
X7740277Y-18990713D01*
X7740277Y-18990713D02*
X7730753Y-19000236D01*
X7730753Y-19000236D02*
X7711706Y-19028808D01*
X7711706Y-19028808D02*
X7702182Y-19066903D01*
X7702182Y-19066903D02*
X7702182Y-19143093D01*
X7702182Y-19143093D02*
X7711706Y-19162141D01*
X7711706Y-19162141D02*
X7721229Y-19171665D01*
X7721229Y-19171665D02*
X7740277Y-19181189D01*
X7740277Y-19181189D02*
X7778372Y-19181189D01*
X7778372Y-19181189D02*
X7797420Y-19171665D01*
X7797420Y-19171665D02*
X7806944Y-19162141D01*
X7806944Y-19162141D02*
X7816467Y-19143093D01*
X7816467Y-19143093D02*
X7816467Y-19095474D01*
X7816467Y-19095474D02*
X7806944Y-19076427D01*
X7806944Y-19076427D02*
X7797420Y-19066903D01*
X7797420Y-19066903D02*
X7778372Y-19057379D01*
X7778372Y-19057379D02*
X7740277Y-19057379D01*
X7740277Y-19057379D02*
X7721229Y-19066903D01*
X7721229Y-19066903D02*
X7711706Y-19076427D01*
X7711706Y-19076427D02*
X7702182Y-19095474D01*
X7940277Y-18981189D02*
X7959325Y-18981189D01*
X7959325Y-18981189D02*
X7978372Y-18990713D01*
X7978372Y-18990713D02*
X7987896Y-19000236D01*
X7987896Y-19000236D02*
X7997420Y-19019284D01*
X7997420Y-19019284D02*
X8006944Y-19057379D01*
X8006944Y-19057379D02*
X8006944Y-19104998D01*
X8006944Y-19104998D02*
X7997420Y-19143093D01*
X7997420Y-19143093D02*
X7987896Y-19162141D01*
X7987896Y-19162141D02*
X7978372Y-19171665D01*
X7978372Y-19171665D02*
X7959325Y-19181189D01*
X7959325Y-19181189D02*
X7940277Y-19181189D01*
X7940277Y-19181189D02*
X7921229Y-19171665D01*
X7921229Y-19171665D02*
X7911706Y-19162141D01*
X7911706Y-19162141D02*
X7902182Y-19143093D01*
X7902182Y-19143093D02*
X7892658Y-19104998D01*
X7892658Y-19104998D02*
X7892658Y-19057379D01*
X7892658Y-19057379D02*
X7902182Y-19019284D01*
X7902182Y-19019284D02*
X7911706Y-19000236D01*
X7911706Y-19000236D02*
X7921229Y-18990713D01*
X7921229Y-18990713D02*
X7940277Y-18981189D01*
X8083134Y-18981189D02*
X8083134Y-19019284D01*
X8159325Y-18981189D02*
X8159325Y-19019284D01*
X8454563Y-19257379D02*
X8445039Y-19247855D01*
X8445039Y-19247855D02*
X8425991Y-19219284D01*
X8425991Y-19219284D02*
X8416468Y-19200236D01*
X8416468Y-19200236D02*
X8406944Y-19171665D01*
X8406944Y-19171665D02*
X8397420Y-19124046D01*
X8397420Y-19124046D02*
X8397420Y-19085951D01*
X8397420Y-19085951D02*
X8406944Y-19038332D01*
X8406944Y-19038332D02*
X8416468Y-19009760D01*
X8416468Y-19009760D02*
X8425991Y-18990713D01*
X8425991Y-18990713D02*
X8445039Y-18962141D01*
X8445039Y-18962141D02*
X8454563Y-18952617D01*
X8616468Y-18981189D02*
X8578372Y-18981189D01*
X8578372Y-18981189D02*
X8559325Y-18990713D01*
X8559325Y-18990713D02*
X8549801Y-19000236D01*
X8549801Y-19000236D02*
X8530753Y-19028808D01*
X8530753Y-19028808D02*
X8521230Y-19066903D01*
X8521230Y-19066903D02*
X8521230Y-19143093D01*
X8521230Y-19143093D02*
X8530753Y-19162141D01*
X8530753Y-19162141D02*
X8540277Y-19171665D01*
X8540277Y-19171665D02*
X8559325Y-19181189D01*
X8559325Y-19181189D02*
X8597420Y-19181189D01*
X8597420Y-19181189D02*
X8616468Y-19171665D01*
X8616468Y-19171665D02*
X8625991Y-19162141D01*
X8625991Y-19162141D02*
X8635515Y-19143093D01*
X8635515Y-19143093D02*
X8635515Y-19095474D01*
X8635515Y-19095474D02*
X8625991Y-19076427D01*
X8625991Y-19076427D02*
X8616468Y-19066903D01*
X8616468Y-19066903D02*
X8597420Y-19057379D01*
X8597420Y-19057379D02*
X8559325Y-19057379D01*
X8559325Y-19057379D02*
X8540277Y-19066903D01*
X8540277Y-19066903D02*
X8530753Y-19076427D01*
X8530753Y-19076427D02*
X8521230Y-19095474D01*
X8873611Y-19181189D02*
X8873611Y-18981189D01*
X8959325Y-19181189D02*
X8959325Y-19076427D01*
X8959325Y-19076427D02*
X8949801Y-19057379D01*
X8949801Y-19057379D02*
X8930753Y-19047855D01*
X8930753Y-19047855D02*
X8902182Y-19047855D01*
X8902182Y-19047855D02*
X8883134Y-19057379D01*
X8883134Y-19057379D02*
X8873611Y-19066903D01*
X9083134Y-19181189D02*
X9064087Y-19171665D01*
X9064087Y-19171665D02*
X9054563Y-19162141D01*
X9054563Y-19162141D02*
X9045039Y-19143093D01*
X9045039Y-19143093D02*
X9045039Y-19085951D01*
X9045039Y-19085951D02*
X9054563Y-19066903D01*
X9054563Y-19066903D02*
X9064087Y-19057379D01*
X9064087Y-19057379D02*
X9083134Y-19047855D01*
X9083134Y-19047855D02*
X9111706Y-19047855D01*
X9111706Y-19047855D02*
X9130753Y-19057379D01*
X9130753Y-19057379D02*
X9140277Y-19066903D01*
X9140277Y-19066903D02*
X9149801Y-19085951D01*
X9149801Y-19085951D02*
X9149801Y-19143093D01*
X9149801Y-19143093D02*
X9140277Y-19162141D01*
X9140277Y-19162141D02*
X9130753Y-19171665D01*
X9130753Y-19171665D02*
X9111706Y-19181189D01*
X9111706Y-19181189D02*
X9083134Y-19181189D01*
X9264087Y-19181189D02*
X9245039Y-19171665D01*
X9245039Y-19171665D02*
X9235515Y-19152617D01*
X9235515Y-19152617D02*
X9235515Y-18981189D01*
X9416468Y-19171665D02*
X9397420Y-19181189D01*
X9397420Y-19181189D02*
X9359325Y-19181189D01*
X9359325Y-19181189D02*
X9340277Y-19171665D01*
X9340277Y-19171665D02*
X9330753Y-19152617D01*
X9330753Y-19152617D02*
X9330753Y-19076427D01*
X9330753Y-19076427D02*
X9340277Y-19057379D01*
X9340277Y-19057379D02*
X9359325Y-19047855D01*
X9359325Y-19047855D02*
X9397420Y-19047855D01*
X9397420Y-19047855D02*
X9416468Y-19057379D01*
X9416468Y-19057379D02*
X9425992Y-19076427D01*
X9425992Y-19076427D02*
X9425992Y-19095474D01*
X9425992Y-19095474D02*
X9330753Y-19114522D01*
X9502182Y-19171665D02*
X9521230Y-19181189D01*
X9521230Y-19181189D02*
X9559325Y-19181189D01*
X9559325Y-19181189D02*
X9578373Y-19171665D01*
X9578373Y-19171665D02*
X9587896Y-19152617D01*
X9587896Y-19152617D02*
X9587896Y-19143093D01*
X9587896Y-19143093D02*
X9578373Y-19124046D01*
X9578373Y-19124046D02*
X9559325Y-19114522D01*
X9559325Y-19114522D02*
X9530753Y-19114522D01*
X9530753Y-19114522D02*
X9511706Y-19104998D01*
X9511706Y-19104998D02*
X9502182Y-19085951D01*
X9502182Y-19085951D02*
X9502182Y-19076427D01*
X9502182Y-19076427D02*
X9511706Y-19057379D01*
X9511706Y-19057379D02*
X9530753Y-19047855D01*
X9530753Y-19047855D02*
X9559325Y-19047855D01*
X9559325Y-19047855D02*
X9578373Y-19057379D01*
X9654563Y-19257379D02*
X9664087Y-19247855D01*
X9664087Y-19247855D02*
X9683134Y-19219284D01*
X9683134Y-19219284D02*
X9692658Y-19200236D01*
X9692658Y-19200236D02*
X9702182Y-19171665D01*
X9702182Y-19171665D02*
X9711706Y-19124046D01*
X9711706Y-19124046D02*
X9711706Y-19085951D01*
X9711706Y-19085951D02*
X9702182Y-19038332D01*
X9702182Y-19038332D02*
X9692658Y-19009760D01*
X9692658Y-19009760D02*
X9683134Y-18990713D01*
X9683134Y-18990713D02*
X9664087Y-18962141D01*
X9664087Y-18962141D02*
X9654563Y-18952617D01*
M02*
