M48
; DRILL file KiCad 10.0.3 date 2026-06-15T17:38:38
; FORMAT={-:-/ absolute / metric / decimal}
; #@! TF.CreationDate,2026-06-15T17:38:38+08:00
; #@! TF.GenerationSoftware,Kicad,Pcbnew,10.0.3
; #@! TF.FileFunction,NonPlated,1,2,NPTH
FMAT,2
METRIC
; #@! TA.AperFunction,NonPlated,NPTH,ComponentDrill
T1C1.750
; #@! TA.AperFunction,NonPlated,NPTH,ComponentDrill
T2C1.850
; #@! TA.AperFunction,NonPlated,NPTH,ComponentDrill
T3C2.200
; #@! TA.AperFunction,NonPlated,NPTH,ComponentDrill
T4C3.048
; #@! TA.AperFunction,NonPlated,NPTH,ComponentDrill
T5C3.988
; #@! TA.AperFunction,NonPlated,NPTH,ComponentDrill
T6C4.000
%
G90
G05
T1
X55.88Y-93.726
X55.88Y-112.776
X55.88Y-131.826
X55.88Y-150.876
X65.405Y-74.676
X66.04Y-93.726
X66.04Y-112.776
X66.04Y-131.826
X66.04Y-150.876
X74.93Y-93.726
X74.93Y-112.776
X74.93Y-131.826
X75.565Y-74.676
X85.09Y-93.726
X85.09Y-112.776
X85.09Y-131.826
X93.98Y-93.726
X93.98Y-112.776
X93.98Y-131.826
X93.98Y-150.876
X103.505Y-74.676
X104.14Y-93.726
X104.14Y-112.776
X104.14Y-131.826
X104.14Y-150.876
X113.03Y-93.726
X113.03Y-112.776
X113.03Y-131.826
X113.665Y-74.676
X123.19Y-93.726
X123.19Y-112.776
X123.19Y-131.826
X176.225Y-82.024
X180.975Y-54.864
X186.385Y-82.024
X191.135Y-54.864
X195.275Y-82.024
X205.435Y-82.024
X209.55Y-54.864
X214.325Y-82.024
X219.71Y-54.864
X224.485Y-82.024
T2
X149.75Y-73.46
X154.6Y-73.46
T3
X149.45Y-70.43
X154.9Y-70.43
T4
X58.579Y-67.691
X80.01Y-143.891
X82.391Y-67.691
X96.679Y-67.691
X118.11Y-143.891
X120.491Y-67.691
T5
X58.579Y-82.931
X80.01Y-159.131
X82.391Y-82.931
X96.679Y-82.931
X118.11Y-159.131
X120.491Y-82.931
T6
X60.96Y-93.726
X60.96Y-112.776
X60.96Y-131.826
X60.96Y-150.876
X70.485Y-74.676
X80.01Y-93.726
X80.01Y-112.776
X80.01Y-131.826
X99.06Y-93.726
X99.06Y-112.776
X99.06Y-131.826
X99.06Y-150.876
X108.585Y-74.676
X118.11Y-93.726
X118.11Y-112.776
X118.11Y-131.826
X181.305Y-82.024
X186.055Y-54.864
X200.355Y-82.024
X214.63Y-54.864
X219.405Y-82.024
M30
