G04 #@! TF.GenerationSoftware,KiCad,Pcbnew,10.0.3*
G04 #@! TF.CreationDate,2026-06-15T17:38:38+08:00*
G04 #@! TF.ProjectId,blackmacro_base,626c6163-6b6d-4616-9372-6f5f62617365,5-FAB1*
G04 #@! TF.SameCoordinates,Original*
G04 #@! TF.FileFunction,Paste,Bot*
G04 #@! TF.FilePolarity,Positive*
%FSLAX46Y46*%
G04 Gerber Fmt 4.6, Leading zero omitted, Abs format (unit mm)*
G04 Created by KiCad (PCBNEW 10.0.3) date 2026-06-15 17:38:38*
%MOMM*%
%LPD*%
G01*
G04 APERTURE LIST*
G04 Aperture macros list*
%AMRoundRect*
0 Rectangle with rounded corners*
0 $1 Rounding radius*
0 $2 $3 $4 $5 $6 $7 $8 $9 X,Y pos of 4 corners*
0 Add a 4 corners polygon primitive as box body*
4,1,4,$2,$3,$4,$5,$6,$7,$8,$9,$2,$3,0*
0 Add four circle primitives for the rounded corners*
1,1,$1+$1,$2,$3*
1,1,$1+$1,$4,$5*
1,1,$1+$1,$6,$7*
1,1,$1+$1,$8,$9*
0 Add four rect primitives between the rounded corners*
20,1,$1+$1,$2,$3,$4,$5,0*
20,1,$1+$1,$4,$5,$6,$7,0*
20,1,$1+$1,$6,$7,$8,$9,0*
20,1,$1+$1,$8,$9,$2,$3,0*%
%AMFreePoly0*
4,1,18,-0.410000,0.593000,-0.403758,0.624380,-0.385983,0.650983,-0.359380,0.668758,-0.328000,0.675000,0.328000,0.675000,0.359380,0.668758,0.385983,0.650983,0.403758,0.624380,0.410000,0.593000,0.410000,-0.593000,0.403758,-0.624380,0.385983,-0.650983,0.359380,-0.668758,0.328000,-0.675000,0.000000,-0.675000,-0.410000,-0.265000,-0.410000,0.593000,-0.410000,0.593000,$1*%
G04 Aperture macros list end*
%ADD10RoundRect,0.250000X-1.025000X-1.000000X1.025000X-1.000000X1.025000X1.000000X-1.025000X1.000000X0*%
%ADD11RoundRect,0.082000X0.593000X-0.328000X0.593000X0.328000X-0.593000X0.328000X-0.593000X-0.328000X0*%
%ADD12FreePoly0,90.000000*%
%ADD13RoundRect,0.250000X-0.650000X0.412500X-0.650000X-0.412500X0.650000X-0.412500X0.650000X0.412500X0*%
%ADD14RoundRect,0.162500X0.162500X-0.617500X0.162500X0.617500X-0.162500X0.617500X-0.162500X-0.617500X0*%
G04 APERTURE END LIST*
D10*
G04 #@! TO.C,SW_LE1*
X53875000Y-148336000D03*
X66802000Y-145796000D03*
G04 #@! TD*
G04 #@! TO.C,SW_LD4*
X111025000Y-129286000D03*
X123952000Y-126746000D03*
G04 #@! TD*
G04 #@! TO.C,SW_LD3*
X91975000Y-129286000D03*
X104902000Y-126746000D03*
G04 #@! TD*
G04 #@! TO.C,SW_LC4*
X111025000Y-110236000D03*
X123952000Y-107696000D03*
G04 #@! TD*
G04 #@! TO.C,SW_LE2*
X91975000Y-148336000D03*
X104902000Y-145796000D03*
G04 #@! TD*
G04 #@! TO.C,SW_LB4*
X111025000Y-91186000D03*
X123952000Y-88646000D03*
G04 #@! TD*
G04 #@! TO.C,SW_LD1*
X53875000Y-129286000D03*
X66802000Y-126746000D03*
G04 #@! TD*
G04 #@! TO.C,SW_LD2*
X72925000Y-129286000D03*
X85852000Y-126746000D03*
G04 #@! TD*
G04 #@! TO.C,SW_LA2*
X101500000Y-72136000D03*
X114427000Y-69596000D03*
G04 #@! TD*
G04 #@! TO.C,SW_LC3*
X91975000Y-110236000D03*
X104902000Y-107696000D03*
G04 #@! TD*
G04 #@! TO.C,SW_RA1*
X178970000Y-52324000D03*
X191897000Y-49784000D03*
G04 #@! TD*
G04 #@! TO.C,SW_RB3*
X212320200Y-79484000D03*
X225247200Y-76944000D03*
G04 #@! TD*
G04 #@! TO.C,SW_RB2*
X193270200Y-79484000D03*
X206197200Y-76944000D03*
G04 #@! TD*
G04 #@! TO.C,SW_LC1*
X53875000Y-110236000D03*
X66802000Y-107696000D03*
G04 #@! TD*
G04 #@! TO.C,SW_LA1*
X63400000Y-72136000D03*
X76327000Y-69596000D03*
G04 #@! TD*
G04 #@! TO.C,SW_LB2*
X72925000Y-91186000D03*
X85852000Y-88646000D03*
G04 #@! TD*
G04 #@! TO.C,SW_LB1*
X53875000Y-91186000D03*
X66802000Y-88646000D03*
G04 #@! TD*
G04 #@! TO.C,SW_LB3*
X91975000Y-91186000D03*
X104902000Y-88646000D03*
G04 #@! TD*
G04 #@! TO.C,SW_RB1*
X174220200Y-79484000D03*
X187147200Y-76944000D03*
G04 #@! TD*
G04 #@! TO.C,SW_RA2*
X207545000Y-52324000D03*
X220472000Y-49784000D03*
G04 #@! TD*
G04 #@! TO.C,SW_LC2*
X72925000Y-110236000D03*
X85852000Y-107696000D03*
G04 #@! TD*
D11*
G04 #@! TO.C,LED17*
X216680200Y-86346600D03*
X216680200Y-87846600D03*
X222130200Y-86346600D03*
D12*
X222130200Y-87846600D03*
G04 #@! TD*
D11*
G04 #@! TO.C,LED2*
X67760000Y-79006000D03*
X67760000Y-80506000D03*
X73210000Y-79006000D03*
D12*
X73210000Y-80506000D03*
G04 #@! TD*
D11*
G04 #@! TO.C,LED5*
X77285000Y-98056000D03*
X77285000Y-99556000D03*
X82735000Y-98056000D03*
D12*
X82735000Y-99556000D03*
G04 #@! TD*
D11*
G04 #@! TO.C,LED15*
X96335000Y-155206000D03*
X96335000Y-156706000D03*
X101785000Y-155206000D03*
D12*
X101785000Y-156706000D03*
G04 #@! TD*
D13*
G04 #@! TO.C,C5*
X157480000Y-80733500D03*
X157480000Y-83858500D03*
G04 #@! TD*
D11*
G04 #@! TO.C,LED19*
X178580200Y-86346600D03*
X178580200Y-87846600D03*
X184030200Y-86346600D03*
D12*
X184030200Y-87846600D03*
G04 #@! TD*
D11*
G04 #@! TO.C,LED10*
X58235000Y-117106000D03*
X58235000Y-118606000D03*
X63685000Y-117106000D03*
D12*
X63685000Y-118606000D03*
G04 #@! TD*
D11*
G04 #@! TO.C,LED6*
X58235000Y-98056000D03*
X58235000Y-99556000D03*
X63685000Y-98056000D03*
D12*
X63685000Y-99556000D03*
G04 #@! TD*
D11*
G04 #@! TO.C,LED1*
X105860000Y-79006000D03*
X105860000Y-80506000D03*
X111310000Y-79006000D03*
D12*
X111310000Y-80506000D03*
G04 #@! TD*
D11*
G04 #@! TO.C,LED3*
X115385000Y-98056000D03*
X115385000Y-99556000D03*
X120835000Y-98056000D03*
D12*
X120835000Y-99556000D03*
G04 #@! TD*
D13*
G04 #@! TO.C,C4*
X153162000Y-77685500D03*
X153162000Y-80810500D03*
G04 #@! TD*
D11*
G04 #@! TO.C,LED12*
X96335000Y-136156000D03*
X96335000Y-137656000D03*
X101785000Y-136156000D03*
D12*
X101785000Y-137656000D03*
G04 #@! TD*
D11*
G04 #@! TO.C,LED9*
X77285000Y-117106000D03*
X77285000Y-118606000D03*
X82735000Y-117106000D03*
D12*
X82735000Y-118606000D03*
G04 #@! TD*
D11*
G04 #@! TO.C,LED8*
X96335000Y-117106000D03*
X96335000Y-118606000D03*
X101785000Y-117106000D03*
D12*
X101785000Y-118606000D03*
G04 #@! TD*
D11*
G04 #@! TO.C,LED18*
X197630200Y-86346600D03*
X197630200Y-87846600D03*
X203080200Y-86346600D03*
D12*
X203080200Y-87846600D03*
G04 #@! TD*
D11*
G04 #@! TO.C,LED13*
X77285000Y-136156000D03*
X77285000Y-137656000D03*
X82735000Y-136156000D03*
D12*
X82735000Y-137656000D03*
G04 #@! TD*
D11*
G04 #@! TO.C,LED16*
X58235000Y-155206000D03*
X58235000Y-156706000D03*
X63685000Y-155206000D03*
D12*
X63685000Y-156706000D03*
G04 #@! TD*
D14*
G04 #@! TO.C,U3*
X154112000Y-86186000D03*
X153162000Y-86186000D03*
X152212000Y-86186000D03*
X152212000Y-83486000D03*
X153162000Y-83486000D03*
X154112000Y-83486000D03*
G04 #@! TD*
D11*
G04 #@! TO.C,LED20*
X211905000Y-59194000D03*
X211905000Y-60694000D03*
X217355000Y-59194000D03*
D12*
X217355000Y-60694000D03*
G04 #@! TD*
D11*
G04 #@! TO.C,LED11*
X115385000Y-136156000D03*
X115385000Y-137656000D03*
X120835000Y-136156000D03*
D12*
X120835000Y-137656000D03*
G04 #@! TD*
D11*
G04 #@! TO.C,LED4*
X96335000Y-98056000D03*
X96335000Y-99556000D03*
X101785000Y-98056000D03*
D12*
X101785000Y-99556000D03*
G04 #@! TD*
D11*
G04 #@! TO.C,LED7*
X115385000Y-117106000D03*
X115385000Y-118606000D03*
X120835000Y-117106000D03*
D12*
X120835000Y-118606000D03*
G04 #@! TD*
D11*
G04 #@! TO.C,LED21*
X183330000Y-59194000D03*
X183330000Y-60694000D03*
X188780000Y-59194000D03*
D12*
X188780000Y-60694000D03*
G04 #@! TD*
D11*
G04 #@! TO.C,LED14*
X58235000Y-136156000D03*
X58235000Y-137656000D03*
X63685000Y-136156000D03*
D12*
X63685000Y-137656000D03*
G04 #@! TD*
M02*
