G04 #@! TF.GenerationSoftware,KiCad,Pcbnew,10.0.3*
G04 #@! TF.CreationDate,2026-06-15T17:38:38+08:00*
G04 #@! TF.ProjectId,blackmacro_base,626c6163-6b6d-4616-9372-6f5f62617365,5-FAB1*
G04 #@! TF.SameCoordinates,Original*
G04 #@! TF.FileFunction,Paste,Top*
G04 #@! TF.FilePolarity,Positive*
%FSLAX46Y46*%
G04 Gerber Fmt 4.6, Leading zero omitted, Abs format (unit mm)*
G04 Created by KiCad (PCBNEW 10.0.3) date 2026-06-15 17:38:38*
%MOMM*%
%LPD*%
G01*
G04 APERTURE LIST*
G04 Aperture macros list*
%AMRoundRect*
0 Rectangle with rounded corners*
0 $1 Rounding radius*
0 $2 $3 $4 $5 $6 $7 $8 $9 X,Y pos of 4 corners*
0 Add a 4 corners polygon primitive as box body*
4,1,4,$2,$3,$4,$5,$6,$7,$8,$9,$2,$3,0*
0 Add four circle primitives for the rounded corners*
1,1,$1+$1,$2,$3*
1,1,$1+$1,$4,$5*
1,1,$1+$1,$6,$7*
1,1,$1+$1,$8,$9*
0 Add four rect primitives between the rounded corners*
20,1,$1+$1,$2,$3,$4,$5,0*
20,1,$1+$1,$4,$5,$6,$7,0*
20,1,$1+$1,$6,$7,$8,$9,0*
20,1,$1+$1,$8,$9,$2,$3,0*%
G04 Aperture macros list end*
%ADD10RoundRect,0.250000X0.350000X0.450000X-0.350000X0.450000X-0.350000X-0.450000X0.350000X-0.450000X0*%
%ADD11RoundRect,0.250000X-0.650000X0.412500X-0.650000X-0.412500X0.650000X-0.412500X0.650000X0.412500X0*%
%ADD12RoundRect,0.150000X0.825000X0.150000X-0.825000X0.150000X-0.825000X-0.150000X0.825000X-0.150000X0*%
%ADD13R,3.800000X2.200000*%
%ADD14RoundRect,0.250000X0.412500X0.650000X-0.412500X0.650000X-0.412500X-0.650000X0.412500X-0.650000X0*%
G04 APERTURE END LIST*
D10*
G04 #@! TO.C,R5*
X138176000Y-70231000D03*
X136176000Y-70231000D03*
G04 #@! TD*
G04 #@! TO.C,R6*
X138176000Y-73152000D03*
X136176000Y-73152000D03*
G04 #@! TD*
D11*
G04 #@! TO.C,C11*
X209804000Y-87337500D03*
X209804000Y-90462500D03*
G04 #@! TD*
G04 #@! TO.C,C10*
X87884000Y-154393500D03*
X87884000Y-157518500D03*
G04 #@! TD*
G04 #@! TO.C,C7*
X89408000Y-120865500D03*
X89408000Y-123990500D03*
G04 #@! TD*
G04 #@! TO.C,C6*
X89408000Y-79209500D03*
X89408000Y-82334500D03*
G04 #@! TD*
D10*
G04 #@! TO.C,R7*
X138176000Y-77851000D03*
X136176000Y-77851000D03*
G04 #@! TD*
G04 #@! TO.C,R8*
X138176000Y-80772000D03*
X136176000Y-80772000D03*
G04 #@! TD*
D11*
G04 #@! TO.C,C8*
X200406000Y-59397500D03*
X200406000Y-62522500D03*
G04 #@! TD*
G04 #@! TO.C,C9*
X89408000Y-101561500D03*
X89408000Y-104686500D03*
G04 #@! TD*
G04 #@! TO.C,C12*
X89408000Y-137629500D03*
X89408000Y-140754500D03*
G04 #@! TD*
D12*
G04 #@! TO.C,U2*
X137030000Y-102108000D03*
X137030000Y-100838000D03*
X137030000Y-99568000D03*
X137030000Y-98298000D03*
X137030000Y-97028000D03*
X137030000Y-95758000D03*
X137030000Y-94488000D03*
X137030000Y-93218000D03*
X132080000Y-93218000D03*
X132080000Y-94488000D03*
X132080000Y-95758000D03*
X132080000Y-97028000D03*
X132080000Y-98298000D03*
X132080000Y-99568000D03*
X132080000Y-100838000D03*
X132080000Y-102108000D03*
G04 #@! TD*
D13*
G04 #@! TO.C,A1*
X142484966Y-70300171D03*
X142484966Y-72840171D03*
X142484966Y-75380171D03*
X142484966Y-77920171D03*
X142484966Y-80460171D03*
X142484966Y-83000171D03*
X142484966Y-85540171D03*
X142484966Y-88080171D03*
X142484966Y-90620171D03*
X142484966Y-93160171D03*
X142484966Y-95700171D03*
X142484966Y-98240171D03*
X142484966Y-100780171D03*
X142484966Y-103320171D03*
X142484966Y-105860171D03*
X142484966Y-108400171D03*
X142484966Y-110940171D03*
X142484966Y-113480171D03*
X142484966Y-116020171D03*
X142484966Y-118560171D03*
X161864966Y-70300171D03*
X161864966Y-72840171D03*
X161864966Y-75380171D03*
X161864966Y-77920171D03*
X161864966Y-80460171D03*
X161864966Y-83000171D03*
X161864966Y-85540171D03*
X161864966Y-88080171D03*
X161864966Y-90620171D03*
X161864966Y-93160171D03*
X161864966Y-95700171D03*
X161864966Y-98240171D03*
X161864966Y-100780171D03*
X161864966Y-103320171D03*
X161864966Y-105860171D03*
X161864966Y-108400171D03*
X161864966Y-110940171D03*
X161864966Y-113480171D03*
X161864966Y-116020171D03*
X161864966Y-118560171D03*
G04 #@! TD*
D14*
G04 #@! TO.C,C3*
X136117500Y-105791000D03*
X132992500Y-105791000D03*
G04 #@! TD*
M02*
