G04 #@! TF.GenerationSoftware,KiCad,Pcbnew,10.0.3*
G04 #@! TF.CreationDate,2026-06-15T17:38:38+08:00*
G04 #@! TF.ProjectId,blackmacro_base,626c6163-6b6d-4616-9372-6f5f62617365,5-FAB1*
G04 #@! TF.SameCoordinates,Original*
G04 #@! TF.FileFunction,Soldermask,Bot*
G04 #@! TF.FilePolarity,Negative*
%FSLAX46Y46*%
G04 Gerber Fmt 4.6, Leading zero omitted, Abs format (unit mm)*
G04 Created by KiCad (PCBNEW 10.0.3) date 2026-06-15 17:38:38*
%MOMM*%
%LPD*%
G01*
G04 APERTURE LIST*
G04 Aperture macros list*
%AMRoundRect*
0 Rectangle with rounded corners*
0 $1 Rounding radius*
0 $2 $3 $4 $5 $6 $7 $8 $9 X,Y pos of 4 corners*
0 Add a 4 corners polygon primitive as box body*
4,1,4,$2,$3,$4,$5,$6,$7,$8,$9,$2,$3,0*
0 Add four circle primitives for the rounded corners*
1,1,$1+$1,$2,$3*
1,1,$1+$1,$4,$5*
1,1,$1+$1,$6,$7*
1,1,$1+$1,$8,$9*
0 Add four rect primitives between the rounded corners*
20,1,$1+$1,$2,$3,$4,$5,0*
20,1,$1+$1,$4,$5,$6,$7,0*
20,1,$1+$1,$6,$7,$8,$9,0*
20,1,$1+$1,$8,$9,$2,$3,0*%
%AMFreePoly0*
4,1,18,-0.410000,0.593000,-0.403758,0.624380,-0.385983,0.650983,-0.359380,0.668758,-0.328000,0.675000,0.328000,0.675000,0.359380,0.668758,0.385983,0.650983,0.403758,0.624380,0.410000,0.593000,0.410000,-0.593000,0.403758,-0.624380,0.385983,-0.650983,0.359380,-0.668758,0.328000,-0.675000,0.000000,-0.675000,-0.410000,-0.265000,-0.410000,0.593000,-0.410000,0.593000,$1*%
G04 Aperture macros list end*
%ADD10C,0.200000*%
%ADD11C,0.187500*%
%ADD12C,0.000000*%
%ADD13C,1.500000*%
%ADD14RoundRect,0.250000X-0.600000X0.600000X-0.600000X-0.600000X0.600000X-0.600000X0.600000X0.600000X0*%
%ADD15C,1.700000*%
%ADD16RoundRect,0.250000X-1.025000X-1.000000X1.025000X-1.000000X1.025000X1.000000X-1.025000X1.000000X0*%
%ADD17C,1.750000*%
%ADD18C,4.000000*%
%ADD19C,3.600000*%
%ADD20R,1.700000X1.700000*%
%ADD21C,5.500000*%
%ADD22C,3.048000*%
%ADD23C,3.987800*%
%ADD24R,2.000000X2.000000*%
%ADD25C,2.000000*%
%ADD26R,3.200000X2.000000*%
%ADD27C,2.200000*%
%ADD28C,1.850000*%
%ADD29RoundRect,0.200000X-0.600000X-0.600000X0.600000X-0.600000X0.600000X0.600000X-0.600000X0.600000X0*%
%ADD30C,1.600000*%
%ADD31RoundRect,0.250000X-0.550000X0.550000X-0.550000X-0.550000X0.550000X-0.550000X0.550000X0.550000X0*%
%ADD32RoundRect,0.082000X0.593000X-0.328000X0.593000X0.328000X-0.593000X0.328000X-0.593000X-0.328000X0*%
%ADD33FreePoly0,90.000000*%
%ADD34RoundRect,0.250000X-0.650000X0.412500X-0.650000X-0.412500X0.650000X-0.412500X0.650000X0.412500X0*%
%ADD35RoundRect,0.250000X-0.600000X-0.725000X0.600000X-0.725000X0.600000X0.725000X-0.600000X0.725000X0*%
%ADD36O,1.700000X1.950000*%
%ADD37RoundRect,0.250000X0.550000X0.550000X-0.550000X0.550000X-0.550000X-0.550000X0.550000X-0.550000X0*%
%ADD38RoundRect,0.250000X-0.550000X-0.550000X0.550000X-0.550000X0.550000X0.550000X-0.550000X0.550000X0*%
%ADD39RoundRect,0.250000X0.350000X0.625000X-0.350000X0.625000X-0.350000X-0.625000X0.350000X-0.625000X0*%
%ADD40O,1.200000X1.750000*%
%ADD41RoundRect,0.162500X0.162500X-0.617500X0.162500X0.617500X-0.162500X0.617500X-0.162500X-0.617500X0*%
%ADD42RoundRect,0.250000X0.625000X-0.350000X0.625000X0.350000X-0.625000X0.350000X-0.625000X-0.350000X0*%
%ADD43O,1.750000X1.200000*%
G04 APERTURE END LIST*
D10*
X172720000Y-101219000D02*
X172212000Y-101727000D01*
X172720000Y-102235000D01*
X172720000Y-101219000D01*
G36*
X172720000Y-102235000D02*
G01*
X172212000Y-101727000D01*
X172720000Y-101219000D01*
X172720000Y-102235000D01*
G37*
D11*
G36*
X51561000Y-71428478D02*
G01*
X51162304Y-71525015D01*
X51162304Y-71974086D01*
X51561000Y-72070623D01*
X51561000Y-72282565D01*
X50029047Y-71888082D01*
X50029047Y-71749596D01*
X50199040Y-71749596D01*
X50318658Y-71772586D01*
X50532707Y-71823053D01*
X50990204Y-71932137D01*
X50990204Y-71566964D01*
X50530600Y-71678247D01*
X50318658Y-71726424D01*
X50199040Y-71749596D01*
X50029047Y-71749596D01*
X50029047Y-71613126D01*
X51561000Y-71216536D01*
X51561000Y-71428478D01*
G37*
G36*
X51561000Y-72905567D02*
G01*
X50217908Y-72905567D01*
X50217908Y-72490019D01*
X50029047Y-72490019D01*
X50029047Y-73526738D01*
X50217908Y-73526738D01*
X50217908Y-73113296D01*
X51561000Y-73113296D01*
X51561000Y-72905567D01*
G37*
G36*
X51561000Y-73906291D02*
G01*
X50029047Y-73906291D01*
X50029047Y-74114020D01*
X51372139Y-74114020D01*
X51372139Y-74796007D01*
X51561000Y-74796007D01*
X51561000Y-73906291D01*
G37*
G36*
X51581974Y-75534414D02*
G01*
X51573749Y-75421430D01*
X51550514Y-75325407D01*
X51513653Y-75243496D01*
X51463455Y-75173454D01*
X51399809Y-75115592D01*
X51325729Y-75074067D01*
X51239145Y-75048265D01*
X51137116Y-75039181D01*
X51137116Y-75246910D01*
X51214797Y-75256138D01*
X51277281Y-75282146D01*
X51328083Y-75324579D01*
X51365427Y-75380109D01*
X51388904Y-75448854D01*
X51397326Y-75534414D01*
X51388865Y-75615629D01*
X51365150Y-75681301D01*
X51327076Y-75734815D01*
X51275939Y-75775655D01*
X51214349Y-75800583D01*
X51139223Y-75809371D01*
X51082009Y-75803832D01*
X51031033Y-75787726D01*
X50984983Y-75761102D01*
X50946159Y-75725053D01*
X50916508Y-75680117D01*
X50895774Y-75624631D01*
X50834866Y-75398035D01*
X50798457Y-75303869D01*
X50747868Y-75225953D01*
X50682733Y-75161913D01*
X50605411Y-75113890D01*
X50519165Y-75084889D01*
X50421515Y-75074902D01*
X50340502Y-75081384D01*
X50268647Y-75100085D01*
X50204353Y-75130498D01*
X50146929Y-75172402D01*
X50098878Y-75224125D01*
X50059547Y-75286752D01*
X50031500Y-75355652D01*
X50014117Y-75432817D01*
X50008073Y-75519760D01*
X50014132Y-75608064D01*
X50031529Y-75686223D01*
X50059547Y-75755790D01*
X50098844Y-75819318D01*
X50146558Y-75871756D01*
X50203254Y-75914242D01*
X50266944Y-75945321D01*
X50337770Y-75964356D01*
X50417302Y-75970937D01*
X50417302Y-75765315D01*
X50353129Y-75757418D01*
X50299388Y-75734752D01*
X50253629Y-75697080D01*
X50219250Y-75648268D01*
X50198082Y-75590026D01*
X50190614Y-75519760D01*
X50198131Y-75449478D01*
X50219332Y-75391972D01*
X50253629Y-75344454D01*
X50299226Y-75308091D01*
X50352970Y-75286101D01*
X50417302Y-75278417D01*
X50470354Y-75283595D01*
X50515657Y-75298393D01*
X50554780Y-75322472D01*
X50601460Y-75374227D01*
X50633457Y-75446304D01*
X50696380Y-75679220D01*
X50733796Y-75778324D01*
X50787148Y-75859243D01*
X50856939Y-75924775D01*
X50939827Y-75973199D01*
X51033044Y-76002682D01*
X51139223Y-76012886D01*
X51227132Y-76005991D01*
X51304539Y-75986173D01*
X51373238Y-75954084D01*
X51434405Y-75909690D01*
X51485589Y-75854506D01*
X51527477Y-75787297D01*
X51557073Y-75713398D01*
X51575525Y-75629694D01*
X51581974Y-75534414D01*
G37*
G36*
X50960803Y-76449134D02*
G01*
X50774049Y-76449134D01*
X50774049Y-77120680D01*
X50960803Y-77120680D01*
X50960803Y-76449134D01*
G37*
G36*
X51561000Y-77598785D02*
G01*
X50029047Y-77598785D01*
X50029047Y-77806605D01*
X50679619Y-77806605D01*
X50679619Y-78020654D01*
X50029047Y-78348000D01*
X50029047Y-78574596D01*
X50765623Y-78203195D01*
X51561000Y-78593556D01*
X51561000Y-78358442D01*
X50862160Y-78016441D01*
X50862160Y-77806605D01*
X51561000Y-77806605D01*
X51561000Y-77598785D01*
G37*
G36*
X51561000Y-78884907D02*
G01*
X51372139Y-78884907D01*
X51372139Y-79197599D01*
X50217908Y-79197599D01*
X50217908Y-78884907D01*
X50029047Y-78884907D01*
X50029047Y-79720126D01*
X50217908Y-79720126D01*
X50217908Y-79407434D01*
X51372139Y-79407434D01*
X51372139Y-79720126D01*
X51561000Y-79720126D01*
X51561000Y-78884907D01*
G37*
G36*
X51561000Y-80324261D02*
G01*
X50941935Y-80324261D01*
X50941935Y-80613780D01*
X50935253Y-80708951D01*
X50916110Y-80792645D01*
X50885332Y-80866663D01*
X50842089Y-80933790D01*
X50789514Y-80988996D01*
X50726880Y-81033450D01*
X50656787Y-81065468D01*
X50577305Y-81085323D01*
X50486545Y-81092252D01*
X50394364Y-81085286D01*
X50314254Y-81065396D01*
X50244195Y-81033450D01*
X50181441Y-80989039D01*
X50128876Y-80934148D01*
X50085742Y-80867670D01*
X50055011Y-80794331D01*
X50035791Y-80710368D01*
X50029047Y-80613780D01*
X50213695Y-80613780D01*
X50222565Y-80691760D01*
X50247579Y-80755008D01*
X50288250Y-80806854D01*
X50341804Y-80845662D01*
X50406832Y-80869678D01*
X50486545Y-80878203D01*
X50564842Y-80869729D01*
X50629257Y-80845761D01*
X50682824Y-80806854D01*
X50723441Y-80755015D01*
X50748427Y-80691767D01*
X50757288Y-80613780D01*
X50757288Y-80324261D01*
X50213695Y-80324261D01*
X50213695Y-80613780D01*
X50029047Y-80613780D01*
X50029047Y-80116441D01*
X51561000Y-80116441D01*
X51561000Y-80324261D01*
G37*
G36*
X50960803Y-81484445D02*
G01*
X50774049Y-81484445D01*
X50774049Y-82155990D01*
X50960803Y-82155990D01*
X50960803Y-81484445D01*
G37*
G36*
X51561000Y-83108354D02*
G01*
X51552994Y-83214917D01*
X51530396Y-83305151D01*
X51494531Y-83381865D01*
X51445595Y-83447241D01*
X51384000Y-83501049D01*
X51312746Y-83539715D01*
X51229932Y-83563731D01*
X51132903Y-83572172D01*
X51039498Y-83562285D01*
X50955583Y-83533337D01*
X50881545Y-83486887D01*
X50822318Y-83426267D01*
X50780467Y-83353431D01*
X50759394Y-83270013D01*
X50753075Y-83270013D01*
X50730909Y-83343897D01*
X50693173Y-83407276D01*
X50638769Y-83461987D01*
X50573308Y-83503486D01*
X50502885Y-83528105D01*
X50425728Y-83536451D01*
X50335212Y-83528198D01*
X50258193Y-83504706D01*
X50192062Y-83466779D01*
X50135018Y-83413719D01*
X50090405Y-83349935D01*
X50057415Y-83274479D01*
X50036490Y-83185114D01*
X50029047Y-83079045D01*
X50211680Y-83079045D01*
X50219203Y-83153633D01*
X50240174Y-83213409D01*
X50273595Y-83261586D01*
X50318796Y-83298141D01*
X50374733Y-83320690D01*
X50444596Y-83328722D01*
X50512984Y-83320748D01*
X50568284Y-83298252D01*
X50613490Y-83261586D01*
X50646822Y-83213369D01*
X50667836Y-83152955D01*
X50674156Y-83089487D01*
X50851718Y-83089487D01*
X50860797Y-83171694D01*
X50886240Y-83237642D01*
X50927281Y-83290987D01*
X50981566Y-83331162D01*
X51046310Y-83355776D01*
X51124476Y-83364443D01*
X51199627Y-83355717D01*
X51260452Y-83331100D01*
X51310223Y-83290987D01*
X51346999Y-83238203D01*
X51370137Y-83172262D01*
X51378459Y-83089487D01*
X51378459Y-82839809D01*
X50851718Y-82839809D01*
X50851718Y-83089487D01*
X50674156Y-83089487D01*
X50675405Y-83076939D01*
X50675405Y-82839809D01*
X50211680Y-82839809D01*
X50211680Y-83079045D01*
X50029047Y-83079045D01*
X50029047Y-82636202D01*
X51561000Y-82636202D01*
X51561000Y-83108354D01*
G37*
G36*
X51561000Y-83850975D02*
G01*
X50029047Y-83850975D01*
X50029047Y-84144799D01*
X50690152Y-84333660D01*
X50029047Y-84530947D01*
X50029047Y-84826786D01*
X51561000Y-84826786D01*
X51561000Y-84627392D01*
X50857946Y-84627392D01*
X50611383Y-84631605D01*
X50340732Y-84643146D01*
X50096184Y-84658900D01*
X50881119Y-84419664D01*
X50881119Y-84243442D01*
X50115143Y-84012541D01*
X50272618Y-84028449D01*
X50456136Y-84039836D01*
X50857946Y-84048262D01*
X51561000Y-84048262D01*
X51561000Y-83850975D01*
G37*
G36*
X51581974Y-85613462D02*
G01*
X51573817Y-85508248D01*
X51550725Y-85418747D01*
X51513923Y-85342226D01*
X51463455Y-85276590D01*
X51400410Y-85223197D01*
X51326555Y-85184511D01*
X51239759Y-85160305D01*
X51137116Y-85151751D01*
X50450916Y-85151751D01*
X50349366Y-85160274D01*
X50263237Y-85184432D01*
X50189699Y-85223110D01*
X50126683Y-85276590D01*
X50076173Y-85342231D01*
X50039343Y-85418755D01*
X50016235Y-85508254D01*
X50008073Y-85613462D01*
X50016264Y-85717462D01*
X50039499Y-85806239D01*
X50076627Y-85882456D01*
X50127691Y-85948135D01*
X50191252Y-86001790D01*
X50264877Y-86040490D01*
X50350532Y-86064587D01*
X50450916Y-86073066D01*
X50450916Y-85865245D01*
X50371024Y-85856986D01*
X50308697Y-85834189D01*
X50259948Y-85798109D01*
X50223533Y-85749484D01*
X50200842Y-85689065D01*
X50192721Y-85613462D01*
X50200892Y-85536434D01*
X50223628Y-85475377D01*
X50259948Y-85426707D01*
X50308697Y-85390628D01*
X50371024Y-85367830D01*
X50450916Y-85359571D01*
X51137116Y-85359571D01*
X51218380Y-85367874D01*
X51281345Y-85390712D01*
X51330190Y-85426707D01*
X51366457Y-85475370D01*
X51389164Y-85536427D01*
X51397326Y-85613462D01*
X51389214Y-85689072D01*
X51366552Y-85749491D01*
X51330190Y-85798109D01*
X51281345Y-85834104D01*
X51218380Y-85856943D01*
X51137116Y-85865245D01*
X51137116Y-86073066D01*
X51238592Y-86064555D01*
X51324898Y-86040407D01*
X51398809Y-86001699D01*
X51462356Y-85948135D01*
X51513420Y-85882456D01*
X51550548Y-85806239D01*
X51573783Y-85717462D01*
X51581974Y-85613462D01*
G37*
G36*
X51561000Y-86618399D02*
G01*
X50920961Y-86618399D01*
X50920961Y-86855528D01*
X51561000Y-87147154D01*
X51561000Y-87375949D01*
X50897880Y-87067470D01*
X50859626Y-87148889D01*
X50807504Y-87217966D01*
X50740527Y-87276206D01*
X50662984Y-87319324D01*
X50574975Y-87345774D01*
X50473997Y-87354974D01*
X50386026Y-87348076D01*
X50308624Y-87328255D01*
X50239982Y-87296173D01*
X50178535Y-87251974D01*
X50127028Y-87197761D01*
X50084735Y-87132500D01*
X50054440Y-87060574D01*
X50035615Y-86979307D01*
X50029047Y-86886944D01*
X50213695Y-86886944D01*
X50222144Y-86960861D01*
X50246073Y-87021406D01*
X50285136Y-87071591D01*
X50336541Y-87109303D01*
X50399117Y-87132637D01*
X50476012Y-87140926D01*
X50551694Y-87132795D01*
X50613681Y-87109847D01*
X50664964Y-87072691D01*
X50703835Y-87023080D01*
X50727798Y-86962255D01*
X50736314Y-86886944D01*
X50736314Y-86618399D01*
X50213695Y-86618399D01*
X50213695Y-86886944D01*
X50029047Y-86886944D01*
X50029047Y-86412685D01*
X51561000Y-86412685D01*
X51561000Y-86618399D01*
G37*
G36*
X50960803Y-87778583D02*
G01*
X50774049Y-87778583D01*
X50774049Y-88450129D01*
X50960803Y-88450129D01*
X50960803Y-87778583D01*
G37*
G36*
X51561000Y-89402493D02*
G01*
X51552994Y-89509055D01*
X51530396Y-89599289D01*
X51494531Y-89676003D01*
X51445595Y-89741379D01*
X51384000Y-89795188D01*
X51312746Y-89833853D01*
X51229932Y-89857869D01*
X51132903Y-89866310D01*
X51039498Y-89856424D01*
X50955583Y-89827475D01*
X50881545Y-89781025D01*
X50822318Y-89720405D01*
X50780467Y-89647569D01*
X50759394Y-89564151D01*
X50753075Y-89564151D01*
X50730909Y-89638035D01*
X50693173Y-89701414D01*
X50638769Y-89756126D01*
X50573308Y-89797625D01*
X50502885Y-89822243D01*
X50425728Y-89830589D01*
X50335212Y-89822336D01*
X50258193Y-89798844D01*
X50192062Y-89760917D01*
X50135018Y-89707857D01*
X50090405Y-89644074D01*
X50057415Y-89568617D01*
X50036490Y-89479252D01*
X50029047Y-89373183D01*
X50211680Y-89373183D01*
X50219203Y-89447771D01*
X50240174Y-89507547D01*
X50273595Y-89555724D01*
X50318796Y-89592280D01*
X50374733Y-89614828D01*
X50444596Y-89622861D01*
X50512984Y-89614886D01*
X50568284Y-89592391D01*
X50613490Y-89555724D01*
X50646822Y-89507507D01*
X50667836Y-89447093D01*
X50674156Y-89383625D01*
X50851718Y-89383625D01*
X50860797Y-89465832D01*
X50886240Y-89531780D01*
X50927281Y-89585125D01*
X50981566Y-89625301D01*
X51046310Y-89649914D01*
X51124476Y-89658581D01*
X51199627Y-89649855D01*
X51260452Y-89625238D01*
X51310223Y-89585125D01*
X51346999Y-89532341D01*
X51370137Y-89466400D01*
X51378459Y-89383625D01*
X51378459Y-89133948D01*
X50851718Y-89133948D01*
X50851718Y-89383625D01*
X50674156Y-89383625D01*
X50675405Y-89371077D01*
X50675405Y-89133948D01*
X50211680Y-89133948D01*
X50211680Y-89373183D01*
X50029047Y-89373183D01*
X50029047Y-88930341D01*
X51561000Y-88930341D01*
X51561000Y-89402493D01*
G37*
G36*
X51581974Y-90640346D02*
G01*
X51573749Y-90527362D01*
X51550514Y-90431338D01*
X51513653Y-90349428D01*
X51463455Y-90279385D01*
X51399809Y-90221524D01*
X51325729Y-90179999D01*
X51239145Y-90154196D01*
X51137116Y-90145113D01*
X51137116Y-90352841D01*
X51214797Y-90362070D01*
X51277281Y-90388077D01*
X51328083Y-90430511D01*
X51365427Y-90486040D01*
X51388904Y-90554786D01*
X51397326Y-90640346D01*
X51388865Y-90721560D01*
X51365150Y-90787233D01*
X51327076Y-90840747D01*
X51275939Y-90881586D01*
X51214349Y-90906515D01*
X51139223Y-90915302D01*
X51082009Y-90909763D01*
X51031033Y-90893657D01*
X50984983Y-90867034D01*
X50946159Y-90830985D01*
X50916508Y-90786049D01*
X50895774Y-90730563D01*
X50834866Y-90503967D01*
X50798457Y-90409800D01*
X50747868Y-90331885D01*
X50682733Y-90267845D01*
X50605411Y-90219822D01*
X50519165Y-90190821D01*
X50421515Y-90180833D01*
X50340502Y-90187316D01*
X50268647Y-90206016D01*
X50204353Y-90236429D01*
X50146929Y-90278334D01*
X50098878Y-90330056D01*
X50059547Y-90392684D01*
X50031500Y-90461583D01*
X50014117Y-90538749D01*
X50008073Y-90625691D01*
X50014132Y-90713996D01*
X50031529Y-90792154D01*
X50059547Y-90861721D01*
X50098844Y-90925250D01*
X50146558Y-90977688D01*
X50203254Y-91020174D01*
X50266944Y-91051252D01*
X50337770Y-91070288D01*
X50417302Y-91076869D01*
X50417302Y-90871247D01*
X50353129Y-90863349D01*
X50299388Y-90840683D01*
X50253629Y-90803012D01*
X50219250Y-90754200D01*
X50198082Y-90695958D01*
X50190614Y-90625691D01*
X50198131Y-90555410D01*
X50219332Y-90497904D01*
X50253629Y-90450386D01*
X50299226Y-90414023D01*
X50352970Y-90392032D01*
X50417302Y-90384349D01*
X50470354Y-90389526D01*
X50515657Y-90404324D01*
X50554780Y-90428404D01*
X50601460Y-90480159D01*
X50633457Y-90552235D01*
X50696380Y-90785151D01*
X50733796Y-90884255D01*
X50787148Y-90965174D01*
X50856939Y-91030707D01*
X50939827Y-91079131D01*
X51033044Y-91108614D01*
X51139223Y-91118818D01*
X51227132Y-91111922D01*
X51304539Y-91092104D01*
X51373238Y-91060016D01*
X51434405Y-91015622D01*
X51485589Y-90960437D01*
X51527477Y-90893229D01*
X51557073Y-90819330D01*
X51575525Y-90735625D01*
X51581974Y-90640346D01*
G37*
G36*
X50960803Y-91555066D02*
G01*
X50774049Y-91555066D01*
X50774049Y-92226612D01*
X50960803Y-92226612D01*
X50960803Y-91555066D01*
G37*
G36*
X51561000Y-92706823D02*
G01*
X51372139Y-92706823D01*
X51372139Y-93116052D01*
X50215801Y-93116052D01*
X50522265Y-92704717D01*
X50287151Y-92704717D01*
X50029047Y-93053129D01*
X50029047Y-93323781D01*
X51372139Y-93323781D01*
X51372139Y-93659554D01*
X51561000Y-93659554D01*
X51561000Y-92706823D01*
G37*
G36*
X50960803Y-94072721D02*
G01*
X50774049Y-94072721D01*
X50774049Y-94744267D01*
X50960803Y-94744267D01*
X50960803Y-94072721D01*
G37*
G36*
X51561000Y-95253879D02*
G01*
X50029047Y-95077567D01*
X50029047Y-95262306D01*
X51145451Y-95375604D01*
X51289249Y-95387144D01*
X51414087Y-95394472D01*
X51289249Y-95404913D01*
X51145451Y-95421766D01*
X50029047Y-95568678D01*
X50029047Y-95776407D01*
X51145451Y-95912786D01*
X51289249Y-95927440D01*
X51414087Y-95942186D01*
X51289249Y-95950521D01*
X51145451Y-95963161D01*
X50029047Y-96078565D01*
X50029047Y-96259091D01*
X51561000Y-96076459D01*
X51561000Y-95824675D01*
X50427835Y-95692509D01*
X50286143Y-95678770D01*
X50169640Y-95671443D01*
X50286143Y-95661002D01*
X50427835Y-95648362D01*
X51561000Y-95503557D01*
X51561000Y-95253879D01*
G37*
G36*
X51561000Y-96476987D02*
G01*
X50029047Y-96476987D01*
X50029047Y-96745623D01*
X51321764Y-97203121D01*
X51186392Y-97191580D01*
X51018506Y-97183154D01*
X50853825Y-97180040D01*
X50029047Y-97180040D01*
X50029047Y-97377327D01*
X51561000Y-97377327D01*
X51561000Y-97106584D01*
X50268283Y-96653299D01*
X50401548Y-96661726D01*
X50566321Y-96669053D01*
X50727887Y-96672167D01*
X51561000Y-96672167D01*
X51561000Y-96476987D01*
G37*
G36*
X51561000Y-98214286D02*
G01*
X51552994Y-98320849D01*
X51530396Y-98411082D01*
X51494531Y-98487797D01*
X51445595Y-98553173D01*
X51384000Y-98606981D01*
X51312746Y-98645646D01*
X51229932Y-98669662D01*
X51132903Y-98678103D01*
X51039498Y-98668217D01*
X50955583Y-98639269D01*
X50881545Y-98592819D01*
X50822318Y-98532199D01*
X50780467Y-98459363D01*
X50759394Y-98375944D01*
X50753075Y-98375944D01*
X50730909Y-98449829D01*
X50693173Y-98513207D01*
X50638769Y-98567919D01*
X50573308Y-98609418D01*
X50502885Y-98634037D01*
X50425728Y-98642383D01*
X50335212Y-98634129D01*
X50258193Y-98610638D01*
X50192062Y-98572711D01*
X50135018Y-98519651D01*
X50090405Y-98455867D01*
X50057415Y-98380410D01*
X50036490Y-98291046D01*
X50029047Y-98184977D01*
X50211680Y-98184977D01*
X50219203Y-98259565D01*
X50240174Y-98319341D01*
X50273595Y-98367518D01*
X50318796Y-98404073D01*
X50374733Y-98426621D01*
X50444596Y-98434654D01*
X50512984Y-98426679D01*
X50568284Y-98404184D01*
X50613490Y-98367518D01*
X50646822Y-98319301D01*
X50667836Y-98258886D01*
X50674156Y-98195418D01*
X50851718Y-98195418D01*
X50860797Y-98277626D01*
X50886240Y-98343573D01*
X50927281Y-98396919D01*
X50981566Y-98437094D01*
X51046310Y-98461707D01*
X51124476Y-98470375D01*
X51199627Y-98461649D01*
X51260452Y-98437032D01*
X51310223Y-98396919D01*
X51346999Y-98344135D01*
X51370137Y-98278193D01*
X51378459Y-98195418D01*
X51378459Y-97945741D01*
X50851718Y-97945741D01*
X50851718Y-98195418D01*
X50674156Y-98195418D01*
X50675405Y-98182870D01*
X50675405Y-97945741D01*
X50211680Y-97945741D01*
X50211680Y-98184977D01*
X50029047Y-98184977D01*
X50029047Y-97742134D01*
X51561000Y-97742134D01*
X51561000Y-98214286D01*
G37*
D12*
G04 #@! TO.C,G\u002A\u002A\u002A*
G36*
X86731460Y-53414630D02*
G01*
X86731460Y-55927068D01*
X85883380Y-55927068D01*
X85035300Y-55927068D01*
X85035300Y-53414630D01*
X85035300Y-50902193D01*
X85883380Y-50902193D01*
X86731460Y-50902193D01*
X86731460Y-53414630D01*
G37*
G36*
X89901159Y-50881889D02*
G01*
X90946172Y-51793126D01*
X91991185Y-52704363D01*
X92435613Y-52704363D01*
X92880041Y-52704363D01*
X92880041Y-51803278D01*
X92880041Y-50902193D01*
X93696318Y-50902193D01*
X94512595Y-50902193D01*
X94512595Y-53414630D01*
X94512595Y-55927068D01*
X93696318Y-55927068D01*
X92880041Y-55927068D01*
X92880041Y-54962377D01*
X92880041Y-53997685D01*
X92440099Y-53998280D01*
X92000158Y-53998875D01*
X90812845Y-54961985D01*
X89625533Y-55925095D01*
X88385216Y-55925407D01*
X88207731Y-55925414D01*
X87972249Y-55925234D01*
X87774227Y-55924757D01*
X87610685Y-55923907D01*
X87478646Y-55922606D01*
X87375132Y-55920777D01*
X87297164Y-55918344D01*
X87241765Y-55915230D01*
X87205957Y-55911356D01*
X87186761Y-55906647D01*
X87181200Y-55901026D01*
X87186295Y-55894415D01*
X87189515Y-55891979D01*
X87279095Y-55823917D01*
X87392556Y-55737240D01*
X87527161Y-55634066D01*
X87680175Y-55516515D01*
X87848860Y-55386705D01*
X88030480Y-55246756D01*
X88222298Y-55098786D01*
X88421577Y-54944914D01*
X88625581Y-54787260D01*
X88831574Y-54627943D01*
X89036818Y-54469080D01*
X89238577Y-54312792D01*
X89434115Y-54161198D01*
X89620694Y-54016415D01*
X89795579Y-53880565D01*
X89956031Y-53755764D01*
X90099316Y-53644133D01*
X90222696Y-53547790D01*
X90323434Y-53468855D01*
X90398794Y-53409446D01*
X90446040Y-53371682D01*
X90462434Y-53357682D01*
X90462274Y-53357329D01*
X90442979Y-53339655D01*
X90393136Y-53297551D01*
X90315064Y-53232902D01*
X90211079Y-53147593D01*
X90083501Y-53043506D01*
X89934647Y-52922527D01*
X89766835Y-52786540D01*
X89582383Y-52637429D01*
X89383610Y-52477079D01*
X89172833Y-52307373D01*
X88952370Y-52130196D01*
X88932315Y-52114093D01*
X88712135Y-51937279D01*
X88501452Y-51768050D01*
X88302621Y-51608302D01*
X88118002Y-51459931D01*
X87949951Y-51324832D01*
X87800825Y-51204901D01*
X87672983Y-51102034D01*
X87568780Y-51018127D01*
X87490574Y-50955075D01*
X87440724Y-50914775D01*
X87421585Y-50899122D01*
X87434580Y-50896174D01*
X87486169Y-50893061D01*
X87573512Y-50890209D01*
X87693090Y-50887670D01*
X87841382Y-50885495D01*
X88014869Y-50883734D01*
X88210031Y-50882437D01*
X88423349Y-50881655D01*
X88651301Y-50881440D01*
X89901159Y-50881889D01*
G37*
G36*
X84102411Y-53413737D02*
G01*
X84102411Y-55927068D01*
X83286134Y-55927068D01*
X82469857Y-55927068D01*
X82469857Y-55313786D01*
X82469857Y-54700505D01*
X80800199Y-54690964D01*
X80559251Y-54689555D01*
X80263681Y-54687633D01*
X80005069Y-54685551D01*
X79780270Y-54683123D01*
X79586135Y-54680161D01*
X79419518Y-54676480D01*
X79277271Y-54671892D01*
X79156248Y-54666212D01*
X79053302Y-54659252D01*
X78965284Y-54650826D01*
X78889049Y-54640748D01*
X78821449Y-54628831D01*
X78759338Y-54614888D01*
X78699567Y-54598734D01*
X78638990Y-54580181D01*
X78574460Y-54559042D01*
X78372970Y-54475822D01*
X78194085Y-54364013D01*
X78046339Y-54225130D01*
X77928176Y-54057365D01*
X77838044Y-53858910D01*
X77774387Y-53627955D01*
X77771933Y-53615686D01*
X77750124Y-53471265D01*
X77733746Y-53295902D01*
X77722811Y-53098721D01*
X77717330Y-52888845D01*
X77717325Y-52799772D01*
X79343256Y-52799772D01*
X79347667Y-52957433D01*
X79363653Y-53088038D01*
X79393917Y-53189142D01*
X79441149Y-53266852D01*
X79508038Y-53327274D01*
X79597275Y-53376515D01*
X79614538Y-53383445D01*
X79637684Y-53390124D01*
X79668122Y-53395836D01*
X79709045Y-53400676D01*
X79763645Y-53404740D01*
X79835113Y-53408124D01*
X79926641Y-53410923D01*
X80041421Y-53413233D01*
X80182646Y-53415150D01*
X80353507Y-53416768D01*
X80557196Y-53418184D01*
X80796905Y-53419493D01*
X81075825Y-53420790D01*
X82469857Y-53426950D01*
X82469857Y-52799778D01*
X82469857Y-52172606D01*
X81065224Y-52178760D01*
X80796547Y-52179957D01*
X80556024Y-52181138D01*
X80351640Y-52182363D01*
X80180204Y-52183745D01*
X80038524Y-52185393D01*
X79923408Y-52187420D01*
X79831664Y-52189935D01*
X79760101Y-52193050D01*
X79705527Y-52196876D01*
X79664751Y-52201524D01*
X79634580Y-52207105D01*
X79611823Y-52213730D01*
X79593288Y-52221510D01*
X79575784Y-52230555D01*
X79572920Y-52232103D01*
X79491287Y-52284322D01*
X79430685Y-52344469D01*
X79388348Y-52419315D01*
X79361508Y-52515633D01*
X79347399Y-52640194D01*
X79343256Y-52799772D01*
X77717325Y-52799772D01*
X77717317Y-52675397D01*
X77722783Y-52467500D01*
X77733741Y-52274276D01*
X77750201Y-52104849D01*
X77772178Y-51968341D01*
X77778348Y-51939905D01*
X77835900Y-51730528D01*
X77910321Y-51551995D01*
X78005125Y-51401162D01*
X78123828Y-51274886D01*
X78269944Y-51170022D01*
X78446988Y-51083427D01*
X78658475Y-51011957D01*
X78907921Y-50952467D01*
X78934043Y-50947608D01*
X78968078Y-50942532D01*
X79008568Y-50937989D01*
X79057909Y-50933939D01*
X79118498Y-50930343D01*
X79192732Y-50927161D01*
X79283007Y-50924353D01*
X79391719Y-50921881D01*
X79521266Y-50919705D01*
X79674044Y-50917785D01*
X79852450Y-50916082D01*
X80058880Y-50914556D01*
X80295730Y-50913168D01*
X80565399Y-50911878D01*
X80870281Y-50910647D01*
X81212774Y-50909436D01*
X81595275Y-50908205D01*
X84102411Y-50900406D01*
X84102411Y-52799778D01*
X84102411Y-53413737D01*
G37*
G36*
X103487334Y-57069666D02*
G01*
X103487334Y-58181333D01*
X102825667Y-58181333D01*
X102164000Y-58181333D01*
X102164000Y-58009666D01*
X102164000Y-57838000D01*
X102635667Y-57838000D01*
X103107334Y-57838000D01*
X103107334Y-56898000D01*
X103107334Y-55958000D01*
X103297334Y-55958000D01*
X103487334Y-55958000D01*
X103487334Y-57069666D01*
G37*
G36*
X105544000Y-56129666D02*
G01*
X105544000Y-56301333D01*
X105252334Y-56301333D01*
X104960667Y-56301333D01*
X104960667Y-57241333D01*
X104960667Y-58181333D01*
X104772334Y-58181333D01*
X104584000Y-58181333D01*
X104584000Y-57241333D01*
X104584000Y-56301333D01*
X104292334Y-56301333D01*
X104000667Y-56301333D01*
X104000667Y-56129666D01*
X104000667Y-55958000D01*
X104772334Y-55958000D01*
X105544000Y-55958000D01*
X105544000Y-56129666D01*
G37*
G36*
X102910720Y-49679052D02*
G01*
X102916874Y-49681420D01*
X102928249Y-49686207D01*
X102944275Y-49693163D01*
X102964384Y-49702035D01*
X102988006Y-49712571D01*
X103014571Y-49724519D01*
X103043512Y-49737627D01*
X103074257Y-49751644D01*
X103087237Y-49757579D01*
X103117760Y-49771527D01*
X103146487Y-49784642D01*
X103172807Y-49796648D01*
X103196112Y-49807266D01*
X103215792Y-49816219D01*
X103231237Y-49823229D01*
X103241840Y-49828019D01*
X103246990Y-49830312D01*
X103258313Y-49835165D01*
X103211990Y-49860895D01*
X103103923Y-49923719D01*
X102995886Y-49992665D01*
X102891165Y-50066068D01*
X102788710Y-50144662D01*
X102687474Y-50229185D01*
X102686161Y-50230325D01*
X102671287Y-50243153D01*
X102658289Y-50254207D01*
X102647952Y-50262833D01*
X102641061Y-50268373D01*
X102638398Y-50270175D01*
X102638393Y-50270099D01*
X102639879Y-50266211D01*
X102643908Y-50256840D01*
X102650249Y-50242486D01*
X102658673Y-50223653D01*
X102668949Y-50200841D01*
X102680846Y-50174552D01*
X102694135Y-50145288D01*
X102708585Y-50113552D01*
X102723966Y-50079843D01*
X102740048Y-50044666D01*
X102756600Y-50008520D01*
X102773392Y-49971908D01*
X102790194Y-49935332D01*
X102806775Y-49899293D01*
X102822905Y-49864293D01*
X102838355Y-49830834D01*
X102852893Y-49799418D01*
X102866289Y-49770546D01*
X102878313Y-49744721D01*
X102888735Y-49722443D01*
X102897325Y-49704215D01*
X102903851Y-49690538D01*
X102908085Y-49681914D01*
X102909795Y-49678846D01*
X102910720Y-49679052D01*
G37*
G36*
X102640180Y-54747939D02*
G01*
X102646870Y-54753332D01*
X102656509Y-54761594D01*
X102668167Y-54771951D01*
X102709820Y-54808568D01*
X102772830Y-54860949D01*
X102839728Y-54913390D01*
X102909059Y-54964793D01*
X102979368Y-55014056D01*
X103049202Y-55060079D01*
X103071507Y-55074124D01*
X103098277Y-55090633D01*
X103126032Y-55107438D01*
X103153674Y-55123892D01*
X103180101Y-55139345D01*
X103204215Y-55153150D01*
X103224913Y-55164657D01*
X103241098Y-55173218D01*
X103258992Y-55182285D01*
X103248996Y-55186934D01*
X103247420Y-55187662D01*
X103239897Y-55191117D01*
X103227191Y-55196941D01*
X103209902Y-55204860D01*
X103188628Y-55214599D01*
X103163969Y-55225885D01*
X103136523Y-55238442D01*
X103106889Y-55251998D01*
X103075667Y-55266278D01*
X103059426Y-55273702D01*
X103029412Y-55287403D01*
X103001530Y-55300108D01*
X102976342Y-55311560D01*
X102954409Y-55321507D01*
X102936293Y-55329695D01*
X102922554Y-55335867D01*
X102913753Y-55339771D01*
X102910451Y-55341153D01*
X102910086Y-55341041D01*
X102907180Y-55337421D01*
X102903283Y-55330250D01*
X102902791Y-55329212D01*
X102898798Y-55320654D01*
X102892505Y-55307028D01*
X102884144Y-55288840D01*
X102873944Y-55266595D01*
X102862137Y-55240801D01*
X102848952Y-55211962D01*
X102834619Y-55180585D01*
X102819371Y-55147176D01*
X102803436Y-55112240D01*
X102787045Y-55076285D01*
X102770428Y-55039815D01*
X102753817Y-55003337D01*
X102737442Y-54967357D01*
X102721532Y-54932381D01*
X102706319Y-54898914D01*
X102692032Y-54867464D01*
X102678903Y-54838535D01*
X102667161Y-54812634D01*
X102657038Y-54790267D01*
X102648763Y-54771940D01*
X102642567Y-54758158D01*
X102638681Y-54749429D01*
X102637334Y-54746257D01*
X102637367Y-54746189D01*
X102640180Y-54747939D01*
G37*
G36*
X99298705Y-55929866D02*
G01*
X99342566Y-55930826D01*
X99381985Y-55933052D01*
X99418520Y-55936724D01*
X99453728Y-55942022D01*
X99489167Y-55949126D01*
X99526396Y-55958216D01*
X99547664Y-55964208D01*
X99599739Y-55982181D01*
X99650680Y-56004267D01*
X99698712Y-56029648D01*
X99742062Y-56057507D01*
X99748280Y-56062086D01*
X99767971Y-56077990D01*
X99789539Y-56097088D01*
X99811526Y-56117964D01*
X99832472Y-56139203D01*
X99850918Y-56159390D01*
X99865404Y-56177110D01*
X99876678Y-56192644D01*
X99906600Y-56240179D01*
X99931175Y-56290022D01*
X99950579Y-56342700D01*
X99964985Y-56398738D01*
X99974566Y-56458662D01*
X99979496Y-56523000D01*
X99979970Y-56538623D01*
X99978408Y-56605778D01*
X99970850Y-56670194D01*
X99957246Y-56732113D01*
X99937545Y-56791781D01*
X99911697Y-56849442D01*
X99907166Y-56858153D01*
X99874364Y-56912977D01*
X99836139Y-56964042D01*
X99792644Y-57011221D01*
X99744036Y-57054387D01*
X99690468Y-57093415D01*
X99632097Y-57128177D01*
X99569077Y-57158548D01*
X99501563Y-57184399D01*
X99490836Y-57187825D01*
X99474198Y-57192849D01*
X99452750Y-57199143D01*
X99427320Y-57206471D01*
X99398736Y-57214594D01*
X99367825Y-57223278D01*
X99335415Y-57232284D01*
X99302334Y-57241376D01*
X99301270Y-57241667D01*
X99268720Y-57250641D01*
X99237290Y-57259446D01*
X99207739Y-57267861D01*
X99180828Y-57275662D01*
X99157316Y-57282627D01*
X99137963Y-57288533D01*
X99123529Y-57293159D01*
X99114775Y-57296282D01*
X99082287Y-57311696D01*
X99045479Y-57335461D01*
X99012989Y-57363852D01*
X98985111Y-57396392D01*
X98962138Y-57432605D01*
X98944361Y-57472016D01*
X98932075Y-57514147D01*
X98925571Y-57558522D01*
X98925143Y-57604666D01*
X98926629Y-57623050D01*
X98932159Y-57656633D01*
X98941720Y-57688474D01*
X98956044Y-57721333D01*
X98963434Y-57735586D01*
X98970647Y-57747436D01*
X98978886Y-57758390D01*
X98989478Y-57770212D01*
X99003753Y-57784666D01*
X99007633Y-57788458D01*
X99033453Y-57811251D01*
X99059373Y-57829342D01*
X99087551Y-57844065D01*
X99120141Y-57856756D01*
X99146849Y-57864747D01*
X99193428Y-57874259D01*
X99242658Y-57879480D01*
X99293017Y-57880409D01*
X99342985Y-57877041D01*
X99391042Y-57869374D01*
X99435667Y-57857405D01*
X99445696Y-57853854D01*
X99477054Y-57840246D01*
X99507867Y-57823389D01*
X99536613Y-57804264D01*
X99561770Y-57783854D01*
X99581817Y-57763139D01*
X99599526Y-57738941D01*
X99618108Y-57705496D01*
X99632075Y-57670035D01*
X99640879Y-57633999D01*
X99643975Y-57598833D01*
X99644000Y-57584666D01*
X99834510Y-57584666D01*
X100025019Y-57584666D01*
X100022967Y-57620529D01*
X100021205Y-57644871D01*
X100012976Y-57707192D01*
X99999514Y-57765783D01*
X99980667Y-57821118D01*
X99956284Y-57873670D01*
X99926215Y-57923912D01*
X99897397Y-57963136D01*
X99856866Y-58008261D01*
X99811370Y-58049108D01*
X99761050Y-58085603D01*
X99706045Y-58117677D01*
X99646497Y-58145258D01*
X99582545Y-58168274D01*
X99514329Y-58186654D01*
X99441990Y-58200327D01*
X99365667Y-58209222D01*
X99359864Y-58209499D01*
X99347458Y-58209742D01*
X99330388Y-58209866D01*
X99309768Y-58209869D01*
X99286712Y-58209747D01*
X99262334Y-58209498D01*
X99244118Y-58209198D01*
X99204528Y-58207934D01*
X99169325Y-58205750D01*
X99136922Y-58202467D01*
X99105735Y-58197902D01*
X99074179Y-58191876D01*
X99040667Y-58184208D01*
X98988535Y-58169561D01*
X98926065Y-58146491D01*
X98867492Y-58118480D01*
X98813047Y-58085723D01*
X98762961Y-58048415D01*
X98717466Y-58006751D01*
X98676792Y-57960927D01*
X98641170Y-57911137D01*
X98610833Y-57857577D01*
X98586011Y-57800441D01*
X98573430Y-57762273D01*
X98560172Y-57706367D01*
X98551647Y-57647450D01*
X98547907Y-57586550D01*
X98549004Y-57524691D01*
X98554990Y-57462902D01*
X98565915Y-57402208D01*
X98573995Y-57369980D01*
X98594303Y-57308898D01*
X98620317Y-57251115D01*
X98651879Y-57196815D01*
X98688829Y-57146182D01*
X98731010Y-57099402D01*
X98778264Y-57056659D01*
X98830433Y-57018139D01*
X98887359Y-56984025D01*
X98948883Y-56954504D01*
X98954312Y-56952207D01*
X98967576Y-56946751D01*
X98980922Y-56941542D01*
X98994986Y-56936379D01*
X99010404Y-56931065D01*
X99027810Y-56925399D01*
X99047840Y-56919185D01*
X99071128Y-56912222D01*
X99098310Y-56904311D01*
X99130022Y-56895255D01*
X99166898Y-56884854D01*
X99209574Y-56872909D01*
X99210027Y-56872783D01*
X99250089Y-56861591D01*
X99284307Y-56852003D01*
X99313252Y-56843839D01*
X99337497Y-56836920D01*
X99357614Y-56831067D01*
X99374176Y-56826098D01*
X99387754Y-56821836D01*
X99398922Y-56818100D01*
X99408252Y-56814710D01*
X99416316Y-56811488D01*
X99423685Y-56808253D01*
X99430934Y-56804825D01*
X99438634Y-56801026D01*
X99472403Y-56781846D01*
X99507931Y-56755278D01*
X99538093Y-56724966D01*
X99562733Y-56691170D01*
X99581697Y-56654149D01*
X99594829Y-56614163D01*
X99601973Y-56571471D01*
X99602975Y-56526333D01*
X99600410Y-56495890D01*
X99592479Y-56454638D01*
X99579514Y-56417489D01*
X99561411Y-56384168D01*
X99538067Y-56354401D01*
X99534754Y-56350874D01*
X99506674Y-56324947D01*
X99476091Y-56303754D01*
X99442140Y-56286857D01*
X99403954Y-56273814D01*
X99360667Y-56264184D01*
X99342790Y-56261992D01*
X99319974Y-56260620D01*
X99294219Y-56260076D01*
X99267373Y-56260343D01*
X99241281Y-56261401D01*
X99217789Y-56263233D01*
X99198744Y-56265818D01*
X99157901Y-56275581D01*
X99116662Y-56290859D01*
X99079626Y-56310596D01*
X99047080Y-56334501D01*
X99019311Y-56362285D01*
X98996605Y-56393654D01*
X98979250Y-56428319D01*
X98967533Y-56465988D01*
X98961739Y-56506370D01*
X98959662Y-56538000D01*
X98770164Y-56538000D01*
X98580667Y-56538000D01*
X98580667Y-56515400D01*
X98581721Y-56487635D01*
X98585793Y-56449298D01*
X98592546Y-56408869D01*
X98601576Y-56368371D01*
X98612477Y-56329826D01*
X98624842Y-56295255D01*
X98647740Y-56246505D01*
X98677834Y-56197186D01*
X98713326Y-56151208D01*
X98753879Y-56108858D01*
X98799153Y-56070422D01*
X98848808Y-56036186D01*
X98902505Y-56006437D01*
X98959904Y-55981460D01*
X99020667Y-55961542D01*
X99061243Y-55951187D01*
X99101280Y-55942996D01*
X99141710Y-55936948D01*
X99184063Y-55932856D01*
X99229871Y-55930534D01*
X99280667Y-55929795D01*
X99298705Y-55929866D01*
G37*
G36*
X101711474Y-57352992D02*
G01*
X101730930Y-57430371D01*
X101749769Y-57505290D01*
X101767934Y-57577513D01*
X101785363Y-57646806D01*
X101801998Y-57712932D01*
X101817780Y-57775656D01*
X101832650Y-57834742D01*
X101846547Y-57889955D01*
X101859413Y-57941058D01*
X101871189Y-57987817D01*
X101881814Y-58029995D01*
X101891230Y-58067357D01*
X101899378Y-58099667D01*
X101906198Y-58126690D01*
X101911630Y-58148189D01*
X101915617Y-58163930D01*
X101918097Y-58173677D01*
X101919012Y-58177193D01*
X101919033Y-58177393D01*
X101917618Y-58178269D01*
X101913374Y-58179001D01*
X101905876Y-58179595D01*
X101894696Y-58180059D01*
X101879409Y-58180401D01*
X101859589Y-58180627D01*
X101834808Y-58180745D01*
X101804640Y-58180763D01*
X101768658Y-58180688D01*
X101726437Y-58180526D01*
X101532396Y-58179666D01*
X101486720Y-57979666D01*
X101480155Y-57950917D01*
X101471463Y-57912843D01*
X101462912Y-57875379D01*
X101454695Y-57839364D01*
X101447003Y-57805641D01*
X101440028Y-57775052D01*
X101433962Y-57748438D01*
X101428997Y-57726640D01*
X101425326Y-57710500D01*
X101409608Y-57641333D01*
X101113707Y-57641333D01*
X100817806Y-57641333D01*
X100814109Y-57658833D01*
X100814006Y-57659317D01*
X100812475Y-57666226D01*
X100809600Y-57679013D01*
X100805502Y-57697138D01*
X100800305Y-57720059D01*
X100794131Y-57747235D01*
X100787105Y-57778125D01*
X100779348Y-57812188D01*
X100770984Y-57848882D01*
X100762136Y-57887666D01*
X100752927Y-57928000D01*
X100695442Y-58179666D01*
X100503054Y-58180527D01*
X100481949Y-58180606D01*
X100445829Y-58180663D01*
X100412925Y-58180615D01*
X100383733Y-58180467D01*
X100358743Y-58180225D01*
X100338449Y-58179892D01*
X100323343Y-58179476D01*
X100313918Y-58178982D01*
X100310667Y-58178414D01*
X100310686Y-58178309D01*
X100311735Y-58173971D01*
X100314334Y-58163500D01*
X100318409Y-58147179D01*
X100323890Y-58125296D01*
X100330705Y-58098136D01*
X100338780Y-58065984D01*
X100348045Y-58029127D01*
X100358427Y-57987849D01*
X100369854Y-57942437D01*
X100382253Y-57893176D01*
X100395554Y-57840352D01*
X100409684Y-57784250D01*
X100424570Y-57725156D01*
X100440141Y-57663357D01*
X100456325Y-57599136D01*
X100473050Y-57532781D01*
X100490243Y-57464576D01*
X100507832Y-57394808D01*
X100524487Y-57328757D01*
X100890667Y-57328757D01*
X100890716Y-57329314D01*
X100891328Y-57330399D01*
X100893012Y-57331328D01*
X100896235Y-57332111D01*
X100901463Y-57332762D01*
X100909163Y-57333292D01*
X100919800Y-57333714D01*
X100933841Y-57334040D01*
X100951752Y-57334282D01*
X100973999Y-57334453D01*
X101001047Y-57334565D01*
X101033364Y-57334629D01*
X101071415Y-57334659D01*
X101115667Y-57334666D01*
X101131618Y-57334665D01*
X101174106Y-57334640D01*
X101210533Y-57334578D01*
X101241349Y-57334469D01*
X101267006Y-57334302D01*
X101287955Y-57334067D01*
X101304647Y-57333755D01*
X101317533Y-57333356D01*
X101327064Y-57332859D01*
X101333692Y-57332255D01*
X101337868Y-57331534D01*
X101340043Y-57330685D01*
X101340667Y-57329699D01*
X101340597Y-57329185D01*
X101339434Y-57323415D01*
X101336913Y-57311691D01*
X101333128Y-57294431D01*
X101328171Y-57272052D01*
X101322138Y-57244973D01*
X101315121Y-57213610D01*
X101307214Y-57178381D01*
X101298509Y-57139704D01*
X101289102Y-57097997D01*
X101279086Y-57053676D01*
X101268553Y-57007160D01*
X101257598Y-56958866D01*
X101252605Y-56936868D01*
X101237499Y-56870168D01*
X101223769Y-56809299D01*
X101211308Y-56753759D01*
X101200007Y-56703043D01*
X101189757Y-56656648D01*
X101180453Y-56614070D01*
X101171984Y-56574807D01*
X101164243Y-56538354D01*
X101157122Y-56504208D01*
X101150514Y-56471866D01*
X101144309Y-56440824D01*
X101138400Y-56410579D01*
X101132679Y-56380627D01*
X101127037Y-56350464D01*
X101123585Y-56332536D01*
X101120210Y-56316420D01*
X101117300Y-56303941D01*
X101115081Y-56296074D01*
X101113782Y-56293797D01*
X101113658Y-56293993D01*
X101112202Y-56298809D01*
X101109805Y-56308989D01*
X101106692Y-56323495D01*
X101103087Y-56341289D01*
X101099212Y-56361333D01*
X101097997Y-56367723D01*
X101092336Y-56396630D01*
X101085275Y-56431598D01*
X101076888Y-56472276D01*
X101067249Y-56518318D01*
X101056434Y-56569374D01*
X101044517Y-56625096D01*
X101031573Y-56685137D01*
X101017676Y-56749147D01*
X101002902Y-56816780D01*
X100987325Y-56887685D01*
X100971020Y-56961516D01*
X100954061Y-57037924D01*
X100946004Y-57074183D01*
X100936897Y-57115286D01*
X100928307Y-57154188D01*
X100920336Y-57190410D01*
X100913091Y-57223474D01*
X100906673Y-57252902D01*
X100901189Y-57278215D01*
X100896742Y-57298936D01*
X100893437Y-57314585D01*
X100891377Y-57324685D01*
X100890667Y-57328757D01*
X100524487Y-57328757D01*
X100525746Y-57323762D01*
X100543913Y-57251724D01*
X100562259Y-57178979D01*
X100580714Y-57105813D01*
X100599205Y-57032512D01*
X100617661Y-56959362D01*
X100636008Y-56886647D01*
X100654175Y-56814654D01*
X100672091Y-56743668D01*
X100689682Y-56673976D01*
X100706877Y-56605862D01*
X100723604Y-56539612D01*
X100739790Y-56475512D01*
X100755365Y-56413848D01*
X100770254Y-56354905D01*
X100784388Y-56298970D01*
X100797693Y-56246326D01*
X100810097Y-56197262D01*
X100821528Y-56152061D01*
X100831915Y-56111009D01*
X100841185Y-56074393D01*
X100849267Y-56042498D01*
X100856087Y-56015609D01*
X100861575Y-55994012D01*
X100865657Y-55977994D01*
X100868262Y-55967839D01*
X100869319Y-55963833D01*
X100869883Y-55962810D01*
X100871292Y-55961842D01*
X100873966Y-55961014D01*
X100878357Y-55960313D01*
X100884914Y-55959730D01*
X100894088Y-55959253D01*
X100906328Y-55958872D01*
X100922084Y-55958577D01*
X100941806Y-55958356D01*
X100965945Y-55958199D01*
X100994951Y-55958096D01*
X101029273Y-55958035D01*
X101069362Y-55958007D01*
X101115667Y-55958000D01*
X101158571Y-55958005D01*
X101199131Y-55958032D01*
X101233889Y-55958090D01*
X101263295Y-55958189D01*
X101287799Y-55958341D01*
X101307852Y-55958557D01*
X101323903Y-55958846D01*
X101336402Y-55959219D01*
X101345799Y-55959688D01*
X101352544Y-55960263D01*
X101357088Y-55960954D01*
X101359880Y-55961772D01*
X101361371Y-55962728D01*
X101362009Y-55963833D01*
X101362223Y-55964640D01*
X101363853Y-55971027D01*
X101367022Y-55983542D01*
X101371671Y-56001946D01*
X101377741Y-56026005D01*
X101385171Y-56055483D01*
X101393903Y-56090142D01*
X101403877Y-56129748D01*
X101415034Y-56174063D01*
X101427315Y-56222853D01*
X101440659Y-56275880D01*
X101455007Y-56332908D01*
X101470301Y-56393702D01*
X101486481Y-56458025D01*
X101503487Y-56525642D01*
X101521259Y-56596316D01*
X101539740Y-56669810D01*
X101558868Y-56745889D01*
X101578585Y-56824317D01*
X101598831Y-56904858D01*
X101619547Y-56987275D01*
X101640673Y-57071333D01*
X101650003Y-57108455D01*
X101670951Y-57191799D01*
X101691462Y-57273390D01*
X101705618Y-57329699D01*
X101711474Y-57352992D01*
G37*
G36*
X107198131Y-57352992D02*
G01*
X107217587Y-57430371D01*
X107236427Y-57505290D01*
X107254591Y-57577513D01*
X107272021Y-57646806D01*
X107288656Y-57712932D01*
X107304439Y-57775656D01*
X107319308Y-57834742D01*
X107333206Y-57889955D01*
X107346072Y-57941058D01*
X107357848Y-57987817D01*
X107368474Y-58029995D01*
X107377890Y-58067357D01*
X107386038Y-58099667D01*
X107392859Y-58126690D01*
X107398291Y-58148189D01*
X107402278Y-58163930D01*
X107404759Y-58173677D01*
X107405674Y-58177193D01*
X107405695Y-58177394D01*
X107404279Y-58178270D01*
X107400035Y-58179001D01*
X107392536Y-58179595D01*
X107381355Y-58180060D01*
X107366067Y-58180401D01*
X107346245Y-58180627D01*
X107321463Y-58180745D01*
X107291293Y-58180763D01*
X107255311Y-58180688D01*
X107213088Y-58180526D01*
X107019031Y-58179666D01*
X106973654Y-57980937D01*
X106967421Y-57953638D01*
X106958733Y-57915571D01*
X106950168Y-57878037D01*
X106941923Y-57841890D01*
X106934190Y-57807981D01*
X106927164Y-57777162D01*
X106921041Y-57750286D01*
X106916013Y-57728204D01*
X106912276Y-57711770D01*
X106896275Y-57641333D01*
X106600374Y-57641333D01*
X106304473Y-57641333D01*
X106300780Y-57658833D01*
X106300677Y-57659318D01*
X106299146Y-57666227D01*
X106296270Y-57679015D01*
X106292170Y-57697140D01*
X106286970Y-57720061D01*
X106280794Y-57747237D01*
X106273764Y-57778127D01*
X106266003Y-57812189D01*
X106257635Y-57848883D01*
X106248782Y-57887667D01*
X106239568Y-57928000D01*
X106182048Y-58179666D01*
X105989691Y-58180527D01*
X105972688Y-58180593D01*
X105935223Y-58180667D01*
X105901309Y-58180630D01*
X105871393Y-58180487D01*
X105845918Y-58180244D01*
X105825330Y-58179905D01*
X105810073Y-58179476D01*
X105800593Y-58178961D01*
X105797334Y-58178365D01*
X105797353Y-58178263D01*
X105798398Y-58173937D01*
X105800993Y-58163476D01*
X105805065Y-58147167D01*
X105810543Y-58125294D01*
X105817355Y-58098143D01*
X105825428Y-58066000D01*
X105834690Y-58029151D01*
X105845070Y-57987881D01*
X105856495Y-57942476D01*
X105868893Y-57893222D01*
X105882192Y-57840404D01*
X105896320Y-57784308D01*
X105911205Y-57725219D01*
X105926776Y-57663424D01*
X105942958Y-57599208D01*
X105959682Y-57532856D01*
X105976875Y-57464654D01*
X105994464Y-57394889D01*
X106011138Y-57328757D01*
X106377334Y-57328757D01*
X106377383Y-57329314D01*
X106377994Y-57330399D01*
X106379678Y-57331328D01*
X106382902Y-57332111D01*
X106388130Y-57332762D01*
X106395830Y-57333292D01*
X106406467Y-57333714D01*
X106420508Y-57334040D01*
X106438419Y-57334282D01*
X106460665Y-57334453D01*
X106487714Y-57334565D01*
X106520031Y-57334629D01*
X106558082Y-57334659D01*
X106602334Y-57334666D01*
X106622575Y-57334664D01*
X106664418Y-57334637D01*
X106700245Y-57334573D01*
X106730509Y-57334461D01*
X106755664Y-57334292D01*
X106776162Y-57334054D01*
X106792457Y-57333738D01*
X106805002Y-57333334D01*
X106814250Y-57332831D01*
X106820654Y-57332220D01*
X106824667Y-57331490D01*
X106826743Y-57330632D01*
X106827334Y-57329634D01*
X106827332Y-57329589D01*
X106826532Y-57325393D01*
X106824350Y-57315147D01*
X106820882Y-57299276D01*
X106816224Y-57278209D01*
X106810471Y-57252372D01*
X106803719Y-57222191D01*
X106796064Y-57188094D01*
X106787601Y-57150507D01*
X106778426Y-57109858D01*
X106768635Y-57066572D01*
X106758323Y-57021078D01*
X106747586Y-56973801D01*
X106746961Y-56971053D01*
X106732171Y-56905931D01*
X106718772Y-56846802D01*
X106706659Y-56793181D01*
X106695729Y-56744584D01*
X106685877Y-56700527D01*
X106676998Y-56660526D01*
X106668988Y-56624098D01*
X106661743Y-56590758D01*
X106655157Y-56560022D01*
X106649126Y-56531406D01*
X106643547Y-56504427D01*
X106638313Y-56478600D01*
X106633322Y-56453441D01*
X106628467Y-56428466D01*
X106623646Y-56403191D01*
X106618752Y-56377132D01*
X106614554Y-56355126D01*
X106610465Y-56334688D01*
X106606828Y-56317511D01*
X106603824Y-56304420D01*
X106601636Y-56296241D01*
X106600443Y-56293799D01*
X106600319Y-56293996D01*
X106598859Y-56298812D01*
X106596455Y-56308992D01*
X106593332Y-56323498D01*
X106589714Y-56341290D01*
X106585827Y-56361333D01*
X106584625Y-56367629D01*
X106578860Y-56397015D01*
X106571701Y-56432440D01*
X106563225Y-56473536D01*
X106553511Y-56519935D01*
X106542639Y-56571270D01*
X106530687Y-56627172D01*
X106517735Y-56687275D01*
X106503860Y-56751210D01*
X106489143Y-56818611D01*
X106473660Y-56889108D01*
X106457493Y-56962335D01*
X106440719Y-57037924D01*
X106432663Y-57074182D01*
X106423558Y-57115285D01*
X106414969Y-57154187D01*
X106406999Y-57190409D01*
X106399754Y-57223473D01*
X106393338Y-57252901D01*
X106387855Y-57278215D01*
X106383408Y-57298935D01*
X106380103Y-57314585D01*
X106378043Y-57324685D01*
X106377334Y-57328757D01*
X106011138Y-57328757D01*
X106012377Y-57323845D01*
X106030544Y-57251808D01*
X106048890Y-57179065D01*
X106067345Y-57105899D01*
X106085837Y-57032599D01*
X106104293Y-56959448D01*
X106122641Y-56886732D01*
X106140809Y-56814738D01*
X106158725Y-56743751D01*
X106176317Y-56674057D01*
X106193513Y-56605941D01*
X106210241Y-56539689D01*
X106226429Y-56475586D01*
X106242004Y-56413919D01*
X106256896Y-56354972D01*
X106271031Y-56299033D01*
X106284337Y-56246385D01*
X106296743Y-56197316D01*
X106308176Y-56152110D01*
X106318565Y-56111053D01*
X106327837Y-56074431D01*
X106335921Y-56042530D01*
X106342743Y-56015636D01*
X106348233Y-55994033D01*
X106352318Y-55978008D01*
X106354925Y-55967846D01*
X106355984Y-55963833D01*
X106356549Y-55962810D01*
X106357958Y-55961842D01*
X106360632Y-55961014D01*
X106365023Y-55960313D01*
X106371581Y-55959730D01*
X106380754Y-55959253D01*
X106392994Y-55958872D01*
X106408750Y-55958577D01*
X106428473Y-55958356D01*
X106452612Y-55958199D01*
X106481618Y-55958096D01*
X106515940Y-55958035D01*
X106556029Y-55958007D01*
X106602334Y-55958000D01*
X106645244Y-55958005D01*
X106685803Y-55958032D01*
X106720560Y-55958090D01*
X106749966Y-55958189D01*
X106774469Y-55958341D01*
X106794521Y-55958557D01*
X106810570Y-55958846D01*
X106823068Y-55959219D01*
X106832465Y-55959688D01*
X106839209Y-55960263D01*
X106843752Y-55960954D01*
X106846543Y-55961772D01*
X106848033Y-55962728D01*
X106848670Y-55963833D01*
X106848884Y-55964640D01*
X106850513Y-55971027D01*
X106853682Y-55983542D01*
X106858331Y-56001946D01*
X106864400Y-56026006D01*
X106871830Y-56055483D01*
X106880562Y-56090142D01*
X106890535Y-56129748D01*
X106901692Y-56174064D01*
X106913972Y-56222853D01*
X106927316Y-56275880D01*
X106941665Y-56332908D01*
X106956958Y-56393702D01*
X106973138Y-56458026D01*
X106990143Y-56525642D01*
X107007916Y-56596316D01*
X107026396Y-56669810D01*
X107045524Y-56745889D01*
X107065241Y-56824318D01*
X107085487Y-56904858D01*
X107106203Y-56987275D01*
X107127330Y-57071333D01*
X107136660Y-57108455D01*
X107157608Y-57191799D01*
X107178118Y-57273390D01*
X107192258Y-57329634D01*
X107198131Y-57352992D01*
G37*
G36*
X101592177Y-49489054D02*
G01*
X101593151Y-49495234D01*
X101594998Y-49507519D01*
X101597669Y-49525565D01*
X101601115Y-49549030D01*
X101605287Y-49577572D01*
X101610135Y-49610847D01*
X101615610Y-49648513D01*
X101621663Y-49690228D01*
X101628244Y-49735648D01*
X101635304Y-49784430D01*
X101642794Y-49836234D01*
X101650665Y-49890714D01*
X101658866Y-49947530D01*
X101667350Y-50006337D01*
X101676066Y-50066794D01*
X101684966Y-50128558D01*
X101694000Y-50191286D01*
X101703118Y-50254636D01*
X101712272Y-50318264D01*
X101721412Y-50381828D01*
X101730489Y-50444986D01*
X101739454Y-50507394D01*
X101748257Y-50568710D01*
X101756849Y-50628592D01*
X101765180Y-50686696D01*
X101773202Y-50742680D01*
X101780865Y-50796201D01*
X101788120Y-50846917D01*
X101794918Y-50894485D01*
X101801208Y-50938562D01*
X101806943Y-50978806D01*
X101812072Y-51014873D01*
X101816547Y-51046422D01*
X101820317Y-51073109D01*
X101823335Y-51094592D01*
X101825550Y-51110528D01*
X101826913Y-51120574D01*
X101827375Y-51124388D01*
X101827578Y-51126385D01*
X101829219Y-51127225D01*
X101829303Y-51126926D01*
X101830194Y-51121723D01*
X101831979Y-51110281D01*
X101834616Y-51092881D01*
X101838065Y-51069805D01*
X101842284Y-51041334D01*
X101847233Y-51007750D01*
X101852870Y-50969335D01*
X101859154Y-50926370D01*
X101866044Y-50879137D01*
X101873500Y-50827917D01*
X101881480Y-50772992D01*
X101889942Y-50714644D01*
X101898847Y-50653154D01*
X101908153Y-50588804D01*
X101917819Y-50521875D01*
X101927803Y-50452650D01*
X101938066Y-50381409D01*
X101948565Y-50308435D01*
X101951487Y-50288114D01*
X101961928Y-50215585D01*
X101972122Y-50144865D01*
X101982030Y-50076236D01*
X101991610Y-50009980D01*
X102000821Y-49946378D01*
X102009622Y-49885712D01*
X102017971Y-49828265D01*
X102025827Y-49774317D01*
X102033150Y-49724151D01*
X102039897Y-49678048D01*
X102046029Y-49636290D01*
X102051503Y-49599159D01*
X102056278Y-49566937D01*
X102060314Y-49539905D01*
X102063570Y-49518345D01*
X102066003Y-49502539D01*
X102067573Y-49492769D01*
X102068239Y-49489317D01*
X102069379Y-49489306D01*
X102076178Y-49489968D01*
X102088474Y-49491426D01*
X102105555Y-49493582D01*
X102126711Y-49496337D01*
X102151232Y-49499592D01*
X102178408Y-49503250D01*
X102207527Y-49507211D01*
X102237881Y-49511377D01*
X102268758Y-49515650D01*
X102299448Y-49519931D01*
X102329241Y-49524122D01*
X102357426Y-49528124D01*
X102383293Y-49531838D01*
X102406132Y-49535167D01*
X102425232Y-49538012D01*
X102439883Y-49540274D01*
X102449374Y-49541854D01*
X102452996Y-49542656D01*
X102452623Y-49545802D01*
X102451351Y-49555212D01*
X102449226Y-49570543D01*
X102446297Y-49591452D01*
X102442613Y-49617595D01*
X102438223Y-49648630D01*
X102433175Y-49684213D01*
X102427519Y-49724001D01*
X102421302Y-49767651D01*
X102414575Y-49814821D01*
X102407385Y-49865165D01*
X102399781Y-49918343D01*
X102391813Y-49974010D01*
X102383528Y-50031823D01*
X102374976Y-50091439D01*
X102296294Y-50639666D01*
X102262368Y-50684666D01*
X102189178Y-50785866D01*
X102110677Y-50904840D01*
X102038177Y-51026595D01*
X101971728Y-51150986D01*
X101911377Y-51277868D01*
X101857173Y-51407097D01*
X101809166Y-51538527D01*
X101767402Y-51672013D01*
X101731932Y-51807411D01*
X101702803Y-51944575D01*
X101680064Y-52083361D01*
X101663765Y-52223623D01*
X101653953Y-52365218D01*
X101650676Y-52508000D01*
X101650707Y-52521814D01*
X101654543Y-52664970D01*
X101664813Y-52806407D01*
X101681533Y-52946203D01*
X101704715Y-53084433D01*
X101734376Y-53221172D01*
X101770528Y-53356498D01*
X101813188Y-53490486D01*
X101862368Y-53623213D01*
X101905830Y-53726948D01*
X101963976Y-53851085D01*
X102027623Y-53972470D01*
X102096420Y-54090478D01*
X102170018Y-54204482D01*
X102248067Y-54313857D01*
X102256025Y-54324514D01*
X102268641Y-54341619D01*
X102279544Y-54356667D01*
X102288154Y-54368844D01*
X102293893Y-54377337D01*
X102296179Y-54381333D01*
X102296787Y-54385063D01*
X102298284Y-54395005D01*
X102300601Y-54410712D01*
X102303678Y-54431758D01*
X102307455Y-54457718D01*
X102311870Y-54488166D01*
X102316862Y-54522679D01*
X102322370Y-54560829D01*
X102328334Y-54602193D01*
X102334692Y-54646345D01*
X102341384Y-54692860D01*
X102348348Y-54741312D01*
X102355524Y-54791276D01*
X102362851Y-54842327D01*
X102370267Y-54894040D01*
X102377712Y-54945990D01*
X102385125Y-54997751D01*
X102392445Y-55048898D01*
X102399611Y-55099007D01*
X102406562Y-55147651D01*
X102413237Y-55194405D01*
X102419576Y-55238845D01*
X102425516Y-55280544D01*
X102430998Y-55319079D01*
X102435960Y-55354023D01*
X102440342Y-55384951D01*
X102444082Y-55411439D01*
X102447119Y-55433060D01*
X102449394Y-55449390D01*
X102450843Y-55460004D01*
X102451408Y-55464476D01*
X102452334Y-55475952D01*
X102265667Y-55503174D01*
X102240889Y-55506785D01*
X102207543Y-55511632D01*
X102176514Y-55516131D01*
X102148414Y-55520193D01*
X102123853Y-55523729D01*
X102103442Y-55526652D01*
X102087794Y-55528875D01*
X102077520Y-55530308D01*
X102073231Y-55530865D01*
X102069375Y-55529799D01*
X102065800Y-55523833D01*
X102065777Y-55523717D01*
X102065059Y-55519071D01*
X102063441Y-55508144D01*
X102060965Y-55491222D01*
X102057673Y-55468593D01*
X102053606Y-55440542D01*
X102048805Y-55407357D01*
X102043311Y-55369325D01*
X102037166Y-55326731D01*
X102030411Y-55279863D01*
X102023087Y-55229007D01*
X102015236Y-55174450D01*
X102006898Y-55116479D01*
X101998116Y-55055379D01*
X101988931Y-54991439D01*
X101979383Y-54924944D01*
X101969514Y-54856182D01*
X101959366Y-54785438D01*
X101948980Y-54713000D01*
X101947888Y-54705385D01*
X101937519Y-54633073D01*
X101927389Y-54562467D01*
X101917540Y-54493854D01*
X101908014Y-54427523D01*
X101898852Y-54363762D01*
X101890095Y-54302859D01*
X101881785Y-54245100D01*
X101873964Y-54190775D01*
X101866672Y-54140170D01*
X101859953Y-54093575D01*
X101853845Y-54051275D01*
X101848393Y-54013561D01*
X101843636Y-53980719D01*
X101839617Y-53953036D01*
X101836376Y-53930802D01*
X101833956Y-53914304D01*
X101832398Y-53903829D01*
X101831744Y-53899666D01*
X101831577Y-53898891D01*
X101829893Y-53893415D01*
X101828635Y-53893000D01*
X101828575Y-53893323D01*
X101827766Y-53898616D01*
X101826062Y-53910150D01*
X101823505Y-53927642D01*
X101820134Y-53950809D01*
X101815991Y-53979370D01*
X101811116Y-54013042D01*
X101805550Y-54051543D01*
X101799333Y-54094590D01*
X101792507Y-54141901D01*
X101785112Y-54193193D01*
X101777189Y-54248186D01*
X101768779Y-54306595D01*
X101759922Y-54368139D01*
X101750659Y-54432535D01*
X101741030Y-54499502D01*
X101731078Y-54568756D01*
X101720841Y-54640016D01*
X101710361Y-54713000D01*
X101707435Y-54733382D01*
X101697024Y-54805876D01*
X101686870Y-54876551D01*
X101677013Y-54945126D01*
X101667495Y-55011319D01*
X101658355Y-55074849D01*
X101649634Y-55135436D01*
X101641373Y-55192798D01*
X101633612Y-55246653D01*
X101626392Y-55296721D01*
X101619754Y-55342721D01*
X101613737Y-55384371D01*
X101608383Y-55421390D01*
X101603731Y-55453496D01*
X101599824Y-55480410D01*
X101596700Y-55501849D01*
X101594401Y-55517532D01*
X101592968Y-55527179D01*
X101592440Y-55530508D01*
X101590086Y-55530313D01*
X101581690Y-55529271D01*
X101567767Y-55527422D01*
X101548900Y-55524848D01*
X101525673Y-55521630D01*
X101498668Y-55517849D01*
X101468470Y-55513584D01*
X101435661Y-55508919D01*
X101400825Y-55503932D01*
X101368825Y-55499308D01*
X101326387Y-55493059D01*
X101290508Y-55487619D01*
X101261153Y-55482981D01*
X101238288Y-55479141D01*
X101221879Y-55476092D01*
X101211890Y-55473829D01*
X101208289Y-55472346D01*
X101208283Y-55472034D01*
X101208845Y-55466762D01*
X101210310Y-55455247D01*
X101212638Y-55437771D01*
X101215788Y-55414618D01*
X101219721Y-55386071D01*
X101224397Y-55352413D01*
X101229776Y-55313925D01*
X101235818Y-55270892D01*
X101242483Y-55223597D01*
X101249731Y-55172321D01*
X101257523Y-55117348D01*
X101265818Y-55058961D01*
X101274576Y-54997442D01*
X101283758Y-54933075D01*
X101293324Y-54866142D01*
X101303233Y-54796926D01*
X101313446Y-54725711D01*
X101323923Y-54652778D01*
X101326706Y-54633423D01*
X101337116Y-54560964D01*
X101347257Y-54490318D01*
X101357087Y-54421767D01*
X101366566Y-54355593D01*
X101375656Y-54292078D01*
X101384315Y-54231502D01*
X101392503Y-54174147D01*
X101400182Y-54120295D01*
X101407309Y-54070227D01*
X101413846Y-54024224D01*
X101419753Y-53982568D01*
X101424989Y-53945541D01*
X101429514Y-53913423D01*
X101433289Y-53886497D01*
X101436273Y-53865043D01*
X101438426Y-53849344D01*
X101439708Y-53839680D01*
X101440079Y-53836333D01*
X101439932Y-53836566D01*
X101437680Y-53841196D01*
X101432814Y-53851558D01*
X101425452Y-53867395D01*
X101415712Y-53888449D01*
X101403712Y-53914463D01*
X101389571Y-53945180D01*
X101373407Y-53980342D01*
X101355336Y-54019691D01*
X101335479Y-54062971D01*
X101313952Y-54109923D01*
X101290873Y-54160291D01*
X101266362Y-54213817D01*
X101240535Y-54270244D01*
X101213512Y-54329313D01*
X101185410Y-54390768D01*
X101156346Y-54454352D01*
X101126440Y-54519806D01*
X101095810Y-54586873D01*
X101086933Y-54606312D01*
X101056481Y-54672981D01*
X101026780Y-54737978D01*
X100997948Y-54801047D01*
X100970104Y-54861929D01*
X100943367Y-54920364D01*
X100917854Y-54976095D01*
X100893686Y-55028863D01*
X100870980Y-55078410D01*
X100849854Y-55124476D01*
X100830428Y-55166804D01*
X100812820Y-55205134D01*
X100797149Y-55239209D01*
X100783533Y-55268770D01*
X100772091Y-55293558D01*
X100762941Y-55313314D01*
X100756202Y-55327781D01*
X100751993Y-55336700D01*
X100750432Y-55339811D01*
X100749401Y-55339603D01*
X100743154Y-55337216D01*
X100731857Y-55332460D01*
X100716164Y-55325635D01*
X100696729Y-55317039D01*
X100674206Y-55306972D01*
X100649249Y-55295735D01*
X100622513Y-55283625D01*
X100594652Y-55270943D01*
X100566319Y-55257988D01*
X100538169Y-55245060D01*
X100510857Y-55232458D01*
X100485036Y-55220480D01*
X100461360Y-55209428D01*
X100440484Y-55199600D01*
X100423063Y-55191296D01*
X100409749Y-55184815D01*
X100401198Y-55180456D01*
X100398063Y-55178520D01*
X100398061Y-55178505D01*
X100399434Y-55175010D01*
X100403456Y-55165726D01*
X100410009Y-55150915D01*
X100418973Y-55130839D01*
X100430230Y-55105762D01*
X100443661Y-55075946D01*
X100459145Y-55041655D01*
X100476565Y-55003150D01*
X100495801Y-54960695D01*
X100516733Y-54914552D01*
X100539243Y-54864985D01*
X100563211Y-54812255D01*
X100588519Y-54756627D01*
X100615047Y-54698362D01*
X100642677Y-54637723D01*
X100671288Y-54574974D01*
X100700762Y-54510377D01*
X100730980Y-54444194D01*
X100739349Y-54425869D01*
X100776053Y-54345512D01*
X100810108Y-54270962D01*
X100841608Y-54202005D01*
X100870651Y-54138429D01*
X100897333Y-54080021D01*
X100921748Y-54026567D01*
X100943993Y-53977856D01*
X100964164Y-53933673D01*
X100982356Y-53893808D01*
X100998667Y-53858045D01*
X101013190Y-53826174D01*
X101026024Y-53797980D01*
X101037262Y-53773251D01*
X101047002Y-53751775D01*
X101055340Y-53733337D01*
X101062370Y-53717726D01*
X101068189Y-53704729D01*
X101072893Y-53694132D01*
X101076578Y-53685724D01*
X101079339Y-53679290D01*
X101081273Y-53674619D01*
X101082476Y-53671497D01*
X101083043Y-53669711D01*
X101083070Y-53669049D01*
X101082653Y-53669298D01*
X101081889Y-53670245D01*
X101080873Y-53671677D01*
X101079700Y-53673381D01*
X101078467Y-53675145D01*
X101077270Y-53676755D01*
X101076205Y-53678000D01*
X101076048Y-53678166D01*
X101072528Y-53682134D01*
X101064864Y-53690890D01*
X101053246Y-53704215D01*
X101037864Y-53721888D01*
X101018908Y-53743692D01*
X100996570Y-53769405D01*
X100971039Y-53798808D01*
X100942507Y-53831682D01*
X100911164Y-53867807D01*
X100877200Y-53906964D01*
X100840806Y-53948932D01*
X100802172Y-53993493D01*
X100761488Y-54040427D01*
X100718946Y-54089514D01*
X100674736Y-54140534D01*
X100629049Y-54193268D01*
X100582074Y-54247496D01*
X100534002Y-54303000D01*
X100525774Y-54312499D01*
X100477961Y-54367696D01*
X100431315Y-54421528D01*
X100386024Y-54473779D01*
X100342275Y-54524232D01*
X100300258Y-54572672D01*
X100260159Y-54618881D01*
X100222166Y-54662645D01*
X100186469Y-54703746D01*
X100153254Y-54741969D01*
X100122710Y-54777097D01*
X100095024Y-54808913D01*
X100070385Y-54837202D01*
X100048980Y-54861748D01*
X100030998Y-54882333D01*
X100016627Y-54898742D01*
X100006054Y-54910759D01*
X99999467Y-54918167D01*
X99997055Y-54920750D01*
X99994749Y-54919319D01*
X99987784Y-54913901D01*
X99976638Y-54904812D01*
X99961762Y-54892430D01*
X99943607Y-54877137D01*
X99922625Y-54859314D01*
X99899267Y-54839340D01*
X99873984Y-54817595D01*
X99847228Y-54794461D01*
X99700292Y-54667089D01*
X99708377Y-54658378D01*
X99711175Y-54655206D01*
X99718127Y-54647236D01*
X99728976Y-54634760D01*
X99743493Y-54618045D01*
X99761449Y-54597355D01*
X99782613Y-54572955D01*
X99806756Y-54545110D01*
X99833649Y-54514086D01*
X99863062Y-54480147D01*
X99894766Y-54443559D01*
X99928531Y-54404586D01*
X99964127Y-54363495D01*
X100001326Y-54320549D01*
X100039897Y-54276014D01*
X100079612Y-54230156D01*
X100120240Y-54183239D01*
X100161552Y-54135528D01*
X100203319Y-54087289D01*
X100245311Y-54038787D01*
X100287299Y-53990286D01*
X100329052Y-53942052D01*
X100370342Y-53894350D01*
X100410939Y-53847445D01*
X100450614Y-53801602D01*
X100489137Y-53757086D01*
X100526278Y-53714163D01*
X100561807Y-53673097D01*
X100595497Y-53634154D01*
X100627116Y-53597599D01*
X100656436Y-53563696D01*
X100683227Y-53532712D01*
X100707259Y-53504910D01*
X100728303Y-53480556D01*
X100746129Y-53459916D01*
X100760508Y-53443254D01*
X100771210Y-53430836D01*
X100778007Y-53422926D01*
X100780667Y-53419789D01*
X100782789Y-53417008D01*
X100783869Y-53414773D01*
X100780667Y-53416309D01*
X100780463Y-53416435D01*
X100776147Y-53419182D01*
X100766513Y-53425347D01*
X100751802Y-53434774D01*
X100732257Y-53447309D01*
X100708120Y-53462795D01*
X100679631Y-53481077D01*
X100647033Y-53502001D01*
X100610568Y-53525411D01*
X100570478Y-53551152D01*
X100527004Y-53579068D01*
X100480388Y-53609005D01*
X100430871Y-53640806D01*
X100378697Y-53674318D01*
X100324106Y-53709384D01*
X100267340Y-53745849D01*
X100208641Y-53783558D01*
X100148251Y-53822356D01*
X100086411Y-53862088D01*
X100073631Y-53870299D01*
X100012087Y-53909836D01*
X99952048Y-53948396D01*
X99893756Y-53985825D01*
X99837452Y-54021970D01*
X99783378Y-54056674D01*
X99731774Y-54089783D01*
X99682882Y-54121143D01*
X99636943Y-54150599D01*
X99594199Y-54177997D01*
X99554891Y-54203181D01*
X99519260Y-54225997D01*
X99487548Y-54246291D01*
X99459996Y-54263907D01*
X99436844Y-54278691D01*
X99418336Y-54290489D01*
X99404711Y-54299146D01*
X99396211Y-54304507D01*
X99393078Y-54306417D01*
X99392724Y-54306308D01*
X99389217Y-54302435D01*
X99382459Y-54293337D01*
X99372678Y-54279353D01*
X99360103Y-54260820D01*
X99344960Y-54238076D01*
X99327477Y-54211458D01*
X99307881Y-54181306D01*
X99286400Y-54147957D01*
X99272149Y-54125724D01*
X99253995Y-54097352D01*
X99237158Y-54070977D01*
X99221963Y-54047116D01*
X99208739Y-54026284D01*
X99197812Y-54008997D01*
X99189510Y-53995770D01*
X99184159Y-53987119D01*
X99182088Y-53983560D01*
X99182110Y-53983447D01*
X99185243Y-53980765D01*
X99193605Y-53974768D01*
X99207225Y-53965440D01*
X99226127Y-53952763D01*
X99250338Y-53936719D01*
X99279886Y-53917291D01*
X99314797Y-53894463D01*
X99355096Y-53868217D01*
X99400812Y-53838535D01*
X99451969Y-53805400D01*
X99508596Y-53768795D01*
X99570717Y-53728704D01*
X99638361Y-53685107D01*
X99711553Y-53637990D01*
X99790320Y-53587333D01*
X99874688Y-53533119D01*
X99891645Y-53522227D01*
X99953321Y-53482606D01*
X100013469Y-53443959D01*
X100071850Y-53406441D01*
X100128222Y-53370208D01*
X100182345Y-53335414D01*
X100233981Y-53302212D01*
X100282887Y-53270758D01*
X100328825Y-53241206D01*
X100371555Y-53213711D01*
X100410835Y-53188427D01*
X100446426Y-53165508D01*
X100478089Y-53145110D01*
X100505582Y-53127387D01*
X100528665Y-53112493D01*
X100547100Y-53100583D01*
X100560644Y-53091811D01*
X100569059Y-53086331D01*
X100572105Y-53084300D01*
X100572314Y-53084137D01*
X100573076Y-53083691D01*
X100574035Y-53083202D01*
X100574965Y-53082738D01*
X100575637Y-53082364D01*
X100575826Y-53082147D01*
X100575302Y-53082153D01*
X100573839Y-53082448D01*
X100571209Y-53083099D01*
X100567185Y-53084170D01*
X100561540Y-53085730D01*
X100554045Y-53087843D01*
X100544475Y-53090576D01*
X100532600Y-53093994D01*
X100518195Y-53098166D01*
X100501031Y-53103155D01*
X100480881Y-53109029D01*
X100457518Y-53115854D01*
X100430714Y-53123695D01*
X100400242Y-53132620D01*
X100365874Y-53142694D01*
X100327383Y-53153983D01*
X100284542Y-53166554D01*
X100237124Y-53180472D01*
X100184900Y-53195804D01*
X100127643Y-53212617D01*
X100065127Y-53230975D01*
X99997123Y-53250946D01*
X99923405Y-53272595D01*
X99843744Y-53295989D01*
X99757914Y-53321194D01*
X99752403Y-53322813D01*
X99682595Y-53343305D01*
X99614497Y-53363284D01*
X99548384Y-53382669D01*
X99484531Y-53401379D01*
X99423216Y-53419334D01*
X99364712Y-53436455D01*
X99309297Y-53452659D01*
X99257245Y-53467867D01*
X99208833Y-53481999D01*
X99164335Y-53494974D01*
X99124028Y-53506711D01*
X99088187Y-53517131D01*
X99057088Y-53526152D01*
X99031007Y-53533694D01*
X99010219Y-53539678D01*
X98995000Y-53544021D01*
X98985625Y-53546645D01*
X98982370Y-53547469D01*
X98982088Y-53546803D01*
X98980183Y-53540965D01*
X98976713Y-53529701D01*
X98971882Y-53513704D01*
X98965893Y-53493668D01*
X98958949Y-53470286D01*
X98951251Y-53444252D01*
X98943004Y-53416257D01*
X98934409Y-53386997D01*
X98925671Y-53357163D01*
X98916991Y-53327448D01*
X98908574Y-53298547D01*
X98900620Y-53271153D01*
X98893334Y-53245958D01*
X98886918Y-53223655D01*
X98881576Y-53204939D01*
X98877509Y-53190501D01*
X98874922Y-53181036D01*
X98874016Y-53177237D01*
X98874024Y-53177208D01*
X98877540Y-53175678D01*
X98887407Y-53172316D01*
X98903573Y-53167137D01*
X98925984Y-53160157D01*
X98954590Y-53151392D01*
X98989338Y-53140856D01*
X99030177Y-53128566D01*
X99077053Y-53114538D01*
X99129916Y-53098786D01*
X99188712Y-53081326D01*
X99253390Y-53062174D01*
X99323897Y-53041345D01*
X99400182Y-53018856D01*
X99482193Y-52994721D01*
X99569877Y-52968956D01*
X99663182Y-52941576D01*
X99680024Y-52936637D01*
X99750320Y-52916015D01*
X99818894Y-52895890D01*
X99885469Y-52876342D01*
X99949771Y-52857452D01*
X100011525Y-52839302D01*
X100070456Y-52821972D01*
X100126289Y-52805543D01*
X100178749Y-52790098D01*
X100227560Y-52775715D01*
X100272449Y-52762478D01*
X100313140Y-52750466D01*
X100349358Y-52739761D01*
X100380828Y-52730444D01*
X100407275Y-52722595D01*
X100428424Y-52716297D01*
X100444000Y-52711629D01*
X100453728Y-52708674D01*
X100457334Y-52707511D01*
X100457108Y-52707431D01*
X100452085Y-52707197D01*
X100440770Y-52706968D01*
X100423446Y-52706745D01*
X100400391Y-52706529D01*
X100371887Y-52706321D01*
X100338214Y-52706122D01*
X100299654Y-52705933D01*
X100256486Y-52705755D01*
X100208992Y-52705588D01*
X100157452Y-52705434D01*
X100102147Y-52705293D01*
X100043358Y-52705167D01*
X99981365Y-52705057D01*
X99916449Y-52704962D01*
X99848890Y-52704885D01*
X99778970Y-52704827D01*
X99706969Y-52704787D01*
X99633167Y-52704768D01*
X98804000Y-52704666D01*
X98804000Y-52509666D01*
X98804000Y-52314666D01*
X99633001Y-52314666D01*
X99657624Y-52314665D01*
X99730883Y-52314647D01*
X99802261Y-52314607D01*
X99871477Y-52314547D01*
X99938250Y-52314468D01*
X100002298Y-52314370D01*
X100063339Y-52314255D01*
X100121092Y-52314124D01*
X100175275Y-52313977D01*
X100225607Y-52313815D01*
X100271806Y-52313640D01*
X100313591Y-52313452D01*
X100350680Y-52313253D01*
X100382791Y-52313043D01*
X100409644Y-52312823D01*
X100430956Y-52312594D01*
X100446446Y-52312357D01*
X100455832Y-52312114D01*
X100458834Y-52311864D01*
X100458226Y-52311641D01*
X100452376Y-52309816D01*
X100440599Y-52306251D01*
X100423228Y-52301044D01*
X100400595Y-52294293D01*
X100373035Y-52286097D01*
X100340880Y-52276554D01*
X100304462Y-52265761D01*
X100264116Y-52253817D01*
X100220174Y-52240819D01*
X100172969Y-52226867D01*
X100122834Y-52212058D01*
X100070102Y-52196489D01*
X100015107Y-52180260D01*
X99958181Y-52163468D01*
X99899658Y-52146212D01*
X99839870Y-52128588D01*
X99779150Y-52110697D01*
X99717832Y-52092634D01*
X99656249Y-52074500D01*
X99594733Y-52056391D01*
X99533618Y-52038405D01*
X99473237Y-52020642D01*
X99413923Y-52003199D01*
X99356008Y-51986173D01*
X99299827Y-51969664D01*
X99245711Y-51953769D01*
X99193994Y-51938586D01*
X99145009Y-51924214D01*
X99099090Y-51910750D01*
X99056568Y-51898292D01*
X99017778Y-51886939D01*
X98983052Y-51876789D01*
X98952723Y-51867939D01*
X98927125Y-51860488D01*
X98906590Y-51854535D01*
X98891451Y-51850176D01*
X98882042Y-51847510D01*
X98871751Y-51844652D01*
X98922919Y-51670492D01*
X98927898Y-51653541D01*
X98937423Y-51621089D01*
X98946372Y-51590574D01*
X98954556Y-51562634D01*
X98961791Y-51537904D01*
X98967889Y-51517022D01*
X98972666Y-51500625D01*
X98975933Y-51489349D01*
X98977506Y-51483833D01*
X98978244Y-51481430D01*
X98981710Y-51474231D01*
X98985289Y-51471333D01*
X98985572Y-51471388D01*
X98990629Y-51472758D01*
X99001740Y-51475910D01*
X99018632Y-51480762D01*
X99041029Y-51487234D01*
X99068658Y-51495246D01*
X99101243Y-51504719D01*
X99138511Y-51515571D01*
X99180186Y-51527723D01*
X99225995Y-51541095D01*
X99275662Y-51555605D01*
X99328912Y-51571176D01*
X99385473Y-51587725D01*
X99445068Y-51605173D01*
X99507424Y-51623439D01*
X99572265Y-51642445D01*
X99639318Y-51662108D01*
X99708308Y-51682350D01*
X99778960Y-51703090D01*
X99796808Y-51708330D01*
X99867019Y-51728936D01*
X99935476Y-51749015D01*
X100001906Y-51768487D01*
X100066036Y-51787274D01*
X100127594Y-51805295D01*
X100186306Y-51822470D01*
X100241899Y-51838720D01*
X100294100Y-51853966D01*
X100342636Y-51868127D01*
X100387233Y-51881124D01*
X100427620Y-51892877D01*
X100463522Y-51903307D01*
X100494667Y-51912335D01*
X100520781Y-51919879D01*
X100541591Y-51925862D01*
X100556825Y-51930203D01*
X100566210Y-51932822D01*
X100569471Y-51933640D01*
X100569267Y-51933457D01*
X100565025Y-51930557D01*
X100555480Y-51924254D01*
X100540869Y-51914702D01*
X100521430Y-51902056D01*
X100497403Y-51886468D01*
X100469024Y-51868093D01*
X100436532Y-51847083D01*
X100400165Y-51823592D01*
X100360161Y-51797775D01*
X100316758Y-51769784D01*
X100270195Y-51739773D01*
X100220709Y-51707897D01*
X100168538Y-51674307D01*
X100113920Y-51639159D01*
X100057095Y-51602606D01*
X99998298Y-51564801D01*
X99937770Y-51525898D01*
X99875747Y-51486050D01*
X99857846Y-51474550D01*
X99796205Y-51434942D01*
X99736118Y-51396313D01*
X99677823Y-51358820D01*
X99621558Y-51322614D01*
X99567563Y-51287852D01*
X99516075Y-51254686D01*
X99467335Y-51223271D01*
X99421580Y-51193761D01*
X99379049Y-51166311D01*
X99339981Y-51141073D01*
X99304615Y-51118203D01*
X99273189Y-51097854D01*
X99245941Y-51080181D01*
X99223112Y-51065337D01*
X99204938Y-51053477D01*
X99191660Y-51044755D01*
X99183515Y-51039325D01*
X99180742Y-51037341D01*
X99181093Y-51036430D01*
X99184343Y-51030662D01*
X99190682Y-51020227D01*
X99199715Y-51005731D01*
X99211051Y-50987777D01*
X99224297Y-50966972D01*
X99239060Y-50943920D01*
X99254947Y-50919226D01*
X99271567Y-50893496D01*
X99288526Y-50867335D01*
X99305431Y-50841347D01*
X99321891Y-50816138D01*
X99337513Y-50792313D01*
X99351903Y-50770477D01*
X99364669Y-50751235D01*
X99375420Y-50735192D01*
X99383761Y-50722953D01*
X99389300Y-50715124D01*
X99391645Y-50712309D01*
X99391938Y-50712419D01*
X99396509Y-50715068D01*
X99406381Y-50721135D01*
X99421311Y-50730465D01*
X99441061Y-50742904D01*
X99465390Y-50758301D01*
X99494058Y-50776500D01*
X99526823Y-50797349D01*
X99563447Y-50820694D01*
X99603688Y-50846381D01*
X99647307Y-50874258D01*
X99694063Y-50904170D01*
X99743715Y-50935964D01*
X99796024Y-50969487D01*
X99850748Y-51004585D01*
X99907649Y-51041105D01*
X99966484Y-51078893D01*
X100027015Y-51117796D01*
X100089000Y-51157659D01*
X100105952Y-51168564D01*
X100167528Y-51208168D01*
X100227564Y-51246766D01*
X100285820Y-51284207D01*
X100342057Y-51320338D01*
X100396037Y-51355004D01*
X100447519Y-51388053D01*
X100496266Y-51419331D01*
X100542037Y-51448686D01*
X100584595Y-51475964D01*
X100623698Y-51501012D01*
X100659110Y-51523676D01*
X100690590Y-51543804D01*
X100717899Y-51561242D01*
X100740799Y-51575837D01*
X100759050Y-51587435D01*
X100772412Y-51595885D01*
X100780648Y-51601031D01*
X100783518Y-51602722D01*
X100783379Y-51602502D01*
X100780147Y-51598565D01*
X100772784Y-51589867D01*
X100761475Y-51576622D01*
X100746406Y-51559045D01*
X100727762Y-51537351D01*
X100705728Y-51511753D01*
X100680489Y-51482468D01*
X100652231Y-51449710D01*
X100621140Y-51413693D01*
X100587401Y-51374632D01*
X100551198Y-51332742D01*
X100512718Y-51288237D01*
X100472146Y-51241333D01*
X100429668Y-51192244D01*
X100385468Y-51141184D01*
X100339731Y-51088368D01*
X100292645Y-51034012D01*
X100244393Y-50978329D01*
X100231155Y-50963055D01*
X100183172Y-50907680D01*
X100136389Y-50853676D01*
X100090994Y-50801260D01*
X100047172Y-50750646D01*
X100005110Y-50702051D01*
X99964994Y-50655689D01*
X99927011Y-50611777D01*
X99891346Y-50570530D01*
X99858186Y-50532163D01*
X99827717Y-50496893D01*
X99800126Y-50464934D01*
X99775599Y-50436503D01*
X99754322Y-50411815D01*
X99736481Y-50391085D01*
X99722263Y-50374530D01*
X99711854Y-50362364D01*
X99705441Y-50354803D01*
X99703209Y-50352063D01*
X99704153Y-50350805D01*
X99709492Y-50345542D01*
X99719142Y-50336598D01*
X99732654Y-50324376D01*
X99749575Y-50309277D01*
X99769455Y-50291704D01*
X99791842Y-50272057D01*
X99816286Y-50250740D01*
X99842334Y-50228153D01*
X99858482Y-50214187D01*
X99884026Y-50192090D01*
X99907913Y-50171416D01*
X99929659Y-50152584D01*
X99948782Y-50136016D01*
X99964796Y-50122129D01*
X99977219Y-50111343D01*
X99985565Y-50104078D01*
X99989351Y-50100753D01*
X99996369Y-50094411D01*
X100534351Y-50715277D01*
X100544966Y-50727527D01*
X100592970Y-50782926D01*
X100639819Y-50836992D01*
X100685325Y-50889507D01*
X100729299Y-50940253D01*
X100771552Y-50989012D01*
X100811895Y-51035566D01*
X100850139Y-51079698D01*
X100886095Y-51121189D01*
X100919575Y-51159821D01*
X100950389Y-51195377D01*
X100978349Y-51227638D01*
X101003265Y-51256386D01*
X101024949Y-51281404D01*
X101043212Y-51302473D01*
X101057865Y-51319376D01*
X101068719Y-51331894D01*
X101075585Y-51339810D01*
X101078275Y-51342905D01*
X101079689Y-51344506D01*
X101082482Y-51347256D01*
X101082359Y-51345336D01*
X101079505Y-51338000D01*
X101078034Y-51334668D01*
X101073890Y-51325475D01*
X101067250Y-51310826D01*
X101058261Y-51291042D01*
X101047070Y-51266441D01*
X101033822Y-51237345D01*
X101018664Y-51204073D01*
X101001741Y-51166945D01*
X100983201Y-51126282D01*
X100963189Y-51082403D01*
X100941851Y-51035628D01*
X100919333Y-50986277D01*
X100895783Y-50934671D01*
X100871345Y-50881130D01*
X100846166Y-50825972D01*
X100820392Y-50769520D01*
X100794170Y-50712092D01*
X100767645Y-50654008D01*
X100740964Y-50595589D01*
X100714273Y-50537155D01*
X100687718Y-50479025D01*
X100661446Y-50421520D01*
X100635601Y-50364960D01*
X100610331Y-50309664D01*
X100585782Y-50255953D01*
X100562100Y-50204148D01*
X100539431Y-50154567D01*
X100517922Y-50107530D01*
X100497718Y-50063359D01*
X100478965Y-50022373D01*
X100461810Y-49984891D01*
X100446400Y-49951235D01*
X100432879Y-49921724D01*
X100421395Y-49896678D01*
X100412093Y-49876416D01*
X100405120Y-49861261D01*
X100400621Y-49851530D01*
X100398744Y-49847544D01*
X100394220Y-49838755D01*
X100570114Y-49758377D01*
X100597073Y-49746076D01*
X100627752Y-49732123D01*
X100656188Y-49719239D01*
X100681836Y-49707668D01*
X100704150Y-49697656D01*
X100722586Y-49689446D01*
X100736598Y-49683283D01*
X100745642Y-49679412D01*
X100749171Y-49678077D01*
X100749368Y-49678331D01*
X100751792Y-49683034D01*
X100756825Y-49693470D01*
X100764350Y-49709383D01*
X100774247Y-49730515D01*
X100786398Y-49756606D01*
X100800684Y-49787400D01*
X100816985Y-49822638D01*
X100835184Y-49862062D01*
X100855160Y-49905414D01*
X100876797Y-49952437D01*
X100899973Y-50002871D01*
X100924572Y-50056459D01*
X100950473Y-50112943D01*
X100977558Y-50172065D01*
X101005709Y-50233567D01*
X101034806Y-50297190D01*
X101064730Y-50362678D01*
X101095363Y-50429771D01*
X101104426Y-50449628D01*
X101134843Y-50516251D01*
X101164502Y-50581182D01*
X101193286Y-50644166D01*
X101221075Y-50704944D01*
X101247752Y-50763260D01*
X101273199Y-50818856D01*
X101297298Y-50871474D01*
X101319931Y-50920857D01*
X101340979Y-50966748D01*
X101360324Y-51008890D01*
X101377850Y-51047024D01*
X101393436Y-51080894D01*
X101406966Y-51110242D01*
X101418320Y-51134811D01*
X101427382Y-51154344D01*
X101434033Y-51168582D01*
X101438155Y-51177270D01*
X101439630Y-51180148D01*
X101439624Y-51179857D01*
X101439007Y-51174689D01*
X101437490Y-51163283D01*
X101435113Y-51145920D01*
X101431916Y-51122881D01*
X101427939Y-51094448D01*
X101423223Y-51060902D01*
X101417806Y-51022524D01*
X101411729Y-50979595D01*
X101405032Y-50932397D01*
X101397754Y-50881210D01*
X101389936Y-50826317D01*
X101381618Y-50767998D01*
X101372839Y-50706535D01*
X101363640Y-50642209D01*
X101354060Y-50575300D01*
X101344139Y-50506092D01*
X101333918Y-50434864D01*
X101323436Y-50361897D01*
X101320472Y-50341269D01*
X101310060Y-50268759D01*
X101299922Y-50198063D01*
X101290099Y-50129464D01*
X101280629Y-50063243D01*
X101271552Y-49999682D01*
X101262909Y-49939061D01*
X101254739Y-49881662D01*
X101247082Y-49827766D01*
X101239978Y-49777656D01*
X101233467Y-49731611D01*
X101227589Y-49689914D01*
X101222383Y-49652845D01*
X101217890Y-49620687D01*
X101214148Y-49593721D01*
X101211199Y-49572227D01*
X101209082Y-49556488D01*
X101207836Y-49546784D01*
X101207502Y-49543397D01*
X101208787Y-49543050D01*
X101215800Y-49541789D01*
X101228275Y-49539778D01*
X101245504Y-49537117D01*
X101266777Y-49533909D01*
X101291384Y-49530255D01*
X101318618Y-49526256D01*
X101347767Y-49522015D01*
X101378124Y-49517632D01*
X101408978Y-49513209D01*
X101439621Y-49508847D01*
X101469343Y-49504649D01*
X101497435Y-49500715D01*
X101523188Y-49497148D01*
X101545892Y-49494048D01*
X101564839Y-49491517D01*
X101579318Y-49489657D01*
X101588621Y-49488570D01*
X101592038Y-49488356D01*
X101592177Y-49489054D01*
G37*
G04 #@! TD*
D13*
G04 #@! TO.C,TP_KCOL2*
X61722000Y-65278000D03*
G04 #@! TD*
D14*
G04 #@! TO.C,SW_MOD1*
X226060000Y-66802000D03*
D15*
X226060000Y-70502000D03*
G04 #@! TD*
D13*
G04 #@! TO.C,TP_3V1*
X131826000Y-112522000D03*
G04 #@! TD*
D16*
G04 #@! TO.C,SW_LE1*
X53875000Y-148336000D03*
D17*
X55880000Y-150876000D03*
D18*
X60960000Y-150876000D03*
D17*
X66040000Y-150876000D03*
D16*
X66802000Y-145796000D03*
D19*
X57150000Y-148336000D03*
X63500000Y-145796000D03*
G04 #@! TD*
D16*
G04 #@! TO.C,SW_LD4*
X111025000Y-129286000D03*
D17*
X113030000Y-131826000D03*
D18*
X118110000Y-131826000D03*
D17*
X123190000Y-131826000D03*
D16*
X123952000Y-126746000D03*
D19*
X114300000Y-129286000D03*
X120650000Y-126746000D03*
G04 #@! TD*
D16*
G04 #@! TO.C,SW_LD3*
X91975000Y-129286000D03*
D17*
X93980000Y-131826000D03*
D18*
X99060000Y-131826000D03*
D17*
X104140000Y-131826000D03*
D16*
X104902000Y-126746000D03*
D19*
X95250000Y-129286000D03*
X101600000Y-126746000D03*
G04 #@! TD*
D16*
G04 #@! TO.C,SW_LC4*
X111025000Y-110236000D03*
D17*
X113030000Y-112776000D03*
D18*
X118110000Y-112776000D03*
D17*
X123190000Y-112776000D03*
D16*
X123952000Y-107696000D03*
D19*
X114300000Y-110236000D03*
X120650000Y-107696000D03*
G04 #@! TD*
D20*
G04 #@! TO.C,J2*
X138186000Y-55200000D03*
D15*
X135646000Y-55200000D03*
X133106000Y-55200000D03*
G04 #@! TD*
D13*
G04 #@! TO.C,TP_KROW6*
X136144000Y-89154000D03*
G04 #@! TD*
D16*
G04 #@! TO.C,SW_LE2*
X91975000Y-148336000D03*
D17*
X93980000Y-150876000D03*
D18*
X99060000Y-150876000D03*
D17*
X104140000Y-150876000D03*
D16*
X104902000Y-145796000D03*
D19*
X95250000Y-148336000D03*
X101600000Y-145796000D03*
G04 #@! TD*
D21*
G04 #@! TO.C,H6*
X87376000Y-145034000D03*
G04 #@! TD*
D16*
G04 #@! TO.C,SW_LB4*
X111025000Y-91186000D03*
D17*
X113030000Y-93726000D03*
D18*
X118110000Y-93726000D03*
D17*
X123190000Y-93726000D03*
D16*
X123952000Y-88646000D03*
D19*
X114300000Y-91186000D03*
X120650000Y-88646000D03*
G04 #@! TD*
D20*
G04 #@! TO.C,O1*
X73474000Y-57285000D03*
D15*
X73474000Y-54745000D03*
X73474000Y-52205000D03*
X73474000Y-49665000D03*
G04 #@! TD*
D16*
G04 #@! TO.C,SW_LD1*
X53875000Y-129286000D03*
D17*
X55880000Y-131826000D03*
D18*
X60960000Y-131826000D03*
D17*
X66040000Y-131826000D03*
D16*
X66802000Y-126746000D03*
D19*
X57150000Y-129286000D03*
X63500000Y-126746000D03*
G04 #@! TD*
D21*
G04 #@! TO.C,H3*
X162052000Y-60960000D03*
G04 #@! TD*
D13*
G04 #@! TO.C,TP_LED1*
X165100000Y-93218000D03*
G04 #@! TD*
G04 #@! TO.C,TP_KCOL3*
X101854000Y-63754000D03*
G04 #@! TD*
G04 #@! TO.C,TP_KCOL4*
X174752000Y-52070000D03*
G04 #@! TD*
D16*
G04 #@! TO.C,SW_LD2*
X72925000Y-129286000D03*
D17*
X74930000Y-131826000D03*
D18*
X80010000Y-131826000D03*
D17*
X85090000Y-131826000D03*
D16*
X85852000Y-126746000D03*
D19*
X76200000Y-129286000D03*
X82550000Y-126746000D03*
G04 #@! TD*
D16*
G04 #@! TO.C,SW_LA2*
X101500000Y-72136000D03*
D17*
X103505000Y-74676000D03*
D18*
X108585000Y-74676000D03*
D17*
X113665000Y-74676000D03*
D16*
X114427000Y-69596000D03*
D19*
X104775000Y-72136000D03*
X111125000Y-69596000D03*
G04 #@! TD*
D13*
G04 #@! TO.C,TP_KROW4*
X124206000Y-141986000D03*
G04 #@! TD*
D21*
G04 #@! TO.C,H4*
X200660000Y-50800000D03*
G04 #@! TD*
D16*
G04 #@! TO.C,SW_LC3*
X91975000Y-110236000D03*
D17*
X93980000Y-112776000D03*
D18*
X99060000Y-112776000D03*
D17*
X104140000Y-112776000D03*
D16*
X104902000Y-107696000D03*
D19*
X95250000Y-110236000D03*
X101600000Y-107696000D03*
G04 #@! TD*
D21*
G04 #@! TO.C,H1*
X53848000Y-64008000D03*
G04 #@! TD*
D16*
G04 #@! TO.C,SW_RA1*
X178970000Y-52324000D03*
D17*
X180975000Y-54864000D03*
D18*
X186055000Y-54864000D03*
D17*
X191135000Y-54864000D03*
D16*
X191897000Y-49784000D03*
D19*
X182245000Y-52324000D03*
X188595000Y-49784000D03*
G04 #@! TD*
D16*
G04 #@! TO.C,SW_RB3*
X212320200Y-79484000D03*
D17*
X214325200Y-82024000D03*
D18*
X219405200Y-82024000D03*
D17*
X224485200Y-82024000D03*
D16*
X225247200Y-76944000D03*
D19*
X215595200Y-79484000D03*
X221945200Y-76944000D03*
G04 #@! TD*
D21*
G04 #@! TO.C,H2*
X89662000Y-72644000D03*
G04 #@! TD*
D13*
G04 #@! TO.C,TP_KROW3*
X131826000Y-116586000D03*
G04 #@! TD*
D21*
G04 #@! TO.C,H5*
X224789831Y-96172598D03*
G04 #@! TD*
D22*
G04 #@! TO.C,ST_LA2*
X96678750Y-67691000D03*
D23*
X96678750Y-82931000D03*
D22*
X120491250Y-67691000D03*
D23*
X120491250Y-82931000D03*
G04 #@! TD*
D13*
G04 #@! TO.C,TP_KROW1*
X95250000Y-63754000D03*
G04 #@! TD*
G04 #@! TO.C,TP_GND1*
X136906000Y-114808000D03*
G04 #@! TD*
D20*
G04 #@! TO.C,J1*
X168158000Y-55200000D03*
D15*
X165618000Y-55200000D03*
X163078000Y-55200000D03*
G04 #@! TD*
D13*
G04 #@! TO.C,TP_KROW2*
X125730000Y-84836000D03*
G04 #@! TD*
D22*
G04 #@! TO.C,ST_LE1*
X80010000Y-143891000D03*
D23*
X80010000Y-159131000D03*
D22*
X118110000Y-143891000D03*
D23*
X118110000Y-159131000D03*
G04 #@! TD*
D24*
G04 #@! TO.C,RENC1*
X54445000Y-50975000D03*
D25*
X54445000Y-55975000D03*
X54445000Y-53475000D03*
D26*
X61945000Y-47875000D03*
X61945000Y-59075000D03*
D25*
X68945000Y-55975000D03*
X68945000Y-50975000D03*
G04 #@! TD*
D13*
G04 #@! TO.C,TP_KROW5*
X175006000Y-56134000D03*
G04 #@! TD*
G04 #@! TO.C,TP_VBUS1*
X166370000Y-58420000D03*
G04 #@! TD*
D16*
G04 #@! TO.C,SW_RB2*
X193270200Y-79484000D03*
D17*
X195275200Y-82024000D03*
D18*
X200355200Y-82024000D03*
D17*
X205435200Y-82024000D03*
D16*
X206197200Y-76944000D03*
D19*
X196545200Y-79484000D03*
X202895200Y-76944000D03*
G04 #@! TD*
D22*
G04 #@! TO.C,ST_LA1*
X58578750Y-67691000D03*
D23*
X58578750Y-82931000D03*
D22*
X82391250Y-67691000D03*
D23*
X82391250Y-82931000D03*
G04 #@! TD*
D13*
G04 #@! TO.C,TP2*
X137922000Y-60706000D03*
G04 #@! TD*
D24*
G04 #@! TO.C,RENC2*
X110976000Y-51054000D03*
D25*
X110976000Y-56054000D03*
X110976000Y-53554000D03*
D26*
X118476000Y-47954000D03*
X118476000Y-59154000D03*
D25*
X125476000Y-56054000D03*
X125476000Y-51054000D03*
G04 #@! TD*
D27*
G04 #@! TO.C,A1*
X149449966Y-70430171D03*
D28*
X149749966Y-73460171D03*
X154599966Y-73460171D03*
D27*
X154899966Y-70430171D03*
D29*
X152759066Y-100130171D03*
D30*
X155299066Y-100130171D03*
X157839066Y-100130171D03*
G04 #@! TD*
D16*
G04 #@! TO.C,SW_LC1*
X53875000Y-110236000D03*
D17*
X55880000Y-112776000D03*
D18*
X60960000Y-112776000D03*
D17*
X66040000Y-112776000D03*
D16*
X66802000Y-107696000D03*
D19*
X57150000Y-110236000D03*
X63500000Y-107696000D03*
G04 #@! TD*
D16*
G04 #@! TO.C,SW_LA1*
X63400000Y-72136000D03*
D17*
X65405000Y-74676000D03*
D18*
X70485000Y-74676000D03*
D17*
X75565000Y-74676000D03*
D16*
X76327000Y-69596000D03*
D19*
X66675000Y-72136000D03*
X73025000Y-69596000D03*
G04 #@! TD*
D16*
G04 #@! TO.C,SW_LB2*
X72925000Y-91186000D03*
D17*
X74930000Y-93726000D03*
D18*
X80010000Y-93726000D03*
D17*
X85090000Y-93726000D03*
D16*
X85852000Y-88646000D03*
D19*
X76200000Y-91186000D03*
X82550000Y-88646000D03*
G04 #@! TD*
D16*
G04 #@! TO.C,SW_LB1*
X53875000Y-91186000D03*
D17*
X55880000Y-93726000D03*
D18*
X60960000Y-93726000D03*
D17*
X66040000Y-93726000D03*
D16*
X66802000Y-88646000D03*
D19*
X57150000Y-91186000D03*
X63500000Y-88646000D03*
G04 #@! TD*
D13*
G04 #@! TO.C,TP_KCOL1*
X87376000Y-63754000D03*
G04 #@! TD*
D16*
G04 #@! TO.C,SW_LB3*
X91975000Y-91186000D03*
D17*
X93980000Y-93726000D03*
D18*
X99060000Y-93726000D03*
D17*
X104140000Y-93726000D03*
D16*
X104902000Y-88646000D03*
D19*
X95250000Y-91186000D03*
X101600000Y-88646000D03*
G04 #@! TD*
D13*
G04 #@! TO.C,TP_LED2*
X125730000Y-81280000D03*
G04 #@! TD*
D16*
G04 #@! TO.C,SW_RB1*
X174220200Y-79484000D03*
D17*
X176225200Y-82024000D03*
D18*
X181305200Y-82024000D03*
D17*
X186385200Y-82024000D03*
D16*
X187147200Y-76944000D03*
D19*
X177495200Y-79484000D03*
X183845200Y-76944000D03*
G04 #@! TD*
D13*
G04 #@! TO.C,TP1*
X144272000Y-54610000D03*
G04 #@! TD*
D16*
G04 #@! TO.C,SW_RA2*
X207545000Y-52324000D03*
D17*
X209550000Y-54864000D03*
D18*
X214630000Y-54864000D03*
D17*
X219710000Y-54864000D03*
D16*
X220472000Y-49784000D03*
D19*
X210820000Y-52324000D03*
X217170000Y-49784000D03*
G04 #@! TD*
D16*
G04 #@! TO.C,SW_LC2*
X72925000Y-110236000D03*
D17*
X74930000Y-112776000D03*
D18*
X80010000Y-112776000D03*
D17*
X85090000Y-112776000D03*
D16*
X85852000Y-107696000D03*
D19*
X76200000Y-110236000D03*
X82550000Y-107696000D03*
G04 #@! TD*
D31*
G04 #@! TO.C,D23*
X228092000Y-76962000D03*
D30*
X228092000Y-84582000D03*
G04 #@! TD*
D32*
G04 #@! TO.C,LED17*
X216680200Y-86346600D03*
X216680200Y-87846600D03*
X222130200Y-86346600D03*
D33*
X222130200Y-87846600D03*
G04 #@! TD*
D32*
G04 #@! TO.C,LED2*
X67760000Y-79006000D03*
X67760000Y-80506000D03*
X73210000Y-79006000D03*
D33*
X73210000Y-80506000D03*
G04 #@! TD*
D31*
G04 #@! TO.C,D17*
X69596000Y-145796000D03*
D30*
X69596000Y-153416000D03*
G04 #@! TD*
D31*
G04 #@! TO.C,D15*
X107696000Y-126746000D03*
D30*
X107696000Y-134366000D03*
G04 #@! TD*
D31*
G04 #@! TO.C,D5*
X69596000Y-88646000D03*
D30*
X69596000Y-96266000D03*
G04 #@! TD*
D32*
G04 #@! TO.C,LED5*
X77285000Y-98056000D03*
X77285000Y-99556000D03*
X82735000Y-98056000D03*
D33*
X82735000Y-99556000D03*
G04 #@! TD*
D32*
G04 #@! TO.C,LED15*
X96335000Y-155206000D03*
X96335000Y-156706000D03*
X101785000Y-155206000D03*
D33*
X101785000Y-156706000D03*
G04 #@! TD*
D31*
G04 #@! TO.C,D4*
X128524000Y-54102000D03*
D30*
X128524000Y-61722000D03*
G04 #@! TD*
D34*
G04 #@! TO.C,C5*
X157480000Y-80733500D03*
X157480000Y-83858500D03*
G04 #@! TD*
D31*
G04 #@! TO.C,D19*
X194564000Y-49784000D03*
D30*
X194564000Y-57404000D03*
G04 #@! TD*
D32*
G04 #@! TO.C,LED19*
X178580200Y-86346600D03*
X178580200Y-87846600D03*
X184030200Y-86346600D03*
D33*
X184030200Y-87846600D03*
G04 #@! TD*
D31*
G04 #@! TO.C,D8*
X126492000Y-88646000D03*
D30*
X126492000Y-96266000D03*
G04 #@! TD*
D32*
G04 #@! TO.C,LED10*
X58235000Y-117106000D03*
X58235000Y-118606000D03*
X63685000Y-117106000D03*
D33*
X63685000Y-118606000D03*
G04 #@! TD*
D31*
G04 #@! TO.C,D10*
X88392000Y-107696000D03*
D30*
X88392000Y-115316000D03*
G04 #@! TD*
D32*
G04 #@! TO.C,LED6*
X58235000Y-98056000D03*
X58235000Y-99556000D03*
X63685000Y-98056000D03*
D33*
X63685000Y-99556000D03*
G04 #@! TD*
D32*
G04 #@! TO.C,LED1*
X105860000Y-79006000D03*
X105860000Y-80506000D03*
X111310000Y-79006000D03*
D33*
X111310000Y-80506000D03*
G04 #@! TD*
D32*
G04 #@! TO.C,LED3*
X115385000Y-98056000D03*
X115385000Y-99556000D03*
X120835000Y-98056000D03*
D33*
X120835000Y-99556000D03*
G04 #@! TD*
D31*
G04 #@! TO.C,D14*
X88392000Y-126746000D03*
D30*
X88392000Y-134366000D03*
G04 #@! TD*
D34*
G04 #@! TO.C,C4*
X153162000Y-77685500D03*
X153162000Y-80810500D03*
G04 #@! TD*
D32*
G04 #@! TO.C,LED12*
X96335000Y-136156000D03*
X96335000Y-137656000D03*
X101785000Y-136156000D03*
D33*
X101785000Y-137656000D03*
G04 #@! TD*
D35*
G04 #@! TO.C,J3*
X209550000Y-95511500D03*
D36*
X212050000Y-95511500D03*
X214550000Y-95511500D03*
G04 #@! TD*
D32*
G04 #@! TO.C,LED9*
X77285000Y-117106000D03*
X77285000Y-118606000D03*
X82735000Y-117106000D03*
D33*
X82735000Y-118606000D03*
G04 #@! TD*
D32*
G04 #@! TO.C,LED8*
X96335000Y-117106000D03*
X96335000Y-118606000D03*
X101785000Y-117106000D03*
D33*
X101785000Y-118606000D03*
G04 #@! TD*
D37*
G04 #@! TO.C,D24*
X222504000Y-70612000D03*
D30*
X214884000Y-70612000D03*
G04 #@! TD*
D32*
G04 #@! TO.C,LED18*
X197630200Y-86346600D03*
X197630200Y-87846600D03*
X203080200Y-86346600D03*
D33*
X203080200Y-87846600D03*
G04 #@! TD*
D31*
G04 #@! TO.C,D22*
X208788000Y-76962000D03*
D30*
X208788000Y-84582000D03*
G04 #@! TD*
D32*
G04 #@! TO.C,LED13*
X77285000Y-136156000D03*
X77285000Y-137656000D03*
X82735000Y-136156000D03*
D33*
X82735000Y-137656000D03*
G04 #@! TD*
D32*
G04 #@! TO.C,LED16*
X58235000Y-155206000D03*
X58235000Y-156706000D03*
X63685000Y-155206000D03*
D33*
X63685000Y-156706000D03*
G04 #@! TD*
D31*
G04 #@! TO.C,D20*
X223012000Y-49784000D03*
D30*
X223012000Y-57404000D03*
G04 #@! TD*
D31*
G04 #@! TO.C,D7*
X107696000Y-88646000D03*
D30*
X107696000Y-96266000D03*
G04 #@! TD*
D31*
G04 #@! TO.C,D18*
X107696000Y-145796000D03*
D30*
X107696000Y-153416000D03*
G04 #@! TD*
D38*
G04 #@! TO.C,D2*
X105664000Y-63754000D03*
D30*
X113284000Y-63754000D03*
G04 #@! TD*
D38*
G04 #@! TO.C,D3*
X59944000Y-61976000D03*
D30*
X67564000Y-61976000D03*
G04 #@! TD*
D31*
G04 #@! TO.C,D12*
X126492000Y-107696000D03*
D30*
X126492000Y-115316000D03*
G04 #@! TD*
D39*
G04 #@! TO.C,J4*
X199786000Y-95758000D03*
D40*
X197786000Y-95758000D03*
X195786000Y-95758000D03*
X193786000Y-95758000D03*
X191786000Y-95758000D03*
X189786000Y-95758000D03*
X187786000Y-95758000D03*
X185786000Y-95758000D03*
G04 #@! TD*
D41*
G04 #@! TO.C,U3*
X154112000Y-86186000D03*
X153162000Y-86186000D03*
X152212000Y-86186000D03*
X152212000Y-83486000D03*
X153162000Y-83486000D03*
X154112000Y-83486000D03*
G04 #@! TD*
D31*
G04 #@! TO.C,D21*
X189992000Y-76962000D03*
D30*
X189992000Y-84582000D03*
G04 #@! TD*
D31*
G04 #@! TO.C,D16*
X126492000Y-126746000D03*
D30*
X126492000Y-134366000D03*
G04 #@! TD*
D32*
G04 #@! TO.C,LED20*
X211905000Y-59194000D03*
X211905000Y-60694000D03*
X217355000Y-59194000D03*
D33*
X217355000Y-60694000D03*
G04 #@! TD*
D31*
G04 #@! TO.C,D9*
X69596000Y-107696000D03*
D30*
X69596000Y-115316000D03*
G04 #@! TD*
D31*
G04 #@! TO.C,D13*
X69596000Y-126746000D03*
D30*
X69596000Y-134366000D03*
G04 #@! TD*
D42*
G04 #@! TO.C,J5*
X170852000Y-113759002D03*
D43*
X170852000Y-111759001D03*
X170852000Y-109759002D03*
X170852000Y-107759002D03*
X170852000Y-105759002D03*
X170852001Y-103759000D03*
X170852000Y-101759003D03*
X170852000Y-99759002D03*
G04 #@! TD*
D32*
G04 #@! TO.C,LED11*
X115385000Y-136156000D03*
X115385000Y-137656000D03*
X120835000Y-136156000D03*
D33*
X120835000Y-137656000D03*
G04 #@! TD*
D32*
G04 #@! TO.C,LED4*
X96335000Y-98056000D03*
X96335000Y-99556000D03*
X101785000Y-98056000D03*
D33*
X101785000Y-99556000D03*
G04 #@! TD*
D38*
G04 #@! TO.C,D1*
X75692000Y-64008000D03*
D30*
X83312000Y-64008000D03*
G04 #@! TD*
D32*
G04 #@! TO.C,LED7*
X115385000Y-117106000D03*
X115385000Y-118606000D03*
X120835000Y-117106000D03*
D33*
X120835000Y-118606000D03*
G04 #@! TD*
D32*
G04 #@! TO.C,LED21*
X183330000Y-59194000D03*
X183330000Y-60694000D03*
X188780000Y-59194000D03*
D33*
X188780000Y-60694000D03*
G04 #@! TD*
D32*
G04 #@! TO.C,LED14*
X58235000Y-136156000D03*
X58235000Y-137656000D03*
X63685000Y-136156000D03*
D33*
X63685000Y-137656000D03*
G04 #@! TD*
D31*
G04 #@! TO.C,D6*
X88392000Y-88646000D03*
D30*
X88392000Y-96266000D03*
G04 #@! TD*
D31*
G04 #@! TO.C,D11*
X107696000Y-107696000D03*
D30*
X107696000Y-115316000D03*
G04 #@! TD*
M02*
