G04 #@! TF.GenerationSoftware,KiCad,Pcbnew,10.0.3*
G04 #@! TF.CreationDate,2026-07-15T23:25:02+08:00*
G04 #@! TF.ProjectId,blackmacro_base,626c6163-6b6d-4616-9372-6f5f62617365,7-2-FAB1*
G04 #@! TF.SameCoordinates,Original*
G04 #@! TF.FileFunction,Soldermask,Top*
G04 #@! TF.FilePolarity,Negative*
%FSLAX46Y46*%
G04 Gerber Fmt 4.6, Leading zero omitted, Abs format (unit mm)*
G04 Created by KiCad (PCBNEW 10.0.3) date 2026-07-15 23:25:02*
%MOMM*%
%LPD*%
G01*
G04 APERTURE LIST*
G04 Aperture macros list*
%AMRoundRect*
0 Rectangle with rounded corners*
0 $1 Rounding radius*
0 $2 $3 $4 $5 $6 $7 $8 $9 X,Y pos of 4 corners*
0 Add a 4 corners polygon primitive as box body*
4,1,4,$2,$3,$4,$5,$6,$7,$8,$9,$2,$3,0*
0 Add four circle primitives for the rounded corners*
1,1,$1+$1,$2,$3*
1,1,$1+$1,$4,$5*
1,1,$1+$1,$6,$7*
1,1,$1+$1,$8,$9*
0 Add four rect primitives between the rounded corners*
20,1,$1+$1,$2,$3,$4,$5,0*
20,1,$1+$1,$4,$5,$6,$7,0*
20,1,$1+$1,$6,$7,$8,$9,0*
20,1,$1+$1,$8,$9,$2,$3,0*%
%AMFreePoly0*
4,1,6,1.000000,0.000000,0.500000,-0.750000,-0.500000,-0.750000,-0.500000,0.750000,0.500000,0.750000,1.000000,0.000000,1.000000,0.000000,$1*%
%AMFreePoly1*
4,1,6,0.500000,-0.750000,-0.650000,-0.750000,-0.150000,0.000000,-0.650000,0.750000,0.500000,0.750000,0.500000,-0.750000,0.500000,-0.750000,$1*%
%AMFreePoly2*
4,1,23,0.500000,-0.750000,0.000000,-0.750000,0.000000,-0.745722,-0.065263,-0.745722,-0.191342,-0.711940,-0.304381,-0.646677,-0.396677,-0.554381,-0.461940,-0.441342,-0.495722,-0.315263,-0.495722,-0.250000,-0.500000,-0.250000,-0.500000,0.250000,-0.495722,0.250000,-0.495722,0.315263,-0.461940,0.441342,-0.396677,0.554381,-0.304381,0.646677,-0.191342,0.711940,-0.065263,0.745722,0.000000,0.745722,
0.000000,0.750000,0.500000,0.750000,0.500000,-0.750000,0.500000,-0.750000,$1*%
%AMFreePoly3*
4,1,23,0.000000,0.745722,0.065263,0.745722,0.191342,0.711940,0.304381,0.646677,0.396677,0.554381,0.461940,0.441342,0.495722,0.315263,0.495722,0.250000,0.500000,0.250000,0.500000,-0.250000,0.495722,-0.250000,0.495722,-0.315263,0.461940,-0.441342,0.396677,-0.554381,0.304381,-0.646677,0.191342,-0.711940,0.065263,-0.745722,0.000000,-0.745722,0.000000,-0.750000,-0.500000,-0.750000,
-0.500000,0.750000,0.000000,0.750000,0.000000,0.745722,0.000000,0.745722,$1*%
%AMFreePoly4*
4,1,37,0.800000,0.796148,0.878414,0.796148,1.032228,0.765552,1.177117,0.705537,1.307515,0.618408,1.418408,0.507515,1.505537,0.377117,1.565552,0.232228,1.596148,0.078414,1.596148,-0.078414,1.565552,-0.232228,1.505537,-0.377117,1.418408,-0.507515,1.307515,-0.618408,1.177117,-0.705537,1.032228,-0.765552,0.878414,-0.796148,0.800000,-0.796148,0.800000,-0.800000,-1.400000,-0.800000,
-1.403843,-0.796157,-1.439018,-0.796157,-1.511114,-0.766294,-1.566294,-0.711114,-1.596157,-0.639018,-1.596157,-0.603843,-1.600000,-0.600000,-1.600000,0.600000,-1.596157,0.603843,-1.596157,0.639018,-1.566294,0.711114,-1.511114,0.766294,-1.439018,0.796157,-1.403843,0.796157,-1.400000,0.800000,0.800000,0.800000,0.800000,0.796148,0.800000,0.796148,$1*%
%AMFreePoly5*
4,1,37,1.403843,0.796157,1.439018,0.796157,1.511114,0.766294,1.566294,0.711114,1.596157,0.639018,1.596157,0.603843,1.600000,0.600000,1.600000,-0.600000,1.596157,-0.603843,1.596157,-0.639018,1.566294,-0.711114,1.511114,-0.766294,1.439018,-0.796157,1.403843,-0.796157,1.400000,-0.800000,-0.800000,-0.800000,-0.800000,-0.796148,-0.878414,-0.796148,-1.032228,-0.765552,-1.177117,-0.705537,
-1.307515,-0.618408,-1.418408,-0.507515,-1.505537,-0.377117,-1.565552,-0.232228,-1.596148,-0.078414,-1.596148,0.078414,-1.565552,0.232228,-1.505537,0.377117,-1.418408,0.507515,-1.307515,0.618408,-1.177117,0.705537,-1.032228,0.765552,-0.878414,0.796148,-0.800000,0.796148,-0.800000,0.800000,1.400000,0.800000,1.403843,0.796157,1.403843,0.796157,$1*%
G04 Aperture macros list end*
%ADD10RoundRect,0.150000X0.825000X0.150000X-0.825000X0.150000X-0.825000X-0.150000X0.825000X-0.150000X0*%
%ADD11R,2.410000X3.300000*%
%ADD12RoundRect,0.250000X0.650000X-1.500000X0.650000X1.500000X-0.650000X1.500000X-0.650000X-1.500000X0*%
%ADD13C,1.000000*%
%ADD14RoundRect,0.250000X0.450000X-0.350000X0.450000X0.350000X-0.450000X0.350000X-0.450000X-0.350000X0*%
%ADD15C,0.850000*%
%ADD16RoundRect,0.150000X0.150000X0.500000X-0.150000X0.500000X-0.150000X-0.500000X0.150000X-0.500000X0*%
%ADD17RoundRect,0.175000X0.350000X0.175000X-0.350000X0.175000X-0.350000X-0.175000X0.350000X-0.175000X0*%
%ADD18RoundRect,0.250000X-0.600000X0.600000X-0.600000X-0.600000X0.600000X-0.600000X0.600000X0.600000X0*%
%ADD19C,1.700000*%
%ADD20RoundRect,0.237500X-0.300000X-0.237500X0.300000X-0.237500X0.300000X0.237500X-0.300000X0.237500X0*%
%ADD21RoundRect,0.237500X-0.237500X0.300000X-0.237500X-0.300000X0.237500X-0.300000X0.237500X0.300000X0*%
%ADD22RoundRect,0.250000X0.350000X0.450000X-0.350000X0.450000X-0.350000X-0.450000X0.350000X-0.450000X0*%
%ADD23C,1.500000*%
%ADD24C,1.750000*%
%ADD25C,4.000000*%
%ADD26C,3.600000*%
%ADD27RoundRect,0.249999X0.450001X1.425001X-0.450001X1.425001X-0.450001X-1.425001X0.450001X-1.425001X0*%
%ADD28R,1.700000X1.700000*%
%ADD29RoundRect,0.237500X-0.237500X0.250000X-0.237500X-0.250000X0.237500X-0.250000X0.237500X0.250000X0*%
%ADD30RoundRect,0.250000X-0.650000X0.412500X-0.650000X-0.412500X0.650000X-0.412500X0.650000X0.412500X0*%
%ADD31RoundRect,0.250000X-0.412500X-0.650000X0.412500X-0.650000X0.412500X0.650000X-0.412500X0.650000X0*%
%ADD32RoundRect,0.237500X0.237500X-0.250000X0.237500X0.250000X-0.237500X0.250000X-0.237500X-0.250000X0*%
%ADD33RoundRect,0.162500X0.162500X-0.617500X0.162500X0.617500X-0.162500X0.617500X-0.162500X-0.617500X0*%
%ADD34FreePoly0,270.000000*%
%ADD35FreePoly1,270.000000*%
%ADD36FreePoly2,180.000000*%
%ADD37FreePoly3,180.000000*%
%ADD38RoundRect,0.250000X-0.450000X0.350000X-0.450000X-0.350000X0.450000X-0.350000X0.450000X0.350000X0*%
%ADD39RoundRect,0.250000X0.600000X0.725000X-0.600000X0.725000X-0.600000X-0.725000X0.600000X-0.725000X0*%
%ADD40O,1.700000X1.950000*%
%ADD41C,0.650000*%
%ADD42RoundRect,0.075000X0.075000X0.575000X-0.075000X0.575000X-0.075000X-0.575000X0.075000X-0.575000X0*%
%ADD43O,1.000000X2.100000*%
%ADD44O,1.000000X1.600000*%
%ADD45RoundRect,0.237500X0.287500X0.237500X-0.287500X0.237500X-0.287500X-0.237500X0.287500X-0.237500X0*%
%ADD46RoundRect,0.250001X-0.624999X0.462499X-0.624999X-0.462499X0.624999X-0.462499X0.624999X0.462499X0*%
%ADD47C,3.048000*%
%ADD48C,3.987800*%
%ADD49RoundRect,0.237500X-0.250000X-0.237500X0.250000X-0.237500X0.250000X0.237500X-0.250000X0.237500X0*%
%ADD50RoundRect,0.237500X0.300000X0.237500X-0.300000X0.237500X-0.300000X-0.237500X0.300000X-0.237500X0*%
%ADD51RoundRect,0.250000X0.650000X-0.412500X0.650000X0.412500X-0.650000X0.412500X-0.650000X-0.412500X0*%
%ADD52R,2.000000X2.000000*%
%ADD53C,2.000000*%
%ADD54R,3.200000X2.000000*%
%ADD55RoundRect,0.250000X0.600000X-0.600000X0.600000X0.600000X-0.600000X0.600000X-0.600000X-0.600000X0*%
%ADD56RoundRect,0.250000X-1.500000X0.925000X-1.500000X-0.925000X1.500000X-0.925000X1.500000X0.925000X0*%
%ADD57RoundRect,0.200000X-0.750000X-0.200000X0.750000X-0.200000X0.750000X0.200000X-0.750000X0.200000X0*%
%ADD58RoundRect,0.250000X-0.350000X-0.625000X0.350000X-0.625000X0.350000X0.625000X-0.350000X0.625000X0*%
%ADD59O,1.200000X1.750000*%
%ADD60RoundRect,0.162500X0.617500X0.162500X-0.617500X0.162500X-0.617500X-0.162500X0.617500X-0.162500X0*%
%ADD61C,0.345000*%
%ADD62RoundRect,0.200000X0.200000X-0.750000X0.200000X0.750000X-0.200000X0.750000X-0.200000X-0.750000X0*%
%ADD63RoundRect,0.237500X0.250000X0.237500X-0.250000X0.237500X-0.250000X-0.237500X0.250000X-0.237500X0*%
%ADD64FreePoly4,0.000000*%
%ADD65RoundRect,0.800000X-0.800000X-0.000010X0.800000X-0.000010X0.800000X0.000010X-0.800000X0.000010X0*%
%ADD66FreePoly5,0.000000*%
%ADD67RoundRect,0.200000X-0.587400X-0.587400X0.587400X-0.587400X0.587400X0.587400X-0.587400X0.587400X0*%
%ADD68C,1.574800*%
%ADD69RoundRect,0.300000X-0.450000X-0.450000X0.450000X-0.450000X0.450000X0.450000X-0.450000X0.450000X0*%
%ADD70RoundRect,0.250000X-0.550000X0.550000X-0.550000X-0.550000X0.550000X-0.550000X0.550000X0.550000X0*%
%ADD71C,1.600000*%
%ADD72RoundRect,0.250000X0.725000X-0.600000X0.725000X0.600000X-0.725000X0.600000X-0.725000X-0.600000X0*%
%ADD73O,1.950000X1.700000*%
%ADD74RoundRect,0.250000X0.550000X0.550000X-0.550000X0.550000X-0.550000X-0.550000X0.550000X-0.550000X0*%
%ADD75RoundRect,0.250000X-0.550000X-0.550000X0.550000X-0.550000X0.550000X0.550000X-0.550000X0.550000X0*%
%ADD76RoundRect,0.250000X-0.625000X0.350000X-0.625000X-0.350000X0.625000X-0.350000X0.625000X0.350000X0*%
%ADD77O,1.750000X1.200000*%
G04 APERTURE END LIST*
G04 #@! TO.C,JP1*
G36*
X133000000Y-99775000D02*
G01*
X134500000Y-99775000D01*
X134500000Y-102225000D01*
X133000000Y-102225000D01*
X133000000Y-99775000D01*
G37*
G04 #@! TO.C,JP3*
G36*
X144630000Y-112534000D02*
G01*
X144930000Y-112534000D01*
X144930000Y-114034000D01*
X144630000Y-114034000D01*
X144630000Y-112534000D01*
G37*
G04 #@! TO.C,JP4*
G36*
X144630000Y-109994000D02*
G01*
X144930000Y-109994000D01*
X144930000Y-111494000D01*
X144630000Y-111494000D01*
X144630000Y-109994000D01*
G37*
G04 #@! TO.C,JP5*
G36*
X144630000Y-107454000D02*
G01*
X144930000Y-107454000D01*
X144930000Y-108954000D01*
X144630000Y-108954000D01*
X144630000Y-107454000D01*
G37*
G04 #@! TD*
D10*
G04 #@! TO.C,U1*
X141775000Y-95205000D03*
X141775000Y-93935000D03*
X141775000Y-92665000D03*
X141775000Y-91395000D03*
X136825000Y-91395000D03*
X136825000Y-92665000D03*
X136825000Y-93935000D03*
X136825000Y-95205000D03*
D11*
X139300000Y-93300000D03*
G04 #@! TD*
D12*
G04 #@! TO.C,D25*
X160431250Y-85100000D03*
X160431250Y-80100000D03*
G04 #@! TD*
D13*
G04 #@! TO.C,TP24*
X66548000Y-65532000D03*
G04 #@! TD*
D14*
G04 #@! TO.C,R12*
X143000000Y-81250000D03*
X143000000Y-79250000D03*
G04 #@! TD*
D15*
G04 #@! TO.C,SW1*
X145518000Y-42672000D03*
X142518000Y-42672000D03*
D16*
X146268000Y-44622000D03*
X143268000Y-44622000D03*
X141768000Y-44622000D03*
D17*
X147693000Y-43772000D03*
X147693000Y-41572000D03*
X140343000Y-43772000D03*
X140343000Y-41572000D03*
G04 #@! TD*
D18*
G04 #@! TO.C,SW_MOD1*
X226060000Y-66802000D03*
D19*
X226060000Y-70502000D03*
G04 #@! TD*
D20*
G04 #@! TO.C,C15*
X134137500Y-79000000D03*
X135862500Y-79000000D03*
G04 #@! TD*
D21*
G04 #@! TO.C,C19*
X161800000Y-103937500D03*
X161800000Y-105662500D03*
G04 #@! TD*
D22*
G04 #@! TO.C,R13*
X135862500Y-81751000D03*
X133862500Y-81751000D03*
G04 #@! TD*
D23*
G04 #@! TO.C,TP17*
X178054000Y-96774000D03*
G04 #@! TD*
D24*
G04 #@! TO.C,SW_LE1*
X55626000Y-159754000D03*
D25*
X60706000Y-159754000D03*
D24*
X65786000Y-159754000D03*
D26*
X56896000Y-157214000D03*
X63246000Y-154674000D03*
G04 #@! TD*
D12*
G04 #@! TO.C,D27*
X155800000Y-100300000D03*
X155800000Y-95300000D03*
G04 #@! TD*
D24*
G04 #@! TO.C,SW_LD4*
X112776000Y-140704000D03*
D25*
X117856000Y-140704000D03*
D24*
X122936000Y-140704000D03*
D26*
X114046000Y-138164000D03*
X120396000Y-135624000D03*
G04 #@! TD*
D13*
G04 #@! TO.C,REF\u002A\u002A*
X122682000Y-151892000D03*
G04 #@! TD*
D24*
G04 #@! TO.C,SW_LD3*
X93726000Y-140704000D03*
D25*
X98806000Y-140704000D03*
D24*
X103886000Y-140704000D03*
D26*
X94996000Y-138164000D03*
X101346000Y-135624000D03*
G04 #@! TD*
D24*
G04 #@! TO.C,SW_LC4*
X112776000Y-121654000D03*
D25*
X117856000Y-121654000D03*
D24*
X122936000Y-121654000D03*
D26*
X114046000Y-119114000D03*
X120396000Y-116574000D03*
G04 #@! TD*
D23*
G04 #@! TO.C,TP8*
X136000000Y-66000000D03*
G04 #@! TD*
D27*
G04 #@! TO.C,R1*
X152600000Y-91250000D03*
X146500000Y-91250000D03*
G04 #@! TD*
D28*
G04 #@! TO.C,J2*
X135412000Y-55200000D03*
D19*
X132872000Y-55200000D03*
G04 #@! TD*
D29*
G04 #@! TO.C,R16*
X155600000Y-67087500D03*
X155600000Y-68912500D03*
G04 #@! TD*
D13*
G04 #@! TO.C,TP22*
X210820000Y-68834000D03*
G04 #@! TD*
D23*
G04 #@! TO.C,TP5*
X133750000Y-96250000D03*
G04 #@! TD*
D30*
G04 #@! TO.C,C11*
X203750000Y-92187500D03*
X203750000Y-95312500D03*
G04 #@! TD*
D24*
G04 #@! TO.C,SW_LE2*
X93726000Y-159754000D03*
D25*
X98806000Y-159754000D03*
D24*
X103886000Y-159754000D03*
D26*
X94996000Y-157214000D03*
X101346000Y-154674000D03*
G04 #@! TD*
D30*
G04 #@! TO.C,C10*
X87000000Y-159937500D03*
X87000000Y-163062500D03*
G04 #@! TD*
G04 #@! TO.C,C7*
X89154000Y-129743500D03*
X89154000Y-132868500D03*
G04 #@! TD*
D24*
G04 #@! TO.C,SW_LB4*
X112776000Y-102604000D03*
D25*
X117856000Y-102604000D03*
D24*
X122936000Y-102604000D03*
D26*
X114046000Y-100064000D03*
X120396000Y-97524000D03*
G04 #@! TD*
D20*
G04 #@! TO.C,C17*
X168218750Y-68175000D03*
X169943750Y-68175000D03*
G04 #@! TD*
D31*
G04 #@! TO.C,C5*
X92417500Y-65830000D03*
X95542500Y-65830000D03*
G04 #@! TD*
D28*
G04 #@! TO.C,O1*
X73474000Y-57285000D03*
D19*
X73474000Y-54745000D03*
X73474000Y-52205000D03*
X73474000Y-49665000D03*
G04 #@! TD*
D24*
G04 #@! TO.C,SW_LD1*
X55626000Y-140704000D03*
D25*
X60706000Y-140704000D03*
D24*
X65786000Y-140704000D03*
D26*
X56896000Y-138164000D03*
X63246000Y-135624000D03*
G04 #@! TD*
D30*
G04 #@! TO.C,C6*
X89154000Y-88087500D03*
X89154000Y-91212500D03*
G04 #@! TD*
D23*
G04 #@! TO.C,TP27*
X105156000Y-62992000D03*
G04 #@! TD*
G04 #@! TO.C,TP7*
X136000000Y-70000000D03*
G04 #@! TD*
D32*
G04 #@! TO.C,R15*
X169531250Y-86012500D03*
X169531250Y-84187500D03*
G04 #@! TD*
D33*
G04 #@! TO.C,U5*
X166681250Y-74700000D03*
X167631250Y-74700000D03*
X168581250Y-74700000D03*
X168581250Y-72000000D03*
X167631250Y-72000000D03*
X166681250Y-72000000D03*
G04 #@! TD*
D20*
G04 #@! TO.C,C2*
X144137500Y-87750000D03*
X145862500Y-87750000D03*
G04 #@! TD*
D13*
G04 #@! TO.C,TP25*
X101600000Y-71628000D03*
G04 #@! TD*
D31*
G04 #@! TO.C,C14*
X139637500Y-48600000D03*
X142762500Y-48600000D03*
G04 #@! TD*
D23*
G04 #@! TO.C,TP10*
X144780000Y-66294000D03*
G04 #@! TD*
D34*
G04 #@! TO.C,JP1*
X133750000Y-100275000D03*
D35*
X133750000Y-101725000D03*
G04 #@! TD*
D13*
G04 #@! TO.C,TP26*
X111252000Y-62992000D03*
G04 #@! TD*
D36*
G04 #@! TO.C,JP3*
X145430000Y-113284000D03*
D37*
X144130000Y-113284000D03*
G04 #@! TD*
D23*
G04 #@! TO.C,TP9*
X136144000Y-61976000D03*
G04 #@! TD*
D31*
G04 #@! TO.C,C4*
X92417500Y-68580000D03*
X95542500Y-68580000D03*
G04 #@! TD*
D24*
G04 #@! TO.C,SW_LD2*
X74676000Y-140704000D03*
D25*
X79756000Y-140704000D03*
D24*
X84836000Y-140704000D03*
D26*
X75946000Y-138164000D03*
X82296000Y-135624000D03*
G04 #@! TD*
D12*
G04 #@! TO.C,D26*
X160800000Y-100300000D03*
X160800000Y-95300000D03*
G04 #@! TD*
D23*
G04 #@! TO.C,TP12*
X181356000Y-96774000D03*
G04 #@! TD*
D24*
G04 #@! TO.C,SW_LA2*
X103251000Y-83554000D03*
D25*
X108331000Y-83554000D03*
D24*
X113411000Y-83554000D03*
D26*
X104521000Y-81014000D03*
X110871000Y-78474000D03*
G04 #@! TD*
D13*
G04 #@! TO.C,TP19*
X70104000Y-150114000D03*
G04 #@! TD*
D24*
G04 #@! TO.C,SW_LC3*
X93726000Y-121654000D03*
D25*
X98806000Y-121654000D03*
D24*
X103886000Y-121654000D03*
D26*
X94996000Y-119114000D03*
X101346000Y-116574000D03*
G04 #@! TD*
D24*
G04 #@! TO.C,SW_RA1*
X180975000Y-54864000D03*
D25*
X186055000Y-54864000D03*
D24*
X191135000Y-54864000D03*
D26*
X182245000Y-52324000D03*
X188595000Y-49784000D03*
G04 #@! TD*
D13*
G04 #@! TO.C,REF\u002A\u002A*
X174244000Y-46228000D03*
G04 #@! TD*
D38*
G04 #@! TO.C,R9*
X143500000Y-98250000D03*
X143500000Y-100250000D03*
G04 #@! TD*
D30*
G04 #@! TO.C,C8*
X200406000Y-59397500D03*
X200406000Y-62522500D03*
G04 #@! TD*
D24*
G04 #@! TO.C,SW_RB3*
X214325200Y-82024000D03*
D25*
X219405200Y-82024000D03*
D24*
X224485200Y-82024000D03*
D26*
X215595200Y-79484000D03*
X221945200Y-76944000D03*
G04 #@! TD*
D39*
G04 #@! TO.C,J3*
X213828000Y-96217500D03*
D40*
X211328000Y-96217500D03*
X208828000Y-96217500D03*
G04 #@! TD*
D41*
G04 #@! TO.C,J6*
X156814000Y-45933000D03*
X151034000Y-45933000D03*
D16*
X157124000Y-47073000D03*
X156324000Y-47073000D03*
D42*
X155174000Y-47073000D03*
X154174000Y-47073000D03*
X153674000Y-47073000D03*
X152674000Y-47073000D03*
D16*
X151524000Y-47073000D03*
X150724000Y-47073000D03*
X150724000Y-47073000D03*
X151524000Y-47073000D03*
D42*
X152174000Y-47073000D03*
X153174000Y-47073000D03*
X154674000Y-47073000D03*
X155674000Y-47073000D03*
D16*
X156324000Y-47073000D03*
X157124000Y-47073000D03*
D43*
X158244000Y-46433000D03*
D44*
X158244000Y-42253000D03*
D43*
X149604000Y-46433000D03*
D44*
X149604000Y-42253000D03*
G04 #@! TD*
D45*
G04 #@! TO.C,DB2*
X134375000Y-94000000D03*
X132625000Y-94000000D03*
G04 #@! TD*
D13*
G04 #@! TO.C,REF\u002A\u002A*
X56642000Y-61976000D03*
G04 #@! TD*
G04 #@! TO.C,REF\u002A\u002A*
X223520000Y-102108000D03*
G04 #@! TD*
G04 #@! TO.C,TP18*
X70104000Y-131064000D03*
G04 #@! TD*
D30*
G04 #@! TO.C,C9*
X88500000Y-110437500D03*
X88500000Y-113562500D03*
G04 #@! TD*
D46*
G04 #@! TO.C,F1*
X157400000Y-50512500D03*
X157400000Y-53487500D03*
G04 #@! TD*
D47*
G04 #@! TO.C,ST_LA2*
X96424750Y-76569000D03*
D48*
X96424750Y-91809000D03*
D47*
X120237250Y-76569000D03*
D48*
X120237250Y-91809000D03*
G04 #@! TD*
D49*
G04 #@! TO.C,R2*
X129087500Y-92500000D03*
X130912500Y-92500000D03*
G04 #@! TD*
D20*
G04 #@! TO.C,C22*
X162525000Y-129500000D03*
X164250000Y-129500000D03*
G04 #@! TD*
D13*
G04 #@! TO.C,TP13*
X72644000Y-65532000D03*
G04 #@! TD*
D50*
G04 #@! TO.C,C16*
X131362500Y-75250000D03*
X129637500Y-75250000D03*
G04 #@! TD*
D23*
G04 #@! TO.C,TP21*
X222504000Y-93726000D03*
G04 #@! TD*
D28*
G04 #@! TO.C,J1*
X168158000Y-55200000D03*
D19*
X165618000Y-55200000D03*
X163078000Y-55200000D03*
G04 #@! TD*
D51*
G04 #@! TO.C,C18*
X158800000Y-59562500D03*
X158800000Y-56437500D03*
G04 #@! TD*
D13*
G04 #@! TO.C,TP15*
X70104000Y-111760000D03*
G04 #@! TD*
D30*
G04 #@! TO.C,C12*
X89154000Y-146507500D03*
X89154000Y-149632500D03*
G04 #@! TD*
D23*
G04 #@! TO.C,TP3*
X147574000Y-74168000D03*
G04 #@! TD*
D47*
G04 #@! TO.C,ST_LE1*
X79756000Y-152769000D03*
D48*
X79756000Y-168009000D03*
D47*
X117856000Y-152769000D03*
D48*
X117856000Y-168009000D03*
G04 #@! TD*
D49*
G04 #@! TO.C,R14*
X167718750Y-80500000D03*
X169543750Y-80500000D03*
G04 #@! TD*
D52*
G04 #@! TO.C,RENC1*
X54445000Y-50975000D03*
D53*
X54445000Y-55975000D03*
X54445000Y-53475000D03*
D54*
X61945000Y-47875000D03*
X61945000Y-59075000D03*
D53*
X68945000Y-55975000D03*
X68945000Y-50975000D03*
G04 #@! TD*
D23*
G04 #@! TO.C,TH1*
X129050000Y-69850000D03*
X129050000Y-66150000D03*
D55*
X123050000Y-69850000D03*
D19*
X123050000Y-66150000D03*
G04 #@! TD*
D21*
G04 #@! TO.C,C20*
X158800000Y-103937500D03*
X158800000Y-105662500D03*
G04 #@! TD*
D56*
G04 #@! TO.C,L1*
X160431250Y-69275000D03*
X160431250Y-75325000D03*
G04 #@! TD*
D13*
G04 #@! TO.C,TP20*
X73152000Y-162560000D03*
G04 #@! TD*
D23*
G04 #@! TO.C,TP16*
X163576000Y-115316000D03*
G04 #@! TD*
D24*
G04 #@! TO.C,SW_RB2*
X195275200Y-82024000D03*
D25*
X200355200Y-82024000D03*
D24*
X205435200Y-82024000D03*
D26*
X196545200Y-79484000D03*
X202895200Y-76944000D03*
G04 #@! TD*
D23*
G04 #@! TO.C,TP6*
X133750000Y-90235147D03*
G04 #@! TD*
D10*
G04 #@! TO.C,U2*
X138800000Y-114370000D03*
X138800000Y-113100000D03*
X138800000Y-111830000D03*
X138800000Y-110560000D03*
X138800000Y-109290000D03*
X138800000Y-108020000D03*
X138800000Y-106750000D03*
X138800000Y-105480000D03*
X133850000Y-105480000D03*
X133850000Y-106750000D03*
X133850000Y-108020000D03*
X133850000Y-109290000D03*
X133850000Y-110560000D03*
X133850000Y-111830000D03*
X133850000Y-113100000D03*
X133850000Y-114370000D03*
G04 #@! TD*
D57*
G04 #@! TO.C,Q3*
X139750000Y-70050000D03*
X139750000Y-71950000D03*
X142750000Y-71000000D03*
G04 #@! TD*
D23*
G04 #@! TO.C,TP4*
X151638000Y-74168000D03*
G04 #@! TD*
D58*
G04 #@! TO.C,J4*
X185358000Y-96500000D03*
D59*
X187358000Y-96500000D03*
X189358000Y-96500000D03*
X191358000Y-96500000D03*
X193358000Y-96500000D03*
X195358000Y-96500000D03*
X197358000Y-96500000D03*
X199358000Y-96500000D03*
G04 #@! TD*
D60*
G04 #@! TO.C,U3*
X101830000Y-68030000D03*
X101830000Y-67080000D03*
X101830000Y-66130000D03*
X99130000Y-66130000D03*
X99130000Y-67080000D03*
X99130000Y-68030000D03*
G04 #@! TD*
D47*
G04 #@! TO.C,ST_LA1*
X58324750Y-76569000D03*
D48*
X58324750Y-91809000D03*
D47*
X82137250Y-76569000D03*
D48*
X82137250Y-91809000D03*
G04 #@! TD*
D23*
G04 #@! TO.C,TP2*
X82550000Y-67818000D03*
G04 #@! TD*
D49*
G04 #@! TO.C,R3*
X129087500Y-94000000D03*
X130912500Y-94000000D03*
G04 #@! TD*
D61*
G04 #@! TO.C,U4*
X140000000Y-79500000D03*
X139500000Y-79500000D03*
X139000000Y-79500000D03*
X140000000Y-79000000D03*
X139500000Y-79000000D03*
X139000000Y-79000000D03*
X140000000Y-78500000D03*
X139500000Y-78500000D03*
X139000000Y-78500000D03*
G04 #@! TD*
D62*
G04 #@! TO.C,Q2*
X163531250Y-66100000D03*
X165431250Y-66100000D03*
X164481250Y-63100000D03*
G04 #@! TD*
D63*
G04 #@! TO.C,R10*
X150368000Y-49762000D03*
X148543000Y-49762000D03*
G04 #@! TD*
D45*
G04 #@! TO.C,DB1*
X134375000Y-92500000D03*
X132625000Y-92500000D03*
G04 #@! TD*
D52*
G04 #@! TO.C,RENC2*
X110976000Y-51054000D03*
D53*
X110976000Y-56054000D03*
X110976000Y-53554000D03*
D54*
X118476000Y-47954000D03*
X118476000Y-59154000D03*
D53*
X125476000Y-56054000D03*
X125476000Y-51054000D03*
G04 #@! TD*
D64*
G04 #@! TO.C,A1*
X139910000Y-121632500D03*
D65*
X139910000Y-124172500D03*
D66*
X139910000Y-126712500D03*
D65*
X139910000Y-129252500D03*
X139910000Y-131792500D03*
X139910000Y-134332500D03*
X139910000Y-136872500D03*
D66*
X139910000Y-139412500D03*
D65*
X139910000Y-141952500D03*
X139910000Y-144492500D03*
X139910000Y-147032500D03*
X139910000Y-149572500D03*
D66*
X139910000Y-152112500D03*
D65*
X139910000Y-154652500D03*
X139910000Y-157192500D03*
X139910000Y-159732500D03*
X139910000Y-162272500D03*
D66*
X139910000Y-164812500D03*
D65*
X139910000Y-167352500D03*
X139910000Y-169892500D03*
X159290000Y-169892500D03*
X159290000Y-167352500D03*
D64*
X159290000Y-164812500D03*
D65*
X159290000Y-162272500D03*
X159290000Y-159732500D03*
X159290000Y-157192500D03*
X159290000Y-154652500D03*
D64*
X159290000Y-152112500D03*
D65*
X159290000Y-149572500D03*
X159290000Y-147032500D03*
X159290000Y-144492500D03*
X159290000Y-141952500D03*
D64*
X159290000Y-139412500D03*
D65*
X159290000Y-136872500D03*
X159290000Y-134332500D03*
X159290000Y-131792500D03*
X159290000Y-129252500D03*
D64*
X159290000Y-126712500D03*
D65*
X159290000Y-124172500D03*
X159290000Y-121632500D03*
D67*
X150184100Y-151462500D03*
D68*
X152724100Y-151462500D03*
X155264100Y-151462500D03*
D69*
X149600000Y-124762500D03*
X150600000Y-121462500D03*
X148600000Y-121462500D03*
G04 #@! TD*
D20*
G04 #@! TO.C,C13*
X162968750Y-85700000D03*
X164693750Y-85700000D03*
G04 #@! TD*
D38*
G04 #@! TO.C,R4*
X145800000Y-98250000D03*
X145800000Y-100250000D03*
G04 #@! TD*
D24*
G04 #@! TO.C,SW_LC1*
X55626000Y-121654000D03*
D25*
X60706000Y-121654000D03*
D24*
X65786000Y-121654000D03*
D26*
X56896000Y-119114000D03*
X63246000Y-116574000D03*
G04 #@! TD*
D24*
G04 #@! TO.C,SW_LA1*
X65151000Y-83554000D03*
D25*
X70231000Y-83554000D03*
D24*
X75311000Y-83554000D03*
D26*
X66421000Y-81014000D03*
X72771000Y-78474000D03*
G04 #@! TD*
D24*
G04 #@! TO.C,SW_LB2*
X74676000Y-102604000D03*
D25*
X79756000Y-102604000D03*
D24*
X84836000Y-102604000D03*
D26*
X75946000Y-100064000D03*
X82296000Y-97524000D03*
G04 #@! TD*
D24*
G04 #@! TO.C,SW_LB1*
X55626000Y-102604000D03*
D25*
X60706000Y-102604000D03*
D24*
X65786000Y-102604000D03*
D26*
X56896000Y-100064000D03*
X63246000Y-97524000D03*
G04 #@! TD*
D31*
G04 #@! TO.C,C23*
X162437500Y-131750000D03*
X165562500Y-131750000D03*
G04 #@! TD*
D13*
G04 #@! TO.C,TP23*
X66548000Y-69088000D03*
G04 #@! TD*
D50*
G04 #@! TO.C,C1*
X135750000Y-86250000D03*
X134025000Y-86250000D03*
G04 #@! TD*
D24*
G04 #@! TO.C,SW_LB3*
X93726000Y-102604000D03*
D25*
X98806000Y-102604000D03*
D24*
X103886000Y-102604000D03*
D26*
X94996000Y-100064000D03*
X101346000Y-97524000D03*
G04 #@! TD*
D30*
G04 #@! TO.C,C24*
X155400000Y-104037500D03*
X155400000Y-107162500D03*
G04 #@! TD*
D23*
G04 #@! TO.C,TP28*
X99060000Y-62992000D03*
G04 #@! TD*
D24*
G04 #@! TO.C,SW_RB1*
X176225200Y-82024000D03*
D25*
X181305200Y-82024000D03*
D24*
X186385200Y-82024000D03*
D26*
X177495200Y-79484000D03*
X183845200Y-76944000D03*
G04 #@! TD*
D23*
G04 #@! TO.C,TP1*
X86360000Y-67818000D03*
G04 #@! TD*
D36*
G04 #@! TO.C,JP4*
X145430000Y-110744000D03*
D37*
X144130000Y-110744000D03*
G04 #@! TD*
D21*
G04 #@! TO.C,C21*
X156500000Y-57137500D03*
X156500000Y-58862500D03*
G04 #@! TD*
D23*
G04 #@! TO.C,TP14*
X152654000Y-80010000D03*
G04 #@! TD*
D24*
G04 #@! TO.C,SW_RA2*
X209550000Y-54864000D03*
D25*
X214630000Y-54864000D03*
D24*
X219710000Y-54864000D03*
D26*
X210820000Y-52324000D03*
X217170000Y-49784000D03*
G04 #@! TD*
D31*
G04 #@! TO.C,C3*
X134687500Y-117750000D03*
X137812500Y-117750000D03*
G04 #@! TD*
D63*
G04 #@! TO.C,R11*
X150368000Y-51562000D03*
X148543000Y-51562000D03*
G04 #@! TD*
D36*
G04 #@! TO.C,JP5*
X145430000Y-108204000D03*
D37*
X144130000Y-108204000D03*
G04 #@! TD*
D13*
G04 #@! TO.C,TP11*
X171196000Y-74168000D03*
G04 #@! TD*
D57*
G04 #@! TO.C,Q1*
X155500000Y-115450000D03*
X155500000Y-117350000D03*
X158500000Y-116400000D03*
G04 #@! TD*
D24*
G04 #@! TO.C,SW_LC2*
X74676000Y-121654000D03*
D25*
X79756000Y-121654000D03*
D24*
X84836000Y-121654000D03*
D26*
X75946000Y-119114000D03*
X82296000Y-116574000D03*
G04 #@! TD*
D70*
G04 #@! TO.C,D23*
X228092000Y-76962000D03*
D71*
X228092000Y-84582000D03*
G04 #@! TD*
D70*
G04 #@! TO.C,D17*
X69342000Y-154674000D03*
D71*
X69342000Y-162294000D03*
G04 #@! TD*
D70*
G04 #@! TO.C,D15*
X107442000Y-135624000D03*
D71*
X107442000Y-143244000D03*
G04 #@! TD*
D70*
G04 #@! TO.C,D5*
X69342000Y-97524000D03*
D71*
X69342000Y-105144000D03*
G04 #@! TD*
D70*
G04 #@! TO.C,D4*
X128750000Y-50250000D03*
D71*
X128750000Y-57870000D03*
G04 #@! TD*
D70*
G04 #@! TO.C,D19*
X194564000Y-49784000D03*
D71*
X194564000Y-57404000D03*
G04 #@! TD*
D70*
G04 #@! TO.C,D8*
X126238000Y-97524000D03*
D71*
X126238000Y-105144000D03*
G04 #@! TD*
D72*
G04 #@! TO.C,BT1*
X110467500Y-70500000D03*
D73*
X110467500Y-68000000D03*
X110467500Y-65500000D03*
G04 #@! TD*
D70*
G04 #@! TO.C,D10*
X88138000Y-116574000D03*
D71*
X88138000Y-124194000D03*
G04 #@! TD*
D70*
G04 #@! TO.C,D14*
X88138000Y-135624000D03*
D71*
X88138000Y-143244000D03*
G04 #@! TD*
D74*
G04 #@! TO.C,D24*
X222504000Y-70612000D03*
D71*
X214884000Y-70612000D03*
G04 #@! TD*
D70*
G04 #@! TO.C,D22*
X208788000Y-76962000D03*
D71*
X208788000Y-84582000D03*
G04 #@! TD*
D70*
G04 #@! TO.C,D20*
X223012000Y-49784000D03*
D71*
X223012000Y-57404000D03*
G04 #@! TD*
D70*
G04 #@! TO.C,D7*
X107442000Y-97524000D03*
D71*
X107442000Y-105144000D03*
G04 #@! TD*
D70*
G04 #@! TO.C,D18*
X107442000Y-154674000D03*
D71*
X107442000Y-162294000D03*
G04 #@! TD*
D74*
G04 #@! TO.C,D2*
X88000000Y-72000000D03*
D71*
X80380000Y-72000000D03*
G04 #@! TD*
D75*
G04 #@! TO.C,D3*
X59944000Y-61976000D03*
D71*
X67564000Y-61976000D03*
G04 #@! TD*
D70*
G04 #@! TO.C,D12*
X126238000Y-116574000D03*
D71*
X126238000Y-124194000D03*
G04 #@! TD*
D70*
G04 #@! TO.C,D21*
X189992000Y-76962000D03*
D71*
X189992000Y-84582000D03*
G04 #@! TD*
D70*
G04 #@! TO.C,D16*
X126238000Y-135624000D03*
D71*
X126238000Y-143244000D03*
G04 #@! TD*
D70*
G04 #@! TO.C,D9*
X69342000Y-116574000D03*
D71*
X69342000Y-124194000D03*
G04 #@! TD*
D70*
G04 #@! TO.C,D13*
X69342000Y-135624000D03*
D71*
X69342000Y-143244000D03*
G04 #@! TD*
D76*
G04 #@! TO.C,J5*
X130000000Y-122500000D03*
D77*
X130000000Y-124500000D03*
X130000000Y-126500000D03*
X130000000Y-128500000D03*
X130000000Y-130500000D03*
X130000000Y-132500000D03*
X130000000Y-134500000D03*
X130000000Y-136500000D03*
G04 #@! TD*
D74*
G04 #@! TO.C,D1*
X75810000Y-72000000D03*
D71*
X68190000Y-72000000D03*
G04 #@! TD*
D70*
G04 #@! TO.C,D6*
X88138000Y-97524000D03*
D71*
X88138000Y-105144000D03*
G04 #@! TD*
D70*
G04 #@! TO.C,D11*
X107442000Y-116574000D03*
D71*
X107442000Y-124194000D03*
G04 #@! TD*
M02*
