M48
; DRILL file KiCad 10.0.3 date 2026-07-15T23:25:02
; FORMAT={-:-/ absolute / metric / decimal}
; #@! TF.CreationDate,2026-07-15T23:25:02+08:00
; #@! TF.GenerationSoftware,Kicad,Pcbnew,10.0.3
; #@! TF.FileFunction,NonPlated,1,2,NPTH
FMAT,2
METRIC
; #@! TA.AperFunction,NonPlated,NPTH,ComponentDrill
T1C0.650
; #@! TA.AperFunction,NonPlated,NPTH,ComponentDrill
T2C0.850
; #@! TA.AperFunction,NonPlated,NPTH,ComponentDrill
T3C1.500
; #@! TA.AperFunction,NonPlated,NPTH,ComponentDrill
T4C1.750
; #@! TA.AperFunction,NonPlated,NPTH,ComponentDrill
T5C3.048
; #@! TA.AperFunction,NonPlated,NPTH,ComponentDrill
T6C3.988
; #@! TA.AperFunction,NonPlated,NPTH,ComponentDrill
T7C4.000
%
G90
G05
T1
X151.034Y-45.933
X156.814Y-45.933
T2
X142.518Y-42.672
X145.518Y-42.672
T3
X129.05Y-66.15
X129.05Y-69.85
T4
X55.626Y-102.604
X55.626Y-121.654
X55.626Y-140.704
X55.626Y-159.754
X65.151Y-83.554
X65.786Y-102.604
X65.786Y-121.654
X65.786Y-140.704
X65.786Y-159.754
X74.676Y-102.604
X74.676Y-121.654
X74.676Y-140.704
X75.311Y-83.554
X84.836Y-102.604
X84.836Y-121.654
X84.836Y-140.704
X93.726Y-102.604
X93.726Y-121.654
X93.726Y-140.704
X93.726Y-159.754
X103.251Y-83.554
X103.886Y-102.604
X103.886Y-121.654
X103.886Y-140.704
X103.886Y-159.754
X112.776Y-102.604
X112.776Y-121.654
X112.776Y-140.704
X113.411Y-83.554
X122.936Y-102.604
X122.936Y-121.654
X122.936Y-140.704
X176.225Y-82.024
X180.975Y-54.864
X186.385Y-82.024
X191.135Y-54.864
X195.275Y-82.024
X205.435Y-82.024
X209.55Y-54.864
X214.325Y-82.024
X219.71Y-54.864
X224.485Y-82.024
T5
X58.325Y-76.569
X79.756Y-152.769
X82.137Y-76.569
X96.425Y-76.569
X117.856Y-152.769
X120.237Y-76.569
T6
X58.325Y-91.809
X79.756Y-168.009
X82.137Y-91.809
X96.425Y-91.809
X117.856Y-168.009
X120.237Y-91.809
T7
X60.706Y-102.604
X60.706Y-121.654
X60.706Y-140.704
X60.706Y-159.754
X70.231Y-83.554
X79.756Y-102.604
X79.756Y-121.654
X79.756Y-140.704
X98.806Y-102.604
X98.806Y-121.654
X98.806Y-140.704
X98.806Y-159.754
X108.331Y-83.554
X117.856Y-102.604
X117.856Y-121.654
X117.856Y-140.704
X181.305Y-82.024
X186.055Y-54.864
X200.355Y-82.024
X214.63Y-54.864
X219.405Y-82.024
M30
