M48
; DRILL file KiCad 10.0.3 date 2026-07-15T23:25:02
; FORMAT={-:-/ absolute / metric / decimal}
; #@! TF.CreationDate,2026-07-15T23:25:02+08:00
; #@! TF.GenerationSoftware,Kicad,Pcbnew,10.0.3
; #@! TF.FileFunction,Plated,1,2,PTH
FMAT,2
METRIC
; #@! TA.AperFunction,Plated,PTH,ViaDrill
T1C0.300
; #@! TA.AperFunction,Plated,PTH,ComponentDrill
T2C0.300
; #@! TA.AperFunction,Plated,PTH,ComponentDrill
T3C0.600
; #@! TA.AperFunction,Plated,PTH,ComponentDrill
T4C0.700
; #@! TA.AperFunction,Plated,PTH,ComponentDrill
T5C0.750
; #@! TA.AperFunction,Plated,PTH,ComponentDrill
T6C0.800
; #@! TA.AperFunction,Plated,PTH,ComponentDrill
T7C0.950
; #@! TA.AperFunction,Plated,PTH,ComponentDrill
T8C1.000
; #@! TA.AperFunction,Plated,PTH,ComponentDrill
T9C1.500
; #@! TA.AperFunction,Plated,PTH,ComponentDrill
T10C3.050
%
G90
G05
T1
X49.53Y-110.363
X49.784Y-128.27
X49.784Y-143.256
X50.038Y-73.406
X50.038Y-160.147
X52.197Y-168.91
X56.261Y-70.485
X56.388Y-162.433
X56.642Y-129.286
X57.912Y-56.642
X58.166Y-50.546
X58.166Y-81.268
X58.674Y-162.548
X59.055Y-135.89
X59.309Y-116.713
X59.436Y-154.94
X59.563Y-97.917
X60.706Y-129.286
X62.992Y-92.444
X63.646Y-81.014
X65.024Y-86.348
X65.151Y-109.22
X65.278Y-128.27
X65.532Y-147.193
X65.532Y-151.118
X65.786Y-165.862
X67.31Y-162.814
X67.5Y-166.0
X68.961Y-79.121
X69.088Y-101.842
X69.088Y-140.45
X69.596Y-120.892
X70.866Y-57.785
X71.12Y-144.018
X71.12Y-145.796
X71.374Y-105.918
X71.374Y-107.696
X71.374Y-125.222
X71.374Y-126.746
X71.374Y-133.604
X73.152Y-156.706
X73.171Y-100.064
X73.171Y-111.25
X73.171Y-119.114
X73.171Y-138.164
X73.914Y-152.642
X74.676Y-125.984
X74.93Y-145.022
X75.057Y-90.17
X75.692Y-106.922
X76.454Y-87.884
X76.708Y-131.064
X76.962Y-92.19
X76.962Y-169.164
X77.724Y-65.151
X78.359Y-135.763
X78.613Y-116.84
X78.74Y-97.663
X82.55Y-155.182
X82.55Y-169.164
X83.312Y-82.284
X84.074Y-87.884
X84.201Y-147.32
X84.582Y-108.966
X84.582Y-128.016
X85.25Y-62.5
X86.106Y-92.456
X86.106Y-106.68
X86.106Y-125.73
X86.106Y-145.034
X87.122Y-166.116
X87.503Y-153.67
X87.884Y-75.934
X87.884Y-120.892
X88.138Y-139.827
X88.392Y-101.6
X88.75Y-63.75
X89.154Y-86.602
X89.154Y-107.684
X89.154Y-126.48
X90.678Y-110.478
X90.678Y-145.0
X92.221Y-100.064
X92.221Y-119.114
X92.221Y-130.556
X92.221Y-138.164
X93.218Y-163.818
X93.472Y-106.934
X93.726Y-125.984
X94.488Y-107.696
X94.488Y-126.746
X95.758Y-81.776
X97.028Y-52.07
X97.028Y-54.102
X97.282Y-97.79
X97.663Y-135.636
X97.79Y-116.459
X100.203Y-66.167
X100.584Y-162.294
X101.746Y-81.014
X103.378Y-146.304
X103.505Y-128.016
X103.632Y-68.58
X103.632Y-109.093
X104.14Y-164.973
X104.648Y-144.272
X104.902Y-105.918
X105.156Y-125.972
X105.41Y-106.922
X106.172Y-92.583
X106.172Y-145.022
X106.934Y-78.359
X107.442Y-101.842
X107.442Y-139.688
X107.569Y-120.65
X107.696Y-158.75
X108.204Y-46.228
X108.712Y-50.546
X108.712Y-55.118
X109.22Y-126.746
X111.271Y-100.064
X111.271Y-119.114
X111.271Y-131.572
X111.271Y-138.164
X112.522Y-159.246
X113.284Y-151.003
X113.411Y-89.535
X113.792Y-53.594
X114.3Y-168.656
X115.5Y-65.532
X115.57Y-105.144
X115.57Y-124.194
X116.586Y-157.226
X117.221Y-133.35
X117.729Y-94.615
X117.856Y-114.046
X118.364Y-83.4
X119.126Y-51.308
X119.5Y-64.75
X121.0Y-64.75
X121.285Y-86.106
X121.412Y-168.021
X122.0Y-61.0
X122.682Y-90.158
X122.936Y-127.889
X122.936Y-147.066
X123.444Y-107.684
X123.571Y-58.166
X124.714Y-154.813
X124.75Y-110.25
X124.841Y-149.352
X125.73Y-101.334
X125.857Y-120.904
X126.365Y-139.7
X126.75Y-164.0
X126.75Y-169.0
X127.889Y-87.249
X128.0Y-166.5
X129.667Y-159.131
X129.75Y-108.0
X129.878Y-115.74
X129.921Y-144.018
X130.75Y-106.75
X131.5Y-105.5
X131.572Y-116.586
X131.572Y-119.38
X132.08Y-84.328
X134.747Y-148.336
X135.128Y-49.53
X135.128Y-125.222
X135.382Y-98.425
X135.42Y-110.75
X135.566Y-112.268
X135.75Y-88.5
X136.271Y-108.077
X136.398Y-106.426
X136.525Y-117.856
X136.525Y-164.846
X136.75Y-96.5
X136.779Y-151.13
X136.825Y-89.925
X136.906Y-113.157
X137.25Y-159.75
X137.25Y-170.0
X137.287Y-121.158
X137.5Y-80.25
X137.5Y-81.25
X138.0Y-97.0
X138.176Y-58.547
X138.43Y-45.847
X138.5Y-99.0
X138.684Y-84.836
X139.0Y-90.5
X139.7Y-116.84
X139.7Y-118.872
X140.462Y-54.737
X140.5Y-88.5
X140.69Y-90.31
X140.75Y-105.25
X140.843Y-119.888
X141.0Y-97.0
X141.0Y-99.0
X141.224Y-77.978
X141.224Y-117.856
X141.478Y-82.296
X141.5Y-101.5
X141.986Y-129.252
X142.0Y-97.0
X142.24Y-105.25
X142.24Y-106.68
X142.25Y-121.632
X142.25Y-124.172
X142.25Y-131.792
X142.494Y-126.238
X142.494Y-130.556
X142.748Y-117.856
X143.129Y-140.843
X143.129Y-152.146
X143.383Y-158.877
X144.272Y-117.856
X144.526Y-52.959
X144.6Y-71.0
X145.25Y-101.5
X145.25Y-102.25
X145.415Y-62.992
X146.5Y-105.25
X146.558Y-106.68
X147.0Y-103.75
X147.25Y-108.458
X147.447Y-61.595
X147.5Y-87.5
X147.5Y-94.5
X147.5Y-96.5
X147.701Y-55.499
X147.701Y-65.659
X148.0Y-90.5
X148.0Y-92.0
X148.082Y-53.213
X148.082Y-113.157
X148.082Y-124.714
X148.59Y-48.26
X149.098Y-128.27
X149.606Y-122.936
X149.733Y-153.416
X149.987Y-44.45
X150.622Y-128.397
X150.876Y-133.985
X151.0Y-90.5
X151.0Y-92.0
X151.0Y-95.0
X151.257Y-106.426
X151.257Y-113.411
X151.257Y-117.475
X151.384Y-51.562
X151.638Y-140.208
X151.79Y-124.936
X151.79Y-130.962
X151.892Y-61.468
X151.892Y-62.992
X152.2Y-45.8
X152.273Y-76.454
X152.4Y-50.038
X152.527Y-43.18
X152.527Y-69.85
X152.527Y-84.582
X152.654Y-55.245
X152.654Y-82.169
X152.654Y-86.614
X152.75Y-122.25
X153.416Y-147.574
X154.559Y-53.467
X155.194Y-134.493
X155.321Y-125.476
X155.4Y-48.4
X155.448Y-43.18
X155.702Y-110.744
X155.75Y-109.5
X155.75Y-112.25
X155.8Y-100.3
X155.829Y-153.289
X156.464Y-118.872
X156.845Y-124.25
X157.0Y-131.75
X157.0Y-137.0
X157.0Y-142.0
X157.3Y-48.9
X157.734Y-44.577
X158.5Y-118.9
X159.004Y-72.39
X160.528Y-66.929
X160.782Y-46.99
X160.782Y-53.213
X160.782Y-63.1
X162.052Y-140.97
X162.052Y-154.305
X162.433Y-72.39
X163.25Y-164.0
X163.322Y-48.387
X163.5Y-59.75
X163.957Y-78.359
X164.211Y-81.407
X165.354Y-161.29
X166.546Y-93.296
X167.132Y-159.5
X167.259Y-78.105
X167.386Y-84.963
X168.529Y-152.273
X169.164Y-65.278
X169.545Y-63.373
X170.434Y-98.806
X170.815Y-88.9
X171.196Y-70.993
X171.45Y-97.282
X171.704Y-81.026
X172.72Y-47.498
X173.101Y-95.885
X174.498Y-56.388
X176.403Y-86.995
X177.292Y-72.898
X177.419Y-70.993
X178.054Y-98.806
X178.5Y-66.802
X178.58Y-89.136
X179.47Y-52.324
X179.832Y-76.962
X181.864Y-58.674
X184.531Y-50.292
X185.166Y-66.802
X185.547Y-88.392
X190.373Y-89.281
X190.754Y-61.087
X191.77Y-87.122
X192.024Y-82.804
X192.024Y-85.598
X193.25Y-89.5
X193.294Y-98.806
X193.77Y-79.484
X194.31Y-73.66
X194.564Y-53.848
X195.75Y-86.347
X197.104Y-62.484
X197.866Y-73.406
X198.628Y-76.962
X198.882Y-55.372
X203.454Y-62.484
X203.454Y-70.612
X204.724Y-53.213
X205.232Y-88.138
X206.209Y-59.398
X207.01Y-86.106
X207.772Y-52.324
X209.296Y-89.408
X210.0Y-98.75
X210.058Y-100.076
X210.566Y-101.854
X211.074Y-85.5
X212.75Y-90.0
X212.82Y-79.484
X213.868Y-50.038
X214.63Y-85.344
X217.424Y-64.008
X218.059Y-76.708
X218.694Y-70.739
X219.202Y-101.981
X219.456Y-94.234
X219.71Y-60.96
X223.266Y-54.102
X224.536Y-87.884
X226.314Y-61.214
X226.568Y-73.152
X227.838Y-100.584
X228.346Y-81.026
X229.997Y-89.662
X230.378Y-66.294
T2
X138.6Y-92.1
X138.6Y-93.3
X138.6Y-94.5
X140.0Y-92.1
X140.0Y-93.3
X140.0Y-94.5
T4
X82.55Y-67.818
X86.36Y-67.818
X123.05Y-66.15
X123.05Y-69.85
X136.0Y-66.0
X136.0Y-70.0
X144.78Y-66.294
X152.654Y-80.01
X178.054Y-96.774
X181.356Y-96.774
X222.504Y-93.726
X226.06Y-66.802
X226.06Y-70.502
T5
X130.0Y-122.5
X130.0Y-124.5
X130.0Y-126.5
X130.0Y-128.5
X130.0Y-130.5
X130.0Y-132.5
X130.0Y-134.5
X130.0Y-136.5
X185.358Y-96.5
X187.358Y-96.5
X189.358Y-96.5
X191.358Y-96.5
X193.358Y-96.5
X195.358Y-96.5
X197.358Y-96.5
X199.358Y-96.5
T6
X59.944Y-61.976
X67.564Y-61.976
X68.19Y-72.0
X69.342Y-97.524
X69.342Y-105.144
X69.342Y-116.574
X69.342Y-124.194
X69.342Y-135.624
X69.342Y-143.244
X69.342Y-154.674
X69.342Y-162.294
X75.81Y-72.0
X80.38Y-72.0
X88.0Y-72.0
X88.138Y-97.524
X88.138Y-105.144
X88.138Y-116.574
X88.138Y-124.194
X88.138Y-135.624
X88.138Y-143.244
X107.442Y-97.524
X107.442Y-105.144
X107.442Y-116.574
X107.442Y-124.194
X107.442Y-135.624
X107.442Y-143.244
X107.442Y-154.674
X107.442Y-162.294
X126.238Y-97.524
X126.238Y-105.144
X126.238Y-116.574
X126.238Y-124.194
X126.238Y-135.624
X126.238Y-143.244
X128.75Y-50.25
X128.75Y-57.87
X189.992Y-76.962
X189.992Y-84.582
X194.564Y-49.784
X194.564Y-57.404
X208.788Y-76.962
X208.788Y-84.582
X214.884Y-70.612
X222.504Y-70.612
X223.012Y-49.784
X223.012Y-57.404
X228.092Y-76.962
X228.092Y-84.582
T7
X110.468Y-65.5
X110.468Y-68.0
X110.468Y-70.5
X208.828Y-96.218
X211.328Y-96.218
X213.828Y-96.218
T8
X54.445Y-50.975
X54.445Y-53.475
X54.445Y-55.975
X68.945Y-50.975
X68.945Y-55.975
X73.474Y-49.665
X73.474Y-52.205
X73.474Y-54.745
X73.474Y-57.285
X110.976Y-51.054
X110.976Y-53.554
X110.976Y-56.054
X125.476Y-51.054
X125.476Y-56.054
X132.872Y-55.2
X135.412Y-55.2
X148.6Y-121.462
X149.6Y-124.762
X150.184Y-151.463
X150.6Y-121.462
X152.724Y-151.463
X155.264Y-151.463
X163.078Y-55.2
X165.618Y-55.2
X168.158Y-55.2
T10
X56.896Y-100.064
X56.896Y-119.114
X56.896Y-138.164
X56.896Y-157.214
X63.246Y-97.524
X63.246Y-116.574
X63.246Y-135.624
X63.246Y-154.674
X66.421Y-81.014
X72.771Y-78.474
X75.946Y-100.064
X75.946Y-119.114
X75.946Y-138.164
X82.296Y-97.524
X82.296Y-116.574
X82.296Y-135.624
X94.996Y-100.064
X94.996Y-119.114
X94.996Y-138.164
X94.996Y-157.214
X101.346Y-97.524
X101.346Y-116.574
X101.346Y-135.624
X101.346Y-154.674
X104.521Y-81.014
X110.871Y-78.474
X114.046Y-100.064
X114.046Y-119.114
X114.046Y-138.164
X120.396Y-97.524
X120.396Y-116.574
X120.396Y-135.624
X177.495Y-79.484
X182.245Y-52.324
X183.845Y-76.944
X188.595Y-49.784
X196.545Y-79.484
X202.895Y-76.944
X210.82Y-52.324
X215.595Y-79.484
X217.17Y-49.784
X221.945Y-76.944
T3
G00X149.604Y-42.553
M15
G01X149.604Y-41.953
M16
G05
G00X149.604Y-46.983
M15
G01X149.604Y-45.883
M16
G05
G00X158.244Y-42.553
M15
G01X158.244Y-41.953
M16
G05
G00X158.244Y-46.983
M15
G01X158.244Y-45.883
M16
G05
T9
G00X61.295Y-47.875
M15
G01X62.595Y-47.875
M16
G05
G00X61.295Y-59.075
M15
G01X62.595Y-59.075
M16
G05
G00X117.826Y-47.954
M15
G01X119.126Y-47.954
M16
G05
G00X117.826Y-59.154
M15
G01X119.126Y-59.154
M16
G05
M30
