  0
SECTION
  2
HEADER
  9
$ANGBASE
  50
0.0
  9
$ANGDIR
  70
1
  9
$MEASUREMENT
  70
1
  9
$INSUNITS
  70
4
  0
ENDSEC
  0
SECTION
  2
TABLES
  0
TABLE
  2
LTYPE
  70
4
  0
LTYPE
  5
40F
  2
CONTINUOUS
  70
0
  3
Solid line
  72
65
  73
0
  40
0.0
  0
LTYPE
  5
410
  2
DASHDOT
 70
0
  3
Dash Dot ____ _ ____ _
 72
65
 73
4
 40
2.0
 49
1.25
 49
-0.25
 49
0.25
 49
-0.25
  0
LTYPE
  5
411
  2
DASHED
 70
0
  3
Dashed __ __ __ __ __
 72
65
 73
2
 40
0.75
 49
0.5
 49
-0.25
  0
LTYPE
  5
43B
  2
DOTTED
 70
0
  3
Dotted .  .  .  .
 72
65
 73
2
 40
0.2
 49
0.0
 49
-0.2
  0
ENDTAB
  0
TABLE
  2
STYLE
  70
4
  0
STYLE
  2
KICAD
  70
0
  40
0
  41
1
  42
1
  50
0
  71
0
  3
isocp.shx
  0
STYLE
  2
KICADB
  70
0
  40
0
  41
1
  42
1
  50
0
  71
0
  3
isocp.shx
  0
STYLE
  2
KICADI
  70
0
  40
0
  41
1
  42
1
  50
15
  71
0
  3
isocp.shx
  0
STYLE
  2
KICADBI
  70
0
  40
0
  41
1
  42
1
  50
15
  71
0
  3
isocp.shx
  0
ENDTAB
  0
TABLE
  2
LAYER
  70
1
  0
LAYER
  2
Edge.Cuts
  70
0
  62
254
  420
13685453
  6
CONTINUOUS
  0
ENDTAB
  0
ENDSEC
  0
SECTION
  2
ENTITIES
0
LINE
8
Edge.Cuts
6
CONTINUOUS
10
155.2823190000000011
20
-167.6399999999999864
11
44.2006249999999952
21
-167.4709990000000062
0
LINE
8
Edge.Cuts
6
CONTINUOUS
10
44.5539999999999949
20
-43.2029999999999959
11
44.5547609999999992
21
-43.185569000000001
0
LINE
8
Edge.Cuts
6
CONTINUOUS
10
44.5547609999999992
20
-43.185569000000001
11
44.5570379999999986
21
-43.1682699999999997
0
LINE
8
Edge.Cuts
6
CONTINUOUS
10
44.5570379999999986
20
-43.1682699999999997
11
44.5608149999999981
21
-43.1512359999999973
0
LINE
8
Edge.Cuts
6
CONTINUOUS
10
44.5608149999999981
20
-43.1512359999999973
11
44.5660609999999977
21
-43.1345959999999948
0
LINE
8
Edge.Cuts
6
CONTINUOUS
10
44.5660609999999977
20
-43.1345959999999948
11
44.5727380000000011
21
-43.1184760000000011
0
LINE
8
Edge.Cuts
6
CONTINUOUS
10
44.5727380000000011
20
-43.1184760000000011
11
44.5807949999999948
21
-43.1030000000000015
0
LINE
8
Edge.Cuts
6
CONTINUOUS
10
44.5807949999999948
20
-43.1030000000000015
11
44.5901700000000005
21
-43.0882849999999991
0
LINE
8
Edge.Cuts
6
CONTINUOUS
10
44.5901700000000005
20
-43.0882849999999991
11
44.600791000000001
21
-43.0744419999999977
0
LINE
8
Edge.Cuts
6
CONTINUOUS
10
44.600791000000001
20
-43.0744419999999977
11
44.6125789999999967
21
-43.0615789999999947
0
LINE
8
Edge.Cuts
6
CONTINUOUS
10
44.6125789999999967
20
-43.0615789999999947
11
44.6254419999999996
21
-43.049790999999999
0
LINE
8
Edge.Cuts
6
CONTINUOUS
10
44.6254419999999996
20
-43.049790999999999
11
44.639285000000001
21
-43.0391699999999986
0
LINE
8
Edge.Cuts
6
CONTINUOUS
10
44.639285000000001
20
-43.0391699999999986
11
44.6539999999999964
21
-43.029795
0
LINE
8
Edge.Cuts
6
CONTINUOUS
10
44.6539999999999964
20
-43.029795
11
44.669475999999996
21
-43.0217379999999991
0
LINE
8
Edge.Cuts
6
CONTINUOUS
10
44.669475999999996
20
-43.0217379999999991
11
44.6855959999999968
21
-43.0150609999999958
0
LINE
8
Edge.Cuts
6
CONTINUOUS
10
44.6855959999999968
20
-43.0150609999999958
11
44.7022359999999992
21
-43.0098149999999961
0
LINE
8
Edge.Cuts
6
CONTINUOUS
10
44.7022359999999992
20
-43.0098149999999961
11
44.7192699999999945
21
-43.0060379999999967
0
LINE
8
Edge.Cuts
6
CONTINUOUS
10
44.7192699999999945
20
-43.0060379999999967
11
44.7365689999999958
21
-43.0037609999999972
0
LINE
8
Edge.Cuts
6
CONTINUOUS
10
44.7365689999999958
20
-43.0037609999999972
11
44.7539999999999978
21
-43.0030000000000001
0
LINE
8
Edge.Cuts
6
CONTINUOUS
10
44.7539999999999978
20
-43.0030000000000001
11
57.3539999999999992
21
-43.0030000000000001
0
LINE
8
Edge.Cuts
6
CONTINUOUS
10
57.3539999999999992
20
-43.0030000000000001
11
57.3714309999999941
21
-43.0037609999999972
0
LINE
8
Edge.Cuts
6
CONTINUOUS
10
57.3714309999999941
20
-43.0037609999999972
11
57.3887299999999954
21
-43.0060379999999967
0
LINE
8
Edge.Cuts
6
CONTINUOUS
10
57.3887299999999954
20
-43.0060379999999967
11
57.4057639999999978
21
-43.0098149999999961
0
LINE
8
Edge.Cuts
6
CONTINUOUS
10
57.4057639999999978
20
-43.0098149999999961
11
57.4224040000000002
21
-43.0150609999999958
0
LINE
8
Edge.Cuts
6
CONTINUOUS
10
57.4224040000000002
20
-43.0150609999999958
11
57.4385239999999939
21
-43.0217379999999991
0
LINE
8
Edge.Cuts
6
CONTINUOUS
10
57.4385239999999939
20
-43.0217379999999991
11
57.4540000000000006
21
-43.029795
0
LINE
8
Edge.Cuts
6
CONTINUOUS
10
57.4540000000000006
20
-43.029795
11
57.468714999999996
21
-43.0391699999999986
0
LINE
8
Edge.Cuts
6
CONTINUOUS
10
57.468714999999996
20
-43.0391699999999986
11
57.4825579999999974
21
-43.049790999999999
0
LINE
8
Edge.Cuts
6
CONTINUOUS
10
57.4825579999999974
20
-43.049790999999999
11
57.4954210000000003
21
-43.0615789999999947
0
LINE
8
Edge.Cuts
6
CONTINUOUS
10
57.4954210000000003
20
-43.0615789999999947
11
57.507208999999996
21
-43.0744419999999977
0
LINE
8
Edge.Cuts
6
CONTINUOUS
10
57.507208999999996
20
-43.0744419999999977
11
57.5178299999999965
21
-43.0882849999999991
0
LINE
8
Edge.Cuts
6
CONTINUOUS
10
57.5178299999999965
20
-43.0882849999999991
11
57.527204999999995
21
-43.1030000000000015
0
LINE
8
Edge.Cuts
6
CONTINUOUS
10
57.527204999999995
20
-43.1030000000000015
11
57.5352619999999959
21
-43.1184760000000011
0
LINE
8
Edge.Cuts
6
CONTINUOUS
10
57.5352619999999959
20
-43.1184760000000011
11
57.5419389999999993
21
-43.1345959999999948
0
LINE
8
Edge.Cuts
6
CONTINUOUS
10
57.5419389999999993
20
-43.1345959999999948
11
57.5471849999999989
21
-43.1512359999999973
0
LINE
8
Edge.Cuts
6
CONTINUOUS
10
57.5471849999999989
20
-43.1512359999999973
11
57.5509619999999984
21
-43.1682699999999997
0
LINE
8
Edge.Cuts
6
CONTINUOUS
10
57.5509619999999984
20
-43.1682699999999997
11
57.5532389999999978
21
-43.185569000000001
0
LINE
8
Edge.Cuts
6
CONTINUOUS
10
57.5532389999999978
20
-43.185569000000001
11
57.5539999999999949
21
-43.2029999999999959
0
LINE
8
Edge.Cuts
6
CONTINUOUS
10
57.5539999999999949
20
-43.2029999999999959
11
57.5539999999999949
21
-55.6029999999999944
0
LINE
8
Edge.Cuts
6
CONTINUOUS
10
57.5539999999999949
20
-55.6029999999999944
11
57.5532389999999978
21
-55.6204309999999964
0
LINE
8
Edge.Cuts
6
CONTINUOUS
10
57.5532389999999978
20
-55.6204309999999964
11
57.5509619999999984
21
-55.6377299999999977
0
LINE
8
Edge.Cuts
6
CONTINUOUS
10
57.5509619999999984
20
-55.6377299999999977
11
57.5471849999999989
21
-55.6547640000000001
0
LINE
8
Edge.Cuts
6
CONTINUOUS
10
57.5471849999999989
20
-55.6547640000000001
11
57.5419389999999993
21
-55.6714039999999954
0
LINE
8
Edge.Cuts
6
CONTINUOUS
10
57.5419389999999993
20
-55.6714039999999954
11
57.5352619999999959
21
-55.6875239999999962
0
LINE
8
Edge.Cuts
6
CONTINUOUS
10
57.5352619999999959
20
-55.6875239999999962
11
57.527204999999995
21
-55.7029999999999959
0
LINE
8
Edge.Cuts
6
CONTINUOUS
10
57.527204999999995
20
-55.7029999999999959
11
57.5178299999999965
21
-55.7177149999999983
0
LINE
8
Edge.Cuts
6
CONTINUOUS
10
57.5178299999999965
20
-55.7177149999999983
11
57.507208999999996
21
-55.7315579999999997
0
LINE
8
Edge.Cuts
6
CONTINUOUS
10
57.507208999999996
20
-55.7315579999999997
11
57.4954210000000003
21
-55.7444209999999956
0
LINE
8
Edge.Cuts
6
CONTINUOUS
10
57.4954210000000003
20
-55.7444209999999956
11
57.4825579999999974
21
-55.7562089999999984
0
LINE
8
Edge.Cuts
6
CONTINUOUS
10
57.4825579999999974
20
-55.7562089999999984
11
57.468714999999996
21
-55.7668299999999988
0
LINE
8
Edge.Cuts
6
CONTINUOUS
10
57.468714999999996
20
-55.7668299999999988
11
57.4540000000000006
21
-55.7762049999999974
0
LINE
8
Edge.Cuts
6
CONTINUOUS
10
57.4540000000000006
20
-55.7762049999999974
11
57.4385239999999939
21
-55.7842619999999982
0
LINE
8
Edge.Cuts
6
CONTINUOUS
10
57.4385239999999939
20
-55.7842619999999982
11
57.4224040000000002
21
-55.7909389999999945
0
LINE
8
Edge.Cuts
6
CONTINUOUS
10
57.4224040000000002
20
-55.7909389999999945
11
57.4057639999999978
21
-55.7961849999999941
0
LINE
8
Edge.Cuts
6
CONTINUOUS
10
57.4057639999999978
20
-55.7961849999999941
11
57.3887299999999954
21
-55.7999620000000007
0
LINE
8
Edge.Cuts
6
CONTINUOUS
10
57.3887299999999954
20
-55.7999620000000007
11
57.3714309999999941
21
-55.8022390000000001
0
LINE
8
Edge.Cuts
6
CONTINUOUS
10
57.3714309999999941
20
-55.8022390000000001
11
57.3539999999999992
21
-55.8029999999999973
0
LINE
8
Edge.Cuts
6
CONTINUOUS
10
57.3539999999999992
20
-55.8029999999999973
11
44.7539999999999978
21
-55.8029999999999973
0
LINE
8
Edge.Cuts
6
CONTINUOUS
10
44.7539999999999978
20
-55.8029999999999973
11
44.7365689999999958
21
-55.8022390000000001
0
LINE
8
Edge.Cuts
6
CONTINUOUS
10
44.7365689999999958
20
-55.8022390000000001
11
44.7192699999999945
21
-55.7999620000000007
0
LINE
8
Edge.Cuts
6
CONTINUOUS
10
44.7192699999999945
20
-55.7999620000000007
11
44.7022359999999992
21
-55.7961849999999941
0
LINE
8
Edge.Cuts
6
CONTINUOUS
10
44.7022359999999992
20
-55.7961849999999941
11
44.6855959999999968
21
-55.7909389999999945
0
LINE
8
Edge.Cuts
6
CONTINUOUS
10
44.6855959999999968
20
-55.7909389999999945
11
44.669475999999996
21
-55.7842619999999982
0
LINE
8
Edge.Cuts
6
CONTINUOUS
10
44.669475999999996
20
-55.7842619999999982
11
44.6539999999999964
21
-55.7762049999999974
0
LINE
8
Edge.Cuts
6
CONTINUOUS
10
44.6539999999999964
20
-55.7762049999999974
11
44.639285000000001
21
-55.7668299999999988
0
LINE
8
Edge.Cuts
6
CONTINUOUS
10
44.639285000000001
20
-55.7668299999999988
11
44.6254419999999996
21
-55.7562089999999984
0
LINE
8
Edge.Cuts
6
CONTINUOUS
10
44.6254419999999996
20
-55.7562089999999984
11
44.6125789999999967
21
-55.7444209999999956
0
LINE
8
Edge.Cuts
6
CONTINUOUS
10
44.6125789999999967
20
-55.7444209999999956
11
44.600791000000001
21
-55.7315579999999997
0
LINE
8
Edge.Cuts
6
CONTINUOUS
10
44.600791000000001
20
-55.7315579999999997
11
44.5901700000000005
21
-55.7177149999999983
0
LINE
8
Edge.Cuts
6
CONTINUOUS
10
44.5901700000000005
20
-55.7177149999999983
11
44.5807949999999948
21
-55.7029999999999959
0
LINE
8
Edge.Cuts
6
CONTINUOUS
10
44.5807949999999948
20
-55.7029999999999959
11
44.5727380000000011
21
-55.6875239999999962
0
LINE
8
Edge.Cuts
6
CONTINUOUS
10
44.5727380000000011
20
-55.6875239999999962
11
44.5660609999999977
21
-55.6714039999999954
0
LINE
8
Edge.Cuts
6
CONTINUOUS
10
44.5660609999999977
20
-55.6714039999999954
11
44.5608149999999981
21
-55.6547640000000001
0
LINE
8
Edge.Cuts
6
CONTINUOUS
10
44.5608149999999981
20
-55.6547640000000001
11
44.5570379999999986
21
-55.6377299999999977
0
LINE
8
Edge.Cuts
6
CONTINUOUS
10
44.5570379999999986
20
-55.6377299999999977
11
44.5547609999999992
21
-55.6204309999999964
0
LINE
8
Edge.Cuts
6
CONTINUOUS
10
44.5547609999999992
20
-55.6204309999999964
11
44.5539999999999949
21
-55.6029999999999944
0
LINE
8
Edge.Cuts
6
CONTINUOUS
10
44.5539999999999949
20
-55.6029999999999944
11
44.5539999999999949
21
-43.2029999999999959
0
LINE
8
Edge.Cuts
6
CONTINUOUS
10
101.0884999999999962
20
-43.2727739999999983
11
101.0892609999999934
21
-43.2553689999999946
0
LINE
8
Edge.Cuts
6
CONTINUOUS
10
101.0892609999999934
20
-43.2553689999999946
11
101.0915379999999999
21
-43.2380700000000004
0
LINE
8
Edge.Cuts
6
CONTINUOUS
10
101.0915379999999999
20
-43.2380700000000004
11
101.0953149999999994
21
-43.221035999999998
0
LINE
8
Edge.Cuts
6
CONTINUOUS
10
101.0953149999999994
20
-43.221035999999998
11
101.100560999999999
21
-43.2043959999999956
0
LINE
8
Edge.Cuts
6
CONTINUOUS
10
101.100560999999999
20
-43.2043959999999956
11
101.1072379999999953
21
-43.1882759999999948
0
LINE
8
Edge.Cuts
6
CONTINUOUS
10
101.1072379999999953
20
-43.1882759999999948
11
101.115294999999989
21
-43.1727999999999952
0
LINE
8
Edge.Cuts
6
CONTINUOUS
10
101.115294999999989
20
-43.1727999999999952
11
101.1246699999999947
21
-43.1580849999999998
0
LINE
8
Edge.Cuts
6
CONTINUOUS
10
101.1246699999999947
20
-43.1580849999999998
11
101.1352909999999952
21
-43.1442419999999984
0
LINE
8
Edge.Cuts
6
CONTINUOUS
10
101.1352909999999952
20
-43.1442419999999984
11
101.1470789999999909
21
-43.1313789999999955
0
LINE
8
Edge.Cuts
6
CONTINUOUS
10
101.1470789999999909
20
-43.1313789999999955
11
101.1599420000000009
21
-43.1195909999999998
0
LINE
8
Edge.Cuts
6
CONTINUOUS
10
101.1599420000000009
20
-43.1195909999999998
11
101.1737849999999952
21
-43.1089699999999993
0
LINE
8
Edge.Cuts
6
CONTINUOUS
10
101.1737849999999952
20
-43.1089699999999993
11
101.1884999999999906
21
-43.0995950000000008
0
LINE
8
Edge.Cuts
6
CONTINUOUS
10
101.1884999999999906
20
-43.0995950000000008
11
101.2039759999999973
21
-43.0915379999999999
0
LINE
8
Edge.Cuts
6
CONTINUOUS
10
101.2039759999999973
20
-43.0915379999999999
11
101.2200959999999981
21
-43.0848609999999965
0
LINE
8
Edge.Cuts
6
CONTINUOUS
10
101.2200959999999981
20
-43.0848609999999965
11
101.2367359999999934
21
-43.0796149999999969
0
LINE
8
Edge.Cuts
6
CONTINUOUS
10
101.2367359999999934
20
-43.0796149999999969
11
101.2537699999999887
21
-43.0758379999999974
0
LINE
8
Edge.Cuts
6
CONTINUOUS
10
101.2537699999999887
20
-43.0758379999999974
11
101.2710689999999971
21
-43.073560999999998
0
LINE
8
Edge.Cuts
6
CONTINUOUS
10
101.2710689999999971
20
-43.073560999999998
11
101.2884999999999991
21
-43.0728000000000009
0
LINE
8
Edge.Cuts
6
CONTINUOUS
10
101.2884999999999991
20
-43.0728000000000009
11
101.2884999999999991
21
-43.0727739999999955
0
LINE
8
Edge.Cuts
6
CONTINUOUS
10
101.2884999999999991
20
-43.0727739999999955
11
113.8884999999999934
21
-43.0727739999999955
0
LINE
8
Edge.Cuts
6
CONTINUOUS
10
113.8884999999999934
20
-43.0727739999999955
11
113.9059079999999966
21
-43.0735329999999976
0
LINE
8
Edge.Cuts
6
CONTINUOUS
10
113.9059079999999966
20
-43.0735329999999976
11
113.9232089999999999
21
-43.075807999999995
0
LINE
8
Edge.Cuts
6
CONTINUOUS
10
113.9232089999999999
20
-43.075807999999995
11
113.9402449999999902
21
-43.0795829999999995
0
LINE
8
Edge.Cuts
6
CONTINUOUS
10
113.9402449999999902
20
-43.0795829999999995
11
113.9568879999999922
21
-43.0848279999999946
0
LINE
8
Edge.Cuts
6
CONTINUOUS
10
113.9568879999999922
20
-43.0848279999999946
11
113.9730109999999996
21
-43.0915040000000005
0
LINE
8
Edge.Cuts
6
CONTINUOUS
10
113.9730109999999996
20
-43.0915040000000005
11
113.9884899999999988
21
-43.0995589999999993
0
LINE
8
Edge.Cuts
6
CONTINUOUS
10
113.9884899999999988
20
-43.0995589999999993
11
114.0032089999999982
21
-43.1089330000000004
0
LINE
8
Edge.Cuts
6
CONTINUOUS
10
114.0032089999999982
20
-43.1089330000000004
11
114.0170540000000017
21
-43.1195540000000008
0
LINE
8
Edge.Cuts
6
CONTINUOUS
10
114.0170540000000017
20
-43.1195540000000008
11
114.0299210000000016
21
-43.1313419999999965
0
LINE
8
Edge.Cuts
6
CONTINUOUS
10
114.0299210000000016
20
-43.1313419999999965
11
114.0417119999999898
21
-43.1442059999999969
0
LINE
8
Edge.Cuts
6
CONTINUOUS
10
114.0417119999999898
20
-43.1442059999999969
11
114.0523369999999943
21
-43.1580480000000009
0
LINE
8
Edge.Cuts
6
CONTINUOUS
10
114.0523369999999943
20
-43.1580480000000009
11
114.0617149999999924
21
-43.1727640000000008
0
LINE
8
Edge.Cuts
6
CONTINUOUS
10
114.0617149999999924
20
-43.1727640000000008
11
114.0697739999999953
21
-43.1882419999999954
0
LINE
8
Edge.Cuts
6
CONTINUOUS
10
114.0697739999999953
20
-43.1882419999999954
11
114.0764539999999982
21
-43.2043630000000007
0
LINE
8
Edge.Cuts
6
CONTINUOUS
10
114.0764539999999982
20
-43.2043630000000007
11
114.0817039999999878
21
-43.2210040000000006
0
LINE
8
Edge.Cuts
6
CONTINUOUS
10
114.0817039999999878
20
-43.2210040000000006
11
114.0854829999999964
21
-43.238039999999998
0
LINE
8
Edge.Cuts
6
CONTINUOUS
10
114.0854829999999964
20
-43.238039999999998
11
114.0877629999999954
21
-43.2553410000000014
0
LINE
8
Edge.Cuts
6
CONTINUOUS
10
114.0877629999999954
20
-43.2553410000000014
11
114.0885260000000017
21
-43.2727739999999983
0
LINE
8
Edge.Cuts
6
CONTINUOUS
10
114.0885260000000017
20
-43.2727739999999983
11
114.0884999999999962
21
-43.2727739999999983
0
LINE
8
Edge.Cuts
6
CONTINUOUS
10
114.0884999999999962
20
-43.2727739999999983
11
114.0884999999999962
21
-55.6727739999999969
0
LINE
8
Edge.Cuts
6
CONTINUOUS
10
114.0884999999999962
20
-55.6727739999999969
11
114.0884999999999962
21
-55.6727999999999952
0
LINE
8
Edge.Cuts
6
CONTINUOUS
10
114.0884999999999962
20
-55.6727999999999952
11
114.0877389999999991
21
-55.6902309999999972
0
LINE
8
Edge.Cuts
6
CONTINUOUS
10
114.0877389999999991
20
-55.6902309999999972
11
114.0854619999999926
21
-55.7075299999999984
0
LINE
8
Edge.Cuts
6
CONTINUOUS
10
114.0854619999999926
20
-55.7075299999999984
11
114.0816849999999931
21
-55.7245640000000009
0
LINE
8
Edge.Cuts
6
CONTINUOUS
10
114.0816849999999931
20
-55.7245640000000009
11
114.0764389999999935
21
-55.7412039999999962
0
LINE
8
Edge.Cuts
6
CONTINUOUS
10
114.0764389999999935
20
-55.7412039999999962
11
114.0697619999999972
21
-55.757323999999997
0
LINE
8
Edge.Cuts
6
CONTINUOUS
10
114.0697619999999972
20
-55.757323999999997
11
114.0617049999999892
21
-55.7727999999999966
0
LINE
8
Edge.Cuts
6
CONTINUOUS
10
114.0617049999999892
20
-55.7727999999999966
11
114.0523299999999978
21
-55.7875149999999991
0
LINE
8
Edge.Cuts
6
CONTINUOUS
10
114.0523299999999978
20
-55.7875149999999991
11
114.0417089999999973
21
-55.8013580000000005
0
LINE
8
Edge.Cuts
6
CONTINUOUS
10
114.0417089999999973
20
-55.8013580000000005
11
114.0299210000000016
21
-55.8142209999999963
0
LINE
8
Edge.Cuts
6
CONTINUOUS
10
114.0299210000000016
20
-55.8142209999999963
11
114.0170579999999916
21
-55.8260089999999991
0
LINE
8
Edge.Cuts
6
CONTINUOUS
10
114.0170579999999916
20
-55.8260089999999991
11
114.0032149999999973
21
-55.8366299999999995
0
LINE
8
Edge.Cuts
6
CONTINUOUS
10
114.0032149999999973
20
-55.8366299999999995
11
113.9885000000000019
21
-55.8460049999999981
0
LINE
8
Edge.Cuts
6
CONTINUOUS
10
113.9885000000000019
20
-55.8460049999999981
11
113.9730239999999952
21
-55.854061999999999
0
LINE
8
Edge.Cuts
6
CONTINUOUS
10
113.9730239999999952
20
-55.854061999999999
11
113.9569039999999944
21
-55.8607389999999953
0
LINE
8
Edge.Cuts
6
CONTINUOUS
10
113.9569039999999944
20
-55.8607389999999953
11
113.9402639999999991
21
-55.8659849999999949
0
LINE
8
Edge.Cuts
6
CONTINUOUS
10
113.9402639999999991
20
-55.8659849999999949
11
113.9232299999999896
21
-55.8697619999999944
0
LINE
8
Edge.Cuts
6
CONTINUOUS
10
113.9232299999999896
20
-55.8697619999999944
11
113.9059309999999954
21
-55.8720390000000009
0
LINE
8
Edge.Cuts
6
CONTINUOUS
10
113.9059309999999954
20
-55.8720390000000009
11
113.8884999999999934
21
-55.872799999999998
0
LINE
8
Edge.Cuts
6
CONTINUOUS
10
113.8884999999999934
20
-55.872799999999998
11
113.8884999999999934
21
-55.8727739999999997
0
LINE
8
Edge.Cuts
6
CONTINUOUS
10
113.8884999999999934
20
-55.8727739999999997
11
101.2884999999999991
21
-55.8727739999999997
0
LINE
8
Edge.Cuts
6
CONTINUOUS
10
101.2884999999999991
20
-55.8727739999999997
11
101.2884739999999937
21
-55.8727739999999997
0
LINE
8
Edge.Cuts
6
CONTINUOUS
10
101.2884739999999937
20
-55.8727739999999997
11
101.2710450000000009
21
-55.8720110000000005
0
LINE
8
Edge.Cuts
6
CONTINUOUS
10
101.2710450000000009
20
-55.8720110000000005
11
101.2537489999999991
21
-55.8697309999999945
0
LINE
8
Edge.Cuts
6
CONTINUOUS
10
101.2537489999999991
20
-55.8697309999999945
11
101.2367179999999962
21
-55.8659529999999975
0
LINE
8
Edge.Cuts
6
CONTINUOUS
10
101.2367179999999962
20
-55.8659529999999975
11
101.2200799999999958
21
-55.8607049999999958
0
LINE
8
Edge.Cuts
6
CONTINUOUS
10
101.2200799999999958
20
-55.8607049999999958
11
101.2039639999999991
21
-55.854026999999995
0
LINE
8
Edge.Cuts
6
CONTINUOUS
10
101.2039639999999991
20
-55.854026999999995
11
101.1884900000000016
21
-55.8459699999999941
0
LINE
8
Edge.Cuts
6
CONTINUOUS
10
101.1884900000000016
20
-55.8459699999999941
11
101.1737779999999987
21
-55.8365939999999981
0
LINE
8
Edge.Cuts
6
CONTINUOUS
10
101.1737779999999987
20
-55.8365939999999981
11
101.1599389999999943
21
-55.8259720000000002
0
LINE
8
Edge.Cuts
6
CONTINUOUS
10
101.1599389999999943
20
-55.8259720000000002
11
101.1470789999999909
21
-55.8141849999999948
0
LINE
8
Edge.Cuts
6
CONTINUOUS
10
101.1470789999999909
20
-55.8141849999999948
11
101.1352940000000018
21
-55.8013209999999944
0
LINE
8
Edge.Cuts
6
CONTINUOUS
10
101.1352940000000018
20
-55.8013209999999944
11
101.1246759999999938
21
-55.7874789999999976
0
LINE
8
Edge.Cuts
6
CONTINUOUS
10
101.1246759999999938
20
-55.7874789999999976
11
101.1153039999999947
21
-55.7727639999999951
0
LINE
8
Edge.Cuts
6
CONTINUOUS
10
101.1153039999999947
20
-55.7727639999999951
11
101.1072509999999909
21
-55.7572890000000001
0
LINE
8
Edge.Cuts
6
CONTINUOUS
10
101.1072509999999909
20
-55.7572890000000001
11
101.1005770000000012
21
-55.7411709999999943
0
LINE
8
Edge.Cuts
6
CONTINUOUS
10
101.1005770000000012
20
-55.7411709999999943
11
101.0953329999999966
21
-55.7245319999999964
0
LINE
8
Edge.Cuts
6
CONTINUOUS
10
101.0953329999999966
20
-55.7245319999999964
11
101.0915600000000012
21
-55.707499999999996
0
LINE
8
Edge.Cuts
6
CONTINUOUS
10
101.0915600000000012
20
-55.707499999999996
11
101.0892849999999896
21
-55.6902029999999968
0
LINE
8
Edge.Cuts
6
CONTINUOUS
10
101.0892849999999896
20
-55.6902029999999968
11
101.0885260000000017
21
-55.6727739999999969
0
LINE
8
Edge.Cuts
6
CONTINUOUS
10
101.0885260000000017
20
-55.6727739999999969
11
101.0884999999999962
21
-55.6727739999999969
0
LINE
8
Edge.Cuts
6
CONTINUOUS
10
101.0884999999999962
20
-55.6727739999999969
11
101.0884999999999962
21
-43.2727739999999983
0
LINE
8
Edge.Cuts
6
CONTINUOUS
10
37.7534999999999954
20
-161.0240000000000009
11
38.024212999999996
21
-46.8497489999999956
0
ARC
8
Edge.Cuts
10
44.4713999999999956
20
-46.8497999999999948
40
6.4471870002017155
50
90.00167075
51
179.99954677
0
ARC
8
Edge.Cuts
10
44.2006699999999952
20
-161.0238300000000038
40
6.4471690001570456
50
-179.99848922
51
-90.00039991
0
LINE
8
Edge.Cuts
6
CONTINUOUS
10
60.8329999999999984
20
-43.6879999999999953
11
64.3889999999999958
21
-43.6879999999999953
0
LINE
8
Edge.Cuts
6
CONTINUOUS
10
64.3889999999999958
20
-43.6879999999999953
11
64.3889999999999958
21
-54.8639999999999972
0
LINE
8
Edge.Cuts
6
CONTINUOUS
10
64.3889999999999958
20
-54.8639999999999972
11
60.8329999999999984
21
-54.8639999999999972
0
LINE
8
Edge.Cuts
6
CONTINUOUS
10
60.8329999999999984
20
-54.8639999999999972
11
60.8329999999999984
21
-43.6879999999999953
0
LINE
8
Edge.Cuts
6
CONTINUOUS
10
129.0029999999999859
20
-49.286999999999999
11
129.0064250000000072
21
-49.2085599999999985
0
LINE
8
Edge.Cuts
6
CONTINUOUS
10
129.0064250000000072
20
-49.2085599999999985
11
129.0166729999999973
21
-49.1307169999999971
0
LINE
8
Edge.Cuts
6
CONTINUOUS
10
129.0166729999999973
20
-49.1307169999999971
11
129.0336670000000083
21
-49.0540629999999993
0
LINE
8
Edge.Cuts
6
CONTINUOUS
10
129.0336670000000083
20
-49.0540629999999993
11
129.0572769999999991
21
-48.9791819999999944
0
LINE
8
Edge.Cuts
6
CONTINUOUS
10
129.0572769999999991
20
-48.9791819999999944
11
129.0873229999999978
21
-48.906644
0
LINE
8
Edge.Cuts
6
CONTINUOUS
10
129.0873229999999978
20
-48.906644
11
129.1235769999999832
21
-48.8369999999999962
0
LINE
8
Edge.Cuts
6
CONTINUOUS
10
129.1235769999999832
20
-48.8369999999999962
11
129.1657629999999983
21
-48.7707809999999995
0
LINE
8
Edge.Cuts
6
CONTINUOUS
10
129.1657629999999983
20
-48.7707809999999995
11
129.2135600000000011
21
-48.7084909999999951
0
LINE
8
Edge.Cuts
6
CONTINUOUS
10
129.2135600000000011
20
-48.7084909999999951
11
129.266604000000001
21
-48.6506040000000013
0
LINE
8
Edge.Cuts
6
CONTINUOUS
10
129.266604000000001
20
-48.6506040000000013
11
129.3244909999999948
21
-48.5975599999999943
0
LINE
8
Edge.Cuts
6
CONTINUOUS
10
129.3244909999999948
20
-48.5975599999999943
11
129.3867809999999849
21
-48.5497629999999987
0
LINE
8
Edge.Cuts
6
CONTINUOUS
10
129.3867809999999849
20
-48.5497629999999987
11
129.453000000000003
21
-48.5075769999999977
0
LINE
8
Edge.Cuts
6
CONTINUOUS
10
129.453000000000003
20
-48.5075769999999977
11
129.5226439999999855
21
-48.4713229999999982
0
LINE
8
Edge.Cuts
6
CONTINUOUS
10
129.5226439999999855
20
-48.4713229999999982
11
129.5951819999999941
21
-48.4412769999999995
0
LINE
8
Edge.Cuts
6
CONTINUOUS
10
129.5951819999999941
20
-48.4412769999999995
11
129.670062999999999
21
-48.4176669999999945
0
LINE
8
Edge.Cuts
6
CONTINUOUS
10
129.670062999999999
20
-48.4176669999999945
11
129.7467169999999896
21
-48.4006729999999976
0
LINE
8
Edge.Cuts
6
CONTINUOUS
10
129.7467169999999896
20
-48.4006729999999976
11
129.8245599999999911
21
-48.3904250000000005
0
LINE
8
Edge.Cuts
6
CONTINUOUS
10
129.8245599999999911
20
-48.3904250000000005
11
129.9029999999999916
21
-48.3870000000000005
0
LINE
8
Edge.Cuts
6
CONTINUOUS
10
129.9029999999999916
20
-48.3870000000000005
11
135.5960000000000036
21
-48.3870000000000005
0
LINE
8
Edge.Cuts
6
CONTINUOUS
10
135.5960000000000036
20
-48.3870000000000005
11
135.6744400000000041
21
-48.3904250000000005
0
LINE
8
Edge.Cuts
6
CONTINUOUS
10
135.6744400000000041
20
-48.3904250000000005
11
135.7522830000000056
21
-48.4006729999999976
0
LINE
8
Edge.Cuts
6
CONTINUOUS
10
135.7522830000000056
20
-48.4006729999999976
11
135.8289369999999963
21
-48.4176669999999945
0
LINE
8
Edge.Cuts
6
CONTINUOUS
10
135.8289369999999963
20
-48.4176669999999945
11
135.9038180000000011
21
-48.4412769999999995
0
LINE
8
Edge.Cuts
6
CONTINUOUS
10
135.9038180000000011
20
-48.4412769999999995
11
135.9763559999999813
21
-48.4713229999999982
0
LINE
8
Edge.Cuts
6
CONTINUOUS
10
135.9763559999999813
20
-48.4713229999999982
11
136.0459999999999923
21
-48.5075769999999977
0
LINE
8
Edge.Cuts
6
CONTINUOUS
10
136.0459999999999923
20
-48.5075769999999977
11
136.1122189999999819
21
-48.5497629999999987
0
LINE
8
Edge.Cuts
6
CONTINUOUS
10
136.1122189999999819
20
-48.5497629999999987
11
136.1745090000000005
21
-48.5975599999999943
0
LINE
8
Edge.Cuts
6
CONTINUOUS
10
136.1745090000000005
20
-48.5975599999999943
11
136.2323959999999943
21
-48.6506040000000013
0
LINE
8
Edge.Cuts
6
CONTINUOUS
10
136.2323959999999943
20
-48.6506040000000013
11
136.2854399999999941
21
-48.7084909999999951
0
LINE
8
Edge.Cuts
6
CONTINUOUS
10
136.2854399999999941
20
-48.7084909999999951
11
136.3332369999999969
21
-48.7707809999999995
0
LINE
8
Edge.Cuts
6
CONTINUOUS
10
136.3332369999999969
20
-48.7707809999999995
11
136.3754229999999836
21
-48.8369999999999962
0
LINE
8
Edge.Cuts
6
CONTINUOUS
10
136.3754229999999836
20
-48.8369999999999962
11
136.4116769999999974
21
-48.906644
0
LINE
8
Edge.Cuts
6
CONTINUOUS
10
136.4116769999999974
20
-48.906644
11
136.4417229999999961
21
-48.9791819999999944
0
LINE
8
Edge.Cuts
6
CONTINUOUS
10
136.4417229999999961
20
-48.9791819999999944
11
136.4653329999999869
21
-49.0540629999999993
0
LINE
8
Edge.Cuts
6
CONTINUOUS
10
136.4653329999999869
20
-49.0540629999999993
11
136.482326999999998
21
-49.1307169999999971
0
LINE
8
Edge.Cuts
6
CONTINUOUS
10
136.482326999999998
20
-49.1307169999999971
11
136.492574999999988
21
-49.2085599999999985
0
LINE
8
Edge.Cuts
6
CONTINUOUS
10
136.492574999999988
20
-49.2085599999999985
11
136.4959999999999809
21
-49.286999999999999
0
LINE
8
Edge.Cuts
6
CONTINUOUS
10
136.4959999999999809
20
-49.286999999999999
11
136.4959999999999809
21
-51.5509999999999948
0
LINE
8
Edge.Cuts
6
CONTINUOUS
10
136.4959999999999809
20
-51.5509999999999948
11
136.492574999999988
21
-51.6294399999999953
0
LINE
8
Edge.Cuts
6
CONTINUOUS
10
136.492574999999988
20
-51.6294399999999953
11
136.482326999999998
21
-51.7072829999999968
0
LINE
8
Edge.Cuts
6
CONTINUOUS
10
136.482326999999998
20
-51.7072829999999968
11
136.4653329999999869
21
-51.7839369999999946
0
LINE
8
Edge.Cuts
6
CONTINUOUS
10
136.4653329999999869
20
-51.7839369999999946
11
136.4417229999999961
21
-51.8588179999999994
0
LINE
8
Edge.Cuts
6
CONTINUOUS
10
136.4417229999999961
20
-51.8588179999999994
11
136.4116769999999974
21
-51.931356000000001
0
LINE
8
Edge.Cuts
6
CONTINUOUS
10
136.4116769999999974
20
-51.931356000000001
11
136.3754229999999836
21
-52.0009999999999977
0
LINE
8
Edge.Cuts
6
CONTINUOUS
10
136.3754229999999836
20
-52.0009999999999977
11
136.3332369999999969
21
-52.0672189999999944
0
LINE
8
Edge.Cuts
6
CONTINUOUS
10
136.3332369999999969
20
-52.0672189999999944
11
136.2854399999999941
21
-52.1295089999999988
0
LINE
8
Edge.Cuts
6
CONTINUOUS
10
136.2854399999999941
20
-52.1295089999999988
11
136.2323959999999943
21
-52.1873959999999997
0
LINE
8
Edge.Cuts
6
CONTINUOUS
10
136.2323959999999943
20
-52.1873959999999997
11
136.1745090000000005
21
-52.2404399999999995
0
LINE
8
Edge.Cuts
6
CONTINUOUS
10
136.1745090000000005
20
-52.2404399999999995
11
136.1122189999999819
21
-52.2882369999999952
0
LINE
8
Edge.Cuts
6
CONTINUOUS
10
136.1122189999999819
20
-52.2882369999999952
11
136.0459999999999923
21
-52.3304229999999961
0
LINE
8
Edge.Cuts
6
CONTINUOUS
10
136.0459999999999923
20
-52.3304229999999961
11
135.9763559999999813
21
-52.3666769999999957
0
LINE
8
Edge.Cuts
6
CONTINUOUS
10
135.9763559999999813
20
-52.3666769999999957
11
135.9038180000000011
21
-52.3967229999999944
0
LINE
8
Edge.Cuts
6
CONTINUOUS
10
135.9038180000000011
20
-52.3967229999999944
11
135.8289369999999963
21
-52.4203329999999994
0
LINE
8
Edge.Cuts
6
CONTINUOUS
10
135.8289369999999963
20
-52.4203329999999994
11
135.7522830000000056
21
-52.4373269999999962
0
LINE
8
Edge.Cuts
6
CONTINUOUS
10
135.7522830000000056
20
-52.4373269999999962
11
135.6744400000000041
21
-52.4475750000000005
0
LINE
8
Edge.Cuts
6
CONTINUOUS
10
135.6744400000000041
20
-52.4475750000000005
11
135.5960000000000036
21
-52.4510000000000005
0
LINE
8
Edge.Cuts
6
CONTINUOUS
10
135.5960000000000036
20
-52.4510000000000005
11
129.9029999999999916
21
-52.4510000000000005
0
LINE
8
Edge.Cuts
6
CONTINUOUS
10
129.9029999999999916
20
-52.4510000000000005
11
129.8245599999999911
21
-52.4475750000000005
0
LINE
8
Edge.Cuts
6
CONTINUOUS
10
129.8245599999999911
20
-52.4475750000000005
11
129.7467169999999896
21
-52.4373269999999962
0
LINE
8
Edge.Cuts
6
CONTINUOUS
10
129.7467169999999896
20
-52.4373269999999962
11
129.670062999999999
21
-52.4203329999999994
0
LINE
8
Edge.Cuts
6
CONTINUOUS
10
129.670062999999999
20
-52.4203329999999994
11
129.5951819999999941
21
-52.3967229999999944
0
LINE
8
Edge.Cuts
6
CONTINUOUS
10
129.5951819999999941
20
-52.3967229999999944
11
129.5226439999999855
21
-52.3666769999999957
0
LINE
8
Edge.Cuts
6
CONTINUOUS
10
129.5226439999999855
20
-52.3666769999999957
11
129.453000000000003
21
-52.3304229999999961
0
LINE
8
Edge.Cuts
6
CONTINUOUS
10
129.453000000000003
20
-52.3304229999999961
11
129.3867809999999849
21
-52.2882369999999952
0
LINE
8
Edge.Cuts
6
CONTINUOUS
10
129.3867809999999849
20
-52.2882369999999952
11
129.3244909999999948
21
-52.2404399999999995
0
LINE
8
Edge.Cuts
6
CONTINUOUS
10
129.3244909999999948
20
-52.2404399999999995
11
129.266604000000001
21
-52.1873959999999997
0
LINE
8
Edge.Cuts
6
CONTINUOUS
10
129.266604000000001
20
-52.1873959999999997
11
129.2135600000000011
21
-52.1295089999999988
0
LINE
8
Edge.Cuts
6
CONTINUOUS
10
129.2135600000000011
20
-52.1295089999999988
11
129.1657629999999983
21
-52.0672189999999944
0
LINE
8
Edge.Cuts
6
CONTINUOUS
10
129.1657629999999983
20
-52.0672189999999944
11
129.1235769999999832
21
-52.0009999999999977
0
LINE
8
Edge.Cuts
6
CONTINUOUS
10
129.1235769999999832
20
-52.0009999999999977
11
129.0873229999999978
21
-51.931356000000001
0
LINE
8
Edge.Cuts
6
CONTINUOUS
10
129.0873229999999978
20
-51.931356000000001
11
129.0572769999999991
21
-51.8588179999999994
0
LINE
8
Edge.Cuts
6
CONTINUOUS
10
129.0572769999999991
20
-51.8588179999999994
11
129.0336670000000083
21
-51.7839369999999946
0
LINE
8
Edge.Cuts
6
CONTINUOUS
10
129.0336670000000083
20
-51.7839369999999946
11
129.0166729999999973
21
-51.7072829999999968
0
LINE
8
Edge.Cuts
6
CONTINUOUS
10
129.0166729999999973
20
-51.7072829999999968
11
129.0064250000000072
21
-51.6294399999999953
0
LINE
8
Edge.Cuts
6
CONTINUOUS
10
129.0064250000000072
20
-51.6294399999999953
11
129.0029999999999859
21
-51.5509999999999948
0
LINE
8
Edge.Cuts
6
CONTINUOUS
10
129.0029999999999859
20
-51.5509999999999948
11
129.0029999999999859
21
-49.286999999999999
0
LINE
8
Edge.Cuts
6
CONTINUOUS
10
132.2069999999999936
20
-94.9799999999999898
11
132.2108049999999935
21
-94.8928439999999966
0
LINE
8
Edge.Cuts
6
CONTINUOUS
10
132.2108049999999935
20
-94.8928439999999966
11
132.2221920000000068
21
-94.8063519999999897
0
LINE
8
Edge.Cuts
6
CONTINUOUS
10
132.2221920000000068
20
-94.8063519999999897
11
132.2410739999999976
21
-94.7211810000000014
0
LINE
8
Edge.Cuts
6
CONTINUOUS
10
132.2410739999999976
20
-94.7211810000000014
11
132.2673069999999882
21
-94.6379799999999989
0
LINE
8
Edge.Cuts
6
CONTINUOUS
10
132.2673069999999882
20
-94.6379799999999989
11
132.300691999999998
21
-94.5573819999999898
0
LINE
8
Edge.Cuts
6
CONTINUOUS
10
132.300691999999998
20
-94.5573819999999898
11
132.340974999999986
21
-94.4799999999999898
0
LINE
8
Edge.Cuts
6
CONTINUOUS
10
132.340974999999986
20
-94.4799999999999898
11
132.3878479999999911
21
-94.4064240000000012
0
LINE
8
Edge.Cuts
6
CONTINUOUS
10
132.3878479999999911
20
-94.4064240000000012
11
132.4409559999999999
21
-94.3372119999999938
0
LINE
8
Edge.Cuts
6
CONTINUOUS
10
132.4409559999999999
20
-94.3372119999999938
11
132.4998929999999859
21
-94.2728929999999963
0
LINE
8
Edge.Cuts
6
CONTINUOUS
10
132.4998929999999859
20
-94.2728929999999963
11
132.5642119999999977
21
-94.213955999999996
0
LINE
8
Edge.Cuts
6
CONTINUOUS
10
132.5642119999999977
20
-94.213955999999996
11
132.6334239999999909
21
-94.1608480000000014
0
LINE
8
Edge.Cuts
6
CONTINUOUS
10
132.6334239999999909
20
-94.1608480000000014
11
132.7069999999999936
21
-94.1139749999999964
0
LINE
8
Edge.Cuts
6
CONTINUOUS
10
132.7069999999999936
20
-94.1139749999999964
11
132.7843819999999937
21
-94.0736919999999941
0
LINE
8
Edge.Cuts
6
CONTINUOUS
10
132.7843819999999937
20
-94.0736919999999941
11
132.8649800000000027
21
-94.0403069999999985
0
LINE
8
Edge.Cuts
6
CONTINUOUS
10
132.8649800000000027
20
-94.0403069999999985
11
132.9481810000000053
21
-94.0140739999999937
0
LINE
8
Edge.Cuts
6
CONTINUOUS
10
132.9481810000000053
20
-94.0140739999999937
11
133.0333520000000078
21
-93.9951919999999888
0
LINE
8
Edge.Cuts
6
CONTINUOUS
10
133.0333520000000078
20
-93.9951919999999888
11
133.1198440000000005
21
-93.9838049999999896
0
LINE
8
Edge.Cuts
6
CONTINUOUS
10
133.1198440000000005
20
-93.9838049999999896
11
133.2069999999999936
21
-93.9799999999999898
0
LINE
8
Edge.Cuts
6
CONTINUOUS
10
133.2069999999999936
20
-93.9799999999999898
11
143.9069989999999848
21
-93.9799999999999898
0
LINE
8
Edge.Cuts
6
CONTINUOUS
10
143.9069989999999848
20
-93.9799999999999898
11
143.9069999999999823
21
-93.9799999999999898
0
LINE
8
Edge.Cuts
6
CONTINUOUS
10
143.9069999999999823
20
-93.9799999999999898
11
143.9941560000000038
21
-93.9838049999999896
0
LINE
8
Edge.Cuts
6
CONTINUOUS
10
143.9941560000000038
20
-93.9838049999999896
11
144.0806479999999965
21
-93.9951919999999888
0
LINE
8
Edge.Cuts
6
CONTINUOUS
10
144.0806479999999965
20
-93.9951919999999888
11
144.1658189999999991
21
-94.0140739999999937
0
LINE
8
Edge.Cuts
6
CONTINUOUS
10
144.1658189999999991
20
-94.0140739999999937
11
144.2490200000000016
21
-94.0403069999999985
0
LINE
8
Edge.Cuts
6
CONTINUOUS
10
144.2490200000000016
20
-94.0403069999999985
11
144.3296179999999822
21
-94.0736919999999941
0
LINE
8
Edge.Cuts
6
CONTINUOUS
10
144.3296179999999822
20
-94.0736919999999941
11
144.4069999999999823
21
-94.1139749999999964
0
LINE
8
Edge.Cuts
6
CONTINUOUS
10
144.4069999999999823
20
-94.1139749999999964
11
144.480575999999985
21
-94.1608480000000014
0
LINE
8
Edge.Cuts
6
CONTINUOUS
10
144.480575999999985
20
-94.1608480000000014
11
144.5497880000000066
21
-94.213955999999996
0
LINE
8
Edge.Cuts
6
CONTINUOUS
10
144.5497880000000066
20
-94.213955999999996
11
144.61410699999999
21
-94.2728929999999963
0
LINE
8
Edge.Cuts
6
CONTINUOUS
10
144.61410699999999
20
-94.2728929999999963
11
144.6730440000000044
21
-94.3372119999999938
0
LINE
8
Edge.Cuts
6
CONTINUOUS
10
144.6730440000000044
20
-94.3372119999999938
11
144.7261519999999848
21
-94.4064240000000012
0
LINE
8
Edge.Cuts
6
CONTINUOUS
10
144.7261519999999848
20
-94.4064240000000012
11
144.7730249999999899
21
-94.4799999999999898
0
LINE
8
Edge.Cuts
6
CONTINUOUS
10
144.7730249999999899
20
-94.4799999999999898
11
144.8133080000000064
21
-94.5573819999999898
0
LINE
8
Edge.Cuts
6
CONTINUOUS
10
144.8133080000000064
20
-94.5573819999999898
11
144.8466929999999877
21
-94.6379799999999989
0
LINE
8
Edge.Cuts
6
CONTINUOUS
10
144.8466929999999877
20
-94.6379799999999989
11
144.8729260000000068
21
-94.7211810000000014
0
LINE
8
Edge.Cuts
6
CONTINUOUS
10
144.8729260000000068
20
-94.7211810000000014
11
144.8918079999999975
21
-94.8063519999999897
0
LINE
8
Edge.Cuts
6
CONTINUOUS
10
144.8918079999999975
20
-94.8063519999999897
11
144.9031949999999824
21
-94.8928439999999966
0
LINE
8
Edge.Cuts
6
CONTINUOUS
10
144.9031949999999824
20
-94.8928439999999966
11
144.9069999999999823
21
-94.9799999999999898
0
LINE
8
Edge.Cuts
6
CONTINUOUS
10
144.9069999999999823
20
-94.9799999999999898
11
144.9069989999999848
21
-94.9799999999999898
0
LINE
8
Edge.Cuts
6
CONTINUOUS
10
144.9069989999999848
20
-94.9799999999999898
11
144.9069989999999848
21
-120.4119999999999919
0
LINE
8
Edge.Cuts
6
CONTINUOUS
10
144.9069989999999848
20
-120.4119999999999919
11
144.9069989999999848
21
-120.4120009999999894
0
LINE
8
Edge.Cuts
6
CONTINUOUS
10
144.9069989999999848
20
-120.4120009999999894
11
144.903193999999985
21
-120.4991569999999967
0
LINE
8
Edge.Cuts
6
CONTINUOUS
10
144.903193999999985
20
-120.4991569999999967
11
144.891807
21
-120.5856489999999894
0
LINE
8
Edge.Cuts
6
CONTINUOUS
10
144.891807
20
-120.5856489999999894
11
144.8729249999999809
21
-120.670819999999992
0
LINE
8
Edge.Cuts
6
CONTINUOUS
10
144.8729249999999809
20
-120.670819999999992
11
144.8466909999999928
21
-120.7540209999999945
0
LINE
8
Edge.Cuts
6
CONTINUOUS
10
144.8466909999999928
20
-120.7540209999999945
11
144.813305999999983
21
-120.8346189999999893
0
LINE
8
Edge.Cuts
6
CONTINUOUS
10
144.813305999999983
20
-120.8346189999999893
11
144.7730239999999924
21
-120.9119999999999919
0
LINE
8
Edge.Cuts
6
CONTINUOUS
10
144.7730239999999924
20
-120.9119999999999919
11
144.7261509999999873
21
-120.9855769999999922
0
LINE
8
Edge.Cuts
6
CONTINUOUS
10
144.7261509999999873
20
-120.9855769999999922
11
144.6730430000000069
21
-121.0547879999999878
0
LINE
8
Edge.Cuts
6
CONTINUOUS
10
144.6730430000000069
20
-121.0547879999999878
11
144.614104999999995
21
-121.1191069999999996
0
LINE
8
Edge.Cuts
6
CONTINUOUS
10
144.614104999999995
20
-121.1191069999999996
11
144.5497859999999832
21
-121.1780439999999999
0
LINE
8
Edge.Cuts
6
CONTINUOUS
10
144.5497859999999832
20
-121.1780439999999999
11
144.4805749999999875
21
-121.2311519999999945
0
LINE
8
Edge.Cuts
6
CONTINUOUS
10
144.4805749999999875
20
-121.2311519999999945
11
144.4069989999999848
21
-121.2780249999999995
0
LINE
8
Edge.Cuts
6
CONTINUOUS
10
144.4069989999999848
20
-121.2780249999999995
11
144.3296169999999847
21
-121.3183069999999901
0
LINE
8
Edge.Cuts
6
CONTINUOUS
10
144.3296169999999847
20
-121.3183069999999901
11
144.2490190000000041
21
-121.3516919999999999
0
LINE
8
Edge.Cuts
6
CONTINUOUS
10
144.2490190000000041
20
-121.3516919999999999
11
144.1658180000000016
21
-121.3779249999999905
0
LINE
8
Edge.Cuts
6
CONTINUOUS
10
144.1658180000000016
20
-121.3779249999999905
11
144.080646999999999
21
-121.3968069999999955
0
LINE
8
Edge.Cuts
6
CONTINUOUS
10
144.080646999999999
20
-121.3968069999999955
11
143.9941550000000063
21
-121.4081939999999946
0
LINE
8
Edge.Cuts
6
CONTINUOUS
10
143.9941550000000063
20
-121.4081939999999946
11
143.9069989999999848
21
-121.4119989999999945
0
LINE
8
Edge.Cuts
6
CONTINUOUS
10
143.9069989999999848
20
-121.4119989999999945
11
143.9069989999999848
21
-121.4119999999999919
0
LINE
8
Edge.Cuts
6
CONTINUOUS
10
143.9069989999999848
20
-121.4119999999999919
11
133.2069999999999936
21
-121.4119999999999919
0
LINE
8
Edge.Cuts
6
CONTINUOUS
10
133.2069999999999936
20
-121.4119999999999919
11
133.1198440000000005
21
-121.4081949999999921
0
LINE
8
Edge.Cuts
6
CONTINUOUS
10
133.1198440000000005
20
-121.4081949999999921
11
133.0333520000000078
21
-121.3968079999999929
0
LINE
8
Edge.Cuts
6
CONTINUOUS
10
133.0333520000000078
20
-121.3968079999999929
11
132.9481810000000053
21
-121.377925999999988
0
LINE
8
Edge.Cuts
6
CONTINUOUS
10
132.9481810000000053
20
-121.377925999999988
11
132.8649800000000027
21
-121.3516929999999974
0
LINE
8
Edge.Cuts
6
CONTINUOUS
10
132.8649800000000027
20
-121.3516929999999974
11
132.7843819999999937
21
-121.3183079999999876
0
LINE
8
Edge.Cuts
6
CONTINUOUS
10
132.7843819999999937
20
-121.3183079999999876
11
132.7069999999999936
21
-121.2780249999999995
0
LINE
8
Edge.Cuts
6
CONTINUOUS
10
132.7069999999999936
20
-121.2780249999999995
11
132.6334239999999909
21
-121.2311519999999945
0
LINE
8
Edge.Cuts
6
CONTINUOUS
10
132.6334239999999909
20
-121.2311519999999945
11
132.5642119999999977
21
-121.1780439999999999
0
LINE
8
Edge.Cuts
6
CONTINUOUS
10
132.5642119999999977
20
-121.1780439999999999
11
132.4998929999999859
21
-121.1191069999999996
0
LINE
8
Edge.Cuts
6
CONTINUOUS
10
132.4998929999999859
20
-121.1191069999999996
11
132.4409559999999999
21
-121.0547879999999878
0
LINE
8
Edge.Cuts
6
CONTINUOUS
10
132.4409559999999999
20
-121.0547879999999878
11
132.3878479999999911
21
-120.9855759999999947
0
LINE
8
Edge.Cuts
6
CONTINUOUS
10
132.3878479999999911
20
-120.9855759999999947
11
132.340974999999986
21
-120.9119999999999919
0
LINE
8
Edge.Cuts
6
CONTINUOUS
10
132.340974999999986
20
-120.9119999999999919
11
132.300691999999998
21
-120.8346179999999919
0
LINE
8
Edge.Cuts
6
CONTINUOUS
10
132.300691999999998
20
-120.8346179999999919
11
132.2673069999999882
21
-120.754019999999997
0
LINE
8
Edge.Cuts
6
CONTINUOUS
10
132.2673069999999882
20
-120.754019999999997
11
132.2410739999999976
21
-120.6708189999999945
0
LINE
8
Edge.Cuts
6
CONTINUOUS
10
132.2410739999999976
20
-120.6708189999999945
11
132.2221920000000068
21
-120.585647999999992
0
LINE
8
Edge.Cuts
6
CONTINUOUS
10
132.2221920000000068
20
-120.585647999999992
11
132.2108049999999935
21
-120.4991559999999993
0
LINE
8
Edge.Cuts
6
CONTINUOUS
10
132.2108049999999935
20
-120.4991559999999993
11
132.2069999999999936
21
-120.4119999999999919
0
LINE
8
Edge.Cuts
6
CONTINUOUS
10
132.2069999999999936
20
-120.4119999999999919
11
132.2069999999999936
21
-94.9799999999999898
0
LINE
8
Edge.Cuts
6
CONTINUOUS
10
133.2229999999999848
20
-126.7299999999999898
11
133.2268049999999846
21
-126.6428439999999966
0
LINE
8
Edge.Cuts
6
CONTINUOUS
10
133.2268049999999846
20
-126.6428439999999966
11
133.238191999999998
21
-126.5563519999999897
0
LINE
8
Edge.Cuts
6
CONTINUOUS
10
133.238191999999998
20
-126.5563519999999897
11
133.2570739999999887
21
-126.4711809999999872
0
LINE
8
Edge.Cuts
6
CONTINUOUS
10
133.2570739999999887
20
-126.4711809999999872
11
133.2833070000000077
21
-126.3879799999999989
0
LINE
8
Edge.Cuts
6
CONTINUOUS
10
133.2833070000000077
20
-126.3879799999999989
11
133.3166919999999891
21
-126.3073819999999898
0
LINE
8
Edge.Cuts
6
CONTINUOUS
10
133.3166919999999891
20
-126.3073819999999898
11
133.3569750000000056
21
-126.2299999999999898
0
LINE
8
Edge.Cuts
6
CONTINUOUS
10
133.3569750000000056
20
-126.2299999999999898
11
133.4038479999999822
21
-126.1564240000000012
0
LINE
8
Edge.Cuts
6
CONTINUOUS
10
133.4038479999999822
20
-126.1564240000000012
11
133.456955999999991
21
-126.0872119999999938
0
LINE
8
Edge.Cuts
6
CONTINUOUS
10
133.456955999999991
20
-126.0872119999999938
11
133.5158930000000055
21
-126.0228929999999963
0
LINE
8
Edge.Cuts
6
CONTINUOUS
10
133.5158930000000055
20
-126.0228929999999963
11
133.5802119999999888
21
-125.963955999999996
0
LINE
8
Edge.Cuts
6
CONTINUOUS
10
133.5802119999999888
20
-125.963955999999996
11
133.649423999999982
21
-125.9108479999999872
0
LINE
8
Edge.Cuts
6
CONTINUOUS
10
133.649423999999982
20
-125.9108479999999872
11
133.7229999999999848
21
-125.8639749999999964
0
LINE
8
Edge.Cuts
6
CONTINUOUS
10
133.7229999999999848
20
-125.8639749999999964
11
133.8003819999999848
21
-125.8236919999999941
0
LINE
8
Edge.Cuts
6
CONTINUOUS
10
133.8003819999999848
20
-125.8236919999999941
11
133.8809799999999939
21
-125.7903069999999985
0
LINE
8
Edge.Cuts
6
CONTINUOUS
10
133.8809799999999939
20
-125.7903069999999985
11
133.9641809999999964
21
-125.7640739999999937
0
LINE
8
Edge.Cuts
6
CONTINUOUS
10
133.9641809999999964
20
-125.7640739999999937
11
134.049351999999999
21
-125.7451919999999888
0
LINE
8
Edge.Cuts
6
CONTINUOUS
10
134.049351999999999
20
-125.7451919999999888
11
134.1358439999999916
21
-125.7338049999999896
0
LINE
8
Edge.Cuts
6
CONTINUOUS
10
134.1358439999999916
20
-125.7338049999999896
11
134.2229999999999848
21
-125.7299999999999898
0
LINE
8
Edge.Cuts
6
CONTINUOUS
10
134.2229999999999848
20
-125.7299999999999898
11
136.1599999999999966
21
-125.7299999999999898
0
LINE
8
Edge.Cuts
6
CONTINUOUS
10
136.1599999999999966
20
-125.7299999999999898
11
136.2471559999999897
21
-125.7338049999999896
0
LINE
8
Edge.Cuts
6
CONTINUOUS
10
136.2471559999999897
20
-125.7338049999999896
11
136.3336479999999824
21
-125.7451919999999888
0
LINE
8
Edge.Cuts
6
CONTINUOUS
10
136.3336479999999824
20
-125.7451919999999888
11
136.418818999999985
21
-125.7640739999999937
0
LINE
8
Edge.Cuts
6
CONTINUOUS
10
136.418818999999985
20
-125.7640739999999937
11
136.5020199999999875
21
-125.7903069999999985
0
LINE
8
Edge.Cuts
6
CONTINUOUS
10
136.5020199999999875
20
-125.7903069999999985
11
136.5826179999999965
21
-125.8236919999999941
0
LINE
8
Edge.Cuts
6
CONTINUOUS
10
136.5826179999999965
20
-125.8236919999999941
11
136.6599999999999966
21
-125.8639749999999964
0
LINE
8
Edge.Cuts
6
CONTINUOUS
10
136.6599999999999966
20
-125.8639749999999964
11
136.7335759999999993
21
-125.9108479999999872
0
LINE
8
Edge.Cuts
6
CONTINUOUS
10
136.7335759999999993
20
-125.9108479999999872
11
136.8027879999999925
21
-125.963955999999996
0
LINE
8
Edge.Cuts
6
CONTINUOUS
10
136.8027879999999925
20
-125.963955999999996
11
136.8671070000000043
21
-126.0228929999999963
0
LINE
8
Edge.Cuts
6
CONTINUOUS
10
136.8671070000000043
20
-126.0228929999999963
11
136.9260439999999903
21
-126.0872119999999938
0
LINE
8
Edge.Cuts
6
CONTINUOUS
10
136.9260439999999903
20
-126.0872119999999938
11
136.9791519999999991
21
-126.1564240000000012
0
LINE
8
Edge.Cuts
6
CONTINUOUS
10
136.9791519999999991
20
-126.1564240000000012
11
137.0260250000000042
21
-126.2299999999999898
0
LINE
8
Edge.Cuts
6
CONTINUOUS
10
137.0260250000000042
20
-126.2299999999999898
11
137.0663079999999923
21
-126.3073819999999898
0
LINE
8
Edge.Cuts
6
CONTINUOUS
10
137.0663079999999923
20
-126.3073819999999898
11
137.099693000000002
21
-126.3879799999999989
0
LINE
8
Edge.Cuts
6
CONTINUOUS
10
137.099693000000002
20
-126.3879799999999989
11
137.1259259999999927
21
-126.4711809999999872
0
LINE
8
Edge.Cuts
6
CONTINUOUS
10
137.1259259999999927
20
-126.4711809999999872
11
137.1448079999999834
21
-126.5563519999999897
0
LINE
8
Edge.Cuts
6
CONTINUOUS
10
137.1448079999999834
20
-126.5563519999999897
11
137.1561949999999968
21
-126.6428439999999966
0
LINE
8
Edge.Cuts
6
CONTINUOUS
10
137.1561949999999968
20
-126.6428439999999966
11
137.1599999999999966
21
-126.7299999999999898
0
LINE
8
Edge.Cuts
6
CONTINUOUS
10
137.1599999999999966
20
-126.7299999999999898
11
137.1599999999999966
21
-129.6829999999999927
0
LINE
8
Edge.Cuts
6
CONTINUOUS
10
137.1599999999999966
20
-129.6829999999999927
11
137.1561949999999968
21
-129.7701559999999859
0
LINE
8
Edge.Cuts
6
CONTINUOUS
10
137.1561949999999968
20
-129.7701559999999859
11
137.1448079999999834
21
-129.856648000000007
0
LINE
8
Edge.Cuts
6
CONTINUOUS
10
137.1448079999999834
20
-129.856648000000007
11
137.1259259999999927
21
-129.9418189999999811
0
LINE
8
Edge.Cuts
6
CONTINUOUS
10
137.1259259999999927
20
-129.9418189999999811
11
137.099693000000002
21
-130.0250199999999836
0
LINE
8
Edge.Cuts
6
CONTINUOUS
10
137.099693000000002
20
-130.0250199999999836
11
137.0663079999999923
21
-130.1056179999999927
0
LINE
8
Edge.Cuts
6
CONTINUOUS
10
137.0663079999999923
20
-130.1056179999999927
11
137.0260250000000042
21
-130.1829999999999927
0
LINE
8
Edge.Cuts
6
CONTINUOUS
10
137.0260250000000042
20
-130.1829999999999927
11
136.9791519999999991
21
-130.2565759999999955
0
LINE
8
Edge.Cuts
6
CONTINUOUS
10
136.9791519999999991
20
-130.2565759999999955
11
136.9260439999999903
21
-130.3257879999999886
0
LINE
8
Edge.Cuts
6
CONTINUOUS
10
136.9260439999999903
20
-130.3257879999999886
11
136.8671070000000043
21
-130.3901070000000004
0
LINE
8
Edge.Cuts
6
CONTINUOUS
10
136.8671070000000043
20
-130.3901070000000004
11
136.8027879999999925
21
-130.4490439999999865
0
LINE
8
Edge.Cuts
6
CONTINUOUS
10
136.8027879999999925
20
-130.4490439999999865
11
136.7335759999999993
21
-130.5021519999999953
0
LINE
8
Edge.Cuts
6
CONTINUOUS
10
136.7335759999999993
20
-130.5021519999999953
11
136.6599999999999966
21
-130.5490250000000003
0
LINE
8
Edge.Cuts
6
CONTINUOUS
10
136.6599999999999966
20
-130.5490250000000003
11
136.5826179999999965
21
-130.5893079999999884
0
LINE
8
Edge.Cuts
6
CONTINUOUS
10
136.5826179999999965
20
-130.5893079999999884
11
136.5020199999999875
21
-130.6226929999999982
0
LINE
8
Edge.Cuts
6
CONTINUOUS
10
136.5020199999999875
20
-130.6226929999999982
11
136.418818999999985
21
-130.6489259999999888
0
LINE
8
Edge.Cuts
6
CONTINUOUS
10
136.418818999999985
20
-130.6489259999999888
11
136.3336479999999824
21
-130.667808000000008
0
LINE
8
Edge.Cuts
6
CONTINUOUS
10
136.3336479999999824
20
-130.667808000000008
11
136.2471559999999897
21
-130.6791949999999929
0
LINE
8
Edge.Cuts
6
CONTINUOUS
10
136.2471559999999897
20
-130.6791949999999929
11
136.1599999999999966
21
-130.6829999999999927
0
LINE
8
Edge.Cuts
6
CONTINUOUS
10
136.1599999999999966
20
-130.6829999999999927
11
134.2229999999999848
21
-130.6829999999999927
0
LINE
8
Edge.Cuts
6
CONTINUOUS
10
134.2229999999999848
20
-130.6829999999999927
11
134.1358439999999916
21
-130.6791949999999929
0
LINE
8
Edge.Cuts
6
CONTINUOUS
10
134.1358439999999916
20
-130.6791949999999929
11
134.049351999999999
21
-130.667808000000008
0
LINE
8
Edge.Cuts
6
CONTINUOUS
10
134.049351999999999
20
-130.667808000000008
11
133.9641809999999964
21
-130.6489259999999888
0
LINE
8
Edge.Cuts
6
CONTINUOUS
10
133.9641809999999964
20
-130.6489259999999888
11
133.8809799999999939
21
-130.6226929999999982
0
LINE
8
Edge.Cuts
6
CONTINUOUS
10
133.8809799999999939
20
-130.6226929999999982
11
133.8003819999999848
21
-130.5893079999999884
0
LINE
8
Edge.Cuts
6
CONTINUOUS
10
133.8003819999999848
20
-130.5893079999999884
11
133.7229999999999848
21
-130.5490250000000003
0
LINE
8
Edge.Cuts
6
CONTINUOUS
10
133.7229999999999848
20
-130.5490250000000003
11
133.649423999999982
21
-130.5021519999999953
0
LINE
8
Edge.Cuts
6
CONTINUOUS
10
133.649423999999982
20
-130.5021519999999953
11
133.5802119999999888
21
-130.4490439999999865
0
LINE
8
Edge.Cuts
6
CONTINUOUS
10
133.5802119999999888
20
-130.4490439999999865
11
133.5158930000000055
21
-130.3901070000000004
0
LINE
8
Edge.Cuts
6
CONTINUOUS
10
133.5158930000000055
20
-130.3901070000000004
11
133.456955999999991
21
-130.3257879999999886
0
LINE
8
Edge.Cuts
6
CONTINUOUS
10
133.456955999999991
20
-130.3257879999999886
11
133.4038479999999822
21
-130.2565759999999955
0
LINE
8
Edge.Cuts
6
CONTINUOUS
10
133.4038479999999822
20
-130.2565759999999955
11
133.3569750000000056
21
-130.1829999999999927
0
LINE
8
Edge.Cuts
6
CONTINUOUS
10
133.3569750000000056
20
-130.1829999999999927
11
133.3166919999999891
21
-130.1056179999999927
0
LINE
8
Edge.Cuts
6
CONTINUOUS
10
133.3166919999999891
20
-130.1056179999999927
11
133.2833070000000077
21
-130.0250199999999836
0
LINE
8
Edge.Cuts
6
CONTINUOUS
10
133.2833070000000077
20
-130.0250199999999836
11
133.2570739999999887
21
-129.9418189999999811
0
LINE
8
Edge.Cuts
6
CONTINUOUS
10
133.2570739999999887
20
-129.9418189999999811
11
133.238191999999998
21
-129.856648000000007
0
LINE
8
Edge.Cuts
6
CONTINUOUS
10
133.238191999999998
20
-129.856648000000007
11
133.2268049999999846
21
-129.7701559999999859
0
LINE
8
Edge.Cuts
6
CONTINUOUS
10
133.2268049999999846
20
-129.7701559999999859
11
133.2229999999999848
21
-129.6829999999999927
0
LINE
8
Edge.Cuts
6
CONTINUOUS
10
133.2229999999999848
20
-129.6829999999999927
11
133.2229999999999848
21
-126.7299999999999898
0
LINE
8
Edge.Cuts
6
CONTINUOUS
10
138.1759999999999877
20
-146.804000000000002
11
138.1779029999999864
21
-146.7604220000000055
0
LINE
8
Edge.Cuts
6
CONTINUOUS
10
138.1779029999999864
20
-146.7604220000000055
11
138.1835959999999943
21
-146.7171759999999949
0
LINE
8
Edge.Cuts
6
CONTINUOUS
10
138.1835959999999943
20
-146.7171759999999949
11
138.1930370000000039
21
-146.6745899999999949
0
LINE
8
Edge.Cuts
6
CONTINUOUS
10
138.1930370000000039
20
-146.6745899999999949
11
138.2061539999999979
21
-146.6329900000000066
0
LINE
8
Edge.Cuts
6
CONTINUOUS
10
138.2061539999999979
20
-146.6329900000000066
11
138.2228460000000041
21
-146.5926910000000021
0
LINE
8
Edge.Cuts
6
CONTINUOUS
10
138.2228460000000041
20
-146.5926910000000021
11
138.2429869999999994
21
-146.554000000000002
0
LINE
8
Edge.Cuts
6
CONTINUOUS
10
138.2429869999999994
20
-146.554000000000002
11
138.2664240000000007
21
-146.5172120000000007
0
LINE
8
Edge.Cuts
6
CONTINUOUS
10
138.2664240000000007
20
-146.5172120000000007
11
138.2929780000000051
21
-146.4826060000000041
0
LINE
8
Edge.Cuts
6
CONTINUOUS
10
138.2929780000000051
20
-146.4826060000000041
11
138.3224469999999826
21
-146.4504469999999969
0
LINE
8
Edge.Cuts
6
CONTINUOUS
10
138.3224469999999826
20
-146.4504469999999969
11
138.3546059999999898
21
-146.420977999999991
0
LINE
8
Edge.Cuts
6
CONTINUOUS
10
138.3546059999999898
20
-146.420977999999991
11
138.3892119999999863
21
-146.3944239999999866
0
LINE
8
Edge.Cuts
6
CONTINUOUS
10
138.3892119999999863
20
-146.3944239999999866
11
138.4259999999999877
21
-146.3709869999999853
0
LINE
8
Edge.Cuts
6
CONTINUOUS
10
138.4259999999999877
20
-146.3709869999999853
11
138.4646909999999878
21
-146.35084599999999
0
LINE
8
Edge.Cuts
6
CONTINUOUS
10
138.4646909999999878
20
-146.35084599999999
11
138.5049899999999923
21
-146.3341539999999839
0
LINE
8
Edge.Cuts
6
CONTINUOUS
10
138.5049899999999923
20
-146.3341539999999839
11
138.5465899999999806
21
-146.3210369999999898
0
LINE
8
Edge.Cuts
6
CONTINUOUS
10
138.5465899999999806
20
-146.3210369999999898
11
138.5891759999999806
21
-146.3115959999999802
0
LINE
8
Edge.Cuts
6
CONTINUOUS
10
138.5891759999999806
20
-146.3115959999999802
11
138.6324219999999912
21
-146.3059030000000007
0
LINE
8
Edge.Cuts
6
CONTINUOUS
10
138.6324219999999912
20
-146.3059030000000007
11
138.6759999999999877
21
-146.304000000000002
0
LINE
8
Edge.Cuts
6
CONTINUOUS
10
138.6759999999999877
20
-146.304000000000002
11
144.914999999999992
21
-146.304000000000002
0
LINE
8
Edge.Cuts
6
CONTINUOUS
10
144.914999999999992
20
-146.304000000000002
11
144.9585779999999886
21
-146.3059030000000007
0
LINE
8
Edge.Cuts
6
CONTINUOUS
10
144.9585779999999886
20
-146.3059030000000007
11
145.0018239999999992
21
-146.3115959999999802
0
LINE
8
Edge.Cuts
6
CONTINUOUS
10
145.0018239999999992
20
-146.3115959999999802
11
145.0444099999999992
21
-146.3210369999999898
0
LINE
8
Edge.Cuts
6
CONTINUOUS
10
145.0444099999999992
20
-146.3210369999999898
11
145.0860099999999875
21
-146.3341539999999839
0
LINE
8
Edge.Cuts
6
CONTINUOUS
10
145.0860099999999875
20
-146.3341539999999839
11
145.126308999999992
21
-146.35084599999999
0
LINE
8
Edge.Cuts
6
CONTINUOUS
10
145.126308999999992
20
-146.35084599999999
11
145.164999999999992
21
-146.3709869999999853
0
LINE
8
Edge.Cuts
6
CONTINUOUS
10
145.164999999999992
20
-146.3709869999999853
11
145.2017879999999934
21
-146.3944239999999866
0
LINE
8
Edge.Cuts
6
CONTINUOUS
10
145.2017879999999934
20
-146.3944239999999866
11
145.23639399999999
21
-146.420977999999991
0
LINE
8
Edge.Cuts
6
CONTINUOUS
10
145.23639399999999
20
-146.420977999999991
11
145.2685529999999972
21
-146.4504469999999969
0
LINE
8
Edge.Cuts
6
CONTINUOUS
10
145.2685529999999972
20
-146.4504469999999969
11
145.2980220000000031
21
-146.4826060000000041
0
LINE
8
Edge.Cuts
6
CONTINUOUS
10
145.2980220000000031
20
-146.4826060000000041
11
145.3245760000000075
21
-146.5172120000000007
0
LINE
8
Edge.Cuts
6
CONTINUOUS
10
145.3245760000000075
20
-146.5172120000000007
11
145.3480129999999804
21
-146.554000000000002
0
LINE
8
Edge.Cuts
6
CONTINUOUS
10
145.3480129999999804
20
-146.554000000000002
11
145.3681540000000041
21
-146.5926910000000021
0
LINE
8
Edge.Cuts
6
CONTINUOUS
10
145.3681540000000041
20
-146.5926910000000021
11
145.3848459999999818
21
-146.6329900000000066
0
LINE
8
Edge.Cuts
6
CONTINUOUS
10
145.3848459999999818
20
-146.6329900000000066
11
145.3979630000000043
21
-146.6745899999999949
0
LINE
8
Edge.Cuts
6
CONTINUOUS
10
145.3979630000000043
20
-146.6745899999999949
11
145.4074039999999854
21
-146.7171759999999949
0
LINE
8
Edge.Cuts
6
CONTINUOUS
10
145.4074039999999854
20
-146.7171759999999949
11
145.4130969999999934
21
-146.7604220000000055
0
LINE
8
Edge.Cuts
6
CONTINUOUS
10
145.4130969999999934
20
-146.7604220000000055
11
145.414999999999992
21
-146.804000000000002
0
LINE
8
Edge.Cuts
6
CONTINUOUS
10
145.414999999999992
20
-146.804000000000002
11
145.414999999999992
21
-147.9629999999999939
0
LINE
8
Edge.Cuts
6
CONTINUOUS
10
145.414999999999992
20
-147.9629999999999939
11
145.4130969999999934
21
-148.0065779999999904
0
LINE
8
Edge.Cuts
6
CONTINUOUS
10
145.4130969999999934
20
-148.0065779999999904
11
145.4074039999999854
21
-148.049824000000001
0
LINE
8
Edge.Cuts
6
CONTINUOUS
10
145.4074039999999854
20
-148.049824000000001
11
145.3979630000000043
21
-148.092410000000001
0
LINE
8
Edge.Cuts
6
CONTINUOUS
10
145.3979630000000043
20
-148.092410000000001
11
145.3848459999999818
21
-148.1340099999999893
0
LINE
8
Edge.Cuts
6
CONTINUOUS
10
145.3848459999999818
20
-148.1340099999999893
11
145.3681540000000041
21
-148.1743089999999938
0
LINE
8
Edge.Cuts
6
CONTINUOUS
10
145.3681540000000041
20
-148.1743089999999938
11
145.3480129999999804
21
-148.2129999999999939
0
LINE
8
Edge.Cuts
6
CONTINUOUS
10
145.3480129999999804
20
-148.2129999999999939
11
145.3245760000000075
21
-148.2497879999999952
0
LINE
8
Edge.Cuts
6
CONTINUOUS
10
145.3245760000000075
20
-148.2497879999999952
11
145.2980220000000031
21
-148.2843939999999918
0
LINE
8
Edge.Cuts
6
CONTINUOUS
10
145.2980220000000031
20
-148.2843939999999918
11
145.2685529999999972
21
-148.316552999999999
0
LINE
8
Edge.Cuts
6
CONTINUOUS
10
145.2685529999999972
20
-148.316552999999999
11
145.23639399999999
21
-148.3460220000000049
0
LINE
8
Edge.Cuts
6
CONTINUOUS
10
145.23639399999999
20
-148.3460220000000049
11
145.2017879999999934
21
-148.3725759999999809
0
LINE
8
Edge.Cuts
6
CONTINUOUS
10
145.2017879999999934
20
-148.3725759999999809
11
145.164999999999992
21
-148.3960129999999822
0
LINE
8
Edge.Cuts
6
CONTINUOUS
10
145.164999999999992
20
-148.3960129999999822
11
145.126308999999992
21
-148.4161540000000059
0
LINE
8
Edge.Cuts
6
CONTINUOUS
10
145.126308999999992
20
-148.4161540000000059
11
145.0860099999999875
21
-148.4328459999999836
0
LINE
8
Edge.Cuts
6
CONTINUOUS
10
145.0860099999999875
20
-148.4328459999999836
11
145.0444099999999992
21
-148.4459630000000061
0
LINE
8
Edge.Cuts
6
CONTINUOUS
10
145.0444099999999992
20
-148.4459630000000061
11
145.0018239999999992
21
-148.4554039999999873
0
LINE
8
Edge.Cuts
6
CONTINUOUS
10
145.0018239999999992
20
-148.4554039999999873
11
144.9585779999999886
21
-148.4610969999999952
0
LINE
8
Edge.Cuts
6
CONTINUOUS
10
144.9585779999999886
20
-148.4610969999999952
11
144.914999999999992
21
-148.4629999999999939
0
LINE
8
Edge.Cuts
6
CONTINUOUS
10
144.914999999999992
20
-148.4629999999999939
11
138.6759999999999877
21
-148.4629999999999939
0
LINE
8
Edge.Cuts
6
CONTINUOUS
10
138.6759999999999877
20
-148.4629999999999939
11
138.6324219999999912
21
-148.4610969999999952
0
LINE
8
Edge.Cuts
6
CONTINUOUS
10
138.6324219999999912
20
-148.4610969999999952
11
138.5891759999999806
21
-148.4554039999999873
0
LINE
8
Edge.Cuts
6
CONTINUOUS
10
138.5891759999999806
20
-148.4554039999999873
11
138.5465899999999806
21
-148.4459630000000061
0
LINE
8
Edge.Cuts
6
CONTINUOUS
10
138.5465899999999806
20
-148.4459630000000061
11
138.5049899999999923
21
-148.4328459999999836
0
LINE
8
Edge.Cuts
6
CONTINUOUS
10
138.5049899999999923
20
-148.4328459999999836
11
138.4646909999999878
21
-148.4161540000000059
0
LINE
8
Edge.Cuts
6
CONTINUOUS
10
138.4646909999999878
20
-148.4161540000000059
11
138.4259999999999877
21
-148.3960129999999822
0
LINE
8
Edge.Cuts
6
CONTINUOUS
10
138.4259999999999877
20
-148.3960129999999822
11
138.3892119999999863
21
-148.3725759999999809
0
LINE
8
Edge.Cuts
6
CONTINUOUS
10
138.3892119999999863
20
-148.3725759999999809
11
138.3546059999999898
21
-148.3460220000000049
0
LINE
8
Edge.Cuts
6
CONTINUOUS
10
138.3546059999999898
20
-148.3460220000000049
11
138.3224469999999826
21
-148.316552999999999
0
LINE
8
Edge.Cuts
6
CONTINUOUS
10
138.3224469999999826
20
-148.316552999999999
11
138.2929780000000051
21
-148.2843939999999918
0
LINE
8
Edge.Cuts
6
CONTINUOUS
10
138.2929780000000051
20
-148.2843939999999918
11
138.2664240000000007
21
-148.2497879999999952
0
LINE
8
Edge.Cuts
6
CONTINUOUS
10
138.2664240000000007
20
-148.2497879999999952
11
138.2429869999999994
21
-148.2129999999999939
0
LINE
8
Edge.Cuts
6
CONTINUOUS
10
138.2429869999999994
20
-148.2129999999999939
11
138.2228460000000041
21
-148.1743089999999938
0
LINE
8
Edge.Cuts
6
CONTINUOUS
10
138.2228460000000041
20
-148.1743089999999938
11
138.2061539999999979
21
-148.1340099999999893
0
LINE
8
Edge.Cuts
6
CONTINUOUS
10
138.2061539999999979
20
-148.1340099999999893
11
138.1930370000000039
21
-148.092410000000001
0
LINE
8
Edge.Cuts
6
CONTINUOUS
10
138.1930370000000039
20
-148.092410000000001
11
138.1835959999999943
21
-148.049824000000001
0
LINE
8
Edge.Cuts
6
CONTINUOUS
10
138.1835959999999943
20
-148.049824000000001
11
138.1779029999999864
21
-148.0065779999999904
0
LINE
8
Edge.Cuts
6
CONTINUOUS
10
138.1779029999999864
20
-148.0065779999999904
11
138.1759999999999877
21
-147.9629999999999939
0
LINE
8
Edge.Cuts
6
CONTINUOUS
10
138.1759999999999877
20
-147.9629999999999939
11
138.1759999999999877
21
-146.804000000000002
0
LINE
8
Edge.Cuts
6
CONTINUOUS
10
150.420550999999989
20
-40.3859999999999957
11
44.4712120000000013
21
-40.4026239999999959
0
LINE
8
Edge.Cuts
6
CONTINUOUS
10
159.2924999999999898
20
-105.9179999999999922
11
159.2924999999999898
21
-114.6759999999999877
0
ARC
8
Edge.Cuts
10
165.7357999999999834
20
-105.8939000000000021
40
6.4433450706911541
50
-270.00049796
51
-179.78569648
0
ARC
8
Edge.Cuts
10
155.2913999999999817
20
-163.6388000000000034
40
4.0011617708221943
50
-90.13003651
51
-0.31837344
0
LINE
8
Edge.Cuts
6
CONTINUOUS
10
159.2924999999999898
20
-163.6610330000000033
11
159.2924999999999898
21
-114.6759999999999877
0
LINE
8
Edge.Cuts
6
CONTINUOUS
10
172.3389999999999986
20
-92.5829999999999984
11
205.6129999999999995
21
-92.5829999999999984
0
LINE
8
Edge.Cuts
6
CONTINUOUS
10
205.6129999999999995
20
-92.5829999999999984
11
205.6129999999999995
21
-101.5999999999999943
0
LINE
8
Edge.Cuts
6
CONTINUOUS
10
205.6129999999999995
20
-101.5999999999999943
11
172.3389999999999986
21
-101.5999999999999943
0
LINE
8
Edge.Cuts
6
CONTINUOUS
10
172.3389999999999986
20
-101.5999999999999943
11
172.3389999999999986
21
-92.5829999999999984
0
LINE
8
Edge.Cuts
6
CONTINUOUS
10
213.9025000000000034
20
-40.3859999999999957
11
150.420550999999989
21
-40.3859999999999957
0
ARC
8
Edge.Cuts
10
213.9265999999999792
20
-46.8331999999999979
40
6.4472450434274631
50
-0.22712448
51
90.21417388
0
LINE
8
Edge.Cuts
6
CONTINUOUS
10
213.9072569999999871
20
-99.4329239999999999
11
165.7358559999999841
21
-99.450499999999991
0
ARC
8
Edge.Cuts
10
213.9071999999999889
20
-92.9857999999999976
40
6.4470552505872787
50
-89.99949344
51
0.21466898
0
LINE
8
Edge.Cuts
6
CONTINUOUS
10
220.3542099999999948
20
-92.9616449999999901
11
220.3737279999999998
21
-46.8587569999999971
0
LINE
8
Edge.Cuts
6
CONTINUOUS
10
44.0622499999999988
20
-73.9900009999999924
11
44.0622499999999988
21
-86.9900009999999924
0
LINE
8
Edge.Cuts
6
CONTINUOUS
10
44.5622499999999988
20
-73.4900009999999924
11
50.3122499999999988
21
-73.4900009999999924
0
LINE
8
Edge.Cuts
6
CONTINUOUS
10
44.5622499999999988
20
-87.4900009999999924
11
50.3122499999999988
21
-87.4900009999999924
0
LINE
8
Edge.Cuts
6
CONTINUOUS
10
50.8122499999999988
20
-73.9900009999999924
11
50.8122499999999988
21
-86.9900009999999924
0
LINE
8
Edge.Cuts
6
CONTINUOUS
10
52.3434999999999988
20
-72.9899999999999949
11
52.3434999999999988
21
-85.9899999999999949
0
LINE
8
Edge.Cuts
6
CONTINUOUS
10
52.8434999999999988
20
-86.4899999999999949
11
65.8434999999999917
21
-86.4899999999999949
0
LINE
8
Edge.Cuts
6
CONTINUOUS
10
65.8434999999999917
20
-72.4899999999999949
11
52.8434999999999988
21
-72.4899999999999949
0
LINE
8
Edge.Cuts
6
CONTINUOUS
10
66.3434999999999917
20
-85.9899999999999949
11
66.3434999999999917
21
-72.9899999999999949
0
LINE
8
Edge.Cuts
6
CONTINUOUS
10
67.8747499999999917
20
-73.9900009999999924
11
67.8747499999999917
21
-86.9900009999999924
0
LINE
8
Edge.Cuts
6
CONTINUOUS
10
68.3747499999999917
20
-73.4900009999999924
11
74.1235389999999938
21
-73.4900009999999924
0
LINE
8
Edge.Cuts
6
CONTINUOUS
10
68.3747499999999917
20
-87.4900009999999924
11
74.1247499999999917
21
-87.4900009999999924
0
LINE
8
Edge.Cuts
6
CONTINUOUS
10
74.6235389999999938
20
-73.9900009999999924
11
74.6247499999999917
21
-86.9900009999999924
0
ARC
8
Edge.Cuts
10
44.5622509999999963
20
-73.9900019999999898
40
0.500001000001
50
90.00011459
51
179.99988541
0
ARC
8
Edge.Cuts
10
44.5622509999999963
20
-86.9899999999999949
40
0.500001000001
50
-179.99988541
51
-90.00011459
0
ARC
8
Edge.Cuts
10
50.3122489999999942
20
-73.9900019999999898
40
0.500001000001
50
0.00011459
51
89.99988541
0
ARC
8
Edge.Cuts
10
50.3122489999999942
20
-86.9899999999999949
40
0.500001000001
50
-89.99988541
51
-0.00011459
0
ARC
8
Edge.Cuts
10
52.8435009999999963
20
-72.9900009999999924
40
0.500001000001
50
90.00011459
51
179.99988541
0
ARC
8
Edge.Cuts
10
52.8462649999999954
20
-85.9888830000000013
40
0.500001000001
50
-179.99988541
51
-90.00011459
0
ARC
8
Edge.Cuts
10
65.8434999999999917
20
-72.9899999999999949
40
0.5
50
0.00000000
51
90.00000000
0
ARC
8
Edge.Cuts
10
65.8434999999999917
20
-85.9899999999999949
40
0.5
50
-90.00000000
51
-0.00000000
0
ARC
8
Edge.Cuts
10
68.3747999999999934
20
-73.9899999999999949
40
0.5000500000009999
50
-269.99427041
51
-179.99988542
0
ARC
8
Edge.Cuts
10
68.3747999999999934
20
-86.9899999999999949
40
0.500001002499995
50
-179.99988542
51
-90.00572957
0
ARC
8
Edge.Cuts
10
74.1234999999999928
20
-73.9899999999999949
40
0.499999001521003
50
-0.00011458
51
89.99553092
0
ARC
8
Edge.Cuts
10
74.12469999999999
20
-86.9899999999999949
40
0.5000500000009999
50
-89.99427043
51
-0.00011458
0
LINE
8
Edge.Cuts
6
CONTINUOUS
10
42.8185000000000002
20
-92.039999999999992
11
42.8185000000000002
21
-105.039999999999992
0
LINE
8
Edge.Cuts
6
CONTINUOUS
10
43.3185000000000002
20
-105.539999999999992
11
56.3185000000000002
21
-105.539999999999992
0
LINE
8
Edge.Cuts
6
CONTINUOUS
10
56.3185000000000002
20
-91.539999999999992
11
43.3185000000000002
21
-91.539999999999992
0
LINE
8
Edge.Cuts
6
CONTINUOUS
10
56.8185000000000002
20
-105.039999999999992
11
56.8185000000000002
21
-92.039999999999992
0
ARC
8
Edge.Cuts
10
43.3185009999999977
20
-92.0400009999999895
40
0.500001000001
50
90.00011459
51
179.99988541
0
ARC
8
Edge.Cuts
10
43.3212649999999968
20
-105.0388829999999984
40
0.500001000001
50
-179.99988541
51
-90.00011459
0
ARC
8
Edge.Cuts
10
56.3185000000000002
20
-92.039999999999992
40
0.5
50
0.00000000
51
90.00000000
0
ARC
8
Edge.Cuts
10
56.3185000000000002
20
-105.039999999999992
40
0.5
50
-90.00000000
51
-0.00000000
0
LINE
8
Edge.Cuts
6
CONTINUOUS
10
42.8185000000000002
20
-149.1899999999999977
11
42.8185000000000002
21
-162.1899999999999977
0
LINE
8
Edge.Cuts
6
CONTINUOUS
10
43.3185000000000002
20
-162.6899999999999977
11
56.3185000000000002
21
-162.6899999999999977
0
LINE
8
Edge.Cuts
6
CONTINUOUS
10
56.3185000000000002
20
-148.6899999999999977
11
43.3185000000000002
21
-148.6899999999999977
0
LINE
8
Edge.Cuts
6
CONTINUOUS
10
56.8185000000000002
20
-162.1899999999999977
11
56.8185000000000002
21
-149.1899999999999977
0
ARC
8
Edge.Cuts
10
43.3185009999999977
20
-149.1900009999999952
40
0.500001000001
50
90.00011459
51
179.99988541
0
ARC
8
Edge.Cuts
10
43.3212649999999968
20
-162.1888830000000041
40
0.500001000001
50
-179.99988541
51
-90.00011459
0
ARC
8
Edge.Cuts
10
56.3185000000000002
20
-149.1899999999999977
40
0.5
50
0.00000000
51
90.00000000
0
ARC
8
Edge.Cuts
10
56.3185000000000002
20
-162.1899999999999977
40
0.5
50
-90.00000000
51
-0.00000000
0
LINE
8
Edge.Cuts
6
CONTINUOUS
10
42.8185000000000002
20
-130.1399999999999864
11
42.8185000000000002
21
-143.1399999999999864
0
LINE
8
Edge.Cuts
6
CONTINUOUS
10
43.3185000000000002
20
-143.6399999999999864
11
56.3185000000000002
21
-143.6399999999999864
0
LINE
8
Edge.Cuts
6
CONTINUOUS
10
56.3185000000000002
20
-129.6399999999999864
11
43.3185000000000002
21
-129.6399999999999864
0
LINE
8
Edge.Cuts
6
CONTINUOUS
10
56.8185000000000002
20
-143.1399999999999864
11
56.8185000000000002
21
-130.1399999999999864
0
ARC
8
Edge.Cuts
10
43.3185009999999977
20
-130.1400009999999838
40
0.500001000001
50
90.00011459
51
179.99988541
0
ARC
8
Edge.Cuts
10
43.3212649999999968
20
-143.1388829999999928
40
0.500001000001
50
-179.99988541
51
-90.00011459
0
ARC
8
Edge.Cuts
10
56.3185000000000002
20
-130.1399999999999864
40
0.5
50
0.00000000
51
90.00000000
0
ARC
8
Edge.Cuts
10
56.3185000000000002
20
-143.1399999999999864
40
0.5
50
-90.00000000
51
-0.00000000
0
LINE
8
Edge.Cuts
6
CONTINUOUS
10
182.4676999999999794
20
-71.4599999999999937
11
182.4676999999999794
21
-84.4599999999999937
0
LINE
8
Edge.Cuts
6
CONTINUOUS
10
182.9676999999999794
20
-84.9599999999999937
11
195.9676999999999794
21
-84.9599999999999937
0
LINE
8
Edge.Cuts
6
CONTINUOUS
10
195.9676999999999794
20
-70.9599999999999937
11
182.9676999999999794
21
-70.9599999999999937
0
LINE
8
Edge.Cuts
6
CONTINUOUS
10
196.4676999999999794
20
-84.4599999999999937
11
196.4676999999999794
21
-71.4599999999999937
0
ARC
8
Edge.Cuts
10
182.9677010000000053
20
-71.4600009999999912
40
0.500001000001
50
90.00011459
51
179.99988541
0
ARC
8
Edge.Cuts
10
182.9704649999999901
20
-84.4588830000000002
40
0.500001000001
50
-179.99988541
51
-90.00011459
0
ARC
8
Edge.Cuts
10
195.9676999999999794
20
-71.4599999999999937
40
0.5
50
0.00000000
51
90.00000000
0
ARC
8
Edge.Cuts
10
195.9676999999999794
20
-84.4599999999999937
40
0.5
50
-90.00000000
51
-0.00000000
0
LINE
8
Edge.Cuts
6
CONTINUOUS
10
99.9684999999999917
20
-92.039999999999992
11
99.9684999999999917
21
-105.039999999999992
0
LINE
8
Edge.Cuts
6
CONTINUOUS
10
100.4684999999999917
20
-105.539999999999992
11
113.4684999999999917
21
-105.539999999999992
0
LINE
8
Edge.Cuts
6
CONTINUOUS
10
113.4684999999999917
20
-91.539999999999992
11
100.4684999999999917
21
-91.539999999999992
0
LINE
8
Edge.Cuts
6
CONTINUOUS
10
113.9684999999999917
20
-105.039999999999992
11
113.9684999999999917
21
-92.039999999999992
0
ARC
8
Edge.Cuts
10
100.4685009999999892
20
-92.0400009999999895
40
0.500001000001
50
90.00011459
51
179.99988541
0
ARC
8
Edge.Cuts
10
100.4712650000000025
20
-105.0388829999999984
40
0.500001000001
50
-179.99988541
51
-90.00011459
0
ARC
8
Edge.Cuts
10
113.4684999999999917
20
-92.039999999999992
40
0.5
50
0.00000000
51
90.00000000
0
ARC
8
Edge.Cuts
10
113.4684999999999917
20
-105.039999999999992
40
0.5
50
-90.00000000
51
-0.00000000
0
LINE
8
Edge.Cuts
6
CONTINUOUS
10
196.7424999999999784
20
-44.2999999999999972
11
196.7424999999999784
21
-57.2999999999999972
0
LINE
8
Edge.Cuts
6
CONTINUOUS
10
197.2424999999999784
20
-57.7999999999999972
11
210.2424999999999784
21
-57.7999999999999972
0
LINE
8
Edge.Cuts
6
CONTINUOUS
10
210.2424999999999784
20
-43.7999999999999972
11
197.2424999999999784
21
-43.7999999999999972
0
LINE
8
Edge.Cuts
6
CONTINUOUS
10
210.7424999999999784
20
-57.2999999999999972
11
210.7424999999999784
21
-44.2999999999999972
0
ARC
8
Edge.Cuts
10
197.2425010000000043
20
-44.3000009999999946
40
0.500001000001
50
90.00011459
51
179.99988541
0
ARC
8
Edge.Cuts
10
197.2452649999999892
20
-57.2988829999999965
40
0.500001000001
50
-179.99988541
51
-90.00011459
0
ARC
8
Edge.Cuts
10
210.2424999999999784
20
-44.2999999999999972
40
0.5
50
0.00000000
51
90.00000000
0
ARC
8
Edge.Cuts
10
210.2424999999999784
20
-57.2999999999999972
40
0.5
50
-90.00000000
51
-0.00000000
0
LINE
8
Edge.Cuts
6
CONTINUOUS
10
201.5176999999999907
20
-71.4599999999999937
11
201.5176999999999907
21
-84.4599999999999937
0
LINE
8
Edge.Cuts
6
CONTINUOUS
10
202.0176999999999907
20
-84.9599999999999937
11
215.0176999999999907
21
-84.9599999999999937
0
LINE
8
Edge.Cuts
6
CONTINUOUS
10
215.0176999999999907
20
-70.9599999999999937
11
202.0176999999999907
21
-70.9599999999999937
0
LINE
8
Edge.Cuts
6
CONTINUOUS
10
215.5176999999999907
20
-84.4599999999999937
11
215.5176999999999907
21
-71.4599999999999937
0
ARC
8
Edge.Cuts
10
202.0177009999999882
20
-71.4600009999999912
40
0.500001000001
50
90.00011459
51
179.99988541
0
ARC
8
Edge.Cuts
10
202.0204650000000015
20
-84.4588830000000002
40
0.500001000001
50
-179.99988541
51
-90.00011459
0
ARC
8
Edge.Cuts
10
215.0176999999999907
20
-71.4599999999999937
40
0.5
50
0.00000000
51
90.00000000
0
ARC
8
Edge.Cuts
10
215.0176999999999907
20
-84.4599999999999937
40
0.5
50
-90.00000000
51
-0.00000000
0
LINE
8
Edge.Cuts
6
CONTINUOUS
10
168.1674999999999898
20
-44.2999999999999972
11
168.1674999999999898
21
-57.2999999999999972
0
LINE
8
Edge.Cuts
6
CONTINUOUS
10
168.6674999999999898
20
-57.7999999999999972
11
181.6674999999999898
21
-57.7999999999999972
0
LINE
8
Edge.Cuts
6
CONTINUOUS
10
181.6674999999999898
20
-43.7999999999999972
11
168.6674999999999898
21
-43.7999999999999972
0
LINE
8
Edge.Cuts
6
CONTINUOUS
10
182.1674999999999898
20
-57.2999999999999972
11
182.1674999999999898
21
-44.2999999999999972
0
ARC
8
Edge.Cuts
10
168.6675009999999872
20
-44.3000009999999946
40
0.500001000001
50
90.00011459
51
179.99988541
0
ARC
8
Edge.Cuts
10
168.6702650000000006
20
-57.2988829999999965
40
0.500001000001
50
-179.99988541
51
-90.00011459
0
ARC
8
Edge.Cuts
10
181.6674999999999898
20
-44.2999999999999972
40
0.5
50
0.00000000
51
90.00000000
0
ARC
8
Edge.Cuts
10
181.6674999999999898
20
-57.2999999999999972
40
0.5
50
-90.00000000
51
-0.00000000
0
LINE
8
Edge.Cuts
6
CONTINUOUS
10
163.4176999999999964
20
-71.4599999999999937
11
163.4176999999999964
21
-84.4599999999999937
0
LINE
8
Edge.Cuts
6
CONTINUOUS
10
163.9176999999999964
20
-84.9599999999999937
11
176.9176999999999964
21
-84.9599999999999937
0
LINE
8
Edge.Cuts
6
CONTINUOUS
10
176.9176999999999964
20
-70.9599999999999937
11
163.9176999999999964
21
-70.9599999999999937
0
LINE
8
Edge.Cuts
6
CONTINUOUS
10
177.4176999999999964
20
-84.4599999999999937
11
177.4176999999999964
21
-71.4599999999999937
0
ARC
8
Edge.Cuts
10
163.9177009999999939
20
-71.4600009999999912
40
0.500001000001
50
90.00011459
51
179.99988541
0
ARC
8
Edge.Cuts
10
163.9204649999999788
20
-84.4588830000000002
40
0.500001000001
50
-179.99988541
51
-90.00011459
0
ARC
8
Edge.Cuts
10
176.9176999999999964
20
-71.4599999999999937
40
0.5
50
0.00000000
51
90.00000000
0
ARC
8
Edge.Cuts
10
176.9176999999999964
20
-84.4599999999999937
40
0.5
50
-90.00000000
51
-0.00000000
0
LINE
8
Edge.Cuts
6
CONTINUOUS
10
82.1622500000000002
20
-73.9900009999999924
11
82.1622500000000002
21
-86.9900009999999924
0
LINE
8
Edge.Cuts
6
CONTINUOUS
10
82.6622500000000002
20
-73.4900009999999924
11
88.4122500000000002
21
-73.4900009999999924
0
LINE
8
Edge.Cuts
6
CONTINUOUS
10
82.6622500000000002
20
-87.4900009999999924
11
88.4122500000000002
21
-87.4900009999999924
0
LINE
8
Edge.Cuts
6
CONTINUOUS
10
88.9122500000000002
20
-73.9900009999999924
11
88.9122500000000002
21
-86.9900009999999924
0
LINE
8
Edge.Cuts
6
CONTINUOUS
10
90.4435000000000002
20
-72.9899999999999949
11
90.4435000000000002
21
-85.9899999999999949
0
LINE
8
Edge.Cuts
6
CONTINUOUS
10
90.9435000000000002
20
-86.4899999999999949
11
103.9435000000000002
21
-86.4899999999999949
0
LINE
8
Edge.Cuts
6
CONTINUOUS
10
103.9435000000000002
20
-72.4899999999999949
11
90.9435000000000002
21
-72.4899999999999949
0
LINE
8
Edge.Cuts
6
CONTINUOUS
10
104.4435000000000002
20
-85.9899999999999949
11
104.4435000000000002
21
-72.9899999999999949
0
LINE
8
Edge.Cuts
6
CONTINUOUS
10
105.9747500000000002
20
-73.9900009999999924
11
105.9747500000000002
21
-86.9900009999999924
0
LINE
8
Edge.Cuts
6
CONTINUOUS
10
106.4747500000000002
20
-73.4900009999999924
11
112.2235389999999882
21
-73.4900009999999924
0
LINE
8
Edge.Cuts
6
CONTINUOUS
10
106.4747500000000002
20
-87.4900009999999924
11
112.2247500000000002
21
-87.4900009999999924
0
LINE
8
Edge.Cuts
6
CONTINUOUS
10
112.7235389999999882
20
-73.9900009999999924
11
112.7247500000000002
21
-86.9900009999999924
0
ARC
8
Edge.Cuts
10
82.6622509999999977
20
-73.9900019999999898
40
0.500001000001
50
90.00011459
51
179.99988541
0
ARC
8
Edge.Cuts
10
82.6622509999999977
20
-86.9899999999999949
40
0.500001000001
50
-179.99988541
51
-90.00011459
0
ARC
8
Edge.Cuts
10
88.4122490000000028
20
-73.9900019999999898
40
0.500001000001
50
0.00011459
51
89.99988541
0
ARC
8
Edge.Cuts
10
88.4122490000000028
20
-86.9899999999999949
40
0.500001000001
50
-89.99988541
51
-0.00011459
0
ARC
8
Edge.Cuts
10
90.9435009999999977
20
-72.9900009999999924
40
0.500001000001
50
90.00011459
51
179.99988541
0
ARC
8
Edge.Cuts
10
90.9462649999999968
20
-85.9888830000000013
40
0.500001000001
50
-179.99988541
51
-90.00011459
0
ARC
8
Edge.Cuts
10
103.9435000000000002
20
-72.9899999999999949
40
0.5
50
0.00000000
51
90.00000000
0
ARC
8
Edge.Cuts
10
103.9435000000000002
20
-85.9899999999999949
40
0.5
50
-90.00000000
51
-0.00000000
0
ARC
8
Edge.Cuts
10
106.4748000000000019
20
-73.9899999999999949
40
0.5000500000009999
50
-269.99427041
51
-179.99988542
0
ARC
8
Edge.Cuts
10
106.4748000000000019
20
-86.9899999999999949
40
0.500001002499995
50
-179.99988542
51
-90.00572957
0
ARC
8
Edge.Cuts
10
112.2235000000000014
20
-73.9899999999999949
40
0.499999001521003
50
-0.00011458
51
89.99553092
0
ARC
8
Edge.Cuts
10
112.2246999999999986
20
-86.9899999999999949
40
0.5000500000009999
50
-89.99427043
51
-0.00011458
0
LINE
8
Edge.Cuts
6
CONTINUOUS
10
65.4934999999999974
20
-150.1900009999999952
11
65.4934999999999974
21
-163.1900009999999952
0
LINE
8
Edge.Cuts
6
CONTINUOUS
10
65.9934999999999974
20
-149.6900009999999952
11
71.7434999999999974
21
-149.6900009999999952
0
LINE
8
Edge.Cuts
6
CONTINUOUS
10
65.9934999999999974
20
-163.6900009999999952
11
71.7434999999999974
21
-163.6900009999999952
0
LINE
8
Edge.Cuts
6
CONTINUOUS
10
72.2434999999999974
20
-150.1900009999999952
11
72.2434999999999974
21
-163.1900009999999952
0
LINE
8
Edge.Cuts
6
CONTINUOUS
10
80.9184999999999945
20
-149.1899999999999977
11
80.9184999999999945
21
-162.1899999999999977
0
LINE
8
Edge.Cuts
6
CONTINUOUS
10
81.4184999999999945
20
-162.6899999999999977
11
94.4184999999999945
21
-162.6899999999999977
0
LINE
8
Edge.Cuts
6
CONTINUOUS
10
94.4184999999999945
20
-148.6899999999999977
11
81.4184999999999945
21
-148.6899999999999977
0
LINE
8
Edge.Cuts
6
CONTINUOUS
10
94.9184999999999945
20
-162.1899999999999977
11
94.9184999999999945
21
-149.1899999999999977
0
LINE
8
Edge.Cuts
6
CONTINUOUS
10
103.594104999999999
20
-150.1900009999999952
11
103.594104999999999
21
-163.1900009999999952
0
LINE
8
Edge.Cuts
6
CONTINUOUS
10
104.094104999999999
20
-149.6900009999999952
11
109.8428940000000011
21
-149.6900009999999952
0
LINE
8
Edge.Cuts
6
CONTINUOUS
10
104.094104999999999
20
-163.6900009999999952
11
109.844104999999999
21
-163.6900009999999952
0
LINE
8
Edge.Cuts
6
CONTINUOUS
10
110.3428940000000011
20
-150.1900009999999952
11
110.344104999999999
21
-163.1900009999999952
0
ARC
8
Edge.Cuts
10
65.9935009999999949
20
-150.1900019999999927
40
0.500001000001
50
90.00011459
51
179.99988541
0
ARC
8
Edge.Cuts
10
65.9935009999999949
20
-163.1899999999999977
40
0.500001000001
50
-179.99988541
51
-90.00011459
0
ARC
8
Edge.Cuts
10
71.7434989999999999
20
-150.1900019999999927
40
0.500001000001
50
0.00011459
51
89.99988541
0
ARC
8
Edge.Cuts
10
71.7434989999999999
20
-163.1899999999999977
40
0.500001000001
50
-89.99988541
51
-0.00011459
0
ARC
8
Edge.Cuts
10
81.418500999999992
20
-149.1900009999999952
40
0.500001000001
50
90.00011459
51
179.99988541
0
ARC
8
Edge.Cuts
10
81.4212649999999911
20
-162.1888830000000041
40
0.500001000001
50
-179.99988541
51
-90.00011459
0
ARC
8
Edge.Cuts
10
94.4184999999999945
20
-149.1899999999999977
40
0.5
50
0.00000000
51
90.00000000
0
ARC
8
Edge.Cuts
10
94.4184999999999945
20
-162.1899999999999977
40
0.5
50
-90.00000000
51
-0.00000000
0
ARC
8
Edge.Cuts
10
104.0940999999999974
20
-150.1899999999999977
40
0.499995000001
50
-270.00057296
51
-179.99988541
0
ARC
8
Edge.Cuts
10
104.0942000000000007
20
-163.1898999999999944
40
0.5001010090231772
50
-179.98842845
51
-90.01088400
0
ARC
8
Edge.Cuts
10
109.8427999999999969
20
-150.190100000000001
40
0.5000990088342507
50
0.01134243
51
89.98923053
0
ARC
8
Edge.Cuts
10
109.8440999999999974
20
-163.1899999999999977
40
0.500005000001
50
-89.99942704
51
-0.00011459
0
LINE
8
Edge.Cuts
6
CONTINUOUS
10
61.8684999999999974
20
-130.1399999999999864
11
61.8684999999999974
21
-143.1399999999999864
0
LINE
8
Edge.Cuts
6
CONTINUOUS
10
62.3684999999999974
20
-143.6399999999999864
11
75.3684999999999974
21
-143.6399999999999864
0
LINE
8
Edge.Cuts
6
CONTINUOUS
10
75.3684999999999974
20
-129.6399999999999864
11
62.3684999999999974
21
-129.6399999999999864
0
LINE
8
Edge.Cuts
6
CONTINUOUS
10
75.8684999999999974
20
-143.1399999999999864
11
75.8684999999999974
21
-130.1399999999999864
0
ARC
8
Edge.Cuts
10
62.3685009999999949
20
-130.1400009999999838
40
0.500001000001
50
90.00011459
51
179.99988541
0
ARC
8
Edge.Cuts
10
62.371264999999994
20
-143.1388829999999928
40
0.500001000001
50
-179.99988541
51
-90.00011459
0
ARC
8
Edge.Cuts
10
75.3684999999999974
20
-130.1399999999999864
40
0.5
50
0.00000000
51
90.00000000
0
ARC
8
Edge.Cuts
10
75.3684999999999974
20
-143.1399999999999864
40
0.5
50
-90.00000000
51
-0.00000000
0
LINE
8
Edge.Cuts
6
CONTINUOUS
10
42.8185000000000002
20
-111.0899999999999892
11
42.8185000000000002
21
-124.0899999999999892
0
LINE
8
Edge.Cuts
6
CONTINUOUS
10
43.3185000000000002
20
-124.5899999999999892
11
56.3185000000000002
21
-124.5899999999999892
0
LINE
8
Edge.Cuts
6
CONTINUOUS
10
56.3185000000000002
20
-110.5899999999999892
11
43.3185000000000002
21
-110.5899999999999892
0
LINE
8
Edge.Cuts
6
CONTINUOUS
10
56.8185000000000002
20
-124.0899999999999892
11
56.8185000000000002
21
-111.0899999999999892
0
ARC
8
Edge.Cuts
10
43.3185009999999977
20
-111.0900010000000009
40
0.500001000001
50
90.00011459
51
179.99988541
0
ARC
8
Edge.Cuts
10
43.3212649999999968
20
-124.0888829999999956
40
0.500001000001
50
-179.99988541
51
-90.00011459
0
ARC
8
Edge.Cuts
10
56.3185000000000002
20
-111.0899999999999892
40
0.5
50
0.00000000
51
90.00000000
0
ARC
8
Edge.Cuts
10
56.3185000000000002
20
-124.0899999999999892
40
0.5
50
-90.00000000
51
-0.00000000
0
LINE
8
Edge.Cuts
6
CONTINUOUS
10
80.9184999999999945
20
-111.0899999999999892
11
80.9184999999999945
21
-124.0899999999999892
0
LINE
8
Edge.Cuts
6
CONTINUOUS
10
81.4184999999999945
20
-124.5899999999999892
11
94.4184999999999945
21
-124.5899999999999892
0
LINE
8
Edge.Cuts
6
CONTINUOUS
10
94.4184999999999945
20
-110.5899999999999892
11
81.4184999999999945
21
-110.5899999999999892
0
LINE
8
Edge.Cuts
6
CONTINUOUS
10
94.9184999999999945
20
-124.0899999999999892
11
94.9184999999999945
21
-111.0899999999999892
0
ARC
8
Edge.Cuts
10
81.418500999999992
20
-111.0900010000000009
40
0.500001000001
50
90.00011459
51
179.99988541
0
ARC
8
Edge.Cuts
10
81.4212649999999911
20
-124.0888829999999956
40
0.500001000001
50
-179.99988541
51
-90.00011459
0
ARC
8
Edge.Cuts
10
94.4184999999999945
20
-111.0899999999999892
40
0.5
50
0.00000000
51
90.00000000
0
ARC
8
Edge.Cuts
10
94.4184999999999945
20
-124.0899999999999892
40
0.5
50
-90.00000000
51
-0.00000000
0
LINE
8
Edge.Cuts
6
CONTINUOUS
10
99.9684999999999917
20
-130.1399999999999864
11
99.9684999999999917
21
-143.1399999999999864
0
LINE
8
Edge.Cuts
6
CONTINUOUS
10
100.4684999999999917
20
-143.6399999999999864
11
113.4684999999999917
21
-143.6399999999999864
0
LINE
8
Edge.Cuts
6
CONTINUOUS
10
113.4684999999999917
20
-129.6399999999999864
11
100.4684999999999917
21
-129.6399999999999864
0
LINE
8
Edge.Cuts
6
CONTINUOUS
10
113.9684999999999917
20
-143.1399999999999864
11
113.9684999999999917
21
-130.1399999999999864
0
ARC
8
Edge.Cuts
10
100.4685009999999892
20
-130.1400009999999838
40
0.500001000001
50
90.00011459
51
179.99988541
0
ARC
8
Edge.Cuts
10
100.4712650000000025
20
-143.1388829999999928
40
0.500001000001
50
-179.99988541
51
-90.00011459
0
ARC
8
Edge.Cuts
10
113.4684999999999917
20
-130.1399999999999864
40
0.5
50
0.00000000
51
90.00000000
0
ARC
8
Edge.Cuts
10
113.4684999999999917
20
-143.1399999999999864
40
0.5
50
-90.00000000
51
-0.00000000
0
LINE
8
Edge.Cuts
6
CONTINUOUS
10
80.9184999999999945
20
-92.039999999999992
11
80.9184999999999945
21
-105.039999999999992
0
LINE
8
Edge.Cuts
6
CONTINUOUS
10
81.4184999999999945
20
-105.539999999999992
11
94.4184999999999945
21
-105.539999999999992
0
LINE
8
Edge.Cuts
6
CONTINUOUS
10
94.4184999999999945
20
-91.539999999999992
11
81.4184999999999945
21
-91.539999999999992
0
LINE
8
Edge.Cuts
6
CONTINUOUS
10
94.9184999999999945
20
-105.039999999999992
11
94.9184999999999945
21
-92.039999999999992
0
ARC
8
Edge.Cuts
10
81.418500999999992
20
-92.0400009999999895
40
0.500001000001
50
90.00011459
51
179.99988541
0
ARC
8
Edge.Cuts
10
81.4212649999999911
20
-105.0388829999999984
40
0.500001000001
50
-179.99988541
51
-90.00011459
0
ARC
8
Edge.Cuts
10
94.4184999999999945
20
-92.039999999999992
40
0.5
50
0.00000000
51
90.00000000
0
ARC
8
Edge.Cuts
10
94.4184999999999945
20
-105.039999999999992
40
0.5
50
-90.00000000
51
-0.00000000
0
LINE
8
Edge.Cuts
6
CONTINUOUS
10
80.9184999999999945
20
-130.1399999999999864
11
80.9184999999999945
21
-143.1399999999999864
0
LINE
8
Edge.Cuts
6
CONTINUOUS
10
81.4184999999999945
20
-143.6399999999999864
11
94.4184999999999945
21
-143.6399999999999864
0
LINE
8
Edge.Cuts
6
CONTINUOUS
10
94.4184999999999945
20
-129.6399999999999864
11
81.4184999999999945
21
-129.6399999999999864
0
LINE
8
Edge.Cuts
6
CONTINUOUS
10
94.9184999999999945
20
-143.1399999999999864
11
94.9184999999999945
21
-130.1399999999999864
0
ARC
8
Edge.Cuts
10
81.418500999999992
20
-130.1400009999999838
40
0.500001000001
50
90.00011459
51
179.99988541
0
ARC
8
Edge.Cuts
10
81.4212649999999911
20
-143.1388829999999928
40
0.500001000001
50
-179.99988541
51
-90.00011459
0
ARC
8
Edge.Cuts
10
94.4184999999999945
20
-130.1399999999999864
40
0.5
50
0.00000000
51
90.00000000
0
ARC
8
Edge.Cuts
10
94.4184999999999945
20
-143.1399999999999864
40
0.5
50
-90.00000000
51
-0.00000000
0
LINE
8
Edge.Cuts
6
CONTINUOUS
10
99.9684999999999917
20
-111.0899999999999892
11
99.9684999999999917
21
-124.0899999999999892
0
LINE
8
Edge.Cuts
6
CONTINUOUS
10
100.4684999999999917
20
-124.5899999999999892
11
113.4684999999999917
21
-124.5899999999999892
0
LINE
8
Edge.Cuts
6
CONTINUOUS
10
113.4684999999999917
20
-110.5899999999999892
11
100.4684999999999917
21
-110.5899999999999892
0
LINE
8
Edge.Cuts
6
CONTINUOUS
10
113.9684999999999917
20
-124.0899999999999892
11
113.9684999999999917
21
-111.0899999999999892
0
ARC
8
Edge.Cuts
10
100.4685009999999892
20
-111.0900010000000009
40
0.500001000001
50
90.00011459
51
179.99988541
0
ARC
8
Edge.Cuts
10
100.4712650000000025
20
-124.0888829999999956
40
0.500001000001
50
-179.99988541
51
-90.00011459
0
ARC
8
Edge.Cuts
10
113.4684999999999917
20
-111.0899999999999892
40
0.5
50
0.00000000
51
90.00000000
0
ARC
8
Edge.Cuts
10
113.4684999999999917
20
-124.0899999999999892
40
0.5
50
-90.00000000
51
-0.00000000
0
LINE
8
Edge.Cuts
6
CONTINUOUS
10
61.8684999999999974
20
-92.039999999999992
11
61.8684999999999974
21
-105.039999999999992
0
LINE
8
Edge.Cuts
6
CONTINUOUS
10
62.3684999999999974
20
-105.539999999999992
11
75.3684999999999974
21
-105.539999999999992
0
LINE
8
Edge.Cuts
6
CONTINUOUS
10
75.3684999999999974
20
-91.539999999999992
11
62.3684999999999974
21
-91.539999999999992
0
LINE
8
Edge.Cuts
6
CONTINUOUS
10
75.8684999999999974
20
-105.039999999999992
11
75.8684999999999974
21
-92.039999999999992
0
ARC
8
Edge.Cuts
10
62.3685009999999949
20
-92.0400009999999895
40
0.500001000001
50
90.00011459
51
179.99988541
0
ARC
8
Edge.Cuts
10
62.371264999999994
20
-105.0388829999999984
40
0.500001000001
50
-179.99988541
51
-90.00011459
0
ARC
8
Edge.Cuts
10
75.3684999999999974
20
-92.039999999999992
40
0.5
50
0.00000000
51
90.00000000
0
ARC
8
Edge.Cuts
10
75.3684999999999974
20
-105.039999999999992
40
0.5
50
-90.00000000
51
-0.00000000
0
LINE
8
Edge.Cuts
6
CONTINUOUS
10
61.8684999999999974
20
-111.0899999999999892
11
61.8684999999999974
21
-124.0899999999999892
0
LINE
8
Edge.Cuts
6
CONTINUOUS
10
62.3684999999999974
20
-124.5899999999999892
11
75.3684999999999974
21
-124.5899999999999892
0
LINE
8
Edge.Cuts
6
CONTINUOUS
10
75.3684999999999974
20
-110.5899999999999892
11
62.3684999999999974
21
-110.5899999999999892
0
LINE
8
Edge.Cuts
6
CONTINUOUS
10
75.8684999999999974
20
-124.0899999999999892
11
75.8684999999999974
21
-111.0899999999999892
0
ARC
8
Edge.Cuts
10
62.3685009999999949
20
-111.0900010000000009
40
0.500001000001
50
90.00011459
51
179.99988541
0
ARC
8
Edge.Cuts
10
62.371264999999994
20
-124.0888829999999956
40
0.500001000001
50
-179.99988541
51
-90.00011459
0
ARC
8
Edge.Cuts
10
75.3684999999999974
20
-111.0899999999999892
40
0.5
50
0.00000000
51
90.00000000
0
ARC
8
Edge.Cuts
10
75.3684999999999974
20
-124.0899999999999892
40
0.5
50
-90.00000000
51
-0.00000000
0
CIRCLE
8
Edge.Cuts
10
125.1124999999999972
20
-65.9359999999999928
40
1.2499989999999999
0
CIRCLE
8
Edge.Cuts
10
75.4724999999999966
20
-64.9359999999999928
40
1.2499989999999999
0
CIRCLE
8
Edge.Cuts
10
59.2164999999999964
20
-127.
40
1.2499989999999999
0
CIRCLE
8
Edge.Cuts
10
133.8924999999999841
20
-62.2299999999999969
40
1.2499989999999999
0
CIRCLE
8
Edge.Cuts
10
55.660499999999999
20
-65.0240000000000009
40
1.2499989999999999
0
CIRCLE
8
Edge.Cuts
10
55.660499999999999
20
-61.4679999999999964
40
1.2499989999999999
0
CIRCLE
8
Edge.Cuts
10
140.7504999999999882
20
-70.1039999999999992
40
1.2499989999999999
0
CIRCLE
8
Edge.Cuts
10
122.8624999999999972
20
-92.1859999999999928
40
1.2499989999999999
0
CIRCLE
8
Edge.Cuts
10
71.6624999999999943
20
-64.9359999999999928
40
1.2499989999999999
0
CIRCLE
8
Edge.Cuts
10
167.166499999999985
20
-92.7099999999999937
40
1.2499989999999999
0
CIRCLE
8
Edge.Cuts
10
125.1124999999999972
20
-61.9359999999999999
40
1.2499989999999999
0
CIRCLE
8
Edge.Cuts
10
88.1724999999999994
20
-58.9279999999999973
40
1.2499989999999999
0
CIRCLE
8
Edge.Cuts
10
94.2684999999999889
20
-58.9279999999999973
40
1.2499989999999999
0
CIRCLE
8
Edge.Cuts
10
59.2164999999999964
20
-146.0499999999999829
40
1.2499989999999999
0
CIRCLE
8
Edge.Cuts
10
61.7564999999999955
20
-61.4679999999999964
40
1.2499989999999999
0
CIRCLE
8
Edge.Cuts
10
141.7665000000000077
20
-75.945999999999998
40
1.2499989999999999
0
CIRCLE
8
Edge.Cuts
10
152.6885000000000048
20
-111.2519999999999953
40
1.2499989999999999
0
CIRCLE
8
Edge.Cuts
10
100.3644999999999925
20
-58.9279999999999973
40
1.2499989999999999
0
CIRCLE
8
Edge.Cuts
10
125.2564999999999884
20
-57.911999999999999
40
1.2499989999999999
0
CIRCLE
8
Edge.Cuts
10
62.2644999999999982
20
-158.4959999999999809
40
1.2499989999999999
0
CIRCLE
8
Edge.Cuts
10
199.9325000000000045
20
-64.769999999999996
40
1.2499989999999999
0
CIRCLE
8
Edge.Cuts
10
211.616500000000002
20
-89.6619999999999919
40
1.2499989999999999
0
CIRCLE
8
Edge.Cuts
10
122.8624999999999972
20
-86.1711469999999906
40
1.2499989999999999
0
CIRCLE
8
Edge.Cuts
10
59.2164999999999964
20
-107.695999999999998
40
1.2499989999999999
0
CIRCLE
8
Edge.Cuts
10
136.6864999999999952
20
-70.1039999999999992
40
1.2499989999999999
0
CIRCLE
8
Edge.Cuts
10
90.7124999999999915
20
-67.563999999999993
40
1.2499989999999999
0
CIRCLE
8
Edge.Cuts
10
170.4685000000000059
20
-92.7099999999999937
40
1.2499989999999999
  0
ENDSEC
  0
EOF
